<?xml version="1.0" encoding="UTF-8" standalone="no"?>
<!-- Created with Inkscape (http://www.inkscape.org/) -->

<svg
   width="25.72913mm"
   height="5.2820907mm"
   viewBox="0 0 25.72913 5.2820907"
   version="1.1"
   id="svg1"
   xmlns:inkscape="http://www.inkscape.org/namespaces/inkscape"
   xmlns:sodipodi="http://sodipodi.sourceforge.net/DTD/sodipodi-0.dtd"
   xmlns="http://www.w3.org/2000/svg"
   xmlns:svg="http://www.w3.org/2000/svg">
  <sodipodi:namedview
     id="namedview1"
     pagecolor="#ffffff"
     bordercolor="#000000"
     borderopacity="0.25"
     inkscape:showpageshadow="2"
     inkscape:pageopacity="0.0"
     inkscape:pagecheckerboard="0"
     inkscape:deskcolor="#d1d1d1"
     inkscape:document-units="mm" />
  <defs
     id="defs1" />
  <g
     inkscape:label="Ebene 1"
     inkscape:groupmode="layer"
     id="layer1"
     transform="translate(-91.546908,-52.079413)">
    <path
       d="m 95.999234,54.672581 q 0,0.69361 -0.31186,1.25738 -0.30835,0.56377 -0.82344,0.8747 -0.35741,0.21525 -0.79891,0.31092 -0.438,0.0957 -1.15632,0.0957 h -1.31751 v -5.08758 h 1.30349 q 0.76387,0 1.21239,0.10933 0.45201,0.10593 0.76387,0.29385 0.53261,0.32459 0.83045,0.86444 0.29784,0.53985 0.29784,1.28129 z m -0.72533,-0.0102 q 0,-0.59794 -0.21375,-1.00796 -0.21374,-0.41001 -0.63772,-0.64576 -0.30836,-0.17085 -0.65525,-0.23576 -0.3469,-0.0683 -0.83045,-0.0683 h -0.65175 v 3.92588 h 0.65175 q 0.50107,0 0.8725,-0.0718 0.37492,-0.0718 0.68678,-0.26651 0.38894,-0.24259 0.58166,-0.63894 0.19623,-0.39635 0.19623,-0.99086 z m 5.774596,0.50568 q 0,0.55352 -0.12615,0.96695 -0.12264,0.41001 -0.40646,0.68335 -0.26981,0.25968 -0.630721,0.37927 -0.36091,0.11958 -0.840965,0.11958 -0.49056,0 -0.85497,-0.12642 -0.36442,-0.12642 -0.61321,-0.37243 -0.28382,-0.28017 -0.40996,-0.67652 -0.12264,-0.39635 -0.12264,-0.97378 v -3.04435 h 0.69379 v 3.07852 q 0,0.41343 0.0561,0.6526 0.0596,0.23918 0.19623,0.43393 0.15417,0.22209 0.41697,0.33484 0.26631,0.11276 0.63773,0.11276 0.374935,0 0.637735,-0.10934 0.2628,-0.11275 0.420481,-0.33826 0.13665,-0.19475 0.19272,-0.44418 0.0596,-0.25284 0.0596,-0.62527 v -3.0956 h 0.69379 z m 5.2595,0.47835 q 0,0.37926 -0.14717,0.66968 -0.14717,0.29043 -0.39595,0.47836 -0.29434,0.2255 -0.64824,0.32117 -0.3504,0.0957 -0.89352,0.0957 h -1.85011 v -5.08758 h 1.54526 q 0.57115,0 0.85498,0.041 0.28382,0.041 0.54312,0.17084 0.28733,0.14692 0.41697,0.37926 0.12965,0.22892 0.12965,0.5501 0,0.36218 -0.18921,0.61844 -0.18922,0.25284 -0.50458,0.4066 v 0.0273 q 0.5291,0.10592 0.83395,0.45443 0.30485,0.3451 0.30485,0.8747 z m -1.16683,-2.29266 q 0,-0.18451 -0.0631,-0.31093 -0.0631,-0.12642 -0.20324,-0.20501 -0.16469,-0.0922 -0.39945,-0.11275 -0.23477,-0.0239 -0.58167,-0.0239 h -0.82694 v 1.46922 h 0.89702 q 0.32588,0 0.5186,-0.0307 0.19272,-0.0342 0.3574,-0.13667 0.16469,-0.10251 0.23127,-0.2631 0.0701,-0.164 0.0701,-0.38609 z m 0.44501,2.31999 q 0,-0.30751 -0.0946,-0.4886 -0.0946,-0.18109 -0.34339,-0.30751 -0.16819,-0.0854 -0.40997,-0.10934 -0.23827,-0.0273 -0.58167,-0.0273 h -1.08974 v 1.8929 h 0.91805 q 0.45552,0 0.74635,-0.0444 0.29083,-0.0478 0.47654,-0.17084 0.19623,-0.13325 0.28733,-0.30409 0.0911,-0.17084 0.0911,-0.44077 z m 3.76329,-0.37926 h -2.18649 v -0.61844 h 2.18649 z m 2.97139,1.91681 h -2.06035 v -0.51935 h 0.68328 v -4.04889 h -0.68328 v -0.51935 h 2.06035 v 0.51935 h -0.68328 v 4.04888 h 0.68328 z m 4.87406,-5.08758 -1.83609,2.85643 v 2.23115 h -0.69379 v -2.1594 l -1.84311,-2.92818 h 0.76738 l 1.42613,2.27557 1.44014,-2.27557 z"
       id="text114"
       style="font-size:26.6323px;font-family:Verdana;-inkscape-font-specification:'Verdana, Normal';fill:none;stroke:#ffffff;stroke-width:0.0885791;stroke-opacity:1"
       aria-label="DUB-IY" />
  </g>
</svg>
