solid OpenSCAD_Model
  facet normal 0.999229 0.0392683 0
    outer loop
      vertex 4.08 0 1
      vertex 4.06742 0.320113 0
      vertex 4.06742 0.320113 1
    endloop
  endfacet
  facet normal 0.999229 0.0392683 0
    outer loop
      vertex 4.06742 0.320113 0
      vertex 4.08 0 1
      vertex 4.08 0 0
    endloop
  endfacet
  facet normal 0.99307 0.117524 0
    outer loop
      vertex 4.06742 0.320113 1
      vertex 4.02977 0.638253 0
      vertex 4.02977 0.638253 1
    endloop
  endfacet
  facet normal 0.99307 0.117524 0
    outer loop
      vertex 4.02977 0.638253 0
      vertex 4.06742 0.320113 1
      vertex 4.06742 0.320113 0
    endloop
  endfacet
  facet normal 0.980785 0.195093 0
    outer loop
      vertex 4.02977 0.638253 1
      vertex 3.96727 0.952457 0
      vertex 3.96727 0.952457 1
    endloop
  endfacet
  facet normal 0.980785 0.195093 0
    outer loop
      vertex 3.96727 0.952457 0
      vertex 4.02977 0.638253 1
      vertex 4.02977 0.638253 0
    endloop
  endfacet
  facet normal 0.962454 0.271444 0
    outer loop
      vertex 3.96727 0.952457 1
      vertex 3.88031 1.26079 0
      vertex 3.88031 1.26079 1
    endloop
  endfacet
  facet normal 0.962454 0.271444 0
    outer loop
      vertex 3.88031 1.26079 0
      vertex 3.96727 0.952457 1
      vertex 3.96727 0.952457 0
    endloop
  endfacet
  facet normal 0.938194 0.34611 0
    outer loop
      vertex 3.88031 1.26079 1
      vertex 3.76943 1.56135 0
      vertex 3.76943 1.56135 1
    endloop
  endfacet
  facet normal 0.938194 0.34611 0
    outer loop
      vertex 3.76943 1.56135 0
      vertex 3.88031 1.26079 1
      vertex 3.88031 1.26079 0
    endloop
  endfacet
  facet normal 0.908144 0.418658 0
    outer loop
      vertex 3.76943 1.56135 1
      vertex 3.63531 1.85228 0
      vertex 3.63531 1.85228 1
    endloop
  endfacet
  facet normal 0.908144 0.418658 0
    outer loop
      vertex 3.63531 1.85228 0
      vertex 3.76943 1.56135 1
      vertex 3.76943 1.56135 0
    endloop
  endfacet
  facet normal 0.872487 0.488638 0
    outer loop
      vertex 3.63531 1.85228 1
      vertex 3.47877 2.13179 0
      vertex 3.47877 2.13179 1
    endloop
  endfacet
  facet normal 0.872487 0.488638 0
    outer loop
      vertex 3.47877 2.13179 0
      vertex 3.63531 1.85228 1
      vertex 3.63531 1.85228 0
    endloop
  endfacet
  facet normal 0.831474 0.555564 0
    outer loop
      vertex 3.47877 2.13179 1
      vertex 3.30079 2.39816 0
      vertex 3.30079 2.39816 1
    endloop
  endfacet
  facet normal 0.831474 0.555564 0
    outer loop
      vertex 3.30079 2.39816 0
      vertex 3.47877 2.13179 1
      vertex 3.47877 2.13179 0
    endloop
  endfacet
  facet normal 0.785328 0.619079 0
    outer loop
      vertex 3.30079 2.39816 1
      vertex 3.10246 2.64975 0
      vertex 3.10246 2.64975 1
    endloop
  endfacet
  facet normal 0.785328 0.619079 0
    outer loop
      vertex 3.10246 2.64975 0
      vertex 3.30079 2.39816 1
      vertex 3.30079 2.39816 0
    endloop
  endfacet
  facet normal 0.734327 0.678796 0
    outer loop
      vertex 3.10246 2.64975 1
      vertex 2.885 2.885 0
      vertex 2.885 2.885 1
    endloop
  endfacet
  facet normal 0.734327 0.678796 0
    outer loop
      vertex 2.885 2.885 0
      vertex 3.10246 2.64975 1
      vertex 3.10246 2.64975 0
    endloop
  endfacet
  facet normal 0.678796 0.734327 -0
    outer loop
      vertex 2.885 2.885 0
      vertex 2.64975 3.10246 1
      vertex 2.885 2.885 1
    endloop
  endfacet
  facet normal 0.678796 0.734327 0
    outer loop
      vertex 2.64975 3.10246 1
      vertex 2.885 2.885 0
      vertex 2.64975 3.10246 0
    endloop
  endfacet
  facet normal 0.619079 0.785328 -0
    outer loop
      vertex 2.64975 3.10246 0
      vertex 2.39816 3.30079 1
      vertex 2.64975 3.10246 1
    endloop
  endfacet
  facet normal 0.619079 0.785328 0
    outer loop
      vertex 2.39816 3.30079 1
      vertex 2.64975 3.10246 0
      vertex 2.39816 3.30079 0
    endloop
  endfacet
  facet normal 0.555564 0.831474 -0
    outer loop
      vertex 2.39816 3.30079 0
      vertex 2.13179 3.47877 1
      vertex 2.39816 3.30079 1
    endloop
  endfacet
  facet normal 0.555564 0.831474 0
    outer loop
      vertex 2.13179 3.47877 1
      vertex 2.39816 3.30079 0
      vertex 2.13179 3.47877 0
    endloop
  endfacet
  facet normal 0.488638 0.872487 -0
    outer loop
      vertex 2.13179 3.47877 0
      vertex 1.85228 3.63531 1
      vertex 2.13179 3.47877 1
    endloop
  endfacet
  facet normal 0.488638 0.872487 0
    outer loop
      vertex 1.85228 3.63531 1
      vertex 2.13179 3.47877 0
      vertex 1.85228 3.63531 0
    endloop
  endfacet
  facet normal 0.418658 0.908144 -0
    outer loop
      vertex 1.85228 3.63531 0
      vertex 1.56135 3.76943 1
      vertex 1.85228 3.63531 1
    endloop
  endfacet
  facet normal 0.418658 0.908144 0
    outer loop
      vertex 1.56135 3.76943 1
      vertex 1.85228 3.63531 0
      vertex 1.56135 3.76943 0
    endloop
  endfacet
  facet normal 0.34611 0.938194 -0
    outer loop
      vertex 1.56135 3.76943 0
      vertex 1.26079 3.88031 1
      vertex 1.56135 3.76943 1
    endloop
  endfacet
  facet normal 0.34611 0.938194 0
    outer loop
      vertex 1.26079 3.88031 1
      vertex 1.56135 3.76943 0
      vertex 1.26079 3.88031 0
    endloop
  endfacet
  facet normal 0.271444 0.962454 -0
    outer loop
      vertex 1.26079 3.88031 0
      vertex 0.952457 3.96727 1
      vertex 1.26079 3.88031 1
    endloop
  endfacet
  facet normal 0.271444 0.962454 0
    outer loop
      vertex 0.952457 3.96727 1
      vertex 1.26079 3.88031 0
      vertex 0.952457 3.96727 0
    endloop
  endfacet
  facet normal 0.195093 0.980785 -0
    outer loop
      vertex 0.952457 3.96727 0
      vertex 0.638253 4.02977 1
      vertex 0.952457 3.96727 1
    endloop
  endfacet
  facet normal 0.195093 0.980785 0
    outer loop
      vertex 0.638253 4.02977 1
      vertex 0.952457 3.96727 0
      vertex 0.638253 4.02977 0
    endloop
  endfacet
  facet normal 0.117524 0.99307 -0
    outer loop
      vertex 0.638253 4.02977 0
      vertex 0.320113 4.06742 1
      vertex 0.638253 4.02977 1
    endloop
  endfacet
  facet normal 0.117524 0.99307 0
    outer loop
      vertex 0.320113 4.06742 1
      vertex 0.638253 4.02977 0
      vertex 0.320113 4.06742 0
    endloop
  endfacet
  facet normal 0.0392683 0.999229 -0
    outer loop
      vertex 0.320113 4.06742 0
      vertex 0 4.08 1
      vertex 0.320113 4.06742 1
    endloop
  endfacet
  facet normal 0.0392683 0.999229 0
    outer loop
      vertex 0 4.08 1
      vertex 0.320113 4.06742 0
      vertex 0 4.08 0
    endloop
  endfacet
  facet normal -0.0392683 0.999229 0
    outer loop
      vertex 0 4.08 0
      vertex -0.320113 4.06742 1
      vertex 0 4.08 1
    endloop
  endfacet
  facet normal -0.0392683 0.999229 0
    outer loop
      vertex -0.320113 4.06742 1
      vertex 0 4.08 0
      vertex -0.320113 4.06742 0
    endloop
  endfacet
  facet normal -0.117524 0.99307 0
    outer loop
      vertex -0.320113 4.06742 0
      vertex -0.638253 4.02977 1
      vertex -0.320113 4.06742 1
    endloop
  endfacet
  facet normal -0.117524 0.99307 0
    outer loop
      vertex -0.638253 4.02977 1
      vertex -0.320113 4.06742 0
      vertex -0.638253 4.02977 0
    endloop
  endfacet
  facet normal -0.195093 0.980785 0
    outer loop
      vertex -0.638253 4.02977 0
      vertex -0.952457 3.96727 1
      vertex -0.638253 4.02977 1
    endloop
  endfacet
  facet normal -0.195093 0.980785 0
    outer loop
      vertex -0.952457 3.96727 1
      vertex -0.638253 4.02977 0
      vertex -0.952457 3.96727 0
    endloop
  endfacet
  facet normal -0.271444 0.962454 0
    outer loop
      vertex -0.952457 3.96727 0
      vertex -1.26079 3.88031 1
      vertex -0.952457 3.96727 1
    endloop
  endfacet
  facet normal -0.271444 0.962454 0
    outer loop
      vertex -1.26079 3.88031 1
      vertex -0.952457 3.96727 0
      vertex -1.26079 3.88031 0
    endloop
  endfacet
  facet normal -0.34611 0.938194 0
    outer loop
      vertex -1.26079 3.88031 0
      vertex -1.56135 3.76943 1
      vertex -1.26079 3.88031 1
    endloop
  endfacet
  facet normal -0.34611 0.938194 0
    outer loop
      vertex -1.56135 3.76943 1
      vertex -1.26079 3.88031 0
      vertex -1.56135 3.76943 0
    endloop
  endfacet
  facet normal -0.418658 0.908144 0
    outer loop
      vertex -1.56135 3.76943 0
      vertex -1.85228 3.63531 1
      vertex -1.56135 3.76943 1
    endloop
  endfacet
  facet normal -0.418658 0.908144 0
    outer loop
      vertex -1.85228 3.63531 1
      vertex -1.56135 3.76943 0
      vertex -1.85228 3.63531 0
    endloop
  endfacet
  facet normal -0.488638 0.872487 0
    outer loop
      vertex -1.85228 3.63531 0
      vertex -2.13179 3.47877 1
      vertex -1.85228 3.63531 1
    endloop
  endfacet
  facet normal -0.488638 0.872487 0
    outer loop
      vertex -2.13179 3.47877 1
      vertex -1.85228 3.63531 0
      vertex -2.13179 3.47877 0
    endloop
  endfacet
  facet normal -0.555564 0.831474 0
    outer loop
      vertex -2.13179 3.47877 0
      vertex -2.39816 3.30079 1
      vertex -2.13179 3.47877 1
    endloop
  endfacet
  facet normal -0.555564 0.831474 0
    outer loop
      vertex -2.39816 3.30079 1
      vertex -2.13179 3.47877 0
      vertex -2.39816 3.30079 0
    endloop
  endfacet
  facet normal -0.619079 0.785328 0
    outer loop
      vertex -2.39816 3.30079 0
      vertex -2.64975 3.10246 1
      vertex -2.39816 3.30079 1
    endloop
  endfacet
  facet normal -0.619079 0.785328 0
    outer loop
      vertex -2.64975 3.10246 1
      vertex -2.39816 3.30079 0
      vertex -2.64975 3.10246 0
    endloop
  endfacet
  facet normal -0.678796 0.734327 0
    outer loop
      vertex -2.64975 3.10246 0
      vertex -2.885 2.885 1
      vertex -2.64975 3.10246 1
    endloop
  endfacet
  facet normal -0.678796 0.734327 0
    outer loop
      vertex -2.885 2.885 1
      vertex -2.64975 3.10246 0
      vertex -2.885 2.885 0
    endloop
  endfacet
  facet normal -0.734327 0.678796 0
    outer loop
      vertex -3.10246 2.64975 0
      vertex -2.885 2.885 1
      vertex -2.885 2.885 0
    endloop
  endfacet
  facet normal -0.734327 0.678796 0
    outer loop
      vertex -2.885 2.885 1
      vertex -3.10246 2.64975 0
      vertex -3.10246 2.64975 1
    endloop
  endfacet
  facet normal -0.785328 0.619079 0
    outer loop
      vertex -3.30079 2.39816 0
      vertex -3.10246 2.64975 1
      vertex -3.10246 2.64975 0
    endloop
  endfacet
  facet normal -0.785328 0.619079 0
    outer loop
      vertex -3.10246 2.64975 1
      vertex -3.30079 2.39816 0
      vertex -3.30079 2.39816 1
    endloop
  endfacet
  facet normal -0.831474 0.555564 0
    outer loop
      vertex -3.47877 2.13179 0
      vertex -3.30079 2.39816 1
      vertex -3.30079 2.39816 0
    endloop
  endfacet
  facet normal -0.831474 0.555564 0
    outer loop
      vertex -3.30079 2.39816 1
      vertex -3.47877 2.13179 0
      vertex -3.47877 2.13179 1
    endloop
  endfacet
  facet normal -0.872487 0.488638 0
    outer loop
      vertex -3.63531 1.85228 0
      vertex -3.47877 2.13179 1
      vertex -3.47877 2.13179 0
    endloop
  endfacet
  facet normal -0.872487 0.488638 0
    outer loop
      vertex -3.47877 2.13179 1
      vertex -3.63531 1.85228 0
      vertex -3.63531 1.85228 1
    endloop
  endfacet
  facet normal -0.908144 0.418658 0
    outer loop
      vertex -3.76943 1.56135 0
      vertex -3.63531 1.85228 1
      vertex -3.63531 1.85228 0
    endloop
  endfacet
  facet normal -0.908144 0.418658 0
    outer loop
      vertex -3.63531 1.85228 1
      vertex -3.76943 1.56135 0
      vertex -3.76943 1.56135 1
    endloop
  endfacet
  facet normal -0.938194 0.34611 0
    outer loop
      vertex -3.88031 1.26079 0
      vertex -3.76943 1.56135 1
      vertex -3.76943 1.56135 0
    endloop
  endfacet
  facet normal -0.938194 0.34611 0
    outer loop
      vertex -3.76943 1.56135 1
      vertex -3.88031 1.26079 0
      vertex -3.88031 1.26079 1
    endloop
  endfacet
  facet normal -0.962454 0.271444 0
    outer loop
      vertex -3.96727 0.952457 0
      vertex -3.88031 1.26079 1
      vertex -3.88031 1.26079 0
    endloop
  endfacet
  facet normal -0.962454 0.271444 0
    outer loop
      vertex -3.88031 1.26079 1
      vertex -3.96727 0.952457 0
      vertex -3.96727 0.952457 1
    endloop
  endfacet
  facet normal -0.980785 0.195093 0
    outer loop
      vertex -4.02977 0.638253 0
      vertex -3.96727 0.952457 1
      vertex -3.96727 0.952457 0
    endloop
  endfacet
  facet normal -0.980785 0.195093 0
    outer loop
      vertex -3.96727 0.952457 1
      vertex -4.02977 0.638253 0
      vertex -4.02977 0.638253 1
    endloop
  endfacet
  facet normal -0.99307 0.117524 0
    outer loop
      vertex -4.06742 0.320113 0
      vertex -4.02977 0.638253 1
      vertex -4.02977 0.638253 0
    endloop
  endfacet
  facet normal -0.99307 0.117524 0
    outer loop
      vertex -4.02977 0.638253 1
      vertex -4.06742 0.320113 0
      vertex -4.06742 0.320113 1
    endloop
  endfacet
  facet normal -0.999229 0.0392683 0
    outer loop
      vertex -4.08 -0 0
      vertex -4.06742 0.320113 1
      vertex -4.06742 0.320113 0
    endloop
  endfacet
  facet normal -0.999229 0.0392683 0
    outer loop
      vertex -4.06742 0.320113 1
      vertex -4.08 -0 0
      vertex -4.08 -0 1
    endloop
  endfacet
  facet normal -0.999229 -0.0392683 0
    outer loop
      vertex -4.06742 -0.320113 0
      vertex -4.08 -0 1
      vertex -4.08 -0 0
    endloop
  endfacet
  facet normal -0.999229 -0.0392683 0
    outer loop
      vertex -4.08 -0 1
      vertex -4.06742 -0.320113 0
      vertex -4.06742 -0.320113 1
    endloop
  endfacet
  facet normal -0.99307 -0.117524 0
    outer loop
      vertex -4.02977 -0.638253 0
      vertex -4.06742 -0.320113 1
      vertex -4.06742 -0.320113 0
    endloop
  endfacet
  facet normal -0.99307 -0.117524 0
    outer loop
      vertex -4.06742 -0.320113 1
      vertex -4.02977 -0.638253 0
      vertex -4.02977 -0.638253 1
    endloop
  endfacet
  facet normal -0.980785 -0.195093 0
    outer loop
      vertex -3.96727 -0.952457 0
      vertex -4.02977 -0.638253 1
      vertex -4.02977 -0.638253 0
    endloop
  endfacet
  facet normal -0.980785 -0.195093 0
    outer loop
      vertex -4.02977 -0.638253 1
      vertex -3.96727 -0.952457 0
      vertex -3.96727 -0.952457 1
    endloop
  endfacet
  facet normal -0.962454 -0.271444 0
    outer loop
      vertex -3.88031 -1.26079 0
      vertex -3.96727 -0.952457 1
      vertex -3.96727 -0.952457 0
    endloop
  endfacet
  facet normal -0.962454 -0.271444 0
    outer loop
      vertex -3.96727 -0.952457 1
      vertex -3.88031 -1.26079 0
      vertex -3.88031 -1.26079 1
    endloop
  endfacet
  facet normal -0.938194 -0.34611 0
    outer loop
      vertex -3.76943 -1.56135 0
      vertex -3.88031 -1.26079 1
      vertex -3.88031 -1.26079 0
    endloop
  endfacet
  facet normal -0.938194 -0.34611 0
    outer loop
      vertex -3.88031 -1.26079 1
      vertex -3.76943 -1.56135 0
      vertex -3.76943 -1.56135 1
    endloop
  endfacet
  facet normal -0.908144 -0.418658 0
    outer loop
      vertex -3.63531 -1.85228 0
      vertex -3.76943 -1.56135 1
      vertex -3.76943 -1.56135 0
    endloop
  endfacet
  facet normal -0.908144 -0.418658 0
    outer loop
      vertex -3.76943 -1.56135 1
      vertex -3.63531 -1.85228 0
      vertex -3.63531 -1.85228 1
    endloop
  endfacet
  facet normal -0.872487 -0.488638 0
    outer loop
      vertex -3.47877 -2.13179 0
      vertex -3.63531 -1.85228 1
      vertex -3.63531 -1.85228 0
    endloop
  endfacet
  facet normal -0.872487 -0.488638 0
    outer loop
      vertex -3.63531 -1.85228 1
      vertex -3.47877 -2.13179 0
      vertex -3.47877 -2.13179 1
    endloop
  endfacet
  facet normal -0.831474 -0.555564 0
    outer loop
      vertex -3.30079 -2.39816 0
      vertex -3.47877 -2.13179 1
      vertex -3.47877 -2.13179 0
    endloop
  endfacet
  facet normal -0.831474 -0.555564 0
    outer loop
      vertex -3.47877 -2.13179 1
      vertex -3.30079 -2.39816 0
      vertex -3.30079 -2.39816 1
    endloop
  endfacet
  facet normal -0.785328 -0.619079 0
    outer loop
      vertex -3.10246 -2.64975 0
      vertex -3.30079 -2.39816 1
      vertex -3.30079 -2.39816 0
    endloop
  endfacet
  facet normal -0.785328 -0.619079 0
    outer loop
      vertex -3.30079 -2.39816 1
      vertex -3.10246 -2.64975 0
      vertex -3.10246 -2.64975 1
    endloop
  endfacet
  facet normal -0.734327 -0.678796 0
    outer loop
      vertex -2.885 -2.885 0
      vertex -3.10246 -2.64975 1
      vertex -3.10246 -2.64975 0
    endloop
  endfacet
  facet normal -0.734327 -0.678796 0
    outer loop
      vertex -3.10246 -2.64975 1
      vertex -2.885 -2.885 0
      vertex -2.885 -2.885 1
    endloop
  endfacet
  facet normal -0.678796 -0.734327 0
    outer loop
      vertex -2.885 -2.885 0
      vertex -2.64975 -3.10246 1
      vertex -2.885 -2.885 1
    endloop
  endfacet
  facet normal -0.678796 -0.734327 -0
    outer loop
      vertex -2.64975 -3.10246 1
      vertex -2.885 -2.885 0
      vertex -2.64975 -3.10246 0
    endloop
  endfacet
  facet normal -0.619079 -0.785328 0
    outer loop
      vertex -2.64975 -3.10246 0
      vertex -2.39816 -3.30079 1
      vertex -2.64975 -3.10246 1
    endloop
  endfacet
  facet normal -0.619079 -0.785328 -0
    outer loop
      vertex -2.39816 -3.30079 1
      vertex -2.64975 -3.10246 0
      vertex -2.39816 -3.30079 0
    endloop
  endfacet
  facet normal -0.555564 -0.831474 0
    outer loop
      vertex -2.39816 -3.30079 0
      vertex -2.13179 -3.47877 1
      vertex -2.39816 -3.30079 1
    endloop
  endfacet
  facet normal -0.555564 -0.831474 -0
    outer loop
      vertex -2.13179 -3.47877 1
      vertex -2.39816 -3.30079 0
      vertex -2.13179 -3.47877 0
    endloop
  endfacet
  facet normal -0.488638 -0.872487 0
    outer loop
      vertex -2.13179 -3.47877 0
      vertex -1.85228 -3.63531 1
      vertex -2.13179 -3.47877 1
    endloop
  endfacet
  facet normal -0.488638 -0.872487 -0
    outer loop
      vertex -1.85228 -3.63531 1
      vertex -2.13179 -3.47877 0
      vertex -1.85228 -3.63531 0
    endloop
  endfacet
  facet normal -0.418658 -0.908144 0
    outer loop
      vertex -1.85228 -3.63531 0
      vertex -1.56135 -3.76943 1
      vertex -1.85228 -3.63531 1
    endloop
  endfacet
  facet normal -0.418658 -0.908144 -0
    outer loop
      vertex -1.56135 -3.76943 1
      vertex -1.85228 -3.63531 0
      vertex -1.56135 -3.76943 0
    endloop
  endfacet
  facet normal -0.34611 -0.938194 0
    outer loop
      vertex -1.56135 -3.76943 0
      vertex -1.26079 -3.88031 1
      vertex -1.56135 -3.76943 1
    endloop
  endfacet
  facet normal -0.34611 -0.938194 -0
    outer loop
      vertex -1.26079 -3.88031 1
      vertex -1.56135 -3.76943 0
      vertex -1.26079 -3.88031 0
    endloop
  endfacet
  facet normal -0.271444 -0.962454 0
    outer loop
      vertex -1.26079 -3.88031 0
      vertex -0.952457 -3.96727 1
      vertex -1.26079 -3.88031 1
    endloop
  endfacet
  facet normal -0.271444 -0.962454 -0
    outer loop
      vertex -0.952457 -3.96727 1
      vertex -1.26079 -3.88031 0
      vertex -0.952457 -3.96727 0
    endloop
  endfacet
  facet normal -0.195093 -0.980785 0
    outer loop
      vertex -0.952457 -3.96727 0
      vertex -0.638253 -4.02977 1
      vertex -0.952457 -3.96727 1
    endloop
  endfacet
  facet normal -0.195093 -0.980785 -0
    outer loop
      vertex -0.638253 -4.02977 1
      vertex -0.952457 -3.96727 0
      vertex -0.638253 -4.02977 0
    endloop
  endfacet
  facet normal -0.117524 -0.99307 0
    outer loop
      vertex -0.638253 -4.02977 0
      vertex -0.320113 -4.06742 1
      vertex -0.638253 -4.02977 1
    endloop
  endfacet
  facet normal -0.117524 -0.99307 -0
    outer loop
      vertex -0.320113 -4.06742 1
      vertex -0.638253 -4.02977 0
      vertex -0.320113 -4.06742 0
    endloop
  endfacet
  facet normal -0.0392683 -0.999229 0
    outer loop
      vertex -0.320113 -4.06742 0
      vertex -0 -4.08 1
      vertex -0.320113 -4.06742 1
    endloop
  endfacet
  facet normal -0.0392683 -0.999229 -0
    outer loop
      vertex -0 -4.08 1
      vertex -0.320113 -4.06742 0
      vertex -0 -4.08 0
    endloop
  endfacet
  facet normal 0.0392683 -0.999229 0
    outer loop
      vertex -0 -4.08 0
      vertex 0.320113 -4.06742 1
      vertex -0 -4.08 1
    endloop
  endfacet
  facet normal 0.0392683 -0.999229 0
    outer loop
      vertex 0.320113 -4.06742 1
      vertex -0 -4.08 0
      vertex 0.320113 -4.06742 0
    endloop
  endfacet
  facet normal 0.117524 -0.99307 0
    outer loop
      vertex 0.320113 -4.06742 0
      vertex 0.638253 -4.02977 1
      vertex 0.320113 -4.06742 1
    endloop
  endfacet
  facet normal 0.117524 -0.99307 0
    outer loop
      vertex 0.638253 -4.02977 1
      vertex 0.320113 -4.06742 0
      vertex 0.638253 -4.02977 0
    endloop
  endfacet
  facet normal 0.195093 -0.980785 0
    outer loop
      vertex 0.638253 -4.02977 0
      vertex 0.952457 -3.96727 1
      vertex 0.638253 -4.02977 1
    endloop
  endfacet
  facet normal 0.195093 -0.980785 0
    outer loop
      vertex 0.952457 -3.96727 1
      vertex 0.638253 -4.02977 0
      vertex 0.952457 -3.96727 0
    endloop
  endfacet
  facet normal 0.271444 -0.962454 0
    outer loop
      vertex 0.952457 -3.96727 0
      vertex 1.26079 -3.88031 1
      vertex 0.952457 -3.96727 1
    endloop
  endfacet
  facet normal 0.271444 -0.962454 0
    outer loop
      vertex 1.26079 -3.88031 1
      vertex 0.952457 -3.96727 0
      vertex 1.26079 -3.88031 0
    endloop
  endfacet
  facet normal 0.34611 -0.938194 0
    outer loop
      vertex 1.26079 -3.88031 0
      vertex 1.56135 -3.76943 1
      vertex 1.26079 -3.88031 1
    endloop
  endfacet
  facet normal 0.34611 -0.938194 0
    outer loop
      vertex 1.56135 -3.76943 1
      vertex 1.26079 -3.88031 0
      vertex 1.56135 -3.76943 0
    endloop
  endfacet
  facet normal 0.418658 -0.908144 0
    outer loop
      vertex 1.56135 -3.76943 0
      vertex 1.85228 -3.63531 1
      vertex 1.56135 -3.76943 1
    endloop
  endfacet
  facet normal 0.418658 -0.908144 0
    outer loop
      vertex 1.85228 -3.63531 1
      vertex 1.56135 -3.76943 0
      vertex 1.85228 -3.63531 0
    endloop
  endfacet
  facet normal 0.488638 -0.872487 0
    outer loop
      vertex 1.85228 -3.63531 0
      vertex 2.13179 -3.47877 1
      vertex 1.85228 -3.63531 1
    endloop
  endfacet
  facet normal 0.488638 -0.872487 0
    outer loop
      vertex 2.13179 -3.47877 1
      vertex 1.85228 -3.63531 0
      vertex 2.13179 -3.47877 0
    endloop
  endfacet
  facet normal 0.555564 -0.831474 0
    outer loop
      vertex 2.13179 -3.47877 0
      vertex 2.39816 -3.30079 1
      vertex 2.13179 -3.47877 1
    endloop
  endfacet
  facet normal 0.555564 -0.831474 0
    outer loop
      vertex 2.39816 -3.30079 1
      vertex 2.13179 -3.47877 0
      vertex 2.39816 -3.30079 0
    endloop
  endfacet
  facet normal 0.619079 -0.785328 0
    outer loop
      vertex 2.39816 -3.30079 0
      vertex 2.64975 -3.10246 1
      vertex 2.39816 -3.30079 1
    endloop
  endfacet
  facet normal 0.619079 -0.785328 0
    outer loop
      vertex 2.64975 -3.10246 1
      vertex 2.39816 -3.30079 0
      vertex 2.64975 -3.10246 0
    endloop
  endfacet
  facet normal 0.678796 -0.734327 0
    outer loop
      vertex 2.64975 -3.10246 0
      vertex 2.885 -2.885 1
      vertex 2.64975 -3.10246 1
    endloop
  endfacet
  facet normal 0.678796 -0.734327 0
    outer loop
      vertex 2.885 -2.885 1
      vertex 2.64975 -3.10246 0
      vertex 2.885 -2.885 0
    endloop
  endfacet
  facet normal 0.734327 -0.678796 0
    outer loop
      vertex 2.885 -2.885 1
      vertex 3.10246 -2.64975 0
      vertex 3.10246 -2.64975 1
    endloop
  endfacet
  facet normal 0.734327 -0.678796 0
    outer loop
      vertex 3.10246 -2.64975 0
      vertex 2.885 -2.885 1
      vertex 2.885 -2.885 0
    endloop
  endfacet
  facet normal 0.785328 -0.619079 0
    outer loop
      vertex 3.10246 -2.64975 1
      vertex 3.30079 -2.39816 0
      vertex 3.30079 -2.39816 1
    endloop
  endfacet
  facet normal 0.785328 -0.619079 0
    outer loop
      vertex 3.30079 -2.39816 0
      vertex 3.10246 -2.64975 1
      vertex 3.10246 -2.64975 0
    endloop
  endfacet
  facet normal 0.831474 -0.555564 0
    outer loop
      vertex 3.30079 -2.39816 1
      vertex 3.47877 -2.13179 0
      vertex 3.47877 -2.13179 1
    endloop
  endfacet
  facet normal 0.831474 -0.555564 0
    outer loop
      vertex 3.47877 -2.13179 0
      vertex 3.30079 -2.39816 1
      vertex 3.30079 -2.39816 0
    endloop
  endfacet
  facet normal 0.872487 -0.488638 0
    outer loop
      vertex 3.47877 -2.13179 1
      vertex 3.63531 -1.85228 0
      vertex 3.63531 -1.85228 1
    endloop
  endfacet
  facet normal 0.872487 -0.488638 0
    outer loop
      vertex 3.63531 -1.85228 0
      vertex 3.47877 -2.13179 1
      vertex 3.47877 -2.13179 0
    endloop
  endfacet
  facet normal 0.908144 -0.418658 0
    outer loop
      vertex 3.63531 -1.85228 1
      vertex 3.76943 -1.56135 0
      vertex 3.76943 -1.56135 1
    endloop
  endfacet
  facet normal 0.908144 -0.418658 0
    outer loop
      vertex 3.76943 -1.56135 0
      vertex 3.63531 -1.85228 1
      vertex 3.63531 -1.85228 0
    endloop
  endfacet
  facet normal 0.938194 -0.34611 0
    outer loop
      vertex 3.76943 -1.56135 1
      vertex 3.88031 -1.26079 0
      vertex 3.88031 -1.26079 1
    endloop
  endfacet
  facet normal 0.938194 -0.34611 0
    outer loop
      vertex 3.88031 -1.26079 0
      vertex 3.76943 -1.56135 1
      vertex 3.76943 -1.56135 0
    endloop
  endfacet
  facet normal 0.962454 -0.271444 0
    outer loop
      vertex 3.88031 -1.26079 1
      vertex 3.96727 -0.952457 0
      vertex 3.96727 -0.952457 1
    endloop
  endfacet
  facet normal 0.962454 -0.271444 0
    outer loop
      vertex 3.96727 -0.952457 0
      vertex 3.88031 -1.26079 1
      vertex 3.88031 -1.26079 0
    endloop
  endfacet
  facet normal 0.980785 -0.195093 0
    outer loop
      vertex 3.96727 -0.952457 1
      vertex 4.02977 -0.638253 0
      vertex 4.02977 -0.638253 1
    endloop
  endfacet
  facet normal 0.980785 -0.195093 0
    outer loop
      vertex 4.02977 -0.638253 0
      vertex 3.96727 -0.952457 1
      vertex 3.96727 -0.952457 0
    endloop
  endfacet
  facet normal 0.99307 -0.117524 0
    outer loop
      vertex 4.02977 -0.638253 1
      vertex 4.06742 -0.320113 0
      vertex 4.06742 -0.320113 1
    endloop
  endfacet
  facet normal 0.99307 -0.117524 0
    outer loop
      vertex 4.06742 -0.320113 0
      vertex 4.02977 -0.638253 1
      vertex 4.02977 -0.638253 0
    endloop
  endfacet
  facet normal 0.999229 -0.0392683 0
    outer loop
      vertex 4.06742 -0.320113 1
      vertex 4.08 0 0
      vertex 4.08 0 1
    endloop
  endfacet
  facet normal 0.999229 -0.0392683 0
    outer loop
      vertex 4.08 0 0
      vertex 4.06742 -0.320113 1
      vertex 4.06742 -0.320113 0
    endloop
  endfacet
  facet normal 0 0 -1
    outer loop
      vertex 4.06742 -0.320113 0
      vertex 4.06742 0.320113 0
      vertex 4.08 0 0
    endloop
  endfacet
  facet normal 0 0 -1
    outer loop
      vertex 4.02977 -0.638253 0
      vertex 4.06742 0.320113 0
      vertex 4.06742 -0.320113 0
    endloop
  endfacet
  facet normal 0 0 -1
    outer loop
      vertex 4.02977 -0.638253 0
      vertex 4.02977 0.638253 0
      vertex 4.06742 0.320113 0
    endloop
  endfacet
  facet normal 0 0 -1
    outer loop
      vertex 3.96727 -0.952457 0
      vertex 4.02977 0.638253 0
      vertex 4.02977 -0.638253 0
    endloop
  endfacet
  facet normal 0 0 -1
    outer loop
      vertex 3.96727 -0.952457 0
      vertex 3.96727 0.952457 0
      vertex 4.02977 0.638253 0
    endloop
  endfacet
  facet normal 0 0 -1
    outer loop
      vertex 3.88031 -1.26079 0
      vertex 3.96727 0.952457 0
      vertex 3.96727 -0.952457 0
    endloop
  endfacet
  facet normal 0 0 -1
    outer loop
      vertex 3.88031 -1.26079 0
      vertex 3.88031 1.26079 0
      vertex 3.96727 0.952457 0
    endloop
  endfacet
  facet normal 0 0 -1
    outer loop
      vertex 3.76943 -1.56135 0
      vertex 3.88031 1.26079 0
      vertex 3.88031 -1.26079 0
    endloop
  endfacet
  facet normal 0 0 -1
    outer loop
      vertex 3.76943 -1.56135 0
      vertex 3.76943 1.56135 0
      vertex 3.88031 1.26079 0
    endloop
  endfacet
  facet normal 0 0 -1
    outer loop
      vertex 3.63531 -1.85228 0
      vertex 3.76943 1.56135 0
      vertex 3.76943 -1.56135 0
    endloop
  endfacet
  facet normal 0 0 -1
    outer loop
      vertex 3.63531 -1.85228 0
      vertex 3.63531 1.85228 0
      vertex 3.76943 1.56135 0
    endloop
  endfacet
  facet normal 0 0 -1
    outer loop
      vertex 3.47877 -2.13179 0
      vertex 3.63531 1.85228 0
      vertex 3.63531 -1.85228 0
    endloop
  endfacet
  facet normal 0 0 -1
    outer loop
      vertex 3.47877 -2.13179 0
      vertex 3.47877 2.13179 0
      vertex 3.63531 1.85228 0
    endloop
  endfacet
  facet normal 0 0 -1
    outer loop
      vertex 3.30079 -2.39816 0
      vertex 3.47877 2.13179 0
      vertex 3.47877 -2.13179 0
    endloop
  endfacet
  facet normal 0 0 -1
    outer loop
      vertex 3.30079 -2.39816 0
      vertex 3.30079 2.39816 0
      vertex 3.47877 2.13179 0
    endloop
  endfacet
  facet normal 0 0 -1
    outer loop
      vertex 3.10246 -2.64975 0
      vertex 3.30079 2.39816 0
      vertex 3.30079 -2.39816 0
    endloop
  endfacet
  facet normal 0 0 -1
    outer loop
      vertex 3.10246 -2.64975 0
      vertex 3.10246 2.64975 0
      vertex 3.30079 2.39816 0
    endloop
  endfacet
  facet normal 0 0 -1
    outer loop
      vertex 2.885 -2.885 0
      vertex 3.10246 2.64975 0
      vertex 3.10246 -2.64975 0
    endloop
  endfacet
  facet normal 0 0 -1
    outer loop
      vertex 2.885 -2.885 0
      vertex 2.885 2.885 0
      vertex 3.10246 2.64975 0
    endloop
  endfacet
  facet normal 0 0 -1
    outer loop
      vertex 2.64975 -3.10246 0
      vertex 2.885 2.885 0
      vertex 2.885 -2.885 0
    endloop
  endfacet
  facet normal 0 0 -1
    outer loop
      vertex 2.64975 -3.10246 0
      vertex 2.64975 3.10246 0
      vertex 2.885 2.885 0
    endloop
  endfacet
  facet normal 0 0 -1
    outer loop
      vertex 2.39816 -3.30079 0
      vertex 2.64975 3.10246 0
      vertex 2.64975 -3.10246 0
    endloop
  endfacet
  facet normal 0 0 -1
    outer loop
      vertex 2.39816 -3.30079 0
      vertex 2.39816 3.30079 0
      vertex 2.64975 3.10246 0
    endloop
  endfacet
  facet normal 0 0 -1
    outer loop
      vertex 2.13179 -3.47877 0
      vertex 2.39816 3.30079 0
      vertex 2.39816 -3.30079 0
    endloop
  endfacet
  facet normal 0 0 -1
    outer loop
      vertex 2.13179 -3.47877 0
      vertex 2.13179 3.47877 0
      vertex 2.39816 3.30079 0
    endloop
  endfacet
  facet normal 0 0 -1
    outer loop
      vertex 1.85228 -3.63531 0
      vertex 2.13179 3.47877 0
      vertex 2.13179 -3.47877 0
    endloop
  endfacet
  facet normal 0 0 -1
    outer loop
      vertex 1.85228 -3.63531 0
      vertex 1.85228 3.63531 0
      vertex 2.13179 3.47877 0
    endloop
  endfacet
  facet normal 0 0 -1
    outer loop
      vertex 1.56135 -3.76943 0
      vertex 1.85228 3.63531 0
      vertex 1.85228 -3.63531 0
    endloop
  endfacet
  facet normal 0 0 -1
    outer loop
      vertex 1.56135 -3.76943 0
      vertex 1.56135 3.76943 0
      vertex 1.85228 3.63531 0
    endloop
  endfacet
  facet normal 0 0 -1
    outer loop
      vertex 1.26079 -3.88031 0
      vertex 1.56135 3.76943 0
      vertex 1.56135 -3.76943 0
    endloop
  endfacet
  facet normal 0 0 -1
    outer loop
      vertex 1.26079 -3.88031 0
      vertex 1.26079 3.88031 0
      vertex 1.56135 3.76943 0
    endloop
  endfacet
  facet normal 0 0 -1
    outer loop
      vertex 0.952457 -3.96727 0
      vertex 1.26079 3.88031 0
      vertex 1.26079 -3.88031 0
    endloop
  endfacet
  facet normal 0 0 -1
    outer loop
      vertex 0.952457 -3.96727 0
      vertex 0.952457 3.96727 0
      vertex 1.26079 3.88031 0
    endloop
  endfacet
  facet normal 0 0 -1
    outer loop
      vertex 0.638253 -4.02977 0
      vertex 0.952457 3.96727 0
      vertex 0.952457 -3.96727 0
    endloop
  endfacet
  facet normal 0 0 -1
    outer loop
      vertex 0.638253 -4.02977 0
      vertex 0.638253 4.02977 0
      vertex 0.952457 3.96727 0
    endloop
  endfacet
  facet normal 0 0 -1
    outer loop
      vertex 0.320113 -4.06742 0
      vertex 0.638253 4.02977 0
      vertex 0.638253 -4.02977 0
    endloop
  endfacet
  facet normal 0 0 -1
    outer loop
      vertex 0.320113 -4.06742 0
      vertex 0.320113 4.06742 0
      vertex 0.638253 4.02977 0
    endloop
  endfacet
  facet normal 0 0 -1
    outer loop
      vertex -0 -4.08 0
      vertex 0.320113 4.06742 0
      vertex 0.320113 -4.06742 0
    endloop
  endfacet
  facet normal 0 0 -1
    outer loop
      vertex -0 -4.08 0
      vertex 0 4.08 0
      vertex 0.320113 4.06742 0
    endloop
  endfacet
  facet normal 0 0 -1
    outer loop
      vertex -0.320113 -4.06742 0
      vertex 0 4.08 0
      vertex -0 -4.08 0
    endloop
  endfacet
  facet normal 0 0 -1
    outer loop
      vertex -0.320113 -4.06742 0
      vertex -0.320113 4.06742 0
      vertex 0 4.08 0
    endloop
  endfacet
  facet normal 0 0 -1
    outer loop
      vertex -0.638253 -4.02977 0
      vertex -0.320113 4.06742 0
      vertex -0.320113 -4.06742 0
    endloop
  endfacet
  facet normal 0 0 -1
    outer loop
      vertex -0.638253 -4.02977 0
      vertex -0.638253 4.02977 0
      vertex -0.320113 4.06742 0
    endloop
  endfacet
  facet normal 0 0 -1
    outer loop
      vertex -0.952457 -3.96727 0
      vertex -0.638253 4.02977 0
      vertex -0.638253 -4.02977 0
    endloop
  endfacet
  facet normal 0 0 -1
    outer loop
      vertex -0.952457 -3.96727 0
      vertex -0.952457 3.96727 0
      vertex -0.638253 4.02977 0
    endloop
  endfacet
  facet normal 0 0 -1
    outer loop
      vertex -1.26079 -3.88031 0
      vertex -0.952457 3.96727 0
      vertex -0.952457 -3.96727 0
    endloop
  endfacet
  facet normal 0 0 -1
    outer loop
      vertex -1.26079 -3.88031 0
      vertex -1.26079 3.88031 0
      vertex -0.952457 3.96727 0
    endloop
  endfacet
  facet normal 0 0 -1
    outer loop
      vertex -1.56135 -3.76943 0
      vertex -1.26079 3.88031 0
      vertex -1.26079 -3.88031 0
    endloop
  endfacet
  facet normal 0 0 -1
    outer loop
      vertex -1.56135 -3.76943 0
      vertex -1.56135 3.76943 0
      vertex -1.26079 3.88031 0
    endloop
  endfacet
  facet normal 0 0 -1
    outer loop
      vertex -1.85228 -3.63531 0
      vertex -1.56135 3.76943 0
      vertex -1.56135 -3.76943 0
    endloop
  endfacet
  facet normal 0 0 -1
    outer loop
      vertex -1.85228 -3.63531 0
      vertex -1.85228 3.63531 0
      vertex -1.56135 3.76943 0
    endloop
  endfacet
  facet normal 0 0 -1
    outer loop
      vertex -2.13179 -3.47877 0
      vertex -1.85228 3.63531 0
      vertex -1.85228 -3.63531 0
    endloop
  endfacet
  facet normal 0 0 -1
    outer loop
      vertex -2.13179 -3.47877 0
      vertex -2.13179 3.47877 0
      vertex -1.85228 3.63531 0
    endloop
  endfacet
  facet normal 0 0 -1
    outer loop
      vertex -2.39816 -3.30079 0
      vertex -2.13179 3.47877 0
      vertex -2.13179 -3.47877 0
    endloop
  endfacet
  facet normal 0 0 -1
    outer loop
      vertex -2.39816 -3.30079 0
      vertex -2.39816 3.30079 0
      vertex -2.13179 3.47877 0
    endloop
  endfacet
  facet normal 0 0 -1
    outer loop
      vertex -2.64975 -3.10246 0
      vertex -2.39816 3.30079 0
      vertex -2.39816 -3.30079 0
    endloop
  endfacet
  facet normal 0 0 -1
    outer loop
      vertex -2.64975 -3.10246 0
      vertex -2.64975 3.10246 0
      vertex -2.39816 3.30079 0
    endloop
  endfacet
  facet normal 0 0 -1
    outer loop
      vertex -2.885 -2.885 0
      vertex -2.64975 3.10246 0
      vertex -2.64975 -3.10246 0
    endloop
  endfacet
  facet normal 0 0 -1
    outer loop
      vertex -2.885 -2.885 0
      vertex -2.885 2.885 0
      vertex -2.64975 3.10246 0
    endloop
  endfacet
  facet normal 0 0 -1
    outer loop
      vertex -3.10246 -2.64975 0
      vertex -2.885 2.885 0
      vertex -2.885 -2.885 0
    endloop
  endfacet
  facet normal 0 0 -1
    outer loop
      vertex -3.10246 -2.64975 0
      vertex -3.10246 2.64975 0
      vertex -2.885 2.885 0
    endloop
  endfacet
  facet normal 0 0 -1
    outer loop
      vertex -3.30079 -2.39816 0
      vertex -3.10246 2.64975 0
      vertex -3.10246 -2.64975 0
    endloop
  endfacet
  facet normal 0 0 -1
    outer loop
      vertex -3.30079 -2.39816 0
      vertex -3.30079 2.39816 0
      vertex -3.10246 2.64975 0
    endloop
  endfacet
  facet normal 0 0 -1
    outer loop
      vertex -3.47877 -2.13179 0
      vertex -3.30079 2.39816 0
      vertex -3.30079 -2.39816 0
    endloop
  endfacet
  facet normal 0 0 -1
    outer loop
      vertex -3.47877 -2.13179 0
      vertex -3.47877 2.13179 0
      vertex -3.30079 2.39816 0
    endloop
  endfacet
  facet normal 0 0 -1
    outer loop
      vertex -3.63531 -1.85228 0
      vertex -3.47877 2.13179 0
      vertex -3.47877 -2.13179 0
    endloop
  endfacet
  facet normal 0 0 -1
    outer loop
      vertex -3.63531 -1.85228 0
      vertex -3.63531 1.85228 0
      vertex -3.47877 2.13179 0
    endloop
  endfacet
  facet normal 0 0 -1
    outer loop
      vertex -3.76943 -1.56135 0
      vertex -3.63531 1.85228 0
      vertex -3.63531 -1.85228 0
    endloop
  endfacet
  facet normal 0 0 -1
    outer loop
      vertex -3.76943 -1.56135 0
      vertex -3.76943 1.56135 0
      vertex -3.63531 1.85228 0
    endloop
  endfacet
  facet normal 0 0 -1
    outer loop
      vertex -3.88031 -1.26079 0
      vertex -3.76943 1.56135 0
      vertex -3.76943 -1.56135 0
    endloop
  endfacet
  facet normal 0 0 -1
    outer loop
      vertex -3.88031 -1.26079 0
      vertex -3.88031 1.26079 0
      vertex -3.76943 1.56135 0
    endloop
  endfacet
  facet normal 0 0 -1
    outer loop
      vertex -3.96727 -0.952457 0
      vertex -3.88031 1.26079 0
      vertex -3.88031 -1.26079 0
    endloop
  endfacet
  facet normal 0 0 -1
    outer loop
      vertex -3.96727 -0.952457 0
      vertex -3.96727 0.952457 0
      vertex -3.88031 1.26079 0
    endloop
  endfacet
  facet normal 0 0 -1
    outer loop
      vertex -4.02977 -0.638253 0
      vertex -3.96727 0.952457 0
      vertex -3.96727 -0.952457 0
    endloop
  endfacet
  facet normal 0 0 -1
    outer loop
      vertex -4.02977 -0.638253 0
      vertex -4.02977 0.638253 0
      vertex -3.96727 0.952457 0
    endloop
  endfacet
  facet normal 0 0 -1
    outer loop
      vertex -4.06742 -0.320113 0
      vertex -4.02977 0.638253 0
      vertex -4.02977 -0.638253 0
    endloop
  endfacet
  facet normal 0 0 -1
    outer loop
      vertex -4.06742 -0.320113 0
      vertex -4.06742 0.320113 0
      vertex -4.02977 0.638253 0
    endloop
  endfacet
  facet normal 0 -0 -1
    outer loop
      vertex -4.06742 0.320113 0
      vertex -4.06742 -0.320113 0
      vertex -4.08 -0 0
    endloop
  endfacet
  facet normal 0 0 1
    outer loop
      vertex 4.06742 0.320113 1
      vertex 4.06742 -0.320113 1
      vertex 4.08 0 1
    endloop
  endfacet
  facet normal 0 0 1
    outer loop
      vertex 4.02977 0.638253 1
      vertex 4.06742 -0.320113 1
      vertex 4.06742 0.320113 1
    endloop
  endfacet
  facet normal 0 0 1
    outer loop
      vertex 4.02977 0.638253 1
      vertex 4.02977 -0.638253 1
      vertex 4.06742 -0.320113 1
    endloop
  endfacet
  facet normal 0 0 1
    outer loop
      vertex 3.96727 0.952457 1
      vertex 4.02977 -0.638253 1
      vertex 4.02977 0.638253 1
    endloop
  endfacet
  facet normal 0 0 1
    outer loop
      vertex 3.96727 0.952457 1
      vertex 3.96727 -0.952457 1
      vertex 4.02977 -0.638253 1
    endloop
  endfacet
  facet normal 0 0 1
    outer loop
      vertex 3.88031 1.26079 1
      vertex 3.96727 -0.952457 1
      vertex 3.96727 0.952457 1
    endloop
  endfacet
  facet normal 0 0 1
    outer loop
      vertex 3.88031 1.26079 1
      vertex 3.88031 -1.26079 1
      vertex 3.96727 -0.952457 1
    endloop
  endfacet
  facet normal 0 0 1
    outer loop
      vertex 3.76943 1.56135 1
      vertex 3.88031 -1.26079 1
      vertex 3.88031 1.26079 1
    endloop
  endfacet
  facet normal 0 0 1
    outer loop
      vertex 3.76943 1.56135 1
      vertex 3.76943 -1.56135 1
      vertex 3.88031 -1.26079 1
    endloop
  endfacet
  facet normal 0 0 1
    outer loop
      vertex 3.63531 1.85228 1
      vertex 3.76943 -1.56135 1
      vertex 3.76943 1.56135 1
    endloop
  endfacet
  facet normal 0 0 1
    outer loop
      vertex 3.63531 1.85228 1
      vertex 3.63531 -1.85228 1
      vertex 3.76943 -1.56135 1
    endloop
  endfacet
  facet normal 0 0 1
    outer loop
      vertex 3.47877 2.13179 1
      vertex 3.63531 -1.85228 1
      vertex 3.63531 1.85228 1
    endloop
  endfacet
  facet normal 0 0 1
    outer loop
      vertex 3.47877 2.13179 1
      vertex 3.47877 -2.13179 1
      vertex 3.63531 -1.85228 1
    endloop
  endfacet
  facet normal 0 0 1
    outer loop
      vertex 3.30079 2.39816 1
      vertex 3.47877 -2.13179 1
      vertex 3.47877 2.13179 1
    endloop
  endfacet
  facet normal 0 0 1
    outer loop
      vertex 3.30079 2.39816 1
      vertex 3.30079 -2.39816 1
      vertex 3.47877 -2.13179 1
    endloop
  endfacet
  facet normal 0 0 1
    outer loop
      vertex 3.10246 2.64975 1
      vertex 3.30079 -2.39816 1
      vertex 3.30079 2.39816 1
    endloop
  endfacet
  facet normal 0 0 1
    outer loop
      vertex 3.10246 2.64975 1
      vertex 3.10246 -2.64975 1
      vertex 3.30079 -2.39816 1
    endloop
  endfacet
  facet normal 0 0 1
    outer loop
      vertex 2.885 2.885 1
      vertex 3.10246 -2.64975 1
      vertex 3.10246 2.64975 1
    endloop
  endfacet
  facet normal 0 0 1
    outer loop
      vertex 2.885 2.885 1
      vertex 2.885 -2.885 1
      vertex 3.10246 -2.64975 1
    endloop
  endfacet
  facet normal 0 0 1
    outer loop
      vertex 2.64975 3.10246 1
      vertex 2.885 -2.885 1
      vertex 2.885 2.885 1
    endloop
  endfacet
  facet normal 0 0 1
    outer loop
      vertex 2.64975 3.10246 1
      vertex 2.64975 -3.10246 1
      vertex 2.885 -2.885 1
    endloop
  endfacet
  facet normal 0 0 1
    outer loop
      vertex 2.39816 3.30079 1
      vertex 2.64975 -3.10246 1
      vertex 2.64975 3.10246 1
    endloop
  endfacet
  facet normal 0 0 1
    outer loop
      vertex 2.39816 3.30079 1
      vertex 2.39816 -3.30079 1
      vertex 2.64975 -3.10246 1
    endloop
  endfacet
  facet normal 0 0 1
    outer loop
      vertex 2.13179 3.47877 1
      vertex 2.39816 -3.30079 1
      vertex 2.39816 3.30079 1
    endloop
  endfacet
  facet normal 0 0 1
    outer loop
      vertex 2.13179 3.47877 1
      vertex 2.13179 -3.47877 1
      vertex 2.39816 -3.30079 1
    endloop
  endfacet
  facet normal 0 0 1
    outer loop
      vertex 1.85228 3.63531 1
      vertex 2.13179 -3.47877 1
      vertex 2.13179 3.47877 1
    endloop
  endfacet
  facet normal 0 0 1
    outer loop
      vertex 1.85228 3.63531 1
      vertex 1.85228 -3.63531 1
      vertex 2.13179 -3.47877 1
    endloop
  endfacet
  facet normal 0 0 1
    outer loop
      vertex 1.56135 3.76943 1
      vertex 1.85228 -3.63531 1
      vertex 1.85228 3.63531 1
    endloop
  endfacet
  facet normal 0 0 1
    outer loop
      vertex 1.56135 3.76943 1
      vertex 1.56135 -3.76943 1
      vertex 1.85228 -3.63531 1
    endloop
  endfacet
  facet normal 0 0 1
    outer loop
      vertex 1.26079 3.88031 1
      vertex 1.56135 -3.76943 1
      vertex 1.56135 3.76943 1
    endloop
  endfacet
  facet normal 0 0 1
    outer loop
      vertex 1.26079 3.88031 1
      vertex 1.26079 -3.88031 1
      vertex 1.56135 -3.76943 1
    endloop
  endfacet
  facet normal 0 0 1
    outer loop
      vertex 0.952457 3.96727 1
      vertex 1.26079 -3.88031 1
      vertex 1.26079 3.88031 1
    endloop
  endfacet
  facet normal 0 0 1
    outer loop
      vertex 0.952457 3.96727 1
      vertex 0.952457 -3.96727 1
      vertex 1.26079 -3.88031 1
    endloop
  endfacet
  facet normal 0 0 1
    outer loop
      vertex 0.638253 4.02977 1
      vertex 0.952457 -3.96727 1
      vertex 0.952457 3.96727 1
    endloop
  endfacet
  facet normal 0 0 1
    outer loop
      vertex 0.638253 4.02977 1
      vertex 0.638253 -4.02977 1
      vertex 0.952457 -3.96727 1
    endloop
  endfacet
  facet normal 0 0 1
    outer loop
      vertex 0.320113 4.06742 1
      vertex 0.638253 -4.02977 1
      vertex 0.638253 4.02977 1
    endloop
  endfacet
  facet normal 0 0 1
    outer loop
      vertex 0.320113 4.06742 1
      vertex 0.320113 -4.06742 1
      vertex 0.638253 -4.02977 1
    endloop
  endfacet
  facet normal 0 0 1
    outer loop
      vertex 0 4.08 1
      vertex 0.320113 -4.06742 1
      vertex 0.320113 4.06742 1
    endloop
  endfacet
  facet normal 0 0 1
    outer loop
      vertex 0 4.08 1
      vertex -0 -4.08 1
      vertex 0.320113 -4.06742 1
    endloop
  endfacet
  facet normal -0 0 1
    outer loop
      vertex -0.320113 4.06742 1
      vertex -0 -4.08 1
      vertex 0 4.08 1
    endloop
  endfacet
  facet normal 0 0 1
    outer loop
      vertex -0.320113 4.06742 1
      vertex -0.320113 -4.06742 1
      vertex -0 -4.08 1
    endloop
  endfacet
  facet normal -0 0 1
    outer loop
      vertex -0.638253 4.02977 1
      vertex -0.320113 -4.06742 1
      vertex -0.320113 4.06742 1
    endloop
  endfacet
  facet normal 0 0 1
    outer loop
      vertex -0.638253 4.02977 1
      vertex -0.638253 -4.02977 1
      vertex -0.320113 -4.06742 1
    endloop
  endfacet
  facet normal -0 0 1
    outer loop
      vertex -0.952457 3.96727 1
      vertex -0.638253 -4.02977 1
      vertex -0.638253 4.02977 1
    endloop
  endfacet
  facet normal 0 0 1
    outer loop
      vertex -0.952457 3.96727 1
      vertex -0.952457 -3.96727 1
      vertex -0.638253 -4.02977 1
    endloop
  endfacet
  facet normal -0 0 1
    outer loop
      vertex -1.26079 3.88031 1
      vertex -0.952457 -3.96727 1
      vertex -0.952457 3.96727 1
    endloop
  endfacet
  facet normal 0 0 1
    outer loop
      vertex -1.26079 3.88031 1
      vertex -1.26079 -3.88031 1
      vertex -0.952457 -3.96727 1
    endloop
  endfacet
  facet normal -0 0 1
    outer loop
      vertex -1.56135 3.76943 1
      vertex -1.26079 -3.88031 1
      vertex -1.26079 3.88031 1
    endloop
  endfacet
  facet normal 0 0 1
    outer loop
      vertex -1.56135 3.76943 1
      vertex -1.56135 -3.76943 1
      vertex -1.26079 -3.88031 1
    endloop
  endfacet
  facet normal -0 0 1
    outer loop
      vertex -1.85228 3.63531 1
      vertex -1.56135 -3.76943 1
      vertex -1.56135 3.76943 1
    endloop
  endfacet
  facet normal 0 0 1
    outer loop
      vertex -1.85228 3.63531 1
      vertex -1.85228 -3.63531 1
      vertex -1.56135 -3.76943 1
    endloop
  endfacet
  facet normal -0 0 1
    outer loop
      vertex -2.13179 3.47877 1
      vertex -1.85228 -3.63531 1
      vertex -1.85228 3.63531 1
    endloop
  endfacet
  facet normal 0 0 1
    outer loop
      vertex -2.13179 3.47877 1
      vertex -2.13179 -3.47877 1
      vertex -1.85228 -3.63531 1
    endloop
  endfacet
  facet normal -0 0 1
    outer loop
      vertex -2.39816 3.30079 1
      vertex -2.13179 -3.47877 1
      vertex -2.13179 3.47877 1
    endloop
  endfacet
  facet normal 0 0 1
    outer loop
      vertex -2.39816 3.30079 1
      vertex -2.39816 -3.30079 1
      vertex -2.13179 -3.47877 1
    endloop
  endfacet
  facet normal -0 0 1
    outer loop
      vertex -2.64975 3.10246 1
      vertex -2.39816 -3.30079 1
      vertex -2.39816 3.30079 1
    endloop
  endfacet
  facet normal 0 0 1
    outer loop
      vertex -2.64975 3.10246 1
      vertex -2.64975 -3.10246 1
      vertex -2.39816 -3.30079 1
    endloop
  endfacet
  facet normal -0 0 1
    outer loop
      vertex -2.885 2.885 1
      vertex -2.64975 -3.10246 1
      vertex -2.64975 3.10246 1
    endloop
  endfacet
  facet normal 0 0 1
    outer loop
      vertex -2.885 2.885 1
      vertex -2.885 -2.885 1
      vertex -2.64975 -3.10246 1
    endloop
  endfacet
  facet normal -0 0 1
    outer loop
      vertex -3.10246 2.64975 1
      vertex -2.885 -2.885 1
      vertex -2.885 2.885 1
    endloop
  endfacet
  facet normal 0 0 1
    outer loop
      vertex -3.10246 2.64975 1
      vertex -3.10246 -2.64975 1
      vertex -2.885 -2.885 1
    endloop
  endfacet
  facet normal -0 0 1
    outer loop
      vertex -3.30079 2.39816 1
      vertex -3.10246 -2.64975 1
      vertex -3.10246 2.64975 1
    endloop
  endfacet
  facet normal 0 0 1
    outer loop
      vertex -3.30079 2.39816 1
      vertex -3.30079 -2.39816 1
      vertex -3.10246 -2.64975 1
    endloop
  endfacet
  facet normal -0 0 1
    outer loop
      vertex -3.47877 2.13179 1
      vertex -3.30079 -2.39816 1
      vertex -3.30079 2.39816 1
    endloop
  endfacet
  facet normal 0 0 1
    outer loop
      vertex -3.47877 2.13179 1
      vertex -3.47877 -2.13179 1
      vertex -3.30079 -2.39816 1
    endloop
  endfacet
  facet normal -0 0 1
    outer loop
      vertex -3.63531 1.85228 1
      vertex -3.47877 -2.13179 1
      vertex -3.47877 2.13179 1
    endloop
  endfacet
  facet normal 0 0 1
    outer loop
      vertex -3.63531 1.85228 1
      vertex -3.63531 -1.85228 1
      vertex -3.47877 -2.13179 1
    endloop
  endfacet
  facet normal -0 0 1
    outer loop
      vertex -3.76943 1.56135 1
      vertex -3.63531 -1.85228 1
      vertex -3.63531 1.85228 1
    endloop
  endfacet
  facet normal 0 0 1
    outer loop
      vertex -3.76943 1.56135 1
      vertex -3.76943 -1.56135 1
      vertex -3.63531 -1.85228 1
    endloop
  endfacet
  facet normal -0 0 1
    outer loop
      vertex -3.88031 1.26079 1
      vertex -3.76943 -1.56135 1
      vertex -3.76943 1.56135 1
    endloop
  endfacet
  facet normal 0 0 1
    outer loop
      vertex -3.88031 1.26079 1
      vertex -3.88031 -1.26079 1
      vertex -3.76943 -1.56135 1
    endloop
  endfacet
  facet normal -0 0 1
    outer loop
      vertex -3.96727 0.952457 1
      vertex -3.88031 -1.26079 1
      vertex -3.88031 1.26079 1
    endloop
  endfacet
  facet normal 0 0 1
    outer loop
      vertex -3.96727 0.952457 1
      vertex -3.96727 -0.952457 1
      vertex -3.88031 -1.26079 1
    endloop
  endfacet
  facet normal -0 0 1
    outer loop
      vertex -4.02977 0.638253 1
      vertex -3.96727 -0.952457 1
      vertex -3.96727 0.952457 1
    endloop
  endfacet
  facet normal 0 0 1
    outer loop
      vertex -4.02977 0.638253 1
      vertex -4.02977 -0.638253 1
      vertex -3.96727 -0.952457 1
    endloop
  endfacet
  facet normal -0 0 1
    outer loop
      vertex -4.06742 0.320113 1
      vertex -4.02977 -0.638253 1
      vertex -4.02977 0.638253 1
    endloop
  endfacet
  facet normal 0 0 1
    outer loop
      vertex -4.06742 0.320113 1
      vertex -4.06742 -0.320113 1
      vertex -4.02977 -0.638253 1
    endloop
  endfacet
  facet normal 0 -0 1
    outer loop
      vertex -4.06742 -0.320113 1
      vertex -4.06742 0.320113 1
      vertex -4.08 -0 1
    endloop
  endfacet
endsolid OpenSCAD_Model
