solid OpenSCAD_Model
  facet normal 0.999229 0.0392506 0
    outer loop
      vertex 5.98 0 1
      vertex 5.96157 0.469185 0
      vertex 5.96157 0.469185 1
    endloop
  endfacet
  facet normal 0.999229 0.0392506 0
    outer loop
      vertex 5.96157 0.469185 0
      vertex 5.98 0 1
      vertex 5.98 0 0
    endloop
  endfacet
  facet normal 0.993068 0.117539 0
    outer loop
      vertex 5.96157 0.469185 1
      vertex 5.90638 0.935478 0
      vertex 5.90638 0.935478 1
    endloop
  endfacet
  facet normal 0.993068 0.117539 0
    outer loop
      vertex 5.90638 0.935478 0
      vertex 5.96157 0.469185 1
      vertex 5.96157 0.469185 0
    endloop
  endfacet
  facet normal 0.980783 0.195104 0
    outer loop
      vertex 5.90638 0.935478 1
      vertex 5.81477 1.396 0
      vertex 5.81477 1.396 1
    endloop
  endfacet
  facet normal 0.980783 0.195104 0
    outer loop
      vertex 5.81477 1.396 0
      vertex 5.90638 0.935478 1
      vertex 5.90638 0.935478 0
    endloop
  endfacet
  facet normal 0.962458 0.271431 0
    outer loop
      vertex 5.81477 1.396 1
      vertex 5.68732 1.84792 0
      vertex 5.68732 1.84792 1
    endloop
  endfacet
  facet normal 0.962458 0.271431 0
    outer loop
      vertex 5.68732 1.84792 0
      vertex 5.81477 1.396 1
      vertex 5.81477 1.396 0
    endloop
  endfacet
  facet normal 0.938191 0.346117 0
    outer loop
      vertex 5.68732 1.84792 1
      vertex 5.5248 2.28845 0
      vertex 5.5248 2.28845 1
    endloop
  endfacet
  facet normal 0.938191 0.346117 0
    outer loop
      vertex 5.5248 2.28845 0
      vertex 5.68732 1.84792 1
      vertex 5.68732 1.84792 0
    endloop
  endfacet
  facet normal 0.908141 0.418664 0
    outer loop
      vertex 5.5248 2.28845 1
      vertex 5.32822 2.71486 0
      vertex 5.32822 2.71486 1
    endloop
  endfacet
  facet normal 0.908141 0.418664 0
    outer loop
      vertex 5.32822 2.71486 0
      vertex 5.5248 2.28845 1
      vertex 5.5248 2.28845 0
    endloop
  endfacet
  facet normal 0.872498 0.488618 0
    outer loop
      vertex 5.32822 2.71486 1
      vertex 5.09879 3.12454 0
      vertex 5.09879 3.12454 1
    endloop
  endfacet
  facet normal 0.872498 0.488618 0
    outer loop
      vertex 5.09879 3.12454 0
      vertex 5.32822 2.71486 1
      vertex 5.32822 2.71486 0
    endloop
  endfacet
  facet normal 0.83147 0.55557 0
    outer loop
      vertex 5.09879 3.12454 1
      vertex 4.83792 3.51496 0
      vertex 4.83792 3.51496 1
    endloop
  endfacet
  facet normal 0.83147 0.55557 0
    outer loop
      vertex 4.83792 3.51496 0
      vertex 5.09879 3.12454 1
      vertex 5.09879 3.12454 0
    endloop
  endfacet
  facet normal 0.785318 0.619092 0
    outer loop
      vertex 4.83792 3.51496 1
      vertex 4.54723 3.8837 0
      vertex 4.54723 3.8837 1
    endloop
  endfacet
  facet normal 0.785318 0.619092 0
    outer loop
      vertex 4.54723 3.8837 0
      vertex 4.83792 3.51496 1
      vertex 4.83792 3.51496 0
    endloop
  endfacet
  facet normal 0.734322 0.678801 0
    outer loop
      vertex 4.54723 3.8837 1
      vertex 4.2285 4.2285 0
      vertex 4.2285 4.2285 1
    endloop
  endfacet
  facet normal 0.734322 0.678801 0
    outer loop
      vertex 4.2285 4.2285 0
      vertex 4.54723 3.8837 1
      vertex 4.54723 3.8837 0
    endloop
  endfacet
  facet normal 0.678801 0.734322 -0
    outer loop
      vertex 4.2285 4.2285 0
      vertex 3.8837 4.54723 1
      vertex 4.2285 4.2285 1
    endloop
  endfacet
  facet normal 0.678801 0.734322 0
    outer loop
      vertex 3.8837 4.54723 1
      vertex 4.2285 4.2285 0
      vertex 3.8837 4.54723 0
    endloop
  endfacet
  facet normal 0.619092 0.785318 -0
    outer loop
      vertex 3.8837 4.54723 0
      vertex 3.51496 4.83792 1
      vertex 3.8837 4.54723 1
    endloop
  endfacet
  facet normal 0.619092 0.785318 0
    outer loop
      vertex 3.51496 4.83792 1
      vertex 3.8837 4.54723 0
      vertex 3.51496 4.83792 0
    endloop
  endfacet
  facet normal 0.55557 0.83147 -0
    outer loop
      vertex 3.51496 4.83792 0
      vertex 3.12454 5.09879 1
      vertex 3.51496 4.83792 1
    endloop
  endfacet
  facet normal 0.55557 0.83147 0
    outer loop
      vertex 3.12454 5.09879 1
      vertex 3.51496 4.83792 0
      vertex 3.12454 5.09879 0
    endloop
  endfacet
  facet normal 0.488618 0.872498 -0
    outer loop
      vertex 3.12454 5.09879 0
      vertex 2.71486 5.32822 1
      vertex 3.12454 5.09879 1
    endloop
  endfacet
  facet normal 0.488618 0.872498 0
    outer loop
      vertex 2.71486 5.32822 1
      vertex 3.12454 5.09879 0
      vertex 2.71486 5.32822 0
    endloop
  endfacet
  facet normal 0.418664 0.908141 -0
    outer loop
      vertex 2.71486 5.32822 0
      vertex 2.28845 5.5248 1
      vertex 2.71486 5.32822 1
    endloop
  endfacet
  facet normal 0.418664 0.908141 0
    outer loop
      vertex 2.28845 5.5248 1
      vertex 2.71486 5.32822 0
      vertex 2.28845 5.5248 0
    endloop
  endfacet
  facet normal 0.346117 0.938191 -0
    outer loop
      vertex 2.28845 5.5248 0
      vertex 1.84792 5.68732 1
      vertex 2.28845 5.5248 1
    endloop
  endfacet
  facet normal 0.346117 0.938191 0
    outer loop
      vertex 1.84792 5.68732 1
      vertex 2.28845 5.5248 0
      vertex 1.84792 5.68732 0
    endloop
  endfacet
  facet normal 0.271431 0.962458 -0
    outer loop
      vertex 1.84792 5.68732 0
      vertex 1.396 5.81477 1
      vertex 1.84792 5.68732 1
    endloop
  endfacet
  facet normal 0.271431 0.962458 0
    outer loop
      vertex 1.396 5.81477 1
      vertex 1.84792 5.68732 0
      vertex 1.396 5.81477 0
    endloop
  endfacet
  facet normal 0.195104 0.980783 -0
    outer loop
      vertex 1.396 5.81477 0
      vertex 0.935478 5.90638 1
      vertex 1.396 5.81477 1
    endloop
  endfacet
  facet normal 0.195104 0.980783 0
    outer loop
      vertex 0.935478 5.90638 1
      vertex 1.396 5.81477 0
      vertex 0.935478 5.90638 0
    endloop
  endfacet
  facet normal 0.117539 0.993068 -0
    outer loop
      vertex 0.935478 5.90638 0
      vertex 0.469185 5.96157 1
      vertex 0.935478 5.90638 1
    endloop
  endfacet
  facet normal 0.117539 0.993068 0
    outer loop
      vertex 0.469185 5.96157 1
      vertex 0.935478 5.90638 0
      vertex 0.469185 5.96157 0
    endloop
  endfacet
  facet normal 0.0392506 0.999229 -0
    outer loop
      vertex 0.469185 5.96157 0
      vertex 0 5.98 1
      vertex 0.469185 5.96157 1
    endloop
  endfacet
  facet normal 0.0392506 0.999229 0
    outer loop
      vertex 0 5.98 1
      vertex 0.469185 5.96157 0
      vertex 0 5.98 0
    endloop
  endfacet
  facet normal -0.0392506 0.999229 0
    outer loop
      vertex 0 5.98 0
      vertex -0.469185 5.96157 1
      vertex 0 5.98 1
    endloop
  endfacet
  facet normal -0.0392506 0.999229 0
    outer loop
      vertex -0.469185 5.96157 1
      vertex 0 5.98 0
      vertex -0.469185 5.96157 0
    endloop
  endfacet
  facet normal -0.117539 0.993068 0
    outer loop
      vertex -0.469185 5.96157 0
      vertex -0.935478 5.90638 1
      vertex -0.469185 5.96157 1
    endloop
  endfacet
  facet normal -0.117539 0.993068 0
    outer loop
      vertex -0.935478 5.90638 1
      vertex -0.469185 5.96157 0
      vertex -0.935478 5.90638 0
    endloop
  endfacet
  facet normal -0.195104 0.980783 0
    outer loop
      vertex -0.935478 5.90638 0
      vertex -1.396 5.81477 1
      vertex -0.935478 5.90638 1
    endloop
  endfacet
  facet normal -0.195104 0.980783 0
    outer loop
      vertex -1.396 5.81477 1
      vertex -0.935478 5.90638 0
      vertex -1.396 5.81477 0
    endloop
  endfacet
  facet normal -0.271431 0.962458 0
    outer loop
      vertex -1.396 5.81477 0
      vertex -1.84792 5.68732 1
      vertex -1.396 5.81477 1
    endloop
  endfacet
  facet normal -0.271431 0.962458 0
    outer loop
      vertex -1.84792 5.68732 1
      vertex -1.396 5.81477 0
      vertex -1.84792 5.68732 0
    endloop
  endfacet
  facet normal -0.346117 0.938191 0
    outer loop
      vertex -1.84792 5.68732 0
      vertex -2.28845 5.5248 1
      vertex -1.84792 5.68732 1
    endloop
  endfacet
  facet normal -0.346117 0.938191 0
    outer loop
      vertex -2.28845 5.5248 1
      vertex -1.84792 5.68732 0
      vertex -2.28845 5.5248 0
    endloop
  endfacet
  facet normal -0.418664 0.908141 0
    outer loop
      vertex -2.28845 5.5248 0
      vertex -2.71486 5.32822 1
      vertex -2.28845 5.5248 1
    endloop
  endfacet
  facet normal -0.418664 0.908141 0
    outer loop
      vertex -2.71486 5.32822 1
      vertex -2.28845 5.5248 0
      vertex -2.71486 5.32822 0
    endloop
  endfacet
  facet normal -0.488618 0.872498 0
    outer loop
      vertex -2.71486 5.32822 0
      vertex -3.12454 5.09879 1
      vertex -2.71486 5.32822 1
    endloop
  endfacet
  facet normal -0.488618 0.872498 0
    outer loop
      vertex -3.12454 5.09879 1
      vertex -2.71486 5.32822 0
      vertex -3.12454 5.09879 0
    endloop
  endfacet
  facet normal -0.55557 0.83147 0
    outer loop
      vertex -3.12454 5.09879 0
      vertex -3.51496 4.83792 1
      vertex -3.12454 5.09879 1
    endloop
  endfacet
  facet normal -0.55557 0.83147 0
    outer loop
      vertex -3.51496 4.83792 1
      vertex -3.12454 5.09879 0
      vertex -3.51496 4.83792 0
    endloop
  endfacet
  facet normal -0.619092 0.785318 0
    outer loop
      vertex -3.51496 4.83792 0
      vertex -3.8837 4.54723 1
      vertex -3.51496 4.83792 1
    endloop
  endfacet
  facet normal -0.619092 0.785318 0
    outer loop
      vertex -3.8837 4.54723 1
      vertex -3.51496 4.83792 0
      vertex -3.8837 4.54723 0
    endloop
  endfacet
  facet normal -0.678801 0.734322 0
    outer loop
      vertex -3.8837 4.54723 0
      vertex -4.2285 4.2285 1
      vertex -3.8837 4.54723 1
    endloop
  endfacet
  facet normal -0.678801 0.734322 0
    outer loop
      vertex -4.2285 4.2285 1
      vertex -3.8837 4.54723 0
      vertex -4.2285 4.2285 0
    endloop
  endfacet
  facet normal -0.734322 0.678801 0
    outer loop
      vertex -4.54723 3.8837 0
      vertex -4.2285 4.2285 1
      vertex -4.2285 4.2285 0
    endloop
  endfacet
  facet normal -0.734322 0.678801 0
    outer loop
      vertex -4.2285 4.2285 1
      vertex -4.54723 3.8837 0
      vertex -4.54723 3.8837 1
    endloop
  endfacet
  facet normal -0.785318 0.619092 0
    outer loop
      vertex -4.83792 3.51496 0
      vertex -4.54723 3.8837 1
      vertex -4.54723 3.8837 0
    endloop
  endfacet
  facet normal -0.785318 0.619092 0
    outer loop
      vertex -4.54723 3.8837 1
      vertex -4.83792 3.51496 0
      vertex -4.83792 3.51496 1
    endloop
  endfacet
  facet normal -0.83147 0.55557 0
    outer loop
      vertex -5.09879 3.12454 0
      vertex -4.83792 3.51496 1
      vertex -4.83792 3.51496 0
    endloop
  endfacet
  facet normal -0.83147 0.55557 0
    outer loop
      vertex -4.83792 3.51496 1
      vertex -5.09879 3.12454 0
      vertex -5.09879 3.12454 1
    endloop
  endfacet
  facet normal -0.872498 0.488618 0
    outer loop
      vertex -5.32822 2.71486 0
      vertex -5.09879 3.12454 1
      vertex -5.09879 3.12454 0
    endloop
  endfacet
  facet normal -0.872498 0.488618 0
    outer loop
      vertex -5.09879 3.12454 1
      vertex -5.32822 2.71486 0
      vertex -5.32822 2.71486 1
    endloop
  endfacet
  facet normal -0.908141 0.418664 0
    outer loop
      vertex -5.5248 2.28845 0
      vertex -5.32822 2.71486 1
      vertex -5.32822 2.71486 0
    endloop
  endfacet
  facet normal -0.908141 0.418664 0
    outer loop
      vertex -5.32822 2.71486 1
      vertex -5.5248 2.28845 0
      vertex -5.5248 2.28845 1
    endloop
  endfacet
  facet normal -0.938191 0.346117 0
    outer loop
      vertex -5.68732 1.84792 0
      vertex -5.5248 2.28845 1
      vertex -5.5248 2.28845 0
    endloop
  endfacet
  facet normal -0.938191 0.346117 0
    outer loop
      vertex -5.5248 2.28845 1
      vertex -5.68732 1.84792 0
      vertex -5.68732 1.84792 1
    endloop
  endfacet
  facet normal -0.962458 0.271431 0
    outer loop
      vertex -5.81477 1.396 0
      vertex -5.68732 1.84792 1
      vertex -5.68732 1.84792 0
    endloop
  endfacet
  facet normal -0.962458 0.271431 0
    outer loop
      vertex -5.68732 1.84792 1
      vertex -5.81477 1.396 0
      vertex -5.81477 1.396 1
    endloop
  endfacet
  facet normal -0.980783 0.195104 0
    outer loop
      vertex -5.90638 0.935478 0
      vertex -5.81477 1.396 1
      vertex -5.81477 1.396 0
    endloop
  endfacet
  facet normal -0.980783 0.195104 0
    outer loop
      vertex -5.81477 1.396 1
      vertex -5.90638 0.935478 0
      vertex -5.90638 0.935478 1
    endloop
  endfacet
  facet normal -0.993068 0.117539 0
    outer loop
      vertex -5.96157 0.469185 0
      vertex -5.90638 0.935478 1
      vertex -5.90638 0.935478 0
    endloop
  endfacet
  facet normal -0.993068 0.117539 0
    outer loop
      vertex -5.90638 0.935478 1
      vertex -5.96157 0.469185 0
      vertex -5.96157 0.469185 1
    endloop
  endfacet
  facet normal -0.999229 0.0392506 0
    outer loop
      vertex -5.98 -0 0
      vertex -5.96157 0.469185 1
      vertex -5.96157 0.469185 0
    endloop
  endfacet
  facet normal -0.999229 0.0392506 0
    outer loop
      vertex -5.96157 0.469185 1
      vertex -5.98 -0 0
      vertex -5.98 -0 1
    endloop
  endfacet
  facet normal -0.999229 -0.0392506 0
    outer loop
      vertex -5.96157 -0.469185 0
      vertex -5.98 -0 1
      vertex -5.98 -0 0
    endloop
  endfacet
  facet normal -0.999229 -0.0392506 0
    outer loop
      vertex -5.98 -0 1
      vertex -5.96157 -0.469185 0
      vertex -5.96157 -0.469185 1
    endloop
  endfacet
  facet normal -0.993068 -0.117539 0
    outer loop
      vertex -5.90638 -0.935478 0
      vertex -5.96157 -0.469185 1
      vertex -5.96157 -0.469185 0
    endloop
  endfacet
  facet normal -0.993068 -0.117539 0
    outer loop
      vertex -5.96157 -0.469185 1
      vertex -5.90638 -0.935478 0
      vertex -5.90638 -0.935478 1
    endloop
  endfacet
  facet normal -0.980783 -0.195104 0
    outer loop
      vertex -5.81477 -1.396 0
      vertex -5.90638 -0.935478 1
      vertex -5.90638 -0.935478 0
    endloop
  endfacet
  facet normal -0.980783 -0.195104 0
    outer loop
      vertex -5.90638 -0.935478 1
      vertex -5.81477 -1.396 0
      vertex -5.81477 -1.396 1
    endloop
  endfacet
  facet normal -0.962458 -0.271431 0
    outer loop
      vertex -5.68732 -1.84792 0
      vertex -5.81477 -1.396 1
      vertex -5.81477 -1.396 0
    endloop
  endfacet
  facet normal -0.962458 -0.271431 0
    outer loop
      vertex -5.81477 -1.396 1
      vertex -5.68732 -1.84792 0
      vertex -5.68732 -1.84792 1
    endloop
  endfacet
  facet normal -0.938191 -0.346117 0
    outer loop
      vertex -5.5248 -2.28845 0
      vertex -5.68732 -1.84792 1
      vertex -5.68732 -1.84792 0
    endloop
  endfacet
  facet normal -0.938191 -0.346117 0
    outer loop
      vertex -5.68732 -1.84792 1
      vertex -5.5248 -2.28845 0
      vertex -5.5248 -2.28845 1
    endloop
  endfacet
  facet normal -0.908141 -0.418664 0
    outer loop
      vertex -5.32822 -2.71486 0
      vertex -5.5248 -2.28845 1
      vertex -5.5248 -2.28845 0
    endloop
  endfacet
  facet normal -0.908141 -0.418664 0
    outer loop
      vertex -5.5248 -2.28845 1
      vertex -5.32822 -2.71486 0
      vertex -5.32822 -2.71486 1
    endloop
  endfacet
  facet normal -0.872498 -0.488618 0
    outer loop
      vertex -5.09879 -3.12454 0
      vertex -5.32822 -2.71486 1
      vertex -5.32822 -2.71486 0
    endloop
  endfacet
  facet normal -0.872498 -0.488618 0
    outer loop
      vertex -5.32822 -2.71486 1
      vertex -5.09879 -3.12454 0
      vertex -5.09879 -3.12454 1
    endloop
  endfacet
  facet normal -0.83147 -0.55557 0
    outer loop
      vertex -4.83792 -3.51496 0
      vertex -5.09879 -3.12454 1
      vertex -5.09879 -3.12454 0
    endloop
  endfacet
  facet normal -0.83147 -0.55557 0
    outer loop
      vertex -5.09879 -3.12454 1
      vertex -4.83792 -3.51496 0
      vertex -4.83792 -3.51496 1
    endloop
  endfacet
  facet normal -0.785318 -0.619092 0
    outer loop
      vertex -4.54723 -3.8837 0
      vertex -4.83792 -3.51496 1
      vertex -4.83792 -3.51496 0
    endloop
  endfacet
  facet normal -0.785318 -0.619092 0
    outer loop
      vertex -4.83792 -3.51496 1
      vertex -4.54723 -3.8837 0
      vertex -4.54723 -3.8837 1
    endloop
  endfacet
  facet normal -0.734322 -0.678801 0
    outer loop
      vertex -4.2285 -4.2285 0
      vertex -4.54723 -3.8837 1
      vertex -4.54723 -3.8837 0
    endloop
  endfacet
  facet normal -0.734322 -0.678801 0
    outer loop
      vertex -4.54723 -3.8837 1
      vertex -4.2285 -4.2285 0
      vertex -4.2285 -4.2285 1
    endloop
  endfacet
  facet normal -0.678801 -0.734322 0
    outer loop
      vertex -4.2285 -4.2285 0
      vertex -3.8837 -4.54723 1
      vertex -4.2285 -4.2285 1
    endloop
  endfacet
  facet normal -0.678801 -0.734322 -0
    outer loop
      vertex -3.8837 -4.54723 1
      vertex -4.2285 -4.2285 0
      vertex -3.8837 -4.54723 0
    endloop
  endfacet
  facet normal -0.619092 -0.785318 0
    outer loop
      vertex -3.8837 -4.54723 0
      vertex -3.51496 -4.83792 1
      vertex -3.8837 -4.54723 1
    endloop
  endfacet
  facet normal -0.619092 -0.785318 -0
    outer loop
      vertex -3.51496 -4.83792 1
      vertex -3.8837 -4.54723 0
      vertex -3.51496 -4.83792 0
    endloop
  endfacet
  facet normal -0.55557 -0.83147 0
    outer loop
      vertex -3.51496 -4.83792 0
      vertex -3.12454 -5.09879 1
      vertex -3.51496 -4.83792 1
    endloop
  endfacet
  facet normal -0.55557 -0.83147 -0
    outer loop
      vertex -3.12454 -5.09879 1
      vertex -3.51496 -4.83792 0
      vertex -3.12454 -5.09879 0
    endloop
  endfacet
  facet normal -0.488618 -0.872498 0
    outer loop
      vertex -3.12454 -5.09879 0
      vertex -2.71486 -5.32822 1
      vertex -3.12454 -5.09879 1
    endloop
  endfacet
  facet normal -0.488618 -0.872498 -0
    outer loop
      vertex -2.71486 -5.32822 1
      vertex -3.12454 -5.09879 0
      vertex -2.71486 -5.32822 0
    endloop
  endfacet
  facet normal -0.418664 -0.908141 0
    outer loop
      vertex -2.71486 -5.32822 0
      vertex -2.28845 -5.5248 1
      vertex -2.71486 -5.32822 1
    endloop
  endfacet
  facet normal -0.418664 -0.908141 -0
    outer loop
      vertex -2.28845 -5.5248 1
      vertex -2.71486 -5.32822 0
      vertex -2.28845 -5.5248 0
    endloop
  endfacet
  facet normal -0.346117 -0.938191 0
    outer loop
      vertex -2.28845 -5.5248 0
      vertex -1.84792 -5.68732 1
      vertex -2.28845 -5.5248 1
    endloop
  endfacet
  facet normal -0.346117 -0.938191 -0
    outer loop
      vertex -1.84792 -5.68732 1
      vertex -2.28845 -5.5248 0
      vertex -1.84792 -5.68732 0
    endloop
  endfacet
  facet normal -0.271431 -0.962458 0
    outer loop
      vertex -1.84792 -5.68732 0
      vertex -1.396 -5.81477 1
      vertex -1.84792 -5.68732 1
    endloop
  endfacet
  facet normal -0.271431 -0.962458 -0
    outer loop
      vertex -1.396 -5.81477 1
      vertex -1.84792 -5.68732 0
      vertex -1.396 -5.81477 0
    endloop
  endfacet
  facet normal -0.195104 -0.980783 0
    outer loop
      vertex -1.396 -5.81477 0
      vertex -0.935478 -5.90638 1
      vertex -1.396 -5.81477 1
    endloop
  endfacet
  facet normal -0.195104 -0.980783 -0
    outer loop
      vertex -0.935478 -5.90638 1
      vertex -1.396 -5.81477 0
      vertex -0.935478 -5.90638 0
    endloop
  endfacet
  facet normal -0.117539 -0.993068 0
    outer loop
      vertex -0.935478 -5.90638 0
      vertex -0.469185 -5.96157 1
      vertex -0.935478 -5.90638 1
    endloop
  endfacet
  facet normal -0.117539 -0.993068 -0
    outer loop
      vertex -0.469185 -5.96157 1
      vertex -0.935478 -5.90638 0
      vertex -0.469185 -5.96157 0
    endloop
  endfacet
  facet normal -0.0392506 -0.999229 0
    outer loop
      vertex -0.469185 -5.96157 0
      vertex -0 -5.98 1
      vertex -0.469185 -5.96157 1
    endloop
  endfacet
  facet normal -0.0392506 -0.999229 -0
    outer loop
      vertex -0 -5.98 1
      vertex -0.469185 -5.96157 0
      vertex -0 -5.98 0
    endloop
  endfacet
  facet normal 0.0392506 -0.999229 0
    outer loop
      vertex -0 -5.98 0
      vertex 0.469185 -5.96157 1
      vertex -0 -5.98 1
    endloop
  endfacet
  facet normal 0.0392506 -0.999229 0
    outer loop
      vertex 0.469185 -5.96157 1
      vertex -0 -5.98 0
      vertex 0.469185 -5.96157 0
    endloop
  endfacet
  facet normal 0.117539 -0.993068 0
    outer loop
      vertex 0.469185 -5.96157 0
      vertex 0.935478 -5.90638 1
      vertex 0.469185 -5.96157 1
    endloop
  endfacet
  facet normal 0.117539 -0.993068 0
    outer loop
      vertex 0.935478 -5.90638 1
      vertex 0.469185 -5.96157 0
      vertex 0.935478 -5.90638 0
    endloop
  endfacet
  facet normal 0.195104 -0.980783 0
    outer loop
      vertex 0.935478 -5.90638 0
      vertex 1.396 -5.81477 1
      vertex 0.935478 -5.90638 1
    endloop
  endfacet
  facet normal 0.195104 -0.980783 0
    outer loop
      vertex 1.396 -5.81477 1
      vertex 0.935478 -5.90638 0
      vertex 1.396 -5.81477 0
    endloop
  endfacet
  facet normal 0.271431 -0.962458 0
    outer loop
      vertex 1.396 -5.81477 0
      vertex 1.84792 -5.68732 1
      vertex 1.396 -5.81477 1
    endloop
  endfacet
  facet normal 0.271431 -0.962458 0
    outer loop
      vertex 1.84792 -5.68732 1
      vertex 1.396 -5.81477 0
      vertex 1.84792 -5.68732 0
    endloop
  endfacet
  facet normal 0.346117 -0.938191 0
    outer loop
      vertex 1.84792 -5.68732 0
      vertex 2.28845 -5.5248 1
      vertex 1.84792 -5.68732 1
    endloop
  endfacet
  facet normal 0.346117 -0.938191 0
    outer loop
      vertex 2.28845 -5.5248 1
      vertex 1.84792 -5.68732 0
      vertex 2.28845 -5.5248 0
    endloop
  endfacet
  facet normal 0.418664 -0.908141 0
    outer loop
      vertex 2.28845 -5.5248 0
      vertex 2.71486 -5.32822 1
      vertex 2.28845 -5.5248 1
    endloop
  endfacet
  facet normal 0.418664 -0.908141 0
    outer loop
      vertex 2.71486 -5.32822 1
      vertex 2.28845 -5.5248 0
      vertex 2.71486 -5.32822 0
    endloop
  endfacet
  facet normal 0.488618 -0.872498 0
    outer loop
      vertex 2.71486 -5.32822 0
      vertex 3.12454 -5.09879 1
      vertex 2.71486 -5.32822 1
    endloop
  endfacet
  facet normal 0.488618 -0.872498 0
    outer loop
      vertex 3.12454 -5.09879 1
      vertex 2.71486 -5.32822 0
      vertex 3.12454 -5.09879 0
    endloop
  endfacet
  facet normal 0.55557 -0.83147 0
    outer loop
      vertex 3.12454 -5.09879 0
      vertex 3.51496 -4.83792 1
      vertex 3.12454 -5.09879 1
    endloop
  endfacet
  facet normal 0.55557 -0.83147 0
    outer loop
      vertex 3.51496 -4.83792 1
      vertex 3.12454 -5.09879 0
      vertex 3.51496 -4.83792 0
    endloop
  endfacet
  facet normal 0.619092 -0.785318 0
    outer loop
      vertex 3.51496 -4.83792 0
      vertex 3.8837 -4.54723 1
      vertex 3.51496 -4.83792 1
    endloop
  endfacet
  facet normal 0.619092 -0.785318 0
    outer loop
      vertex 3.8837 -4.54723 1
      vertex 3.51496 -4.83792 0
      vertex 3.8837 -4.54723 0
    endloop
  endfacet
  facet normal 0.678801 -0.734322 0
    outer loop
      vertex 3.8837 -4.54723 0
      vertex 4.2285 -4.2285 1
      vertex 3.8837 -4.54723 1
    endloop
  endfacet
  facet normal 0.678801 -0.734322 0
    outer loop
      vertex 4.2285 -4.2285 1
      vertex 3.8837 -4.54723 0
      vertex 4.2285 -4.2285 0
    endloop
  endfacet
  facet normal 0.734322 -0.678801 0
    outer loop
      vertex 4.2285 -4.2285 1
      vertex 4.54723 -3.8837 0
      vertex 4.54723 -3.8837 1
    endloop
  endfacet
  facet normal 0.734322 -0.678801 0
    outer loop
      vertex 4.54723 -3.8837 0
      vertex 4.2285 -4.2285 1
      vertex 4.2285 -4.2285 0
    endloop
  endfacet
  facet normal 0.785318 -0.619092 0
    outer loop
      vertex 4.54723 -3.8837 1
      vertex 4.83792 -3.51496 0
      vertex 4.83792 -3.51496 1
    endloop
  endfacet
  facet normal 0.785318 -0.619092 0
    outer loop
      vertex 4.83792 -3.51496 0
      vertex 4.54723 -3.8837 1
      vertex 4.54723 -3.8837 0
    endloop
  endfacet
  facet normal 0.83147 -0.55557 0
    outer loop
      vertex 4.83792 -3.51496 1
      vertex 5.09879 -3.12454 0
      vertex 5.09879 -3.12454 1
    endloop
  endfacet
  facet normal 0.83147 -0.55557 0
    outer loop
      vertex 5.09879 -3.12454 0
      vertex 4.83792 -3.51496 1
      vertex 4.83792 -3.51496 0
    endloop
  endfacet
  facet normal 0.872498 -0.488618 0
    outer loop
      vertex 5.09879 -3.12454 1
      vertex 5.32822 -2.71486 0
      vertex 5.32822 -2.71486 1
    endloop
  endfacet
  facet normal 0.872498 -0.488618 0
    outer loop
      vertex 5.32822 -2.71486 0
      vertex 5.09879 -3.12454 1
      vertex 5.09879 -3.12454 0
    endloop
  endfacet
  facet normal 0.908141 -0.418664 0
    outer loop
      vertex 5.32822 -2.71486 1
      vertex 5.5248 -2.28845 0
      vertex 5.5248 -2.28845 1
    endloop
  endfacet
  facet normal 0.908141 -0.418664 0
    outer loop
      vertex 5.5248 -2.28845 0
      vertex 5.32822 -2.71486 1
      vertex 5.32822 -2.71486 0
    endloop
  endfacet
  facet normal 0.938191 -0.346117 0
    outer loop
      vertex 5.5248 -2.28845 1
      vertex 5.68732 -1.84792 0
      vertex 5.68732 -1.84792 1
    endloop
  endfacet
  facet normal 0.938191 -0.346117 0
    outer loop
      vertex 5.68732 -1.84792 0
      vertex 5.5248 -2.28845 1
      vertex 5.5248 -2.28845 0
    endloop
  endfacet
  facet normal 0.962458 -0.271431 0
    outer loop
      vertex 5.68732 -1.84792 1
      vertex 5.81477 -1.396 0
      vertex 5.81477 -1.396 1
    endloop
  endfacet
  facet normal 0.962458 -0.271431 0
    outer loop
      vertex 5.81477 -1.396 0
      vertex 5.68732 -1.84792 1
      vertex 5.68732 -1.84792 0
    endloop
  endfacet
  facet normal 0.980783 -0.195104 0
    outer loop
      vertex 5.81477 -1.396 1
      vertex 5.90638 -0.935478 0
      vertex 5.90638 -0.935478 1
    endloop
  endfacet
  facet normal 0.980783 -0.195104 0
    outer loop
      vertex 5.90638 -0.935478 0
      vertex 5.81477 -1.396 1
      vertex 5.81477 -1.396 0
    endloop
  endfacet
  facet normal 0.993068 -0.117539 0
    outer loop
      vertex 5.90638 -0.935478 1
      vertex 5.96157 -0.469185 0
      vertex 5.96157 -0.469185 1
    endloop
  endfacet
  facet normal 0.993068 -0.117539 0
    outer loop
      vertex 5.96157 -0.469185 0
      vertex 5.90638 -0.935478 1
      vertex 5.90638 -0.935478 0
    endloop
  endfacet
  facet normal 0.999229 -0.0392506 0
    outer loop
      vertex 5.96157 -0.469185 1
      vertex 5.98 0 0
      vertex 5.98 0 1
    endloop
  endfacet
  facet normal 0.999229 -0.0392506 0
    outer loop
      vertex 5.98 0 0
      vertex 5.96157 -0.469185 1
      vertex 5.96157 -0.469185 0
    endloop
  endfacet
  facet normal 0 0 -1
    outer loop
      vertex 5.96157 -0.469185 0
      vertex 5.96157 0.469185 0
      vertex 5.98 0 0
    endloop
  endfacet
  facet normal 0 0 -1
    outer loop
      vertex 5.90638 -0.935478 0
      vertex 5.96157 0.469185 0
      vertex 5.96157 -0.469185 0
    endloop
  endfacet
  facet normal 0 0 -1
    outer loop
      vertex 5.90638 -0.935478 0
      vertex 5.90638 0.935478 0
      vertex 5.96157 0.469185 0
    endloop
  endfacet
  facet normal 0 0 -1
    outer loop
      vertex 5.81477 -1.396 0
      vertex 5.90638 0.935478 0
      vertex 5.90638 -0.935478 0
    endloop
  endfacet
  facet normal 0 0 -1
    outer loop
      vertex 5.81477 -1.396 0
      vertex 5.81477 1.396 0
      vertex 5.90638 0.935478 0
    endloop
  endfacet
  facet normal 0 0 -1
    outer loop
      vertex 5.68732 -1.84792 0
      vertex 5.81477 1.396 0
      vertex 5.81477 -1.396 0
    endloop
  endfacet
  facet normal 0 0 -1
    outer loop
      vertex 5.68732 -1.84792 0
      vertex 5.68732 1.84792 0
      vertex 5.81477 1.396 0
    endloop
  endfacet
  facet normal 0 0 -1
    outer loop
      vertex 5.5248 -2.28845 0
      vertex 5.68732 1.84792 0
      vertex 5.68732 -1.84792 0
    endloop
  endfacet
  facet normal 0 0 -1
    outer loop
      vertex 5.5248 -2.28845 0
      vertex 5.5248 2.28845 0
      vertex 5.68732 1.84792 0
    endloop
  endfacet
  facet normal 0 0 -1
    outer loop
      vertex 5.32822 -2.71486 0
      vertex 5.5248 2.28845 0
      vertex 5.5248 -2.28845 0
    endloop
  endfacet
  facet normal 0 0 -1
    outer loop
      vertex 5.32822 -2.71486 0
      vertex 5.32822 2.71486 0
      vertex 5.5248 2.28845 0
    endloop
  endfacet
  facet normal 0 0 -1
    outer loop
      vertex 5.09879 -3.12454 0
      vertex 5.32822 2.71486 0
      vertex 5.32822 -2.71486 0
    endloop
  endfacet
  facet normal 0 0 -1
    outer loop
      vertex 5.09879 -3.12454 0
      vertex 5.09879 3.12454 0
      vertex 5.32822 2.71486 0
    endloop
  endfacet
  facet normal 0 0 -1
    outer loop
      vertex 4.83792 -3.51496 0
      vertex 5.09879 3.12454 0
      vertex 5.09879 -3.12454 0
    endloop
  endfacet
  facet normal 0 0 -1
    outer loop
      vertex 4.83792 -3.51496 0
      vertex 4.83792 3.51496 0
      vertex 5.09879 3.12454 0
    endloop
  endfacet
  facet normal 0 0 -1
    outer loop
      vertex 4.54723 -3.8837 0
      vertex 4.83792 3.51496 0
      vertex 4.83792 -3.51496 0
    endloop
  endfacet
  facet normal 0 0 -1
    outer loop
      vertex 4.54723 -3.8837 0
      vertex 4.54723 3.8837 0
      vertex 4.83792 3.51496 0
    endloop
  endfacet
  facet normal 0 0 -1
    outer loop
      vertex 4.2285 -4.2285 0
      vertex 4.54723 3.8837 0
      vertex 4.54723 -3.8837 0
    endloop
  endfacet
  facet normal 0 0 -1
    outer loop
      vertex 4.2285 -4.2285 0
      vertex 4.2285 4.2285 0
      vertex 4.54723 3.8837 0
    endloop
  endfacet
  facet normal 0 0 -1
    outer loop
      vertex 3.8837 -4.54723 0
      vertex 4.2285 4.2285 0
      vertex 4.2285 -4.2285 0
    endloop
  endfacet
  facet normal 0 0 -1
    outer loop
      vertex 3.8837 -4.54723 0
      vertex 3.8837 4.54723 0
      vertex 4.2285 4.2285 0
    endloop
  endfacet
  facet normal 0 0 -1
    outer loop
      vertex 3.51496 -4.83792 0
      vertex 3.8837 4.54723 0
      vertex 3.8837 -4.54723 0
    endloop
  endfacet
  facet normal 0 0 -1
    outer loop
      vertex 3.51496 -4.83792 0
      vertex 3.51496 4.83792 0
      vertex 3.8837 4.54723 0
    endloop
  endfacet
  facet normal 0 0 -1
    outer loop
      vertex 3.12454 -5.09879 0
      vertex 3.51496 4.83792 0
      vertex 3.51496 -4.83792 0
    endloop
  endfacet
  facet normal 0 0 -1
    outer loop
      vertex 3.12454 -5.09879 0
      vertex 3.12454 5.09879 0
      vertex 3.51496 4.83792 0
    endloop
  endfacet
  facet normal 0 0 -1
    outer loop
      vertex 2.71486 -5.32822 0
      vertex 3.12454 5.09879 0
      vertex 3.12454 -5.09879 0
    endloop
  endfacet
  facet normal 0 0 -1
    outer loop
      vertex 2.71486 -5.32822 0
      vertex 2.71486 5.32822 0
      vertex 3.12454 5.09879 0
    endloop
  endfacet
  facet normal 0 0 -1
    outer loop
      vertex 2.28845 -5.5248 0
      vertex 2.71486 5.32822 0
      vertex 2.71486 -5.32822 0
    endloop
  endfacet
  facet normal 0 0 -1
    outer loop
      vertex 2.28845 -5.5248 0
      vertex 2.28845 5.5248 0
      vertex 2.71486 5.32822 0
    endloop
  endfacet
  facet normal 0 0 -1
    outer loop
      vertex 1.84792 -5.68732 0
      vertex 2.28845 5.5248 0
      vertex 2.28845 -5.5248 0
    endloop
  endfacet
  facet normal 0 0 -1
    outer loop
      vertex 1.84792 -5.68732 0
      vertex 1.84792 5.68732 0
      vertex 2.28845 5.5248 0
    endloop
  endfacet
  facet normal 0 0 -1
    outer loop
      vertex 1.396 -5.81477 0
      vertex 1.84792 5.68732 0
      vertex 1.84792 -5.68732 0
    endloop
  endfacet
  facet normal 0 0 -1
    outer loop
      vertex 1.396 -5.81477 0
      vertex 1.396 5.81477 0
      vertex 1.84792 5.68732 0
    endloop
  endfacet
  facet normal 0 0 -1
    outer loop
      vertex 0.935478 -5.90638 0
      vertex 1.396 5.81477 0
      vertex 1.396 -5.81477 0
    endloop
  endfacet
  facet normal 0 0 -1
    outer loop
      vertex 0.935478 -5.90638 0
      vertex 0.935478 5.90638 0
      vertex 1.396 5.81477 0
    endloop
  endfacet
  facet normal 0 0 -1
    outer loop
      vertex 0.469185 -5.96157 0
      vertex 0.935478 5.90638 0
      vertex 0.935478 -5.90638 0
    endloop
  endfacet
  facet normal 0 0 -1
    outer loop
      vertex 0.469185 -5.96157 0
      vertex 0.469185 5.96157 0
      vertex 0.935478 5.90638 0
    endloop
  endfacet
  facet normal 0 0 -1
    outer loop
      vertex -0 -5.98 0
      vertex 0.469185 5.96157 0
      vertex 0.469185 -5.96157 0
    endloop
  endfacet
  facet normal 0 0 -1
    outer loop
      vertex -0 -5.98 0
      vertex 0 5.98 0
      vertex 0.469185 5.96157 0
    endloop
  endfacet
  facet normal 0 0 -1
    outer loop
      vertex -0.469185 -5.96157 0
      vertex 0 5.98 0
      vertex -0 -5.98 0
    endloop
  endfacet
  facet normal 0 0 -1
    outer loop
      vertex -0.469185 -5.96157 0
      vertex -0.469185 5.96157 0
      vertex 0 5.98 0
    endloop
  endfacet
  facet normal 0 0 -1
    outer loop
      vertex -0.935478 -5.90638 0
      vertex -0.469185 5.96157 0
      vertex -0.469185 -5.96157 0
    endloop
  endfacet
  facet normal 0 0 -1
    outer loop
      vertex -0.935478 -5.90638 0
      vertex -0.935478 5.90638 0
      vertex -0.469185 5.96157 0
    endloop
  endfacet
  facet normal 0 0 -1
    outer loop
      vertex -1.396 -5.81477 0
      vertex -0.935478 5.90638 0
      vertex -0.935478 -5.90638 0
    endloop
  endfacet
  facet normal 0 0 -1
    outer loop
      vertex -1.396 -5.81477 0
      vertex -1.396 5.81477 0
      vertex -0.935478 5.90638 0
    endloop
  endfacet
  facet normal 0 0 -1
    outer loop
      vertex -1.84792 -5.68732 0
      vertex -1.396 5.81477 0
      vertex -1.396 -5.81477 0
    endloop
  endfacet
  facet normal 0 0 -1
    outer loop
      vertex -1.84792 -5.68732 0
      vertex -1.84792 5.68732 0
      vertex -1.396 5.81477 0
    endloop
  endfacet
  facet normal 0 0 -1
    outer loop
      vertex -2.28845 -5.5248 0
      vertex -1.84792 5.68732 0
      vertex -1.84792 -5.68732 0
    endloop
  endfacet
  facet normal 0 0 -1
    outer loop
      vertex -2.28845 -5.5248 0
      vertex -2.28845 5.5248 0
      vertex -1.84792 5.68732 0
    endloop
  endfacet
  facet normal 0 0 -1
    outer loop
      vertex -2.71486 -5.32822 0
      vertex -2.28845 5.5248 0
      vertex -2.28845 -5.5248 0
    endloop
  endfacet
  facet normal 0 0 -1
    outer loop
      vertex -2.71486 -5.32822 0
      vertex -2.71486 5.32822 0
      vertex -2.28845 5.5248 0
    endloop
  endfacet
  facet normal 0 0 -1
    outer loop
      vertex -3.12454 -5.09879 0
      vertex -2.71486 5.32822 0
      vertex -2.71486 -5.32822 0
    endloop
  endfacet
  facet normal 0 0 -1
    outer loop
      vertex -3.12454 -5.09879 0
      vertex -3.12454 5.09879 0
      vertex -2.71486 5.32822 0
    endloop
  endfacet
  facet normal 0 0 -1
    outer loop
      vertex -3.51496 -4.83792 0
      vertex -3.12454 5.09879 0
      vertex -3.12454 -5.09879 0
    endloop
  endfacet
  facet normal 0 0 -1
    outer loop
      vertex -3.51496 -4.83792 0
      vertex -3.51496 4.83792 0
      vertex -3.12454 5.09879 0
    endloop
  endfacet
  facet normal 0 0 -1
    outer loop
      vertex -3.8837 -4.54723 0
      vertex -3.51496 4.83792 0
      vertex -3.51496 -4.83792 0
    endloop
  endfacet
  facet normal 0 0 -1
    outer loop
      vertex -3.8837 -4.54723 0
      vertex -3.8837 4.54723 0
      vertex -3.51496 4.83792 0
    endloop
  endfacet
  facet normal 0 0 -1
    outer loop
      vertex -4.2285 -4.2285 0
      vertex -3.8837 4.54723 0
      vertex -3.8837 -4.54723 0
    endloop
  endfacet
  facet normal 0 0 -1
    outer loop
      vertex -4.2285 -4.2285 0
      vertex -4.2285 4.2285 0
      vertex -3.8837 4.54723 0
    endloop
  endfacet
  facet normal 0 0 -1
    outer loop
      vertex -4.54723 -3.8837 0
      vertex -4.2285 4.2285 0
      vertex -4.2285 -4.2285 0
    endloop
  endfacet
  facet normal 0 0 -1
    outer loop
      vertex -4.54723 -3.8837 0
      vertex -4.54723 3.8837 0
      vertex -4.2285 4.2285 0
    endloop
  endfacet
  facet normal 0 0 -1
    outer loop
      vertex -4.83792 -3.51496 0
      vertex -4.54723 3.8837 0
      vertex -4.54723 -3.8837 0
    endloop
  endfacet
  facet normal 0 0 -1
    outer loop
      vertex -4.83792 -3.51496 0
      vertex -4.83792 3.51496 0
      vertex -4.54723 3.8837 0
    endloop
  endfacet
  facet normal 0 0 -1
    outer loop
      vertex -5.09879 -3.12454 0
      vertex -4.83792 3.51496 0
      vertex -4.83792 -3.51496 0
    endloop
  endfacet
  facet normal 0 0 -1
    outer loop
      vertex -5.09879 -3.12454 0
      vertex -5.09879 3.12454 0
      vertex -4.83792 3.51496 0
    endloop
  endfacet
  facet normal 0 0 -1
    outer loop
      vertex -5.32822 -2.71486 0
      vertex -5.09879 3.12454 0
      vertex -5.09879 -3.12454 0
    endloop
  endfacet
  facet normal 0 0 -1
    outer loop
      vertex -5.32822 -2.71486 0
      vertex -5.32822 2.71486 0
      vertex -5.09879 3.12454 0
    endloop
  endfacet
  facet normal 0 0 -1
    outer loop
      vertex -5.5248 -2.28845 0
      vertex -5.32822 2.71486 0
      vertex -5.32822 -2.71486 0
    endloop
  endfacet
  facet normal 0 0 -1
    outer loop
      vertex -5.5248 -2.28845 0
      vertex -5.5248 2.28845 0
      vertex -5.32822 2.71486 0
    endloop
  endfacet
  facet normal 0 0 -1
    outer loop
      vertex -5.68732 -1.84792 0
      vertex -5.5248 2.28845 0
      vertex -5.5248 -2.28845 0
    endloop
  endfacet
  facet normal 0 0 -1
    outer loop
      vertex -5.68732 -1.84792 0
      vertex -5.68732 1.84792 0
      vertex -5.5248 2.28845 0
    endloop
  endfacet
  facet normal 0 0 -1
    outer loop
      vertex -5.81477 -1.396 0
      vertex -5.68732 1.84792 0
      vertex -5.68732 -1.84792 0
    endloop
  endfacet
  facet normal 0 0 -1
    outer loop
      vertex -5.81477 -1.396 0
      vertex -5.81477 1.396 0
      vertex -5.68732 1.84792 0
    endloop
  endfacet
  facet normal 0 0 -1
    outer loop
      vertex -5.90638 -0.935478 0
      vertex -5.81477 1.396 0
      vertex -5.81477 -1.396 0
    endloop
  endfacet
  facet normal 0 0 -1
    outer loop
      vertex -5.90638 -0.935478 0
      vertex -5.90638 0.935478 0
      vertex -5.81477 1.396 0
    endloop
  endfacet
  facet normal 0 0 -1
    outer loop
      vertex -5.96157 -0.469185 0
      vertex -5.90638 0.935478 0
      vertex -5.90638 -0.935478 0
    endloop
  endfacet
  facet normal 0 0 -1
    outer loop
      vertex -5.96157 -0.469185 0
      vertex -5.96157 0.469185 0
      vertex -5.90638 0.935478 0
    endloop
  endfacet
  facet normal 0 -0 -1
    outer loop
      vertex -5.96157 0.469185 0
      vertex -5.96157 -0.469185 0
      vertex -5.98 -0 0
    endloop
  endfacet
  facet normal 0 0 1
    outer loop
      vertex 5.96157 0.469185 1
      vertex 5.96157 -0.469185 1
      vertex 5.98 0 1
    endloop
  endfacet
  facet normal 0 0 1
    outer loop
      vertex 5.90638 0.935478 1
      vertex 5.96157 -0.469185 1
      vertex 5.96157 0.469185 1
    endloop
  endfacet
  facet normal 0 0 1
    outer loop
      vertex 5.90638 0.935478 1
      vertex 5.90638 -0.935478 1
      vertex 5.96157 -0.469185 1
    endloop
  endfacet
  facet normal 0 0 1
    outer loop
      vertex 5.81477 1.396 1
      vertex 5.90638 -0.935478 1
      vertex 5.90638 0.935478 1
    endloop
  endfacet
  facet normal 0 0 1
    outer loop
      vertex 5.81477 1.396 1
      vertex 5.81477 -1.396 1
      vertex 5.90638 -0.935478 1
    endloop
  endfacet
  facet normal 0 0 1
    outer loop
      vertex 5.68732 1.84792 1
      vertex 5.81477 -1.396 1
      vertex 5.81477 1.396 1
    endloop
  endfacet
  facet normal 0 0 1
    outer loop
      vertex 5.68732 1.84792 1
      vertex 5.68732 -1.84792 1
      vertex 5.81477 -1.396 1
    endloop
  endfacet
  facet normal 0 0 1
    outer loop
      vertex 5.5248 2.28845 1
      vertex 5.68732 -1.84792 1
      vertex 5.68732 1.84792 1
    endloop
  endfacet
  facet normal 0 0 1
    outer loop
      vertex 5.5248 2.28845 1
      vertex 5.5248 -2.28845 1
      vertex 5.68732 -1.84792 1
    endloop
  endfacet
  facet normal 0 0 1
    outer loop
      vertex 5.32822 2.71486 1
      vertex 5.5248 -2.28845 1
      vertex 5.5248 2.28845 1
    endloop
  endfacet
  facet normal 0 0 1
    outer loop
      vertex 5.32822 2.71486 1
      vertex 5.32822 -2.71486 1
      vertex 5.5248 -2.28845 1
    endloop
  endfacet
  facet normal 0 0 1
    outer loop
      vertex 5.09879 3.12454 1
      vertex 5.32822 -2.71486 1
      vertex 5.32822 2.71486 1
    endloop
  endfacet
  facet normal 0 0 1
    outer loop
      vertex 5.09879 3.12454 1
      vertex 5.09879 -3.12454 1
      vertex 5.32822 -2.71486 1
    endloop
  endfacet
  facet normal 0 0 1
    outer loop
      vertex 4.83792 3.51496 1
      vertex 5.09879 -3.12454 1
      vertex 5.09879 3.12454 1
    endloop
  endfacet
  facet normal 0 0 1
    outer loop
      vertex 4.83792 3.51496 1
      vertex 4.83792 -3.51496 1
      vertex 5.09879 -3.12454 1
    endloop
  endfacet
  facet normal 0 0 1
    outer loop
      vertex 4.54723 3.8837 1
      vertex 4.83792 -3.51496 1
      vertex 4.83792 3.51496 1
    endloop
  endfacet
  facet normal 0 0 1
    outer loop
      vertex 4.54723 3.8837 1
      vertex 4.54723 -3.8837 1
      vertex 4.83792 -3.51496 1
    endloop
  endfacet
  facet normal 0 0 1
    outer loop
      vertex 4.2285 4.2285 1
      vertex 4.54723 -3.8837 1
      vertex 4.54723 3.8837 1
    endloop
  endfacet
  facet normal 0 0 1
    outer loop
      vertex 4.2285 4.2285 1
      vertex 4.2285 -4.2285 1
      vertex 4.54723 -3.8837 1
    endloop
  endfacet
  facet normal 0 0 1
    outer loop
      vertex 3.8837 4.54723 1
      vertex 4.2285 -4.2285 1
      vertex 4.2285 4.2285 1
    endloop
  endfacet
  facet normal 0 0 1
    outer loop
      vertex 3.8837 4.54723 1
      vertex 3.8837 -4.54723 1
      vertex 4.2285 -4.2285 1
    endloop
  endfacet
  facet normal 0 0 1
    outer loop
      vertex 3.51496 4.83792 1
      vertex 3.8837 -4.54723 1
      vertex 3.8837 4.54723 1
    endloop
  endfacet
  facet normal 0 0 1
    outer loop
      vertex 3.51496 4.83792 1
      vertex 3.51496 -4.83792 1
      vertex 3.8837 -4.54723 1
    endloop
  endfacet
  facet normal 0 0 1
    outer loop
      vertex 3.12454 5.09879 1
      vertex 3.51496 -4.83792 1
      vertex 3.51496 4.83792 1
    endloop
  endfacet
  facet normal 0 0 1
    outer loop
      vertex 3.12454 5.09879 1
      vertex 3.12454 -5.09879 1
      vertex 3.51496 -4.83792 1
    endloop
  endfacet
  facet normal 0 0 1
    outer loop
      vertex 2.71486 5.32822 1
      vertex 3.12454 -5.09879 1
      vertex 3.12454 5.09879 1
    endloop
  endfacet
  facet normal 0 0 1
    outer loop
      vertex 2.71486 5.32822 1
      vertex 2.71486 -5.32822 1
      vertex 3.12454 -5.09879 1
    endloop
  endfacet
  facet normal 0 0 1
    outer loop
      vertex 2.28845 5.5248 1
      vertex 2.71486 -5.32822 1
      vertex 2.71486 5.32822 1
    endloop
  endfacet
  facet normal 0 0 1
    outer loop
      vertex 2.28845 5.5248 1
      vertex 2.28845 -5.5248 1
      vertex 2.71486 -5.32822 1
    endloop
  endfacet
  facet normal 0 0 1
    outer loop
      vertex 1.84792 5.68732 1
      vertex 2.28845 -5.5248 1
      vertex 2.28845 5.5248 1
    endloop
  endfacet
  facet normal 0 0 1
    outer loop
      vertex 1.84792 5.68732 1
      vertex 1.84792 -5.68732 1
      vertex 2.28845 -5.5248 1
    endloop
  endfacet
  facet normal 0 0 1
    outer loop
      vertex 1.396 5.81477 1
      vertex 1.84792 -5.68732 1
      vertex 1.84792 5.68732 1
    endloop
  endfacet
  facet normal 0 0 1
    outer loop
      vertex 1.396 5.81477 1
      vertex 1.396 -5.81477 1
      vertex 1.84792 -5.68732 1
    endloop
  endfacet
  facet normal 0 0 1
    outer loop
      vertex 0.935478 5.90638 1
      vertex 1.396 -5.81477 1
      vertex 1.396 5.81477 1
    endloop
  endfacet
  facet normal 0 0 1
    outer loop
      vertex 0.935478 5.90638 1
      vertex 0.935478 -5.90638 1
      vertex 1.396 -5.81477 1
    endloop
  endfacet
  facet normal 0 0 1
    outer loop
      vertex 0.469185 5.96157 1
      vertex 0.935478 -5.90638 1
      vertex 0.935478 5.90638 1
    endloop
  endfacet
  facet normal 0 0 1
    outer loop
      vertex 0.469185 5.96157 1
      vertex 0.469185 -5.96157 1
      vertex 0.935478 -5.90638 1
    endloop
  endfacet
  facet normal 0 0 1
    outer loop
      vertex 0 5.98 1
      vertex 0.469185 -5.96157 1
      vertex 0.469185 5.96157 1
    endloop
  endfacet
  facet normal 0 0 1
    outer loop
      vertex 0 5.98 1
      vertex -0 -5.98 1
      vertex 0.469185 -5.96157 1
    endloop
  endfacet
  facet normal -0 0 1
    outer loop
      vertex -0.469185 5.96157 1
      vertex -0 -5.98 1
      vertex 0 5.98 1
    endloop
  endfacet
  facet normal 0 0 1
    outer loop
      vertex -0.469185 5.96157 1
      vertex -0.469185 -5.96157 1
      vertex -0 -5.98 1
    endloop
  endfacet
  facet normal -0 0 1
    outer loop
      vertex -0.935478 5.90638 1
      vertex -0.469185 -5.96157 1
      vertex -0.469185 5.96157 1
    endloop
  endfacet
  facet normal 0 0 1
    outer loop
      vertex -0.935478 5.90638 1
      vertex -0.935478 -5.90638 1
      vertex -0.469185 -5.96157 1
    endloop
  endfacet
  facet normal -0 0 1
    outer loop
      vertex -1.396 5.81477 1
      vertex -0.935478 -5.90638 1
      vertex -0.935478 5.90638 1
    endloop
  endfacet
  facet normal 0 0 1
    outer loop
      vertex -1.396 5.81477 1
      vertex -1.396 -5.81477 1
      vertex -0.935478 -5.90638 1
    endloop
  endfacet
  facet normal -0 0 1
    outer loop
      vertex -1.84792 5.68732 1
      vertex -1.396 -5.81477 1
      vertex -1.396 5.81477 1
    endloop
  endfacet
  facet normal 0 0 1
    outer loop
      vertex -1.84792 5.68732 1
      vertex -1.84792 -5.68732 1
      vertex -1.396 -5.81477 1
    endloop
  endfacet
  facet normal -0 0 1
    outer loop
      vertex -2.28845 5.5248 1
      vertex -1.84792 -5.68732 1
      vertex -1.84792 5.68732 1
    endloop
  endfacet
  facet normal 0 0 1
    outer loop
      vertex -2.28845 5.5248 1
      vertex -2.28845 -5.5248 1
      vertex -1.84792 -5.68732 1
    endloop
  endfacet
  facet normal -0 0 1
    outer loop
      vertex -2.71486 5.32822 1
      vertex -2.28845 -5.5248 1
      vertex -2.28845 5.5248 1
    endloop
  endfacet
  facet normal 0 0 1
    outer loop
      vertex -2.71486 5.32822 1
      vertex -2.71486 -5.32822 1
      vertex -2.28845 -5.5248 1
    endloop
  endfacet
  facet normal -0 0 1
    outer loop
      vertex -3.12454 5.09879 1
      vertex -2.71486 -5.32822 1
      vertex -2.71486 5.32822 1
    endloop
  endfacet
  facet normal 0 0 1
    outer loop
      vertex -3.12454 5.09879 1
      vertex -3.12454 -5.09879 1
      vertex -2.71486 -5.32822 1
    endloop
  endfacet
  facet normal -0 0 1
    outer loop
      vertex -3.51496 4.83792 1
      vertex -3.12454 -5.09879 1
      vertex -3.12454 5.09879 1
    endloop
  endfacet
  facet normal 0 0 1
    outer loop
      vertex -3.51496 4.83792 1
      vertex -3.51496 -4.83792 1
      vertex -3.12454 -5.09879 1
    endloop
  endfacet
  facet normal -0 0 1
    outer loop
      vertex -3.8837 4.54723 1
      vertex -3.51496 -4.83792 1
      vertex -3.51496 4.83792 1
    endloop
  endfacet
  facet normal 0 0 1
    outer loop
      vertex -3.8837 4.54723 1
      vertex -3.8837 -4.54723 1
      vertex -3.51496 -4.83792 1
    endloop
  endfacet
  facet normal -0 0 1
    outer loop
      vertex -4.2285 4.2285 1
      vertex -3.8837 -4.54723 1
      vertex -3.8837 4.54723 1
    endloop
  endfacet
  facet normal 0 0 1
    outer loop
      vertex -4.2285 4.2285 1
      vertex -4.2285 -4.2285 1
      vertex -3.8837 -4.54723 1
    endloop
  endfacet
  facet normal -0 0 1
    outer loop
      vertex -4.54723 3.8837 1
      vertex -4.2285 -4.2285 1
      vertex -4.2285 4.2285 1
    endloop
  endfacet
  facet normal 0 0 1
    outer loop
      vertex -4.54723 3.8837 1
      vertex -4.54723 -3.8837 1
      vertex -4.2285 -4.2285 1
    endloop
  endfacet
  facet normal -0 0 1
    outer loop
      vertex -4.83792 3.51496 1
      vertex -4.54723 -3.8837 1
      vertex -4.54723 3.8837 1
    endloop
  endfacet
  facet normal 0 0 1
    outer loop
      vertex -4.83792 3.51496 1
      vertex -4.83792 -3.51496 1
      vertex -4.54723 -3.8837 1
    endloop
  endfacet
  facet normal -0 0 1
    outer loop
      vertex -5.09879 3.12454 1
      vertex -4.83792 -3.51496 1
      vertex -4.83792 3.51496 1
    endloop
  endfacet
  facet normal 0 0 1
    outer loop
      vertex -5.09879 3.12454 1
      vertex -5.09879 -3.12454 1
      vertex -4.83792 -3.51496 1
    endloop
  endfacet
  facet normal -0 0 1
    outer loop
      vertex -5.32822 2.71486 1
      vertex -5.09879 -3.12454 1
      vertex -5.09879 3.12454 1
    endloop
  endfacet
  facet normal 0 0 1
    outer loop
      vertex -5.32822 2.71486 1
      vertex -5.32822 -2.71486 1
      vertex -5.09879 -3.12454 1
    endloop
  endfacet
  facet normal -0 0 1
    outer loop
      vertex -5.5248 2.28845 1
      vertex -5.32822 -2.71486 1
      vertex -5.32822 2.71486 1
    endloop
  endfacet
  facet normal 0 0 1
    outer loop
      vertex -5.5248 2.28845 1
      vertex -5.5248 -2.28845 1
      vertex -5.32822 -2.71486 1
    endloop
  endfacet
  facet normal -0 0 1
    outer loop
      vertex -5.68732 1.84792 1
      vertex -5.5248 -2.28845 1
      vertex -5.5248 2.28845 1
    endloop
  endfacet
  facet normal 0 0 1
    outer loop
      vertex -5.68732 1.84792 1
      vertex -5.68732 -1.84792 1
      vertex -5.5248 -2.28845 1
    endloop
  endfacet
  facet normal -0 0 1
    outer loop
      vertex -5.81477 1.396 1
      vertex -5.68732 -1.84792 1
      vertex -5.68732 1.84792 1
    endloop
  endfacet
  facet normal 0 0 1
    outer loop
      vertex -5.81477 1.396 1
      vertex -5.81477 -1.396 1
      vertex -5.68732 -1.84792 1
    endloop
  endfacet
  facet normal -0 0 1
    outer loop
      vertex -5.90638 0.935478 1
      vertex -5.81477 -1.396 1
      vertex -5.81477 1.396 1
    endloop
  endfacet
  facet normal 0 0 1
    outer loop
      vertex -5.90638 0.935478 1
      vertex -5.90638 -0.935478 1
      vertex -5.81477 -1.396 1
    endloop
  endfacet
  facet normal -0 0 1
    outer loop
      vertex -5.96157 0.469185 1
      vertex -5.90638 -0.935478 1
      vertex -5.90638 0.935478 1
    endloop
  endfacet
  facet normal 0 0 1
    outer loop
      vertex -5.96157 0.469185 1
      vertex -5.96157 -0.469185 1
      vertex -5.90638 -0.935478 1
    endloop
  endfacet
  facet normal 0 -0 1
    outer loop
      vertex -5.96157 -0.469185 1
      vertex -5.96157 0.469185 1
      vertex -5.98 -0 1
    endloop
  endfacet
endsolid OpenSCAD_Model
