%TF.GenerationSoftware,KiCad,Pcbnew,8.0.6-8.0.6-0~ubuntu22.04.1*%
%TF.CreationDate,2024-11-14T20:16:39+01:00*%
%TF.ProjectId,VCO_RPIpico,56434f5f-5250-4497-9069-636f2e6b6963,0*%
%TF.SameCoordinates,Original*%
%TF.FileFunction,Paste,Bot*%
%TF.FilePolarity,Positive*%
%FSLAX46Y46*%
G04 Gerber Fmt 4.6, Leading zero omitted, Abs format (unit mm)*
G04 Created by KiCad (PCBNEW 8.0.6-8.0.6-0~ubuntu22.04.1) date 2024-11-14 20:16:39*
%MOMM*%
%LPD*%
G01*
G04 APERTURE LIST*
G04 Aperture macros list*
%AMRoundRect*
0 Rectangle with rounded corners*
0 $1 Rounding radius*
0 $2 $3 $4 $5 $6 $7 $8 $9 X,Y pos of 4 corners*
0 Add a 4 corners polygon primitive as box body*
4,1,4,$2,$3,$4,$5,$6,$7,$8,$9,$2,$3,0*
0 Add four circle primitives for the rounded corners*
1,1,$1+$1,$2,$3*
1,1,$1+$1,$4,$5*
1,1,$1+$1,$6,$7*
1,1,$1+$1,$8,$9*
0 Add four rect primitives between the rounded corners*
20,1,$1+$1,$2,$3,$4,$5,0*
20,1,$1+$1,$4,$5,$6,$7,0*
20,1,$1+$1,$6,$7,$8,$9,0*
20,1,$1+$1,$8,$9,$2,$3,0*%
%AMOutline4P*
0 Free polygon, 4 corners , with rotation*
0 The origin of the aperture is its center*
0 number of corners: always 4*
0 $1 to $8 corner X, Y*
0 $9 Rotation angle, in degrees counterclockwise*
0 create outline with 4 corners*
4,1,4,$1,$2,$3,$4,$5,$6,$7,$8,$1,$2,$9*%
G04 Aperture macros list end*
%ADD10RoundRect,0.250000X1.500000X0.550000X-1.500000X0.550000X-1.500000X-0.550000X1.500000X-0.550000X0*%
%ADD11RoundRect,0.250000X0.312500X0.625000X-0.312500X0.625000X-0.312500X-0.625000X0.312500X-0.625000X0*%
%ADD12RoundRect,0.250000X0.650000X-0.325000X0.650000X0.325000X-0.650000X0.325000X-0.650000X-0.325000X0*%
%ADD13RoundRect,0.250000X-0.625000X0.312500X-0.625000X-0.312500X0.625000X-0.312500X0.625000X0.312500X0*%
%ADD14RoundRect,0.250000X-0.312500X-0.625000X0.312500X-0.625000X0.312500X0.625000X-0.312500X0.625000X0*%
%ADD15RoundRect,0.250000X0.550000X-1.050000X0.550000X1.050000X-0.550000X1.050000X-0.550000X-1.050000X0*%
%ADD16RoundRect,0.250000X0.337500X0.475000X-0.337500X0.475000X-0.337500X-0.475000X0.337500X-0.475000X0*%
%ADD17RoundRect,0.250000X0.475000X-0.337500X0.475000X0.337500X-0.475000X0.337500X-0.475000X-0.337500X0*%
%ADD18RoundRect,0.250000X0.550000X-1.500000X0.550000X1.500000X-0.550000X1.500000X-0.550000X-1.500000X0*%
%ADD19RoundRect,0.250000X0.625000X-0.312500X0.625000X0.312500X-0.625000X0.312500X-0.625000X-0.312500X0*%
%ADD20RoundRect,0.250000X-1.050000X-0.550000X1.050000X-0.550000X1.050000X0.550000X-1.050000X0.550000X0*%
%ADD21RoundRect,0.250000X-0.325000X-0.650000X0.325000X-0.650000X0.325000X0.650000X-0.325000X0.650000X0*%
%ADD22RoundRect,0.250000X-0.337500X-0.475000X0.337500X-0.475000X0.337500X0.475000X-0.337500X0.475000X0*%
%ADD23RoundRect,0.250000X0.400000X0.275000X-0.400000X0.275000X-0.400000X-0.275000X0.400000X-0.275000X0*%
%ADD24RoundRect,0.250000X-0.650000X0.325000X-0.650000X-0.325000X0.650000X-0.325000X0.650000X0.325000X0*%
%ADD25RoundRect,0.250000X-0.475000X0.337500X-0.475000X-0.337500X0.475000X-0.337500X0.475000X0.337500X0*%
%ADD26Outline4P,-1.800000X-1.150000X1.800000X-0.550000X1.800000X0.550000X-1.800000X1.150000X180.000000*%
%ADD27Outline4P,-1.800000X-1.150000X1.800000X-0.550000X1.800000X0.550000X-1.800000X1.150000X0.000000*%
%ADD28RoundRect,0.250000X-0.400000X-0.275000X0.400000X-0.275000X0.400000X0.275000X-0.400000X0.275000X0*%
%ADD29RoundRect,0.250000X-0.850000X-0.350000X0.850000X-0.350000X0.850000X0.350000X-0.850000X0.350000X0*%
%ADD30RoundRect,0.250000X-1.275000X-1.125000X1.275000X-1.125000X1.275000X1.125000X-1.275000X1.125000X0*%
G04 APERTURE END LIST*
D10*
%TO.C,C9*%
X139812000Y-77321000D03*
X134212000Y-77321000D03*
%TD*%
D11*
%TO.C,R2*%
X148061000Y-88751000D03*
X145136000Y-88751000D03*
%TD*%
D12*
%TO.C,C6*%
X53700000Y-77399000D03*
X53700000Y-74449000D03*
%TD*%
D13*
%TO.C,R27*%
X170794000Y-79095000D03*
X170794000Y-82020000D03*
%TD*%
D14*
%TO.C,R19*%
X136184500Y-70336000D03*
X139109500Y-70336000D03*
%TD*%
D15*
%TO.C,C23*%
X170794000Y-75946000D03*
X170794000Y-72346000D03*
%TD*%
D11*
%TO.C,R22*%
X165337000Y-84560000D03*
X162412000Y-84560000D03*
%TD*%
D16*
%TO.C,C12*%
X164973500Y-87100000D03*
X162898500Y-87100000D03*
%TD*%
D11*
%TO.C,R7*%
X112582500Y-82756000D03*
X109657500Y-82756000D03*
%TD*%
D17*
%TO.C,C22*%
X155046000Y-67309500D03*
X155046000Y-65234500D03*
%TD*%
D12*
%TO.C,C5*%
X58526000Y-56620000D03*
X58526000Y-53670000D03*
%TD*%
D11*
%TO.C,R21*%
X160064500Y-82020000D03*
X157139500Y-82020000D03*
%TD*%
D18*
%TO.C,C1*%
X139314000Y-57754000D03*
X139314000Y-52354000D03*
%TD*%
D19*
%TO.C,R29*%
X157856000Y-71072000D03*
X157856000Y-68147000D03*
%TD*%
D13*
%TO.C,R16*%
X166222000Y-107035000D03*
X166222000Y-109960000D03*
%TD*%
%TO.C,R4*%
X93070000Y-83605500D03*
X93070000Y-86530500D03*
%TD*%
D20*
%TO.C,C21*%
X163152000Y-80496000D03*
X166752000Y-80496000D03*
%TD*%
D11*
%TO.C,R12*%
X124774500Y-82756000D03*
X121849500Y-82756000D03*
%TD*%
D21*
%TO.C,C7*%
X145189000Y-86338000D03*
X148139000Y-86338000D03*
%TD*%
D10*
%TO.C,C8*%
X129425000Y-77321000D03*
X124025000Y-77321000D03*
%TD*%
D19*
%TO.C,R17*%
X149839000Y-94466000D03*
X149839000Y-91541000D03*
%TD*%
%TO.C,R11*%
X130408000Y-109837000D03*
X130408000Y-106912000D03*
%TD*%
D13*
%TO.C,R5*%
X57002000Y-83605500D03*
X57002000Y-86530500D03*
%TD*%
D17*
%TO.C,C11*%
X155046000Y-82782000D03*
X155046000Y-80707000D03*
%TD*%
D19*
%TO.C,R9*%
X58272000Y-110214000D03*
X58272000Y-107289000D03*
%TD*%
D22*
%TO.C,C16*%
X162644500Y-74400000D03*
X164719500Y-74400000D03*
%TD*%
D11*
%TO.C,R8*%
X118662500Y-82756000D03*
X115737500Y-82756000D03*
%TD*%
D23*
%TO.C,C17*%
X163911000Y-89360000D03*
X161961000Y-89360000D03*
%TD*%
D14*
%TO.C,R25*%
X157139500Y-76940000D03*
X160064500Y-76940000D03*
%TD*%
D12*
%TO.C,C2*%
X96118000Y-86543000D03*
X96118000Y-83593000D03*
%TD*%
D16*
%TO.C,C15*%
X141351500Y-65256000D03*
X139276500Y-65256000D03*
%TD*%
D19*
%TO.C,R3*%
X130916000Y-91041000D03*
X130916000Y-88116000D03*
%TD*%
D14*
%TO.C,R28*%
X93832000Y-59668000D03*
X96757000Y-59668000D03*
%TD*%
D11*
%TO.C,R24*%
X160064500Y-79480000D03*
X157139500Y-79480000D03*
%TD*%
D24*
%TO.C,C4*%
X60304000Y-74449000D03*
X60304000Y-77399000D03*
%TD*%
D19*
%TO.C,R6*%
X57002000Y-77386500D03*
X57002000Y-74461500D03*
%TD*%
D11*
%TO.C,R20*%
X160064500Y-84560000D03*
X157139500Y-84560000D03*
%TD*%
D12*
%TO.C,C3*%
X60304000Y-86543000D03*
X60304000Y-83593000D03*
%TD*%
D19*
%TO.C,R10*%
X94340000Y-109960000D03*
X94340000Y-107035000D03*
%TD*%
D25*
%TO.C,C10*%
X110104000Y-52471000D03*
X110104000Y-54546000D03*
%TD*%
D17*
%TO.C,C20*%
X155046000Y-77469500D03*
X155046000Y-75394500D03*
%TD*%
D14*
%TO.C,R26*%
X157139500Y-74400000D03*
X160064500Y-74400000D03*
%TD*%
D26*
%TO.C,D20*%
X120116000Y-66484000D03*
D27*
X114316000Y-66484000D03*
%TD*%
D13*
%TO.C,R1*%
X102849000Y-68681000D03*
X102849000Y-71606000D03*
%TD*%
D19*
%TO.C,R23*%
X173588000Y-82020000D03*
X173588000Y-79095000D03*
%TD*%
%TO.C,R18*%
X167238000Y-93581000D03*
X167238000Y-90656000D03*
%TD*%
D22*
%TO.C,C19*%
X162644500Y-76686000D03*
X164719500Y-76686000D03*
%TD*%
D16*
%TO.C,C14*%
X141351500Y-67796000D03*
X139276500Y-67796000D03*
%TD*%
D25*
%TO.C,C13*%
X155046000Y-70336000D03*
X155046000Y-72411000D03*
%TD*%
D28*
%TO.C,C18*%
X168041000Y-84560000D03*
X169991000Y-84560000D03*
%TD*%
D29*
%TO.C,U3*%
X125224000Y-57041500D03*
X125224000Y-54761500D03*
D30*
X129849000Y-53236500D03*
X129849000Y-56286500D03*
X133199000Y-53236500D03*
X133199000Y-56286500D03*
D29*
X125224000Y-52481500D03*
%TD*%
M02*
