%TF.GenerationSoftware,KiCad,Pcbnew,8.0.5*%
%TF.CreationDate,2024-11-14T16:27:45+01:00*%
%TF.ProjectId,VCO_RPIpico,56434f5f-5250-4497-9069-636f2e6b6963,0*%
%TF.SameCoordinates,Original*%
%TF.FileFunction,Profile,NP*%
%FSLAX46Y46*%
G04 Gerber Fmt 4.6, Leading zero omitted, Abs format (unit mm)*
G04 Created by KiCad (PCBNEW 8.0.5) date 2024-11-14 16:27:45*
%MOMM*%
%LPD*%
G01*
G04 APERTURE LIST*
%TA.AperFunction,Profile*%
%ADD10C,0.100000*%
%TD*%
G04 APERTURE END LIST*
D10*
X179000000Y-51000000D02*
G75*
G02*
X175000000Y-51000000I-2000000J0D01*
G01*
X175000000Y-51000000D02*
G75*
G02*
X179000000Y-51000000I2000000J0D01*
G01*
X47000000Y-51000000D02*
G75*
G02*
X43000000Y-51000000I-2000000J0D01*
G01*
X43000000Y-51000000D02*
G75*
G02*
X47000000Y-51000000I2000000J0D01*
G01*
X149000000Y-124000000D02*
G75*
G02*
X145000000Y-124000000I-2000000J0D01*
G01*
X145000000Y-124000000D02*
G75*
G02*
X149000000Y-124000000I2000000J0D01*
G01*
X179000000Y-124000000D02*
G75*
G02*
X175000000Y-124000000I-2000000J0D01*
G01*
X175000000Y-124000000D02*
G75*
G02*
X179000000Y-124000000I2000000J0D01*
G01*
X113000000Y-124000000D02*
G75*
G02*
X109000000Y-124000000I-2000000J0D01*
G01*
X109000000Y-124000000D02*
G75*
G02*
X113000000Y-124000000I2000000J0D01*
G01*
X42000000Y-48000000D02*
X180000000Y-48000000D01*
X180000000Y-131000000D01*
X42000000Y-131000000D01*
X42000000Y-48000000D01*
X77000000Y-124000000D02*
G75*
G02*
X73000000Y-124000000I-2000000J0D01*
G01*
X73000000Y-124000000D02*
G75*
G02*
X77000000Y-124000000I2000000J0D01*
G01*
X47000000Y-104000000D02*
G75*
G02*
X43000000Y-104000000I-2000000J0D01*
G01*
X43000000Y-104000000D02*
G75*
G02*
X47000000Y-104000000I2000000J0D01*
G01*
X179000000Y-104000000D02*
G75*
G02*
X175000000Y-104000000I-2000000J0D01*
G01*
X175000000Y-104000000D02*
G75*
G02*
X179000000Y-104000000I2000000J0D01*
G01*
X47000000Y-124000000D02*
G75*
G02*
X43000000Y-124000000I-2000000J0D01*
G01*
X43000000Y-124000000D02*
G75*
G02*
X47000000Y-124000000I2000000J0D01*
G01*
M02*
