M48
; DRILL file {KiCad 8.0.6-8.0.6-0~ubuntu22.04.1} date 2024-11-14T20:27:19+0100
; FORMAT={-:-/ absolute / inch / decimal}
; #@! TF.CreationDate,2024-11-14T20:27:19+01:00
; #@! TF.GenerationSoftware,Kicad,Pcbnew,8.0.6-8.0.6-0~ubuntu22.04.1
; #@! TF.FileFunction,Plated,1,2,PTH
FMAT,2
INCH
; #@! TA.AperFunction,Plated,PTH,ViaDrill
T1C0.0157
; #@! TA.AperFunction,Plated,PTH,ComponentDrill
T2C0.0315
; #@! TA.AperFunction,Plated,PTH,ComponentDrill
T3C0.0354
; #@! TA.AperFunction,Plated,PTH,ComponentDrill
T4C0.0394
; #@! TA.AperFunction,Plated,PTH,ComponentDrill
T5C0.0402
; #@! TA.AperFunction,Plated,PTH,ComponentDrill
T6C0.0433
; #@! TA.AperFunction,Plated,PTH,ComponentDrill
T7C0.0591
; #@! TA.AperFunction,Plated,PTH,ComponentDrill
T8C0.0709
%
G90
G05
T1
X2.6242Y-4.3091
X2.8742Y-4.3091
X2.9242Y-4.3591
X3.5642Y-4.2091
X3.6614Y-2.4519
X3.9042Y-2.3491
X4.2042Y-2.7041
X5.1542Y-3.6481
X5.7692Y-3.5491
X6.3442Y-3.4041
X6.6492Y-3.2191
X6.6942Y-3.3841
T2
X5.6896Y-2.5691
X5.6896Y-2.6691
X5.6896Y-2.7691
X5.6896Y-2.8691
X5.6896Y-2.9691
X5.6896Y-3.0691
X5.6896Y-3.1691
X5.6896Y-3.2691
X5.9896Y-2.5691
X5.9896Y-2.6691
X5.9896Y-2.7691
X5.9896Y-2.8691
X5.9896Y-2.9691
X5.9896Y-3.0691
X5.9896Y-3.1691
X5.9896Y-3.2691
T3
X2.194Y-4.4491
X2.294Y-4.4491
X3.614Y-4.4491
X3.714Y-4.4491
X4.4344Y-3.4252
X4.5344Y-3.4252
X4.6744Y-3.4252
X4.7744Y-3.4252
X4.9144Y-3.4252
X5.0144Y-3.4252
X5.029Y-4.4491
X5.129Y-4.4491
X5.2644Y-3.4252
X5.3644Y-3.4252
X5.5044Y-3.4252
X5.6044Y-3.4252
X6.0942Y-3.4252
X6.1942Y-3.4252
X6.444Y-4.4491
X6.544Y-4.4491
X6.8042Y-3.4252
X6.9042Y-3.4252
T4
X2.0241Y-4.8323
X2.0449Y-4.7323
X2.0449Y-5.0323
X2.1457Y-2.813
X2.1457Y-3.9941
X2.2441Y-2.813
X2.2441Y-3.9941
X2.3425Y-2.813
X2.3425Y-3.9941
X2.4449Y-4.7323
X2.4449Y-5.0323
X2.4641Y-4.9323
X3.4414Y-4.8323
X3.4622Y-4.7323
X3.4622Y-5.0323
X3.563Y-2.813
X3.563Y-3.9941
X3.6614Y-2.813
X3.6614Y-3.9941
X3.7598Y-2.813
X3.7598Y-3.9941
X3.8622Y-4.7323
X3.8622Y-5.0323
X3.8814Y-4.9323
X4.8587Y-4.8323
X4.8795Y-4.7323
X4.8795Y-5.0323
X4.9803Y-2.813
X5.0787Y-2.813
X5.1772Y-2.813
X5.2795Y-4.7323
X5.2795Y-5.0323
X5.2987Y-4.9323
X6.2761Y-4.8323
X6.2969Y-4.7323
X6.2969Y-5.0323
X6.3976Y-2.813
X6.4961Y-2.813
X6.5945Y-2.813
X6.6969Y-4.7323
X6.6969Y-5.0323
X6.7161Y-4.9323
T5
X2.6042Y-2.1391
X2.6042Y-2.2391
X2.6042Y-2.3391
X2.6042Y-2.4391
X2.6042Y-2.5391
X2.6042Y-2.6391
X2.6042Y-2.7391
X2.6042Y-2.8391
X2.6042Y-2.9391
X2.6042Y-3.0391
X2.6042Y-3.1391
X2.6042Y-3.2391
X2.6042Y-3.3391
X2.6042Y-3.4391
X2.6042Y-3.5391
X2.6042Y-3.6391
X2.6042Y-3.7391
X2.6042Y-3.8391
X2.6042Y-3.9391
X2.6042Y-4.0391
X2.8542Y-4.0301
X2.9542Y-4.0301
X3.0542Y-4.0301
X3.3042Y-2.1391
X3.3042Y-2.2391
X3.3042Y-2.3391
X3.3042Y-2.4391
X3.3042Y-2.5391
X3.3042Y-2.6391
X3.3042Y-2.7391
X3.3042Y-2.8391
X3.3042Y-2.9391
X3.3042Y-3.0391
X3.3042Y-3.1391
X3.3042Y-3.2391
X3.3042Y-3.3391
X3.3042Y-3.4391
X3.3042Y-3.5391
X3.3042Y-3.6391
X3.3042Y-3.7391
X3.3042Y-3.8391
X3.3042Y-3.9391
X3.3042Y-4.0391
T6
X2.1161Y-4.7933
X2.1161Y-4.9705
X2.372Y-4.7933
X2.372Y-4.9705
X3.5335Y-4.7933
X3.5335Y-4.9705
X3.7894Y-4.7933
X3.7894Y-4.9705
X4.5965Y-3.6122
X4.5965Y-3.7894
X4.8524Y-3.6122
X4.8524Y-3.7894
X4.9508Y-4.7933
X4.9508Y-4.9705
X5.2067Y-4.7933
X5.2067Y-4.9705
X5.3051Y-3.6122
X5.3051Y-3.7894
X5.561Y-3.6122
X5.561Y-3.7894
X6.0138Y-3.6122
X6.0138Y-3.7894
X6.2697Y-3.6122
X6.2697Y-3.7894
X6.3681Y-4.7933
X6.3681Y-4.9705
X6.624Y-4.7933
X6.624Y-4.9705
X6.7224Y-3.6122
X6.7224Y-3.7894
X6.9783Y-3.6122
X6.9783Y-3.7894
T7
X5.7753Y-2.1361
X5.795Y-2.4235
X5.9564Y-1.9825
X6.0548Y-2.2502
X6.1611Y-2.2975
T4
G00X4.4258Y-2.3866
M15
G01X4.4258Y-2.3
M16
G05
G00X4.6581Y-2.2094
M15
G01X4.5715Y-2.2094
M16
G05
G00X4.666Y-2.4575
M15
G01X4.5636Y-2.4575
M16
G05
T8
G00X2.0709Y-2.5433
M15
G01X2.0709Y-2.5315
M16
G05
G00X2.0709Y-3.7244
M15
G01X2.0709Y-3.7126
M16
G05
G00X2.4173Y-2.5433
M15
G01X2.4173Y-2.5315
M16
G05
G00X2.4173Y-3.7244
M15
G01X2.4173Y-3.7126
M16
G05
G00X3.4882Y-2.5433
M15
G01X3.4882Y-2.5315
M16
G05
G00X3.4882Y-3.7244
M15
G01X3.4882Y-3.7126
M16
G05
G00X3.8346Y-2.5433
M15
G01X3.8346Y-2.5315
M16
G05
G00X3.8346Y-3.7244
M15
G01X3.8346Y-3.7126
M16
G05
G00X4.9055Y-2.5433
M15
G01X4.9055Y-2.5315
M16
G05
G00X5.252Y-2.5433
M15
G01X5.252Y-2.5315
M16
G05
G00X6.3228Y-2.5433
M15
G01X6.3228Y-2.5315
M16
G05
G00X6.6693Y-2.5433
M15
G01X6.6693Y-2.5315
M16
G05
M30
