%TF.GenerationSoftware,KiCad,Pcbnew,8.0.5*%
%TF.CreationDate,2024-11-14T15:35:09+01:00*%
%TF.ProjectId,VCO_RPIpico,56434f5f-5250-4497-9069-636f2e6b6963,0*%
%TF.SameCoordinates,Original*%
%TF.FileFunction,Legend,Top*%
%TF.FilePolarity,Positive*%
%FSLAX46Y46*%
G04 Gerber Fmt 4.6, Leading zero omitted, Abs format (unit mm)*
G04 Created by KiCad (PCBNEW 8.0.5) date 2024-11-14 15:35:09*
%MOMM*%
%LPD*%
G01*
G04 APERTURE LIST*
%ADD10C,0.150000*%
%ADD11C,0.120000*%
G04 APERTURE END LIST*
D10*
X161827922Y-56717819D02*
X162161255Y-57717819D01*
X162161255Y-57717819D02*
X162494588Y-56717819D01*
X162970779Y-57717819D02*
X162875541Y-57670200D01*
X162875541Y-57670200D02*
X162827922Y-57622580D01*
X162827922Y-57622580D02*
X162780303Y-57527342D01*
X162780303Y-57527342D02*
X162780303Y-57241628D01*
X162780303Y-57241628D02*
X162827922Y-57146390D01*
X162827922Y-57146390D02*
X162875541Y-57098771D01*
X162875541Y-57098771D02*
X162970779Y-57051152D01*
X162970779Y-57051152D02*
X163113636Y-57051152D01*
X163113636Y-57051152D02*
X163208874Y-57098771D01*
X163208874Y-57098771D02*
X163256493Y-57146390D01*
X163256493Y-57146390D02*
X163304112Y-57241628D01*
X163304112Y-57241628D02*
X163304112Y-57527342D01*
X163304112Y-57527342D02*
X163256493Y-57622580D01*
X163256493Y-57622580D02*
X163208874Y-57670200D01*
X163208874Y-57670200D02*
X163113636Y-57717819D01*
X163113636Y-57717819D02*
X162970779Y-57717819D01*
X163875541Y-57717819D02*
X163780303Y-57670200D01*
X163780303Y-57670200D02*
X163732684Y-57574961D01*
X163732684Y-57574961D02*
X163732684Y-56717819D01*
X164685065Y-57051152D02*
X164685065Y-57717819D01*
X164256494Y-57051152D02*
X164256494Y-57574961D01*
X164256494Y-57574961D02*
X164304113Y-57670200D01*
X164304113Y-57670200D02*
X164399351Y-57717819D01*
X164399351Y-57717819D02*
X164542208Y-57717819D01*
X164542208Y-57717819D02*
X164637446Y-57670200D01*
X164637446Y-57670200D02*
X164685065Y-57622580D01*
X165161256Y-57717819D02*
X165161256Y-57051152D01*
X165161256Y-57146390D02*
X165208875Y-57098771D01*
X165208875Y-57098771D02*
X165304113Y-57051152D01*
X165304113Y-57051152D02*
X165446970Y-57051152D01*
X165446970Y-57051152D02*
X165542208Y-57098771D01*
X165542208Y-57098771D02*
X165589827Y-57194009D01*
X165589827Y-57194009D02*
X165589827Y-57717819D01*
X165589827Y-57194009D02*
X165637446Y-57098771D01*
X165637446Y-57098771D02*
X165732684Y-57051152D01*
X165732684Y-57051152D02*
X165875541Y-57051152D01*
X165875541Y-57051152D02*
X165970780Y-57098771D01*
X165970780Y-57098771D02*
X166018399Y-57194009D01*
X166018399Y-57194009D02*
X166018399Y-57717819D01*
X166875541Y-57670200D02*
X166780303Y-57717819D01*
X166780303Y-57717819D02*
X166589827Y-57717819D01*
X166589827Y-57717819D02*
X166494589Y-57670200D01*
X166494589Y-57670200D02*
X166446970Y-57574961D01*
X166446970Y-57574961D02*
X166446970Y-57194009D01*
X166446970Y-57194009D02*
X166494589Y-57098771D01*
X166494589Y-57098771D02*
X166589827Y-57051152D01*
X166589827Y-57051152D02*
X166780303Y-57051152D01*
X166780303Y-57051152D02*
X166875541Y-57098771D01*
X166875541Y-57098771D02*
X166923160Y-57194009D01*
X166923160Y-57194009D02*
X166923160Y-57289247D01*
X166923160Y-57289247D02*
X166446970Y-57384485D01*
X125648779Y-57463819D02*
X125648779Y-56463819D01*
X125648779Y-56463819D02*
X125886874Y-56463819D01*
X125886874Y-56463819D02*
X126029731Y-56511438D01*
X126029731Y-56511438D02*
X126124969Y-56606676D01*
X126124969Y-56606676D02*
X126172588Y-56701914D01*
X126172588Y-56701914D02*
X126220207Y-56892390D01*
X126220207Y-56892390D02*
X126220207Y-57035247D01*
X126220207Y-57035247D02*
X126172588Y-57225723D01*
X126172588Y-57225723D02*
X126124969Y-57320961D01*
X126124969Y-57320961D02*
X126029731Y-57416200D01*
X126029731Y-57416200D02*
X125886874Y-57463819D01*
X125886874Y-57463819D02*
X125648779Y-57463819D01*
X127029731Y-57416200D02*
X126934493Y-57463819D01*
X126934493Y-57463819D02*
X126744017Y-57463819D01*
X126744017Y-57463819D02*
X126648779Y-57416200D01*
X126648779Y-57416200D02*
X126601160Y-57320961D01*
X126601160Y-57320961D02*
X126601160Y-56940009D01*
X126601160Y-56940009D02*
X126648779Y-56844771D01*
X126648779Y-56844771D02*
X126744017Y-56797152D01*
X126744017Y-56797152D02*
X126934493Y-56797152D01*
X126934493Y-56797152D02*
X127029731Y-56844771D01*
X127029731Y-56844771D02*
X127077350Y-56940009D01*
X127077350Y-56940009D02*
X127077350Y-57035247D01*
X127077350Y-57035247D02*
X126601160Y-57130485D01*
X127648779Y-57463819D02*
X127553541Y-57416200D01*
X127553541Y-57416200D02*
X127505922Y-57320961D01*
X127505922Y-57320961D02*
X127505922Y-56463819D01*
X128458303Y-57463819D02*
X128458303Y-56940009D01*
X128458303Y-56940009D02*
X128410684Y-56844771D01*
X128410684Y-56844771D02*
X128315446Y-56797152D01*
X128315446Y-56797152D02*
X128124970Y-56797152D01*
X128124970Y-56797152D02*
X128029732Y-56844771D01*
X128458303Y-57416200D02*
X128363065Y-57463819D01*
X128363065Y-57463819D02*
X128124970Y-57463819D01*
X128124970Y-57463819D02*
X128029732Y-57416200D01*
X128029732Y-57416200D02*
X127982113Y-57320961D01*
X127982113Y-57320961D02*
X127982113Y-57225723D01*
X127982113Y-57225723D02*
X128029732Y-57130485D01*
X128029732Y-57130485D02*
X128124970Y-57082866D01*
X128124970Y-57082866D02*
X128363065Y-57082866D01*
X128363065Y-57082866D02*
X128458303Y-57035247D01*
X128839256Y-56797152D02*
X129077351Y-57463819D01*
X129315446Y-56797152D02*
X129077351Y-57463819D01*
X129077351Y-57463819D02*
X128982113Y-57701914D01*
X128982113Y-57701914D02*
X128934494Y-57749533D01*
X128934494Y-57749533D02*
X128839256Y-57797152D01*
X130315447Y-56463819D02*
X130886875Y-56463819D01*
X130601161Y-57463819D02*
X130601161Y-56463819D01*
X131220209Y-57463819D02*
X131220209Y-56797152D01*
X131220209Y-56463819D02*
X131172590Y-56511438D01*
X131172590Y-56511438D02*
X131220209Y-56559057D01*
X131220209Y-56559057D02*
X131267828Y-56511438D01*
X131267828Y-56511438D02*
X131220209Y-56463819D01*
X131220209Y-56463819D02*
X131220209Y-56559057D01*
X131696399Y-57463819D02*
X131696399Y-56797152D01*
X131696399Y-56892390D02*
X131744018Y-56844771D01*
X131744018Y-56844771D02*
X131839256Y-56797152D01*
X131839256Y-56797152D02*
X131982113Y-56797152D01*
X131982113Y-56797152D02*
X132077351Y-56844771D01*
X132077351Y-56844771D02*
X132124970Y-56940009D01*
X132124970Y-56940009D02*
X132124970Y-57463819D01*
X132124970Y-56940009D02*
X132172589Y-56844771D01*
X132172589Y-56844771D02*
X132267827Y-56797152D01*
X132267827Y-56797152D02*
X132410684Y-56797152D01*
X132410684Y-56797152D02*
X132505923Y-56844771D01*
X132505923Y-56844771D02*
X132553542Y-56940009D01*
X132553542Y-56940009D02*
X132553542Y-57463819D01*
X133410684Y-57416200D02*
X133315446Y-57463819D01*
X133315446Y-57463819D02*
X133124970Y-57463819D01*
X133124970Y-57463819D02*
X133029732Y-57416200D01*
X133029732Y-57416200D02*
X132982113Y-57320961D01*
X132982113Y-57320961D02*
X132982113Y-56940009D01*
X132982113Y-56940009D02*
X133029732Y-56844771D01*
X133029732Y-56844771D02*
X133124970Y-56797152D01*
X133124970Y-56797152D02*
X133315446Y-56797152D01*
X133315446Y-56797152D02*
X133410684Y-56844771D01*
X133410684Y-56844771D02*
X133458303Y-56940009D01*
X133458303Y-56940009D02*
X133458303Y-57035247D01*
X133458303Y-57035247D02*
X132982113Y-57130485D01*
X90088779Y-56940009D02*
X90422112Y-56940009D01*
X90564969Y-57463819D02*
X90088779Y-57463819D01*
X90088779Y-57463819D02*
X90088779Y-56463819D01*
X90088779Y-56463819D02*
X90564969Y-56463819D01*
X91422112Y-57416200D02*
X91326874Y-57463819D01*
X91326874Y-57463819D02*
X91136398Y-57463819D01*
X91136398Y-57463819D02*
X91041160Y-57416200D01*
X91041160Y-57416200D02*
X90993541Y-57368580D01*
X90993541Y-57368580D02*
X90945922Y-57273342D01*
X90945922Y-57273342D02*
X90945922Y-56987628D01*
X90945922Y-56987628D02*
X90993541Y-56892390D01*
X90993541Y-56892390D02*
X91041160Y-56844771D01*
X91041160Y-56844771D02*
X91136398Y-56797152D01*
X91136398Y-56797152D02*
X91326874Y-56797152D01*
X91326874Y-56797152D02*
X91422112Y-56844771D01*
X91850684Y-57463819D02*
X91850684Y-56463819D01*
X92279255Y-57463819D02*
X92279255Y-56940009D01*
X92279255Y-56940009D02*
X92231636Y-56844771D01*
X92231636Y-56844771D02*
X92136398Y-56797152D01*
X92136398Y-56797152D02*
X91993541Y-56797152D01*
X91993541Y-56797152D02*
X91898303Y-56844771D01*
X91898303Y-56844771D02*
X91850684Y-56892390D01*
X92898303Y-57463819D02*
X92803065Y-57416200D01*
X92803065Y-57416200D02*
X92755446Y-57368580D01*
X92755446Y-57368580D02*
X92707827Y-57273342D01*
X92707827Y-57273342D02*
X92707827Y-56987628D01*
X92707827Y-56987628D02*
X92755446Y-56892390D01*
X92755446Y-56892390D02*
X92803065Y-56844771D01*
X92803065Y-56844771D02*
X92898303Y-56797152D01*
X92898303Y-56797152D02*
X93041160Y-56797152D01*
X93041160Y-56797152D02*
X93136398Y-56844771D01*
X93136398Y-56844771D02*
X93184017Y-56892390D01*
X93184017Y-56892390D02*
X93231636Y-56987628D01*
X93231636Y-56987628D02*
X93231636Y-57273342D01*
X93231636Y-57273342D02*
X93184017Y-57368580D01*
X93184017Y-57368580D02*
X93136398Y-57416200D01*
X93136398Y-57416200D02*
X93041160Y-57463819D01*
X93041160Y-57463819D02*
X92898303Y-57463819D01*
X94422113Y-57463819D02*
X94422113Y-56463819D01*
X94422113Y-56463819D02*
X94755446Y-57178104D01*
X94755446Y-57178104D02*
X95088779Y-56463819D01*
X95088779Y-56463819D02*
X95088779Y-57463819D01*
X95564970Y-57463819D02*
X95564970Y-56797152D01*
X95564970Y-56463819D02*
X95517351Y-56511438D01*
X95517351Y-56511438D02*
X95564970Y-56559057D01*
X95564970Y-56559057D02*
X95612589Y-56511438D01*
X95612589Y-56511438D02*
X95564970Y-56463819D01*
X95564970Y-56463819D02*
X95564970Y-56559057D01*
X95945922Y-57463819D02*
X96469731Y-56797152D01*
X95945922Y-56797152D02*
X96469731Y-57463819D01*
X54893922Y-56717819D02*
X55465350Y-56717819D01*
X55179636Y-57717819D02*
X55179636Y-56717819D01*
X56227255Y-57051152D02*
X56227255Y-57717819D01*
X55798684Y-57051152D02*
X55798684Y-57574961D01*
X55798684Y-57574961D02*
X55846303Y-57670200D01*
X55846303Y-57670200D02*
X55941541Y-57717819D01*
X55941541Y-57717819D02*
X56084398Y-57717819D01*
X56084398Y-57717819D02*
X56179636Y-57670200D01*
X56179636Y-57670200D02*
X56227255Y-57622580D01*
X56703446Y-57051152D02*
X56703446Y-57717819D01*
X56703446Y-57146390D02*
X56751065Y-57098771D01*
X56751065Y-57098771D02*
X56846303Y-57051152D01*
X56846303Y-57051152D02*
X56989160Y-57051152D01*
X56989160Y-57051152D02*
X57084398Y-57098771D01*
X57084398Y-57098771D02*
X57132017Y-57194009D01*
X57132017Y-57194009D02*
X57132017Y-57717819D01*
X57989160Y-57670200D02*
X57893922Y-57717819D01*
X57893922Y-57717819D02*
X57703446Y-57717819D01*
X57703446Y-57717819D02*
X57608208Y-57670200D01*
X57608208Y-57670200D02*
X57560589Y-57574961D01*
X57560589Y-57574961D02*
X57560589Y-57194009D01*
X57560589Y-57194009D02*
X57608208Y-57098771D01*
X57608208Y-57098771D02*
X57703446Y-57051152D01*
X57703446Y-57051152D02*
X57893922Y-57051152D01*
X57893922Y-57051152D02*
X57989160Y-57098771D01*
X57989160Y-57098771D02*
X58036779Y-57194009D01*
X58036779Y-57194009D02*
X58036779Y-57289247D01*
X58036779Y-57289247D02*
X57560589Y-57384485D01*
X89294969Y-87689819D02*
X88818779Y-87689819D01*
X88818779Y-87689819D02*
X88818779Y-86689819D01*
X89961636Y-87166009D02*
X89628303Y-87166009D01*
X89628303Y-87689819D02*
X89628303Y-86689819D01*
X89628303Y-86689819D02*
X90104493Y-86689819D01*
X90675922Y-86689819D02*
X90866398Y-86689819D01*
X90866398Y-86689819D02*
X90961636Y-86737438D01*
X90961636Y-86737438D02*
X91056874Y-86832676D01*
X91056874Y-86832676D02*
X91104493Y-87023152D01*
X91104493Y-87023152D02*
X91104493Y-87356485D01*
X91104493Y-87356485D02*
X91056874Y-87546961D01*
X91056874Y-87546961D02*
X90961636Y-87642200D01*
X90961636Y-87642200D02*
X90866398Y-87689819D01*
X90866398Y-87689819D02*
X90675922Y-87689819D01*
X90675922Y-87689819D02*
X90580684Y-87642200D01*
X90580684Y-87642200D02*
X90485446Y-87546961D01*
X90485446Y-87546961D02*
X90437827Y-87356485D01*
X90437827Y-87356485D02*
X90437827Y-87023152D01*
X90437827Y-87023152D02*
X90485446Y-86832676D01*
X90485446Y-86832676D02*
X90580684Y-86737438D01*
X90580684Y-86737438D02*
X90675922Y-86689819D01*
X92247351Y-87404104D02*
X92723541Y-87404104D01*
X92152113Y-87689819D02*
X92485446Y-86689819D01*
X92485446Y-86689819D02*
X92818779Y-87689819D01*
X93152113Y-87689819D02*
X93152113Y-87023152D01*
X93152113Y-87118390D02*
X93199732Y-87070771D01*
X93199732Y-87070771D02*
X93294970Y-87023152D01*
X93294970Y-87023152D02*
X93437827Y-87023152D01*
X93437827Y-87023152D02*
X93533065Y-87070771D01*
X93533065Y-87070771D02*
X93580684Y-87166009D01*
X93580684Y-87166009D02*
X93580684Y-87689819D01*
X93580684Y-87166009D02*
X93628303Y-87070771D01*
X93628303Y-87070771D02*
X93723541Y-87023152D01*
X93723541Y-87023152D02*
X93866398Y-87023152D01*
X93866398Y-87023152D02*
X93961637Y-87070771D01*
X93961637Y-87070771D02*
X94009256Y-87166009D01*
X94009256Y-87166009D02*
X94009256Y-87689819D01*
X94628303Y-87689819D02*
X94533065Y-87642200D01*
X94533065Y-87642200D02*
X94485446Y-87594580D01*
X94485446Y-87594580D02*
X94437827Y-87499342D01*
X94437827Y-87499342D02*
X94437827Y-87213628D01*
X94437827Y-87213628D02*
X94485446Y-87118390D01*
X94485446Y-87118390D02*
X94533065Y-87070771D01*
X94533065Y-87070771D02*
X94628303Y-87023152D01*
X94628303Y-87023152D02*
X94771160Y-87023152D01*
X94771160Y-87023152D02*
X94866398Y-87070771D01*
X94866398Y-87070771D02*
X94914017Y-87118390D01*
X94914017Y-87118390D02*
X94961636Y-87213628D01*
X94961636Y-87213628D02*
X94961636Y-87499342D01*
X94961636Y-87499342D02*
X94914017Y-87594580D01*
X94914017Y-87594580D02*
X94866398Y-87642200D01*
X94866398Y-87642200D02*
X94771160Y-87689819D01*
X94771160Y-87689819D02*
X94628303Y-87689819D01*
X95818779Y-87023152D02*
X95818779Y-87689819D01*
X95390208Y-87023152D02*
X95390208Y-87546961D01*
X95390208Y-87546961D02*
X95437827Y-87642200D01*
X95437827Y-87642200D02*
X95533065Y-87689819D01*
X95533065Y-87689819D02*
X95675922Y-87689819D01*
X95675922Y-87689819D02*
X95771160Y-87642200D01*
X95771160Y-87642200D02*
X95818779Y-87594580D01*
X96294970Y-87023152D02*
X96294970Y-87689819D01*
X96294970Y-87118390D02*
X96342589Y-87070771D01*
X96342589Y-87070771D02*
X96437827Y-87023152D01*
X96437827Y-87023152D02*
X96580684Y-87023152D01*
X96580684Y-87023152D02*
X96675922Y-87070771D01*
X96675922Y-87070771D02*
X96723541Y-87166009D01*
X96723541Y-87166009D02*
X96723541Y-87689819D01*
X97056875Y-87023152D02*
X97437827Y-87023152D01*
X97199732Y-86689819D02*
X97199732Y-87546961D01*
X97199732Y-87546961D02*
X97247351Y-87642200D01*
X97247351Y-87642200D02*
X97342589Y-87689819D01*
X97342589Y-87689819D02*
X97437827Y-87689819D01*
X53988969Y-87689819D02*
X53512779Y-87689819D01*
X53512779Y-87689819D02*
X53512779Y-86689819D01*
X54655636Y-87166009D02*
X54322303Y-87166009D01*
X54322303Y-87689819D02*
X54322303Y-86689819D01*
X54322303Y-86689819D02*
X54798493Y-86689819D01*
X55369922Y-86689819D02*
X55560398Y-86689819D01*
X55560398Y-86689819D02*
X55655636Y-86737438D01*
X55655636Y-86737438D02*
X55750874Y-86832676D01*
X55750874Y-86832676D02*
X55798493Y-87023152D01*
X55798493Y-87023152D02*
X55798493Y-87356485D01*
X55798493Y-87356485D02*
X55750874Y-87546961D01*
X55750874Y-87546961D02*
X55655636Y-87642200D01*
X55655636Y-87642200D02*
X55560398Y-87689819D01*
X55560398Y-87689819D02*
X55369922Y-87689819D01*
X55369922Y-87689819D02*
X55274684Y-87642200D01*
X55274684Y-87642200D02*
X55179446Y-87546961D01*
X55179446Y-87546961D02*
X55131827Y-87356485D01*
X55131827Y-87356485D02*
X55131827Y-87023152D01*
X55131827Y-87023152D02*
X55179446Y-86832676D01*
X55179446Y-86832676D02*
X55274684Y-86737438D01*
X55274684Y-86737438D02*
X55369922Y-86689819D01*
X57322303Y-87166009D02*
X56988970Y-87166009D01*
X56988970Y-87689819D02*
X56988970Y-86689819D01*
X56988970Y-86689819D02*
X57465160Y-86689819D01*
X57846113Y-87689819D02*
X57846113Y-87023152D01*
X57846113Y-87213628D02*
X57893732Y-87118390D01*
X57893732Y-87118390D02*
X57941351Y-87070771D01*
X57941351Y-87070771D02*
X58036589Y-87023152D01*
X58036589Y-87023152D02*
X58131827Y-87023152D01*
X58846113Y-87642200D02*
X58750875Y-87689819D01*
X58750875Y-87689819D02*
X58560399Y-87689819D01*
X58560399Y-87689819D02*
X58465161Y-87642200D01*
X58465161Y-87642200D02*
X58417542Y-87546961D01*
X58417542Y-87546961D02*
X58417542Y-87166009D01*
X58417542Y-87166009D02*
X58465161Y-87070771D01*
X58465161Y-87070771D02*
X58560399Y-87023152D01*
X58560399Y-87023152D02*
X58750875Y-87023152D01*
X58750875Y-87023152D02*
X58846113Y-87070771D01*
X58846113Y-87070771D02*
X58893732Y-87166009D01*
X58893732Y-87166009D02*
X58893732Y-87261247D01*
X58893732Y-87261247D02*
X58417542Y-87356485D01*
X59750875Y-87023152D02*
X59750875Y-88023152D01*
X59750875Y-87642200D02*
X59655637Y-87689819D01*
X59655637Y-87689819D02*
X59465161Y-87689819D01*
X59465161Y-87689819D02*
X59369923Y-87642200D01*
X59369923Y-87642200D02*
X59322304Y-87594580D01*
X59322304Y-87594580D02*
X59274685Y-87499342D01*
X59274685Y-87499342D02*
X59274685Y-87213628D01*
X59274685Y-87213628D02*
X59322304Y-87118390D01*
X59322304Y-87118390D02*
X59369923Y-87070771D01*
X59369923Y-87070771D02*
X59465161Y-87023152D01*
X59465161Y-87023152D02*
X59655637Y-87023152D01*
X59655637Y-87023152D02*
X59750875Y-87070771D01*
X126383905Y-110502819D02*
X126383905Y-109502819D01*
X126383905Y-109502819D02*
X126622000Y-109502819D01*
X126622000Y-109502819D02*
X126764857Y-109550438D01*
X126764857Y-109550438D02*
X126860095Y-109645676D01*
X126860095Y-109645676D02*
X126907714Y-109740914D01*
X126907714Y-109740914D02*
X126955333Y-109931390D01*
X126955333Y-109931390D02*
X126955333Y-110074247D01*
X126955333Y-110074247D02*
X126907714Y-110264723D01*
X126907714Y-110264723D02*
X126860095Y-110359961D01*
X126860095Y-110359961D02*
X126764857Y-110455200D01*
X126764857Y-110455200D02*
X126622000Y-110502819D01*
X126622000Y-110502819D02*
X126383905Y-110502819D01*
X127812476Y-109502819D02*
X127622000Y-109502819D01*
X127622000Y-109502819D02*
X127526762Y-109550438D01*
X127526762Y-109550438D02*
X127479143Y-109598057D01*
X127479143Y-109598057D02*
X127383905Y-109740914D01*
X127383905Y-109740914D02*
X127336286Y-109931390D01*
X127336286Y-109931390D02*
X127336286Y-110312342D01*
X127336286Y-110312342D02*
X127383905Y-110407580D01*
X127383905Y-110407580D02*
X127431524Y-110455200D01*
X127431524Y-110455200D02*
X127526762Y-110502819D01*
X127526762Y-110502819D02*
X127717238Y-110502819D01*
X127717238Y-110502819D02*
X127812476Y-110455200D01*
X127812476Y-110455200D02*
X127860095Y-110407580D01*
X127860095Y-110407580D02*
X127907714Y-110312342D01*
X127907714Y-110312342D02*
X127907714Y-110074247D01*
X127907714Y-110074247D02*
X127860095Y-109979009D01*
X127860095Y-109979009D02*
X127812476Y-109931390D01*
X127812476Y-109931390D02*
X127717238Y-109883771D01*
X127717238Y-109883771D02*
X127526762Y-109883771D01*
X127526762Y-109883771D02*
X127431524Y-109931390D01*
X127431524Y-109931390D02*
X127383905Y-109979009D01*
X127383905Y-109979009D02*
X127336286Y-110074247D01*
X123621714Y-130692819D02*
X123621714Y-129692819D01*
X123621714Y-129692819D02*
X123859809Y-129692819D01*
X123859809Y-129692819D02*
X124002666Y-129740438D01*
X124002666Y-129740438D02*
X124097904Y-129835676D01*
X124097904Y-129835676D02*
X124145523Y-129930914D01*
X124145523Y-129930914D02*
X124193142Y-130121390D01*
X124193142Y-130121390D02*
X124193142Y-130264247D01*
X124193142Y-130264247D02*
X124145523Y-130454723D01*
X124145523Y-130454723D02*
X124097904Y-130549961D01*
X124097904Y-130549961D02*
X124002666Y-130645200D01*
X124002666Y-130645200D02*
X123859809Y-130692819D01*
X123859809Y-130692819D02*
X123621714Y-130692819D01*
X125145523Y-130692819D02*
X124574095Y-130692819D01*
X124859809Y-130692819D02*
X124859809Y-129692819D01*
X124859809Y-129692819D02*
X124764571Y-129835676D01*
X124764571Y-129835676D02*
X124669333Y-129930914D01*
X124669333Y-129930914D02*
X124574095Y-129978533D01*
X125716952Y-130121390D02*
X125621714Y-130073771D01*
X125621714Y-130073771D02*
X125574095Y-130026152D01*
X125574095Y-130026152D02*
X125526476Y-129930914D01*
X125526476Y-129930914D02*
X125526476Y-129883295D01*
X125526476Y-129883295D02*
X125574095Y-129788057D01*
X125574095Y-129788057D02*
X125621714Y-129740438D01*
X125621714Y-129740438D02*
X125716952Y-129692819D01*
X125716952Y-129692819D02*
X125907428Y-129692819D01*
X125907428Y-129692819D02*
X126002666Y-129740438D01*
X126002666Y-129740438D02*
X126050285Y-129788057D01*
X126050285Y-129788057D02*
X126097904Y-129883295D01*
X126097904Y-129883295D02*
X126097904Y-129930914D01*
X126097904Y-129930914D02*
X126050285Y-130026152D01*
X126050285Y-130026152D02*
X126002666Y-130073771D01*
X126002666Y-130073771D02*
X125907428Y-130121390D01*
X125907428Y-130121390D02*
X125716952Y-130121390D01*
X125716952Y-130121390D02*
X125621714Y-130169009D01*
X125621714Y-130169009D02*
X125574095Y-130216628D01*
X125574095Y-130216628D02*
X125526476Y-130311866D01*
X125526476Y-130311866D02*
X125526476Y-130502342D01*
X125526476Y-130502342D02*
X125574095Y-130597580D01*
X125574095Y-130597580D02*
X125621714Y-130645200D01*
X125621714Y-130645200D02*
X125716952Y-130692819D01*
X125716952Y-130692819D02*
X125907428Y-130692819D01*
X125907428Y-130692819D02*
X126002666Y-130645200D01*
X126002666Y-130645200D02*
X126050285Y-130597580D01*
X126050285Y-130597580D02*
X126097904Y-130502342D01*
X126097904Y-130502342D02*
X126097904Y-130311866D01*
X126097904Y-130311866D02*
X126050285Y-130216628D01*
X126050285Y-130216628D02*
X126002666Y-130169009D01*
X126002666Y-130169009D02*
X125907428Y-130121390D01*
X49247142Y-89586819D02*
X48913809Y-89110628D01*
X48675714Y-89586819D02*
X48675714Y-88586819D01*
X48675714Y-88586819D02*
X49056666Y-88586819D01*
X49056666Y-88586819D02*
X49151904Y-88634438D01*
X49151904Y-88634438D02*
X49199523Y-88682057D01*
X49199523Y-88682057D02*
X49247142Y-88777295D01*
X49247142Y-88777295D02*
X49247142Y-88920152D01*
X49247142Y-88920152D02*
X49199523Y-89015390D01*
X49199523Y-89015390D02*
X49151904Y-89063009D01*
X49151904Y-89063009D02*
X49056666Y-89110628D01*
X49056666Y-89110628D02*
X48675714Y-89110628D01*
X50199523Y-89586819D02*
X49628095Y-89586819D01*
X49913809Y-89586819D02*
X49913809Y-88586819D01*
X49913809Y-88586819D02*
X49818571Y-88729676D01*
X49818571Y-88729676D02*
X49723333Y-88824914D01*
X49723333Y-88824914D02*
X49628095Y-88872533D01*
X51056666Y-88920152D02*
X51056666Y-89586819D01*
X50818571Y-88539200D02*
X50580476Y-89253485D01*
X50580476Y-89253485D02*
X51199523Y-89253485D01*
X135694667Y-127105200D02*
X135837524Y-127152819D01*
X135837524Y-127152819D02*
X136075619Y-127152819D01*
X136075619Y-127152819D02*
X136170857Y-127105200D01*
X136170857Y-127105200D02*
X136218476Y-127057580D01*
X136218476Y-127057580D02*
X136266095Y-126962342D01*
X136266095Y-126962342D02*
X136266095Y-126867104D01*
X136266095Y-126867104D02*
X136218476Y-126771866D01*
X136218476Y-126771866D02*
X136170857Y-126724247D01*
X136170857Y-126724247D02*
X136075619Y-126676628D01*
X136075619Y-126676628D02*
X135885143Y-126629009D01*
X135885143Y-126629009D02*
X135789905Y-126581390D01*
X135789905Y-126581390D02*
X135742286Y-126533771D01*
X135742286Y-126533771D02*
X135694667Y-126438533D01*
X135694667Y-126438533D02*
X135694667Y-126343295D01*
X135694667Y-126343295D02*
X135742286Y-126248057D01*
X135742286Y-126248057D02*
X135789905Y-126200438D01*
X135789905Y-126200438D02*
X135885143Y-126152819D01*
X135885143Y-126152819D02*
X136123238Y-126152819D01*
X136123238Y-126152819D02*
X136266095Y-126200438D01*
X136599429Y-126152819D02*
X136837524Y-127152819D01*
X136837524Y-127152819D02*
X137028000Y-126438533D01*
X137028000Y-126438533D02*
X137218476Y-127152819D01*
X137218476Y-127152819D02*
X137456572Y-126152819D01*
X138266095Y-126486152D02*
X138266095Y-127152819D01*
X138028000Y-126105200D02*
X137789905Y-126819485D01*
X137789905Y-126819485D02*
X138408952Y-126819485D01*
X63558667Y-127105200D02*
X63701524Y-127152819D01*
X63701524Y-127152819D02*
X63939619Y-127152819D01*
X63939619Y-127152819D02*
X64034857Y-127105200D01*
X64034857Y-127105200D02*
X64082476Y-127057580D01*
X64082476Y-127057580D02*
X64130095Y-126962342D01*
X64130095Y-126962342D02*
X64130095Y-126867104D01*
X64130095Y-126867104D02*
X64082476Y-126771866D01*
X64082476Y-126771866D02*
X64034857Y-126724247D01*
X64034857Y-126724247D02*
X63939619Y-126676628D01*
X63939619Y-126676628D02*
X63749143Y-126629009D01*
X63749143Y-126629009D02*
X63653905Y-126581390D01*
X63653905Y-126581390D02*
X63606286Y-126533771D01*
X63606286Y-126533771D02*
X63558667Y-126438533D01*
X63558667Y-126438533D02*
X63558667Y-126343295D01*
X63558667Y-126343295D02*
X63606286Y-126248057D01*
X63606286Y-126248057D02*
X63653905Y-126200438D01*
X63653905Y-126200438D02*
X63749143Y-126152819D01*
X63749143Y-126152819D02*
X63987238Y-126152819D01*
X63987238Y-126152819D02*
X64130095Y-126200438D01*
X64463429Y-126152819D02*
X64701524Y-127152819D01*
X64701524Y-127152819D02*
X64892000Y-126438533D01*
X64892000Y-126438533D02*
X65082476Y-127152819D01*
X65082476Y-127152819D02*
X65320572Y-126152819D01*
X66130095Y-126152819D02*
X65939619Y-126152819D01*
X65939619Y-126152819D02*
X65844381Y-126200438D01*
X65844381Y-126200438D02*
X65796762Y-126248057D01*
X65796762Y-126248057D02*
X65701524Y-126390914D01*
X65701524Y-126390914D02*
X65653905Y-126581390D01*
X65653905Y-126581390D02*
X65653905Y-126962342D01*
X65653905Y-126962342D02*
X65701524Y-127057580D01*
X65701524Y-127057580D02*
X65749143Y-127105200D01*
X65749143Y-127105200D02*
X65844381Y-127152819D01*
X65844381Y-127152819D02*
X66034857Y-127152819D01*
X66034857Y-127152819D02*
X66130095Y-127105200D01*
X66130095Y-127105200D02*
X66177714Y-127057580D01*
X66177714Y-127057580D02*
X66225333Y-126962342D01*
X66225333Y-126962342D02*
X66225333Y-126724247D01*
X66225333Y-126724247D02*
X66177714Y-126629009D01*
X66177714Y-126629009D02*
X66130095Y-126581390D01*
X66130095Y-126581390D02*
X66034857Y-126533771D01*
X66034857Y-126533771D02*
X65844381Y-126533771D01*
X65844381Y-126533771D02*
X65749143Y-126581390D01*
X65749143Y-126581390D02*
X65701524Y-126629009D01*
X65701524Y-126629009D02*
X65653905Y-126724247D01*
X87553714Y-130692819D02*
X87553714Y-129692819D01*
X87553714Y-129692819D02*
X87791809Y-129692819D01*
X87791809Y-129692819D02*
X87934666Y-129740438D01*
X87934666Y-129740438D02*
X88029904Y-129835676D01*
X88029904Y-129835676D02*
X88077523Y-129930914D01*
X88077523Y-129930914D02*
X88125142Y-130121390D01*
X88125142Y-130121390D02*
X88125142Y-130264247D01*
X88125142Y-130264247D02*
X88077523Y-130454723D01*
X88077523Y-130454723D02*
X88029904Y-130549961D01*
X88029904Y-130549961D02*
X87934666Y-130645200D01*
X87934666Y-130645200D02*
X87791809Y-130692819D01*
X87791809Y-130692819D02*
X87553714Y-130692819D01*
X89077523Y-130692819D02*
X88506095Y-130692819D01*
X88791809Y-130692819D02*
X88791809Y-129692819D01*
X88791809Y-129692819D02*
X88696571Y-129835676D01*
X88696571Y-129835676D02*
X88601333Y-129930914D01*
X88601333Y-129930914D02*
X88506095Y-129978533D01*
X89410857Y-129692819D02*
X90077523Y-129692819D01*
X90077523Y-129692819D02*
X89648952Y-130692819D01*
X118784714Y-90414819D02*
X118784714Y-89414819D01*
X118784714Y-89414819D02*
X119022809Y-89414819D01*
X119022809Y-89414819D02*
X119165666Y-89462438D01*
X119165666Y-89462438D02*
X119260904Y-89557676D01*
X119260904Y-89557676D02*
X119308523Y-89652914D01*
X119308523Y-89652914D02*
X119356142Y-89843390D01*
X119356142Y-89843390D02*
X119356142Y-89986247D01*
X119356142Y-89986247D02*
X119308523Y-90176723D01*
X119308523Y-90176723D02*
X119260904Y-90271961D01*
X119260904Y-90271961D02*
X119165666Y-90367200D01*
X119165666Y-90367200D02*
X119022809Y-90414819D01*
X119022809Y-90414819D02*
X118784714Y-90414819D01*
X120308523Y-90414819D02*
X119737095Y-90414819D01*
X120022809Y-90414819D02*
X120022809Y-89414819D01*
X120022809Y-89414819D02*
X119927571Y-89557676D01*
X119927571Y-89557676D02*
X119832333Y-89652914D01*
X119832333Y-89652914D02*
X119737095Y-89700533D01*
X120927571Y-89414819D02*
X121022809Y-89414819D01*
X121022809Y-89414819D02*
X121118047Y-89462438D01*
X121118047Y-89462438D02*
X121165666Y-89510057D01*
X121165666Y-89510057D02*
X121213285Y-89605295D01*
X121213285Y-89605295D02*
X121260904Y-89795771D01*
X121260904Y-89795771D02*
X121260904Y-90033866D01*
X121260904Y-90033866D02*
X121213285Y-90224342D01*
X121213285Y-90224342D02*
X121165666Y-90319580D01*
X121165666Y-90319580D02*
X121118047Y-90367200D01*
X121118047Y-90367200D02*
X121022809Y-90414819D01*
X121022809Y-90414819D02*
X120927571Y-90414819D01*
X120927571Y-90414819D02*
X120832333Y-90367200D01*
X120832333Y-90367200D02*
X120784714Y-90319580D01*
X120784714Y-90319580D02*
X120737095Y-90224342D01*
X120737095Y-90224342D02*
X120689476Y-90033866D01*
X120689476Y-90033866D02*
X120689476Y-89795771D01*
X120689476Y-89795771D02*
X120737095Y-89605295D01*
X120737095Y-89605295D02*
X120784714Y-89510057D01*
X120784714Y-89510057D02*
X120832333Y-89462438D01*
X120832333Y-89462438D02*
X120927571Y-89414819D01*
X127685714Y-117738819D02*
X127685714Y-116738819D01*
X127685714Y-116738819D02*
X127923809Y-116738819D01*
X127923809Y-116738819D02*
X128066666Y-116786438D01*
X128066666Y-116786438D02*
X128161904Y-116881676D01*
X128161904Y-116881676D02*
X128209523Y-116976914D01*
X128209523Y-116976914D02*
X128257142Y-117167390D01*
X128257142Y-117167390D02*
X128257142Y-117310247D01*
X128257142Y-117310247D02*
X128209523Y-117500723D01*
X128209523Y-117500723D02*
X128161904Y-117595961D01*
X128161904Y-117595961D02*
X128066666Y-117691200D01*
X128066666Y-117691200D02*
X127923809Y-117738819D01*
X127923809Y-117738819D02*
X127685714Y-117738819D01*
X129209523Y-117738819D02*
X128638095Y-117738819D01*
X128923809Y-117738819D02*
X128923809Y-116738819D01*
X128923809Y-116738819D02*
X128828571Y-116881676D01*
X128828571Y-116881676D02*
X128733333Y-116976914D01*
X128733333Y-116976914D02*
X128638095Y-117024533D01*
X130066666Y-117072152D02*
X130066666Y-117738819D01*
X129828571Y-116691200D02*
X129590476Y-117405485D01*
X129590476Y-117405485D02*
X130209523Y-117405485D01*
X162451905Y-110388819D02*
X162451905Y-109388819D01*
X162451905Y-109388819D02*
X162690000Y-109388819D01*
X162690000Y-109388819D02*
X162832857Y-109436438D01*
X162832857Y-109436438D02*
X162928095Y-109531676D01*
X162928095Y-109531676D02*
X162975714Y-109626914D01*
X162975714Y-109626914D02*
X163023333Y-109817390D01*
X163023333Y-109817390D02*
X163023333Y-109960247D01*
X163023333Y-109960247D02*
X162975714Y-110150723D01*
X162975714Y-110150723D02*
X162928095Y-110245961D01*
X162928095Y-110245961D02*
X162832857Y-110341200D01*
X162832857Y-110341200D02*
X162690000Y-110388819D01*
X162690000Y-110388819D02*
X162451905Y-110388819D01*
X163356667Y-109388819D02*
X164023333Y-109388819D01*
X164023333Y-109388819D02*
X163594762Y-110388819D01*
X140342905Y-90414819D02*
X140342905Y-89414819D01*
X140342905Y-89414819D02*
X140581000Y-89414819D01*
X140581000Y-89414819D02*
X140723857Y-89462438D01*
X140723857Y-89462438D02*
X140819095Y-89557676D01*
X140819095Y-89557676D02*
X140866714Y-89652914D01*
X140866714Y-89652914D02*
X140914333Y-89843390D01*
X140914333Y-89843390D02*
X140914333Y-89986247D01*
X140914333Y-89986247D02*
X140866714Y-90176723D01*
X140866714Y-90176723D02*
X140819095Y-90271961D01*
X140819095Y-90271961D02*
X140723857Y-90367200D01*
X140723857Y-90367200D02*
X140581000Y-90414819D01*
X140581000Y-90414819D02*
X140342905Y-90414819D01*
X141866714Y-90414819D02*
X141295286Y-90414819D01*
X141581000Y-90414819D02*
X141581000Y-89414819D01*
X141581000Y-89414819D02*
X141485762Y-89557676D01*
X141485762Y-89557676D02*
X141390524Y-89652914D01*
X141390524Y-89652914D02*
X141295286Y-89700533D01*
X91855714Y-117738819D02*
X91855714Y-116738819D01*
X91855714Y-116738819D02*
X92093809Y-116738819D01*
X92093809Y-116738819D02*
X92236666Y-116786438D01*
X92236666Y-116786438D02*
X92331904Y-116881676D01*
X92331904Y-116881676D02*
X92379523Y-116976914D01*
X92379523Y-116976914D02*
X92427142Y-117167390D01*
X92427142Y-117167390D02*
X92427142Y-117310247D01*
X92427142Y-117310247D02*
X92379523Y-117500723D01*
X92379523Y-117500723D02*
X92331904Y-117595961D01*
X92331904Y-117595961D02*
X92236666Y-117691200D01*
X92236666Y-117691200D02*
X92093809Y-117738819D01*
X92093809Y-117738819D02*
X91855714Y-117738819D01*
X93379523Y-117738819D02*
X92808095Y-117738819D01*
X93093809Y-117738819D02*
X93093809Y-116738819D01*
X93093809Y-116738819D02*
X92998571Y-116881676D01*
X92998571Y-116881676D02*
X92903333Y-116976914D01*
X92903333Y-116976914D02*
X92808095Y-117024533D01*
X93712857Y-116738819D02*
X94331904Y-116738819D01*
X94331904Y-116738819D02*
X93998571Y-117119771D01*
X93998571Y-117119771D02*
X94141428Y-117119771D01*
X94141428Y-117119771D02*
X94236666Y-117167390D01*
X94236666Y-117167390D02*
X94284285Y-117215009D01*
X94284285Y-117215009D02*
X94331904Y-117310247D01*
X94331904Y-117310247D02*
X94331904Y-117548342D01*
X94331904Y-117548342D02*
X94284285Y-117643580D01*
X94284285Y-117643580D02*
X94236666Y-117691200D01*
X94236666Y-117691200D02*
X94141428Y-117738819D01*
X94141428Y-117738819D02*
X93855714Y-117738819D01*
X93855714Y-117738819D02*
X93760476Y-117691200D01*
X93760476Y-117691200D02*
X93712857Y-117643580D01*
X51977714Y-118495200D02*
X52072952Y-118542819D01*
X52072952Y-118542819D02*
X52263428Y-118542819D01*
X52263428Y-118542819D02*
X52358666Y-118495200D01*
X52358666Y-118495200D02*
X52406285Y-118399961D01*
X52406285Y-118399961D02*
X52406285Y-118352342D01*
X52406285Y-118352342D02*
X52358666Y-118257104D01*
X52358666Y-118257104D02*
X52263428Y-118209485D01*
X52263428Y-118209485D02*
X52120571Y-118209485D01*
X52120571Y-118209485D02*
X52025333Y-118161866D01*
X52025333Y-118161866D02*
X51977714Y-118066628D01*
X51977714Y-118066628D02*
X51977714Y-118019009D01*
X51977714Y-118019009D02*
X52025333Y-117923771D01*
X52025333Y-117923771D02*
X52120571Y-117876152D01*
X52120571Y-117876152D02*
X52263428Y-117876152D01*
X52263428Y-117876152D02*
X52358666Y-117923771D01*
X52739619Y-117876152D02*
X52930095Y-118542819D01*
X52930095Y-118542819D02*
X53120571Y-118066628D01*
X53120571Y-118066628D02*
X53311047Y-118542819D01*
X53311047Y-118542819D02*
X53501523Y-117876152D01*
X53930095Y-118542819D02*
X54120571Y-118542819D01*
X54120571Y-118542819D02*
X54215809Y-118495200D01*
X54215809Y-118495200D02*
X54263428Y-118447580D01*
X54263428Y-118447580D02*
X54358666Y-118304723D01*
X54358666Y-118304723D02*
X54406285Y-118114247D01*
X54406285Y-118114247D02*
X54406285Y-117733295D01*
X54406285Y-117733295D02*
X54358666Y-117638057D01*
X54358666Y-117638057D02*
X54311047Y-117590438D01*
X54311047Y-117590438D02*
X54215809Y-117542819D01*
X54215809Y-117542819D02*
X54025333Y-117542819D01*
X54025333Y-117542819D02*
X53930095Y-117590438D01*
X53930095Y-117590438D02*
X53882476Y-117638057D01*
X53882476Y-117638057D02*
X53834857Y-117733295D01*
X53834857Y-117733295D02*
X53834857Y-117971390D01*
X53834857Y-117971390D02*
X53882476Y-118066628D01*
X53882476Y-118066628D02*
X53930095Y-118114247D01*
X53930095Y-118114247D02*
X54025333Y-118161866D01*
X54025333Y-118161866D02*
X54215809Y-118161866D01*
X54215809Y-118161866D02*
X54311047Y-118114247D01*
X54311047Y-118114247D02*
X54358666Y-118066628D01*
X54358666Y-118066628D02*
X54406285Y-117971390D01*
X124880714Y-90414819D02*
X124880714Y-89414819D01*
X124880714Y-89414819D02*
X125118809Y-89414819D01*
X125118809Y-89414819D02*
X125261666Y-89462438D01*
X125261666Y-89462438D02*
X125356904Y-89557676D01*
X125356904Y-89557676D02*
X125404523Y-89652914D01*
X125404523Y-89652914D02*
X125452142Y-89843390D01*
X125452142Y-89843390D02*
X125452142Y-89986247D01*
X125452142Y-89986247D02*
X125404523Y-90176723D01*
X125404523Y-90176723D02*
X125356904Y-90271961D01*
X125356904Y-90271961D02*
X125261666Y-90367200D01*
X125261666Y-90367200D02*
X125118809Y-90414819D01*
X125118809Y-90414819D02*
X124880714Y-90414819D01*
X126404523Y-90414819D02*
X125833095Y-90414819D01*
X126118809Y-90414819D02*
X126118809Y-89414819D01*
X126118809Y-89414819D02*
X126023571Y-89557676D01*
X126023571Y-89557676D02*
X125928333Y-89652914D01*
X125928333Y-89652914D02*
X125833095Y-89700533D01*
X127356904Y-90414819D02*
X126785476Y-90414819D01*
X127071190Y-90414819D02*
X127071190Y-89414819D01*
X127071190Y-89414819D02*
X126975952Y-89557676D01*
X126975952Y-89557676D02*
X126880714Y-89652914D01*
X126880714Y-89652914D02*
X126785476Y-89700533D01*
X99094761Y-59080819D02*
X98761428Y-58604628D01*
X98523333Y-59080819D02*
X98523333Y-58080819D01*
X98523333Y-58080819D02*
X98904285Y-58080819D01*
X98904285Y-58080819D02*
X98999523Y-58128438D01*
X98999523Y-58128438D02*
X99047142Y-58176057D01*
X99047142Y-58176057D02*
X99094761Y-58271295D01*
X99094761Y-58271295D02*
X99094761Y-58414152D01*
X99094761Y-58414152D02*
X99047142Y-58509390D01*
X99047142Y-58509390D02*
X98999523Y-58557009D01*
X98999523Y-58557009D02*
X98904285Y-58604628D01*
X98904285Y-58604628D02*
X98523333Y-58604628D01*
X99380476Y-58080819D02*
X99713809Y-59080819D01*
X99713809Y-59080819D02*
X100047142Y-58080819D01*
X100856666Y-58080819D02*
X100380476Y-58080819D01*
X100380476Y-58080819D02*
X100332857Y-58557009D01*
X100332857Y-58557009D02*
X100380476Y-58509390D01*
X100380476Y-58509390D02*
X100475714Y-58461771D01*
X100475714Y-58461771D02*
X100713809Y-58461771D01*
X100713809Y-58461771D02*
X100809047Y-58509390D01*
X100809047Y-58509390D02*
X100856666Y-58557009D01*
X100856666Y-58557009D02*
X100904285Y-58652247D01*
X100904285Y-58652247D02*
X100904285Y-58890342D01*
X100904285Y-58890342D02*
X100856666Y-58985580D01*
X100856666Y-58985580D02*
X100809047Y-59033200D01*
X100809047Y-59033200D02*
X100713809Y-59080819D01*
X100713809Y-59080819D02*
X100475714Y-59080819D01*
X100475714Y-59080819D02*
X100380476Y-59033200D01*
X100380476Y-59033200D02*
X100332857Y-58985580D01*
X87061524Y-118495200D02*
X87156762Y-118542819D01*
X87156762Y-118542819D02*
X87347238Y-118542819D01*
X87347238Y-118542819D02*
X87442476Y-118495200D01*
X87442476Y-118495200D02*
X87490095Y-118399961D01*
X87490095Y-118399961D02*
X87490095Y-118352342D01*
X87490095Y-118352342D02*
X87442476Y-118257104D01*
X87442476Y-118257104D02*
X87347238Y-118209485D01*
X87347238Y-118209485D02*
X87204381Y-118209485D01*
X87204381Y-118209485D02*
X87109143Y-118161866D01*
X87109143Y-118161866D02*
X87061524Y-118066628D01*
X87061524Y-118066628D02*
X87061524Y-118019009D01*
X87061524Y-118019009D02*
X87109143Y-117923771D01*
X87109143Y-117923771D02*
X87204381Y-117876152D01*
X87204381Y-117876152D02*
X87347238Y-117876152D01*
X87347238Y-117876152D02*
X87442476Y-117923771D01*
X87823429Y-117876152D02*
X88013905Y-118542819D01*
X88013905Y-118542819D02*
X88204381Y-118066628D01*
X88204381Y-118066628D02*
X88394857Y-118542819D01*
X88394857Y-118542819D02*
X88585333Y-117876152D01*
X89490095Y-118542819D02*
X88918667Y-118542819D01*
X89204381Y-118542819D02*
X89204381Y-117542819D01*
X89204381Y-117542819D02*
X89109143Y-117685676D01*
X89109143Y-117685676D02*
X89013905Y-117780914D01*
X89013905Y-117780914D02*
X88918667Y-117828533D01*
X90109143Y-117542819D02*
X90204381Y-117542819D01*
X90204381Y-117542819D02*
X90299619Y-117590438D01*
X90299619Y-117590438D02*
X90347238Y-117638057D01*
X90347238Y-117638057D02*
X90394857Y-117733295D01*
X90394857Y-117733295D02*
X90442476Y-117923771D01*
X90442476Y-117923771D02*
X90442476Y-118161866D01*
X90442476Y-118161866D02*
X90394857Y-118352342D01*
X90394857Y-118352342D02*
X90347238Y-118447580D01*
X90347238Y-118447580D02*
X90299619Y-118495200D01*
X90299619Y-118495200D02*
X90204381Y-118542819D01*
X90204381Y-118542819D02*
X90109143Y-118542819D01*
X90109143Y-118542819D02*
X90013905Y-118495200D01*
X90013905Y-118495200D02*
X89966286Y-118447580D01*
X89966286Y-118447580D02*
X89918667Y-118352342D01*
X89918667Y-118352342D02*
X89871048Y-118161866D01*
X89871048Y-118161866D02*
X89871048Y-117923771D01*
X89871048Y-117923771D02*
X89918667Y-117733295D01*
X89918667Y-117733295D02*
X89966286Y-117638057D01*
X89966286Y-117638057D02*
X90013905Y-117590438D01*
X90013905Y-117590438D02*
X90109143Y-117542819D01*
X159197524Y-118495200D02*
X159292762Y-118542819D01*
X159292762Y-118542819D02*
X159483238Y-118542819D01*
X159483238Y-118542819D02*
X159578476Y-118495200D01*
X159578476Y-118495200D02*
X159626095Y-118399961D01*
X159626095Y-118399961D02*
X159626095Y-118352342D01*
X159626095Y-118352342D02*
X159578476Y-118257104D01*
X159578476Y-118257104D02*
X159483238Y-118209485D01*
X159483238Y-118209485D02*
X159340381Y-118209485D01*
X159340381Y-118209485D02*
X159245143Y-118161866D01*
X159245143Y-118161866D02*
X159197524Y-118066628D01*
X159197524Y-118066628D02*
X159197524Y-118019009D01*
X159197524Y-118019009D02*
X159245143Y-117923771D01*
X159245143Y-117923771D02*
X159340381Y-117876152D01*
X159340381Y-117876152D02*
X159483238Y-117876152D01*
X159483238Y-117876152D02*
X159578476Y-117923771D01*
X159959429Y-117876152D02*
X160149905Y-118542819D01*
X160149905Y-118542819D02*
X160340381Y-118066628D01*
X160340381Y-118066628D02*
X160530857Y-118542819D01*
X160530857Y-118542819D02*
X160721333Y-117876152D01*
X161626095Y-118542819D02*
X161054667Y-118542819D01*
X161340381Y-118542819D02*
X161340381Y-117542819D01*
X161340381Y-117542819D02*
X161245143Y-117685676D01*
X161245143Y-117685676D02*
X161149905Y-117780914D01*
X161149905Y-117780914D02*
X161054667Y-117828533D01*
X162007048Y-117638057D02*
X162054667Y-117590438D01*
X162054667Y-117590438D02*
X162149905Y-117542819D01*
X162149905Y-117542819D02*
X162388000Y-117542819D01*
X162388000Y-117542819D02*
X162483238Y-117590438D01*
X162483238Y-117590438D02*
X162530857Y-117638057D01*
X162530857Y-117638057D02*
X162578476Y-117733295D01*
X162578476Y-117733295D02*
X162578476Y-117828533D01*
X162578476Y-117828533D02*
X162530857Y-117971390D01*
X162530857Y-117971390D02*
X161959429Y-118542819D01*
X161959429Y-118542819D02*
X162578476Y-118542819D01*
X136178761Y-49920819D02*
X135845428Y-49444628D01*
X135607333Y-49920819D02*
X135607333Y-48920819D01*
X135607333Y-48920819D02*
X135988285Y-48920819D01*
X135988285Y-48920819D02*
X136083523Y-48968438D01*
X136083523Y-48968438D02*
X136131142Y-49016057D01*
X136131142Y-49016057D02*
X136178761Y-49111295D01*
X136178761Y-49111295D02*
X136178761Y-49254152D01*
X136178761Y-49254152D02*
X136131142Y-49349390D01*
X136131142Y-49349390D02*
X136083523Y-49397009D01*
X136083523Y-49397009D02*
X135988285Y-49444628D01*
X135988285Y-49444628D02*
X135607333Y-49444628D01*
X136464476Y-48920819D02*
X136797809Y-49920819D01*
X136797809Y-49920819D02*
X137131142Y-48920819D01*
X137893047Y-49254152D02*
X137893047Y-49920819D01*
X137654952Y-48873200D02*
X137416857Y-49587485D01*
X137416857Y-49587485D02*
X138035904Y-49587485D01*
X122875524Y-118495200D02*
X122970762Y-118542819D01*
X122970762Y-118542819D02*
X123161238Y-118542819D01*
X123161238Y-118542819D02*
X123256476Y-118495200D01*
X123256476Y-118495200D02*
X123304095Y-118399961D01*
X123304095Y-118399961D02*
X123304095Y-118352342D01*
X123304095Y-118352342D02*
X123256476Y-118257104D01*
X123256476Y-118257104D02*
X123161238Y-118209485D01*
X123161238Y-118209485D02*
X123018381Y-118209485D01*
X123018381Y-118209485D02*
X122923143Y-118161866D01*
X122923143Y-118161866D02*
X122875524Y-118066628D01*
X122875524Y-118066628D02*
X122875524Y-118019009D01*
X122875524Y-118019009D02*
X122923143Y-117923771D01*
X122923143Y-117923771D02*
X123018381Y-117876152D01*
X123018381Y-117876152D02*
X123161238Y-117876152D01*
X123161238Y-117876152D02*
X123256476Y-117923771D01*
X123637429Y-117876152D02*
X123827905Y-118542819D01*
X123827905Y-118542819D02*
X124018381Y-118066628D01*
X124018381Y-118066628D02*
X124208857Y-118542819D01*
X124208857Y-118542819D02*
X124399333Y-117876152D01*
X125304095Y-118542819D02*
X124732667Y-118542819D01*
X125018381Y-118542819D02*
X125018381Y-117542819D01*
X125018381Y-117542819D02*
X124923143Y-117685676D01*
X124923143Y-117685676D02*
X124827905Y-117780914D01*
X124827905Y-117780914D02*
X124732667Y-117828533D01*
X126256476Y-118542819D02*
X125685048Y-118542819D01*
X125970762Y-118542819D02*
X125970762Y-117542819D01*
X125970762Y-117542819D02*
X125875524Y-117685676D01*
X125875524Y-117685676D02*
X125780286Y-117780914D01*
X125780286Y-117780914D02*
X125685048Y-117828533D01*
X159160166Y-62732819D02*
X159160166Y-63447104D01*
X159160166Y-63447104D02*
X159112547Y-63589961D01*
X159112547Y-63589961D02*
X159017309Y-63685200D01*
X159017309Y-63685200D02*
X158874452Y-63732819D01*
X158874452Y-63732819D02*
X158779214Y-63732819D01*
X160160166Y-63732819D02*
X159588738Y-63732819D01*
X159874452Y-63732819D02*
X159874452Y-62732819D01*
X159874452Y-62732819D02*
X159779214Y-62875676D01*
X159779214Y-62875676D02*
X159683976Y-62970914D01*
X159683976Y-62970914D02*
X159588738Y-63018533D01*
X113164905Y-90414819D02*
X113164905Y-89414819D01*
X113164905Y-89414819D02*
X113403000Y-89414819D01*
X113403000Y-89414819D02*
X113545857Y-89462438D01*
X113545857Y-89462438D02*
X113641095Y-89557676D01*
X113641095Y-89557676D02*
X113688714Y-89652914D01*
X113688714Y-89652914D02*
X113736333Y-89843390D01*
X113736333Y-89843390D02*
X113736333Y-89986247D01*
X113736333Y-89986247D02*
X113688714Y-90176723D01*
X113688714Y-90176723D02*
X113641095Y-90271961D01*
X113641095Y-90271961D02*
X113545857Y-90367200D01*
X113545857Y-90367200D02*
X113403000Y-90414819D01*
X113403000Y-90414819D02*
X113164905Y-90414819D01*
X114307762Y-89843390D02*
X114212524Y-89795771D01*
X114212524Y-89795771D02*
X114164905Y-89748152D01*
X114164905Y-89748152D02*
X114117286Y-89652914D01*
X114117286Y-89652914D02*
X114117286Y-89605295D01*
X114117286Y-89605295D02*
X114164905Y-89510057D01*
X114164905Y-89510057D02*
X114212524Y-89462438D01*
X114212524Y-89462438D02*
X114307762Y-89414819D01*
X114307762Y-89414819D02*
X114498238Y-89414819D01*
X114498238Y-89414819D02*
X114593476Y-89462438D01*
X114593476Y-89462438D02*
X114641095Y-89510057D01*
X114641095Y-89510057D02*
X114688714Y-89605295D01*
X114688714Y-89605295D02*
X114688714Y-89652914D01*
X114688714Y-89652914D02*
X114641095Y-89748152D01*
X114641095Y-89748152D02*
X114593476Y-89795771D01*
X114593476Y-89795771D02*
X114498238Y-89843390D01*
X114498238Y-89843390D02*
X114307762Y-89843390D01*
X114307762Y-89843390D02*
X114212524Y-89891009D01*
X114212524Y-89891009D02*
X114164905Y-89938628D01*
X114164905Y-89938628D02*
X114117286Y-90033866D01*
X114117286Y-90033866D02*
X114117286Y-90224342D01*
X114117286Y-90224342D02*
X114164905Y-90319580D01*
X114164905Y-90319580D02*
X114212524Y-90367200D01*
X114212524Y-90367200D02*
X114307762Y-90414819D01*
X114307762Y-90414819D02*
X114498238Y-90414819D01*
X114498238Y-90414819D02*
X114593476Y-90367200D01*
X114593476Y-90367200D02*
X114641095Y-90319580D01*
X114641095Y-90319580D02*
X114688714Y-90224342D01*
X114688714Y-90224342D02*
X114688714Y-90033866D01*
X114688714Y-90033866D02*
X114641095Y-89938628D01*
X114641095Y-89938628D02*
X114593476Y-89891009D01*
X114593476Y-89891009D02*
X114498238Y-89843390D01*
X99301142Y-89306819D02*
X98967809Y-88830628D01*
X98729714Y-89306819D02*
X98729714Y-88306819D01*
X98729714Y-88306819D02*
X99110666Y-88306819D01*
X99110666Y-88306819D02*
X99205904Y-88354438D01*
X99205904Y-88354438D02*
X99253523Y-88402057D01*
X99253523Y-88402057D02*
X99301142Y-88497295D01*
X99301142Y-88497295D02*
X99301142Y-88640152D01*
X99301142Y-88640152D02*
X99253523Y-88735390D01*
X99253523Y-88735390D02*
X99205904Y-88783009D01*
X99205904Y-88783009D02*
X99110666Y-88830628D01*
X99110666Y-88830628D02*
X98729714Y-88830628D01*
X100253523Y-89306819D02*
X99682095Y-89306819D01*
X99967809Y-89306819D02*
X99967809Y-88306819D01*
X99967809Y-88306819D02*
X99872571Y-88449676D01*
X99872571Y-88449676D02*
X99777333Y-88544914D01*
X99777333Y-88544914D02*
X99682095Y-88592533D01*
X100586857Y-88306819D02*
X101205904Y-88306819D01*
X101205904Y-88306819D02*
X100872571Y-88687771D01*
X100872571Y-88687771D02*
X101015428Y-88687771D01*
X101015428Y-88687771D02*
X101110666Y-88735390D01*
X101110666Y-88735390D02*
X101158285Y-88783009D01*
X101158285Y-88783009D02*
X101205904Y-88878247D01*
X101205904Y-88878247D02*
X101205904Y-89116342D01*
X101205904Y-89116342D02*
X101158285Y-89211580D01*
X101158285Y-89211580D02*
X101110666Y-89259200D01*
X101110666Y-89259200D02*
X101015428Y-89306819D01*
X101015428Y-89306819D02*
X100729714Y-89306819D01*
X100729714Y-89306819D02*
X100634476Y-89259200D01*
X100634476Y-89259200D02*
X100586857Y-89211580D01*
X173357905Y-90414819D02*
X173357905Y-89414819D01*
X173357905Y-89414819D02*
X173596000Y-89414819D01*
X173596000Y-89414819D02*
X173738857Y-89462438D01*
X173738857Y-89462438D02*
X173834095Y-89557676D01*
X173834095Y-89557676D02*
X173881714Y-89652914D01*
X173881714Y-89652914D02*
X173929333Y-89843390D01*
X173929333Y-89843390D02*
X173929333Y-89986247D01*
X173929333Y-89986247D02*
X173881714Y-90176723D01*
X173881714Y-90176723D02*
X173834095Y-90271961D01*
X173834095Y-90271961D02*
X173738857Y-90367200D01*
X173738857Y-90367200D02*
X173596000Y-90414819D01*
X173596000Y-90414819D02*
X173357905Y-90414819D01*
X174405524Y-90414819D02*
X174596000Y-90414819D01*
X174596000Y-90414819D02*
X174691238Y-90367200D01*
X174691238Y-90367200D02*
X174738857Y-90319580D01*
X174738857Y-90319580D02*
X174834095Y-90176723D01*
X174834095Y-90176723D02*
X174881714Y-89986247D01*
X174881714Y-89986247D02*
X174881714Y-89605295D01*
X174881714Y-89605295D02*
X174834095Y-89510057D01*
X174834095Y-89510057D02*
X174786476Y-89462438D01*
X174786476Y-89462438D02*
X174691238Y-89414819D01*
X174691238Y-89414819D02*
X174500762Y-89414819D01*
X174500762Y-89414819D02*
X174405524Y-89462438D01*
X174405524Y-89462438D02*
X174357905Y-89510057D01*
X174357905Y-89510057D02*
X174310286Y-89605295D01*
X174310286Y-89605295D02*
X174310286Y-89843390D01*
X174310286Y-89843390D02*
X174357905Y-89938628D01*
X174357905Y-89938628D02*
X174405524Y-89986247D01*
X174405524Y-89986247D02*
X174500762Y-90033866D01*
X174500762Y-90033866D02*
X174691238Y-90033866D01*
X174691238Y-90033866D02*
X174786476Y-89986247D01*
X174786476Y-89986247D02*
X174834095Y-89938628D01*
X174834095Y-89938628D02*
X174881714Y-89843390D01*
X49501142Y-59614819D02*
X49167809Y-59138628D01*
X48929714Y-59614819D02*
X48929714Y-58614819D01*
X48929714Y-58614819D02*
X49310666Y-58614819D01*
X49310666Y-58614819D02*
X49405904Y-58662438D01*
X49405904Y-58662438D02*
X49453523Y-58710057D01*
X49453523Y-58710057D02*
X49501142Y-58805295D01*
X49501142Y-58805295D02*
X49501142Y-58948152D01*
X49501142Y-58948152D02*
X49453523Y-59043390D01*
X49453523Y-59043390D02*
X49405904Y-59091009D01*
X49405904Y-59091009D02*
X49310666Y-59138628D01*
X49310666Y-59138628D02*
X48929714Y-59138628D01*
X50453523Y-59614819D02*
X49882095Y-59614819D01*
X50167809Y-59614819D02*
X50167809Y-58614819D01*
X50167809Y-58614819D02*
X50072571Y-58757676D01*
X50072571Y-58757676D02*
X49977333Y-58852914D01*
X49977333Y-58852914D02*
X49882095Y-58900533D01*
X51358285Y-58614819D02*
X50882095Y-58614819D01*
X50882095Y-58614819D02*
X50834476Y-59091009D01*
X50834476Y-59091009D02*
X50882095Y-59043390D01*
X50882095Y-59043390D02*
X50977333Y-58995771D01*
X50977333Y-58995771D02*
X51215428Y-58995771D01*
X51215428Y-58995771D02*
X51310666Y-59043390D01*
X51310666Y-59043390D02*
X51358285Y-59091009D01*
X51358285Y-59091009D02*
X51405904Y-59186247D01*
X51405904Y-59186247D02*
X51405904Y-59424342D01*
X51405904Y-59424342D02*
X51358285Y-59519580D01*
X51358285Y-59519580D02*
X51310666Y-59567200D01*
X51310666Y-59567200D02*
X51215428Y-59614819D01*
X51215428Y-59614819D02*
X50977333Y-59614819D01*
X50977333Y-59614819D02*
X50882095Y-59567200D01*
X50882095Y-59567200D02*
X50834476Y-59519580D01*
X172666667Y-98657200D02*
X172809524Y-98704819D01*
X172809524Y-98704819D02*
X173047619Y-98704819D01*
X173047619Y-98704819D02*
X173142857Y-98657200D01*
X173142857Y-98657200D02*
X173190476Y-98609580D01*
X173190476Y-98609580D02*
X173238095Y-98514342D01*
X173238095Y-98514342D02*
X173238095Y-98419104D01*
X173238095Y-98419104D02*
X173190476Y-98323866D01*
X173190476Y-98323866D02*
X173142857Y-98276247D01*
X173142857Y-98276247D02*
X173047619Y-98228628D01*
X173047619Y-98228628D02*
X172857143Y-98181009D01*
X172857143Y-98181009D02*
X172761905Y-98133390D01*
X172761905Y-98133390D02*
X172714286Y-98085771D01*
X172714286Y-98085771D02*
X172666667Y-97990533D01*
X172666667Y-97990533D02*
X172666667Y-97895295D01*
X172666667Y-97895295D02*
X172714286Y-97800057D01*
X172714286Y-97800057D02*
X172761905Y-97752438D01*
X172761905Y-97752438D02*
X172857143Y-97704819D01*
X172857143Y-97704819D02*
X173095238Y-97704819D01*
X173095238Y-97704819D02*
X173238095Y-97752438D01*
X173571429Y-97704819D02*
X173809524Y-98704819D01*
X173809524Y-98704819D02*
X174000000Y-97990533D01*
X174000000Y-97990533D02*
X174190476Y-98704819D01*
X174190476Y-98704819D02*
X174428572Y-97704819D01*
X174714286Y-97704819D02*
X175380952Y-97704819D01*
X175380952Y-97704819D02*
X174952381Y-98704819D01*
X171508667Y-127105200D02*
X171651524Y-127152819D01*
X171651524Y-127152819D02*
X171889619Y-127152819D01*
X171889619Y-127152819D02*
X171984857Y-127105200D01*
X171984857Y-127105200D02*
X172032476Y-127057580D01*
X172032476Y-127057580D02*
X172080095Y-126962342D01*
X172080095Y-126962342D02*
X172080095Y-126867104D01*
X172080095Y-126867104D02*
X172032476Y-126771866D01*
X172032476Y-126771866D02*
X171984857Y-126724247D01*
X171984857Y-126724247D02*
X171889619Y-126676628D01*
X171889619Y-126676628D02*
X171699143Y-126629009D01*
X171699143Y-126629009D02*
X171603905Y-126581390D01*
X171603905Y-126581390D02*
X171556286Y-126533771D01*
X171556286Y-126533771D02*
X171508667Y-126438533D01*
X171508667Y-126438533D02*
X171508667Y-126343295D01*
X171508667Y-126343295D02*
X171556286Y-126248057D01*
X171556286Y-126248057D02*
X171603905Y-126200438D01*
X171603905Y-126200438D02*
X171699143Y-126152819D01*
X171699143Y-126152819D02*
X171937238Y-126152819D01*
X171937238Y-126152819D02*
X172080095Y-126200438D01*
X172413429Y-126152819D02*
X172651524Y-127152819D01*
X172651524Y-127152819D02*
X172842000Y-126438533D01*
X172842000Y-126438533D02*
X173032476Y-127152819D01*
X173032476Y-127152819D02*
X173270572Y-126152819D01*
X173556286Y-126152819D02*
X174175333Y-126152819D01*
X174175333Y-126152819D02*
X173842000Y-126533771D01*
X173842000Y-126533771D02*
X173984857Y-126533771D01*
X173984857Y-126533771D02*
X174080095Y-126581390D01*
X174080095Y-126581390D02*
X174127714Y-126629009D01*
X174127714Y-126629009D02*
X174175333Y-126724247D01*
X174175333Y-126724247D02*
X174175333Y-126962342D01*
X174175333Y-126962342D02*
X174127714Y-127057580D01*
X174127714Y-127057580D02*
X174080095Y-127105200D01*
X174080095Y-127105200D02*
X173984857Y-127152819D01*
X173984857Y-127152819D02*
X173699143Y-127152819D01*
X173699143Y-127152819D02*
X173603905Y-127105200D01*
X173603905Y-127105200D02*
X173556286Y-127057580D01*
X99626667Y-127105200D02*
X99769524Y-127152819D01*
X99769524Y-127152819D02*
X100007619Y-127152819D01*
X100007619Y-127152819D02*
X100102857Y-127105200D01*
X100102857Y-127105200D02*
X100150476Y-127057580D01*
X100150476Y-127057580D02*
X100198095Y-126962342D01*
X100198095Y-126962342D02*
X100198095Y-126867104D01*
X100198095Y-126867104D02*
X100150476Y-126771866D01*
X100150476Y-126771866D02*
X100102857Y-126724247D01*
X100102857Y-126724247D02*
X100007619Y-126676628D01*
X100007619Y-126676628D02*
X99817143Y-126629009D01*
X99817143Y-126629009D02*
X99721905Y-126581390D01*
X99721905Y-126581390D02*
X99674286Y-126533771D01*
X99674286Y-126533771D02*
X99626667Y-126438533D01*
X99626667Y-126438533D02*
X99626667Y-126343295D01*
X99626667Y-126343295D02*
X99674286Y-126248057D01*
X99674286Y-126248057D02*
X99721905Y-126200438D01*
X99721905Y-126200438D02*
X99817143Y-126152819D01*
X99817143Y-126152819D02*
X100055238Y-126152819D01*
X100055238Y-126152819D02*
X100198095Y-126200438D01*
X100531429Y-126152819D02*
X100769524Y-127152819D01*
X100769524Y-127152819D02*
X100960000Y-126438533D01*
X100960000Y-126438533D02*
X101150476Y-127152819D01*
X101150476Y-127152819D02*
X101388572Y-126152819D01*
X102245714Y-126152819D02*
X101769524Y-126152819D01*
X101769524Y-126152819D02*
X101721905Y-126629009D01*
X101721905Y-126629009D02*
X101769524Y-126581390D01*
X101769524Y-126581390D02*
X101864762Y-126533771D01*
X101864762Y-126533771D02*
X102102857Y-126533771D01*
X102102857Y-126533771D02*
X102198095Y-126581390D01*
X102198095Y-126581390D02*
X102245714Y-126629009D01*
X102245714Y-126629009D02*
X102293333Y-126724247D01*
X102293333Y-126724247D02*
X102293333Y-126962342D01*
X102293333Y-126962342D02*
X102245714Y-127057580D01*
X102245714Y-127057580D02*
X102198095Y-127105200D01*
X102198095Y-127105200D02*
X102102857Y-127152819D01*
X102102857Y-127152819D02*
X101864762Y-127152819D01*
X101864762Y-127152819D02*
X101769524Y-127105200D01*
X101769524Y-127105200D02*
X101721905Y-127057580D01*
X118666667Y-98657200D02*
X118809524Y-98704819D01*
X118809524Y-98704819D02*
X119047619Y-98704819D01*
X119047619Y-98704819D02*
X119142857Y-98657200D01*
X119142857Y-98657200D02*
X119190476Y-98609580D01*
X119190476Y-98609580D02*
X119238095Y-98514342D01*
X119238095Y-98514342D02*
X119238095Y-98419104D01*
X119238095Y-98419104D02*
X119190476Y-98323866D01*
X119190476Y-98323866D02*
X119142857Y-98276247D01*
X119142857Y-98276247D02*
X119047619Y-98228628D01*
X119047619Y-98228628D02*
X118857143Y-98181009D01*
X118857143Y-98181009D02*
X118761905Y-98133390D01*
X118761905Y-98133390D02*
X118714286Y-98085771D01*
X118714286Y-98085771D02*
X118666667Y-97990533D01*
X118666667Y-97990533D02*
X118666667Y-97895295D01*
X118666667Y-97895295D02*
X118714286Y-97800057D01*
X118714286Y-97800057D02*
X118761905Y-97752438D01*
X118761905Y-97752438D02*
X118857143Y-97704819D01*
X118857143Y-97704819D02*
X119095238Y-97704819D01*
X119095238Y-97704819D02*
X119238095Y-97752438D01*
X119571429Y-97704819D02*
X119809524Y-98704819D01*
X119809524Y-98704819D02*
X120000000Y-97990533D01*
X120000000Y-97990533D02*
X120190476Y-98704819D01*
X120190476Y-98704819D02*
X120428572Y-97704819D01*
X120761905Y-97800057D02*
X120809524Y-97752438D01*
X120809524Y-97752438D02*
X120904762Y-97704819D01*
X120904762Y-97704819D02*
X121142857Y-97704819D01*
X121142857Y-97704819D02*
X121238095Y-97752438D01*
X121238095Y-97752438D02*
X121285714Y-97800057D01*
X121285714Y-97800057D02*
X121333333Y-97895295D01*
X121333333Y-97895295D02*
X121333333Y-97990533D01*
X121333333Y-97990533D02*
X121285714Y-98133390D01*
X121285714Y-98133390D02*
X120714286Y-98704819D01*
X120714286Y-98704819D02*
X121333333Y-98704819D01*
X159689714Y-130692819D02*
X159689714Y-129692819D01*
X159689714Y-129692819D02*
X159927809Y-129692819D01*
X159927809Y-129692819D02*
X160070666Y-129740438D01*
X160070666Y-129740438D02*
X160165904Y-129835676D01*
X160165904Y-129835676D02*
X160213523Y-129930914D01*
X160213523Y-129930914D02*
X160261142Y-130121390D01*
X160261142Y-130121390D02*
X160261142Y-130264247D01*
X160261142Y-130264247D02*
X160213523Y-130454723D01*
X160213523Y-130454723D02*
X160165904Y-130549961D01*
X160165904Y-130549961D02*
X160070666Y-130645200D01*
X160070666Y-130645200D02*
X159927809Y-130692819D01*
X159927809Y-130692819D02*
X159689714Y-130692819D01*
X161213523Y-130692819D02*
X160642095Y-130692819D01*
X160927809Y-130692819D02*
X160927809Y-129692819D01*
X160927809Y-129692819D02*
X160832571Y-129835676D01*
X160832571Y-129835676D02*
X160737333Y-129930914D01*
X160737333Y-129930914D02*
X160642095Y-129978533D01*
X161689714Y-130692819D02*
X161880190Y-130692819D01*
X161880190Y-130692819D02*
X161975428Y-130645200D01*
X161975428Y-130645200D02*
X162023047Y-130597580D01*
X162023047Y-130597580D02*
X162118285Y-130454723D01*
X162118285Y-130454723D02*
X162165904Y-130264247D01*
X162165904Y-130264247D02*
X162165904Y-129883295D01*
X162165904Y-129883295D02*
X162118285Y-129788057D01*
X162118285Y-129788057D02*
X162070666Y-129740438D01*
X162070666Y-129740438D02*
X161975428Y-129692819D01*
X161975428Y-129692819D02*
X161784952Y-129692819D01*
X161784952Y-129692819D02*
X161689714Y-129740438D01*
X161689714Y-129740438D02*
X161642095Y-129788057D01*
X161642095Y-129788057D02*
X161594476Y-129883295D01*
X161594476Y-129883295D02*
X161594476Y-130121390D01*
X161594476Y-130121390D02*
X161642095Y-130216628D01*
X161642095Y-130216628D02*
X161689714Y-130264247D01*
X161689714Y-130264247D02*
X161784952Y-130311866D01*
X161784952Y-130311866D02*
X161975428Y-130311866D01*
X161975428Y-130311866D02*
X162070666Y-130264247D01*
X162070666Y-130264247D02*
X162118285Y-130216628D01*
X162118285Y-130216628D02*
X162165904Y-130121390D01*
X90569905Y-110502819D02*
X90569905Y-109502819D01*
X90569905Y-109502819D02*
X90808000Y-109502819D01*
X90808000Y-109502819D02*
X90950857Y-109550438D01*
X90950857Y-109550438D02*
X91046095Y-109645676D01*
X91046095Y-109645676D02*
X91093714Y-109740914D01*
X91093714Y-109740914D02*
X91141333Y-109931390D01*
X91141333Y-109931390D02*
X91141333Y-110074247D01*
X91141333Y-110074247D02*
X91093714Y-110264723D01*
X91093714Y-110264723D02*
X91046095Y-110359961D01*
X91046095Y-110359961D02*
X90950857Y-110455200D01*
X90950857Y-110455200D02*
X90808000Y-110502819D01*
X90808000Y-110502819D02*
X90569905Y-110502819D01*
X92046095Y-109502819D02*
X91569905Y-109502819D01*
X91569905Y-109502819D02*
X91522286Y-109979009D01*
X91522286Y-109979009D02*
X91569905Y-109931390D01*
X91569905Y-109931390D02*
X91665143Y-109883771D01*
X91665143Y-109883771D02*
X91903238Y-109883771D01*
X91903238Y-109883771D02*
X91998476Y-109931390D01*
X91998476Y-109931390D02*
X92046095Y-109979009D01*
X92046095Y-109979009D02*
X92093714Y-110074247D01*
X92093714Y-110074247D02*
X92093714Y-110312342D01*
X92093714Y-110312342D02*
X92046095Y-110407580D01*
X92046095Y-110407580D02*
X91998476Y-110455200D01*
X91998476Y-110455200D02*
X91903238Y-110502819D01*
X91903238Y-110502819D02*
X91665143Y-110502819D01*
X91665143Y-110502819D02*
X91569905Y-110455200D01*
X91569905Y-110455200D02*
X91522286Y-110407580D01*
X155323905Y-90414819D02*
X155323905Y-89414819D01*
X155323905Y-89414819D02*
X155562000Y-89414819D01*
X155562000Y-89414819D02*
X155704857Y-89462438D01*
X155704857Y-89462438D02*
X155800095Y-89557676D01*
X155800095Y-89557676D02*
X155847714Y-89652914D01*
X155847714Y-89652914D02*
X155895333Y-89843390D01*
X155895333Y-89843390D02*
X155895333Y-89986247D01*
X155895333Y-89986247D02*
X155847714Y-90176723D01*
X155847714Y-90176723D02*
X155800095Y-90271961D01*
X155800095Y-90271961D02*
X155704857Y-90367200D01*
X155704857Y-90367200D02*
X155562000Y-90414819D01*
X155562000Y-90414819D02*
X155323905Y-90414819D01*
X156228667Y-89414819D02*
X156847714Y-89414819D01*
X156847714Y-89414819D02*
X156514381Y-89795771D01*
X156514381Y-89795771D02*
X156657238Y-89795771D01*
X156657238Y-89795771D02*
X156752476Y-89843390D01*
X156752476Y-89843390D02*
X156800095Y-89891009D01*
X156800095Y-89891009D02*
X156847714Y-89986247D01*
X156847714Y-89986247D02*
X156847714Y-90224342D01*
X156847714Y-90224342D02*
X156800095Y-90319580D01*
X156800095Y-90319580D02*
X156752476Y-90367200D01*
X156752476Y-90367200D02*
X156657238Y-90414819D01*
X156657238Y-90414819D02*
X156371524Y-90414819D01*
X156371524Y-90414819D02*
X156276286Y-90367200D01*
X156276286Y-90367200D02*
X156228667Y-90319580D01*
X54501905Y-110388819D02*
X54501905Y-109388819D01*
X54501905Y-109388819D02*
X54740000Y-109388819D01*
X54740000Y-109388819D02*
X54882857Y-109436438D01*
X54882857Y-109436438D02*
X54978095Y-109531676D01*
X54978095Y-109531676D02*
X55025714Y-109626914D01*
X55025714Y-109626914D02*
X55073333Y-109817390D01*
X55073333Y-109817390D02*
X55073333Y-109960247D01*
X55073333Y-109960247D02*
X55025714Y-110150723D01*
X55025714Y-110150723D02*
X54978095Y-110245961D01*
X54978095Y-110245961D02*
X54882857Y-110341200D01*
X54882857Y-110341200D02*
X54740000Y-110388819D01*
X54740000Y-110388819D02*
X54501905Y-110388819D01*
X55930476Y-109722152D02*
X55930476Y-110388819D01*
X55692381Y-109341200D02*
X55454286Y-110055485D01*
X55454286Y-110055485D02*
X56073333Y-110055485D01*
X122978666Y-62686819D02*
X122978666Y-63401104D01*
X122978666Y-63401104D02*
X122931047Y-63543961D01*
X122931047Y-63543961D02*
X122835809Y-63639200D01*
X122835809Y-63639200D02*
X122692952Y-63686819D01*
X122692952Y-63686819D02*
X122597714Y-63686819D01*
X123407238Y-62782057D02*
X123454857Y-62734438D01*
X123454857Y-62734438D02*
X123550095Y-62686819D01*
X123550095Y-62686819D02*
X123788190Y-62686819D01*
X123788190Y-62686819D02*
X123883428Y-62734438D01*
X123883428Y-62734438D02*
X123931047Y-62782057D01*
X123931047Y-62782057D02*
X123978666Y-62877295D01*
X123978666Y-62877295D02*
X123978666Y-62972533D01*
X123978666Y-62972533D02*
X123931047Y-63115390D01*
X123931047Y-63115390D02*
X123359619Y-63686819D01*
X123359619Y-63686819D02*
X123978666Y-63686819D01*
X55787714Y-117738819D02*
X55787714Y-116738819D01*
X55787714Y-116738819D02*
X56025809Y-116738819D01*
X56025809Y-116738819D02*
X56168666Y-116786438D01*
X56168666Y-116786438D02*
X56263904Y-116881676D01*
X56263904Y-116881676D02*
X56311523Y-116976914D01*
X56311523Y-116976914D02*
X56359142Y-117167390D01*
X56359142Y-117167390D02*
X56359142Y-117310247D01*
X56359142Y-117310247D02*
X56311523Y-117500723D01*
X56311523Y-117500723D02*
X56263904Y-117595961D01*
X56263904Y-117595961D02*
X56168666Y-117691200D01*
X56168666Y-117691200D02*
X56025809Y-117738819D01*
X56025809Y-117738819D02*
X55787714Y-117738819D01*
X57311523Y-117738819D02*
X56740095Y-117738819D01*
X57025809Y-117738819D02*
X57025809Y-116738819D01*
X57025809Y-116738819D02*
X56930571Y-116881676D01*
X56930571Y-116881676D02*
X56835333Y-116976914D01*
X56835333Y-116976914D02*
X56740095Y-117024533D01*
X57692476Y-116834057D02*
X57740095Y-116786438D01*
X57740095Y-116786438D02*
X57835333Y-116738819D01*
X57835333Y-116738819D02*
X58073428Y-116738819D01*
X58073428Y-116738819D02*
X58168666Y-116786438D01*
X58168666Y-116786438D02*
X58216285Y-116834057D01*
X58216285Y-116834057D02*
X58263904Y-116929295D01*
X58263904Y-116929295D02*
X58263904Y-117024533D01*
X58263904Y-117024533D02*
X58216285Y-117167390D01*
X58216285Y-117167390D02*
X57644857Y-117738819D01*
X57644857Y-117738819D02*
X58263904Y-117738819D01*
X136666667Y-98657200D02*
X136809524Y-98704819D01*
X136809524Y-98704819D02*
X137047619Y-98704819D01*
X137047619Y-98704819D02*
X137142857Y-98657200D01*
X137142857Y-98657200D02*
X137190476Y-98609580D01*
X137190476Y-98609580D02*
X137238095Y-98514342D01*
X137238095Y-98514342D02*
X137238095Y-98419104D01*
X137238095Y-98419104D02*
X137190476Y-98323866D01*
X137190476Y-98323866D02*
X137142857Y-98276247D01*
X137142857Y-98276247D02*
X137047619Y-98228628D01*
X137047619Y-98228628D02*
X136857143Y-98181009D01*
X136857143Y-98181009D02*
X136761905Y-98133390D01*
X136761905Y-98133390D02*
X136714286Y-98085771D01*
X136714286Y-98085771D02*
X136666667Y-97990533D01*
X136666667Y-97990533D02*
X136666667Y-97895295D01*
X136666667Y-97895295D02*
X136714286Y-97800057D01*
X136714286Y-97800057D02*
X136761905Y-97752438D01*
X136761905Y-97752438D02*
X136857143Y-97704819D01*
X136857143Y-97704819D02*
X137095238Y-97704819D01*
X137095238Y-97704819D02*
X137238095Y-97752438D01*
X137571429Y-97704819D02*
X137809524Y-98704819D01*
X137809524Y-98704819D02*
X138000000Y-97990533D01*
X138000000Y-97990533D02*
X138190476Y-98704819D01*
X138190476Y-98704819D02*
X138428572Y-97704819D01*
X139333333Y-98704819D02*
X138761905Y-98704819D01*
X139047619Y-98704819D02*
X139047619Y-97704819D01*
X139047619Y-97704819D02*
X138952381Y-97847676D01*
X138952381Y-97847676D02*
X138857143Y-97942914D01*
X138857143Y-97942914D02*
X138761905Y-97990533D01*
X134246905Y-90414819D02*
X134246905Y-89414819D01*
X134246905Y-89414819D02*
X134485000Y-89414819D01*
X134485000Y-89414819D02*
X134627857Y-89462438D01*
X134627857Y-89462438D02*
X134723095Y-89557676D01*
X134723095Y-89557676D02*
X134770714Y-89652914D01*
X134770714Y-89652914D02*
X134818333Y-89843390D01*
X134818333Y-89843390D02*
X134818333Y-89986247D01*
X134818333Y-89986247D02*
X134770714Y-90176723D01*
X134770714Y-90176723D02*
X134723095Y-90271961D01*
X134723095Y-90271961D02*
X134627857Y-90367200D01*
X134627857Y-90367200D02*
X134485000Y-90414819D01*
X134485000Y-90414819D02*
X134246905Y-90414819D01*
X135199286Y-89510057D02*
X135246905Y-89462438D01*
X135246905Y-89462438D02*
X135342143Y-89414819D01*
X135342143Y-89414819D02*
X135580238Y-89414819D01*
X135580238Y-89414819D02*
X135675476Y-89462438D01*
X135675476Y-89462438D02*
X135723095Y-89510057D01*
X135723095Y-89510057D02*
X135770714Y-89605295D01*
X135770714Y-89605295D02*
X135770714Y-89700533D01*
X135770714Y-89700533D02*
X135723095Y-89843390D01*
X135723095Y-89843390D02*
X135151667Y-90414819D01*
X135151667Y-90414819D02*
X135770714Y-90414819D01*
X163753714Y-117712819D02*
X163753714Y-116712819D01*
X163753714Y-116712819D02*
X163991809Y-116712819D01*
X163991809Y-116712819D02*
X164134666Y-116760438D01*
X164134666Y-116760438D02*
X164229904Y-116855676D01*
X164229904Y-116855676D02*
X164277523Y-116950914D01*
X164277523Y-116950914D02*
X164325142Y-117141390D01*
X164325142Y-117141390D02*
X164325142Y-117284247D01*
X164325142Y-117284247D02*
X164277523Y-117474723D01*
X164277523Y-117474723D02*
X164229904Y-117569961D01*
X164229904Y-117569961D02*
X164134666Y-117665200D01*
X164134666Y-117665200D02*
X163991809Y-117712819D01*
X163991809Y-117712819D02*
X163753714Y-117712819D01*
X165277523Y-117712819D02*
X164706095Y-117712819D01*
X164991809Y-117712819D02*
X164991809Y-116712819D01*
X164991809Y-116712819D02*
X164896571Y-116855676D01*
X164896571Y-116855676D02*
X164801333Y-116950914D01*
X164801333Y-116950914D02*
X164706095Y-116998533D01*
X166182285Y-116712819D02*
X165706095Y-116712819D01*
X165706095Y-116712819D02*
X165658476Y-117189009D01*
X165658476Y-117189009D02*
X165706095Y-117141390D01*
X165706095Y-117141390D02*
X165801333Y-117093771D01*
X165801333Y-117093771D02*
X166039428Y-117093771D01*
X166039428Y-117093771D02*
X166134666Y-117141390D01*
X166134666Y-117141390D02*
X166182285Y-117189009D01*
X166182285Y-117189009D02*
X166229904Y-117284247D01*
X166229904Y-117284247D02*
X166229904Y-117522342D01*
X166229904Y-117522342D02*
X166182285Y-117617580D01*
X166182285Y-117617580D02*
X166134666Y-117665200D01*
X166134666Y-117665200D02*
X166039428Y-117712819D01*
X166039428Y-117712819D02*
X165801333Y-117712819D01*
X165801333Y-117712819D02*
X165706095Y-117665200D01*
X165706095Y-117665200D02*
X165658476Y-117617580D01*
X51485714Y-130692819D02*
X51485714Y-129692819D01*
X51485714Y-129692819D02*
X51723809Y-129692819D01*
X51723809Y-129692819D02*
X51866666Y-129740438D01*
X51866666Y-129740438D02*
X51961904Y-129835676D01*
X51961904Y-129835676D02*
X52009523Y-129930914D01*
X52009523Y-129930914D02*
X52057142Y-130121390D01*
X52057142Y-130121390D02*
X52057142Y-130264247D01*
X52057142Y-130264247D02*
X52009523Y-130454723D01*
X52009523Y-130454723D02*
X51961904Y-130549961D01*
X51961904Y-130549961D02*
X51866666Y-130645200D01*
X51866666Y-130645200D02*
X51723809Y-130692819D01*
X51723809Y-130692819D02*
X51485714Y-130692819D01*
X53009523Y-130692819D02*
X52438095Y-130692819D01*
X52723809Y-130692819D02*
X52723809Y-129692819D01*
X52723809Y-129692819D02*
X52628571Y-129835676D01*
X52628571Y-129835676D02*
X52533333Y-129930914D01*
X52533333Y-129930914D02*
X52438095Y-129978533D01*
X53866666Y-129692819D02*
X53676190Y-129692819D01*
X53676190Y-129692819D02*
X53580952Y-129740438D01*
X53580952Y-129740438D02*
X53533333Y-129788057D01*
X53533333Y-129788057D02*
X53438095Y-129930914D01*
X53438095Y-129930914D02*
X53390476Y-130121390D01*
X53390476Y-130121390D02*
X53390476Y-130502342D01*
X53390476Y-130502342D02*
X53438095Y-130597580D01*
X53438095Y-130597580D02*
X53485714Y-130645200D01*
X53485714Y-130645200D02*
X53580952Y-130692819D01*
X53580952Y-130692819D02*
X53771428Y-130692819D01*
X53771428Y-130692819D02*
X53866666Y-130645200D01*
X53866666Y-130645200D02*
X53914285Y-130597580D01*
X53914285Y-130597580D02*
X53961904Y-130502342D01*
X53961904Y-130502342D02*
X53961904Y-130264247D01*
X53961904Y-130264247D02*
X53914285Y-130169009D01*
X53914285Y-130169009D02*
X53866666Y-130121390D01*
X53866666Y-130121390D02*
X53771428Y-130073771D01*
X53771428Y-130073771D02*
X53580952Y-130073771D01*
X53580952Y-130073771D02*
X53485714Y-130121390D01*
X53485714Y-130121390D02*
X53438095Y-130169009D01*
X53438095Y-130169009D02*
X53390476Y-130264247D01*
X154666667Y-98657200D02*
X154809524Y-98704819D01*
X154809524Y-98704819D02*
X155047619Y-98704819D01*
X155047619Y-98704819D02*
X155142857Y-98657200D01*
X155142857Y-98657200D02*
X155190476Y-98609580D01*
X155190476Y-98609580D02*
X155238095Y-98514342D01*
X155238095Y-98514342D02*
X155238095Y-98419104D01*
X155238095Y-98419104D02*
X155190476Y-98323866D01*
X155190476Y-98323866D02*
X155142857Y-98276247D01*
X155142857Y-98276247D02*
X155047619Y-98228628D01*
X155047619Y-98228628D02*
X154857143Y-98181009D01*
X154857143Y-98181009D02*
X154761905Y-98133390D01*
X154761905Y-98133390D02*
X154714286Y-98085771D01*
X154714286Y-98085771D02*
X154666667Y-97990533D01*
X154666667Y-97990533D02*
X154666667Y-97895295D01*
X154666667Y-97895295D02*
X154714286Y-97800057D01*
X154714286Y-97800057D02*
X154761905Y-97752438D01*
X154761905Y-97752438D02*
X154857143Y-97704819D01*
X154857143Y-97704819D02*
X155095238Y-97704819D01*
X155095238Y-97704819D02*
X155238095Y-97752438D01*
X155571429Y-97704819D02*
X155809524Y-98704819D01*
X155809524Y-98704819D02*
X156000000Y-97990533D01*
X156000000Y-97990533D02*
X156190476Y-98704819D01*
X156190476Y-98704819D02*
X156428572Y-97704819D01*
X156952381Y-98133390D02*
X156857143Y-98085771D01*
X156857143Y-98085771D02*
X156809524Y-98038152D01*
X156809524Y-98038152D02*
X156761905Y-97942914D01*
X156761905Y-97942914D02*
X156761905Y-97895295D01*
X156761905Y-97895295D02*
X156809524Y-97800057D01*
X156809524Y-97800057D02*
X156857143Y-97752438D01*
X156857143Y-97752438D02*
X156952381Y-97704819D01*
X156952381Y-97704819D02*
X157142857Y-97704819D01*
X157142857Y-97704819D02*
X157238095Y-97752438D01*
X157238095Y-97752438D02*
X157285714Y-97800057D01*
X157285714Y-97800057D02*
X157333333Y-97895295D01*
X157333333Y-97895295D02*
X157333333Y-97942914D01*
X157333333Y-97942914D02*
X157285714Y-98038152D01*
X157285714Y-98038152D02*
X157238095Y-98085771D01*
X157238095Y-98085771D02*
X157142857Y-98133390D01*
X157142857Y-98133390D02*
X156952381Y-98133390D01*
X156952381Y-98133390D02*
X156857143Y-98181009D01*
X156857143Y-98181009D02*
X156809524Y-98228628D01*
X156809524Y-98228628D02*
X156761905Y-98323866D01*
X156761905Y-98323866D02*
X156761905Y-98514342D01*
X156761905Y-98514342D02*
X156809524Y-98609580D01*
X156809524Y-98609580D02*
X156857143Y-98657200D01*
X156857143Y-98657200D02*
X156952381Y-98704819D01*
X156952381Y-98704819D02*
X157142857Y-98704819D01*
X157142857Y-98704819D02*
X157238095Y-98657200D01*
X157238095Y-98657200D02*
X157285714Y-98609580D01*
X157285714Y-98609580D02*
X157333333Y-98514342D01*
X157333333Y-98514342D02*
X157333333Y-98323866D01*
X157333333Y-98323866D02*
X157285714Y-98228628D01*
X157285714Y-98228628D02*
X157238095Y-98181009D01*
X157238095Y-98181009D02*
X157142857Y-98133390D01*
X171404761Y-69854819D02*
X171071428Y-69378628D01*
X170833333Y-69854819D02*
X170833333Y-68854819D01*
X170833333Y-68854819D02*
X171214285Y-68854819D01*
X171214285Y-68854819D02*
X171309523Y-68902438D01*
X171309523Y-68902438D02*
X171357142Y-68950057D01*
X171357142Y-68950057D02*
X171404761Y-69045295D01*
X171404761Y-69045295D02*
X171404761Y-69188152D01*
X171404761Y-69188152D02*
X171357142Y-69283390D01*
X171357142Y-69283390D02*
X171309523Y-69331009D01*
X171309523Y-69331009D02*
X171214285Y-69378628D01*
X171214285Y-69378628D02*
X170833333Y-69378628D01*
X171690476Y-68854819D02*
X172023809Y-69854819D01*
X172023809Y-69854819D02*
X172357142Y-68854819D01*
X173119047Y-68854819D02*
X172928571Y-68854819D01*
X172928571Y-68854819D02*
X172833333Y-68902438D01*
X172833333Y-68902438D02*
X172785714Y-68950057D01*
X172785714Y-68950057D02*
X172690476Y-69092914D01*
X172690476Y-69092914D02*
X172642857Y-69283390D01*
X172642857Y-69283390D02*
X172642857Y-69664342D01*
X172642857Y-69664342D02*
X172690476Y-69759580D01*
X172690476Y-69759580D02*
X172738095Y-69807200D01*
X172738095Y-69807200D02*
X172833333Y-69854819D01*
X172833333Y-69854819D02*
X173023809Y-69854819D01*
X173023809Y-69854819D02*
X173119047Y-69807200D01*
X173119047Y-69807200D02*
X173166666Y-69759580D01*
X173166666Y-69759580D02*
X173214285Y-69664342D01*
X173214285Y-69664342D02*
X173214285Y-69426247D01*
X173214285Y-69426247D02*
X173166666Y-69331009D01*
X173166666Y-69331009D02*
X173119047Y-69283390D01*
X173119047Y-69283390D02*
X173023809Y-69235771D01*
X173023809Y-69235771D02*
X172833333Y-69235771D01*
X172833333Y-69235771D02*
X172738095Y-69283390D01*
X172738095Y-69283390D02*
X172690476Y-69331009D01*
X172690476Y-69331009D02*
X172642857Y-69426247D01*
D11*
%TO.C,D6*%
X127446000Y-111772000D02*
X127446000Y-111928000D01*
X127446000Y-114088000D02*
X127446000Y-114244000D01*
X127446000Y-111772484D02*
G75*
G02*
X130678335Y-111929392I1560000J-1235516D01*
G01*
X127965039Y-111928000D02*
G75*
G02*
X130047130Y-111928163I1040961J-1080000D01*
G01*
X130047130Y-114087837D02*
G75*
G02*
X127965039Y-114088000I-1041130J1079837D01*
G01*
X130678335Y-114086608D02*
G75*
G02*
X127446000Y-114243516I-1672335J1078608D01*
G01*
%TO.C,D18*%
X126615000Y-127849000D02*
X126615000Y-130119000D01*
X126615000Y-130119000D02*
X130500000Y-130119000D01*
X130500000Y-127849000D02*
X126615000Y-127849000D01*
%TO.C,R14*%
X51979000Y-88330000D02*
X62020000Y-88330000D01*
X51979000Y-92266000D02*
X51979000Y-88330000D01*
X51979000Y-100570000D02*
X51979000Y-96633000D01*
X51979000Y-100570000D02*
X53300000Y-100570000D01*
X55750000Y-100570000D02*
X56130000Y-100570000D01*
X57871000Y-100570000D02*
X58630000Y-100570000D01*
X60370000Y-100570000D02*
X62020000Y-100570000D01*
X62020000Y-92266000D02*
X62020000Y-88330000D01*
X62020000Y-100570000D02*
X62020000Y-96633000D01*
%TO.C,SW4*%
X125500000Y-123250000D02*
X125500000Y-124750000D01*
X126750000Y-127250000D02*
X131250000Y-127250000D01*
X131250000Y-120750000D02*
X126750000Y-120750000D01*
X132500000Y-124750000D02*
X132500000Y-123250000D01*
%TO.C,SW6*%
X53500000Y-123250000D02*
X53500000Y-124750000D01*
X54750000Y-127250000D02*
X59250000Y-127250000D01*
X59250000Y-120750000D02*
X54750000Y-120750000D01*
X60500000Y-124750000D02*
X60500000Y-123250000D01*
%TO.C,D17*%
X90801000Y-127849000D02*
X90801000Y-130119000D01*
X90801000Y-130119000D02*
X94686000Y-130119000D01*
X94686000Y-127849000D02*
X90801000Y-127849000D01*
%TO.C,D10*%
X121559000Y-85920000D02*
X121559000Y-85764000D01*
X121559000Y-88236000D02*
X121559000Y-88080000D01*
X118326665Y-85921392D02*
G75*
G02*
X121559000Y-85764484I1672335J-1078608D01*
G01*
X118957870Y-85920163D02*
G75*
G02*
X121039961Y-85920000I1041130J-1079837D01*
G01*
X121039961Y-88080000D02*
G75*
G02*
X118957870Y-88079837I-1040961J1080000D01*
G01*
X121559000Y-88235516D02*
G75*
G02*
X118326665Y-88078608I-1560000J1235516D01*
G01*
%TO.C,D14*%
X126615000Y-117969000D02*
X126615000Y-120239000D01*
X126615000Y-120239000D02*
X130500000Y-120239000D01*
X130500000Y-117969000D02*
X126615000Y-117969000D01*
%TO.C,D7*%
X163387000Y-111772000D02*
X163387000Y-111928000D01*
X163387000Y-114088000D02*
X163387000Y-114244000D01*
X163387000Y-111772484D02*
G75*
G02*
X166619335Y-111929392I1560000J-1235516D01*
G01*
X163906039Y-111928000D02*
G75*
G02*
X165988130Y-111928163I1040961J-1080000D01*
G01*
X165988130Y-114087837D02*
G75*
G02*
X163906039Y-114088000I-1041130J1079837D01*
G01*
X166619335Y-114086608D02*
G75*
G02*
X163387000Y-114243516I-1672335J1078608D01*
G01*
%TO.C,D1*%
X142641000Y-85920000D02*
X142641000Y-85764000D01*
X142641000Y-88236000D02*
X142641000Y-88080000D01*
X139408665Y-85921392D02*
G75*
G02*
X142641000Y-85764484I1672335J-1078608D01*
G01*
X140039870Y-85920163D02*
G75*
G02*
X142121961Y-85920000I1041130J-1079837D01*
G01*
X142121961Y-88080000D02*
G75*
G02*
X140039870Y-88079837I-1040961J1080000D01*
G01*
X142641000Y-88235516D02*
G75*
G02*
X139408665Y-88078608I-1560000J1235516D01*
G01*
%TO.C,D13*%
X90785000Y-117969000D02*
X90785000Y-120239000D01*
X90785000Y-120239000D02*
X94670000Y-120239000D01*
X94670000Y-117969000D02*
X90785000Y-117969000D01*
%TO.C,sw9*%
X52000000Y-119000000D02*
X62000000Y-119000000D01*
X52000000Y-129000000D02*
X52000000Y-119000000D01*
X62000000Y-119000000D02*
X62000000Y-129000000D01*
X62000000Y-129000000D02*
X52000000Y-129000000D01*
X60250000Y-124000000D02*
G75*
G02*
X53750000Y-124000000I-3250000J0D01*
G01*
X53750000Y-124000000D02*
G75*
G02*
X60250000Y-124000000I3250000J0D01*
G01*
%TO.C,D11*%
X127655000Y-85920000D02*
X127655000Y-85764000D01*
X127655000Y-88236000D02*
X127655000Y-88080000D01*
X124422665Y-85921392D02*
G75*
G02*
X127655000Y-85764484I1672335J-1078608D01*
G01*
X125053870Y-85920163D02*
G75*
G02*
X127135961Y-85920000I1041130J-1079837D01*
G01*
X127135961Y-88080000D02*
G75*
G02*
X125053870Y-88079837I-1040961J1080000D01*
G01*
X127655000Y-88235516D02*
G75*
G02*
X124422665Y-88078608I-1560000J1235516D01*
G01*
%TO.C,RV5*%
X87979000Y-58330000D02*
X98020000Y-58330000D01*
X87979000Y-62266000D02*
X87979000Y-58330000D01*
X87979000Y-70570000D02*
X87979000Y-66633000D01*
X87979000Y-70570000D02*
X89300000Y-70570000D01*
X91750000Y-70570000D02*
X92130000Y-70570000D01*
X93871000Y-70570000D02*
X94630000Y-70570000D01*
X96370000Y-70570000D02*
X98020000Y-70570000D01*
X98020000Y-62266000D02*
X98020000Y-58330000D01*
X98020000Y-70570000D02*
X98020000Y-66633000D01*
%TO.C,sw10*%
X88000000Y-119000000D02*
X98000000Y-119000000D01*
X88000000Y-129000000D02*
X88000000Y-119000000D01*
X98000000Y-119000000D02*
X98000000Y-129000000D01*
X98000000Y-129000000D02*
X88000000Y-129000000D01*
X96250000Y-124000000D02*
G75*
G02*
X89750000Y-124000000I-3250000J0D01*
G01*
X89750000Y-124000000D02*
G75*
G02*
X96250000Y-124000000I3250000J0D01*
G01*
%TO.C,sw12*%
X160000000Y-119000000D02*
X170000000Y-119000000D01*
X160000000Y-129000000D02*
X160000000Y-119000000D01*
X170000000Y-119000000D02*
X170000000Y-129000000D01*
X170000000Y-129000000D02*
X160000000Y-129000000D01*
X168250000Y-124000000D02*
G75*
G02*
X161750000Y-124000000I-3250000J0D01*
G01*
X161750000Y-124000000D02*
G75*
G02*
X168250000Y-124000000I3250000J0D01*
G01*
%TO.C,RV4*%
X134020000Y-70570000D02*
X134020000Y-66633000D01*
X134020000Y-62266000D02*
X134020000Y-58330000D01*
X132370000Y-70570000D02*
X134020000Y-70570000D01*
X129871000Y-70570000D02*
X130630000Y-70570000D01*
X127750000Y-70570000D02*
X128130000Y-70570000D01*
X123979000Y-70570000D02*
X125300000Y-70570000D01*
X123979000Y-70570000D02*
X123979000Y-66633000D01*
X123979000Y-62266000D02*
X123979000Y-58330000D01*
X123979000Y-58330000D02*
X134020000Y-58330000D01*
%TO.C,sw11*%
X124000000Y-119000000D02*
X134000000Y-119000000D01*
X124000000Y-129000000D02*
X124000000Y-119000000D01*
X134000000Y-119000000D02*
X134000000Y-129000000D01*
X134000000Y-129000000D02*
X124000000Y-129000000D01*
X132250000Y-124000000D02*
G75*
G02*
X125750000Y-124000000I-3250000J0D01*
G01*
X125750000Y-124000000D02*
G75*
G02*
X132250000Y-124000000I3250000J0D01*
G01*
%TO.C,J1*%
X144642000Y-53756000D02*
X144642000Y-54756000D01*
X144642000Y-54756000D02*
X145192000Y-54256000D01*
X145192000Y-54256000D02*
X144642000Y-53756000D01*
D10*
X145692000Y-48456000D02*
X157492000Y-48456000D01*
X145692000Y-52006000D02*
X145692000Y-48456000D01*
X145692000Y-60256000D02*
X145692000Y-56506000D01*
X145692000Y-62956000D02*
X145692000Y-62856000D01*
X148192000Y-44856000D02*
X148192000Y-48456000D01*
X154392000Y-44856000D02*
X148192000Y-44856000D01*
X154392000Y-48456000D02*
X154392000Y-44856000D01*
X157492000Y-48456000D02*
X157492000Y-56206000D01*
X157492000Y-60556000D02*
X157492000Y-62956000D01*
X157492000Y-62956000D02*
X145692000Y-62956000D01*
D11*
%TO.C,D8*%
X115463000Y-85920000D02*
X115463000Y-85764000D01*
X115463000Y-88236000D02*
X115463000Y-88080000D01*
X112230665Y-85921392D02*
G75*
G02*
X115463000Y-85764484I1672335J-1078608D01*
G01*
X112861870Y-85920163D02*
G75*
G02*
X114943961Y-85920000I1041130J-1079837D01*
G01*
X114943961Y-88080000D02*
G75*
G02*
X112861870Y-88079837I-1040961J1080000D01*
G01*
X115463000Y-88235516D02*
G75*
G02*
X112230665Y-88078608I-1560000J1235516D01*
G01*
%TO.C,R13*%
X87979000Y-88330000D02*
X98020000Y-88330000D01*
X87979000Y-92266000D02*
X87979000Y-88330000D01*
X87979000Y-100570000D02*
X87979000Y-96633000D01*
X87979000Y-100570000D02*
X89300000Y-100570000D01*
X91750000Y-100570000D02*
X92130000Y-100570000D01*
X93871000Y-100570000D02*
X94630000Y-100570000D01*
X96370000Y-100570000D02*
X98020000Y-100570000D01*
X98020000Y-92266000D02*
X98020000Y-88330000D01*
X98020000Y-100570000D02*
X98020000Y-96633000D01*
%TO.C,D9*%
X175656000Y-85920000D02*
X175656000Y-85764000D01*
X175656000Y-88236000D02*
X175656000Y-88080000D01*
X172423665Y-85921392D02*
G75*
G02*
X175656000Y-85764484I1672335J-1078608D01*
G01*
X173054870Y-85920163D02*
G75*
G02*
X175136961Y-85920000I1041130J-1079837D01*
G01*
X175136961Y-88080000D02*
G75*
G02*
X173054870Y-88079837I-1040961J1080000D01*
G01*
X175656000Y-88235516D02*
G75*
G02*
X172423665Y-88078608I-1560000J1235516D01*
G01*
%TO.C,R15*%
X51979000Y-58330000D02*
X62020000Y-58330000D01*
X51979000Y-62266000D02*
X51979000Y-58330000D01*
X51979000Y-70570000D02*
X51979000Y-66633000D01*
X51979000Y-70570000D02*
X53300000Y-70570000D01*
X55750000Y-70570000D02*
X56130000Y-70570000D01*
X57871000Y-70570000D02*
X58630000Y-70570000D01*
X60370000Y-70570000D02*
X62020000Y-70570000D01*
X62020000Y-62266000D02*
X62020000Y-58330000D01*
X62020000Y-70570000D02*
X62020000Y-66633000D01*
%TO.C,SW7*%
X170500000Y-93250000D02*
X170500000Y-94750000D01*
X171750000Y-97250000D02*
X176250000Y-97250000D01*
X176250000Y-90750000D02*
X171750000Y-90750000D01*
X177500000Y-94750000D02*
X177500000Y-93250000D01*
%TO.C,SW3*%
X161500000Y-123250000D02*
X161500000Y-124750000D01*
X162750000Y-127250000D02*
X167250000Y-127250000D01*
X167250000Y-120750000D02*
X162750000Y-120750000D01*
X168500000Y-124750000D02*
X168500000Y-123250000D01*
%TO.C,SW5*%
X89500000Y-123250000D02*
X89500000Y-124750000D01*
X90750000Y-127250000D02*
X95250000Y-127250000D01*
X95250000Y-120750000D02*
X90750000Y-120750000D01*
X96500000Y-124750000D02*
X96500000Y-123250000D01*
%TO.C,SW2*%
X116500000Y-93250000D02*
X116500000Y-94750000D01*
X117750000Y-97250000D02*
X122250000Y-97250000D01*
X122250000Y-90750000D02*
X117750000Y-90750000D01*
X123500000Y-94750000D02*
X123500000Y-93250000D01*
%TO.C,D19*%
X162683000Y-127849000D02*
X162683000Y-130119000D01*
X162683000Y-130119000D02*
X166568000Y-130119000D01*
X166568000Y-127849000D02*
X162683000Y-127849000D01*
%TO.C,D5*%
X91505000Y-111772000D02*
X91505000Y-111928000D01*
X91505000Y-114088000D02*
X91505000Y-114244000D01*
X91505000Y-111772484D02*
G75*
G02*
X94737335Y-111929392I1560000J-1235516D01*
G01*
X92024039Y-111928000D02*
G75*
G02*
X94106130Y-111928163I1040961J-1080000D01*
G01*
X94106130Y-114087837D02*
G75*
G02*
X92024039Y-114088000I-1041130J1079837D01*
G01*
X94737335Y-114086608D02*
G75*
G02*
X91505000Y-114243516I-1672335J1078608D01*
G01*
%TO.C,D3*%
X157622000Y-85920000D02*
X157622000Y-85764000D01*
X157622000Y-88236000D02*
X157622000Y-88080000D01*
X154389665Y-85921392D02*
G75*
G02*
X157622000Y-85764484I1672335J-1078608D01*
G01*
X155020870Y-85920163D02*
G75*
G02*
X157102961Y-85920000I1041130J-1079837D01*
G01*
X157102961Y-88080000D02*
G75*
G02*
X155020870Y-88079837I-1040961J1080000D01*
G01*
X157622000Y-88235516D02*
G75*
G02*
X154389665Y-88078608I-1560000J1235516D01*
G01*
%TO.C,D4*%
X55437000Y-111772000D02*
X55437000Y-111928000D01*
X55437000Y-114088000D02*
X55437000Y-114244000D01*
X55437000Y-111772484D02*
G75*
G02*
X58669335Y-111929392I1560000J-1235516D01*
G01*
X55956039Y-111928000D02*
G75*
G02*
X58038130Y-111928163I1040961J-1080000D01*
G01*
X58038130Y-114087837D02*
G75*
G02*
X55956039Y-114088000I-1041130J1079837D01*
G01*
X58669335Y-114086608D02*
G75*
G02*
X55437000Y-114243516I-1672335J1078608D01*
G01*
%TO.C,J2*%
X112616000Y-48620000D02*
X121816000Y-48620000D01*
X112616000Y-57220000D02*
X112616000Y-48620000D01*
X112616000Y-63120000D02*
X112616000Y-61820000D01*
X114616000Y-63120000D02*
X112616000Y-63120000D01*
X120416000Y-63420000D02*
X122116000Y-63420000D01*
X121816000Y-48620000D02*
X121816000Y-63120000D01*
X121816000Y-63120000D02*
X119816000Y-63120000D01*
X122116000Y-63420000D02*
X122116000Y-62120000D01*
%TO.C,D12*%
X54717000Y-117969000D02*
X54717000Y-120239000D01*
X54717000Y-120239000D02*
X58602000Y-120239000D01*
X58602000Y-117969000D02*
X54717000Y-117969000D01*
%TO.C,SW1*%
X134500000Y-93250000D02*
X134500000Y-94750000D01*
X135750000Y-97250000D02*
X140250000Y-97250000D01*
X140250000Y-90750000D02*
X135750000Y-90750000D01*
X141500000Y-94750000D02*
X141500000Y-93250000D01*
%TO.C,D2*%
X136545000Y-85920000D02*
X136545000Y-85764000D01*
X136545000Y-88236000D02*
X136545000Y-88080000D01*
X133312665Y-85921392D02*
G75*
G02*
X136545000Y-85764484I1672335J-1078608D01*
G01*
X133943870Y-85920163D02*
G75*
G02*
X136025961Y-85920000I1041130J-1079837D01*
G01*
X136025961Y-88080000D02*
G75*
G02*
X133943870Y-88079837I-1040961J1080000D01*
G01*
X136545000Y-88235516D02*
G75*
G02*
X133312665Y-88078608I-1560000J1235516D01*
G01*
%TO.C,D15*%
X162683000Y-117943000D02*
X162683000Y-120213000D01*
X162683000Y-120213000D02*
X166568000Y-120213000D01*
X166568000Y-117943000D02*
X162683000Y-117943000D01*
%TO.C,D16*%
X54733000Y-127849000D02*
X54733000Y-130119000D01*
X54733000Y-130119000D02*
X58618000Y-130119000D01*
X58618000Y-127849000D02*
X54733000Y-127849000D01*
%TO.C,SW8*%
X152500000Y-93250000D02*
X152500000Y-94750000D01*
X153750000Y-97250000D02*
X158250000Y-97250000D01*
X158250000Y-90750000D02*
X153750000Y-90750000D01*
X159500000Y-94750000D02*
X159500000Y-93250000D01*
%TO.C,RV6*%
X159979000Y-58330000D02*
X170020000Y-58330000D01*
X159979000Y-62266000D02*
X159979000Y-58330000D01*
X159979000Y-70570000D02*
X159979000Y-66633000D01*
X159979000Y-70570000D02*
X161300000Y-70570000D01*
X163750000Y-70570000D02*
X164130000Y-70570000D01*
X165871000Y-70570000D02*
X166630000Y-70570000D01*
X168370000Y-70570000D02*
X170020000Y-70570000D01*
X170020000Y-62266000D02*
X170020000Y-58330000D01*
X170020000Y-70570000D02*
X170020000Y-66633000D01*
%TD*%
M02*
