%TF.GenerationSoftware,KiCad,Pcbnew,8.0.5*%
%TF.CreationDate,2024-10-16T15:52:23+02:00*%
%TF.ProjectId,VCO_RPIpico,56434f5f-5250-4497-9069-636f2e6b6963,0*%
%TF.SameCoordinates,Original*%
%TF.FileFunction,Copper,L1,Top*%
%TF.FilePolarity,Positive*%
%FSLAX46Y46*%
G04 Gerber Fmt 4.6, Leading zero omitted, Abs format (unit mm)*
G04 Created by KiCad (PCBNEW 8.0.5) date 2024-10-16 15:52:23*
%MOMM*%
%LPD*%
G01*
G04 APERTURE LIST*
G04 Aperture macros list*
%AMRoundRect*
0 Rectangle with rounded corners*
0 $1 Rounding radius*
0 $2 $3 $4 $5 $6 $7 $8 $9 X,Y pos of 4 corners*
0 Add a 4 corners polygon primitive as box body*
4,1,4,$2,$3,$4,$5,$6,$7,$8,$9,$2,$3,0*
0 Add four circle primitives for the rounded corners*
1,1,$1+$1,$2,$3*
1,1,$1+$1,$4,$5*
1,1,$1+$1,$6,$7*
1,1,$1+$1,$8,$9*
0 Add four rect primitives between the rounded corners*
20,1,$1+$1,$2,$3,$4,$5,0*
20,1,$1+$1,$4,$5,$6,$7,0*
20,1,$1+$1,$6,$7,$8,$9,0*
20,1,$1+$1,$8,$9,$2,$3,0*%
%AMFreePoly0*
4,1,26,0.335306,0.780194,0.389950,0.741421,0.741421,0.389950,0.788777,0.314585,0.800000,0.248529,0.800000,-0.248529,0.780194,-0.335306,0.741421,-0.389950,0.389950,-0.741421,0.314585,-0.788777,0.248529,-0.800000,0.000000,-0.800000,-0.248529,-0.800000,-0.335306,-0.780194,-0.389950,-0.741421,-0.741421,-0.389950,-0.788777,-0.314585,-0.800000,-0.248529,-0.800000,0.248529,-0.780194,0.335306,
-0.741421,0.389950,-0.389950,0.741421,-0.314585,0.788777,-0.248529,0.800000,0.248529,0.800000,0.335306,0.780194,0.335306,0.780194,$1*%
G04 Aperture macros list end*
%TA.AperFunction,ComponentPad*%
%ADD10R,1.800000X1.800000*%
%TD*%
%TA.AperFunction,ComponentPad*%
%ADD11C,1.800000*%
%TD*%
%TA.AperFunction,ComponentPad*%
%ADD12RoundRect,0.750000X0.750000X-1.250000X0.750000X1.250000X-0.750000X1.250000X-0.750000X-1.250000X0*%
%TD*%
%TA.AperFunction,ComponentPad*%
%ADD13C,2.000000*%
%TD*%
%TA.AperFunction,ComponentPad*%
%ADD14O,1.700000X1.700000*%
%TD*%
%TA.AperFunction,ComponentPad*%
%ADD15R,1.700000X1.700000*%
%TD*%
%TA.AperFunction,ComponentPad*%
%ADD16O,2.200000X4.000000*%
%TD*%
%TA.AperFunction,ComponentPad*%
%ADD17O,4.000000X2.200000*%
%TD*%
%TA.AperFunction,ComponentPad*%
%ADD18R,2.200000X4.000000*%
%TD*%
%TA.AperFunction,ComponentPad*%
%ADD19R,4.600000X2.000000*%
%TD*%
%TA.AperFunction,ComponentPad*%
%ADD20O,4.200000X2.000000*%
%TD*%
%TA.AperFunction,ComponentPad*%
%ADD21O,2.000000X4.200000*%
%TD*%
%TA.AperFunction,ComponentPad*%
%ADD22R,1.500000X1.500000*%
%TD*%
%TA.AperFunction,ComponentPad*%
%ADD23C,1.600000*%
%TD*%
%TA.AperFunction,ComponentPad*%
%ADD24FreePoly0,180.000000*%
%TD*%
%TA.AperFunction,ComponentPad*%
%ADD25RoundRect,0.200000X0.600000X0.600000X-0.600000X0.600000X-0.600000X-0.600000X0.600000X-0.600000X0*%
%TD*%
%TA.AperFunction,ComponentPad*%
%ADD26R,1.574800X1.574800*%
%TD*%
%TA.AperFunction,ComponentPad*%
%ADD27C,1.574800*%
%TD*%
%TA.AperFunction,ViaPad*%
%ADD28C,0.800000*%
%TD*%
%TA.AperFunction,Conductor*%
%ADD29C,0.250000*%
%TD*%
G04 APERTURE END LIST*
D10*
%TO.P,R14,1,1*%
%TO.N,+3V3*%
X54500000Y-101450000D03*
D11*
%TO.P,R14,2,2*%
%TO.N,Net-(R14-Pad2)*%
X57000000Y-101450000D03*
%TO.P,R14,3,3*%
%TO.N,GNDA*%
X59500000Y-101450000D03*
D12*
%TO.P,R14,MP*%
%TO.N,N/C*%
X52600000Y-94450000D03*
X61400000Y-94450000D03*
%TD*%
D13*
%TO.P,SW4,1,1*%
%TO.N,Net-(A1-GPIO20)*%
X125750000Y-105750000D03*
X132250000Y-105750000D03*
%TO.P,SW4,2,2*%
%TO.N,GND*%
X125750000Y-110250000D03*
X132250000Y-110250000D03*
%TD*%
%TO.P,SW6,1,1*%
%TO.N,Net-(A1-GPIO18)*%
X53750000Y-105678000D03*
X60250000Y-105678000D03*
%TO.P,SW6,2,2*%
%TO.N,GND*%
X53750000Y-110178000D03*
X60250000Y-110178000D03*
%TD*%
D14*
%TO.P,J5,3,Pin_3*%
%TO.N,Net-(J5-Pin_3)*%
X126344000Y-53318000D03*
%TO.P,J5,2,Pin_2*%
%TO.N,Net-(J5-Pin_2)*%
X128884000Y-53318000D03*
D15*
%TO.P,J5,1,Pin_1*%
%TO.N,Net-(J5-Pin_1)*%
X131424000Y-53318000D03*
%TD*%
D10*
%TO.P,D1,1,A1*%
%TO.N,Net-(D1-A1)*%
X158540000Y-87000000D03*
D11*
%TO.P,D1,2,K*%
%TO.N,GND*%
X156000000Y-87000000D03*
%TO.P,D1,3,A2*%
%TO.N,Net-(D1-A2)*%
X153460000Y-87000000D03*
%TD*%
D10*
%TO.P,D8,1,A1*%
%TO.N,Net-(D8-A1)*%
X176550000Y-87100000D03*
D11*
%TO.P,D8,2,K*%
%TO.N,GND*%
X174010000Y-87100000D03*
%TO.P,D8,3,A2*%
%TO.N,Net-(D8-A2)*%
X171470000Y-87100000D03*
%TD*%
D15*
%TO.P,J3,1,Pin_1*%
%TO.N,GND*%
X112374000Y-72876000D03*
D14*
%TO.P,J3,2,Pin_2*%
%TO.N,Net-(J3-Pin_2)*%
X109834000Y-72876000D03*
%TD*%
D16*
%TO.P,J1,R*%
%TO.N,N/C*%
X157394500Y-58022000D03*
%TO.P,J1,RN*%
X154694500Y-56822000D03*
D17*
%TO.P,J1,S*%
%TO.N,Net-(J1-PadS)*%
X152194500Y-50022000D03*
D18*
%TO.P,J1,T*%
%TO.N,GND*%
X147594500Y-53922000D03*
D17*
%TO.P,J1,TN*%
%TO.N,N/C*%
X148094500Y-61222000D03*
%TD*%
D10*
%TO.P,R13,1,1*%
%TO.N,+3V3*%
X90500000Y-101450000D03*
D11*
%TO.P,R13,2,2*%
%TO.N,Net-(R13-Pad2)*%
X93000000Y-101450000D03*
%TO.P,R13,3,3*%
%TO.N,GNDA*%
X95500000Y-101450000D03*
D12*
%TO.P,R13,MP*%
%TO.N,N/C*%
X88600000Y-94450000D03*
X97400000Y-94450000D03*
%TD*%
D10*
%TO.P,R15,1,1*%
%TO.N,+3V3*%
X54500000Y-71450000D03*
D11*
%TO.P,R15,2,2*%
%TO.N,Net-(R15-Pad2)*%
X57000000Y-71450000D03*
%TO.P,R15,3,3*%
%TO.N,GNDA*%
X59500000Y-71450000D03*
D12*
%TO.P,R15,MP*%
%TO.N,N/C*%
X52600000Y-64450000D03*
X61400000Y-64450000D03*
%TD*%
D13*
%TO.P,SW7,1,1*%
%TO.N,GND*%
X177250000Y-96250000D03*
X170750000Y-96250000D03*
%TO.P,SW7,2,2*%
%TO.N,Net-(A1-GPIO7)*%
X177250000Y-91750000D03*
X170750000Y-91750000D03*
%TD*%
%TO.P,SW3,1,1*%
%TO.N,Net-(A1-GPIO21)*%
X161750000Y-105750000D03*
X168250000Y-105750000D03*
%TO.P,SW3,2,2*%
%TO.N,GND*%
X161750000Y-110250000D03*
X168250000Y-110250000D03*
%TD*%
%TO.P,SW5,1,1*%
%TO.N,Net-(A1-GPIO19)*%
X89750000Y-105750000D03*
X96250000Y-105750000D03*
%TO.P,SW5,2,2*%
%TO.N,GND*%
X89750000Y-110250000D03*
X96250000Y-110250000D03*
%TD*%
D19*
%TO.P,J2,1*%
%TO.N,+5C*%
X140822000Y-61650000D03*
D20*
%TO.P,J2,2*%
%TO.N,GND*%
X140822000Y-55350000D03*
D21*
%TO.P,J2,3*%
%TO.N,N/C*%
X136022000Y-58750000D03*
%TD*%
D22*
%TO.P,SW1,1,A*%
%TO.N,Net-(A1-GPIO3)*%
X129000000Y-94000000D03*
D23*
%TO.P,SW1,2,B*%
%TO.N,GND*%
X129000000Y-96540000D03*
%TO.P,SW1,3,C*%
%TO.N,Net-(A1-GPIO4)*%
X129000000Y-91460000D03*
%TD*%
D15*
%TO.P,J4,1,Pin_1*%
%TO.N,Net-(J4-Pin_1)*%
X167000000Y-77000000D03*
D14*
%TO.P,J4,2,Pin_2*%
%TO.N,GND*%
X164460000Y-77000000D03*
%TD*%
D13*
%TO.P,SW8,1,1*%
%TO.N,GND*%
X159250000Y-96250000D03*
X152750000Y-96250000D03*
%TO.P,SW8,2,2*%
%TO.N,Net-(A1-GPIO6)*%
X159250000Y-91750000D03*
X152750000Y-91750000D03*
%TD*%
D15*
%TO.P,J6,1,Pin_1*%
%TO.N,Net-(J6-Pin_1)*%
X95540000Y-53318000D03*
D14*
%TO.P,J6,2,Pin_2*%
%TO.N,Net-(J6-Pin_2)*%
X93000000Y-53318000D03*
%TO.P,J6,3,Pin_3*%
%TO.N,Net-(J6-Pin_3)*%
X90460000Y-53318000D03*
%TD*%
D15*
%TO.P,J7,1,Pin_1*%
%TO.N,GND*%
X154772000Y-69091000D03*
D14*
%TO.P,J7,2,Pin_2*%
%TO.N,+5C*%
X152232000Y-69091000D03*
%TD*%
D10*
%TO.P,D6,1,K*%
%TO.N,GND*%
X127863000Y-113008000D03*
D11*
%TO.P,D6,2,A*%
%TO.N,Net-(D6-A)*%
X130403000Y-113008000D03*
%TD*%
D10*
%TO.P,D7,1,K*%
%TO.N,GND*%
X164439000Y-113008000D03*
D11*
%TO.P,D7,2,A*%
%TO.N,Net-(D7-A)*%
X166979000Y-113008000D03*
%TD*%
D10*
%TO.P,D5,1,K*%
%TO.N,GND*%
X92049000Y-113008000D03*
D11*
%TO.P,D5,2,A*%
%TO.N,Net-(D5-A)*%
X94589000Y-113008000D03*
%TD*%
D10*
%TO.P,D4,1,K*%
%TO.N,GND*%
X55727000Y-113008000D03*
D11*
%TO.P,D4,2,A*%
%TO.N,Net-(D4-A)*%
X58267000Y-113008000D03*
%TD*%
D24*
%TO.P,A1,1,GPIO0*%
%TO.N,unconnected-(A1-GPIO0-Pad1)_1*%
X83926000Y-54334000D03*
D23*
%TO.P,A1,2,GPIO1*%
%TO.N,unconnected-(A1-GPIO1-Pad2)*%
X83926000Y-56874000D03*
D25*
%TO.P,A1,3,GND*%
%TO.N,GND*%
X83926000Y-59414000D03*
D23*
%TO.P,A1,4,GPIO2*%
%TO.N,unconnected-(A1-GPIO2-Pad4)*%
X83926000Y-61954000D03*
%TO.P,A1,5,GPIO3*%
%TO.N,Net-(A1-GPIO3)*%
X83926000Y-64494000D03*
%TO.P,A1,6,GPIO4*%
%TO.N,Net-(A1-GPIO4)*%
X83926000Y-67034000D03*
%TO.P,A1,7,GPIO5*%
%TO.N,Net-(A1-GPIO5)*%
X83926000Y-69574000D03*
D25*
%TO.P,A1,8,GND*%
%TO.N,GND*%
X83926000Y-72114000D03*
D23*
%TO.P,A1,9,GPIO6*%
%TO.N,Net-(A1-GPIO6)*%
X83926000Y-74654000D03*
%TO.P,A1,10,GPIO7*%
%TO.N,Net-(A1-GPIO7)*%
X83926000Y-77194000D03*
%TO.P,A1,11,GPIO8*%
%TO.N,Net-(A1-GPIO8)*%
X83926000Y-79734000D03*
%TO.P,A1,12,GPIO9*%
%TO.N,Net-(A1-GPIO9)*%
X83926000Y-82274000D03*
D25*
%TO.P,A1,13,GND*%
%TO.N,GND*%
X83926000Y-84814000D03*
D23*
%TO.P,A1,14,GPIO10*%
%TO.N,Net-(A1-GPIO10)*%
X83926000Y-87354000D03*
%TO.P,A1,15,GPIO11*%
%TO.N,Net-(A1-GPIO11)*%
X83926000Y-89894000D03*
%TO.P,A1,16,GPIO12*%
%TO.N,Net-(A1-GPIO12)*%
X83926000Y-92434000D03*
%TO.P,A1,17,GPIO13*%
%TO.N,Net-(A1-GPIO13)*%
X83926000Y-94974000D03*
D25*
%TO.P,A1,18,GND*%
%TO.N,GND*%
X83926000Y-97514000D03*
D23*
%TO.P,A1,19,GPIO14*%
%TO.N,unconnected-(A1-GPIO14-Pad19)_1*%
X83926000Y-100054000D03*
%TO.P,A1,20,GPIO15*%
%TO.N,unconnected-(A1-GPIO15-Pad20)_1*%
X83926000Y-102594000D03*
%TO.P,A1,21,GPIO16*%
%TO.N,Net-(A1-GPIO16)*%
X66146000Y-102594000D03*
%TO.P,A1,22,GPIO17*%
%TO.N,Net-(A1-GPIO17)*%
X66146000Y-100054000D03*
D25*
%TO.P,A1,23,GND*%
%TO.N,GND*%
X66146000Y-97514000D03*
D23*
%TO.P,A1,24,GPIO18*%
%TO.N,Net-(A1-GPIO18)*%
X66146000Y-94974000D03*
%TO.P,A1,25,GPIO19*%
%TO.N,Net-(A1-GPIO19)*%
X66146000Y-92434000D03*
%TO.P,A1,26,GPIO20*%
%TO.N,Net-(A1-GPIO20)*%
X66146000Y-89894000D03*
%TO.P,A1,27,GPIO21*%
%TO.N,Net-(A1-GPIO21)*%
X66146000Y-87354000D03*
D25*
%TO.P,A1,28,GND*%
%TO.N,GND*%
X66146000Y-84814000D03*
D23*
%TO.P,A1,29,GPIO22*%
%TO.N,unconnected-(A1-GPIO22-Pad29)*%
X66146000Y-82274000D03*
%TO.P,A1,30,RUN*%
%TO.N,unconnected-(A1-RUN-Pad30)*%
X66146000Y-79734000D03*
%TO.P,A1,31,GPIO26_ADC0*%
%TO.N,Net-(A1-GPIO26_ADC0)*%
X66146000Y-77194000D03*
%TO.P,A1,32,GPIO27_ADC1*%
%TO.N,Net-(A1-GPIO27_ADC1)*%
X66146000Y-74654000D03*
D25*
%TO.P,A1,33,AGND*%
%TO.N,GNDA*%
X66146000Y-72114000D03*
D23*
%TO.P,A1,34,GPIO28_ADC2*%
%TO.N,Net-(A1-GPIO28_ADC2)*%
X66146000Y-69574000D03*
%TO.P,A1,35,ADC_VREF*%
%TO.N,unconnected-(A1-ADC_VREF-Pad35)*%
X66146000Y-67034000D03*
%TO.P,A1,36,3V3*%
%TO.N,+3V3*%
X66146000Y-64494000D03*
%TO.P,A1,37,3V3_EN*%
%TO.N,unconnected-(A1-3V3_EN-Pad37)_1*%
X66146000Y-61954000D03*
D25*
%TO.P,A1,38,GND*%
%TO.N,GND*%
X66146000Y-59414000D03*
D23*
%TO.P,A1,39,VSYS*%
%TO.N,+5C*%
X66146000Y-56874000D03*
%TO.P,A1,40,VBUS*%
X66146000Y-54334000D03*
D26*
%TO.P,A1,41,SWCLK*%
%TO.N,unconnected-(A1-SWCLK-Pad41)*%
X74451800Y-84164000D03*
D27*
%TO.P,A1,42,SWGND*%
%TO.N,unconnected-(A1-SWGND-Pad42)*%
X71911800Y-84164000D03*
%TO.P,A1,43,SWDIO*%
%TO.N,unconnected-(A1-SWDIO-Pad43)*%
X69371800Y-84164000D03*
%TD*%
D10*
%TO.P,RV6,1,1*%
%TO.N,GND*%
X162500000Y-71450000D03*
D11*
%TO.P,RV6,2,2*%
%TO.N,Net-(J1-PadS)*%
X165000000Y-71450000D03*
%TO.P,RV6,3,3*%
%TO.N,Net-(J4-Pin_1)*%
X167500000Y-71450000D03*
D12*
%TO.P,RV6,MP*%
%TO.N,N/C*%
X160600000Y-64450000D03*
X169400000Y-64450000D03*
%TD*%
%TO.P,RV5,MP*%
%TO.N,N/C*%
X97400000Y-64450000D03*
X88600000Y-64450000D03*
D11*
%TO.P,RV5,3,3*%
%TO.N,Net-(J6-Pin_1)*%
X95500000Y-71450000D03*
%TO.P,RV5,2,2*%
%TO.N,Net-(J6-Pin_2)*%
X93000000Y-71450000D03*
D10*
%TO.P,RV5,1,1*%
%TO.N,Net-(J6-Pin_3)*%
X90500000Y-71450000D03*
%TD*%
%TO.P,RV4,1,1*%
%TO.N,Net-(J5-Pin_3)*%
X126500000Y-71450000D03*
D11*
%TO.P,RV4,2,2*%
%TO.N,Net-(J5-Pin_2)*%
X129000000Y-71450000D03*
%TO.P,RV4,3,3*%
%TO.N,Net-(J5-Pin_1)*%
X131500000Y-71450000D03*
D12*
%TO.P,RV4,MP*%
%TO.N,N/C*%
X124600000Y-64450000D03*
X133400000Y-64450000D03*
%TD*%
D28*
%TO.N,Net-(R13-Pad2)*%
X93000000Y-99038000D03*
%TO.N,GNDA*%
X94848000Y-99038000D03*
%TO.N,GND*%
X55986000Y-97514000D03*
X79100000Y-93704000D03*
X79100000Y-77956000D03*
X79100000Y-81766000D03*
%TO.N,GNDA*%
X94848000Y-88370000D03*
%TO.N,Net-(R13-Pad2)*%
X93070000Y-88370000D03*
%TO.N,Net-(A1-GPIO21)*%
X77068000Y-103610000D03*
X72750000Y-103610000D03*
%TO.N,Net-(A1-GPIO17)*%
X68178000Y-104880000D03*
%TO.N,Net-(A1-GPIO16)*%
X68178000Y-106150000D03*
%TO.N,+3V3*%
X68178000Y-107420000D03*
X62336000Y-103610000D03*
%TO.N,GNDA*%
X59542000Y-73130000D03*
X53192000Y-73130000D03*
X53192000Y-88116000D03*
X60050000Y-88116000D03*
%TO.N,GND*%
X57002000Y-80242000D03*
X52430000Y-80242000D03*
%TO.N,Net-(A1-GPIO19)*%
X69702000Y-108690000D03*
X79100000Y-108690000D03*
%TO.N,Net-(A1-GPIO3)*%
X118470000Y-83798000D03*
X89006000Y-67796000D03*
X97134000Y-67796000D03*
X118470000Y-71860000D03*
%TO.N,+3V3*%
X79100000Y-107420000D03*
X60050000Y-103610000D03*
%TO.N,Net-(A1-GPIO16)*%
X146156000Y-84814000D03*
%TO.N,Net-(A1-GPIO8)*%
X146156000Y-79734000D03*
X136250000Y-79734000D03*
%TO.N,Net-(A1-GPIO17)*%
X146156000Y-83544000D03*
%TO.N,Net-(A1-GPIO20)*%
X79100000Y-109960000D03*
X71226000Y-109960000D03*
%TO.N,Net-(A1-GPIO9)*%
X146156000Y-82274000D03*
X135996000Y-82274000D03*
%TO.N,Net-(A1-GPIO4)*%
X119740000Y-83798000D03*
X89006000Y-69066000D03*
X97134000Y-69066000D03*
X119740000Y-73130000D03*
%TD*%
D29*
%TO.N,Net-(A1-GPIO4)*%
X97134000Y-69066000D02*
X89006000Y-69066000D01*
%TO.N,Net-(A1-GPIO3)*%
X97134000Y-67796000D02*
X89006000Y-67796000D01*
%TO.N,Net-(A1-GPIO16)*%
X131424000Y-103864000D02*
X136250000Y-99038000D01*
X87990000Y-103864000D02*
X131424000Y-103864000D01*
X136250000Y-86084000D02*
X137520000Y-84814000D01*
X85704000Y-106150000D02*
X87990000Y-103864000D01*
X136250000Y-99038000D02*
X136250000Y-86084000D01*
X68178000Y-106150000D02*
X85704000Y-106150000D01*
X137520000Y-84814000D02*
X146156000Y-84814000D01*
%TO.N,Net-(A1-GPIO17)*%
X137266000Y-83544000D02*
X146156000Y-83544000D01*
X135234000Y-98530000D02*
X135234000Y-85576000D01*
X130662000Y-103102000D02*
X135234000Y-98530000D01*
X135234000Y-85576000D02*
X137266000Y-83544000D01*
X85450000Y-104880000D02*
X87228000Y-103102000D01*
X87228000Y-103102000D02*
X130662000Y-103102000D01*
X68178000Y-104880000D02*
X85450000Y-104880000D01*
%TO.N,Net-(R13-Pad2)*%
X93070000Y-88370000D02*
X93070000Y-98968000D01*
X93070000Y-98968000D02*
X93000000Y-99038000D01*
%TO.N,GNDA*%
X94848000Y-88370000D02*
X94848000Y-99038000D01*
%TO.N,GND*%
X66146000Y-97514000D02*
X55986000Y-97514000D01*
X79100000Y-81766000D02*
X79100000Y-93704000D01*
X79100000Y-81766000D02*
X79100000Y-77956000D01*
%TO.N,Net-(R13-Pad2)*%
X93070000Y-100980000D02*
X93000000Y-101050000D01*
%TO.N,Net-(A1-GPIO21)*%
X72750000Y-103610000D02*
X77068000Y-103610000D01*
%TO.N,Net-(A1-GPIO9)*%
X146156000Y-82274000D02*
X135996000Y-82274000D01*
%TO.N,+3V3*%
X68178000Y-107420000D02*
X79100000Y-107420000D01*
X60050000Y-103610000D02*
X62336000Y-103610000D01*
%TO.N,Net-(A1-GPIO19)*%
X79100000Y-108690000D02*
X69702000Y-108690000D01*
%TO.N,Net-(A1-GPIO20)*%
X71226000Y-109960000D02*
X79100000Y-109960000D01*
%TO.N,GNDA*%
X53192000Y-73130000D02*
X59542000Y-73130000D01*
X60050000Y-88116000D02*
X53192000Y-88116000D01*
%TO.N,GND*%
X52430000Y-80242000D02*
X57002000Y-80242000D01*
%TO.N,Net-(A1-GPIO3)*%
X118470000Y-71860000D02*
X118470000Y-83798000D01*
%TO.N,Net-(A1-GPIO8)*%
X146156000Y-79734000D02*
X136250000Y-79734000D01*
%TO.N,Net-(A1-GPIO4)*%
X119740000Y-83798000D02*
X119740000Y-73130000D01*
%TD*%
M02*
