%TF.GenerationSoftware,KiCad,Pcbnew,8.0.6-8.0.6-0~ubuntu22.04.1*%
%TF.CreationDate,2024-11-13T21:06:08+01:00*%
%TF.ProjectId,VCO_RPIpico,56434f5f-5250-4497-9069-636f2e6b6963,0*%
%TF.SameCoordinates,Original*%
%TF.FileFunction,Soldermask,Top*%
%TF.FilePolarity,Negative*%
%FSLAX46Y46*%
G04 Gerber Fmt 4.6, Leading zero omitted, Abs format (unit mm)*
G04 Created by KiCad (PCBNEW 8.0.6-8.0.6-0~ubuntu22.04.1) date 2024-11-13 21:06:08*
%MOMM*%
%LPD*%
G01*
G04 APERTURE LIST*
G04 Aperture macros list*
%AMRoundRect*
0 Rectangle with rounded corners*
0 $1 Rounding radius*
0 $2 $3 $4 $5 $6 $7 $8 $9 X,Y pos of 4 corners*
0 Add a 4 corners polygon primitive as box body*
4,1,4,$2,$3,$4,$5,$6,$7,$8,$9,$2,$3,0*
0 Add four circle primitives for the rounded corners*
1,1,$1+$1,$2,$3*
1,1,$1+$1,$4,$5*
1,1,$1+$1,$6,$7*
1,1,$1+$1,$8,$9*
0 Add four rect primitives between the rounded corners*
20,1,$1+$1,$2,$3,$4,$5,0*
20,1,$1+$1,$4,$5,$6,$7,0*
20,1,$1+$1,$6,$7,$8,$9,0*
20,1,$1+$1,$8,$9,$2,$3,0*%
G04 Aperture macros list end*
%ADD10C,2.000000*%
%ADD11C,1.800000*%
%ADD12R,1.800000X1.800000*%
%ADD13RoundRect,0.750000X0.750000X-1.250000X0.750000X1.250000X-0.750000X1.250000X-0.750000X-1.250000X0*%
%ADD14RoundRect,0.250000X-0.375000X-0.625000X0.375000X-0.625000X0.375000X0.625000X-0.375000X0.625000X0*%
%ADD15O,4.000000X2.200000*%
%ADD16R,2.200000X4.000000*%
%ADD17O,2.200000X4.000000*%
%ADD18R,4.600000X2.000000*%
%ADD19O,4.200000X2.000000*%
%ADD20O,2.000000X4.200000*%
%ADD21O,2.400000X1.600000*%
%ADD22R,2.400000X1.600000*%
%ADD23O,1.700000X1.700000*%
%ADD24R,1.700000X1.700000*%
%ADD25O,1.800000X1.800000*%
%ADD26O,1.500000X1.500000*%
G04 APERTURE END LIST*
D10*
%TO.C,sw10*%
X98100000Y-120200000D03*
X87940000Y-120200000D03*
X98100000Y-127820000D03*
X87940000Y-127820000D03*
D11*
X87412000Y-122740000D03*
X98588000Y-125280000D03*
%TD*%
D10*
%TO.C,sw12*%
X170100000Y-120200000D03*
X159940000Y-120200000D03*
X170100000Y-127820000D03*
X159940000Y-127820000D03*
D11*
X159412000Y-122740000D03*
X170588000Y-125280000D03*
%TD*%
D10*
%TO.C,sw11*%
X134100000Y-120200000D03*
X123940000Y-120200000D03*
X134100000Y-127820000D03*
X123940000Y-127820000D03*
D11*
X123412000Y-122740000D03*
X134588000Y-125280000D03*
%TD*%
D10*
%TO.C,sw9*%
X62100000Y-120200000D03*
X51940000Y-120200000D03*
X62100000Y-127820000D03*
X51940000Y-127820000D03*
D11*
X51412000Y-122740000D03*
X62588000Y-125280000D03*
%TD*%
%TO.C,D6*%
X130276000Y-113008000D03*
D12*
X127736000Y-113008000D03*
%TD*%
D13*
%TO.C,R14*%
X61400000Y-94450000D03*
X52600000Y-94450000D03*
D11*
X59500000Y-101450000D03*
X57000000Y-101450000D03*
D12*
X54500000Y-101450000D03*
%TD*%
D10*
%TO.C,SW4*%
X132250000Y-126250000D03*
X125750000Y-126250000D03*
X132250000Y-121750000D03*
X125750000Y-121750000D03*
%TD*%
%TO.C,SW6*%
X60250000Y-126250000D03*
X53750000Y-126250000D03*
X60250000Y-121750000D03*
X53750000Y-121750000D03*
%TD*%
D11*
%TO.C,D10*%
X118729000Y-87000000D03*
D12*
X121269000Y-87000000D03*
%TD*%
D14*
%TO.C,D14*%
X130284000Y-119104000D03*
X127484000Y-119104000D03*
%TD*%
D11*
%TO.C,D7*%
X166217000Y-113008000D03*
D12*
X163677000Y-113008000D03*
%TD*%
D11*
%TO.C,D1*%
X139811000Y-87000000D03*
D12*
X142351000Y-87000000D03*
%TD*%
D14*
%TO.C,D13*%
X94470000Y-119104000D03*
X91670000Y-119104000D03*
%TD*%
D11*
%TO.C,D11*%
X124825000Y-87000000D03*
D12*
X127365000Y-87000000D03*
%TD*%
D13*
%TO.C,RV5*%
X97400000Y-64450000D03*
X88600000Y-64450000D03*
D11*
X95500000Y-71450000D03*
X93000000Y-71450000D03*
D12*
X90500000Y-71450000D03*
%TD*%
D13*
%TO.C,RV4*%
X133400000Y-64450000D03*
X124600000Y-64450000D03*
D11*
X131500000Y-71450000D03*
X129000000Y-71450000D03*
D12*
X126500000Y-71450000D03*
%TD*%
D15*
%TO.C,J1*%
X144648000Y-55324000D03*
D16*
X144148000Y-48024000D03*
D15*
X148748000Y-44124000D03*
D17*
X151248000Y-50924000D03*
X153948000Y-52124000D03*
%TD*%
D11*
%TO.C,D8*%
X112633000Y-87000000D03*
D12*
X115173000Y-87000000D03*
%TD*%
D13*
%TO.C,R13*%
X97400000Y-94450000D03*
X88600000Y-94450000D03*
D11*
X95500000Y-101450000D03*
X93000000Y-101450000D03*
D12*
X90500000Y-101450000D03*
%TD*%
D11*
%TO.C,D9*%
X172826000Y-87000000D03*
D12*
X175366000Y-87000000D03*
%TD*%
D13*
%TO.C,R15*%
X61400000Y-64450000D03*
X52600000Y-64450000D03*
D11*
X59500000Y-71450000D03*
X57000000Y-71450000D03*
D12*
X54500000Y-71450000D03*
%TD*%
D10*
%TO.C,SW7*%
X170750000Y-91750000D03*
X177250000Y-91750000D03*
X170750000Y-96250000D03*
X177250000Y-96250000D03*
%TD*%
%TO.C,SW3*%
X168250000Y-126250000D03*
X161750000Y-126250000D03*
X168250000Y-121750000D03*
X161750000Y-121750000D03*
%TD*%
%TO.C,SW5*%
X96250000Y-126250000D03*
X89750000Y-126250000D03*
X96250000Y-121750000D03*
X89750000Y-121750000D03*
%TD*%
%TO.C,SW2*%
X116750000Y-91750000D03*
X123250000Y-91750000D03*
X116750000Y-96250000D03*
X123250000Y-96250000D03*
%TD*%
D11*
%TO.C,D5*%
X94335000Y-113008000D03*
D12*
X91795000Y-113008000D03*
%TD*%
D11*
%TO.C,D3*%
X154792000Y-87000000D03*
D12*
X157332000Y-87000000D03*
%TD*%
D11*
%TO.C,D4*%
X58267000Y-113008000D03*
D12*
X55727000Y-113008000D03*
%TD*%
D18*
%TO.C,J2*%
X168778000Y-56036000D03*
D19*
X168778000Y-49736000D03*
D20*
X163978000Y-53136000D03*
%TD*%
D14*
%TO.C,D12*%
X58402000Y-119104000D03*
X55602000Y-119104000D03*
%TD*%
D10*
%TO.C,SW1*%
X134750000Y-91750000D03*
X141250000Y-91750000D03*
X134750000Y-96250000D03*
X141250000Y-96250000D03*
%TD*%
D11*
%TO.C,D2*%
X133715000Y-87000000D03*
D12*
X136255000Y-87000000D03*
%TD*%
D14*
%TO.C,D15*%
X166352000Y-119104000D03*
X163552000Y-119104000D03*
%TD*%
D10*
%TO.C,SW8*%
X152750000Y-91750000D03*
X159250000Y-91750000D03*
X152750000Y-96250000D03*
X159250000Y-96250000D03*
%TD*%
D13*
%TO.C,RV6*%
X169400000Y-64450000D03*
X160600000Y-64450000D03*
D11*
X167500000Y-71450000D03*
X165000000Y-71450000D03*
D12*
X162500000Y-71450000D03*
%TD*%
D21*
%TO.C,U2*%
X152135000Y-83036000D03*
X152135000Y-80496000D03*
X152135000Y-77956000D03*
X152135000Y-75416000D03*
X152135000Y-72876000D03*
X152135000Y-70336000D03*
X152135000Y-67796000D03*
X152135000Y-65256000D03*
X144515000Y-65256000D03*
X144515000Y-67796000D03*
X144515000Y-70336000D03*
X144515000Y-72876000D03*
X144515000Y-75416000D03*
X144515000Y-77956000D03*
X144515000Y-80496000D03*
D22*
X144515000Y-83036000D03*
%TD*%
D23*
%TO.C,A1*%
X72496000Y-102364000D03*
D24*
X75036000Y-102364000D03*
D23*
X77576000Y-102364000D03*
X66146000Y-54334000D03*
X66146000Y-56874000D03*
D24*
X66146000Y-59414000D03*
D23*
X66146000Y-61954000D03*
X66146000Y-64494000D03*
X66146000Y-67034000D03*
X66146000Y-69574000D03*
D24*
X66146000Y-72114000D03*
D23*
X66146000Y-74654000D03*
X66146000Y-77194000D03*
X66146000Y-79734000D03*
X66146000Y-82274000D03*
D24*
X66146000Y-84814000D03*
D23*
X66146000Y-87354000D03*
X66146000Y-89894000D03*
X66146000Y-92434000D03*
X66146000Y-94974000D03*
D24*
X66146000Y-97514000D03*
D23*
X66146000Y-100054000D03*
X66146000Y-102594000D03*
X83926000Y-102594000D03*
X83926000Y-100054000D03*
D24*
X83926000Y-97514000D03*
D23*
X83926000Y-94974000D03*
X83926000Y-92434000D03*
X83926000Y-89894000D03*
X83926000Y-87354000D03*
D24*
X83926000Y-84814000D03*
D23*
X83926000Y-82274000D03*
X83926000Y-79734000D03*
X83926000Y-77194000D03*
X83926000Y-74654000D03*
D24*
X83926000Y-72114000D03*
D23*
X83926000Y-69574000D03*
X83926000Y-67034000D03*
X83926000Y-64494000D03*
X83926000Y-61954000D03*
D24*
X83926000Y-59414000D03*
D23*
X83926000Y-56874000D03*
X83926000Y-54334000D03*
D25*
X72311000Y-54464000D03*
D26*
X72611000Y-57494000D03*
X77461000Y-57494000D03*
D25*
X77761000Y-54464000D03*
%TD*%
M02*
