M48
; DRILL file {KiCad 8.0.5} date 2024-10-16T15:52:28+0200
; FORMAT={-:-/ absolute / inch / decimal}
; #@! TF.CreationDate,2024-10-16T15:52:28+02:00
; #@! TF.GenerationSoftware,Kicad,Pcbnew,8.0.5
; #@! TF.FileFunction,Plated,1,2,PTH
FMAT,2
INCH
; #@! TA.AperFunction,Plated,PTH,ViaDrill
T1C0.0157
; #@! TA.AperFunction,Plated,PTH,ComponentDrill
T2C0.0315
; #@! TA.AperFunction,Plated,PTH,ComponentDrill
T3C0.0354
; #@! TA.AperFunction,Plated,PTH,ComponentDrill
T4C0.0394
; #@! TA.AperFunction,Plated,PTH,ComponentDrill
T5C0.0433
; #@! TA.AperFunction,Plated,PTH,ComponentDrill
T6C0.0591
; #@! TA.AperFunction,Plated,PTH,ComponentDrill
T7C0.0709
%
G90
G05
T1
X2.0642Y-3.1591
X2.0942Y-2.8791
X2.0942Y-3.4691
X2.2042Y-3.8391
X2.2442Y-3.1591
X2.3442Y-2.8791
X2.3642Y-3.4691
X2.3642Y-4.0791
X2.4542Y-4.0791
X2.6842Y-4.1291
X2.6842Y-4.1791
X2.6842Y-4.2291
X2.7442Y-4.2791
X2.8042Y-4.3291
X2.8642Y-4.0791
X3.0342Y-4.0791
X3.1142Y-3.0691
X3.1142Y-3.2191
X3.1142Y-3.6891
X3.1142Y-4.2291
X3.1142Y-4.2791
X3.1142Y-4.3291
X3.5042Y-2.6691
X3.5042Y-2.7191
X3.6614Y-3.8991
X3.6642Y-3.4791
X3.7342Y-3.4791
X3.7342Y-3.8991
X3.8242Y-2.6691
X3.8242Y-2.7191
X4.6642Y-2.8291
X4.6642Y-3.2991
X4.7142Y-2.8791
X4.7142Y-3.2991
X5.3542Y-3.2391
X5.3642Y-3.1391
X5.7542Y-3.1391
X5.7542Y-3.2391
X5.7542Y-3.2891
X5.7542Y-3.3391
T2
X5.0787Y-3.6008
X5.0787Y-3.7008
X5.0787Y-3.8008
T3
X2.194Y-4.4491
X2.294Y-4.4491
X3.624Y-4.4491
X3.724Y-4.4491
X5.034Y-4.4491
X5.134Y-4.4491
X6.0417Y-3.4252
X6.1417Y-3.4252
X6.2417Y-3.4252
X6.474Y-4.4491
X6.574Y-4.4491
X6.7508Y-3.4291
X6.8508Y-3.4291
X6.9508Y-3.4291
T4
X2.1457Y-2.813
X2.1457Y-3.9941
X2.2441Y-2.813
X2.2441Y-3.9941
X2.3425Y-2.813
X2.3425Y-3.9941
X2.6042Y-2.1391
X2.6042Y-2.2391
X2.6042Y-2.3391
X2.6042Y-2.4391
X2.6042Y-2.5391
X2.6042Y-2.6391
X2.6042Y-2.7391
X2.6042Y-2.8391
X2.6042Y-2.9391
X2.6042Y-3.0391
X2.6042Y-3.1391
X2.6042Y-3.2391
X2.6042Y-3.3391
X2.6042Y-3.4391
X2.6042Y-3.5391
X2.6042Y-3.6391
X2.6042Y-3.7391
X2.6042Y-3.8391
X2.6042Y-3.9391
X2.6042Y-4.0391
X2.7312Y-3.3135
X2.8312Y-3.3135
X2.9312Y-3.3135
X3.3042Y-2.1391
X3.3042Y-2.2391
X3.3042Y-2.3391
X3.3042Y-2.4391
X3.3042Y-2.5391
X3.3042Y-2.6391
X3.3042Y-2.7391
X3.3042Y-2.8391
X3.3042Y-2.9391
X3.3042Y-3.0391
X3.3042Y-3.1391
X3.3042Y-3.2391
X3.3042Y-3.3391
X3.3042Y-3.4391
X3.3042Y-3.5391
X3.3042Y-3.6391
X3.3042Y-3.7391
X3.3042Y-3.8391
X3.3042Y-3.9391
X3.3042Y-4.0391
X3.5614Y-2.0991
X3.563Y-2.813
X3.563Y-3.9941
X3.6614Y-2.0991
X3.6614Y-2.813
X3.6614Y-3.9941
X3.7598Y-2.813
X3.7598Y-3.9941
X3.7614Y-2.0991
X4.3242Y-2.8691
X4.4242Y-2.8691
X4.9742Y-2.0991
X4.9803Y-2.813
X5.0742Y-2.0991
X5.0787Y-2.813
X5.1742Y-2.0991
X5.1772Y-2.813
X5.9934Y-2.7201
X6.0934Y-2.7201
X6.3976Y-2.813
X6.4748Y-3.0315
X6.4961Y-2.813
X6.5748Y-3.0315
X6.5945Y-2.813
T5
X2.1161Y-4.1606
X2.1161Y-4.3377
X2.372Y-4.1606
X2.372Y-4.3377
X3.5335Y-4.1634
X3.5335Y-4.3406
X3.7894Y-4.1634
X3.7894Y-4.3406
X4.9508Y-4.1634
X4.9508Y-4.3406
X5.2067Y-4.1634
X5.2067Y-4.3406
X6.0138Y-3.6122
X6.0138Y-3.7894
X6.2697Y-3.6122
X6.2697Y-3.7894
X6.3681Y-4.1634
X6.3681Y-4.3406
X6.624Y-4.1634
X6.624Y-4.3406
X6.7224Y-3.6122
X6.7224Y-3.7894
X6.9783Y-3.6122
X6.9783Y-3.7894
T6
X5.8108Y-2.1229
X5.8305Y-2.4103
X5.9919Y-1.9694
X6.0903Y-2.2371
X6.1966Y-2.2843
T4
G00X5.3552Y-2.3563
M15
G01X5.3552Y-2.2697
M16
G05
G00X5.5875Y-2.1791
M15
G01X5.5009Y-2.1791
M16
G05
G00X5.5954Y-2.4272
M15
G01X5.493Y-2.4272
M16
G05
T7
G00X2.0709Y-2.5433
M15
G01X2.0709Y-2.5315
M16
G05
G00X2.0709Y-3.7244
M15
G01X2.0709Y-3.7126
M16
G05
G00X2.4173Y-2.5433
M15
G01X2.4173Y-2.5315
M16
G05
G00X2.4173Y-3.7244
M15
G01X2.4173Y-3.7126
M16
G05
G00X3.4882Y-2.5433
M15
G01X3.4882Y-2.5315
M16
G05
G00X3.4882Y-3.7244
M15
G01X3.4882Y-3.7126
M16
G05
G00X3.8346Y-2.5433
M15
G01X3.8346Y-2.5315
M16
G05
G00X3.8346Y-3.7244
M15
G01X3.8346Y-3.7126
M16
G05
G00X4.9055Y-2.5433
M15
G01X4.9055Y-2.5315
M16
G05
G00X5.252Y-2.5433
M15
G01X5.252Y-2.5315
M16
G05
G00X6.3228Y-2.5433
M15
G01X6.3228Y-2.5315
M16
G05
G00X6.6693Y-2.5433
M15
G01X6.6693Y-2.5315
M16
G05
M30
