%TF.GenerationSoftware,KiCad,Pcbnew,8.0.6-8.0.6-0~ubuntu22.04.1*%
%TF.CreationDate,2024-11-13T21:37:30+01:00*%
%TF.ProjectId,VCO_RPIpico,56434f5f-5250-4497-9069-636f2e6b6963,0*%
%TF.SameCoordinates,Original*%
%TF.FileFunction,Legend,Bot*%
%TF.FilePolarity,Positive*%
%FSLAX46Y46*%
G04 Gerber Fmt 4.6, Leading zero omitted, Abs format (unit mm)*
G04 Created by KiCad (PCBNEW 8.0.6-8.0.6-0~ubuntu22.04.1) date 2024-11-13 21:37:30*
%MOMM*%
%LPD*%
G01*
G04 APERTURE LIST*
%ADD10C,0.150000*%
%ADD11C,0.120000*%
G04 APERTURE END LIST*
D10*
X132606666Y-80601580D02*
X132654285Y-80649200D01*
X132654285Y-80649200D02*
X132797142Y-80696819D01*
X132797142Y-80696819D02*
X132892380Y-80696819D01*
X132892380Y-80696819D02*
X133035237Y-80649200D01*
X133035237Y-80649200D02*
X133130475Y-80553961D01*
X133130475Y-80553961D02*
X133178094Y-80458723D01*
X133178094Y-80458723D02*
X133225713Y-80268247D01*
X133225713Y-80268247D02*
X133225713Y-80125390D01*
X133225713Y-80125390D02*
X133178094Y-79934914D01*
X133178094Y-79934914D02*
X133130475Y-79839676D01*
X133130475Y-79839676D02*
X133035237Y-79744438D01*
X133035237Y-79744438D02*
X132892380Y-79696819D01*
X132892380Y-79696819D02*
X132797142Y-79696819D01*
X132797142Y-79696819D02*
X132654285Y-79744438D01*
X132654285Y-79744438D02*
X132606666Y-79792057D01*
X132130475Y-80696819D02*
X131939999Y-80696819D01*
X131939999Y-80696819D02*
X131844761Y-80649200D01*
X131844761Y-80649200D02*
X131797142Y-80601580D01*
X131797142Y-80601580D02*
X131701904Y-80458723D01*
X131701904Y-80458723D02*
X131654285Y-80268247D01*
X131654285Y-80268247D02*
X131654285Y-79887295D01*
X131654285Y-79887295D02*
X131701904Y-79792057D01*
X131701904Y-79792057D02*
X131749523Y-79744438D01*
X131749523Y-79744438D02*
X131844761Y-79696819D01*
X131844761Y-79696819D02*
X132035237Y-79696819D01*
X132035237Y-79696819D02*
X132130475Y-79744438D01*
X132130475Y-79744438D02*
X132178094Y-79792057D01*
X132178094Y-79792057D02*
X132225713Y-79887295D01*
X132225713Y-79887295D02*
X132225713Y-80125390D01*
X132225713Y-80125390D02*
X132178094Y-80220628D01*
X132178094Y-80220628D02*
X132130475Y-80268247D01*
X132130475Y-80268247D02*
X132035237Y-80315866D01*
X132035237Y-80315866D02*
X131844761Y-80315866D01*
X131844761Y-80315866D02*
X131749523Y-80268247D01*
X131749523Y-80268247D02*
X131701904Y-80220628D01*
X131701904Y-80220628D02*
X131654285Y-80125390D01*
X150148666Y-89306819D02*
X150481999Y-88830628D01*
X150720094Y-89306819D02*
X150720094Y-88306819D01*
X150720094Y-88306819D02*
X150339142Y-88306819D01*
X150339142Y-88306819D02*
X150243904Y-88354438D01*
X150243904Y-88354438D02*
X150196285Y-88402057D01*
X150196285Y-88402057D02*
X150148666Y-88497295D01*
X150148666Y-88497295D02*
X150148666Y-88640152D01*
X150148666Y-88640152D02*
X150196285Y-88735390D01*
X150196285Y-88735390D02*
X150243904Y-88783009D01*
X150243904Y-88783009D02*
X150339142Y-88830628D01*
X150339142Y-88830628D02*
X150720094Y-88830628D01*
X149767713Y-88402057D02*
X149720094Y-88354438D01*
X149720094Y-88354438D02*
X149624856Y-88306819D01*
X149624856Y-88306819D02*
X149386761Y-88306819D01*
X149386761Y-88306819D02*
X149291523Y-88354438D01*
X149291523Y-88354438D02*
X149243904Y-88402057D01*
X149243904Y-88402057D02*
X149196285Y-88497295D01*
X149196285Y-88497295D02*
X149196285Y-88592533D01*
X149196285Y-88592533D02*
X149243904Y-88735390D01*
X149243904Y-88735390D02*
X149815332Y-89306819D01*
X149815332Y-89306819D02*
X149196285Y-89306819D01*
X54075580Y-79033333D02*
X54123200Y-78985714D01*
X54123200Y-78985714D02*
X54170819Y-78842857D01*
X54170819Y-78842857D02*
X54170819Y-78747619D01*
X54170819Y-78747619D02*
X54123200Y-78604762D01*
X54123200Y-78604762D02*
X54027961Y-78509524D01*
X54027961Y-78509524D02*
X53932723Y-78461905D01*
X53932723Y-78461905D02*
X53742247Y-78414286D01*
X53742247Y-78414286D02*
X53599390Y-78414286D01*
X53599390Y-78414286D02*
X53408914Y-78461905D01*
X53408914Y-78461905D02*
X53313676Y-78509524D01*
X53313676Y-78509524D02*
X53218438Y-78604762D01*
X53218438Y-78604762D02*
X53170819Y-78747619D01*
X53170819Y-78747619D02*
X53170819Y-78842857D01*
X53170819Y-78842857D02*
X53218438Y-78985714D01*
X53218438Y-78985714D02*
X53266057Y-79033333D01*
X53170819Y-79890476D02*
X53170819Y-79700000D01*
X53170819Y-79700000D02*
X53218438Y-79604762D01*
X53218438Y-79604762D02*
X53266057Y-79557143D01*
X53266057Y-79557143D02*
X53408914Y-79461905D01*
X53408914Y-79461905D02*
X53599390Y-79414286D01*
X53599390Y-79414286D02*
X53980342Y-79414286D01*
X53980342Y-79414286D02*
X54075580Y-79461905D01*
X54075580Y-79461905D02*
X54123200Y-79509524D01*
X54123200Y-79509524D02*
X54170819Y-79604762D01*
X54170819Y-79604762D02*
X54170819Y-79795238D01*
X54170819Y-79795238D02*
X54123200Y-79890476D01*
X54123200Y-79890476D02*
X54075580Y-79938095D01*
X54075580Y-79938095D02*
X53980342Y-79985714D01*
X53980342Y-79985714D02*
X53742247Y-79985714D01*
X53742247Y-79985714D02*
X53647009Y-79938095D01*
X53647009Y-79938095D02*
X53599390Y-79890476D01*
X53599390Y-79890476D02*
X53551771Y-79795238D01*
X53551771Y-79795238D02*
X53551771Y-79604762D01*
X53551771Y-79604762D02*
X53599390Y-79509524D01*
X53599390Y-79509524D02*
X53647009Y-79461905D01*
X53647009Y-79461905D02*
X53742247Y-79414286D01*
X169428819Y-79345142D02*
X168952628Y-79011809D01*
X169428819Y-78773714D02*
X168428819Y-78773714D01*
X168428819Y-78773714D02*
X168428819Y-79154666D01*
X168428819Y-79154666D02*
X168476438Y-79249904D01*
X168476438Y-79249904D02*
X168524057Y-79297523D01*
X168524057Y-79297523D02*
X168619295Y-79345142D01*
X168619295Y-79345142D02*
X168762152Y-79345142D01*
X168762152Y-79345142D02*
X168857390Y-79297523D01*
X168857390Y-79297523D02*
X168905009Y-79249904D01*
X168905009Y-79249904D02*
X168952628Y-79154666D01*
X168952628Y-79154666D02*
X168952628Y-78773714D01*
X168524057Y-79726095D02*
X168476438Y-79773714D01*
X168476438Y-79773714D02*
X168428819Y-79868952D01*
X168428819Y-79868952D02*
X168428819Y-80107047D01*
X168428819Y-80107047D02*
X168476438Y-80202285D01*
X168476438Y-80202285D02*
X168524057Y-80249904D01*
X168524057Y-80249904D02*
X168619295Y-80297523D01*
X168619295Y-80297523D02*
X168714533Y-80297523D01*
X168714533Y-80297523D02*
X168857390Y-80249904D01*
X168857390Y-80249904D02*
X169428819Y-79678476D01*
X169428819Y-79678476D02*
X169428819Y-80297523D01*
X168428819Y-80630857D02*
X168428819Y-81297523D01*
X168428819Y-81297523D02*
X169428819Y-80868952D01*
X138289857Y-72610819D02*
X138623190Y-72134628D01*
X138861285Y-72610819D02*
X138861285Y-71610819D01*
X138861285Y-71610819D02*
X138480333Y-71610819D01*
X138480333Y-71610819D02*
X138385095Y-71658438D01*
X138385095Y-71658438D02*
X138337476Y-71706057D01*
X138337476Y-71706057D02*
X138289857Y-71801295D01*
X138289857Y-71801295D02*
X138289857Y-71944152D01*
X138289857Y-71944152D02*
X138337476Y-72039390D01*
X138337476Y-72039390D02*
X138385095Y-72087009D01*
X138385095Y-72087009D02*
X138480333Y-72134628D01*
X138480333Y-72134628D02*
X138861285Y-72134628D01*
X137337476Y-72610819D02*
X137908904Y-72610819D01*
X137623190Y-72610819D02*
X137623190Y-71610819D01*
X137623190Y-71610819D02*
X137718428Y-71753676D01*
X137718428Y-71753676D02*
X137813666Y-71848914D01*
X137813666Y-71848914D02*
X137908904Y-71896533D01*
X136861285Y-72610819D02*
X136670809Y-72610819D01*
X136670809Y-72610819D02*
X136575571Y-72563200D01*
X136575571Y-72563200D02*
X136527952Y-72515580D01*
X136527952Y-72515580D02*
X136432714Y-72372723D01*
X136432714Y-72372723D02*
X136385095Y-72182247D01*
X136385095Y-72182247D02*
X136385095Y-71801295D01*
X136385095Y-71801295D02*
X136432714Y-71706057D01*
X136432714Y-71706057D02*
X136480333Y-71658438D01*
X136480333Y-71658438D02*
X136575571Y-71610819D01*
X136575571Y-71610819D02*
X136766047Y-71610819D01*
X136766047Y-71610819D02*
X136861285Y-71658438D01*
X136861285Y-71658438D02*
X136908904Y-71706057D01*
X136908904Y-71706057D02*
X136956523Y-71801295D01*
X136956523Y-71801295D02*
X136956523Y-72039390D01*
X136956523Y-72039390D02*
X136908904Y-72134628D01*
X136908904Y-72134628D02*
X136861285Y-72182247D01*
X136861285Y-72182247D02*
X136766047Y-72229866D01*
X136766047Y-72229866D02*
X136575571Y-72229866D01*
X136575571Y-72229866D02*
X136480333Y-72182247D01*
X136480333Y-72182247D02*
X136432714Y-72134628D01*
X136432714Y-72134628D02*
X136385095Y-72039390D01*
X174353580Y-73503142D02*
X174401200Y-73455523D01*
X174401200Y-73455523D02*
X174448819Y-73312666D01*
X174448819Y-73312666D02*
X174448819Y-73217428D01*
X174448819Y-73217428D02*
X174401200Y-73074571D01*
X174401200Y-73074571D02*
X174305961Y-72979333D01*
X174305961Y-72979333D02*
X174210723Y-72931714D01*
X174210723Y-72931714D02*
X174020247Y-72884095D01*
X174020247Y-72884095D02*
X173877390Y-72884095D01*
X173877390Y-72884095D02*
X173686914Y-72931714D01*
X173686914Y-72931714D02*
X173591676Y-72979333D01*
X173591676Y-72979333D02*
X173496438Y-73074571D01*
X173496438Y-73074571D02*
X173448819Y-73217428D01*
X173448819Y-73217428D02*
X173448819Y-73312666D01*
X173448819Y-73312666D02*
X173496438Y-73455523D01*
X173496438Y-73455523D02*
X173544057Y-73503142D01*
X173544057Y-73884095D02*
X173496438Y-73931714D01*
X173496438Y-73931714D02*
X173448819Y-74026952D01*
X173448819Y-74026952D02*
X173448819Y-74265047D01*
X173448819Y-74265047D02*
X173496438Y-74360285D01*
X173496438Y-74360285D02*
X173544057Y-74407904D01*
X173544057Y-74407904D02*
X173639295Y-74455523D01*
X173639295Y-74455523D02*
X173734533Y-74455523D01*
X173734533Y-74455523D02*
X173877390Y-74407904D01*
X173877390Y-74407904D02*
X174448819Y-73836476D01*
X174448819Y-73836476D02*
X174448819Y-74455523D01*
X173448819Y-74788857D02*
X173448819Y-75407904D01*
X173448819Y-75407904D02*
X173829771Y-75074571D01*
X173829771Y-75074571D02*
X173829771Y-75217428D01*
X173829771Y-75217428D02*
X173877390Y-75312666D01*
X173877390Y-75312666D02*
X173925009Y-75360285D01*
X173925009Y-75360285D02*
X174020247Y-75407904D01*
X174020247Y-75407904D02*
X174258342Y-75407904D01*
X174258342Y-75407904D02*
X174353580Y-75360285D01*
X174353580Y-75360285D02*
X174401200Y-75312666D01*
X174401200Y-75312666D02*
X174448819Y-75217428D01*
X174448819Y-75217428D02*
X174448819Y-74931714D01*
X174448819Y-74931714D02*
X174401200Y-74836476D01*
X174401200Y-74836476D02*
X174353580Y-74788857D01*
X167896857Y-87020819D02*
X168230190Y-86544628D01*
X168468285Y-87020819D02*
X168468285Y-86020819D01*
X168468285Y-86020819D02*
X168087333Y-86020819D01*
X168087333Y-86020819D02*
X167992095Y-86068438D01*
X167992095Y-86068438D02*
X167944476Y-86116057D01*
X167944476Y-86116057D02*
X167896857Y-86211295D01*
X167896857Y-86211295D02*
X167896857Y-86354152D01*
X167896857Y-86354152D02*
X167944476Y-86449390D01*
X167944476Y-86449390D02*
X167992095Y-86497009D01*
X167992095Y-86497009D02*
X168087333Y-86544628D01*
X168087333Y-86544628D02*
X168468285Y-86544628D01*
X167515904Y-86116057D02*
X167468285Y-86068438D01*
X167468285Y-86068438D02*
X167373047Y-86020819D01*
X167373047Y-86020819D02*
X167134952Y-86020819D01*
X167134952Y-86020819D02*
X167039714Y-86068438D01*
X167039714Y-86068438D02*
X166992095Y-86116057D01*
X166992095Y-86116057D02*
X166944476Y-86211295D01*
X166944476Y-86211295D02*
X166944476Y-86306533D01*
X166944476Y-86306533D02*
X166992095Y-86449390D01*
X166992095Y-86449390D02*
X167563523Y-87020819D01*
X167563523Y-87020819D02*
X166944476Y-87020819D01*
X166563523Y-86116057D02*
X166515904Y-86068438D01*
X166515904Y-86068438D02*
X166420666Y-86020819D01*
X166420666Y-86020819D02*
X166182571Y-86020819D01*
X166182571Y-86020819D02*
X166087333Y-86068438D01*
X166087333Y-86068438D02*
X166039714Y-86116057D01*
X166039714Y-86116057D02*
X165992095Y-86211295D01*
X165992095Y-86211295D02*
X165992095Y-86306533D01*
X165992095Y-86306533D02*
X166039714Y-86449390D01*
X166039714Y-86449390D02*
X166611142Y-87020819D01*
X166611142Y-87020819D02*
X165992095Y-87020819D01*
X166118857Y-89465580D02*
X166166476Y-89513200D01*
X166166476Y-89513200D02*
X166309333Y-89560819D01*
X166309333Y-89560819D02*
X166404571Y-89560819D01*
X166404571Y-89560819D02*
X166547428Y-89513200D01*
X166547428Y-89513200D02*
X166642666Y-89417961D01*
X166642666Y-89417961D02*
X166690285Y-89322723D01*
X166690285Y-89322723D02*
X166737904Y-89132247D01*
X166737904Y-89132247D02*
X166737904Y-88989390D01*
X166737904Y-88989390D02*
X166690285Y-88798914D01*
X166690285Y-88798914D02*
X166642666Y-88703676D01*
X166642666Y-88703676D02*
X166547428Y-88608438D01*
X166547428Y-88608438D02*
X166404571Y-88560819D01*
X166404571Y-88560819D02*
X166309333Y-88560819D01*
X166309333Y-88560819D02*
X166166476Y-88608438D01*
X166166476Y-88608438D02*
X166118857Y-88656057D01*
X165166476Y-89560819D02*
X165737904Y-89560819D01*
X165452190Y-89560819D02*
X165452190Y-88560819D01*
X165452190Y-88560819D02*
X165547428Y-88703676D01*
X165547428Y-88703676D02*
X165642666Y-88798914D01*
X165642666Y-88798914D02*
X165737904Y-88846533D01*
X164785523Y-88656057D02*
X164737904Y-88608438D01*
X164737904Y-88608438D02*
X164642666Y-88560819D01*
X164642666Y-88560819D02*
X164404571Y-88560819D01*
X164404571Y-88560819D02*
X164309333Y-88608438D01*
X164309333Y-88608438D02*
X164261714Y-88656057D01*
X164261714Y-88656057D02*
X164214095Y-88751295D01*
X164214095Y-88751295D02*
X164214095Y-88846533D01*
X164214095Y-88846533D02*
X164261714Y-88989390D01*
X164261714Y-88989390D02*
X164833142Y-89560819D01*
X164833142Y-89560819D02*
X164214095Y-89560819D01*
X111286666Y-81390819D02*
X111619999Y-80914628D01*
X111858094Y-81390819D02*
X111858094Y-80390819D01*
X111858094Y-80390819D02*
X111477142Y-80390819D01*
X111477142Y-80390819D02*
X111381904Y-80438438D01*
X111381904Y-80438438D02*
X111334285Y-80486057D01*
X111334285Y-80486057D02*
X111286666Y-80581295D01*
X111286666Y-80581295D02*
X111286666Y-80724152D01*
X111286666Y-80724152D02*
X111334285Y-80819390D01*
X111334285Y-80819390D02*
X111381904Y-80867009D01*
X111381904Y-80867009D02*
X111477142Y-80914628D01*
X111477142Y-80914628D02*
X111858094Y-80914628D01*
X110953332Y-80390819D02*
X110286666Y-80390819D01*
X110286666Y-80390819D02*
X110715237Y-81390819D01*
X156929580Y-65121142D02*
X156977200Y-65073523D01*
X156977200Y-65073523D02*
X157024819Y-64930666D01*
X157024819Y-64930666D02*
X157024819Y-64835428D01*
X157024819Y-64835428D02*
X156977200Y-64692571D01*
X156977200Y-64692571D02*
X156881961Y-64597333D01*
X156881961Y-64597333D02*
X156786723Y-64549714D01*
X156786723Y-64549714D02*
X156596247Y-64502095D01*
X156596247Y-64502095D02*
X156453390Y-64502095D01*
X156453390Y-64502095D02*
X156262914Y-64549714D01*
X156262914Y-64549714D02*
X156167676Y-64597333D01*
X156167676Y-64597333D02*
X156072438Y-64692571D01*
X156072438Y-64692571D02*
X156024819Y-64835428D01*
X156024819Y-64835428D02*
X156024819Y-64930666D01*
X156024819Y-64930666D02*
X156072438Y-65073523D01*
X156072438Y-65073523D02*
X156120057Y-65121142D01*
X156120057Y-65502095D02*
X156072438Y-65549714D01*
X156072438Y-65549714D02*
X156024819Y-65644952D01*
X156024819Y-65644952D02*
X156024819Y-65883047D01*
X156024819Y-65883047D02*
X156072438Y-65978285D01*
X156072438Y-65978285D02*
X156120057Y-66025904D01*
X156120057Y-66025904D02*
X156215295Y-66073523D01*
X156215295Y-66073523D02*
X156310533Y-66073523D01*
X156310533Y-66073523D02*
X156453390Y-66025904D01*
X156453390Y-66025904D02*
X157024819Y-65454476D01*
X157024819Y-65454476D02*
X157024819Y-66073523D01*
X156120057Y-66454476D02*
X156072438Y-66502095D01*
X156072438Y-66502095D02*
X156024819Y-66597333D01*
X156024819Y-66597333D02*
X156024819Y-66835428D01*
X156024819Y-66835428D02*
X156072438Y-66930666D01*
X156072438Y-66930666D02*
X156120057Y-66978285D01*
X156120057Y-66978285D02*
X156215295Y-67025904D01*
X156215295Y-67025904D02*
X156310533Y-67025904D01*
X156310533Y-67025904D02*
X156453390Y-66978285D01*
X156453390Y-66978285D02*
X157024819Y-66406857D01*
X157024819Y-66406857D02*
X157024819Y-67025904D01*
X57107580Y-54978333D02*
X57155200Y-54930714D01*
X57155200Y-54930714D02*
X57202819Y-54787857D01*
X57202819Y-54787857D02*
X57202819Y-54692619D01*
X57202819Y-54692619D02*
X57155200Y-54549762D01*
X57155200Y-54549762D02*
X57059961Y-54454524D01*
X57059961Y-54454524D02*
X56964723Y-54406905D01*
X56964723Y-54406905D02*
X56774247Y-54359286D01*
X56774247Y-54359286D02*
X56631390Y-54359286D01*
X56631390Y-54359286D02*
X56440914Y-54406905D01*
X56440914Y-54406905D02*
X56345676Y-54454524D01*
X56345676Y-54454524D02*
X56250438Y-54549762D01*
X56250438Y-54549762D02*
X56202819Y-54692619D01*
X56202819Y-54692619D02*
X56202819Y-54787857D01*
X56202819Y-54787857D02*
X56250438Y-54930714D01*
X56250438Y-54930714D02*
X56298057Y-54978333D01*
X56202819Y-55883095D02*
X56202819Y-55406905D01*
X56202819Y-55406905D02*
X56679009Y-55359286D01*
X56679009Y-55359286D02*
X56631390Y-55406905D01*
X56631390Y-55406905D02*
X56583771Y-55502143D01*
X56583771Y-55502143D02*
X56583771Y-55740238D01*
X56583771Y-55740238D02*
X56631390Y-55835476D01*
X56631390Y-55835476D02*
X56679009Y-55883095D01*
X56679009Y-55883095D02*
X56774247Y-55930714D01*
X56774247Y-55930714D02*
X57012342Y-55930714D01*
X57012342Y-55930714D02*
X57107580Y-55883095D01*
X57107580Y-55883095D02*
X57155200Y-55835476D01*
X57155200Y-55835476D02*
X57202819Y-55740238D01*
X57202819Y-55740238D02*
X57202819Y-55502143D01*
X57202819Y-55502143D02*
X57155200Y-55406905D01*
X57155200Y-55406905D02*
X57107580Y-55359286D01*
X161850819Y-82139142D02*
X161374628Y-81805809D01*
X161850819Y-81567714D02*
X160850819Y-81567714D01*
X160850819Y-81567714D02*
X160850819Y-81948666D01*
X160850819Y-81948666D02*
X160898438Y-82043904D01*
X160898438Y-82043904D02*
X160946057Y-82091523D01*
X160946057Y-82091523D02*
X161041295Y-82139142D01*
X161041295Y-82139142D02*
X161184152Y-82139142D01*
X161184152Y-82139142D02*
X161279390Y-82091523D01*
X161279390Y-82091523D02*
X161327009Y-82043904D01*
X161327009Y-82043904D02*
X161374628Y-81948666D01*
X161374628Y-81948666D02*
X161374628Y-81567714D01*
X160946057Y-82520095D02*
X160898438Y-82567714D01*
X160898438Y-82567714D02*
X160850819Y-82662952D01*
X160850819Y-82662952D02*
X160850819Y-82901047D01*
X160850819Y-82901047D02*
X160898438Y-82996285D01*
X160898438Y-82996285D02*
X160946057Y-83043904D01*
X160946057Y-83043904D02*
X161041295Y-83091523D01*
X161041295Y-83091523D02*
X161136533Y-83091523D01*
X161136533Y-83091523D02*
X161279390Y-83043904D01*
X161279390Y-83043904D02*
X161850819Y-82472476D01*
X161850819Y-82472476D02*
X161850819Y-83091523D01*
X161850819Y-84043904D02*
X161850819Y-83472476D01*
X161850819Y-83758190D02*
X160850819Y-83758190D01*
X160850819Y-83758190D02*
X160993676Y-83662952D01*
X160993676Y-83662952D02*
X161088914Y-83567714D01*
X161088914Y-83567714D02*
X161136533Y-83472476D01*
X115257580Y-53125333D02*
X115305200Y-53077714D01*
X115305200Y-53077714D02*
X115352819Y-52934857D01*
X115352819Y-52934857D02*
X115352819Y-52839619D01*
X115352819Y-52839619D02*
X115305200Y-52696762D01*
X115305200Y-52696762D02*
X115209961Y-52601524D01*
X115209961Y-52601524D02*
X115114723Y-52553905D01*
X115114723Y-52553905D02*
X114924247Y-52506286D01*
X114924247Y-52506286D02*
X114781390Y-52506286D01*
X114781390Y-52506286D02*
X114590914Y-52553905D01*
X114590914Y-52553905D02*
X114495676Y-52601524D01*
X114495676Y-52601524D02*
X114400438Y-52696762D01*
X114400438Y-52696762D02*
X114352819Y-52839619D01*
X114352819Y-52839619D02*
X114352819Y-52934857D01*
X114352819Y-52934857D02*
X114400438Y-53077714D01*
X114400438Y-53077714D02*
X114448057Y-53125333D01*
X115352819Y-54077714D02*
X115352819Y-53506286D01*
X115352819Y-53792000D02*
X114352819Y-53792000D01*
X114352819Y-53792000D02*
X114495676Y-53696762D01*
X114495676Y-53696762D02*
X114590914Y-53601524D01*
X114590914Y-53601524D02*
X114638533Y-53506286D01*
X158310819Y-65095142D02*
X157834628Y-64761809D01*
X158310819Y-64523714D02*
X157310819Y-64523714D01*
X157310819Y-64523714D02*
X157310819Y-64904666D01*
X157310819Y-64904666D02*
X157358438Y-64999904D01*
X157358438Y-64999904D02*
X157406057Y-65047523D01*
X157406057Y-65047523D02*
X157501295Y-65095142D01*
X157501295Y-65095142D02*
X157644152Y-65095142D01*
X157644152Y-65095142D02*
X157739390Y-65047523D01*
X157739390Y-65047523D02*
X157787009Y-64999904D01*
X157787009Y-64999904D02*
X157834628Y-64904666D01*
X157834628Y-64904666D02*
X157834628Y-64523714D01*
X157406057Y-65476095D02*
X157358438Y-65523714D01*
X157358438Y-65523714D02*
X157310819Y-65618952D01*
X157310819Y-65618952D02*
X157310819Y-65857047D01*
X157310819Y-65857047D02*
X157358438Y-65952285D01*
X157358438Y-65952285D02*
X157406057Y-65999904D01*
X157406057Y-65999904D02*
X157501295Y-66047523D01*
X157501295Y-66047523D02*
X157596533Y-66047523D01*
X157596533Y-66047523D02*
X157739390Y-65999904D01*
X157739390Y-65999904D02*
X158310819Y-65428476D01*
X158310819Y-65428476D02*
X158310819Y-66047523D01*
X158310819Y-66523714D02*
X158310819Y-66714190D01*
X158310819Y-66714190D02*
X158263200Y-66809428D01*
X158263200Y-66809428D02*
X158215580Y-66857047D01*
X158215580Y-66857047D02*
X158072723Y-66952285D01*
X158072723Y-66952285D02*
X157882247Y-66999904D01*
X157882247Y-66999904D02*
X157501295Y-66999904D01*
X157501295Y-66999904D02*
X157406057Y-66952285D01*
X157406057Y-66952285D02*
X157358438Y-66904666D01*
X157358438Y-66904666D02*
X157310819Y-66809428D01*
X157310819Y-66809428D02*
X157310819Y-66618952D01*
X157310819Y-66618952D02*
X157358438Y-66523714D01*
X157358438Y-66523714D02*
X157406057Y-66476095D01*
X157406057Y-66476095D02*
X157501295Y-66428476D01*
X157501295Y-66428476D02*
X157739390Y-66428476D01*
X157739390Y-66428476D02*
X157834628Y-66476095D01*
X157834628Y-66476095D02*
X157882247Y-66523714D01*
X157882247Y-66523714D02*
X157929866Y-66618952D01*
X157929866Y-66618952D02*
X157929866Y-66809428D01*
X157929866Y-66809428D02*
X157882247Y-66904666D01*
X157882247Y-66904666D02*
X157834628Y-66952285D01*
X157834628Y-66952285D02*
X157739390Y-66999904D01*
X168724819Y-107854642D02*
X168248628Y-107521309D01*
X168724819Y-107283214D02*
X167724819Y-107283214D01*
X167724819Y-107283214D02*
X167724819Y-107664166D01*
X167724819Y-107664166D02*
X167772438Y-107759404D01*
X167772438Y-107759404D02*
X167820057Y-107807023D01*
X167820057Y-107807023D02*
X167915295Y-107854642D01*
X167915295Y-107854642D02*
X168058152Y-107854642D01*
X168058152Y-107854642D02*
X168153390Y-107807023D01*
X168153390Y-107807023D02*
X168201009Y-107759404D01*
X168201009Y-107759404D02*
X168248628Y-107664166D01*
X168248628Y-107664166D02*
X168248628Y-107283214D01*
X168724819Y-108807023D02*
X168724819Y-108235595D01*
X168724819Y-108521309D02*
X167724819Y-108521309D01*
X167724819Y-108521309D02*
X167867676Y-108426071D01*
X167867676Y-108426071D02*
X167962914Y-108330833D01*
X167962914Y-108330833D02*
X168010533Y-108235595D01*
X167724819Y-109664166D02*
X167724819Y-109473690D01*
X167724819Y-109473690D02*
X167772438Y-109378452D01*
X167772438Y-109378452D02*
X167820057Y-109330833D01*
X167820057Y-109330833D02*
X167962914Y-109235595D01*
X167962914Y-109235595D02*
X168153390Y-109187976D01*
X168153390Y-109187976D02*
X168534342Y-109187976D01*
X168534342Y-109187976D02*
X168629580Y-109235595D01*
X168629580Y-109235595D02*
X168677200Y-109283214D01*
X168677200Y-109283214D02*
X168724819Y-109378452D01*
X168724819Y-109378452D02*
X168724819Y-109568928D01*
X168724819Y-109568928D02*
X168677200Y-109664166D01*
X168677200Y-109664166D02*
X168629580Y-109711785D01*
X168629580Y-109711785D02*
X168534342Y-109759404D01*
X168534342Y-109759404D02*
X168296247Y-109759404D01*
X168296247Y-109759404D02*
X168201009Y-109711785D01*
X168201009Y-109711785D02*
X168153390Y-109664166D01*
X168153390Y-109664166D02*
X168105771Y-109568928D01*
X168105771Y-109568928D02*
X168105771Y-109378452D01*
X168105771Y-109378452D02*
X168153390Y-109283214D01*
X168153390Y-109283214D02*
X168201009Y-109235595D01*
X168201009Y-109235595D02*
X168296247Y-109187976D01*
X151743904Y-84776819D02*
X151743904Y-85586342D01*
X151743904Y-85586342D02*
X151696285Y-85681580D01*
X151696285Y-85681580D02*
X151648666Y-85729200D01*
X151648666Y-85729200D02*
X151553428Y-85776819D01*
X151553428Y-85776819D02*
X151362952Y-85776819D01*
X151362952Y-85776819D02*
X151267714Y-85729200D01*
X151267714Y-85729200D02*
X151220095Y-85681580D01*
X151220095Y-85681580D02*
X151172476Y-85586342D01*
X151172476Y-85586342D02*
X151172476Y-84776819D01*
X150743904Y-84872057D02*
X150696285Y-84824438D01*
X150696285Y-84824438D02*
X150601047Y-84776819D01*
X150601047Y-84776819D02*
X150362952Y-84776819D01*
X150362952Y-84776819D02*
X150267714Y-84824438D01*
X150267714Y-84824438D02*
X150220095Y-84872057D01*
X150220095Y-84872057D02*
X150172476Y-84967295D01*
X150172476Y-84967295D02*
X150172476Y-85062533D01*
X150172476Y-85062533D02*
X150220095Y-85205390D01*
X150220095Y-85205390D02*
X150791523Y-85776819D01*
X150791523Y-85776819D02*
X150172476Y-85776819D01*
X91704819Y-84901333D02*
X91228628Y-84568000D01*
X91704819Y-84329905D02*
X90704819Y-84329905D01*
X90704819Y-84329905D02*
X90704819Y-84710857D01*
X90704819Y-84710857D02*
X90752438Y-84806095D01*
X90752438Y-84806095D02*
X90800057Y-84853714D01*
X90800057Y-84853714D02*
X90895295Y-84901333D01*
X90895295Y-84901333D02*
X91038152Y-84901333D01*
X91038152Y-84901333D02*
X91133390Y-84853714D01*
X91133390Y-84853714D02*
X91181009Y-84806095D01*
X91181009Y-84806095D02*
X91228628Y-84710857D01*
X91228628Y-84710857D02*
X91228628Y-84329905D01*
X91038152Y-85758476D02*
X91704819Y-85758476D01*
X90657200Y-85520381D02*
X91371485Y-85282286D01*
X91371485Y-85282286D02*
X91371485Y-85901333D01*
X169166857Y-78289580D02*
X169214476Y-78337200D01*
X169214476Y-78337200D02*
X169357333Y-78384819D01*
X169357333Y-78384819D02*
X169452571Y-78384819D01*
X169452571Y-78384819D02*
X169595428Y-78337200D01*
X169595428Y-78337200D02*
X169690666Y-78241961D01*
X169690666Y-78241961D02*
X169738285Y-78146723D01*
X169738285Y-78146723D02*
X169785904Y-77956247D01*
X169785904Y-77956247D02*
X169785904Y-77813390D01*
X169785904Y-77813390D02*
X169738285Y-77622914D01*
X169738285Y-77622914D02*
X169690666Y-77527676D01*
X169690666Y-77527676D02*
X169595428Y-77432438D01*
X169595428Y-77432438D02*
X169452571Y-77384819D01*
X169452571Y-77384819D02*
X169357333Y-77384819D01*
X169357333Y-77384819D02*
X169214476Y-77432438D01*
X169214476Y-77432438D02*
X169166857Y-77480057D01*
X168785904Y-77480057D02*
X168738285Y-77432438D01*
X168738285Y-77432438D02*
X168643047Y-77384819D01*
X168643047Y-77384819D02*
X168404952Y-77384819D01*
X168404952Y-77384819D02*
X168309714Y-77432438D01*
X168309714Y-77432438D02*
X168262095Y-77480057D01*
X168262095Y-77480057D02*
X168214476Y-77575295D01*
X168214476Y-77575295D02*
X168214476Y-77670533D01*
X168214476Y-77670533D02*
X168262095Y-77813390D01*
X168262095Y-77813390D02*
X168833523Y-78384819D01*
X168833523Y-78384819D02*
X168214476Y-78384819D01*
X167262095Y-78384819D02*
X167833523Y-78384819D01*
X167547809Y-78384819D02*
X167547809Y-77384819D01*
X167547809Y-77384819D02*
X167643047Y-77527676D01*
X167643047Y-77527676D02*
X167738285Y-77622914D01*
X167738285Y-77622914D02*
X167833523Y-77670533D01*
X128018857Y-83210819D02*
X128352190Y-82734628D01*
X128590285Y-83210819D02*
X128590285Y-82210819D01*
X128590285Y-82210819D02*
X128209333Y-82210819D01*
X128209333Y-82210819D02*
X128114095Y-82258438D01*
X128114095Y-82258438D02*
X128066476Y-82306057D01*
X128066476Y-82306057D02*
X128018857Y-82401295D01*
X128018857Y-82401295D02*
X128018857Y-82544152D01*
X128018857Y-82544152D02*
X128066476Y-82639390D01*
X128066476Y-82639390D02*
X128114095Y-82687009D01*
X128114095Y-82687009D02*
X128209333Y-82734628D01*
X128209333Y-82734628D02*
X128590285Y-82734628D01*
X127066476Y-83210819D02*
X127637904Y-83210819D01*
X127352190Y-83210819D02*
X127352190Y-82210819D01*
X127352190Y-82210819D02*
X127447428Y-82353676D01*
X127447428Y-82353676D02*
X127542666Y-82448914D01*
X127542666Y-82448914D02*
X127637904Y-82496533D01*
X126685523Y-82306057D02*
X126637904Y-82258438D01*
X126637904Y-82258438D02*
X126542666Y-82210819D01*
X126542666Y-82210819D02*
X126304571Y-82210819D01*
X126304571Y-82210819D02*
X126209333Y-82258438D01*
X126209333Y-82258438D02*
X126161714Y-82306057D01*
X126161714Y-82306057D02*
X126114095Y-82401295D01*
X126114095Y-82401295D02*
X126114095Y-82496533D01*
X126114095Y-82496533D02*
X126161714Y-82639390D01*
X126161714Y-82639390D02*
X126733142Y-83210819D01*
X126733142Y-83210819D02*
X126114095Y-83210819D01*
X150148666Y-87179580D02*
X150196285Y-87227200D01*
X150196285Y-87227200D02*
X150339142Y-87274819D01*
X150339142Y-87274819D02*
X150434380Y-87274819D01*
X150434380Y-87274819D02*
X150577237Y-87227200D01*
X150577237Y-87227200D02*
X150672475Y-87131961D01*
X150672475Y-87131961D02*
X150720094Y-87036723D01*
X150720094Y-87036723D02*
X150767713Y-86846247D01*
X150767713Y-86846247D02*
X150767713Y-86703390D01*
X150767713Y-86703390D02*
X150720094Y-86512914D01*
X150720094Y-86512914D02*
X150672475Y-86417676D01*
X150672475Y-86417676D02*
X150577237Y-86322438D01*
X150577237Y-86322438D02*
X150434380Y-86274819D01*
X150434380Y-86274819D02*
X150339142Y-86274819D01*
X150339142Y-86274819D02*
X150196285Y-86322438D01*
X150196285Y-86322438D02*
X150148666Y-86370057D01*
X149815332Y-86274819D02*
X149148666Y-86274819D01*
X149148666Y-86274819D02*
X149577237Y-87274819D01*
X122192666Y-79559580D02*
X122240285Y-79607200D01*
X122240285Y-79607200D02*
X122383142Y-79654819D01*
X122383142Y-79654819D02*
X122478380Y-79654819D01*
X122478380Y-79654819D02*
X122621237Y-79607200D01*
X122621237Y-79607200D02*
X122716475Y-79511961D01*
X122716475Y-79511961D02*
X122764094Y-79416723D01*
X122764094Y-79416723D02*
X122811713Y-79226247D01*
X122811713Y-79226247D02*
X122811713Y-79083390D01*
X122811713Y-79083390D02*
X122764094Y-78892914D01*
X122764094Y-78892914D02*
X122716475Y-78797676D01*
X122716475Y-78797676D02*
X122621237Y-78702438D01*
X122621237Y-78702438D02*
X122478380Y-78654819D01*
X122478380Y-78654819D02*
X122383142Y-78654819D01*
X122383142Y-78654819D02*
X122240285Y-78702438D01*
X122240285Y-78702438D02*
X122192666Y-78750057D01*
X121621237Y-79083390D02*
X121716475Y-79035771D01*
X121716475Y-79035771D02*
X121764094Y-78988152D01*
X121764094Y-78988152D02*
X121811713Y-78892914D01*
X121811713Y-78892914D02*
X121811713Y-78845295D01*
X121811713Y-78845295D02*
X121764094Y-78750057D01*
X121764094Y-78750057D02*
X121716475Y-78702438D01*
X121716475Y-78702438D02*
X121621237Y-78654819D01*
X121621237Y-78654819D02*
X121430761Y-78654819D01*
X121430761Y-78654819D02*
X121335523Y-78702438D01*
X121335523Y-78702438D02*
X121287904Y-78750057D01*
X121287904Y-78750057D02*
X121240285Y-78845295D01*
X121240285Y-78845295D02*
X121240285Y-78892914D01*
X121240285Y-78892914D02*
X121287904Y-78988152D01*
X121287904Y-78988152D02*
X121335523Y-79035771D01*
X121335523Y-79035771D02*
X121430761Y-79083390D01*
X121430761Y-79083390D02*
X121621237Y-79083390D01*
X121621237Y-79083390D02*
X121716475Y-79131009D01*
X121716475Y-79131009D02*
X121764094Y-79178628D01*
X121764094Y-79178628D02*
X121811713Y-79273866D01*
X121811713Y-79273866D02*
X121811713Y-79464342D01*
X121811713Y-79464342D02*
X121764094Y-79559580D01*
X121764094Y-79559580D02*
X121716475Y-79607200D01*
X121716475Y-79607200D02*
X121621237Y-79654819D01*
X121621237Y-79654819D02*
X121430761Y-79654819D01*
X121430761Y-79654819D02*
X121335523Y-79607200D01*
X121335523Y-79607200D02*
X121287904Y-79559580D01*
X121287904Y-79559580D02*
X121240285Y-79464342D01*
X121240285Y-79464342D02*
X121240285Y-79273866D01*
X121240285Y-79273866D02*
X121287904Y-79178628D01*
X121287904Y-79178628D02*
X121335523Y-79131009D01*
X121335523Y-79131009D02*
X121430761Y-79083390D01*
X148388819Y-92360642D02*
X147912628Y-92027309D01*
X148388819Y-91789214D02*
X147388819Y-91789214D01*
X147388819Y-91789214D02*
X147388819Y-92170166D01*
X147388819Y-92170166D02*
X147436438Y-92265404D01*
X147436438Y-92265404D02*
X147484057Y-92313023D01*
X147484057Y-92313023D02*
X147579295Y-92360642D01*
X147579295Y-92360642D02*
X147722152Y-92360642D01*
X147722152Y-92360642D02*
X147817390Y-92313023D01*
X147817390Y-92313023D02*
X147865009Y-92265404D01*
X147865009Y-92265404D02*
X147912628Y-92170166D01*
X147912628Y-92170166D02*
X147912628Y-91789214D01*
X148388819Y-93313023D02*
X148388819Y-92741595D01*
X148388819Y-93027309D02*
X147388819Y-93027309D01*
X147388819Y-93027309D02*
X147531676Y-92932071D01*
X147531676Y-92932071D02*
X147626914Y-92836833D01*
X147626914Y-92836833D02*
X147674533Y-92741595D01*
X147388819Y-93646357D02*
X147388819Y-94313023D01*
X147388819Y-94313023D02*
X148388819Y-93884452D01*
X132656819Y-107767142D02*
X132180628Y-107433809D01*
X132656819Y-107195714D02*
X131656819Y-107195714D01*
X131656819Y-107195714D02*
X131656819Y-107576666D01*
X131656819Y-107576666D02*
X131704438Y-107671904D01*
X131704438Y-107671904D02*
X131752057Y-107719523D01*
X131752057Y-107719523D02*
X131847295Y-107767142D01*
X131847295Y-107767142D02*
X131990152Y-107767142D01*
X131990152Y-107767142D02*
X132085390Y-107719523D01*
X132085390Y-107719523D02*
X132133009Y-107671904D01*
X132133009Y-107671904D02*
X132180628Y-107576666D01*
X132180628Y-107576666D02*
X132180628Y-107195714D01*
X132656819Y-108719523D02*
X132656819Y-108148095D01*
X132656819Y-108433809D02*
X131656819Y-108433809D01*
X131656819Y-108433809D02*
X131799676Y-108338571D01*
X131799676Y-108338571D02*
X131894914Y-108243333D01*
X131894914Y-108243333D02*
X131942533Y-108148095D01*
X132656819Y-109671904D02*
X132656819Y-109100476D01*
X132656819Y-109386190D02*
X131656819Y-109386190D01*
X131656819Y-109386190D02*
X131799676Y-109290952D01*
X131799676Y-109290952D02*
X131894914Y-109195714D01*
X131894914Y-109195714D02*
X131942533Y-109100476D01*
X55694819Y-84875333D02*
X55218628Y-84542000D01*
X55694819Y-84303905D02*
X54694819Y-84303905D01*
X54694819Y-84303905D02*
X54694819Y-84684857D01*
X54694819Y-84684857D02*
X54742438Y-84780095D01*
X54742438Y-84780095D02*
X54790057Y-84827714D01*
X54790057Y-84827714D02*
X54885295Y-84875333D01*
X54885295Y-84875333D02*
X55028152Y-84875333D01*
X55028152Y-84875333D02*
X55123390Y-84827714D01*
X55123390Y-84827714D02*
X55171009Y-84780095D01*
X55171009Y-84780095D02*
X55218628Y-84684857D01*
X55218628Y-84684857D02*
X55218628Y-84303905D01*
X54694819Y-85780095D02*
X54694819Y-85303905D01*
X54694819Y-85303905D02*
X55171009Y-85256286D01*
X55171009Y-85256286D02*
X55123390Y-85303905D01*
X55123390Y-85303905D02*
X55075771Y-85399143D01*
X55075771Y-85399143D02*
X55075771Y-85637238D01*
X55075771Y-85637238D02*
X55123390Y-85732476D01*
X55123390Y-85732476D02*
X55171009Y-85780095D01*
X55171009Y-85780095D02*
X55266247Y-85827714D01*
X55266247Y-85827714D02*
X55504342Y-85827714D01*
X55504342Y-85827714D02*
X55599580Y-85780095D01*
X55599580Y-85780095D02*
X55647200Y-85732476D01*
X55647200Y-85732476D02*
X55694819Y-85637238D01*
X55694819Y-85637238D02*
X55694819Y-85399143D01*
X55694819Y-85399143D02*
X55647200Y-85303905D01*
X55647200Y-85303905D02*
X55599580Y-85256286D01*
X155688857Y-79585580D02*
X155736476Y-79633200D01*
X155736476Y-79633200D02*
X155879333Y-79680819D01*
X155879333Y-79680819D02*
X155974571Y-79680819D01*
X155974571Y-79680819D02*
X156117428Y-79633200D01*
X156117428Y-79633200D02*
X156212666Y-79537961D01*
X156212666Y-79537961D02*
X156260285Y-79442723D01*
X156260285Y-79442723D02*
X156307904Y-79252247D01*
X156307904Y-79252247D02*
X156307904Y-79109390D01*
X156307904Y-79109390D02*
X156260285Y-78918914D01*
X156260285Y-78918914D02*
X156212666Y-78823676D01*
X156212666Y-78823676D02*
X156117428Y-78728438D01*
X156117428Y-78728438D02*
X155974571Y-78680819D01*
X155974571Y-78680819D02*
X155879333Y-78680819D01*
X155879333Y-78680819D02*
X155736476Y-78728438D01*
X155736476Y-78728438D02*
X155688857Y-78776057D01*
X154736476Y-79680819D02*
X155307904Y-79680819D01*
X155022190Y-79680819D02*
X155022190Y-78680819D01*
X155022190Y-78680819D02*
X155117428Y-78823676D01*
X155117428Y-78823676D02*
X155212666Y-78918914D01*
X155212666Y-78918914D02*
X155307904Y-78966533D01*
X153784095Y-79680819D02*
X154355523Y-79680819D01*
X154069809Y-79680819D02*
X154069809Y-78680819D01*
X154069809Y-78680819D02*
X154165047Y-78823676D01*
X154165047Y-78823676D02*
X154260285Y-78918914D01*
X154260285Y-78918914D02*
X154355523Y-78966533D01*
X60546819Y-108584833D02*
X60070628Y-108251500D01*
X60546819Y-108013405D02*
X59546819Y-108013405D01*
X59546819Y-108013405D02*
X59546819Y-108394357D01*
X59546819Y-108394357D02*
X59594438Y-108489595D01*
X59594438Y-108489595D02*
X59642057Y-108537214D01*
X59642057Y-108537214D02*
X59737295Y-108584833D01*
X59737295Y-108584833D02*
X59880152Y-108584833D01*
X59880152Y-108584833D02*
X59975390Y-108537214D01*
X59975390Y-108537214D02*
X60023009Y-108489595D01*
X60023009Y-108489595D02*
X60070628Y-108394357D01*
X60070628Y-108394357D02*
X60070628Y-108013405D01*
X60546819Y-109061024D02*
X60546819Y-109251500D01*
X60546819Y-109251500D02*
X60499200Y-109346738D01*
X60499200Y-109346738D02*
X60451580Y-109394357D01*
X60451580Y-109394357D02*
X60308723Y-109489595D01*
X60308723Y-109489595D02*
X60118247Y-109537214D01*
X60118247Y-109537214D02*
X59737295Y-109537214D01*
X59737295Y-109537214D02*
X59642057Y-109489595D01*
X59642057Y-109489595D02*
X59594438Y-109441976D01*
X59594438Y-109441976D02*
X59546819Y-109346738D01*
X59546819Y-109346738D02*
X59546819Y-109156262D01*
X59546819Y-109156262D02*
X59594438Y-109061024D01*
X59594438Y-109061024D02*
X59642057Y-109013405D01*
X59642057Y-109013405D02*
X59737295Y-108965786D01*
X59737295Y-108965786D02*
X59975390Y-108965786D01*
X59975390Y-108965786D02*
X60070628Y-109013405D01*
X60070628Y-109013405D02*
X60118247Y-109061024D01*
X60118247Y-109061024D02*
X60165866Y-109156262D01*
X60165866Y-109156262D02*
X60165866Y-109346738D01*
X60165866Y-109346738D02*
X60118247Y-109441976D01*
X60118247Y-109441976D02*
X60070628Y-109489595D01*
X60070628Y-109489595D02*
X59975390Y-109537214D01*
X167626857Y-74759580D02*
X167674476Y-74807200D01*
X167674476Y-74807200D02*
X167817333Y-74854819D01*
X167817333Y-74854819D02*
X167912571Y-74854819D01*
X167912571Y-74854819D02*
X168055428Y-74807200D01*
X168055428Y-74807200D02*
X168150666Y-74711961D01*
X168150666Y-74711961D02*
X168198285Y-74616723D01*
X168198285Y-74616723D02*
X168245904Y-74426247D01*
X168245904Y-74426247D02*
X168245904Y-74283390D01*
X168245904Y-74283390D02*
X168198285Y-74092914D01*
X168198285Y-74092914D02*
X168150666Y-73997676D01*
X168150666Y-73997676D02*
X168055428Y-73902438D01*
X168055428Y-73902438D02*
X167912571Y-73854819D01*
X167912571Y-73854819D02*
X167817333Y-73854819D01*
X167817333Y-73854819D02*
X167674476Y-73902438D01*
X167674476Y-73902438D02*
X167626857Y-73950057D01*
X166674476Y-74854819D02*
X167245904Y-74854819D01*
X166960190Y-74854819D02*
X166960190Y-73854819D01*
X166960190Y-73854819D02*
X167055428Y-73997676D01*
X167055428Y-73997676D02*
X167150666Y-74092914D01*
X167150666Y-74092914D02*
X167245904Y-74140533D01*
X165817333Y-73854819D02*
X166007809Y-73854819D01*
X166007809Y-73854819D02*
X166103047Y-73902438D01*
X166103047Y-73902438D02*
X166150666Y-73950057D01*
X166150666Y-73950057D02*
X166245904Y-74092914D01*
X166245904Y-74092914D02*
X166293523Y-74283390D01*
X166293523Y-74283390D02*
X166293523Y-74664342D01*
X166293523Y-74664342D02*
X166245904Y-74759580D01*
X166245904Y-74759580D02*
X166198285Y-74807200D01*
X166198285Y-74807200D02*
X166103047Y-74854819D01*
X166103047Y-74854819D02*
X165912571Y-74854819D01*
X165912571Y-74854819D02*
X165817333Y-74807200D01*
X165817333Y-74807200D02*
X165769714Y-74759580D01*
X165769714Y-74759580D02*
X165722095Y-74664342D01*
X165722095Y-74664342D02*
X165722095Y-74426247D01*
X165722095Y-74426247D02*
X165769714Y-74331009D01*
X165769714Y-74331009D02*
X165817333Y-74283390D01*
X165817333Y-74283390D02*
X165912571Y-74235771D01*
X165912571Y-74235771D02*
X166103047Y-74235771D01*
X166103047Y-74235771D02*
X166198285Y-74283390D01*
X166198285Y-74283390D02*
X166245904Y-74331009D01*
X166245904Y-74331009D02*
X166293523Y-74426247D01*
X117366666Y-81390819D02*
X117699999Y-80914628D01*
X117938094Y-81390819D02*
X117938094Y-80390819D01*
X117938094Y-80390819D02*
X117557142Y-80390819D01*
X117557142Y-80390819D02*
X117461904Y-80438438D01*
X117461904Y-80438438D02*
X117414285Y-80486057D01*
X117414285Y-80486057D02*
X117366666Y-80581295D01*
X117366666Y-80581295D02*
X117366666Y-80724152D01*
X117366666Y-80724152D02*
X117414285Y-80819390D01*
X117414285Y-80819390D02*
X117461904Y-80867009D01*
X117461904Y-80867009D02*
X117557142Y-80914628D01*
X117557142Y-80914628D02*
X117938094Y-80914628D01*
X116795237Y-80819390D02*
X116890475Y-80771771D01*
X116890475Y-80771771D02*
X116938094Y-80724152D01*
X116938094Y-80724152D02*
X116985713Y-80628914D01*
X116985713Y-80628914D02*
X116985713Y-80581295D01*
X116985713Y-80581295D02*
X116938094Y-80486057D01*
X116938094Y-80486057D02*
X116890475Y-80438438D01*
X116890475Y-80438438D02*
X116795237Y-80390819D01*
X116795237Y-80390819D02*
X116604761Y-80390819D01*
X116604761Y-80390819D02*
X116509523Y-80438438D01*
X116509523Y-80438438D02*
X116461904Y-80486057D01*
X116461904Y-80486057D02*
X116414285Y-80581295D01*
X116414285Y-80581295D02*
X116414285Y-80628914D01*
X116414285Y-80628914D02*
X116461904Y-80724152D01*
X116461904Y-80724152D02*
X116509523Y-80771771D01*
X116509523Y-80771771D02*
X116604761Y-80819390D01*
X116604761Y-80819390D02*
X116795237Y-80819390D01*
X116795237Y-80819390D02*
X116890475Y-80867009D01*
X116890475Y-80867009D02*
X116938094Y-80914628D01*
X116938094Y-80914628D02*
X116985713Y-81009866D01*
X116985713Y-81009866D02*
X116985713Y-81200342D01*
X116985713Y-81200342D02*
X116938094Y-81295580D01*
X116938094Y-81295580D02*
X116890475Y-81343200D01*
X116890475Y-81343200D02*
X116795237Y-81390819D01*
X116795237Y-81390819D02*
X116604761Y-81390819D01*
X116604761Y-81390819D02*
X116509523Y-81343200D01*
X116509523Y-81343200D02*
X116461904Y-81295580D01*
X116461904Y-81295580D02*
X116414285Y-81200342D01*
X116414285Y-81200342D02*
X116414285Y-81009866D01*
X116414285Y-81009866D02*
X116461904Y-80914628D01*
X116461904Y-80914628D02*
X116509523Y-80867009D01*
X116509523Y-80867009D02*
X116604761Y-80819390D01*
X164102857Y-91725580D02*
X164150476Y-91773200D01*
X164150476Y-91773200D02*
X164293333Y-91820819D01*
X164293333Y-91820819D02*
X164388571Y-91820819D01*
X164388571Y-91820819D02*
X164531428Y-91773200D01*
X164531428Y-91773200D02*
X164626666Y-91677961D01*
X164626666Y-91677961D02*
X164674285Y-91582723D01*
X164674285Y-91582723D02*
X164721904Y-91392247D01*
X164721904Y-91392247D02*
X164721904Y-91249390D01*
X164721904Y-91249390D02*
X164674285Y-91058914D01*
X164674285Y-91058914D02*
X164626666Y-90963676D01*
X164626666Y-90963676D02*
X164531428Y-90868438D01*
X164531428Y-90868438D02*
X164388571Y-90820819D01*
X164388571Y-90820819D02*
X164293333Y-90820819D01*
X164293333Y-90820819D02*
X164150476Y-90868438D01*
X164150476Y-90868438D02*
X164102857Y-90916057D01*
X163150476Y-91820819D02*
X163721904Y-91820819D01*
X163436190Y-91820819D02*
X163436190Y-90820819D01*
X163436190Y-90820819D02*
X163531428Y-90963676D01*
X163531428Y-90963676D02*
X163626666Y-91058914D01*
X163626666Y-91058914D02*
X163721904Y-91106533D01*
X162817142Y-90820819D02*
X162150476Y-90820819D01*
X162150476Y-90820819D02*
X162579047Y-91820819D01*
X161850819Y-76297142D02*
X161374628Y-75963809D01*
X161850819Y-75725714D02*
X160850819Y-75725714D01*
X160850819Y-75725714D02*
X160850819Y-76106666D01*
X160850819Y-76106666D02*
X160898438Y-76201904D01*
X160898438Y-76201904D02*
X160946057Y-76249523D01*
X160946057Y-76249523D02*
X161041295Y-76297142D01*
X161041295Y-76297142D02*
X161184152Y-76297142D01*
X161184152Y-76297142D02*
X161279390Y-76249523D01*
X161279390Y-76249523D02*
X161327009Y-76201904D01*
X161327009Y-76201904D02*
X161374628Y-76106666D01*
X161374628Y-76106666D02*
X161374628Y-75725714D01*
X160946057Y-76678095D02*
X160898438Y-76725714D01*
X160898438Y-76725714D02*
X160850819Y-76820952D01*
X160850819Y-76820952D02*
X160850819Y-77059047D01*
X160850819Y-77059047D02*
X160898438Y-77154285D01*
X160898438Y-77154285D02*
X160946057Y-77201904D01*
X160946057Y-77201904D02*
X161041295Y-77249523D01*
X161041295Y-77249523D02*
X161136533Y-77249523D01*
X161136533Y-77249523D02*
X161279390Y-77201904D01*
X161279390Y-77201904D02*
X161850819Y-76630476D01*
X161850819Y-76630476D02*
X161850819Y-77249523D01*
X160850819Y-78154285D02*
X160850819Y-77678095D01*
X160850819Y-77678095D02*
X161327009Y-77630476D01*
X161327009Y-77630476D02*
X161279390Y-77678095D01*
X161279390Y-77678095D02*
X161231771Y-77773333D01*
X161231771Y-77773333D02*
X161231771Y-78011428D01*
X161231771Y-78011428D02*
X161279390Y-78106666D01*
X161279390Y-78106666D02*
X161327009Y-78154285D01*
X161327009Y-78154285D02*
X161422247Y-78201904D01*
X161422247Y-78201904D02*
X161660342Y-78201904D01*
X161660342Y-78201904D02*
X161755580Y-78154285D01*
X161755580Y-78154285D02*
X161803200Y-78106666D01*
X161803200Y-78106666D02*
X161850819Y-78011428D01*
X161850819Y-78011428D02*
X161850819Y-77773333D01*
X161850819Y-77773333D02*
X161803200Y-77678095D01*
X161803200Y-77678095D02*
X161755580Y-77630476D01*
X98327580Y-84901333D02*
X98375200Y-84853714D01*
X98375200Y-84853714D02*
X98422819Y-84710857D01*
X98422819Y-84710857D02*
X98422819Y-84615619D01*
X98422819Y-84615619D02*
X98375200Y-84472762D01*
X98375200Y-84472762D02*
X98279961Y-84377524D01*
X98279961Y-84377524D02*
X98184723Y-84329905D01*
X98184723Y-84329905D02*
X97994247Y-84282286D01*
X97994247Y-84282286D02*
X97851390Y-84282286D01*
X97851390Y-84282286D02*
X97660914Y-84329905D01*
X97660914Y-84329905D02*
X97565676Y-84377524D01*
X97565676Y-84377524D02*
X97470438Y-84472762D01*
X97470438Y-84472762D02*
X97422819Y-84615619D01*
X97422819Y-84615619D02*
X97422819Y-84710857D01*
X97422819Y-84710857D02*
X97470438Y-84853714D01*
X97470438Y-84853714D02*
X97518057Y-84901333D01*
X97518057Y-85282286D02*
X97470438Y-85329905D01*
X97470438Y-85329905D02*
X97422819Y-85425143D01*
X97422819Y-85425143D02*
X97422819Y-85663238D01*
X97422819Y-85663238D02*
X97470438Y-85758476D01*
X97470438Y-85758476D02*
X97518057Y-85806095D01*
X97518057Y-85806095D02*
X97613295Y-85853714D01*
X97613295Y-85853714D02*
X97708533Y-85853714D01*
X97708533Y-85853714D02*
X97851390Y-85806095D01*
X97851390Y-85806095D02*
X98422819Y-85234667D01*
X98422819Y-85234667D02*
X98422819Y-85853714D01*
X137654857Y-65615580D02*
X137702476Y-65663200D01*
X137702476Y-65663200D02*
X137845333Y-65710819D01*
X137845333Y-65710819D02*
X137940571Y-65710819D01*
X137940571Y-65710819D02*
X138083428Y-65663200D01*
X138083428Y-65663200D02*
X138178666Y-65567961D01*
X138178666Y-65567961D02*
X138226285Y-65472723D01*
X138226285Y-65472723D02*
X138273904Y-65282247D01*
X138273904Y-65282247D02*
X138273904Y-65139390D01*
X138273904Y-65139390D02*
X138226285Y-64948914D01*
X138226285Y-64948914D02*
X138178666Y-64853676D01*
X138178666Y-64853676D02*
X138083428Y-64758438D01*
X138083428Y-64758438D02*
X137940571Y-64710819D01*
X137940571Y-64710819D02*
X137845333Y-64710819D01*
X137845333Y-64710819D02*
X137702476Y-64758438D01*
X137702476Y-64758438D02*
X137654857Y-64806057D01*
X136702476Y-65710819D02*
X137273904Y-65710819D01*
X136988190Y-65710819D02*
X136988190Y-64710819D01*
X136988190Y-64710819D02*
X137083428Y-64853676D01*
X137083428Y-64853676D02*
X137178666Y-64948914D01*
X137178666Y-64948914D02*
X137273904Y-64996533D01*
X135797714Y-64710819D02*
X136273904Y-64710819D01*
X136273904Y-64710819D02*
X136321523Y-65187009D01*
X136321523Y-65187009D02*
X136273904Y-65139390D01*
X136273904Y-65139390D02*
X136178666Y-65091771D01*
X136178666Y-65091771D02*
X135940571Y-65091771D01*
X135940571Y-65091771D02*
X135845333Y-65139390D01*
X135845333Y-65139390D02*
X135797714Y-65187009D01*
X135797714Y-65187009D02*
X135750095Y-65282247D01*
X135750095Y-65282247D02*
X135750095Y-65520342D01*
X135750095Y-65520342D02*
X135797714Y-65615580D01*
X135797714Y-65615580D02*
X135845333Y-65663200D01*
X135845333Y-65663200D02*
X135940571Y-65710819D01*
X135940571Y-65710819D02*
X136178666Y-65710819D01*
X136178666Y-65710819D02*
X136273904Y-65663200D01*
X136273904Y-65663200D02*
X136321523Y-65615580D01*
X133190819Y-89411833D02*
X132714628Y-89078500D01*
X133190819Y-88840405D02*
X132190819Y-88840405D01*
X132190819Y-88840405D02*
X132190819Y-89221357D01*
X132190819Y-89221357D02*
X132238438Y-89316595D01*
X132238438Y-89316595D02*
X132286057Y-89364214D01*
X132286057Y-89364214D02*
X132381295Y-89411833D01*
X132381295Y-89411833D02*
X132524152Y-89411833D01*
X132524152Y-89411833D02*
X132619390Y-89364214D01*
X132619390Y-89364214D02*
X132667009Y-89316595D01*
X132667009Y-89316595D02*
X132714628Y-89221357D01*
X132714628Y-89221357D02*
X132714628Y-88840405D01*
X132190819Y-89745167D02*
X132190819Y-90364214D01*
X132190819Y-90364214D02*
X132571771Y-90030881D01*
X132571771Y-90030881D02*
X132571771Y-90173738D01*
X132571771Y-90173738D02*
X132619390Y-90268976D01*
X132619390Y-90268976D02*
X132667009Y-90316595D01*
X132667009Y-90316595D02*
X132762247Y-90364214D01*
X132762247Y-90364214D02*
X133000342Y-90364214D01*
X133000342Y-90364214D02*
X133095580Y-90316595D01*
X133095580Y-90316595D02*
X133143200Y-90268976D01*
X133143200Y-90268976D02*
X133190819Y-90173738D01*
X133190819Y-90173738D02*
X133190819Y-89888024D01*
X133190819Y-89888024D02*
X133143200Y-89792786D01*
X133143200Y-89792786D02*
X133095580Y-89745167D01*
X95937357Y-61942819D02*
X96270690Y-61466628D01*
X96508785Y-61942819D02*
X96508785Y-60942819D01*
X96508785Y-60942819D02*
X96127833Y-60942819D01*
X96127833Y-60942819D02*
X96032595Y-60990438D01*
X96032595Y-60990438D02*
X95984976Y-61038057D01*
X95984976Y-61038057D02*
X95937357Y-61133295D01*
X95937357Y-61133295D02*
X95937357Y-61276152D01*
X95937357Y-61276152D02*
X95984976Y-61371390D01*
X95984976Y-61371390D02*
X96032595Y-61419009D01*
X96032595Y-61419009D02*
X96127833Y-61466628D01*
X96127833Y-61466628D02*
X96508785Y-61466628D01*
X95556404Y-61038057D02*
X95508785Y-60990438D01*
X95508785Y-60990438D02*
X95413547Y-60942819D01*
X95413547Y-60942819D02*
X95175452Y-60942819D01*
X95175452Y-60942819D02*
X95080214Y-60990438D01*
X95080214Y-60990438D02*
X95032595Y-61038057D01*
X95032595Y-61038057D02*
X94984976Y-61133295D01*
X94984976Y-61133295D02*
X94984976Y-61228533D01*
X94984976Y-61228533D02*
X95032595Y-61371390D01*
X95032595Y-61371390D02*
X95604023Y-61942819D01*
X95604023Y-61942819D02*
X94984976Y-61942819D01*
X94413547Y-61371390D02*
X94508785Y-61323771D01*
X94508785Y-61323771D02*
X94556404Y-61276152D01*
X94556404Y-61276152D02*
X94604023Y-61180914D01*
X94604023Y-61180914D02*
X94604023Y-61133295D01*
X94604023Y-61133295D02*
X94556404Y-61038057D01*
X94556404Y-61038057D02*
X94508785Y-60990438D01*
X94508785Y-60990438D02*
X94413547Y-60942819D01*
X94413547Y-60942819D02*
X94223071Y-60942819D01*
X94223071Y-60942819D02*
X94127833Y-60990438D01*
X94127833Y-60990438D02*
X94080214Y-61038057D01*
X94080214Y-61038057D02*
X94032595Y-61133295D01*
X94032595Y-61133295D02*
X94032595Y-61180914D01*
X94032595Y-61180914D02*
X94080214Y-61276152D01*
X94080214Y-61276152D02*
X94127833Y-61323771D01*
X94127833Y-61323771D02*
X94223071Y-61371390D01*
X94223071Y-61371390D02*
X94413547Y-61371390D01*
X94413547Y-61371390D02*
X94508785Y-61419009D01*
X94508785Y-61419009D02*
X94556404Y-61466628D01*
X94556404Y-61466628D02*
X94604023Y-61561866D01*
X94604023Y-61561866D02*
X94604023Y-61752342D01*
X94604023Y-61752342D02*
X94556404Y-61847580D01*
X94556404Y-61847580D02*
X94508785Y-61895200D01*
X94508785Y-61895200D02*
X94413547Y-61942819D01*
X94413547Y-61942819D02*
X94223071Y-61942819D01*
X94223071Y-61942819D02*
X94127833Y-61895200D01*
X94127833Y-61895200D02*
X94080214Y-61847580D01*
X94080214Y-61847580D02*
X94032595Y-61752342D01*
X94032595Y-61752342D02*
X94032595Y-61561866D01*
X94032595Y-61561866D02*
X94080214Y-61466628D01*
X94080214Y-61466628D02*
X94127833Y-61419009D01*
X94127833Y-61419009D02*
X94223071Y-61371390D01*
X161850819Y-79091142D02*
X161374628Y-78757809D01*
X161850819Y-78519714D02*
X160850819Y-78519714D01*
X160850819Y-78519714D02*
X160850819Y-78900666D01*
X160850819Y-78900666D02*
X160898438Y-78995904D01*
X160898438Y-78995904D02*
X160946057Y-79043523D01*
X160946057Y-79043523D02*
X161041295Y-79091142D01*
X161041295Y-79091142D02*
X161184152Y-79091142D01*
X161184152Y-79091142D02*
X161279390Y-79043523D01*
X161279390Y-79043523D02*
X161327009Y-78995904D01*
X161327009Y-78995904D02*
X161374628Y-78900666D01*
X161374628Y-78900666D02*
X161374628Y-78519714D01*
X160946057Y-79472095D02*
X160898438Y-79519714D01*
X160898438Y-79519714D02*
X160850819Y-79614952D01*
X160850819Y-79614952D02*
X160850819Y-79853047D01*
X160850819Y-79853047D02*
X160898438Y-79948285D01*
X160898438Y-79948285D02*
X160946057Y-79995904D01*
X160946057Y-79995904D02*
X161041295Y-80043523D01*
X161041295Y-80043523D02*
X161136533Y-80043523D01*
X161136533Y-80043523D02*
X161279390Y-79995904D01*
X161279390Y-79995904D02*
X161850819Y-79424476D01*
X161850819Y-79424476D02*
X161850819Y-80043523D01*
X161184152Y-80900666D02*
X161850819Y-80900666D01*
X160803200Y-80662571D02*
X161517485Y-80424476D01*
X161517485Y-80424476D02*
X161517485Y-81043523D01*
X60425580Y-79033333D02*
X60473200Y-78985714D01*
X60473200Y-78985714D02*
X60520819Y-78842857D01*
X60520819Y-78842857D02*
X60520819Y-78747619D01*
X60520819Y-78747619D02*
X60473200Y-78604762D01*
X60473200Y-78604762D02*
X60377961Y-78509524D01*
X60377961Y-78509524D02*
X60282723Y-78461905D01*
X60282723Y-78461905D02*
X60092247Y-78414286D01*
X60092247Y-78414286D02*
X59949390Y-78414286D01*
X59949390Y-78414286D02*
X59758914Y-78461905D01*
X59758914Y-78461905D02*
X59663676Y-78509524D01*
X59663676Y-78509524D02*
X59568438Y-78604762D01*
X59568438Y-78604762D02*
X59520819Y-78747619D01*
X59520819Y-78747619D02*
X59520819Y-78842857D01*
X59520819Y-78842857D02*
X59568438Y-78985714D01*
X59568438Y-78985714D02*
X59616057Y-79033333D01*
X59854152Y-79890476D02*
X60520819Y-79890476D01*
X59473200Y-79652381D02*
X60187485Y-79414286D01*
X60187485Y-79414286D02*
X60187485Y-80033333D01*
X57472819Y-79033333D02*
X56996628Y-78700000D01*
X57472819Y-78461905D02*
X56472819Y-78461905D01*
X56472819Y-78461905D02*
X56472819Y-78842857D01*
X56472819Y-78842857D02*
X56520438Y-78938095D01*
X56520438Y-78938095D02*
X56568057Y-78985714D01*
X56568057Y-78985714D02*
X56663295Y-79033333D01*
X56663295Y-79033333D02*
X56806152Y-79033333D01*
X56806152Y-79033333D02*
X56901390Y-78985714D01*
X56901390Y-78985714D02*
X56949009Y-78938095D01*
X56949009Y-78938095D02*
X56996628Y-78842857D01*
X56996628Y-78842857D02*
X56996628Y-78461905D01*
X56472819Y-79890476D02*
X56472819Y-79700000D01*
X56472819Y-79700000D02*
X56520438Y-79604762D01*
X56520438Y-79604762D02*
X56568057Y-79557143D01*
X56568057Y-79557143D02*
X56710914Y-79461905D01*
X56710914Y-79461905D02*
X56901390Y-79414286D01*
X56901390Y-79414286D02*
X57282342Y-79414286D01*
X57282342Y-79414286D02*
X57377580Y-79461905D01*
X57377580Y-79461905D02*
X57425200Y-79509524D01*
X57425200Y-79509524D02*
X57472819Y-79604762D01*
X57472819Y-79604762D02*
X57472819Y-79795238D01*
X57472819Y-79795238D02*
X57425200Y-79890476D01*
X57425200Y-79890476D02*
X57377580Y-79938095D01*
X57377580Y-79938095D02*
X57282342Y-79985714D01*
X57282342Y-79985714D02*
X57044247Y-79985714D01*
X57044247Y-79985714D02*
X56949009Y-79938095D01*
X56949009Y-79938095D02*
X56901390Y-79890476D01*
X56901390Y-79890476D02*
X56853771Y-79795238D01*
X56853771Y-79795238D02*
X56853771Y-79604762D01*
X56853771Y-79604762D02*
X56901390Y-79509524D01*
X56901390Y-79509524D02*
X56949009Y-79461905D01*
X56949009Y-79461905D02*
X57044247Y-79414286D01*
X160768857Y-86792819D02*
X161102190Y-86316628D01*
X161340285Y-86792819D02*
X161340285Y-85792819D01*
X161340285Y-85792819D02*
X160959333Y-85792819D01*
X160959333Y-85792819D02*
X160864095Y-85840438D01*
X160864095Y-85840438D02*
X160816476Y-85888057D01*
X160816476Y-85888057D02*
X160768857Y-85983295D01*
X160768857Y-85983295D02*
X160768857Y-86126152D01*
X160768857Y-86126152D02*
X160816476Y-86221390D01*
X160816476Y-86221390D02*
X160864095Y-86269009D01*
X160864095Y-86269009D02*
X160959333Y-86316628D01*
X160959333Y-86316628D02*
X161340285Y-86316628D01*
X160387904Y-85888057D02*
X160340285Y-85840438D01*
X160340285Y-85840438D02*
X160245047Y-85792819D01*
X160245047Y-85792819D02*
X160006952Y-85792819D01*
X160006952Y-85792819D02*
X159911714Y-85840438D01*
X159911714Y-85840438D02*
X159864095Y-85888057D01*
X159864095Y-85888057D02*
X159816476Y-85983295D01*
X159816476Y-85983295D02*
X159816476Y-86078533D01*
X159816476Y-86078533D02*
X159864095Y-86221390D01*
X159864095Y-86221390D02*
X160435523Y-86792819D01*
X160435523Y-86792819D02*
X159816476Y-86792819D01*
X159197428Y-85792819D02*
X159102190Y-85792819D01*
X159102190Y-85792819D02*
X159006952Y-85840438D01*
X159006952Y-85840438D02*
X158959333Y-85888057D01*
X158959333Y-85888057D02*
X158911714Y-85983295D01*
X158911714Y-85983295D02*
X158864095Y-86173771D01*
X158864095Y-86173771D02*
X158864095Y-86411866D01*
X158864095Y-86411866D02*
X158911714Y-86602342D01*
X158911714Y-86602342D02*
X158959333Y-86697580D01*
X158959333Y-86697580D02*
X159006952Y-86745200D01*
X159006952Y-86745200D02*
X159102190Y-86792819D01*
X159102190Y-86792819D02*
X159197428Y-86792819D01*
X159197428Y-86792819D02*
X159292666Y-86745200D01*
X159292666Y-86745200D02*
X159340285Y-86697580D01*
X159340285Y-86697580D02*
X159387904Y-86602342D01*
X159387904Y-86602342D02*
X159435523Y-86411866D01*
X159435523Y-86411866D02*
X159435523Y-86173771D01*
X159435523Y-86173771D02*
X159387904Y-85983295D01*
X159387904Y-85983295D02*
X159340285Y-85888057D01*
X159340285Y-85888057D02*
X159292666Y-85840438D01*
X159292666Y-85840438D02*
X159197428Y-85792819D01*
X62513580Y-84901333D02*
X62561200Y-84853714D01*
X62561200Y-84853714D02*
X62608819Y-84710857D01*
X62608819Y-84710857D02*
X62608819Y-84615619D01*
X62608819Y-84615619D02*
X62561200Y-84472762D01*
X62561200Y-84472762D02*
X62465961Y-84377524D01*
X62465961Y-84377524D02*
X62370723Y-84329905D01*
X62370723Y-84329905D02*
X62180247Y-84282286D01*
X62180247Y-84282286D02*
X62037390Y-84282286D01*
X62037390Y-84282286D02*
X61846914Y-84329905D01*
X61846914Y-84329905D02*
X61751676Y-84377524D01*
X61751676Y-84377524D02*
X61656438Y-84472762D01*
X61656438Y-84472762D02*
X61608819Y-84615619D01*
X61608819Y-84615619D02*
X61608819Y-84710857D01*
X61608819Y-84710857D02*
X61656438Y-84853714D01*
X61656438Y-84853714D02*
X61704057Y-84901333D01*
X61608819Y-85234667D02*
X61608819Y-85853714D01*
X61608819Y-85853714D02*
X61989771Y-85520381D01*
X61989771Y-85520381D02*
X61989771Y-85663238D01*
X61989771Y-85663238D02*
X62037390Y-85758476D01*
X62037390Y-85758476D02*
X62085009Y-85806095D01*
X62085009Y-85806095D02*
X62180247Y-85853714D01*
X62180247Y-85853714D02*
X62418342Y-85853714D01*
X62418342Y-85853714D02*
X62513580Y-85806095D01*
X62513580Y-85806095D02*
X62561200Y-85758476D01*
X62561200Y-85758476D02*
X62608819Y-85663238D01*
X62608819Y-85663238D02*
X62608819Y-85377524D01*
X62608819Y-85377524D02*
X62561200Y-85282286D01*
X62561200Y-85282286D02*
X62513580Y-85234667D01*
X96614819Y-107854642D02*
X96138628Y-107521309D01*
X96614819Y-107283214D02*
X95614819Y-107283214D01*
X95614819Y-107283214D02*
X95614819Y-107664166D01*
X95614819Y-107664166D02*
X95662438Y-107759404D01*
X95662438Y-107759404D02*
X95710057Y-107807023D01*
X95710057Y-107807023D02*
X95805295Y-107854642D01*
X95805295Y-107854642D02*
X95948152Y-107854642D01*
X95948152Y-107854642D02*
X96043390Y-107807023D01*
X96043390Y-107807023D02*
X96091009Y-107759404D01*
X96091009Y-107759404D02*
X96138628Y-107664166D01*
X96138628Y-107664166D02*
X96138628Y-107283214D01*
X96614819Y-108807023D02*
X96614819Y-108235595D01*
X96614819Y-108521309D02*
X95614819Y-108521309D01*
X95614819Y-108521309D02*
X95757676Y-108426071D01*
X95757676Y-108426071D02*
X95852914Y-108330833D01*
X95852914Y-108330833D02*
X95900533Y-108235595D01*
X95614819Y-109426071D02*
X95614819Y-109521309D01*
X95614819Y-109521309D02*
X95662438Y-109616547D01*
X95662438Y-109616547D02*
X95710057Y-109664166D01*
X95710057Y-109664166D02*
X95805295Y-109711785D01*
X95805295Y-109711785D02*
X95995771Y-109759404D01*
X95995771Y-109759404D02*
X96233866Y-109759404D01*
X96233866Y-109759404D02*
X96424342Y-109711785D01*
X96424342Y-109711785D02*
X96519580Y-109664166D01*
X96519580Y-109664166D02*
X96567200Y-109616547D01*
X96567200Y-109616547D02*
X96614819Y-109521309D01*
X96614819Y-109521309D02*
X96614819Y-109426071D01*
X96614819Y-109426071D02*
X96567200Y-109330833D01*
X96567200Y-109330833D02*
X96519580Y-109283214D01*
X96519580Y-109283214D02*
X96424342Y-109235595D01*
X96424342Y-109235595D02*
X96233866Y-109187976D01*
X96233866Y-109187976D02*
X95995771Y-109187976D01*
X95995771Y-109187976D02*
X95805295Y-109235595D01*
X95805295Y-109235595D02*
X95710057Y-109283214D01*
X95710057Y-109283214D02*
X95662438Y-109330833D01*
X95662438Y-109330833D02*
X95614819Y-109426071D01*
X136384857Y-59265580D02*
X136432476Y-59313200D01*
X136432476Y-59313200D02*
X136575333Y-59360819D01*
X136575333Y-59360819D02*
X136670571Y-59360819D01*
X136670571Y-59360819D02*
X136813428Y-59313200D01*
X136813428Y-59313200D02*
X136908666Y-59217961D01*
X136908666Y-59217961D02*
X136956285Y-59122723D01*
X136956285Y-59122723D02*
X137003904Y-58932247D01*
X137003904Y-58932247D02*
X137003904Y-58789390D01*
X137003904Y-58789390D02*
X136956285Y-58598914D01*
X136956285Y-58598914D02*
X136908666Y-58503676D01*
X136908666Y-58503676D02*
X136813428Y-58408438D01*
X136813428Y-58408438D02*
X136670571Y-58360819D01*
X136670571Y-58360819D02*
X136575333Y-58360819D01*
X136575333Y-58360819D02*
X136432476Y-58408438D01*
X136432476Y-58408438D02*
X136384857Y-58456057D01*
X135432476Y-59360819D02*
X136003904Y-59360819D01*
X135718190Y-59360819D02*
X135718190Y-58360819D01*
X135718190Y-58360819D02*
X135813428Y-58503676D01*
X135813428Y-58503676D02*
X135908666Y-58598914D01*
X135908666Y-58598914D02*
X136003904Y-58646533D01*
X134813428Y-58360819D02*
X134718190Y-58360819D01*
X134718190Y-58360819D02*
X134622952Y-58408438D01*
X134622952Y-58408438D02*
X134575333Y-58456057D01*
X134575333Y-58456057D02*
X134527714Y-58551295D01*
X134527714Y-58551295D02*
X134480095Y-58741771D01*
X134480095Y-58741771D02*
X134480095Y-58979866D01*
X134480095Y-58979866D02*
X134527714Y-59170342D01*
X134527714Y-59170342D02*
X134575333Y-59265580D01*
X134575333Y-59265580D02*
X134622952Y-59313200D01*
X134622952Y-59313200D02*
X134718190Y-59360819D01*
X134718190Y-59360819D02*
X134813428Y-59360819D01*
X134813428Y-59360819D02*
X134908666Y-59313200D01*
X134908666Y-59313200D02*
X134956285Y-59265580D01*
X134956285Y-59265580D02*
X135003904Y-59170342D01*
X135003904Y-59170342D02*
X135051523Y-58979866D01*
X135051523Y-58979866D02*
X135051523Y-58741771D01*
X135051523Y-58741771D02*
X135003904Y-58551295D01*
X135003904Y-58551295D02*
X134956285Y-58456057D01*
X134956285Y-58456057D02*
X134908666Y-58408438D01*
X134908666Y-58408438D02*
X134813428Y-58360819D01*
X155688857Y-74251580D02*
X155736476Y-74299200D01*
X155736476Y-74299200D02*
X155879333Y-74346819D01*
X155879333Y-74346819D02*
X155974571Y-74346819D01*
X155974571Y-74346819D02*
X156117428Y-74299200D01*
X156117428Y-74299200D02*
X156212666Y-74203961D01*
X156212666Y-74203961D02*
X156260285Y-74108723D01*
X156260285Y-74108723D02*
X156307904Y-73918247D01*
X156307904Y-73918247D02*
X156307904Y-73775390D01*
X156307904Y-73775390D02*
X156260285Y-73584914D01*
X156260285Y-73584914D02*
X156212666Y-73489676D01*
X156212666Y-73489676D02*
X156117428Y-73394438D01*
X156117428Y-73394438D02*
X155974571Y-73346819D01*
X155974571Y-73346819D02*
X155879333Y-73346819D01*
X155879333Y-73346819D02*
X155736476Y-73394438D01*
X155736476Y-73394438D02*
X155688857Y-73442057D01*
X155307904Y-73442057D02*
X155260285Y-73394438D01*
X155260285Y-73394438D02*
X155165047Y-73346819D01*
X155165047Y-73346819D02*
X154926952Y-73346819D01*
X154926952Y-73346819D02*
X154831714Y-73394438D01*
X154831714Y-73394438D02*
X154784095Y-73442057D01*
X154784095Y-73442057D02*
X154736476Y-73537295D01*
X154736476Y-73537295D02*
X154736476Y-73632533D01*
X154736476Y-73632533D02*
X154784095Y-73775390D01*
X154784095Y-73775390D02*
X155355523Y-74346819D01*
X155355523Y-74346819D02*
X154736476Y-74346819D01*
X154117428Y-73346819D02*
X154022190Y-73346819D01*
X154022190Y-73346819D02*
X153926952Y-73394438D01*
X153926952Y-73394438D02*
X153879333Y-73442057D01*
X153879333Y-73442057D02*
X153831714Y-73537295D01*
X153831714Y-73537295D02*
X153784095Y-73727771D01*
X153784095Y-73727771D02*
X153784095Y-73965866D01*
X153784095Y-73965866D02*
X153831714Y-74156342D01*
X153831714Y-74156342D02*
X153879333Y-74251580D01*
X153879333Y-74251580D02*
X153926952Y-74299200D01*
X153926952Y-74299200D02*
X154022190Y-74346819D01*
X154022190Y-74346819D02*
X154117428Y-74346819D01*
X154117428Y-74346819D02*
X154212666Y-74299200D01*
X154212666Y-74299200D02*
X154260285Y-74251580D01*
X154260285Y-74251580D02*
X154307904Y-74156342D01*
X154307904Y-74156342D02*
X154355523Y-73965866D01*
X154355523Y-73965866D02*
X154355523Y-73727771D01*
X154355523Y-73727771D02*
X154307904Y-73537295D01*
X154307904Y-73537295D02*
X154260285Y-73442057D01*
X154260285Y-73442057D02*
X154212666Y-73394438D01*
X154212666Y-73394438D02*
X154117428Y-73346819D01*
X161850819Y-73503142D02*
X161374628Y-73169809D01*
X161850819Y-72931714D02*
X160850819Y-72931714D01*
X160850819Y-72931714D02*
X160850819Y-73312666D01*
X160850819Y-73312666D02*
X160898438Y-73407904D01*
X160898438Y-73407904D02*
X160946057Y-73455523D01*
X160946057Y-73455523D02*
X161041295Y-73503142D01*
X161041295Y-73503142D02*
X161184152Y-73503142D01*
X161184152Y-73503142D02*
X161279390Y-73455523D01*
X161279390Y-73455523D02*
X161327009Y-73407904D01*
X161327009Y-73407904D02*
X161374628Y-73312666D01*
X161374628Y-73312666D02*
X161374628Y-72931714D01*
X160946057Y-73884095D02*
X160898438Y-73931714D01*
X160898438Y-73931714D02*
X160850819Y-74026952D01*
X160850819Y-74026952D02*
X160850819Y-74265047D01*
X160850819Y-74265047D02*
X160898438Y-74360285D01*
X160898438Y-74360285D02*
X160946057Y-74407904D01*
X160946057Y-74407904D02*
X161041295Y-74455523D01*
X161041295Y-74455523D02*
X161136533Y-74455523D01*
X161136533Y-74455523D02*
X161279390Y-74407904D01*
X161279390Y-74407904D02*
X161850819Y-73836476D01*
X161850819Y-73836476D02*
X161850819Y-74455523D01*
X160850819Y-75312666D02*
X160850819Y-75122190D01*
X160850819Y-75122190D02*
X160898438Y-75026952D01*
X160898438Y-75026952D02*
X160946057Y-74979333D01*
X160946057Y-74979333D02*
X161088914Y-74884095D01*
X161088914Y-74884095D02*
X161279390Y-74836476D01*
X161279390Y-74836476D02*
X161660342Y-74836476D01*
X161660342Y-74836476D02*
X161755580Y-74884095D01*
X161755580Y-74884095D02*
X161803200Y-74931714D01*
X161803200Y-74931714D02*
X161850819Y-75026952D01*
X161850819Y-75026952D02*
X161850819Y-75217428D01*
X161850819Y-75217428D02*
X161803200Y-75312666D01*
X161803200Y-75312666D02*
X161755580Y-75360285D01*
X161755580Y-75360285D02*
X161660342Y-75407904D01*
X161660342Y-75407904D02*
X161422247Y-75407904D01*
X161422247Y-75407904D02*
X161327009Y-75360285D01*
X161327009Y-75360285D02*
X161279390Y-75312666D01*
X161279390Y-75312666D02*
X161231771Y-75217428D01*
X161231771Y-75217428D02*
X161231771Y-75026952D01*
X161231771Y-75026952D02*
X161279390Y-74931714D01*
X161279390Y-74931714D02*
X161327009Y-74884095D01*
X161327009Y-74884095D02*
X161422247Y-74836476D01*
X75750285Y-78633104D02*
X75274095Y-78633104D01*
X75845523Y-78918819D02*
X75512190Y-77918819D01*
X75512190Y-77918819D02*
X75178857Y-78918819D01*
X74321714Y-78918819D02*
X74893142Y-78918819D01*
X74607428Y-78918819D02*
X74607428Y-77918819D01*
X74607428Y-77918819D02*
X74702666Y-78061676D01*
X74702666Y-78061676D02*
X74797904Y-78156914D01*
X74797904Y-78156914D02*
X74893142Y-78204533D01*
X62949564Y-59562431D02*
X63030376Y-59589368D01*
X63030376Y-59589368D02*
X63111188Y-59670180D01*
X63111188Y-59670180D02*
X63165063Y-59777930D01*
X63165063Y-59777930D02*
X63165063Y-59885680D01*
X63165063Y-59885680D02*
X63138126Y-59966492D01*
X63138126Y-59966492D02*
X63057314Y-60101179D01*
X63057314Y-60101179D02*
X62976501Y-60181991D01*
X62976501Y-60181991D02*
X62841814Y-60262803D01*
X62841814Y-60262803D02*
X62761002Y-60289741D01*
X62761002Y-60289741D02*
X62653253Y-60289741D01*
X62653253Y-60289741D02*
X62545503Y-60235866D01*
X62545503Y-60235866D02*
X62491628Y-60181991D01*
X62491628Y-60181991D02*
X62437753Y-60074241D01*
X62437753Y-60074241D02*
X62437753Y-60020367D01*
X62437753Y-60020367D02*
X62626315Y-59831805D01*
X62626315Y-59831805D02*
X62734065Y-59939554D01*
X62141442Y-59831805D02*
X62707127Y-59266119D01*
X62707127Y-59266119D02*
X61818193Y-59508556D01*
X61818193Y-59508556D02*
X62383879Y-58942871D01*
X61548819Y-59239182D02*
X62114505Y-58673497D01*
X62114505Y-58673497D02*
X61979818Y-58538810D01*
X61979818Y-58538810D02*
X61872068Y-58484935D01*
X61872068Y-58484935D02*
X61764319Y-58484935D01*
X61764319Y-58484935D02*
X61683506Y-58511872D01*
X61683506Y-58511872D02*
X61548819Y-58592685D01*
X61548819Y-58592685D02*
X61468007Y-58673497D01*
X61468007Y-58673497D02*
X61387195Y-58808184D01*
X61387195Y-58808184D02*
X61360258Y-58888996D01*
X61360258Y-58888996D02*
X61360258Y-58996746D01*
X61360258Y-58996746D02*
X61414132Y-59104495D01*
X61414132Y-59104495D02*
X61548819Y-59239182D01*
X62884126Y-73205240D02*
X62614752Y-72935866D01*
X62776376Y-73420739D02*
X63153500Y-72666492D01*
X63153500Y-72666492D02*
X62399253Y-73043615D01*
X62453128Y-72019994D02*
X62533940Y-72046932D01*
X62533940Y-72046932D02*
X62614752Y-72127744D01*
X62614752Y-72127744D02*
X62668627Y-72235494D01*
X62668627Y-72235494D02*
X62668627Y-72343243D01*
X62668627Y-72343243D02*
X62641689Y-72424055D01*
X62641689Y-72424055D02*
X62560877Y-72558742D01*
X62560877Y-72558742D02*
X62480065Y-72639555D01*
X62480065Y-72639555D02*
X62345378Y-72720367D01*
X62345378Y-72720367D02*
X62264566Y-72747304D01*
X62264566Y-72747304D02*
X62156816Y-72747304D01*
X62156816Y-72747304D02*
X62049067Y-72693429D01*
X62049067Y-72693429D02*
X61995192Y-72639555D01*
X61995192Y-72639555D02*
X61941317Y-72531805D01*
X61941317Y-72531805D02*
X61941317Y-72477930D01*
X61941317Y-72477930D02*
X62129879Y-72289368D01*
X62129879Y-72289368D02*
X62237628Y-72397118D01*
X61645006Y-72289368D02*
X62210691Y-71723683D01*
X62210691Y-71723683D02*
X61321757Y-71966120D01*
X61321757Y-71966120D02*
X61887442Y-71400434D01*
X61052383Y-71696746D02*
X61618068Y-71131060D01*
X61618068Y-71131060D02*
X61483381Y-70996373D01*
X61483381Y-70996373D02*
X61375632Y-70942498D01*
X61375632Y-70942498D02*
X61267882Y-70942498D01*
X61267882Y-70942498D02*
X61187070Y-70969436D01*
X61187070Y-70969436D02*
X61052383Y-71050248D01*
X61052383Y-71050248D02*
X60971571Y-71131060D01*
X60971571Y-71131060D02*
X60890758Y-71265747D01*
X60890758Y-71265747D02*
X60863821Y-71346560D01*
X60863821Y-71346560D02*
X60863821Y-71454309D01*
X60863821Y-71454309D02*
X60917696Y-71562059D01*
X60917696Y-71562059D02*
X61052383Y-71696746D01*
X62938001Y-69710868D02*
X63018814Y-69737805D01*
X63018814Y-69737805D02*
X63099626Y-69818618D01*
X63099626Y-69818618D02*
X63153501Y-69926367D01*
X63153501Y-69926367D02*
X63153501Y-70034117D01*
X63153501Y-70034117D02*
X63126563Y-70114929D01*
X63126563Y-70114929D02*
X63045751Y-70249616D01*
X63045751Y-70249616D02*
X62964939Y-70330428D01*
X62964939Y-70330428D02*
X62830252Y-70411241D01*
X62830252Y-70411241D02*
X62749439Y-70438178D01*
X62749439Y-70438178D02*
X62641690Y-70438178D01*
X62641690Y-70438178D02*
X62533940Y-70384303D01*
X62533940Y-70384303D02*
X62480065Y-70330428D01*
X62480065Y-70330428D02*
X62426191Y-70222679D01*
X62426191Y-70222679D02*
X62426191Y-70168804D01*
X62426191Y-70168804D02*
X62614752Y-69980242D01*
X62614752Y-69980242D02*
X62722502Y-70087992D01*
X62129879Y-69980242D02*
X62695565Y-69414557D01*
X62695565Y-69414557D02*
X62480065Y-69199057D01*
X62480065Y-69199057D02*
X62399253Y-69172120D01*
X62399253Y-69172120D02*
X62345378Y-69172120D01*
X62345378Y-69172120D02*
X62264566Y-69199057D01*
X62264566Y-69199057D02*
X62183754Y-69279870D01*
X62183754Y-69279870D02*
X62156817Y-69360682D01*
X62156817Y-69360682D02*
X62156817Y-69414557D01*
X62156817Y-69414557D02*
X62183754Y-69495369D01*
X62183754Y-69495369D02*
X62399253Y-69710868D01*
X62102942Y-68929683D02*
X62102942Y-68875809D01*
X62102942Y-68875809D02*
X62076004Y-68794996D01*
X62076004Y-68794996D02*
X61941317Y-68660309D01*
X61941317Y-68660309D02*
X61860505Y-68633372D01*
X61860505Y-68633372D02*
X61806630Y-68633372D01*
X61806630Y-68633372D02*
X61725818Y-68660309D01*
X61725818Y-68660309D02*
X61671943Y-68714184D01*
X61671943Y-68714184D02*
X61618069Y-68821934D01*
X61618069Y-68821934D02*
X61618069Y-69468431D01*
X61618069Y-69468431D02*
X61267882Y-69118245D01*
X61267882Y-68471747D02*
X61348694Y-68498685D01*
X61348694Y-68498685D02*
X61402569Y-68498685D01*
X61402569Y-68498685D02*
X61483381Y-68471747D01*
X61483381Y-68471747D02*
X61510319Y-68444810D01*
X61510319Y-68444810D02*
X61537256Y-68363998D01*
X61537256Y-68363998D02*
X61537256Y-68310123D01*
X61537256Y-68310123D02*
X61510319Y-68229311D01*
X61510319Y-68229311D02*
X61402569Y-68121561D01*
X61402569Y-68121561D02*
X61321757Y-68094624D01*
X61321757Y-68094624D02*
X61267882Y-68094624D01*
X61267882Y-68094624D02*
X61187070Y-68121561D01*
X61187070Y-68121561D02*
X61160133Y-68148499D01*
X61160133Y-68148499D02*
X61133195Y-68229311D01*
X61133195Y-68229311D02*
X61133195Y-68283186D01*
X61133195Y-68283186D02*
X61160133Y-68363998D01*
X61160133Y-68363998D02*
X61267882Y-68471747D01*
X61267882Y-68471747D02*
X61294820Y-68552560D01*
X61294820Y-68552560D02*
X61294820Y-68606434D01*
X61294820Y-68606434D02*
X61267882Y-68687247D01*
X61267882Y-68687247D02*
X61160133Y-68794996D01*
X61160133Y-68794996D02*
X61079320Y-68821934D01*
X61079320Y-68821934D02*
X61025446Y-68821934D01*
X61025446Y-68821934D02*
X60944633Y-68794996D01*
X60944633Y-68794996D02*
X60836884Y-68687247D01*
X60836884Y-68687247D02*
X60809946Y-68606434D01*
X60809946Y-68606434D02*
X60809946Y-68552560D01*
X60809946Y-68552560D02*
X60836884Y-68471747D01*
X60836884Y-68471747D02*
X60944633Y-68363998D01*
X60944633Y-68363998D02*
X61025446Y-68337060D01*
X61025446Y-68337060D02*
X61079320Y-68337060D01*
X61079320Y-68337060D02*
X61160133Y-68363998D01*
X63082593Y-54991585D02*
X62328346Y-55368709D01*
X62328346Y-55368709D02*
X62705470Y-54614462D01*
X62058972Y-54506712D02*
X61951223Y-54452838D01*
X61951223Y-54452838D02*
X61897348Y-54452838D01*
X61897348Y-54452838D02*
X61816536Y-54479775D01*
X61816536Y-54479775D02*
X61735723Y-54560587D01*
X61735723Y-54560587D02*
X61708786Y-54641399D01*
X61708786Y-54641399D02*
X61708786Y-54695274D01*
X61708786Y-54695274D02*
X61735723Y-54776086D01*
X61735723Y-54776086D02*
X61951223Y-54991586D01*
X61951223Y-54991586D02*
X62516908Y-54425900D01*
X62516908Y-54425900D02*
X62328346Y-54237338D01*
X62328346Y-54237338D02*
X62247534Y-54210401D01*
X62247534Y-54210401D02*
X62193659Y-54210401D01*
X62193659Y-54210401D02*
X62112847Y-54237338D01*
X62112847Y-54237338D02*
X62058972Y-54291213D01*
X62058972Y-54291213D02*
X62032035Y-54372025D01*
X62032035Y-54372025D02*
X62032035Y-54425900D01*
X62032035Y-54425900D02*
X62058972Y-54506712D01*
X62058972Y-54506712D02*
X62247534Y-54695274D01*
X61951223Y-53860215D02*
X61493287Y-54318151D01*
X61493287Y-54318151D02*
X61412475Y-54345088D01*
X61412475Y-54345088D02*
X61358600Y-54345088D01*
X61358600Y-54345088D02*
X61277788Y-54318151D01*
X61277788Y-54318151D02*
X61170038Y-54210401D01*
X61170038Y-54210401D02*
X61143101Y-54129589D01*
X61143101Y-54129589D02*
X61143101Y-54075714D01*
X61143101Y-54075714D02*
X61170038Y-53994902D01*
X61170038Y-53994902D02*
X61627974Y-53536966D01*
X60846789Y-53833277D02*
X60739040Y-53779403D01*
X60739040Y-53779403D02*
X60604353Y-53644716D01*
X60604353Y-53644716D02*
X60577415Y-53563903D01*
X60577415Y-53563903D02*
X60577415Y-53510029D01*
X60577415Y-53510029D02*
X60604353Y-53429216D01*
X60604353Y-53429216D02*
X60658228Y-53375342D01*
X60658228Y-53375342D02*
X60739040Y-53348404D01*
X60739040Y-53348404D02*
X60792915Y-53348404D01*
X60792915Y-53348404D02*
X60873727Y-53375342D01*
X60873727Y-53375342D02*
X61008414Y-53456154D01*
X61008414Y-53456154D02*
X61089226Y-53483091D01*
X61089226Y-53483091D02*
X61143101Y-53483091D01*
X61143101Y-53483091D02*
X61223913Y-53456154D01*
X61223913Y-53456154D02*
X61277788Y-53402279D01*
X61277788Y-53402279D02*
X61304725Y-53321467D01*
X61304725Y-53321467D02*
X61304725Y-53267592D01*
X61304725Y-53267592D02*
X61277788Y-53186780D01*
X61277788Y-53186780D02*
X61143101Y-53052093D01*
X61143101Y-53052093D02*
X61035351Y-52998218D01*
X88549564Y-72262431D02*
X88630376Y-72289368D01*
X88630376Y-72289368D02*
X88711188Y-72370180D01*
X88711188Y-72370180D02*
X88765063Y-72477930D01*
X88765063Y-72477930D02*
X88765063Y-72585680D01*
X88765063Y-72585680D02*
X88738126Y-72666492D01*
X88738126Y-72666492D02*
X88657314Y-72801179D01*
X88657314Y-72801179D02*
X88576501Y-72881991D01*
X88576501Y-72881991D02*
X88441814Y-72962803D01*
X88441814Y-72962803D02*
X88361002Y-72989741D01*
X88361002Y-72989741D02*
X88253253Y-72989741D01*
X88253253Y-72989741D02*
X88145503Y-72935866D01*
X88145503Y-72935866D02*
X88091628Y-72881991D01*
X88091628Y-72881991D02*
X88037753Y-72774241D01*
X88037753Y-72774241D02*
X88037753Y-72720367D01*
X88037753Y-72720367D02*
X88226315Y-72531805D01*
X88226315Y-72531805D02*
X88334065Y-72639554D01*
X87741442Y-72531805D02*
X88307127Y-71966119D01*
X88307127Y-71966119D02*
X87418193Y-72208556D01*
X87418193Y-72208556D02*
X87983879Y-71642871D01*
X87148819Y-71939182D02*
X87714505Y-71373497D01*
X87714505Y-71373497D02*
X87579818Y-71238810D01*
X87579818Y-71238810D02*
X87472068Y-71184935D01*
X87472068Y-71184935D02*
X87364319Y-71184935D01*
X87364319Y-71184935D02*
X87283506Y-71211872D01*
X87283506Y-71211872D02*
X87148819Y-71292685D01*
X87148819Y-71292685D02*
X87068007Y-71373497D01*
X87068007Y-71373497D02*
X86987195Y-71508184D01*
X86987195Y-71508184D02*
X86960258Y-71588996D01*
X86960258Y-71588996D02*
X86960258Y-71696746D01*
X86960258Y-71696746D02*
X87014132Y-71804495D01*
X87014132Y-71804495D02*
X87148819Y-71939182D01*
X88622627Y-56985494D02*
X88703439Y-57012431D01*
X88703439Y-57012431D02*
X88784251Y-57093243D01*
X88784251Y-57093243D02*
X88838126Y-57200993D01*
X88838126Y-57200993D02*
X88838126Y-57308742D01*
X88838126Y-57308742D02*
X88811189Y-57389555D01*
X88811189Y-57389555D02*
X88730376Y-57524242D01*
X88730376Y-57524242D02*
X88649564Y-57605054D01*
X88649564Y-57605054D02*
X88514877Y-57685866D01*
X88514877Y-57685866D02*
X88434065Y-57712803D01*
X88434065Y-57712803D02*
X88326315Y-57712803D01*
X88326315Y-57712803D02*
X88218566Y-57658929D01*
X88218566Y-57658929D02*
X88164691Y-57605054D01*
X88164691Y-57605054D02*
X88110816Y-57497304D01*
X88110816Y-57497304D02*
X88110816Y-57443429D01*
X88110816Y-57443429D02*
X88299378Y-57254868D01*
X88299378Y-57254868D02*
X88407128Y-57362617D01*
X87814505Y-57254868D02*
X88380190Y-56689182D01*
X88380190Y-56689182D02*
X88164691Y-56473683D01*
X88164691Y-56473683D02*
X88083879Y-56446746D01*
X88083879Y-56446746D02*
X88030004Y-56446746D01*
X88030004Y-56446746D02*
X87949192Y-56473683D01*
X87949192Y-56473683D02*
X87868380Y-56554495D01*
X87868380Y-56554495D02*
X87841442Y-56635307D01*
X87841442Y-56635307D02*
X87841442Y-56689182D01*
X87841442Y-56689182D02*
X87868380Y-56769994D01*
X87868380Y-56769994D02*
X88083879Y-56985494D01*
X86952508Y-56392871D02*
X87275757Y-56716120D01*
X87114132Y-56554495D02*
X87679818Y-55988810D01*
X87679818Y-55988810D02*
X87652880Y-56123497D01*
X87652880Y-56123497D02*
X87652880Y-56231246D01*
X87652880Y-56231246D02*
X87679818Y-56312059D01*
X62938001Y-102984868D02*
X63018814Y-103011805D01*
X63018814Y-103011805D02*
X63099626Y-103092618D01*
X63099626Y-103092618D02*
X63153501Y-103200367D01*
X63153501Y-103200367D02*
X63153501Y-103308117D01*
X63153501Y-103308117D02*
X63126563Y-103388929D01*
X63126563Y-103388929D02*
X63045751Y-103523616D01*
X63045751Y-103523616D02*
X62964939Y-103604428D01*
X62964939Y-103604428D02*
X62830252Y-103685241D01*
X62830252Y-103685241D02*
X62749439Y-103712178D01*
X62749439Y-103712178D02*
X62641690Y-103712178D01*
X62641690Y-103712178D02*
X62533940Y-103658303D01*
X62533940Y-103658303D02*
X62480065Y-103604428D01*
X62480065Y-103604428D02*
X62426191Y-103496679D01*
X62426191Y-103496679D02*
X62426191Y-103442804D01*
X62426191Y-103442804D02*
X62614752Y-103254242D01*
X62614752Y-103254242D02*
X62722502Y-103361992D01*
X62129879Y-103254242D02*
X62695565Y-102688557D01*
X62695565Y-102688557D02*
X62480065Y-102473057D01*
X62480065Y-102473057D02*
X62399253Y-102446120D01*
X62399253Y-102446120D02*
X62345378Y-102446120D01*
X62345378Y-102446120D02*
X62264566Y-102473057D01*
X62264566Y-102473057D02*
X62183754Y-102553870D01*
X62183754Y-102553870D02*
X62156817Y-102634682D01*
X62156817Y-102634682D02*
X62156817Y-102688557D01*
X62156817Y-102688557D02*
X62183754Y-102769369D01*
X62183754Y-102769369D02*
X62399253Y-102984868D01*
X61267882Y-102392245D02*
X61591131Y-102715494D01*
X61429507Y-102553870D02*
X61995192Y-101988184D01*
X61995192Y-101988184D02*
X61968255Y-102122871D01*
X61968255Y-102122871D02*
X61968255Y-102230621D01*
X61968255Y-102230621D02*
X61995192Y-102311433D01*
X61348694Y-101341686D02*
X61456444Y-101449436D01*
X61456444Y-101449436D02*
X61483381Y-101530248D01*
X61483381Y-101530248D02*
X61483381Y-101584123D01*
X61483381Y-101584123D02*
X61456444Y-101718810D01*
X61456444Y-101718810D02*
X61375632Y-101853497D01*
X61375632Y-101853497D02*
X61160133Y-102068996D01*
X61160133Y-102068996D02*
X61079320Y-102095934D01*
X61079320Y-102095934D02*
X61025446Y-102095934D01*
X61025446Y-102095934D02*
X60944633Y-102068996D01*
X60944633Y-102068996D02*
X60836884Y-101961247D01*
X60836884Y-101961247D02*
X60809946Y-101880434D01*
X60809946Y-101880434D02*
X60809946Y-101826560D01*
X60809946Y-101826560D02*
X60836884Y-101745747D01*
X60836884Y-101745747D02*
X60971571Y-101611060D01*
X60971571Y-101611060D02*
X61052383Y-101584123D01*
X61052383Y-101584123D02*
X61106258Y-101584123D01*
X61106258Y-101584123D02*
X61187070Y-101611060D01*
X61187070Y-101611060D02*
X61294820Y-101718810D01*
X61294820Y-101718810D02*
X61321757Y-101799622D01*
X61321757Y-101799622D02*
X61321757Y-101853497D01*
X61321757Y-101853497D02*
X61294820Y-101934309D01*
X89192001Y-90284868D02*
X89272814Y-90311805D01*
X89272814Y-90311805D02*
X89353626Y-90392618D01*
X89353626Y-90392618D02*
X89407501Y-90500367D01*
X89407501Y-90500367D02*
X89407501Y-90608117D01*
X89407501Y-90608117D02*
X89380563Y-90688929D01*
X89380563Y-90688929D02*
X89299751Y-90823616D01*
X89299751Y-90823616D02*
X89218939Y-90904428D01*
X89218939Y-90904428D02*
X89084252Y-90985241D01*
X89084252Y-90985241D02*
X89003439Y-91012178D01*
X89003439Y-91012178D02*
X88895690Y-91012178D01*
X88895690Y-91012178D02*
X88787940Y-90958303D01*
X88787940Y-90958303D02*
X88734065Y-90904428D01*
X88734065Y-90904428D02*
X88680191Y-90796679D01*
X88680191Y-90796679D02*
X88680191Y-90742804D01*
X88680191Y-90742804D02*
X88868752Y-90554242D01*
X88868752Y-90554242D02*
X88976502Y-90661992D01*
X88383879Y-90554242D02*
X88949565Y-89988557D01*
X88949565Y-89988557D02*
X88734065Y-89773057D01*
X88734065Y-89773057D02*
X88653253Y-89746120D01*
X88653253Y-89746120D02*
X88599378Y-89746120D01*
X88599378Y-89746120D02*
X88518566Y-89773057D01*
X88518566Y-89773057D02*
X88437754Y-89853870D01*
X88437754Y-89853870D02*
X88410817Y-89934682D01*
X88410817Y-89934682D02*
X88410817Y-89988557D01*
X88410817Y-89988557D02*
X88437754Y-90069369D01*
X88437754Y-90069369D02*
X88653253Y-90284868D01*
X87521882Y-89692245D02*
X87845131Y-90015494D01*
X87683507Y-89853870D02*
X88249192Y-89288184D01*
X88249192Y-89288184D02*
X88222255Y-89422871D01*
X88222255Y-89422871D02*
X88222255Y-89530621D01*
X88222255Y-89530621D02*
X88249192Y-89611433D01*
X86983134Y-89153497D02*
X87306383Y-89476746D01*
X87144759Y-89315121D02*
X87710444Y-88749436D01*
X87710444Y-88749436D02*
X87683507Y-88884123D01*
X87683507Y-88884123D02*
X87683507Y-88991873D01*
X87683507Y-88991873D02*
X87710444Y-89072685D01*
X88549564Y-84962431D02*
X88630376Y-84989368D01*
X88630376Y-84989368D02*
X88711188Y-85070180D01*
X88711188Y-85070180D02*
X88765063Y-85177930D01*
X88765063Y-85177930D02*
X88765063Y-85285680D01*
X88765063Y-85285680D02*
X88738126Y-85366492D01*
X88738126Y-85366492D02*
X88657314Y-85501179D01*
X88657314Y-85501179D02*
X88576501Y-85581991D01*
X88576501Y-85581991D02*
X88441814Y-85662803D01*
X88441814Y-85662803D02*
X88361002Y-85689741D01*
X88361002Y-85689741D02*
X88253253Y-85689741D01*
X88253253Y-85689741D02*
X88145503Y-85635866D01*
X88145503Y-85635866D02*
X88091628Y-85581991D01*
X88091628Y-85581991D02*
X88037753Y-85474241D01*
X88037753Y-85474241D02*
X88037753Y-85420367D01*
X88037753Y-85420367D02*
X88226315Y-85231805D01*
X88226315Y-85231805D02*
X88334065Y-85339554D01*
X87741442Y-85231805D02*
X88307127Y-84666119D01*
X88307127Y-84666119D02*
X87418193Y-84908556D01*
X87418193Y-84908556D02*
X87983879Y-84342871D01*
X87148819Y-84639182D02*
X87714505Y-84073497D01*
X87714505Y-84073497D02*
X87579818Y-83938810D01*
X87579818Y-83938810D02*
X87472068Y-83884935D01*
X87472068Y-83884935D02*
X87364319Y-83884935D01*
X87364319Y-83884935D02*
X87283506Y-83911872D01*
X87283506Y-83911872D02*
X87148819Y-83992685D01*
X87148819Y-83992685D02*
X87068007Y-84073497D01*
X87068007Y-84073497D02*
X86987195Y-84208184D01*
X86987195Y-84208184D02*
X86960258Y-84288996D01*
X86960258Y-84288996D02*
X86960258Y-84396746D01*
X86960258Y-84396746D02*
X87014132Y-84504495D01*
X87014132Y-84504495D02*
X87148819Y-84639182D01*
X88549564Y-59562431D02*
X88630376Y-59589368D01*
X88630376Y-59589368D02*
X88711188Y-59670180D01*
X88711188Y-59670180D02*
X88765063Y-59777930D01*
X88765063Y-59777930D02*
X88765063Y-59885680D01*
X88765063Y-59885680D02*
X88738126Y-59966492D01*
X88738126Y-59966492D02*
X88657314Y-60101179D01*
X88657314Y-60101179D02*
X88576501Y-60181991D01*
X88576501Y-60181991D02*
X88441814Y-60262803D01*
X88441814Y-60262803D02*
X88361002Y-60289741D01*
X88361002Y-60289741D02*
X88253253Y-60289741D01*
X88253253Y-60289741D02*
X88145503Y-60235866D01*
X88145503Y-60235866D02*
X88091628Y-60181991D01*
X88091628Y-60181991D02*
X88037753Y-60074241D01*
X88037753Y-60074241D02*
X88037753Y-60020367D01*
X88037753Y-60020367D02*
X88226315Y-59831805D01*
X88226315Y-59831805D02*
X88334065Y-59939554D01*
X87741442Y-59831805D02*
X88307127Y-59266119D01*
X88307127Y-59266119D02*
X87418193Y-59508556D01*
X87418193Y-59508556D02*
X87983879Y-58942871D01*
X87148819Y-59239182D02*
X87714505Y-58673497D01*
X87714505Y-58673497D02*
X87579818Y-58538810D01*
X87579818Y-58538810D02*
X87472068Y-58484935D01*
X87472068Y-58484935D02*
X87364319Y-58484935D01*
X87364319Y-58484935D02*
X87283506Y-58511872D01*
X87283506Y-58511872D02*
X87148819Y-58592685D01*
X87148819Y-58592685D02*
X87068007Y-58673497D01*
X87068007Y-58673497D02*
X86987195Y-58808184D01*
X86987195Y-58808184D02*
X86960258Y-58888996D01*
X86960258Y-58888996D02*
X86960258Y-58996746D01*
X86960258Y-58996746D02*
X87014132Y-59104495D01*
X87014132Y-59104495D02*
X87148819Y-59239182D01*
X63115250Y-57534242D02*
X62361003Y-57911366D01*
X62361003Y-57911366D02*
X62738126Y-57157118D01*
X62037754Y-57534242D02*
X61930004Y-57480367D01*
X61930004Y-57480367D02*
X61795317Y-57345680D01*
X61795317Y-57345680D02*
X61768380Y-57264868D01*
X61768380Y-57264868D02*
X61768380Y-57210993D01*
X61768380Y-57210993D02*
X61795317Y-57130181D01*
X61795317Y-57130181D02*
X61849192Y-57076306D01*
X61849192Y-57076306D02*
X61930004Y-57049369D01*
X61930004Y-57049369D02*
X61983879Y-57049369D01*
X61983879Y-57049369D02*
X62064691Y-57076306D01*
X62064691Y-57076306D02*
X62199378Y-57157118D01*
X62199378Y-57157118D02*
X62280191Y-57184056D01*
X62280191Y-57184056D02*
X62334065Y-57184056D01*
X62334065Y-57184056D02*
X62414878Y-57157118D01*
X62414878Y-57157118D02*
X62468752Y-57103244D01*
X62468752Y-57103244D02*
X62495690Y-57022431D01*
X62495690Y-57022431D02*
X62495690Y-56968557D01*
X62495690Y-56968557D02*
X62468752Y-56887744D01*
X62468752Y-56887744D02*
X62334065Y-56753057D01*
X62334065Y-56753057D02*
X62226316Y-56699183D01*
X61606755Y-56618370D02*
X61337381Y-56887744D01*
X62091629Y-56510621D02*
X61606755Y-56618370D01*
X61606755Y-56618370D02*
X61714505Y-56133497D01*
X61014133Y-56510621D02*
X60906383Y-56456746D01*
X60906383Y-56456746D02*
X60771696Y-56322059D01*
X60771696Y-56322059D02*
X60744759Y-56241247D01*
X60744759Y-56241247D02*
X60744759Y-56187372D01*
X60744759Y-56187372D02*
X60771696Y-56106560D01*
X60771696Y-56106560D02*
X60825571Y-56052685D01*
X60825571Y-56052685D02*
X60906383Y-56025748D01*
X60906383Y-56025748D02*
X60960258Y-56025748D01*
X60960258Y-56025748D02*
X61041070Y-56052685D01*
X61041070Y-56052685D02*
X61175757Y-56133497D01*
X61175757Y-56133497D02*
X61256569Y-56160435D01*
X61256569Y-56160435D02*
X61310444Y-56160435D01*
X61310444Y-56160435D02*
X61391256Y-56133497D01*
X61391256Y-56133497D02*
X61445131Y-56079622D01*
X61445131Y-56079622D02*
X61472069Y-55998810D01*
X61472069Y-55998810D02*
X61472069Y-55944935D01*
X61472069Y-55944935D02*
X61445131Y-55864123D01*
X61445131Y-55864123D02*
X61310444Y-55729436D01*
X61310444Y-55729436D02*
X61202695Y-55675561D01*
X88549564Y-97662431D02*
X88630376Y-97689368D01*
X88630376Y-97689368D02*
X88711188Y-97770180D01*
X88711188Y-97770180D02*
X88765063Y-97877930D01*
X88765063Y-97877930D02*
X88765063Y-97985680D01*
X88765063Y-97985680D02*
X88738126Y-98066492D01*
X88738126Y-98066492D02*
X88657314Y-98201179D01*
X88657314Y-98201179D02*
X88576501Y-98281991D01*
X88576501Y-98281991D02*
X88441814Y-98362803D01*
X88441814Y-98362803D02*
X88361002Y-98389741D01*
X88361002Y-98389741D02*
X88253253Y-98389741D01*
X88253253Y-98389741D02*
X88145503Y-98335866D01*
X88145503Y-98335866D02*
X88091628Y-98281991D01*
X88091628Y-98281991D02*
X88037753Y-98174241D01*
X88037753Y-98174241D02*
X88037753Y-98120367D01*
X88037753Y-98120367D02*
X88226315Y-97931805D01*
X88226315Y-97931805D02*
X88334065Y-98039554D01*
X87741442Y-97931805D02*
X88307127Y-97366119D01*
X88307127Y-97366119D02*
X87418193Y-97608556D01*
X87418193Y-97608556D02*
X87983879Y-97042871D01*
X87148819Y-97339182D02*
X87714505Y-96773497D01*
X87714505Y-96773497D02*
X87579818Y-96638810D01*
X87579818Y-96638810D02*
X87472068Y-96584935D01*
X87472068Y-96584935D02*
X87364319Y-96584935D01*
X87364319Y-96584935D02*
X87283506Y-96611872D01*
X87283506Y-96611872D02*
X87148819Y-96692685D01*
X87148819Y-96692685D02*
X87068007Y-96773497D01*
X87068007Y-96773497D02*
X86987195Y-96908184D01*
X86987195Y-96908184D02*
X86960258Y-96988996D01*
X86960258Y-96988996D02*
X86960258Y-97096746D01*
X86960258Y-97096746D02*
X87014132Y-97204495D01*
X87014132Y-97204495D02*
X87148819Y-97339182D01*
X62938001Y-100444868D02*
X63018814Y-100471805D01*
X63018814Y-100471805D02*
X63099626Y-100552618D01*
X63099626Y-100552618D02*
X63153501Y-100660367D01*
X63153501Y-100660367D02*
X63153501Y-100768117D01*
X63153501Y-100768117D02*
X63126563Y-100848929D01*
X63126563Y-100848929D02*
X63045751Y-100983616D01*
X63045751Y-100983616D02*
X62964939Y-101064428D01*
X62964939Y-101064428D02*
X62830252Y-101145241D01*
X62830252Y-101145241D02*
X62749439Y-101172178D01*
X62749439Y-101172178D02*
X62641690Y-101172178D01*
X62641690Y-101172178D02*
X62533940Y-101118303D01*
X62533940Y-101118303D02*
X62480065Y-101064428D01*
X62480065Y-101064428D02*
X62426191Y-100956679D01*
X62426191Y-100956679D02*
X62426191Y-100902804D01*
X62426191Y-100902804D02*
X62614752Y-100714242D01*
X62614752Y-100714242D02*
X62722502Y-100821992D01*
X62129879Y-100714242D02*
X62695565Y-100148557D01*
X62695565Y-100148557D02*
X62480065Y-99933057D01*
X62480065Y-99933057D02*
X62399253Y-99906120D01*
X62399253Y-99906120D02*
X62345378Y-99906120D01*
X62345378Y-99906120D02*
X62264566Y-99933057D01*
X62264566Y-99933057D02*
X62183754Y-100013870D01*
X62183754Y-100013870D02*
X62156817Y-100094682D01*
X62156817Y-100094682D02*
X62156817Y-100148557D01*
X62156817Y-100148557D02*
X62183754Y-100229369D01*
X62183754Y-100229369D02*
X62399253Y-100444868D01*
X61267882Y-99852245D02*
X61591131Y-100175494D01*
X61429507Y-100013870D02*
X61995192Y-99448184D01*
X61995192Y-99448184D02*
X61968255Y-99582871D01*
X61968255Y-99582871D02*
X61968255Y-99690621D01*
X61968255Y-99690621D02*
X61995192Y-99771433D01*
X61645006Y-99097998D02*
X61267882Y-98720874D01*
X61267882Y-98720874D02*
X60944633Y-99528996D01*
X82545524Y-104988200D02*
X82431238Y-105026295D01*
X82431238Y-105026295D02*
X82240762Y-105026295D01*
X82240762Y-105026295D02*
X82164571Y-104988200D01*
X82164571Y-104988200D02*
X82126476Y-104950104D01*
X82126476Y-104950104D02*
X82088381Y-104873914D01*
X82088381Y-104873914D02*
X82088381Y-104797723D01*
X82088381Y-104797723D02*
X82126476Y-104721533D01*
X82126476Y-104721533D02*
X82164571Y-104683438D01*
X82164571Y-104683438D02*
X82240762Y-104645342D01*
X82240762Y-104645342D02*
X82393143Y-104607247D01*
X82393143Y-104607247D02*
X82469333Y-104569152D01*
X82469333Y-104569152D02*
X82507428Y-104531057D01*
X82507428Y-104531057D02*
X82545524Y-104454866D01*
X82545524Y-104454866D02*
X82545524Y-104378676D01*
X82545524Y-104378676D02*
X82507428Y-104302485D01*
X82507428Y-104302485D02*
X82469333Y-104264390D01*
X82469333Y-104264390D02*
X82393143Y-104226295D01*
X82393143Y-104226295D02*
X82202666Y-104226295D01*
X82202666Y-104226295D02*
X82088381Y-104264390D01*
X81821714Y-104226295D02*
X81631238Y-105026295D01*
X81631238Y-105026295D02*
X81478857Y-104454866D01*
X81478857Y-104454866D02*
X81326476Y-105026295D01*
X81326476Y-105026295D02*
X81136000Y-104226295D01*
X80374094Y-104950104D02*
X80412190Y-104988200D01*
X80412190Y-104988200D02*
X80526475Y-105026295D01*
X80526475Y-105026295D02*
X80602666Y-105026295D01*
X80602666Y-105026295D02*
X80716952Y-104988200D01*
X80716952Y-104988200D02*
X80793142Y-104912009D01*
X80793142Y-104912009D02*
X80831237Y-104835819D01*
X80831237Y-104835819D02*
X80869333Y-104683438D01*
X80869333Y-104683438D02*
X80869333Y-104569152D01*
X80869333Y-104569152D02*
X80831237Y-104416771D01*
X80831237Y-104416771D02*
X80793142Y-104340580D01*
X80793142Y-104340580D02*
X80716952Y-104264390D01*
X80716952Y-104264390D02*
X80602666Y-104226295D01*
X80602666Y-104226295D02*
X80526475Y-104226295D01*
X80526475Y-104226295D02*
X80412190Y-104264390D01*
X80412190Y-104264390D02*
X80374094Y-104302485D01*
X79650285Y-105026295D02*
X80031237Y-105026295D01*
X80031237Y-105026295D02*
X80031237Y-104226295D01*
X79383618Y-105026295D02*
X79383618Y-104226295D01*
X78926475Y-105026295D02*
X79269333Y-104569152D01*
X78926475Y-104226295D02*
X79383618Y-104683438D01*
X62197348Y-80407710D02*
X62655283Y-80326898D01*
X62520596Y-80730959D02*
X63086282Y-80165274D01*
X63086282Y-80165274D02*
X62870783Y-79949775D01*
X62870783Y-79949775D02*
X62789970Y-79922837D01*
X62789970Y-79922837D02*
X62736096Y-79922837D01*
X62736096Y-79922837D02*
X62655283Y-79949775D01*
X62655283Y-79949775D02*
X62574471Y-80030587D01*
X62574471Y-80030587D02*
X62547534Y-80111399D01*
X62547534Y-80111399D02*
X62547534Y-80165274D01*
X62547534Y-80165274D02*
X62574471Y-80246086D01*
X62574471Y-80246086D02*
X62789970Y-80461585D01*
X62520596Y-79599588D02*
X62062661Y-80057524D01*
X62062661Y-80057524D02*
X61981848Y-80084462D01*
X61981848Y-80084462D02*
X61927974Y-80084462D01*
X61927974Y-80084462D02*
X61847161Y-80057524D01*
X61847161Y-80057524D02*
X61739412Y-79949775D01*
X61739412Y-79949775D02*
X61712474Y-79868962D01*
X61712474Y-79868962D02*
X61712474Y-79815088D01*
X61712474Y-79815088D02*
X61739412Y-79734275D01*
X61739412Y-79734275D02*
X62197348Y-79276340D01*
X61362288Y-79572651D02*
X61927974Y-79006966D01*
X61927974Y-79006966D02*
X61039040Y-79249402D01*
X61039040Y-79249402D02*
X61604725Y-78683717D01*
X88522627Y-79855494D02*
X88603439Y-79882431D01*
X88603439Y-79882431D02*
X88684251Y-79963243D01*
X88684251Y-79963243D02*
X88738126Y-80070993D01*
X88738126Y-80070993D02*
X88738126Y-80178742D01*
X88738126Y-80178742D02*
X88711189Y-80259555D01*
X88711189Y-80259555D02*
X88630376Y-80394242D01*
X88630376Y-80394242D02*
X88549564Y-80475054D01*
X88549564Y-80475054D02*
X88414877Y-80555866D01*
X88414877Y-80555866D02*
X88334065Y-80582803D01*
X88334065Y-80582803D02*
X88226315Y-80582803D01*
X88226315Y-80582803D02*
X88118566Y-80528929D01*
X88118566Y-80528929D02*
X88064691Y-80475054D01*
X88064691Y-80475054D02*
X88010816Y-80367304D01*
X88010816Y-80367304D02*
X88010816Y-80313429D01*
X88010816Y-80313429D02*
X88199378Y-80124868D01*
X88199378Y-80124868D02*
X88307128Y-80232617D01*
X87714505Y-80124868D02*
X88280190Y-79559182D01*
X88280190Y-79559182D02*
X88064691Y-79343683D01*
X88064691Y-79343683D02*
X87983879Y-79316746D01*
X87983879Y-79316746D02*
X87930004Y-79316746D01*
X87930004Y-79316746D02*
X87849192Y-79343683D01*
X87849192Y-79343683D02*
X87768380Y-79424495D01*
X87768380Y-79424495D02*
X87741442Y-79505307D01*
X87741442Y-79505307D02*
X87741442Y-79559182D01*
X87741442Y-79559182D02*
X87768380Y-79639994D01*
X87768380Y-79639994D02*
X87983879Y-79855494D01*
X87391256Y-79155121D02*
X87472068Y-79182059D01*
X87472068Y-79182059D02*
X87525943Y-79182059D01*
X87525943Y-79182059D02*
X87606755Y-79155121D01*
X87606755Y-79155121D02*
X87633693Y-79128184D01*
X87633693Y-79128184D02*
X87660630Y-79047372D01*
X87660630Y-79047372D02*
X87660630Y-78993497D01*
X87660630Y-78993497D02*
X87633693Y-78912685D01*
X87633693Y-78912685D02*
X87525943Y-78804935D01*
X87525943Y-78804935D02*
X87445131Y-78777998D01*
X87445131Y-78777998D02*
X87391256Y-78777998D01*
X87391256Y-78777998D02*
X87310444Y-78804935D01*
X87310444Y-78804935D02*
X87283506Y-78831872D01*
X87283506Y-78831872D02*
X87256569Y-78912685D01*
X87256569Y-78912685D02*
X87256569Y-78966559D01*
X87256569Y-78966559D02*
X87283506Y-79047372D01*
X87283506Y-79047372D02*
X87391256Y-79155121D01*
X87391256Y-79155121D02*
X87418193Y-79235933D01*
X87418193Y-79235933D02*
X87418193Y-79289808D01*
X87418193Y-79289808D02*
X87391256Y-79370620D01*
X87391256Y-79370620D02*
X87283506Y-79478370D01*
X87283506Y-79478370D02*
X87202694Y-79505307D01*
X87202694Y-79505307D02*
X87148819Y-79505307D01*
X87148819Y-79505307D02*
X87068007Y-79478370D01*
X87068007Y-79478370D02*
X86960258Y-79370620D01*
X86960258Y-79370620D02*
X86933320Y-79289808D01*
X86933320Y-79289808D02*
X86933320Y-79235933D01*
X86933320Y-79235933D02*
X86960258Y-79155121D01*
X86960258Y-79155121D02*
X87068007Y-79047372D01*
X87068007Y-79047372D02*
X87148819Y-79020434D01*
X87148819Y-79020434D02*
X87202694Y-79020434D01*
X87202694Y-79020434D02*
X87283506Y-79047372D01*
X88522627Y-69695494D02*
X88603439Y-69722431D01*
X88603439Y-69722431D02*
X88684251Y-69803243D01*
X88684251Y-69803243D02*
X88738126Y-69910993D01*
X88738126Y-69910993D02*
X88738126Y-70018742D01*
X88738126Y-70018742D02*
X88711189Y-70099555D01*
X88711189Y-70099555D02*
X88630376Y-70234242D01*
X88630376Y-70234242D02*
X88549564Y-70315054D01*
X88549564Y-70315054D02*
X88414877Y-70395866D01*
X88414877Y-70395866D02*
X88334065Y-70422803D01*
X88334065Y-70422803D02*
X88226315Y-70422803D01*
X88226315Y-70422803D02*
X88118566Y-70368929D01*
X88118566Y-70368929D02*
X88064691Y-70315054D01*
X88064691Y-70315054D02*
X88010816Y-70207304D01*
X88010816Y-70207304D02*
X88010816Y-70153429D01*
X88010816Y-70153429D02*
X88199378Y-69964868D01*
X88199378Y-69964868D02*
X88307128Y-70072617D01*
X87714505Y-69964868D02*
X88280190Y-69399182D01*
X88280190Y-69399182D02*
X88064691Y-69183683D01*
X88064691Y-69183683D02*
X87983879Y-69156746D01*
X87983879Y-69156746D02*
X87930004Y-69156746D01*
X87930004Y-69156746D02*
X87849192Y-69183683D01*
X87849192Y-69183683D02*
X87768380Y-69264495D01*
X87768380Y-69264495D02*
X87741442Y-69345307D01*
X87741442Y-69345307D02*
X87741442Y-69399182D01*
X87741442Y-69399182D02*
X87768380Y-69479994D01*
X87768380Y-69479994D02*
X87983879Y-69695494D01*
X87445131Y-68564123D02*
X87714505Y-68833497D01*
X87714505Y-68833497D02*
X87472068Y-69129808D01*
X87472068Y-69129808D02*
X87472068Y-69075933D01*
X87472068Y-69075933D02*
X87445131Y-68995121D01*
X87445131Y-68995121D02*
X87310444Y-68860434D01*
X87310444Y-68860434D02*
X87229632Y-68833497D01*
X87229632Y-68833497D02*
X87175757Y-68833497D01*
X87175757Y-68833497D02*
X87094945Y-68860434D01*
X87094945Y-68860434D02*
X86960258Y-68995121D01*
X86960258Y-68995121D02*
X86933320Y-69075933D01*
X86933320Y-69075933D02*
X86933320Y-69129808D01*
X86933320Y-69129808D02*
X86960258Y-69210620D01*
X86960258Y-69210620D02*
X87094945Y-69345307D01*
X87094945Y-69345307D02*
X87175757Y-69372245D01*
X87175757Y-69372245D02*
X87229632Y-69372245D01*
X88522627Y-74775494D02*
X88603439Y-74802431D01*
X88603439Y-74802431D02*
X88684251Y-74883243D01*
X88684251Y-74883243D02*
X88738126Y-74990993D01*
X88738126Y-74990993D02*
X88738126Y-75098742D01*
X88738126Y-75098742D02*
X88711189Y-75179555D01*
X88711189Y-75179555D02*
X88630376Y-75314242D01*
X88630376Y-75314242D02*
X88549564Y-75395054D01*
X88549564Y-75395054D02*
X88414877Y-75475866D01*
X88414877Y-75475866D02*
X88334065Y-75502803D01*
X88334065Y-75502803D02*
X88226315Y-75502803D01*
X88226315Y-75502803D02*
X88118566Y-75448929D01*
X88118566Y-75448929D02*
X88064691Y-75395054D01*
X88064691Y-75395054D02*
X88010816Y-75287304D01*
X88010816Y-75287304D02*
X88010816Y-75233429D01*
X88010816Y-75233429D02*
X88199378Y-75044868D01*
X88199378Y-75044868D02*
X88307128Y-75152617D01*
X87714505Y-75044868D02*
X88280190Y-74479182D01*
X88280190Y-74479182D02*
X88064691Y-74263683D01*
X88064691Y-74263683D02*
X87983879Y-74236746D01*
X87983879Y-74236746D02*
X87930004Y-74236746D01*
X87930004Y-74236746D02*
X87849192Y-74263683D01*
X87849192Y-74263683D02*
X87768380Y-74344495D01*
X87768380Y-74344495D02*
X87741442Y-74425307D01*
X87741442Y-74425307D02*
X87741442Y-74479182D01*
X87741442Y-74479182D02*
X87768380Y-74559994D01*
X87768380Y-74559994D02*
X87983879Y-74775494D01*
X87472068Y-73671060D02*
X87579818Y-73778810D01*
X87579818Y-73778810D02*
X87606755Y-73859622D01*
X87606755Y-73859622D02*
X87606755Y-73913497D01*
X87606755Y-73913497D02*
X87579818Y-74048184D01*
X87579818Y-74048184D02*
X87499006Y-74182871D01*
X87499006Y-74182871D02*
X87283506Y-74398370D01*
X87283506Y-74398370D02*
X87202694Y-74425307D01*
X87202694Y-74425307D02*
X87148819Y-74425307D01*
X87148819Y-74425307D02*
X87068007Y-74398370D01*
X87068007Y-74398370D02*
X86960258Y-74290620D01*
X86960258Y-74290620D02*
X86933320Y-74209808D01*
X86933320Y-74209808D02*
X86933320Y-74155933D01*
X86933320Y-74155933D02*
X86960258Y-74075121D01*
X86960258Y-74075121D02*
X87094945Y-73940434D01*
X87094945Y-73940434D02*
X87175757Y-73913497D01*
X87175757Y-73913497D02*
X87229632Y-73913497D01*
X87229632Y-73913497D02*
X87310444Y-73940434D01*
X87310444Y-73940434D02*
X87418193Y-74048184D01*
X87418193Y-74048184D02*
X87445131Y-74128996D01*
X87445131Y-74128996D02*
X87445131Y-74182871D01*
X87445131Y-74182871D02*
X87418193Y-74263683D01*
X89092001Y-100444868D02*
X89172814Y-100471805D01*
X89172814Y-100471805D02*
X89253626Y-100552618D01*
X89253626Y-100552618D02*
X89307501Y-100660367D01*
X89307501Y-100660367D02*
X89307501Y-100768117D01*
X89307501Y-100768117D02*
X89280563Y-100848929D01*
X89280563Y-100848929D02*
X89199751Y-100983616D01*
X89199751Y-100983616D02*
X89118939Y-101064428D01*
X89118939Y-101064428D02*
X88984252Y-101145241D01*
X88984252Y-101145241D02*
X88903439Y-101172178D01*
X88903439Y-101172178D02*
X88795690Y-101172178D01*
X88795690Y-101172178D02*
X88687940Y-101118303D01*
X88687940Y-101118303D02*
X88634065Y-101064428D01*
X88634065Y-101064428D02*
X88580191Y-100956679D01*
X88580191Y-100956679D02*
X88580191Y-100902804D01*
X88580191Y-100902804D02*
X88768752Y-100714242D01*
X88768752Y-100714242D02*
X88876502Y-100821992D01*
X88283879Y-100714242D02*
X88849565Y-100148557D01*
X88849565Y-100148557D02*
X88634065Y-99933057D01*
X88634065Y-99933057D02*
X88553253Y-99906120D01*
X88553253Y-99906120D02*
X88499378Y-99906120D01*
X88499378Y-99906120D02*
X88418566Y-99933057D01*
X88418566Y-99933057D02*
X88337754Y-100013870D01*
X88337754Y-100013870D02*
X88310817Y-100094682D01*
X88310817Y-100094682D02*
X88310817Y-100148557D01*
X88310817Y-100148557D02*
X88337754Y-100229369D01*
X88337754Y-100229369D02*
X88553253Y-100444868D01*
X87421882Y-99852245D02*
X87745131Y-100175494D01*
X87583507Y-100013870D02*
X88149192Y-99448184D01*
X88149192Y-99448184D02*
X88122255Y-99582871D01*
X88122255Y-99582871D02*
X88122255Y-99690621D01*
X88122255Y-99690621D02*
X88149192Y-99771433D01*
X87314133Y-98990248D02*
X86937009Y-99367372D01*
X87664319Y-98909436D02*
X87394945Y-99448184D01*
X87394945Y-99448184D02*
X87044759Y-99097998D01*
X89046001Y-87744868D02*
X89126814Y-87771805D01*
X89126814Y-87771805D02*
X89207626Y-87852618D01*
X89207626Y-87852618D02*
X89261501Y-87960367D01*
X89261501Y-87960367D02*
X89261501Y-88068117D01*
X89261501Y-88068117D02*
X89234563Y-88148929D01*
X89234563Y-88148929D02*
X89153751Y-88283616D01*
X89153751Y-88283616D02*
X89072939Y-88364428D01*
X89072939Y-88364428D02*
X88938252Y-88445241D01*
X88938252Y-88445241D02*
X88857439Y-88472178D01*
X88857439Y-88472178D02*
X88749690Y-88472178D01*
X88749690Y-88472178D02*
X88641940Y-88418303D01*
X88641940Y-88418303D02*
X88588065Y-88364428D01*
X88588065Y-88364428D02*
X88534191Y-88256679D01*
X88534191Y-88256679D02*
X88534191Y-88202804D01*
X88534191Y-88202804D02*
X88722752Y-88014242D01*
X88722752Y-88014242D02*
X88830502Y-88121992D01*
X88237879Y-88014242D02*
X88803565Y-87448557D01*
X88803565Y-87448557D02*
X88588065Y-87233057D01*
X88588065Y-87233057D02*
X88507253Y-87206120D01*
X88507253Y-87206120D02*
X88453378Y-87206120D01*
X88453378Y-87206120D02*
X88372566Y-87233057D01*
X88372566Y-87233057D02*
X88291754Y-87313870D01*
X88291754Y-87313870D02*
X88264817Y-87394682D01*
X88264817Y-87394682D02*
X88264817Y-87448557D01*
X88264817Y-87448557D02*
X88291754Y-87529369D01*
X88291754Y-87529369D02*
X88507253Y-87744868D01*
X87375882Y-87152245D02*
X87699131Y-87475494D01*
X87537507Y-87313870D02*
X88103192Y-86748184D01*
X88103192Y-86748184D02*
X88076255Y-86882871D01*
X88076255Y-86882871D02*
X88076255Y-86990621D01*
X88076255Y-86990621D02*
X88103192Y-87071433D01*
X87591381Y-86236373D02*
X87537507Y-86182499D01*
X87537507Y-86182499D02*
X87456694Y-86155561D01*
X87456694Y-86155561D02*
X87402820Y-86155561D01*
X87402820Y-86155561D02*
X87322007Y-86182499D01*
X87322007Y-86182499D02*
X87187320Y-86263311D01*
X87187320Y-86263311D02*
X87052633Y-86397998D01*
X87052633Y-86397998D02*
X86971821Y-86532685D01*
X86971821Y-86532685D02*
X86944884Y-86613497D01*
X86944884Y-86613497D02*
X86944884Y-86667372D01*
X86944884Y-86667372D02*
X86971821Y-86748184D01*
X86971821Y-86748184D02*
X87025696Y-86802059D01*
X87025696Y-86802059D02*
X87106508Y-86828996D01*
X87106508Y-86828996D02*
X87160383Y-86828996D01*
X87160383Y-86828996D02*
X87241195Y-86802059D01*
X87241195Y-86802059D02*
X87375882Y-86721247D01*
X87375882Y-86721247D02*
X87510569Y-86586560D01*
X87510569Y-86586560D02*
X87591381Y-86451873D01*
X87591381Y-86451873D02*
X87618319Y-86371060D01*
X87618319Y-86371060D02*
X87618319Y-86317186D01*
X87618319Y-86317186D02*
X87591381Y-86236373D01*
X62949564Y-97662431D02*
X63030376Y-97689368D01*
X63030376Y-97689368D02*
X63111188Y-97770180D01*
X63111188Y-97770180D02*
X63165063Y-97877930D01*
X63165063Y-97877930D02*
X63165063Y-97985680D01*
X63165063Y-97985680D02*
X63138126Y-98066492D01*
X63138126Y-98066492D02*
X63057314Y-98201179D01*
X63057314Y-98201179D02*
X62976501Y-98281991D01*
X62976501Y-98281991D02*
X62841814Y-98362803D01*
X62841814Y-98362803D02*
X62761002Y-98389741D01*
X62761002Y-98389741D02*
X62653253Y-98389741D01*
X62653253Y-98389741D02*
X62545503Y-98335866D01*
X62545503Y-98335866D02*
X62491628Y-98281991D01*
X62491628Y-98281991D02*
X62437753Y-98174241D01*
X62437753Y-98174241D02*
X62437753Y-98120367D01*
X62437753Y-98120367D02*
X62626315Y-97931805D01*
X62626315Y-97931805D02*
X62734065Y-98039554D01*
X62141442Y-97931805D02*
X62707127Y-97366119D01*
X62707127Y-97366119D02*
X61818193Y-97608556D01*
X61818193Y-97608556D02*
X62383879Y-97042871D01*
X61548819Y-97339182D02*
X62114505Y-96773497D01*
X62114505Y-96773497D02*
X61979818Y-96638810D01*
X61979818Y-96638810D02*
X61872068Y-96584935D01*
X61872068Y-96584935D02*
X61764319Y-96584935D01*
X61764319Y-96584935D02*
X61683506Y-96611872D01*
X61683506Y-96611872D02*
X61548819Y-96692685D01*
X61548819Y-96692685D02*
X61468007Y-96773497D01*
X61468007Y-96773497D02*
X61387195Y-96908184D01*
X61387195Y-96908184D02*
X61360258Y-96988996D01*
X61360258Y-96988996D02*
X61360258Y-97096746D01*
X61360258Y-97096746D02*
X61414132Y-97204495D01*
X61414132Y-97204495D02*
X61548819Y-97339182D01*
X88422627Y-77285494D02*
X88503439Y-77312431D01*
X88503439Y-77312431D02*
X88584251Y-77393243D01*
X88584251Y-77393243D02*
X88638126Y-77500993D01*
X88638126Y-77500993D02*
X88638126Y-77608742D01*
X88638126Y-77608742D02*
X88611189Y-77689555D01*
X88611189Y-77689555D02*
X88530376Y-77824242D01*
X88530376Y-77824242D02*
X88449564Y-77905054D01*
X88449564Y-77905054D02*
X88314877Y-77985866D01*
X88314877Y-77985866D02*
X88234065Y-78012803D01*
X88234065Y-78012803D02*
X88126315Y-78012803D01*
X88126315Y-78012803D02*
X88018566Y-77958929D01*
X88018566Y-77958929D02*
X87964691Y-77905054D01*
X87964691Y-77905054D02*
X87910816Y-77797304D01*
X87910816Y-77797304D02*
X87910816Y-77743429D01*
X87910816Y-77743429D02*
X88099378Y-77554868D01*
X88099378Y-77554868D02*
X88207128Y-77662617D01*
X87614505Y-77554868D02*
X88180190Y-76989182D01*
X88180190Y-76989182D02*
X87964691Y-76773683D01*
X87964691Y-76773683D02*
X87883879Y-76746746D01*
X87883879Y-76746746D02*
X87830004Y-76746746D01*
X87830004Y-76746746D02*
X87749192Y-76773683D01*
X87749192Y-76773683D02*
X87668380Y-76854495D01*
X87668380Y-76854495D02*
X87641442Y-76935307D01*
X87641442Y-76935307D02*
X87641442Y-76989182D01*
X87641442Y-76989182D02*
X87668380Y-77069994D01*
X87668380Y-77069994D02*
X87883879Y-77285494D01*
X87668380Y-76477372D02*
X87291256Y-76100248D01*
X87291256Y-76100248D02*
X86968007Y-76908370D01*
X62938001Y-82664868D02*
X63018814Y-82691805D01*
X63018814Y-82691805D02*
X63099626Y-82772618D01*
X63099626Y-82772618D02*
X63153501Y-82880367D01*
X63153501Y-82880367D02*
X63153501Y-82988117D01*
X63153501Y-82988117D02*
X63126563Y-83068929D01*
X63126563Y-83068929D02*
X63045751Y-83203616D01*
X63045751Y-83203616D02*
X62964939Y-83284428D01*
X62964939Y-83284428D02*
X62830252Y-83365241D01*
X62830252Y-83365241D02*
X62749439Y-83392178D01*
X62749439Y-83392178D02*
X62641690Y-83392178D01*
X62641690Y-83392178D02*
X62533940Y-83338303D01*
X62533940Y-83338303D02*
X62480065Y-83284428D01*
X62480065Y-83284428D02*
X62426191Y-83176679D01*
X62426191Y-83176679D02*
X62426191Y-83122804D01*
X62426191Y-83122804D02*
X62614752Y-82934242D01*
X62614752Y-82934242D02*
X62722502Y-83041992D01*
X62129879Y-82934242D02*
X62695565Y-82368557D01*
X62695565Y-82368557D02*
X62480065Y-82153057D01*
X62480065Y-82153057D02*
X62399253Y-82126120D01*
X62399253Y-82126120D02*
X62345378Y-82126120D01*
X62345378Y-82126120D02*
X62264566Y-82153057D01*
X62264566Y-82153057D02*
X62183754Y-82233870D01*
X62183754Y-82233870D02*
X62156817Y-82314682D01*
X62156817Y-82314682D02*
X62156817Y-82368557D01*
X62156817Y-82368557D02*
X62183754Y-82449369D01*
X62183754Y-82449369D02*
X62399253Y-82664868D01*
X62102942Y-81883683D02*
X62102942Y-81829809D01*
X62102942Y-81829809D02*
X62076004Y-81748996D01*
X62076004Y-81748996D02*
X61941317Y-81614309D01*
X61941317Y-81614309D02*
X61860505Y-81587372D01*
X61860505Y-81587372D02*
X61806630Y-81587372D01*
X61806630Y-81587372D02*
X61725818Y-81614309D01*
X61725818Y-81614309D02*
X61671943Y-81668184D01*
X61671943Y-81668184D02*
X61618069Y-81775934D01*
X61618069Y-81775934D02*
X61618069Y-82422431D01*
X61618069Y-82422431D02*
X61267882Y-82072245D01*
X61564194Y-81344935D02*
X61564194Y-81291060D01*
X61564194Y-81291060D02*
X61537256Y-81210248D01*
X61537256Y-81210248D02*
X61402569Y-81075561D01*
X61402569Y-81075561D02*
X61321757Y-81048624D01*
X61321757Y-81048624D02*
X61267882Y-81048624D01*
X61267882Y-81048624D02*
X61187070Y-81075561D01*
X61187070Y-81075561D02*
X61133195Y-81129436D01*
X61133195Y-81129436D02*
X61079320Y-81237186D01*
X61079320Y-81237186D02*
X61079320Y-81883683D01*
X61079320Y-81883683D02*
X60729134Y-81533497D01*
X62938001Y-90284868D02*
X63018814Y-90311805D01*
X63018814Y-90311805D02*
X63099626Y-90392618D01*
X63099626Y-90392618D02*
X63153501Y-90500367D01*
X63153501Y-90500367D02*
X63153501Y-90608117D01*
X63153501Y-90608117D02*
X63126563Y-90688929D01*
X63126563Y-90688929D02*
X63045751Y-90823616D01*
X63045751Y-90823616D02*
X62964939Y-90904428D01*
X62964939Y-90904428D02*
X62830252Y-90985241D01*
X62830252Y-90985241D02*
X62749439Y-91012178D01*
X62749439Y-91012178D02*
X62641690Y-91012178D01*
X62641690Y-91012178D02*
X62533940Y-90958303D01*
X62533940Y-90958303D02*
X62480065Y-90904428D01*
X62480065Y-90904428D02*
X62426191Y-90796679D01*
X62426191Y-90796679D02*
X62426191Y-90742804D01*
X62426191Y-90742804D02*
X62614752Y-90554242D01*
X62614752Y-90554242D02*
X62722502Y-90661992D01*
X62129879Y-90554242D02*
X62695565Y-89988557D01*
X62695565Y-89988557D02*
X62480065Y-89773057D01*
X62480065Y-89773057D02*
X62399253Y-89746120D01*
X62399253Y-89746120D02*
X62345378Y-89746120D01*
X62345378Y-89746120D02*
X62264566Y-89773057D01*
X62264566Y-89773057D02*
X62183754Y-89853870D01*
X62183754Y-89853870D02*
X62156817Y-89934682D01*
X62156817Y-89934682D02*
X62156817Y-89988557D01*
X62156817Y-89988557D02*
X62183754Y-90069369D01*
X62183754Y-90069369D02*
X62399253Y-90284868D01*
X62102942Y-89503683D02*
X62102942Y-89449809D01*
X62102942Y-89449809D02*
X62076004Y-89368996D01*
X62076004Y-89368996D02*
X61941317Y-89234309D01*
X61941317Y-89234309D02*
X61860505Y-89207372D01*
X61860505Y-89207372D02*
X61806630Y-89207372D01*
X61806630Y-89207372D02*
X61725818Y-89234309D01*
X61725818Y-89234309D02*
X61671943Y-89288184D01*
X61671943Y-89288184D02*
X61618069Y-89395934D01*
X61618069Y-89395934D02*
X61618069Y-90042431D01*
X61618069Y-90042431D02*
X61267882Y-89692245D01*
X61483381Y-88776373D02*
X61429507Y-88722499D01*
X61429507Y-88722499D02*
X61348694Y-88695561D01*
X61348694Y-88695561D02*
X61294820Y-88695561D01*
X61294820Y-88695561D02*
X61214007Y-88722499D01*
X61214007Y-88722499D02*
X61079320Y-88803311D01*
X61079320Y-88803311D02*
X60944633Y-88937998D01*
X60944633Y-88937998D02*
X60863821Y-89072685D01*
X60863821Y-89072685D02*
X60836884Y-89153497D01*
X60836884Y-89153497D02*
X60836884Y-89207372D01*
X60836884Y-89207372D02*
X60863821Y-89288184D01*
X60863821Y-89288184D02*
X60917696Y-89342059D01*
X60917696Y-89342059D02*
X60998508Y-89368996D01*
X60998508Y-89368996D02*
X61052383Y-89368996D01*
X61052383Y-89368996D02*
X61133195Y-89342059D01*
X61133195Y-89342059D02*
X61267882Y-89261247D01*
X61267882Y-89261247D02*
X61402569Y-89126560D01*
X61402569Y-89126560D02*
X61483381Y-88991873D01*
X61483381Y-88991873D02*
X61510319Y-88911060D01*
X61510319Y-88911060D02*
X61510319Y-88857186D01*
X61510319Y-88857186D02*
X61483381Y-88776373D01*
X88522627Y-82395494D02*
X88603439Y-82422431D01*
X88603439Y-82422431D02*
X88684251Y-82503243D01*
X88684251Y-82503243D02*
X88738126Y-82610993D01*
X88738126Y-82610993D02*
X88738126Y-82718742D01*
X88738126Y-82718742D02*
X88711189Y-82799555D01*
X88711189Y-82799555D02*
X88630376Y-82934242D01*
X88630376Y-82934242D02*
X88549564Y-83015054D01*
X88549564Y-83015054D02*
X88414877Y-83095866D01*
X88414877Y-83095866D02*
X88334065Y-83122803D01*
X88334065Y-83122803D02*
X88226315Y-83122803D01*
X88226315Y-83122803D02*
X88118566Y-83068929D01*
X88118566Y-83068929D02*
X88064691Y-83015054D01*
X88064691Y-83015054D02*
X88010816Y-82907304D01*
X88010816Y-82907304D02*
X88010816Y-82853429D01*
X88010816Y-82853429D02*
X88199378Y-82664868D01*
X88199378Y-82664868D02*
X88307128Y-82772617D01*
X87714505Y-82664868D02*
X88280190Y-82099182D01*
X88280190Y-82099182D02*
X88064691Y-81883683D01*
X88064691Y-81883683D02*
X87983879Y-81856746D01*
X87983879Y-81856746D02*
X87930004Y-81856746D01*
X87930004Y-81856746D02*
X87849192Y-81883683D01*
X87849192Y-81883683D02*
X87768380Y-81964495D01*
X87768380Y-81964495D02*
X87741442Y-82045307D01*
X87741442Y-82045307D02*
X87741442Y-82099182D01*
X87741442Y-82099182D02*
X87768380Y-82179994D01*
X87768380Y-82179994D02*
X87983879Y-82395494D01*
X87121882Y-82072245D02*
X87014132Y-81964495D01*
X87014132Y-81964495D02*
X86987195Y-81883683D01*
X86987195Y-81883683D02*
X86987195Y-81829808D01*
X86987195Y-81829808D02*
X87014132Y-81695121D01*
X87014132Y-81695121D02*
X87094945Y-81560434D01*
X87094945Y-81560434D02*
X87310444Y-81344935D01*
X87310444Y-81344935D02*
X87391256Y-81317998D01*
X87391256Y-81317998D02*
X87445131Y-81317998D01*
X87445131Y-81317998D02*
X87525943Y-81344935D01*
X87525943Y-81344935D02*
X87633693Y-81452685D01*
X87633693Y-81452685D02*
X87660630Y-81533497D01*
X87660630Y-81533497D02*
X87660630Y-81587372D01*
X87660630Y-81587372D02*
X87633693Y-81668184D01*
X87633693Y-81668184D02*
X87499006Y-81802871D01*
X87499006Y-81802871D02*
X87418193Y-81829808D01*
X87418193Y-81829808D02*
X87364319Y-81829808D01*
X87364319Y-81829808D02*
X87283506Y-81802871D01*
X87283506Y-81802871D02*
X87175757Y-81695121D01*
X87175757Y-81695121D02*
X87148819Y-81614309D01*
X87148819Y-81614309D02*
X87148819Y-81560434D01*
X87148819Y-81560434D02*
X87175757Y-81479622D01*
X89046001Y-102984868D02*
X89126814Y-103011805D01*
X89126814Y-103011805D02*
X89207626Y-103092618D01*
X89207626Y-103092618D02*
X89261501Y-103200367D01*
X89261501Y-103200367D02*
X89261501Y-103308117D01*
X89261501Y-103308117D02*
X89234563Y-103388929D01*
X89234563Y-103388929D02*
X89153751Y-103523616D01*
X89153751Y-103523616D02*
X89072939Y-103604428D01*
X89072939Y-103604428D02*
X88938252Y-103685241D01*
X88938252Y-103685241D02*
X88857439Y-103712178D01*
X88857439Y-103712178D02*
X88749690Y-103712178D01*
X88749690Y-103712178D02*
X88641940Y-103658303D01*
X88641940Y-103658303D02*
X88588065Y-103604428D01*
X88588065Y-103604428D02*
X88534191Y-103496679D01*
X88534191Y-103496679D02*
X88534191Y-103442804D01*
X88534191Y-103442804D02*
X88722752Y-103254242D01*
X88722752Y-103254242D02*
X88830502Y-103361992D01*
X88237879Y-103254242D02*
X88803565Y-102688557D01*
X88803565Y-102688557D02*
X88588065Y-102473057D01*
X88588065Y-102473057D02*
X88507253Y-102446120D01*
X88507253Y-102446120D02*
X88453378Y-102446120D01*
X88453378Y-102446120D02*
X88372566Y-102473057D01*
X88372566Y-102473057D02*
X88291754Y-102553870D01*
X88291754Y-102553870D02*
X88264817Y-102634682D01*
X88264817Y-102634682D02*
X88264817Y-102688557D01*
X88264817Y-102688557D02*
X88291754Y-102769369D01*
X88291754Y-102769369D02*
X88507253Y-102984868D01*
X87375882Y-102392245D02*
X87699131Y-102715494D01*
X87537507Y-102553870D02*
X88103192Y-101988184D01*
X88103192Y-101988184D02*
X88076255Y-102122871D01*
X88076255Y-102122871D02*
X88076255Y-102230621D01*
X88076255Y-102230621D02*
X88103192Y-102311433D01*
X87429757Y-101314749D02*
X87699131Y-101584123D01*
X87699131Y-101584123D02*
X87456694Y-101880434D01*
X87456694Y-101880434D02*
X87456694Y-101826560D01*
X87456694Y-101826560D02*
X87429757Y-101745747D01*
X87429757Y-101745747D02*
X87295070Y-101611060D01*
X87295070Y-101611060D02*
X87214258Y-101584123D01*
X87214258Y-101584123D02*
X87160383Y-101584123D01*
X87160383Y-101584123D02*
X87079571Y-101611060D01*
X87079571Y-101611060D02*
X86944884Y-101745747D01*
X86944884Y-101745747D02*
X86917946Y-101826560D01*
X86917946Y-101826560D02*
X86917946Y-101880434D01*
X86917946Y-101880434D02*
X86944884Y-101961247D01*
X86944884Y-101961247D02*
X87079571Y-102095934D01*
X87079571Y-102095934D02*
X87160383Y-102122871D01*
X87160383Y-102122871D02*
X87214258Y-102122871D01*
X71131238Y-104988200D02*
X71016952Y-105026295D01*
X71016952Y-105026295D02*
X70826476Y-105026295D01*
X70826476Y-105026295D02*
X70750285Y-104988200D01*
X70750285Y-104988200D02*
X70712190Y-104950104D01*
X70712190Y-104950104D02*
X70674095Y-104873914D01*
X70674095Y-104873914D02*
X70674095Y-104797723D01*
X70674095Y-104797723D02*
X70712190Y-104721533D01*
X70712190Y-104721533D02*
X70750285Y-104683438D01*
X70750285Y-104683438D02*
X70826476Y-104645342D01*
X70826476Y-104645342D02*
X70978857Y-104607247D01*
X70978857Y-104607247D02*
X71055047Y-104569152D01*
X71055047Y-104569152D02*
X71093142Y-104531057D01*
X71093142Y-104531057D02*
X71131238Y-104454866D01*
X71131238Y-104454866D02*
X71131238Y-104378676D01*
X71131238Y-104378676D02*
X71093142Y-104302485D01*
X71093142Y-104302485D02*
X71055047Y-104264390D01*
X71055047Y-104264390D02*
X70978857Y-104226295D01*
X70978857Y-104226295D02*
X70788380Y-104226295D01*
X70788380Y-104226295D02*
X70674095Y-104264390D01*
X70407428Y-104226295D02*
X70216952Y-105026295D01*
X70216952Y-105026295D02*
X70064571Y-104454866D01*
X70064571Y-104454866D02*
X69912190Y-105026295D01*
X69912190Y-105026295D02*
X69721714Y-104226295D01*
X69416951Y-105026295D02*
X69416951Y-104226295D01*
X69416951Y-104226295D02*
X69226475Y-104226295D01*
X69226475Y-104226295D02*
X69112189Y-104264390D01*
X69112189Y-104264390D02*
X69035999Y-104340580D01*
X69035999Y-104340580D02*
X68997904Y-104416771D01*
X68997904Y-104416771D02*
X68959808Y-104569152D01*
X68959808Y-104569152D02*
X68959808Y-104683438D01*
X68959808Y-104683438D02*
X68997904Y-104835819D01*
X68997904Y-104835819D02*
X69035999Y-104912009D01*
X69035999Y-104912009D02*
X69112189Y-104988200D01*
X69112189Y-104988200D02*
X69226475Y-105026295D01*
X69226475Y-105026295D02*
X69416951Y-105026295D01*
X68616951Y-105026295D02*
X68616951Y-104226295D01*
X68083618Y-104226295D02*
X67931237Y-104226295D01*
X67931237Y-104226295D02*
X67855047Y-104264390D01*
X67855047Y-104264390D02*
X67778856Y-104340580D01*
X67778856Y-104340580D02*
X67740761Y-104492961D01*
X67740761Y-104492961D02*
X67740761Y-104759628D01*
X67740761Y-104759628D02*
X67778856Y-104912009D01*
X67778856Y-104912009D02*
X67855047Y-104988200D01*
X67855047Y-104988200D02*
X67931237Y-105026295D01*
X67931237Y-105026295D02*
X68083618Y-105026295D01*
X68083618Y-105026295D02*
X68159809Y-104988200D01*
X68159809Y-104988200D02*
X68235999Y-104912009D01*
X68235999Y-104912009D02*
X68274095Y-104759628D01*
X68274095Y-104759628D02*
X68274095Y-104492961D01*
X68274095Y-104492961D02*
X68235999Y-104340580D01*
X68235999Y-104340580D02*
X68159809Y-104264390D01*
X68159809Y-104264390D02*
X68083618Y-104226295D01*
X88522627Y-54455494D02*
X88603439Y-54482431D01*
X88603439Y-54482431D02*
X88684251Y-54563243D01*
X88684251Y-54563243D02*
X88738126Y-54670993D01*
X88738126Y-54670993D02*
X88738126Y-54778742D01*
X88738126Y-54778742D02*
X88711189Y-54859555D01*
X88711189Y-54859555D02*
X88630376Y-54994242D01*
X88630376Y-54994242D02*
X88549564Y-55075054D01*
X88549564Y-55075054D02*
X88414877Y-55155866D01*
X88414877Y-55155866D02*
X88334065Y-55182803D01*
X88334065Y-55182803D02*
X88226315Y-55182803D01*
X88226315Y-55182803D02*
X88118566Y-55128929D01*
X88118566Y-55128929D02*
X88064691Y-55075054D01*
X88064691Y-55075054D02*
X88010816Y-54967304D01*
X88010816Y-54967304D02*
X88010816Y-54913429D01*
X88010816Y-54913429D02*
X88199378Y-54724868D01*
X88199378Y-54724868D02*
X88307128Y-54832617D01*
X87714505Y-54724868D02*
X88280190Y-54159182D01*
X88280190Y-54159182D02*
X88064691Y-53943683D01*
X88064691Y-53943683D02*
X87983879Y-53916746D01*
X87983879Y-53916746D02*
X87930004Y-53916746D01*
X87930004Y-53916746D02*
X87849192Y-53943683D01*
X87849192Y-53943683D02*
X87768380Y-54024495D01*
X87768380Y-54024495D02*
X87741442Y-54105307D01*
X87741442Y-54105307D02*
X87741442Y-54159182D01*
X87741442Y-54159182D02*
X87768380Y-54239994D01*
X87768380Y-54239994D02*
X87983879Y-54455494D01*
X87606755Y-53485747D02*
X87552880Y-53431872D01*
X87552880Y-53431872D02*
X87472068Y-53404935D01*
X87472068Y-53404935D02*
X87418193Y-53404935D01*
X87418193Y-53404935D02*
X87337381Y-53431872D01*
X87337381Y-53431872D02*
X87202694Y-53512685D01*
X87202694Y-53512685D02*
X87068007Y-53647372D01*
X87068007Y-53647372D02*
X86987195Y-53782059D01*
X86987195Y-53782059D02*
X86960258Y-53862871D01*
X86960258Y-53862871D02*
X86960258Y-53916746D01*
X86960258Y-53916746D02*
X86987195Y-53997558D01*
X86987195Y-53997558D02*
X87041070Y-54051433D01*
X87041070Y-54051433D02*
X87121882Y-54078370D01*
X87121882Y-54078370D02*
X87175757Y-54078370D01*
X87175757Y-54078370D02*
X87256569Y-54051433D01*
X87256569Y-54051433D02*
X87391256Y-53970620D01*
X87391256Y-53970620D02*
X87525943Y-53835933D01*
X87525943Y-53835933D02*
X87606755Y-53701246D01*
X87606755Y-53701246D02*
X87633693Y-53620434D01*
X87633693Y-53620434D02*
X87633693Y-53566559D01*
X87633693Y-53566559D02*
X87606755Y-53485747D01*
X101483819Y-69976833D02*
X101007628Y-69643500D01*
X101483819Y-69405405D02*
X100483819Y-69405405D01*
X100483819Y-69405405D02*
X100483819Y-69786357D01*
X100483819Y-69786357D02*
X100531438Y-69881595D01*
X100531438Y-69881595D02*
X100579057Y-69929214D01*
X100579057Y-69929214D02*
X100674295Y-69976833D01*
X100674295Y-69976833D02*
X100817152Y-69976833D01*
X100817152Y-69976833D02*
X100912390Y-69929214D01*
X100912390Y-69929214D02*
X100960009Y-69881595D01*
X100960009Y-69881595D02*
X101007628Y-69786357D01*
X101007628Y-69786357D02*
X101007628Y-69405405D01*
X101483819Y-70929214D02*
X101483819Y-70357786D01*
X101483819Y-70643500D02*
X100483819Y-70643500D01*
X100483819Y-70643500D02*
X100626676Y-70548262D01*
X100626676Y-70548262D02*
X100721914Y-70453024D01*
X100721914Y-70453024D02*
X100769533Y-70357786D01*
X175862819Y-79914642D02*
X175386628Y-79581309D01*
X175862819Y-79343214D02*
X174862819Y-79343214D01*
X174862819Y-79343214D02*
X174862819Y-79724166D01*
X174862819Y-79724166D02*
X174910438Y-79819404D01*
X174910438Y-79819404D02*
X174958057Y-79867023D01*
X174958057Y-79867023D02*
X175053295Y-79914642D01*
X175053295Y-79914642D02*
X175196152Y-79914642D01*
X175196152Y-79914642D02*
X175291390Y-79867023D01*
X175291390Y-79867023D02*
X175339009Y-79819404D01*
X175339009Y-79819404D02*
X175386628Y-79724166D01*
X175386628Y-79724166D02*
X175386628Y-79343214D01*
X174958057Y-80295595D02*
X174910438Y-80343214D01*
X174910438Y-80343214D02*
X174862819Y-80438452D01*
X174862819Y-80438452D02*
X174862819Y-80676547D01*
X174862819Y-80676547D02*
X174910438Y-80771785D01*
X174910438Y-80771785D02*
X174958057Y-80819404D01*
X174958057Y-80819404D02*
X175053295Y-80867023D01*
X175053295Y-80867023D02*
X175148533Y-80867023D01*
X175148533Y-80867023D02*
X175291390Y-80819404D01*
X175291390Y-80819404D02*
X175862819Y-80247976D01*
X175862819Y-80247976D02*
X175862819Y-80867023D01*
X174862819Y-81200357D02*
X174862819Y-81819404D01*
X174862819Y-81819404D02*
X175243771Y-81486071D01*
X175243771Y-81486071D02*
X175243771Y-81628928D01*
X175243771Y-81628928D02*
X175291390Y-81724166D01*
X175291390Y-81724166D02*
X175339009Y-81771785D01*
X175339009Y-81771785D02*
X175434247Y-81819404D01*
X175434247Y-81819404D02*
X175672342Y-81819404D01*
X175672342Y-81819404D02*
X175767580Y-81771785D01*
X175767580Y-81771785D02*
X175815200Y-81724166D01*
X175815200Y-81724166D02*
X175862819Y-81628928D01*
X175862819Y-81628928D02*
X175862819Y-81343214D01*
X175862819Y-81343214D02*
X175815200Y-81247976D01*
X175815200Y-81247976D02*
X175767580Y-81200357D01*
X165914819Y-91475642D02*
X165438628Y-91142309D01*
X165914819Y-90904214D02*
X164914819Y-90904214D01*
X164914819Y-90904214D02*
X164914819Y-91285166D01*
X164914819Y-91285166D02*
X164962438Y-91380404D01*
X164962438Y-91380404D02*
X165010057Y-91428023D01*
X165010057Y-91428023D02*
X165105295Y-91475642D01*
X165105295Y-91475642D02*
X165248152Y-91475642D01*
X165248152Y-91475642D02*
X165343390Y-91428023D01*
X165343390Y-91428023D02*
X165391009Y-91380404D01*
X165391009Y-91380404D02*
X165438628Y-91285166D01*
X165438628Y-91285166D02*
X165438628Y-90904214D01*
X165914819Y-92428023D02*
X165914819Y-91856595D01*
X165914819Y-92142309D02*
X164914819Y-92142309D01*
X164914819Y-92142309D02*
X165057676Y-92047071D01*
X165057676Y-92047071D02*
X165152914Y-91951833D01*
X165152914Y-91951833D02*
X165200533Y-91856595D01*
X165343390Y-92999452D02*
X165295771Y-92904214D01*
X165295771Y-92904214D02*
X165248152Y-92856595D01*
X165248152Y-92856595D02*
X165152914Y-92808976D01*
X165152914Y-92808976D02*
X165105295Y-92808976D01*
X165105295Y-92808976D02*
X165010057Y-92856595D01*
X165010057Y-92856595D02*
X164962438Y-92904214D01*
X164962438Y-92904214D02*
X164914819Y-92999452D01*
X164914819Y-92999452D02*
X164914819Y-93189928D01*
X164914819Y-93189928D02*
X164962438Y-93285166D01*
X164962438Y-93285166D02*
X165010057Y-93332785D01*
X165010057Y-93332785D02*
X165105295Y-93380404D01*
X165105295Y-93380404D02*
X165152914Y-93380404D01*
X165152914Y-93380404D02*
X165248152Y-93332785D01*
X165248152Y-93332785D02*
X165295771Y-93285166D01*
X165295771Y-93285166D02*
X165343390Y-93189928D01*
X165343390Y-93189928D02*
X165343390Y-92999452D01*
X165343390Y-92999452D02*
X165391009Y-92904214D01*
X165391009Y-92904214D02*
X165438628Y-92856595D01*
X165438628Y-92856595D02*
X165533866Y-92808976D01*
X165533866Y-92808976D02*
X165724342Y-92808976D01*
X165724342Y-92808976D02*
X165819580Y-92856595D01*
X165819580Y-92856595D02*
X165867200Y-92904214D01*
X165867200Y-92904214D02*
X165914819Y-92999452D01*
X165914819Y-92999452D02*
X165914819Y-93189928D01*
X165914819Y-93189928D02*
X165867200Y-93285166D01*
X165867200Y-93285166D02*
X165819580Y-93332785D01*
X165819580Y-93332785D02*
X165724342Y-93380404D01*
X165724342Y-93380404D02*
X165533866Y-93380404D01*
X165533866Y-93380404D02*
X165438628Y-93332785D01*
X165438628Y-93332785D02*
X165391009Y-93285166D01*
X165391009Y-93285166D02*
X165343390Y-93189928D01*
X167626857Y-77045580D02*
X167674476Y-77093200D01*
X167674476Y-77093200D02*
X167817333Y-77140819D01*
X167817333Y-77140819D02*
X167912571Y-77140819D01*
X167912571Y-77140819D02*
X168055428Y-77093200D01*
X168055428Y-77093200D02*
X168150666Y-76997961D01*
X168150666Y-76997961D02*
X168198285Y-76902723D01*
X168198285Y-76902723D02*
X168245904Y-76712247D01*
X168245904Y-76712247D02*
X168245904Y-76569390D01*
X168245904Y-76569390D02*
X168198285Y-76378914D01*
X168198285Y-76378914D02*
X168150666Y-76283676D01*
X168150666Y-76283676D02*
X168055428Y-76188438D01*
X168055428Y-76188438D02*
X167912571Y-76140819D01*
X167912571Y-76140819D02*
X167817333Y-76140819D01*
X167817333Y-76140819D02*
X167674476Y-76188438D01*
X167674476Y-76188438D02*
X167626857Y-76236057D01*
X166674476Y-77140819D02*
X167245904Y-77140819D01*
X166960190Y-77140819D02*
X166960190Y-76140819D01*
X166960190Y-76140819D02*
X167055428Y-76283676D01*
X167055428Y-76283676D02*
X167150666Y-76378914D01*
X167150666Y-76378914D02*
X167245904Y-76426533D01*
X166198285Y-77140819D02*
X166007809Y-77140819D01*
X166007809Y-77140819D02*
X165912571Y-77093200D01*
X165912571Y-77093200D02*
X165864952Y-77045580D01*
X165864952Y-77045580D02*
X165769714Y-76902723D01*
X165769714Y-76902723D02*
X165722095Y-76712247D01*
X165722095Y-76712247D02*
X165722095Y-76331295D01*
X165722095Y-76331295D02*
X165769714Y-76236057D01*
X165769714Y-76236057D02*
X165817333Y-76188438D01*
X165817333Y-76188438D02*
X165912571Y-76140819D01*
X165912571Y-76140819D02*
X166103047Y-76140819D01*
X166103047Y-76140819D02*
X166198285Y-76188438D01*
X166198285Y-76188438D02*
X166245904Y-76236057D01*
X166245904Y-76236057D02*
X166293523Y-76331295D01*
X166293523Y-76331295D02*
X166293523Y-76569390D01*
X166293523Y-76569390D02*
X166245904Y-76664628D01*
X166245904Y-76664628D02*
X166198285Y-76712247D01*
X166198285Y-76712247D02*
X166103047Y-76759866D01*
X166103047Y-76759866D02*
X165912571Y-76759866D01*
X165912571Y-76759866D02*
X165817333Y-76712247D01*
X165817333Y-76712247D02*
X165769714Y-76664628D01*
X165769714Y-76664628D02*
X165722095Y-76569390D01*
X137654857Y-68155580D02*
X137702476Y-68203200D01*
X137702476Y-68203200D02*
X137845333Y-68250819D01*
X137845333Y-68250819D02*
X137940571Y-68250819D01*
X137940571Y-68250819D02*
X138083428Y-68203200D01*
X138083428Y-68203200D02*
X138178666Y-68107961D01*
X138178666Y-68107961D02*
X138226285Y-68012723D01*
X138226285Y-68012723D02*
X138273904Y-67822247D01*
X138273904Y-67822247D02*
X138273904Y-67679390D01*
X138273904Y-67679390D02*
X138226285Y-67488914D01*
X138226285Y-67488914D02*
X138178666Y-67393676D01*
X138178666Y-67393676D02*
X138083428Y-67298438D01*
X138083428Y-67298438D02*
X137940571Y-67250819D01*
X137940571Y-67250819D02*
X137845333Y-67250819D01*
X137845333Y-67250819D02*
X137702476Y-67298438D01*
X137702476Y-67298438D02*
X137654857Y-67346057D01*
X136702476Y-68250819D02*
X137273904Y-68250819D01*
X136988190Y-68250819D02*
X136988190Y-67250819D01*
X136988190Y-67250819D02*
X137083428Y-67393676D01*
X137083428Y-67393676D02*
X137178666Y-67488914D01*
X137178666Y-67488914D02*
X137273904Y-67536533D01*
X135845333Y-67584152D02*
X135845333Y-68250819D01*
X136083428Y-67203200D02*
X136321523Y-67917485D01*
X136321523Y-67917485D02*
X135702476Y-67917485D01*
X155704857Y-69399580D02*
X155752476Y-69447200D01*
X155752476Y-69447200D02*
X155895333Y-69494819D01*
X155895333Y-69494819D02*
X155990571Y-69494819D01*
X155990571Y-69494819D02*
X156133428Y-69447200D01*
X156133428Y-69447200D02*
X156228666Y-69351961D01*
X156228666Y-69351961D02*
X156276285Y-69256723D01*
X156276285Y-69256723D02*
X156323904Y-69066247D01*
X156323904Y-69066247D02*
X156323904Y-68923390D01*
X156323904Y-68923390D02*
X156276285Y-68732914D01*
X156276285Y-68732914D02*
X156228666Y-68637676D01*
X156228666Y-68637676D02*
X156133428Y-68542438D01*
X156133428Y-68542438D02*
X155990571Y-68494819D01*
X155990571Y-68494819D02*
X155895333Y-68494819D01*
X155895333Y-68494819D02*
X155752476Y-68542438D01*
X155752476Y-68542438D02*
X155704857Y-68590057D01*
X154752476Y-69494819D02*
X155323904Y-69494819D01*
X155038190Y-69494819D02*
X155038190Y-68494819D01*
X155038190Y-68494819D02*
X155133428Y-68637676D01*
X155133428Y-68637676D02*
X155228666Y-68732914D01*
X155228666Y-68732914D02*
X155323904Y-68780533D01*
X154419142Y-68494819D02*
X153800095Y-68494819D01*
X153800095Y-68494819D02*
X154133428Y-68875771D01*
X154133428Y-68875771D02*
X153990571Y-68875771D01*
X153990571Y-68875771D02*
X153895333Y-68923390D01*
X153895333Y-68923390D02*
X153847714Y-68971009D01*
X153847714Y-68971009D02*
X153800095Y-69066247D01*
X153800095Y-69066247D02*
X153800095Y-69304342D01*
X153800095Y-69304342D02*
X153847714Y-69399580D01*
X153847714Y-69399580D02*
X153895333Y-69447200D01*
X153895333Y-69447200D02*
X153990571Y-69494819D01*
X153990571Y-69494819D02*
X154276285Y-69494819D01*
X154276285Y-69494819D02*
X154371523Y-69447200D01*
X154371523Y-69447200D02*
X154419142Y-69399580D01*
X173230857Y-84385580D02*
X173278476Y-84433200D01*
X173278476Y-84433200D02*
X173421333Y-84480819D01*
X173421333Y-84480819D02*
X173516571Y-84480819D01*
X173516571Y-84480819D02*
X173659428Y-84433200D01*
X173659428Y-84433200D02*
X173754666Y-84337961D01*
X173754666Y-84337961D02*
X173802285Y-84242723D01*
X173802285Y-84242723D02*
X173849904Y-84052247D01*
X173849904Y-84052247D02*
X173849904Y-83909390D01*
X173849904Y-83909390D02*
X173802285Y-83718914D01*
X173802285Y-83718914D02*
X173754666Y-83623676D01*
X173754666Y-83623676D02*
X173659428Y-83528438D01*
X173659428Y-83528438D02*
X173516571Y-83480819D01*
X173516571Y-83480819D02*
X173421333Y-83480819D01*
X173421333Y-83480819D02*
X173278476Y-83528438D01*
X173278476Y-83528438D02*
X173230857Y-83576057D01*
X172278476Y-84480819D02*
X172849904Y-84480819D01*
X172564190Y-84480819D02*
X172564190Y-83480819D01*
X172564190Y-83480819D02*
X172659428Y-83623676D01*
X172659428Y-83623676D02*
X172754666Y-83718914D01*
X172754666Y-83718914D02*
X172849904Y-83766533D01*
X171707047Y-83909390D02*
X171802285Y-83861771D01*
X171802285Y-83861771D02*
X171849904Y-83814152D01*
X171849904Y-83814152D02*
X171897523Y-83718914D01*
X171897523Y-83718914D02*
X171897523Y-83671295D01*
X171897523Y-83671295D02*
X171849904Y-83576057D01*
X171849904Y-83576057D02*
X171802285Y-83528438D01*
X171802285Y-83528438D02*
X171707047Y-83480819D01*
X171707047Y-83480819D02*
X171516571Y-83480819D01*
X171516571Y-83480819D02*
X171421333Y-83528438D01*
X171421333Y-83528438D02*
X171373714Y-83576057D01*
X171373714Y-83576057D02*
X171326095Y-83671295D01*
X171326095Y-83671295D02*
X171326095Y-83718914D01*
X171326095Y-83718914D02*
X171373714Y-83814152D01*
X171373714Y-83814152D02*
X171421333Y-83861771D01*
X171421333Y-83861771D02*
X171516571Y-83909390D01*
X171516571Y-83909390D02*
X171707047Y-83909390D01*
X171707047Y-83909390D02*
X171802285Y-83957009D01*
X171802285Y-83957009D02*
X171849904Y-84004628D01*
X171849904Y-84004628D02*
X171897523Y-84099866D01*
X171897523Y-84099866D02*
X171897523Y-84290342D01*
X171897523Y-84290342D02*
X171849904Y-84385580D01*
X171849904Y-84385580D02*
X171802285Y-84433200D01*
X171802285Y-84433200D02*
X171707047Y-84480819D01*
X171707047Y-84480819D02*
X171516571Y-84480819D01*
X171516571Y-84480819D02*
X171421333Y-84433200D01*
X171421333Y-84433200D02*
X171373714Y-84385580D01*
X171373714Y-84385580D02*
X171326095Y-84290342D01*
X171326095Y-84290342D02*
X171326095Y-84099866D01*
X171326095Y-84099866D02*
X171373714Y-84004628D01*
X171373714Y-84004628D02*
X171421333Y-83957009D01*
X171421333Y-83957009D02*
X171516571Y-83909390D01*
X129059904Y-48539319D02*
X129059904Y-49348842D01*
X129059904Y-49348842D02*
X129012285Y-49444080D01*
X129012285Y-49444080D02*
X128964666Y-49491700D01*
X128964666Y-49491700D02*
X128869428Y-49539319D01*
X128869428Y-49539319D02*
X128678952Y-49539319D01*
X128678952Y-49539319D02*
X128583714Y-49491700D01*
X128583714Y-49491700D02*
X128536095Y-49444080D01*
X128536095Y-49444080D02*
X128488476Y-49348842D01*
X128488476Y-49348842D02*
X128488476Y-48539319D01*
X128107523Y-48539319D02*
X127488476Y-48539319D01*
X127488476Y-48539319D02*
X127821809Y-48920271D01*
X127821809Y-48920271D02*
X127678952Y-48920271D01*
X127678952Y-48920271D02*
X127583714Y-48967890D01*
X127583714Y-48967890D02*
X127536095Y-49015509D01*
X127536095Y-49015509D02*
X127488476Y-49110747D01*
X127488476Y-49110747D02*
X127488476Y-49348842D01*
X127488476Y-49348842D02*
X127536095Y-49444080D01*
X127536095Y-49444080D02*
X127583714Y-49491700D01*
X127583714Y-49491700D02*
X127678952Y-49539319D01*
X127678952Y-49539319D02*
X127964666Y-49539319D01*
X127964666Y-49539319D02*
X128059904Y-49491700D01*
X128059904Y-49491700D02*
X128107523Y-49444080D01*
D11*
%TO.C,C9*%
X133602000Y-73911000D02*
X139357563Y-73911000D01*
X133602000Y-76261000D02*
X133602000Y-73911000D01*
X133602000Y-78381000D02*
X133602000Y-80731000D01*
X133602000Y-80731000D02*
X139357563Y-80731000D01*
X139357563Y-73911000D02*
X140422000Y-74975437D01*
X139357563Y-80731000D02*
X140422000Y-79666563D01*
X140422000Y-76261000D02*
X140422000Y-74975437D01*
X140422000Y-78381000D02*
X140422000Y-79666563D01*
X140662000Y-75473500D02*
X141449500Y-75473500D01*
X141055750Y-75867250D02*
X141055750Y-75079750D01*
%TO.C,R2*%
X145871436Y-87841000D02*
X147325564Y-87841000D01*
X145871436Y-89661000D02*
X147325564Y-89661000D01*
%TO.C,C6*%
X52790000Y-75212748D02*
X52790000Y-76635252D01*
X54610000Y-75212748D02*
X54610000Y-76635252D01*
%TO.C,R27*%
X169884000Y-81284564D02*
X169884000Y-79830436D01*
X171704000Y-81284564D02*
X171704000Y-79830436D01*
%TO.C,R19*%
X138374064Y-69426000D02*
X136919936Y-69426000D01*
X138374064Y-71246000D02*
X136919936Y-71246000D01*
%TO.C,C23*%
X168534000Y-71886000D02*
X168534000Y-75341563D01*
X168534000Y-75341563D02*
X169598437Y-76406000D01*
X169734000Y-71886000D02*
X168534000Y-71886000D01*
X169734000Y-76406000D02*
X169598437Y-76406000D01*
X171854000Y-71886000D02*
X173054000Y-71886000D01*
X171854000Y-76406000D02*
X171989563Y-76406000D01*
X172104000Y-76896000D02*
X172604000Y-76896000D01*
X172354000Y-76646000D02*
X172354000Y-77146000D01*
X173054000Y-71886000D02*
X173054000Y-75341563D01*
X173054000Y-75341563D02*
X171989563Y-76406000D01*
%TO.C,R22*%
X163147436Y-83650000D02*
X164601564Y-83650000D01*
X163147436Y-85470000D02*
X164601564Y-85470000D01*
%TO.C,C12*%
X163674748Y-86365000D02*
X164197252Y-86365000D01*
X163674748Y-87835000D02*
X164197252Y-87835000D01*
%TO.C,R7*%
X110392936Y-81846000D02*
X111847064Y-81846000D01*
X110392936Y-83666000D02*
X111847064Y-83666000D01*
%TO.C,C22*%
X154311000Y-66010748D02*
X154311000Y-66533252D01*
X155781000Y-66010748D02*
X155781000Y-66533252D01*
%TO.C,C5*%
X57616000Y-54433748D02*
X57616000Y-55856252D01*
X59436000Y-54433748D02*
X59436000Y-55856252D01*
%TO.C,R21*%
X157874936Y-81110000D02*
X159329064Y-81110000D01*
X157874936Y-82930000D02*
X159329064Y-82930000D01*
%TO.C,C1*%
X115838000Y-50946437D02*
X116902437Y-49882000D01*
X115838000Y-56702000D02*
X115838000Y-50946437D01*
X117400500Y-49642000D02*
X117400500Y-48854500D01*
X117794250Y-49248250D02*
X117006750Y-49248250D01*
X118188000Y-49882000D02*
X116902437Y-49882000D01*
X118188000Y-56702000D02*
X115838000Y-56702000D01*
X120308000Y-49882000D02*
X121593563Y-49882000D01*
X120308000Y-56702000D02*
X122658000Y-56702000D01*
X122658000Y-50946437D02*
X121593563Y-49882000D01*
X122658000Y-56702000D02*
X122658000Y-50946437D01*
%TO.C,R29*%
X156946000Y-68882436D02*
X156946000Y-70336564D01*
X158766000Y-68882436D02*
X158766000Y-70336564D01*
%TO.C,R16*%
X165312000Y-109224564D02*
X165312000Y-107770436D01*
X167132000Y-109224564D02*
X167132000Y-107770436D01*
%TO.C,U2*%
X143075000Y-63866000D02*
X143075000Y-84426000D01*
X143075000Y-84426000D02*
X153575000Y-84426000D01*
X146075000Y-63926000D02*
X146075000Y-84366000D01*
X146075000Y-84366000D02*
X147325000Y-84366000D01*
X149325000Y-84366000D02*
X150575000Y-84366000D01*
X150575000Y-63926000D02*
X146075000Y-63926000D01*
X150575000Y-84366000D02*
X150575000Y-63926000D01*
X153575000Y-63866000D02*
X143075000Y-63866000D01*
X153575000Y-84426000D02*
X153575000Y-63866000D01*
X147325000Y-84366000D02*
G75*
G02*
X149325000Y-84366000I1000000J0D01*
G01*
%TO.C,R4*%
X92160000Y-85795064D02*
X92160000Y-84340936D01*
X93980000Y-85795064D02*
X93980000Y-84340936D01*
%TO.C,C21*%
X162202000Y-81806000D02*
X162202000Y-82306000D01*
X162452000Y-82056000D02*
X161952000Y-82056000D01*
X162692000Y-79436000D02*
X162692000Y-79300437D01*
X162692000Y-81556000D02*
X162692000Y-81691563D01*
X163756437Y-78236000D02*
X162692000Y-79300437D01*
X163756437Y-82756000D02*
X162692000Y-81691563D01*
X167212000Y-78236000D02*
X163756437Y-78236000D01*
X167212000Y-79436000D02*
X167212000Y-78236000D01*
X167212000Y-81556000D02*
X167212000Y-82756000D01*
X167212000Y-82756000D02*
X163756437Y-82756000D01*
%TO.C,R12*%
X122584936Y-81846000D02*
X124039064Y-81846000D01*
X122584936Y-83666000D02*
X124039064Y-83666000D01*
%TO.C,C7*%
X147375252Y-85428000D02*
X145952748Y-85428000D01*
X147375252Y-87248000D02*
X145952748Y-87248000D01*
%TO.C,C8*%
X123315000Y-73911000D02*
X129070563Y-73911000D01*
X123315000Y-76261000D02*
X123315000Y-73911000D01*
X123315000Y-78381000D02*
X123315000Y-80731000D01*
X123315000Y-80731000D02*
X129070563Y-80731000D01*
X129070563Y-73911000D02*
X130135000Y-74975437D01*
X129070563Y-80731000D02*
X130135000Y-79666563D01*
X130135000Y-76261000D02*
X130135000Y-74975437D01*
X130135000Y-78381000D02*
X130135000Y-79666563D01*
X130375000Y-75473500D02*
X131162500Y-75473500D01*
X130768750Y-75867250D02*
X130768750Y-75079750D01*
%TO.C,R17*%
X148929000Y-92276436D02*
X148929000Y-93730564D01*
X150749000Y-92276436D02*
X150749000Y-93730564D01*
%TO.C,R11*%
X129498000Y-107647436D02*
X129498000Y-109101564D01*
X131318000Y-107647436D02*
X131318000Y-109101564D01*
%TO.C,R5*%
X56092000Y-85795064D02*
X56092000Y-84340936D01*
X57912000Y-85795064D02*
X57912000Y-84340936D01*
%TO.C,C11*%
X154311000Y-81483248D02*
X154311000Y-82005752D01*
X155781000Y-81483248D02*
X155781000Y-82005752D01*
%TO.C,R9*%
X57362000Y-108024436D02*
X57362000Y-109478564D01*
X59182000Y-108024436D02*
X59182000Y-109478564D01*
%TO.C,C16*%
X163943252Y-73665000D02*
X163420748Y-73665000D01*
X163943252Y-75135000D02*
X163420748Y-75135000D01*
%TO.C,R8*%
X116472936Y-81846000D02*
X117927064Y-81846000D01*
X116472936Y-83666000D02*
X117927064Y-83666000D01*
%TO.C,C17*%
X161936000Y-90145000D02*
X164821000Y-90145000D01*
X164821000Y-88575000D02*
X161936000Y-88575000D01*
X164821000Y-90145000D02*
X164821000Y-88575000D01*
%TO.C,R25*%
X159329064Y-76030000D02*
X157874936Y-76030000D01*
X159329064Y-77850000D02*
X157874936Y-77850000D01*
%TO.C,C2*%
X95208000Y-84356748D02*
X95208000Y-85779252D01*
X97028000Y-84356748D02*
X97028000Y-85779252D01*
%TO.C,C15*%
X140052748Y-64521000D02*
X140575252Y-64521000D01*
X140052748Y-65991000D02*
X140575252Y-65991000D01*
%TO.C,R3*%
X130006000Y-88851436D02*
X130006000Y-90305564D01*
X131826000Y-88851436D02*
X131826000Y-90305564D01*
%TO.C,R28*%
X96021564Y-58758000D02*
X94567436Y-58758000D01*
X96021564Y-60578000D02*
X94567436Y-60578000D01*
%TO.C,R24*%
X157874936Y-78570000D02*
X159329064Y-78570000D01*
X157874936Y-80390000D02*
X159329064Y-80390000D01*
%TO.C,C4*%
X59394000Y-76635252D02*
X59394000Y-75212748D01*
X61214000Y-76635252D02*
X61214000Y-75212748D01*
%TO.C,R6*%
X56092000Y-75196936D02*
X56092000Y-76651064D01*
X57912000Y-75196936D02*
X57912000Y-76651064D01*
%TO.C,R20*%
X157874936Y-83650000D02*
X159329064Y-83650000D01*
X157874936Y-85470000D02*
X159329064Y-85470000D01*
%TO.C,C3*%
X59394000Y-84356748D02*
X59394000Y-85779252D01*
X61214000Y-84356748D02*
X61214000Y-85779252D01*
%TO.C,R10*%
X93430000Y-107770436D02*
X93430000Y-109224564D01*
X95250000Y-107770436D02*
X95250000Y-109224564D01*
%TO.C,C10*%
X132178748Y-58171000D02*
X132701252Y-58171000D01*
X132178748Y-59641000D02*
X132701252Y-59641000D01*
%TO.C,C20*%
X154311000Y-76170748D02*
X154311000Y-76693252D01*
X155781000Y-76170748D02*
X155781000Y-76693252D01*
%TO.C,R26*%
X159329064Y-73490000D02*
X157874936Y-73490000D01*
X159329064Y-75310000D02*
X157874936Y-75310000D01*
%TO.C,A1*%
X64536000Y-52964000D02*
X85536000Y-52964000D01*
X64536000Y-53264000D02*
X64536000Y-52964000D01*
X64536000Y-55764000D02*
X64536000Y-55364000D01*
X64536000Y-58364000D02*
X64536000Y-57964000D01*
X64536000Y-60864000D02*
X64536000Y-60464000D01*
X64536000Y-63464000D02*
X64536000Y-63064000D01*
X64536000Y-65964000D02*
X64536000Y-65564000D01*
X64536000Y-68464000D02*
X64536000Y-68064000D01*
X64536000Y-71064000D02*
X64536000Y-70664000D01*
X64536000Y-73564000D02*
X64536000Y-73164000D01*
X64536000Y-76164000D02*
X64536000Y-75764000D01*
X64536000Y-78664000D02*
X64536000Y-78264000D01*
X64536000Y-81164000D02*
X64536000Y-80764000D01*
X64536000Y-83764000D02*
X64536000Y-83364000D01*
X64536000Y-86264000D02*
X64536000Y-85864000D01*
X64536000Y-88864000D02*
X64536000Y-88464000D01*
X64536000Y-91364000D02*
X64536000Y-90964000D01*
X64536000Y-93964000D02*
X64536000Y-93564000D01*
X64536000Y-96464000D02*
X64536000Y-96064000D01*
X64536000Y-98964000D02*
X64536000Y-98564000D01*
X64536000Y-101564000D02*
X64536000Y-101164000D01*
X71336000Y-103964000D02*
X64536000Y-103964000D01*
X73536000Y-103964000D02*
X73936000Y-103964000D01*
X76136000Y-103964000D02*
X76536000Y-103964000D01*
X82529000Y-52964000D02*
X82529000Y-55631000D01*
X82529000Y-55631000D02*
X85536000Y-55631000D01*
X85536000Y-53264000D02*
X85536000Y-52964000D01*
X85536000Y-55764000D02*
X85536000Y-55364000D01*
X85536000Y-58364000D02*
X85536000Y-57964000D01*
X85536000Y-60864000D02*
X85536000Y-60464000D01*
X85536000Y-63464000D02*
X85536000Y-63064000D01*
X85536000Y-65964000D02*
X85536000Y-65564000D01*
X85536000Y-68464000D02*
X85536000Y-68064000D01*
X85536000Y-71064000D02*
X85536000Y-70664000D01*
X85536000Y-73564000D02*
X85536000Y-73164000D01*
X85536000Y-76164000D02*
X85536000Y-75764000D01*
X85536000Y-78664000D02*
X85536000Y-78264000D01*
X85536000Y-81164000D02*
X85536000Y-80764000D01*
X85536000Y-83764000D02*
X85536000Y-83364000D01*
X85536000Y-86264000D02*
X85536000Y-85864000D01*
X85536000Y-88864000D02*
X85536000Y-88464000D01*
X85536000Y-91364000D02*
X85536000Y-90964000D01*
X85536000Y-93964000D02*
X85536000Y-93564000D01*
X85536000Y-96464000D02*
X85536000Y-96064000D01*
X85536000Y-98964000D02*
X85536000Y-98564000D01*
X85536000Y-101564000D02*
X85536000Y-101164000D01*
X85536000Y-103964000D02*
X78736000Y-103964000D01*
%TO.C,R1*%
X101939000Y-70870564D02*
X101939000Y-69416436D01*
X103759000Y-70870564D02*
X103759000Y-69416436D01*
%TO.C,R23*%
X172678000Y-79830436D02*
X172678000Y-81284564D01*
X174498000Y-79830436D02*
X174498000Y-81284564D01*
%TO.C,R18*%
X166328000Y-91391436D02*
X166328000Y-92845564D01*
X168148000Y-91391436D02*
X168148000Y-92845564D01*
%TO.C,C19*%
X163943252Y-75951000D02*
X163420748Y-75951000D01*
X163943252Y-77421000D02*
X163420748Y-77421000D01*
%TO.C,C14*%
X140052748Y-67061000D02*
X140575252Y-67061000D01*
X140052748Y-68531000D02*
X140575252Y-68531000D01*
%TO.C,C13*%
X154311000Y-71634752D02*
X154311000Y-71112248D01*
X155781000Y-71634752D02*
X155781000Y-71112248D01*
%TO.C,C18*%
X167131000Y-83775000D02*
X167131000Y-85345000D01*
X167131000Y-85345000D02*
X170016000Y-85345000D01*
X170016000Y-83775000D02*
X167131000Y-83775000D01*
%TO.C,U3*%
X131608000Y-50134500D02*
X125188000Y-50134500D01*
X131608000Y-50404500D02*
X131608000Y-50134500D01*
X131608000Y-56764500D02*
X131608000Y-57034500D01*
X131608000Y-57034500D02*
X125188000Y-57034500D01*
X133023000Y-50424500D02*
X132783000Y-50094500D01*
X133263000Y-50094500D01*
X133023000Y-50424500D01*
G36*
X133023000Y-50424500D02*
G01*
X132783000Y-50094500D01*
X133263000Y-50094500D01*
X133023000Y-50424500D01*
G37*
%TD*%
M02*
