%TF.GenerationSoftware,KiCad,Pcbnew,8.0.5*%
%TF.CreationDate,2024-11-14T16:27:45+01:00*%
%TF.ProjectId,VCO_RPIpico,56434f5f-5250-4497-9069-636f2e6b6963,0*%
%TF.SameCoordinates,Original*%
%TF.FileFunction,Soldermask,Bot*%
%TF.FilePolarity,Negative*%
%FSLAX46Y46*%
G04 Gerber Fmt 4.6, Leading zero omitted, Abs format (unit mm)*
G04 Created by KiCad (PCBNEW 8.0.5) date 2024-11-14 16:27:45*
%MOMM*%
%LPD*%
G01*
G04 APERTURE LIST*
G04 Aperture macros list*
%AMRoundRect*
0 Rectangle with rounded corners*
0 $1 Rounding radius*
0 $2 $3 $4 $5 $6 $7 $8 $9 X,Y pos of 4 corners*
0 Add a 4 corners polygon primitive as box body*
4,1,4,$2,$3,$4,$5,$6,$7,$8,$9,$2,$3,0*
0 Add four circle primitives for the rounded corners*
1,1,$1+$1,$2,$3*
1,1,$1+$1,$4,$5*
1,1,$1+$1,$6,$7*
1,1,$1+$1,$8,$9*
0 Add four rect primitives between the rounded corners*
20,1,$1+$1,$2,$3,$4,$5,0*
20,1,$1+$1,$4,$5,$6,$7,0*
20,1,$1+$1,$6,$7,$8,$9,0*
20,1,$1+$1,$8,$9,$2,$3,0*%
%AMOutline4P*
0 Free polygon, 4 corners , with rotation*
0 The origin of the aperture is its center*
0 number of corners: always 4*
0 $1 to $8 corner X, Y*
0 $9 Rotation angle, in degrees counterclockwise*
0 create outline with 4 corners*
4,1,4,$1,$2,$3,$4,$5,$6,$7,$8,$1,$2,$9*%
G04 Aperture macros list end*
%ADD10R,1.800000X1.800000*%
%ADD11C,1.800000*%
%ADD12RoundRect,0.750000X0.750000X-1.250000X0.750000X1.250000X-0.750000X1.250000X-0.750000X-1.250000X0*%
%ADD13C,2.000000*%
%ADD14O,2.200000X4.000000*%
%ADD15O,4.000000X2.200000*%
%ADD16R,2.200000X4.000000*%
%ADD17R,4.600000X2.000000*%
%ADD18O,4.200000X2.000000*%
%ADD19O,2.000000X4.200000*%
%ADD20RoundRect,0.250000X1.500000X0.550000X-1.500000X0.550000X-1.500000X-0.550000X1.500000X-0.550000X0*%
%ADD21RoundRect,0.250000X0.312500X0.625000X-0.312500X0.625000X-0.312500X-0.625000X0.312500X-0.625000X0*%
%ADD22RoundRect,0.250000X0.650000X-0.325000X0.650000X0.325000X-0.650000X0.325000X-0.650000X-0.325000X0*%
%ADD23RoundRect,0.250000X-0.625000X0.312500X-0.625000X-0.312500X0.625000X-0.312500X0.625000X0.312500X0*%
%ADD24RoundRect,0.250000X-0.312500X-0.625000X0.312500X-0.625000X0.312500X0.625000X-0.312500X0.625000X0*%
%ADD25RoundRect,0.250000X0.550000X-1.050000X0.550000X1.050000X-0.550000X1.050000X-0.550000X-1.050000X0*%
%ADD26RoundRect,0.250000X0.337500X0.475000X-0.337500X0.475000X-0.337500X-0.475000X0.337500X-0.475000X0*%
%ADD27RoundRect,0.250000X0.475000X-0.337500X0.475000X0.337500X-0.475000X0.337500X-0.475000X-0.337500X0*%
%ADD28RoundRect,0.250000X0.550000X-1.500000X0.550000X1.500000X-0.550000X1.500000X-0.550000X-1.500000X0*%
%ADD29RoundRect,0.250000X0.625000X-0.312500X0.625000X0.312500X-0.625000X0.312500X-0.625000X-0.312500X0*%
%ADD30R,2.400000X1.600000*%
%ADD31O,2.400000X1.600000*%
%ADD32RoundRect,0.250000X-1.050000X-0.550000X1.050000X-0.550000X1.050000X0.550000X-1.050000X0.550000X0*%
%ADD33RoundRect,0.250000X-0.325000X-0.650000X0.325000X-0.650000X0.325000X0.650000X-0.325000X0.650000X0*%
%ADD34RoundRect,0.250000X-0.337500X-0.475000X0.337500X-0.475000X0.337500X0.475000X-0.337500X0.475000X0*%
%ADD35RoundRect,0.250000X0.400000X0.275000X-0.400000X0.275000X-0.400000X-0.275000X0.400000X-0.275000X0*%
%ADD36RoundRect,0.250000X-0.650000X0.325000X-0.650000X-0.325000X0.650000X-0.325000X0.650000X0.325000X0*%
%ADD37RoundRect,0.250000X-0.475000X0.337500X-0.475000X-0.337500X0.475000X-0.337500X0.475000X0.337500X0*%
%ADD38O,1.800000X1.800000*%
%ADD39O,1.500000X1.500000*%
%ADD40O,1.700000X1.700000*%
%ADD41R,3.500000X1.700000*%
%ADD42R,1.700000X1.700000*%
%ADD43R,1.700000X3.500000*%
%ADD44Outline4P,-1.800000X-1.150000X1.800000X-0.550000X1.800000X0.550000X-1.800000X1.150000X180.000000*%
%ADD45Outline4P,-1.800000X-1.150000X1.800000X-0.550000X1.800000X0.550000X-1.800000X1.150000X0.000000*%
%ADD46RoundRect,0.250000X-0.400000X-0.275000X0.400000X-0.275000X0.400000X0.275000X-0.400000X0.275000X0*%
%ADD47RoundRect,0.250000X-0.850000X-0.350000X0.850000X-0.350000X0.850000X0.350000X-0.850000X0.350000X0*%
%ADD48RoundRect,0.249997X-2.950003X-2.650003X2.950003X-2.650003X2.950003X2.650003X-2.950003X2.650003X0*%
G04 APERTURE END LIST*
D10*
%TO.C,D6*%
X127736000Y-113008000D03*
D11*
X130276000Y-113008000D03*
%TD*%
D10*
%TO.C,R14*%
X54500000Y-101450000D03*
D11*
X57000000Y-101450000D03*
X59500000Y-101450000D03*
D12*
X52600000Y-94450000D03*
X61400000Y-94450000D03*
%TD*%
D13*
%TO.C,SW4*%
X125750000Y-121750000D03*
X132250000Y-121750000D03*
X125750000Y-126250000D03*
X132250000Y-126250000D03*
%TD*%
%TO.C,SW6*%
X53750000Y-121750000D03*
X60250000Y-121750000D03*
X53750000Y-126250000D03*
X60250000Y-126250000D03*
%TD*%
D10*
%TO.C,D10*%
X121269000Y-87000000D03*
D11*
X118729000Y-87000000D03*
%TD*%
D10*
%TO.C,D7*%
X163677000Y-113008000D03*
D11*
X166217000Y-113008000D03*
%TD*%
D10*
%TO.C,D1*%
X142351000Y-87000000D03*
D11*
X139811000Y-87000000D03*
%TD*%
D13*
%TO.C,sw9*%
X62100000Y-120200000D03*
X51940000Y-120200000D03*
X62100000Y-127820000D03*
X51940000Y-127820000D03*
D11*
X51412000Y-122740000D03*
X62588000Y-125280000D03*
%TD*%
D10*
%TO.C,D11*%
X127365000Y-87000000D03*
D11*
X124825000Y-87000000D03*
%TD*%
D10*
%TO.C,RV5*%
X90500000Y-71450000D03*
D11*
X93000000Y-71450000D03*
X95500000Y-71450000D03*
D12*
X88600000Y-64450000D03*
X97400000Y-64450000D03*
%TD*%
D13*
%TO.C,sw10*%
X98100000Y-120200000D03*
X87940000Y-120200000D03*
X98100000Y-127820000D03*
X87940000Y-127820000D03*
D11*
X87412000Y-122740000D03*
X98588000Y-125280000D03*
%TD*%
D13*
%TO.C,sw12*%
X170100000Y-120200000D03*
X159940000Y-120200000D03*
X170100000Y-127820000D03*
X159940000Y-127820000D03*
D11*
X159412000Y-122740000D03*
X170588000Y-125280000D03*
%TD*%
D10*
%TO.C,RV4*%
X126500000Y-71450000D03*
D11*
X129000000Y-71450000D03*
X131500000Y-71450000D03*
D12*
X124600000Y-64450000D03*
X133400000Y-64450000D03*
%TD*%
D13*
%TO.C,sw11*%
X134100000Y-120200000D03*
X123940000Y-120200000D03*
X134100000Y-127820000D03*
X123940000Y-127820000D03*
D11*
X123412000Y-122740000D03*
X134588000Y-125280000D03*
%TD*%
D14*
%TO.C,J1*%
X156492000Y-58356000D03*
X153792000Y-57156000D03*
D15*
X151292000Y-50356000D03*
D16*
X146692000Y-54256000D03*
D15*
X147192000Y-61556000D03*
%TD*%
D10*
%TO.C,D8*%
X115173000Y-87000000D03*
D11*
X112633000Y-87000000D03*
%TD*%
D10*
%TO.C,R13*%
X90500000Y-101450000D03*
D11*
X93000000Y-101450000D03*
X95500000Y-101450000D03*
D12*
X88600000Y-94450000D03*
X97400000Y-94450000D03*
%TD*%
D10*
%TO.C,D9*%
X175366000Y-87000000D03*
D11*
X172826000Y-87000000D03*
%TD*%
D10*
%TO.C,R15*%
X54500000Y-71450000D03*
D11*
X57000000Y-71450000D03*
X59500000Y-71450000D03*
D12*
X52600000Y-64450000D03*
X61400000Y-64450000D03*
%TD*%
D13*
%TO.C,SW7*%
X177250000Y-96250000D03*
X170750000Y-96250000D03*
X177250000Y-91750000D03*
X170750000Y-91750000D03*
%TD*%
%TO.C,SW3*%
X161750000Y-121750000D03*
X168250000Y-121750000D03*
X161750000Y-126250000D03*
X168250000Y-126250000D03*
%TD*%
%TO.C,SW5*%
X89750000Y-121750000D03*
X96250000Y-121750000D03*
X89750000Y-126250000D03*
X96250000Y-126250000D03*
%TD*%
%TO.C,SW2*%
X123250000Y-96250000D03*
X116750000Y-96250000D03*
X123250000Y-91750000D03*
X116750000Y-91750000D03*
%TD*%
D10*
%TO.C,D5*%
X91795000Y-113008000D03*
D11*
X94335000Y-113008000D03*
%TD*%
D10*
%TO.C,D3*%
X157332000Y-87000000D03*
D11*
X154792000Y-87000000D03*
%TD*%
D10*
%TO.C,D4*%
X55727000Y-113008000D03*
D11*
X58267000Y-113008000D03*
%TD*%
D17*
%TO.C,J2*%
X117216000Y-62420000D03*
D18*
X117216000Y-56120000D03*
D19*
X112416000Y-59520000D03*
%TD*%
D13*
%TO.C,SW1*%
X141250000Y-96250000D03*
X134750000Y-96250000D03*
X141250000Y-91750000D03*
X134750000Y-91750000D03*
%TD*%
D10*
%TO.C,D2*%
X136255000Y-87000000D03*
D11*
X133715000Y-87000000D03*
%TD*%
D13*
%TO.C,SW8*%
X159250000Y-96250000D03*
X152750000Y-96250000D03*
X159250000Y-91750000D03*
X152750000Y-91750000D03*
%TD*%
D10*
%TO.C,RV6*%
X162500000Y-71450000D03*
D11*
X165000000Y-71450000D03*
X167500000Y-71450000D03*
D12*
X160600000Y-64450000D03*
X169400000Y-64450000D03*
%TD*%
D20*
%TO.C,C9*%
X139812000Y-77321000D03*
X134212000Y-77321000D03*
%TD*%
D21*
%TO.C,R2*%
X148061000Y-88751000D03*
X145136000Y-88751000D03*
%TD*%
D22*
%TO.C,C6*%
X53700000Y-77399000D03*
X53700000Y-74449000D03*
%TD*%
D23*
%TO.C,R27*%
X170794000Y-79095000D03*
X170794000Y-82020000D03*
%TD*%
D24*
%TO.C,R19*%
X136184500Y-70336000D03*
X139109500Y-70336000D03*
%TD*%
D25*
%TO.C,C23*%
X170794000Y-75946000D03*
X170794000Y-72346000D03*
%TD*%
D21*
%TO.C,R22*%
X165337000Y-84560000D03*
X162412000Y-84560000D03*
%TD*%
D26*
%TO.C,C12*%
X164973500Y-87100000D03*
X162898500Y-87100000D03*
%TD*%
D21*
%TO.C,R7*%
X112582500Y-82756000D03*
X109657500Y-82756000D03*
%TD*%
D27*
%TO.C,C22*%
X155046000Y-67309500D03*
X155046000Y-65234500D03*
%TD*%
D22*
%TO.C,C5*%
X58526000Y-56620000D03*
X58526000Y-53670000D03*
%TD*%
D21*
%TO.C,R21*%
X160064500Y-82020000D03*
X157139500Y-82020000D03*
%TD*%
D28*
%TO.C,C1*%
X139314000Y-57754000D03*
X139314000Y-52354000D03*
%TD*%
D29*
%TO.C,R29*%
X157856000Y-71072000D03*
X157856000Y-68147000D03*
%TD*%
D23*
%TO.C,R16*%
X166222000Y-107035000D03*
X166222000Y-109960000D03*
%TD*%
D30*
%TO.C,U2*%
X144515000Y-83036000D03*
D31*
X144515000Y-80496000D03*
X144515000Y-77956000D03*
X144515000Y-75416000D03*
X144515000Y-72876000D03*
X144515000Y-70336000D03*
X144515000Y-67796000D03*
X144515000Y-65256000D03*
X152135000Y-65256000D03*
X152135000Y-67796000D03*
X152135000Y-70336000D03*
X152135000Y-72876000D03*
X152135000Y-75416000D03*
X152135000Y-77956000D03*
X152135000Y-80496000D03*
X152135000Y-83036000D03*
%TD*%
D23*
%TO.C,R4*%
X93070000Y-83605500D03*
X93070000Y-86530500D03*
%TD*%
D32*
%TO.C,C21*%
X163152000Y-80496000D03*
X166752000Y-80496000D03*
%TD*%
D21*
%TO.C,R12*%
X124774500Y-82756000D03*
X121849500Y-82756000D03*
%TD*%
D33*
%TO.C,C7*%
X145189000Y-86338000D03*
X148139000Y-86338000D03*
%TD*%
D20*
%TO.C,C8*%
X129425000Y-77321000D03*
X124025000Y-77321000D03*
%TD*%
D29*
%TO.C,R17*%
X149839000Y-94466000D03*
X149839000Y-91541000D03*
%TD*%
%TO.C,R11*%
X130408000Y-109837000D03*
X130408000Y-106912000D03*
%TD*%
D23*
%TO.C,R5*%
X57002000Y-83605500D03*
X57002000Y-86530500D03*
%TD*%
D27*
%TO.C,C11*%
X155046000Y-82782000D03*
X155046000Y-80707000D03*
%TD*%
D29*
%TO.C,R9*%
X58272000Y-110214000D03*
X58272000Y-107289000D03*
%TD*%
D34*
%TO.C,C16*%
X162644500Y-74400000D03*
X164719500Y-74400000D03*
%TD*%
D21*
%TO.C,R8*%
X118662500Y-82756000D03*
X115737500Y-82756000D03*
%TD*%
D35*
%TO.C,C17*%
X163911000Y-89360000D03*
X161961000Y-89360000D03*
%TD*%
D24*
%TO.C,R25*%
X157139500Y-76940000D03*
X160064500Y-76940000D03*
%TD*%
D22*
%TO.C,C2*%
X96118000Y-86543000D03*
X96118000Y-83593000D03*
%TD*%
D26*
%TO.C,C15*%
X141351500Y-65256000D03*
X139276500Y-65256000D03*
%TD*%
D29*
%TO.C,R3*%
X130916000Y-91041000D03*
X130916000Y-88116000D03*
%TD*%
D24*
%TO.C,R28*%
X93832000Y-59668000D03*
X96757000Y-59668000D03*
%TD*%
D21*
%TO.C,R24*%
X160064500Y-79480000D03*
X157139500Y-79480000D03*
%TD*%
D36*
%TO.C,C4*%
X60304000Y-74449000D03*
X60304000Y-77399000D03*
%TD*%
D29*
%TO.C,R6*%
X57002000Y-77386500D03*
X57002000Y-74461500D03*
%TD*%
D21*
%TO.C,R20*%
X160064500Y-84560000D03*
X157139500Y-84560000D03*
%TD*%
D22*
%TO.C,C3*%
X60304000Y-86543000D03*
X60304000Y-83593000D03*
%TD*%
D29*
%TO.C,R10*%
X94340000Y-109960000D03*
X94340000Y-107035000D03*
%TD*%
D37*
%TO.C,C10*%
X110104000Y-52471000D03*
X110104000Y-54546000D03*
%TD*%
D27*
%TO.C,C20*%
X155046000Y-77469500D03*
X155046000Y-75394500D03*
%TD*%
D24*
%TO.C,R26*%
X157139500Y-74400000D03*
X160064500Y-74400000D03*
%TD*%
D38*
%TO.C,A1*%
X77761000Y-54464000D03*
D39*
X77461000Y-57494000D03*
X72611000Y-57494000D03*
D38*
X72311000Y-54464000D03*
D40*
X83926000Y-54334000D03*
D41*
X84826000Y-54334000D03*
D40*
X83926000Y-56874000D03*
D41*
X84826000Y-56874000D03*
D42*
X83926000Y-59414000D03*
D41*
X84826000Y-59414000D03*
D40*
X83926000Y-61954000D03*
D41*
X84826000Y-61954000D03*
D40*
X83926000Y-64494000D03*
D41*
X84826000Y-64494000D03*
D40*
X83926000Y-67034000D03*
D41*
X84826000Y-67034000D03*
D40*
X83926000Y-69574000D03*
D41*
X84826000Y-69574000D03*
D42*
X83926000Y-72114000D03*
D41*
X84826000Y-72114000D03*
D40*
X83926000Y-74654000D03*
D41*
X84826000Y-74654000D03*
D40*
X83926000Y-77194000D03*
D41*
X84826000Y-77194000D03*
D40*
X83926000Y-79734000D03*
D41*
X84826000Y-79734000D03*
D40*
X83926000Y-82274000D03*
D41*
X84826000Y-82274000D03*
D42*
X83926000Y-84814000D03*
D41*
X84826000Y-84814000D03*
D40*
X83926000Y-87354000D03*
D41*
X84826000Y-87354000D03*
D40*
X83926000Y-89894000D03*
D41*
X84826000Y-89894000D03*
D40*
X83926000Y-92434000D03*
D41*
X84826000Y-92434000D03*
D40*
X83926000Y-94974000D03*
D41*
X84826000Y-94974000D03*
D42*
X83926000Y-97514000D03*
D41*
X84826000Y-97514000D03*
D40*
X83926000Y-100054000D03*
D41*
X84826000Y-100054000D03*
D40*
X83926000Y-102594000D03*
D41*
X84826000Y-102594000D03*
D40*
X66146000Y-102594000D03*
D41*
X65246000Y-102594000D03*
D40*
X66146000Y-100054000D03*
D41*
X65246000Y-100054000D03*
D42*
X66146000Y-97514000D03*
D41*
X65246000Y-97514000D03*
D40*
X66146000Y-94974000D03*
D41*
X65246000Y-94974000D03*
D40*
X66146000Y-92434000D03*
D41*
X65246000Y-92434000D03*
D40*
X66146000Y-89894000D03*
D41*
X65246000Y-89894000D03*
D40*
X66146000Y-87354000D03*
D41*
X65246000Y-87354000D03*
D42*
X66146000Y-84814000D03*
D41*
X65246000Y-84814000D03*
D40*
X66146000Y-82274000D03*
D41*
X65246000Y-82274000D03*
D40*
X66146000Y-79734000D03*
D41*
X65246000Y-79734000D03*
D40*
X66146000Y-77194000D03*
D41*
X65246000Y-77194000D03*
D40*
X66146000Y-74654000D03*
D41*
X65246000Y-74654000D03*
D42*
X66146000Y-72114000D03*
D41*
X65246000Y-72114000D03*
D40*
X66146000Y-69574000D03*
D41*
X65246000Y-69574000D03*
D40*
X66146000Y-67034000D03*
D41*
X65246000Y-67034000D03*
D40*
X66146000Y-64494000D03*
D41*
X65246000Y-64494000D03*
D40*
X66146000Y-61954000D03*
D41*
X65246000Y-61954000D03*
D42*
X66146000Y-59414000D03*
D41*
X65246000Y-59414000D03*
D40*
X66146000Y-56874000D03*
D41*
X65246000Y-56874000D03*
D40*
X66146000Y-54334000D03*
D41*
X65246000Y-54334000D03*
D40*
X77576000Y-102364000D03*
D43*
X77576000Y-103264000D03*
D42*
X75036000Y-102364000D03*
D43*
X75036000Y-103264000D03*
D40*
X72496000Y-102364000D03*
D43*
X72496000Y-103264000D03*
%TD*%
D44*
%TO.C,D20*%
X120116000Y-66484000D03*
D45*
X114316000Y-66484000D03*
%TD*%
D23*
%TO.C,R1*%
X102849000Y-68681000D03*
X102849000Y-71606000D03*
%TD*%
D29*
%TO.C,R23*%
X173588000Y-82020000D03*
X173588000Y-79095000D03*
%TD*%
%TO.C,R18*%
X167238000Y-93581000D03*
X167238000Y-90656000D03*
%TD*%
D34*
%TO.C,C19*%
X162644500Y-76686000D03*
X164719500Y-76686000D03*
%TD*%
D26*
%TO.C,C14*%
X141351500Y-67796000D03*
X139276500Y-67796000D03*
%TD*%
D37*
%TO.C,C13*%
X155046000Y-70336000D03*
X155046000Y-72411000D03*
%TD*%
D46*
%TO.C,C18*%
X168041000Y-84560000D03*
X169991000Y-84560000D03*
%TD*%
D47*
%TO.C,U3*%
X125224000Y-57041500D03*
X125224000Y-54761500D03*
D48*
X131524000Y-54761500D03*
D47*
X125224000Y-52481500D03*
%TD*%
M02*
