  0
SECTION
  2
HEADER
  9
$ACADVER
  1
AC1014
  9
$HANDSEED
  5
FFFF
  9
$INSUNITS
 70
     4
  9
$MEASUREMENT
 70
     1
  0
ENDSEC
  0
SECTION
  2
TABLES
  0
TABLE
  2
VPORT
  5
8
330
0
100
AcDbSymbolTable
 70
     4
  0
VPORT
  5
2E
330
8
100
AcDbSymbolTableRecord
100
AcDbViewportTableRecord
  2
*ACTIVE
 70
     0
 10
0.0
 20
0.0
 11
1.0
 21
1.0
 12
210.0
 22
148.5
 13
0.0
 23
0.0
 14
10.0
 24
10.0
 15
10.0
 25
10.0
 16
0.0
 26
0.0
 36
1.0
 17
0.0
 27
0.0
 37
0.0
 40
341.0
 41
1.24
 42
50.0
 43
0.0
 44
0.0
 50
0.0
 51
0.0
 71
     0
 72
   100
 73
     1
 74
     3
 75
     0
 76
     0
 77
     0
 78
     0
  0
ENDTAB
  0
TABLE
  2
LTYPE
  5
5
330
0
100
AcDbSymbolTable
 70
     1
  0
LTYPE
  5
14
330
5
100
AcDbSymbolTableRecord
100
AcDbLinetypeTableRecord
  2
BYBLOCK
 70
     0
  3

 72
    65
 73
     0
 40
0.0
  0
LTYPE
  5
15
330
5
100
AcDbSymbolTableRecord
100
AcDbLinetypeTableRecord
  2
BYLAYER
 70
     0
  3

 72
    65
 73
     0
 40
0.0
  0
LTYPE
  5
16
330
5
100
AcDbSymbolTableRecord
100
AcDbLinetypeTableRecord
  2
CONTINUOUS
 70
     0
  3
Solid line
 72
    65
 73
     0
 40
0.0
  0
ENDTAB
  0
TABLE
  2
LAYER
  5
2
100
AcDbSymbolTable
 70
40
  0
LAYER
  5
50
100
AcDbSymbolTableRecord
100
AcDbLayerTableRecord
  2
0
 70
0
  6
CONTINUOUS
  0
LAYER
  5
51
100
AcDbSymbolTableRecord
100
AcDbLayerTableRecord
  2
ANNOTATION_LINES
 70
0
  6
CONTINUOUS
  0
LAYER
  5
52
100
AcDbSymbolTableRecord
100
AcDbLayerTableRecord
  2
ANNOTATION_TEXT
 70
0
  6
CONTINUOUS
  0
LAYER
  5
53
100
AcDbSymbolTableRecord
100
AcDbLayerTableRecord
  2
BLIND_THREAD_SYMBOLS
 70
0
  6
CONTINUOUS
  0
LAYER
  5
54
100
AcDbSymbolTableRecord
100
AcDbLayerTableRecord
  2
BLIND_THREAD_SYMBOLS_HIDDE
 70
0
  6
CONTINUOUS
  0
LAYER
  5
55
100
AcDbSymbolTableRecord
100
AcDbLayerTableRecord
  2
BREAK_LINES
 70
0
  6
CONTINUOUS
  0
LAYER
  5
56
100
AcDbSymbolTableRecord
100
AcDbLayerTableRecord
  2
CENTERLINES
 70
0
  6
CONTINUOUS
  0
LAYER
  5
57
100
AcDbSymbolTableRecord
100
AcDbLayerTableRecord
  2
CENTERMARKS
 70
0
  6
CONTINUOUS
  0
LAYER
  5
58
100
AcDbSymbolTableRecord
100
AcDbLayerTableRecord
  2
DETAIL_VIEW_BORDER
 70
0
  6
CONTINUOUS
  0
LAYER
  5
59
100
AcDbSymbolTableRecord
100
AcDbLayerTableRecord
  2
DETAIL_VIEW_PARENT_BORDER
 70
0
  6
CONTINUOUS
  0
LAYER
  5
5a
100
AcDbSymbolTableRecord
100
AcDbLayerTableRecord
  2
EXPLODE_LINES
 70
0
  6
CONTINUOUS
  0
LAYER
  5
5b
100
AcDbSymbolTableRecord
100
AcDbLayerTableRecord
  2
HIDDEN
 70
0
  6
CONTINUOUS
  0
LAYER
  5
5c
100
AcDbSymbolTableRecord
100
AcDbLayerTableRecord
  2
HIDDEN_BASE_VIEW
 70
0
  6
CONTINUOUS
  0
LAYER
  5
5d
100
AcDbSymbolTableRecord
100
AcDbLayerTableRecord
  2
HIDDEN_EXPLODE_LINES
 70
0
  6
CONTINUOUS
  0
LAYER
  5
5e
100
AcDbSymbolTableRecord
100
AcDbLayerTableRecord
  2
IMAGES
 70
0
  6
CONTINUOUS
  0
LAYER
  5
5f
100
AcDbSymbolTableRecord
100
AcDbLayerTableRecord
  2
INVISIBLE_LINES
 70
0
  6
CONTINUOUS
  0
LAYER
  5
60
100
AcDbSymbolTableRecord
100
AcDbLayerTableRecord
  2
MODELSKETCH_CONSTRUCTION
 70
0
  6
CONTINUOUS
  0
LAYER
  5
61
100
AcDbSymbolTableRecord
100
AcDbLayerTableRecord
  2
MODELSKETCH_POINT
 70
0
  6
CONTINUOUS
  0
LAYER
  5
62
100
AcDbSymbolTableRecord
100
AcDbLayerTableRecord
  2
MODELSKETCH_VISIBLE
 70
0
  6
CONTINUOUS
  0
LAYER
  5
63
100
AcDbSymbolTableRecord
100
AcDbLayerTableRecord
  2
PATTERN_CENTERLINES
 70
0
  6
CONTINUOUS
  0
LAYER
  5
64
100
AcDbSymbolTableRecord
100
AcDbLayerTableRecord
  2
REGION_ASSOC_POINTS
 70
0
  6
CONTINUOUS
  0
LAYER
  5
65
100
AcDbSymbolTableRecord
100
AcDbLayerTableRecord
  2
SECTION_CUTTING_LINE
 70
0
  6
CONTINUOUS
  0
LAYER
  5
66
100
AcDbSymbolTableRecord
100
AcDbLayerTableRecord
  2
SECTION_JOG_LINES
 70
0
  6
CONTINUOUS
  0
LAYER
  5
67
100
AcDbSymbolTableRecord
100
AcDbLayerTableRecord
  2
SHEETMETAL_BEND_LINES_DOWN
 70
0
  6
CONTINUOUS
  0
LAYER
  5
68
100
AcDbSymbolTableRecord
100
AcDbLayerTableRecord
  2
SHEETMETAL_BEND_LINES_UP
 70
0
  6
CONTINUOUS
  0
LAYER
  5
69
100
AcDbSymbolTableRecord
100
AcDbLayerTableRecord
  2
SHEETMETAL_BEND_TANGENT_LI
 70
0
  6
CONTINUOUS
  0
LAYER
  5
6a
100
AcDbSymbolTableRecord
100
AcDbLayerTableRecord
  2
SHEETMETAL_CUT_LINES
 70
0
  6
CONTINUOUS
  0
LAYER
  5
6b
100
AcDbSymbolTableRecord
100
AcDbLayerTableRecord
  2
SIDE_THREAD_SYMBOLS
 70
0
  6
CONTINUOUS
  0
LAYER
  5
6c
100
AcDbSymbolTableRecord
100
AcDbLayerTableRecord
  2
SIDE_THREAD_SYMBOLS_HIDDEN
 70
0
  6
CONTINUOUS
  0
LAYER
  5
6d
100
AcDbSymbolTableRecord
100
AcDbLayerTableRecord
  2
SKETCHED_GEOMETRY
 70
0
  6
CONTINUOUS
  0
LAYER
  5
6e
100
AcDbSymbolTableRecord
100
AcDbLayerTableRecord
  2
SURFACE_THREAD_SYMBOLS
 70
0
  6
CONTINUOUS
  0
LAYER
  5
6f
100
AcDbSymbolTableRecord
100
AcDbLayerTableRecord
  2
SURFACE_THREAD_SYMBOLS_HID
 70
0
  6
CONTINUOUS
  0
LAYER
  5
70
100
AcDbSymbolTableRecord
100
AcDbLayerTableRecord
  2
SURFACE_THREAD_SYMBOLS_ON_
 70
0
  6
CONTINUOUS
  0
LAYER
  5
71
100
AcDbSymbolTableRecord
100
AcDbLayerTableRecord
  2
TABLES
 70
0
  6
CONTINUOUS
  0
LAYER
  5
72
100
AcDbSymbolTableRecord
100
AcDbLayerTableRecord
  2
TANGENT_HIDDEN
 70
0
  6
CONTINUOUS
  0
LAYER
  5
73
100
AcDbSymbolTableRecord
100
AcDbLayerTableRecord
  2
TANGENT_LINES
 70
0
  6
CONTINUOUS
  0
LAYER
  5
74
100
AcDbSymbolTableRecord
100
AcDbLayerTableRecord
  2
TEXT
 70
0
  6
CONTINUOUS
  0
LAYER
  5
75
100
AcDbSymbolTableRecord
100
AcDbLayerTableRecord
  2
VIEW_HATCHES
 70
0
  6
CONTINUOUS
  0
LAYER
  5
76
100
AcDbSymbolTableRecord
100
AcDbLayerTableRecord
  2
VIRTUAL_SHARPS
 70
0
  6
CONTINUOUS
  0
LAYER
  5
77
100
AcDbSymbolTableRecord
100
AcDbLayerTableRecord
  2
VISIBLE
 70
0
  6
CONTINUOUS
  0
ENDTAB
  0
TABLE
  2
STYLE
  5
3
330
0
100
AcDbSymbolTable
 70
     1
  0
STYLE
  5
11
330
3
100
AcDbSymbolTableRecord
100
AcDbTextStyleTableRecord
  2
STANDARD
 70
     0
 40
0.0
 41
1.0
 50
0.0
 71
     0
 42
2.5
  3
txt
  4

  0
ENDTAB
  0
TABLE
  2
VIEW
  5
6
330
0
100
AcDbSymbolTable
 70
     0
  0
ENDTAB
  0
TABLE
  2
UCS
  5
7
330
0
100
AcDbSymbolTable
 70
     0
  0
ENDTAB
  0
TABLE
  2
APPID
  5
9
330
0
100
AcDbSymbolTable
 70
     2
  0
APPID
  5
12
330
9
100
AcDbSymbolTableRecord
100
AcDbRegAppTableRecord
  2
ACAD
 70
     0
  0
ENDTAB
  0
TABLE
  2
DIMSTYLE
  5
A
330
0
100
AcDbSymbolTable
 70
     1
  0
DIMSTYLE
105
27
330
A
100
AcDbSymbolTableRecord
100
AcDbDimStyleTableRecord
  2
ISO-25
 70
     0
  3

  4

  5

  6

  7

 40
1.0
 41
2.5
 42
0.625
 43
3.75
 44
1.25
 45
0.0
 46
0.0
 47
0.0
 48
0.0
140
2.5
141
2.5
142
0.0
143
0.03937007874016
144
1.0
145
0.0
146
1.0
147
0.625
 71
     0
 72
     0
 73
     0
 74
     0
 75
     0
 76
     0
 77
     1
 78
     8
170
     0
171
     3
172
     1
173
     0
174
     0
175
     0
176
     0
177
     0
178
     0
270
     2
271
     2
272
     2
273
     2
274
     3
340
11
275
     0
280
     0
281
     0
282
     0
283
     0
284
     8
285
     0
286
     0
287
     3
288
     0
  0
ENDTAB
  0
TABLE
  2
BLOCK_RECORD
  5
1
330
0
100
AcDbSymbolTable
 70
     1
  0
BLOCK_RECORD
  5
1F
330
1
100
AcDbSymbolTableRecord
100
AcDbBlockTableRecord
  2
*MODEL_SPACE
  0
BLOCK_RECORD
  5
1B
330
1
100
AcDbSymbolTableRecord
100
AcDbBlockTableRecord
  2
*PAPER_SPACE
  0
ENDTAB
  0
ENDSEC
  0
SECTION
  2
BLOCKS
  0
BLOCK
  5
20
330
1F
100
AcDbEntity
  8
0
100
AcDbBlockBegin
  2
*MODEL_SPACE
 70
     0
 10
0.0
 20
0.0
 30
0.0
  3
*MODEL_SPACE
  1

  0
ENDBLK
  5
21
330
1F
100
AcDbEntity
  8
0
100
AcDbBlockEnd
  0
BLOCK
  5
1C
330
1B
100
AcDbEntity
 67
     1
  8
0
100
AcDbBlockBegin
  2
*PAPER_SPACE
  1

  0
ENDBLK
  5
1D
330
1B
100
AcDbEntity
 67
     1
  8
0
100
AcDbBlockEnd
  0
ENDSEC
  0
SECTION
  2
ENTITIES
  0
LWPOLYLINE
  5
100
100
AcDbEntity
  8
0
 62
7
100
AcDbPolyline
 90
2
 70
0
 10
50.329871
 20
229.069908
 30
0.0
 10
50.329871
 20
233.069879
 30
0.0
  0
LWPOLYLINE
  5
101
100
AcDbEntity
  8
0
 62
7
100
AcDbPolyline
 90
2
 70
0
 10
48.475671
 20
228.776220
 30
0.0
 10
47.239538
 20
232.580664
 30
0.0
  0
LWPOLYLINE
  5
102
100
AcDbEntity
  8
0
 62
7
100
AcDbPolyline
 90
2
 70
0
 10
46.802975
 20
227.923997
 30
0.0
 10
44.451887
 20
231.160116
 30
0.0
  0
LWPOLYLINE
  5
103
100
AcDbEntity
  8
0
 62
7
100
AcDbPolyline
 90
2
 70
0
 10
45.475560
 20
226.596583
 30
0.0
 10
42.239442
 20
228.947935
 30
0.0
  0
LWPOLYLINE
  5
104
100
AcDbEntity
  8
0
 62
7
100
AcDbPolyline
 90
2
 70
0
 10
44.623337
 20
224.923093
 30
0.0
 10
40.819158
 20
226.160285
 30
0.0
  0
LWPOLYLINE
  5
105
100
AcDbEntity
  8
0
 62
7
100
AcDbPolyline
 90
2
 70
0
 10
44.329650
 20
223.071010
 30
0.0
 10
40.329679
 20
223.071010
 30
0.0
  0
LWPOLYLINE
  5
106
100
AcDbEntity
  8
0
 62
7
100
AcDbPolyline
 90
2
 70
0
 10
44.623337
 20
221.216280
 30
0.0
 10
40.819158
 20
219.980676
 30
0.0
  0
LWPOLYLINE
  5
107
100
AcDbEntity
  8
0
 62
7
100
AcDbPolyline
 90
2
 70
0
 10
45.475560
 20
219.544114
 30
0.0
 10
42.239442
 20
217.191968
 30
0.0
  0
LWPOLYLINE
  5
108
100
AcDbEntity
  8
0
 62
7
100
AcDbPolyline
 90
2
 70
0
 10
46.802975
 20
218.215905
 30
0.0
 10
44.451887
 20
214.980051
 30
0.0
  0
LWPOLYLINE
  5
109
100
AcDbEntity
  8
0
 62
7
100
AcDbPolyline
 90
2
 70
0
 10
53.856502
 20
218.215905
 30
0.0
 10
56.207590
 20
214.980051
 30
0.0
  0
LWPOLYLINE
  5
10a
100
AcDbEntity
  8
0
 62
7
100
AcDbPolyline
 90
2
 70
0
 10
55.183917
 20
219.544114
 30
0.0
 10
58.420036
 20
217.191968
 30
0.0
  0
LWPOLYLINE
  5
10b
100
AcDbEntity
  8
0
 62
7
100
AcDbPolyline
 90
2
 70
0
 10
56.036140
 20
221.216280
 30
0.0
 10
59.840319
 20
219.980676
 30
0.0
  0
LWPOLYLINE
  5
10c
100
AcDbEntity
  8
0
 62
7
100
AcDbPolyline
 90
2
 70
0
 10
56.329827
 20
223.071010
 30
0.0
 10
60.329798
 20
223.071010
 30
0.0
  0
LWPOLYLINE
  5
10d
100
AcDbEntity
  8
0
 62
7
100
AcDbPolyline
 90
2
 70
0
 10
56.036140
 20
224.923093
 30
0.0
 10
59.840319
 20
226.160285
 30
0.0
  0
LWPOLYLINE
  5
10e
100
AcDbEntity
  8
0
 62
7
100
AcDbPolyline
 90
2
 70
0
 10
55.183917
 20
226.596583
 30
0.0
 10
58.420036
 20
228.947935
 30
0.0
  0
LWPOLYLINE
  5
10f
100
AcDbEntity
  8
0
 62
7
100
AcDbPolyline
 90
2
 70
0
 10
53.856502
 20
227.923997
 30
0.0
 10
56.207590
 20
231.160116
 30
0.0
  0
LWPOLYLINE
  5
110
100
AcDbEntity
  8
0
 62
7
100
AcDbPolyline
 90
2
 70
0
 10
52.183806
 20
228.776220
 30
0.0
 10
53.419940
 20
232.580664
 30
0.0
  0
LWPOLYLINE
  5
111
100
AcDbEntity
  8
0
 62
7
100
AcDbPolyline
 90
2
 70
0
 10
50.329871
 20
229.069908
 30
0.0
 10
50.329871
 20
233.069879
 30
0.0
  0
LWPOLYLINE
  5
112
100
AcDbEntity
  8
0
 62
7
100
AcDbPolyline
 90
2
 70
0
 10
84.475647
 20
228.776220
 30
0.0
 10
83.239567
 20
232.580664
 30
0.0
  0
LWPOLYLINE
  5
113
100
AcDbEntity
  8
0
 62
7
100
AcDbPolyline
 90
2
 70
0
 10
82.803031
 20
227.923997
 30
0.0
 10
80.451890
 20
231.160116
 30
0.0
  0
LWPOLYLINE
  5
114
100
AcDbEntity
  8
0
 62
7
100
AcDbPolyline
 90
2
 70
0
 10
81.475643
 20
226.596583
 30
0.0
 10
78.239577
 20
228.947935
 30
0.0
  0
LWPOLYLINE
  5
115
100
AcDbEntity
  8
0
 62
7
100
AcDbPolyline
 90
2
 70
0
 10
80.623393
 20
224.923093
 30
0.0
 10
76.819161
 20
226.160285
 30
0.0
  0
LWPOLYLINE
  5
116
100
AcDbEntity
  8
0
 62
7
100
AcDbPolyline
 90
2
 70
0
 10
80.329732
 20
223.071010
 30
0.0
 10
76.329682
 20
223.071010
 30
0.0
  0
LWPOLYLINE
  5
117
100
AcDbEntity
  8
0
 62
7
100
AcDbPolyline
 90
2
 70
0
 10
80.623393
 20
221.216280
 30
0.0
 10
76.819161
 20
219.980676
 30
0.0
  0
LWPOLYLINE
  5
118
100
AcDbEntity
  8
0
 62
7
100
AcDbPolyline
 90
2
 70
0
 10
81.475643
 20
219.544114
 30
0.0
 10
78.239577
 20
217.191968
 30
0.0
  0
LWPOLYLINE
  5
119
100
AcDbEntity
  8
0
 62
7
100
AcDbPolyline
 90
2
 70
0
 10
82.803031
 20
218.215905
 30
0.0
 10
80.451890
 20
214.980051
 30
0.0
  0
LWPOLYLINE
  5
11a
100
AcDbEntity
  8
0
 62
7
100
AcDbPolyline
 90
2
 70
0
 10
89.856452
 20
218.215905
 30
0.0
 10
92.207593
 20
214.980051
 30
0.0
  0
LWPOLYLINE
  5
11b
100
AcDbEntity
  8
0
 62
7
100
AcDbPolyline
 90
2
 70
0
 10
91.183840
 20
219.544114
 30
0.0
 10
94.419906
 20
217.191968
 30
0.0
  0
LWPOLYLINE
  5
11c
100
AcDbEntity
  8
0
 62
7
100
AcDbPolyline
 90
2
 70
0
 10
92.036090
 20
221.216280
 30
0.0
 10
95.840295
 20
219.980676
 30
0.0
  0
LWPOLYLINE
  5
11d
100
AcDbEntity
  8
0
 62
7
100
AcDbPolyline
 90
2
 70
0
 10
92.329751
 20
223.071010
 30
0.0
 10
96.329748
 20
223.071010
 30
0.0
  0
LWPOLYLINE
  5
11e
100
AcDbEntity
  8
0
 62
7
100
AcDbPolyline
 90
2
 70
0
 10
92.036090
 20
224.923093
 30
0.0
 10
95.840295
 20
226.160285
 30
0.0
  0
LWPOLYLINE
  5
11f
100
AcDbEntity
  8
0
 62
7
100
AcDbPolyline
 90
2
 70
0
 10
91.183840
 20
226.596583
 30
0.0
 10
94.419906
 20
228.947935
 30
0.0
  0
LWPOLYLINE
  5
120
100
AcDbEntity
  8
0
 62
7
100
AcDbPolyline
 90
2
 70
0
 10
89.856452
 20
227.923997
 30
0.0
 10
92.207593
 20
231.160116
 30
0.0
  0
LWPOLYLINE
  5
121
100
AcDbEntity
  8
0
 62
7
100
AcDbPolyline
 90
2
 70
0
 10
88.183836
 20
228.776220
 30
0.0
 10
89.419916
 20
232.580664
 30
0.0
  0
LWPOLYLINE
  5
122
100
AcDbEntity
  8
0
 62
7
100
AcDbPolyline
 90
2
 70
0
 10
86.329741
 20
229.069908
 30
0.0
 10
86.329741
 20
233.069879
 30
0.0
  0
LWPOLYLINE
  5
123
100
AcDbEntity
  8
0
 62
7
100
AcDbPolyline
 90
2
 70
0
 10
120.475650
 20
228.776220
 30
0.0
 10
119.239570
 20
232.580664
 30
0.0
  0
LWPOLYLINE
  5
124
100
AcDbEntity
  8
0
 62
7
100
AcDbPolyline
 90
2
 70
0
 10
118.803034
 20
227.923997
 30
0.0
 10
116.451893
 20
231.160116
 30
0.0
  0
LWPOLYLINE
  5
125
100
AcDbEntity
  8
0
 62
7
100
AcDbPolyline
 90
2
 70
0
 10
117.475646
 20
226.596583
 30
0.0
 10
114.239580
 20
228.947935
 30
0.0
  0
LWPOLYLINE
  5
126
100
AcDbEntity
  8
0
 62
7
100
AcDbPolyline
 90
2
 70
0
 10
116.623396
 20
224.923093
 30
0.0
 10
112.819190
 20
226.160285
 30
0.0
  0
LWPOLYLINE
  5
127
100
AcDbEntity
  8
0
 62
7
100
AcDbPolyline
 90
2
 70
0
 10
116.329735
 20
223.071010
 30
0.0
 10
112.329738
 20
223.071010
 30
0.0
  0
LWPOLYLINE
  5
128
100
AcDbEntity
  8
0
 62
7
100
AcDbPolyline
 90
2
 70
0
 10
116.623396
 20
221.216280
 30
0.0
 10
112.819190
 20
219.980676
 30
0.0
  0
LWPOLYLINE
  5
129
100
AcDbEntity
  8
0
 62
7
100
AcDbPolyline
 90
2
 70
0
 10
117.475646
 20
219.544114
 30
0.0
 10
114.239580
 20
217.191968
 30
0.0
  0
LWPOLYLINE
  5
12a
100
AcDbEntity
  8
0
 62
7
100
AcDbPolyline
 90
2
 70
0
 10
118.803034
 20
218.215905
 30
0.0
 10
116.451893
 20
214.980051
 30
0.0
  0
LWPOLYLINE
  5
12b
100
AcDbEntity
  8
0
 62
7
100
AcDbPolyline
 90
2
 70
0
 10
125.856455
 20
218.215905
 30
0.0
 10
128.207596
 20
214.980051
 30
0.0
  0
LWPOLYLINE
  5
12c
100
AcDbEntity
  8
0
 62
7
100
AcDbPolyline
 90
2
 70
0
 10
127.183843
 20
219.544114
 30
0.0
 10
130.419909
 20
217.191968
 30
0.0
  0
LWPOLYLINE
  5
12d
100
AcDbEntity
  8
0
 62
7
100
AcDbPolyline
 90
2
 70
0
 10
128.036093
 20
221.216280
 30
0.0
 10
131.840325
 20
219.980676
 30
0.0
  0
LWPOLYLINE
  5
12e
100
AcDbEntity
  8
0
 62
7
100
AcDbPolyline
 90
2
 70
0
 10
128.329754
 20
223.071010
 30
0.0
 10
132.329804
 20
223.071010
 30
0.0
  0
LWPOLYLINE
  5
12f
100
AcDbEntity
  8
0
 62
7
100
AcDbPolyline
 90
2
 70
0
 10
128.036093
 20
224.923093
 30
0.0
 10
131.840325
 20
226.160285
 30
0.0
  0
LWPOLYLINE
  5
130
100
AcDbEntity
  8
0
 62
7
100
AcDbPolyline
 90
2
 70
0
 10
127.183843
 20
226.596583
 30
0.0
 10
130.419909
 20
228.947935
 30
0.0
  0
LWPOLYLINE
  5
131
100
AcDbEntity
  8
0
 62
7
100
AcDbPolyline
 90
2
 70
0
 10
125.856455
 20
227.923997
 30
0.0
 10
128.207596
 20
231.160116
 30
0.0
  0
LWPOLYLINE
  5
132
100
AcDbEntity
  8
0
 62
7
100
AcDbPolyline
 90
2
 70
0
 10
124.183839
 20
228.776220
 30
0.0
 10
125.419919
 20
232.580664
 30
0.0
  0
LWPOLYLINE
  5
133
100
AcDbEntity
  8
0
 62
7
100
AcDbPolyline
 90
2
 70
0
 10
122.329744
 20
229.069908
 30
0.0
 10
122.329744
 20
233.069879
 30
0.0
  0
LWPOLYLINE
  5
134
100
AcDbEntity
  8
0
 62
7
100
AcDbPolyline
 90
2
 70
0
 10
156.475679
 20
228.776220
 30
0.0
 10
155.239546
 20
232.580664
 30
0.0
  0
LWPOLYLINE
  5
135
100
AcDbEntity
  8
0
 62
7
100
AcDbPolyline
 90
2
 70
0
 10
154.802984
 20
227.923997
 30
0.0
 10
152.451896
 20
231.160116
 30
0.0
  0
LWPOLYLINE
  5
136
100
AcDbEntity
  8
0
 62
7
100
AcDbPolyline
 90
2
 70
0
 10
153.475569
 20
226.596583
 30
0.0
 10
150.239450
 20
228.947935
 30
0.0
  0
LWPOLYLINE
  5
137
100
AcDbEntity
  8
0
 62
7
100
AcDbPolyline
 90
2
 70
0
 10
152.623346
 20
224.923093
 30
0.0
 10
148.819167
 20
226.160285
 30
0.0
  0
LWPOLYLINE
  5
138
100
AcDbEntity
  8
0
 62
7
100
AcDbPolyline
 90
2
 70
0
 10
152.329659
 20
223.071010
 30
0.0
 10
148.329688
 20
223.071010
 30
0.0
  0
LWPOLYLINE
  5
139
100
AcDbEntity
  8
0
 62
7
100
AcDbPolyline
 90
2
 70
0
 10
152.623346
 20
221.216280
 30
0.0
 10
148.819167
 20
219.980676
 30
0.0
  0
LWPOLYLINE
  5
13a
100
AcDbEntity
  8
0
 62
7
100
AcDbPolyline
 90
2
 70
0
 10
153.475569
 20
219.544114
 30
0.0
 10
150.239450
 20
217.191968
 30
0.0
  0
LWPOLYLINE
  5
13b
100
AcDbEntity
  8
0
 62
7
100
AcDbPolyline
 90
2
 70
0
 10
154.802984
 20
218.215905
 30
0.0
 10
152.451896
 20
214.980051
 30
0.0
  0
LWPOLYLINE
  5
13c
100
AcDbEntity
  8
0
 62
7
100
AcDbPolyline
 90
2
 70
0
 10
161.856511
 20
218.215905
 30
0.0
 10
164.207598
 20
214.980051
 30
0.0
  0
LWPOLYLINE
  5
13d
100
AcDbEntity
  8
0
 62
7
100
AcDbPolyline
 90
2
 70
0
 10
163.183925
 20
219.544114
 30
0.0
 10
166.420044
 20
217.191968
 30
0.0
  0
LWPOLYLINE
  5
13e
100
AcDbEntity
  8
0
 62
7
100
AcDbPolyline
 90
2
 70
0
 10
164.036148
 20
221.216280
 30
0.0
 10
167.840328
 20
219.980676
 30
0.0
  0
LWPOLYLINE
  5
13f
100
AcDbEntity
  8
0
 62
7
100
AcDbPolyline
 90
2
 70
0
 10
164.329836
 20
223.071010
 30
0.0
 10
168.329807
 20
223.071010
 30
0.0
  0
LWPOLYLINE
  5
140
100
AcDbEntity
  8
0
 62
7
100
AcDbPolyline
 90
2
 70
0
 10
164.036148
 20
224.923093
 30
0.0
 10
167.840328
 20
226.160285
 30
0.0
  0
LWPOLYLINE
  5
141
100
AcDbEntity
  8
0
 62
7
100
AcDbPolyline
 90
2
 70
0
 10
163.183925
 20
226.596583
 30
0.0
 10
166.420044
 20
228.947935
 30
0.0
  0
LWPOLYLINE
  5
142
100
AcDbEntity
  8
0
 62
7
100
AcDbPolyline
 90
2
 70
0
 10
161.856511
 20
227.923997
 30
0.0
 10
164.207598
 20
231.160116
 30
0.0
  0
LWPOLYLINE
  5
143
100
AcDbEntity
  8
0
 62
7
100
AcDbPolyline
 90
2
 70
0
 10
160.183815
 20
228.776220
 30
0.0
 10
161.419948
 20
232.580664
 30
0.0
  0
LWPOLYLINE
  5
144
100
AcDbEntity
  8
0
 62
7
100
AcDbPolyline
 90
2
 70
0
 10
158.329615
 20
229.069908
 30
0.0
 10
158.329615
 20
233.069879
 30
0.0
  0
LWPOLYLINE
  5
145
100
AcDbEntity
  8
0
 62
7
100
AcDbPolyline
 90
2
 70
0
 10
48.475671
 20
198.776967
 30
0.0
 10
47.239538
 20
202.581676
 30
0.0
  0
LWPOLYLINE
  5
146
100
AcDbEntity
  8
0
 62
7
100
AcDbPolyline
 90
2
 70
0
 10
46.802975
 20
197.925009
 30
0.0
 10
44.451887
 20
201.160863
 30
0.0
  0
LWPOLYLINE
  5
147
100
AcDbEntity
  8
0
 62
7
100
AcDbPolyline
 90
2
 70
0
 10
45.475560
 20
196.596801
 30
0.0
 10
42.239442
 20
198.948947
 30
0.0
  0
LWPOLYLINE
  5
148
100
AcDbEntity
  8
0
 62
7
100
AcDbPolyline
 90
2
 70
0
 10
44.623337
 20
194.924634
 30
0.0
 10
40.819158
 20
196.160238
 30
0.0
  0
LWPOLYLINE
  5
149
100
AcDbEntity
  8
0
 62
7
100
AcDbPolyline
 90
2
 70
0
 10
44.329650
 20
193.069905
 30
0.0
 10
40.329679
 20
193.069905
 30
0.0
  0
LWPOLYLINE
  5
14a
100
AcDbEntity
  8
0
 62
7
100
AcDbPolyline
 90
2
 70
0
 10
44.623337
 20
191.215176
 30
0.0
 10
40.819158
 20
189.979571
 30
0.0
  0
LWPOLYLINE
  5
14b
100
AcDbEntity
  8
0
 62
7
100
AcDbPolyline
 90
2
 70
0
 10
45.475560
 20
189.543009
 30
0.0
 10
42.239442
 20
187.190863
 30
0.0
  0
LWPOLYLINE
  5
14c
100
AcDbEntity
  8
0
 62
7
100
AcDbPolyline
 90
2
 70
0
 10
46.802975
 20
188.214801
 30
0.0
 10
44.451887
 20
184.978946
 30
0.0
  0
LWPOLYLINE
  5
14d
100
AcDbEntity
  8
0
 62
7
100
AcDbPolyline
 90
2
 70
0
 10
53.856502
 20
188.214801
 30
0.0
 10
56.207590
 20
184.978946
 30
0.0
  0
LWPOLYLINE
  5
14e
100
AcDbEntity
  8
0
 62
7
100
AcDbPolyline
 90
2
 70
0
 10
55.183917
 20
189.543009
 30
0.0
 10
58.420036
 20
187.190863
 30
0.0
  0
LWPOLYLINE
  5
14f
100
AcDbEntity
  8
0
 62
7
100
AcDbPolyline
 90
2
 70
0
 10
56.036140
 20
191.215176
 30
0.0
 10
59.840319
 20
189.979571
 30
0.0
  0
LWPOLYLINE
  5
150
100
AcDbEntity
  8
0
 62
7
100
AcDbPolyline
 90
2
 70
0
 10
56.329827
 20
193.069905
 30
0.0
 10
60.329798
 20
193.069905
 30
0.0
  0
LWPOLYLINE
  5
151
100
AcDbEntity
  8
0
 62
7
100
AcDbPolyline
 90
2
 70
0
 10
56.036140
 20
194.924634
 30
0.0
 10
59.840319
 20
196.160238
 30
0.0
  0
LWPOLYLINE
  5
152
100
AcDbEntity
  8
0
 62
7
100
AcDbPolyline
 90
2
 70
0
 10
55.183917
 20
196.596801
 30
0.0
 10
58.420036
 20
198.948947
 30
0.0
  0
LWPOLYLINE
  5
153
100
AcDbEntity
  8
0
 62
7
100
AcDbPolyline
 90
2
 70
0
 10
53.856502
 20
197.925009
 30
0.0
 10
56.207590
 20
201.160863
 30
0.0
  0
LWPOLYLINE
  5
154
100
AcDbEntity
  8
0
 62
7
100
AcDbPolyline
 90
2
 70
0
 10
52.183806
 20
198.776967
 30
0.0
 10
53.419940
 20
202.581676
 30
0.0
  0
LWPOLYLINE
  5
155
100
AcDbEntity
  8
0
 62
7
100
AcDbPolyline
 90
2
 70
0
 10
50.329871
 20
199.070655
 30
0.0
 10
50.329871
 20
203.071155
 30
0.0
  0
LWPOLYLINE
  5
156
100
AcDbEntity
  8
0
 62
7
100
AcDbPolyline
 90
2
 70
0
 10
84.475647
 20
198.776967
 30
0.0
 10
83.239567
 20
202.581676
 30
0.0
  0
LWPOLYLINE
  5
157
100
AcDbEntity
  8
0
 62
7
100
AcDbPolyline
 90
2
 70
0
 10
82.803031
 20
197.925009
 30
0.0
 10
80.451890
 20
201.160863
 30
0.0
  0
LWPOLYLINE
  5
158
100
AcDbEntity
  8
0
 62
7
100
AcDbPolyline
 90
2
 70
0
 10
81.475643
 20
196.596801
 30
0.0
 10
78.239577
 20
198.948947
 30
0.0
  0
LWPOLYLINE
  5
159
100
AcDbEntity
  8
0
 62
7
100
AcDbPolyline
 90
2
 70
0
 10
80.623393
 20
194.924634
 30
0.0
 10
76.819161
 20
196.160238
 30
0.0
  0
LWPOLYLINE
  5
15a
100
AcDbEntity
  8
0
 62
7
100
AcDbPolyline
 90
2
 70
0
 10
80.329732
 20
193.069905
 30
0.0
 10
76.329682
 20
193.069905
 30
0.0
  0
LWPOLYLINE
  5
15b
100
AcDbEntity
  8
0
 62
7
100
AcDbPolyline
 90
2
 70
0
 10
80.623393
 20
191.215176
 30
0.0
 10
76.819161
 20
189.979571
 30
0.0
  0
LWPOLYLINE
  5
15c
100
AcDbEntity
  8
0
 62
7
100
AcDbPolyline
 90
2
 70
0
 10
81.475643
 20
189.543009
 30
0.0
 10
78.239577
 20
187.190863
 30
0.0
  0
LWPOLYLINE
  5
15d
100
AcDbEntity
  8
0
 62
7
100
AcDbPolyline
 90
2
 70
0
 10
82.803031
 20
188.214801
 30
0.0
 10
80.451890
 20
184.978946
 30
0.0
  0
LWPOLYLINE
  5
15e
100
AcDbEntity
  8
0
 62
7
100
AcDbPolyline
 90
2
 70
0
 10
89.856452
 20
188.214801
 30
0.0
 10
92.207593
 20
184.978946
 30
0.0
  0
LWPOLYLINE
  5
15f
100
AcDbEntity
  8
0
 62
7
100
AcDbPolyline
 90
2
 70
0
 10
91.183840
 20
189.543009
 30
0.0
 10
94.419906
 20
187.190863
 30
0.0
  0
LWPOLYLINE
  5
160
100
AcDbEntity
  8
0
 62
7
100
AcDbPolyline
 90
2
 70
0
 10
92.036090
 20
191.215176
 30
0.0
 10
95.840295
 20
189.979571
 30
0.0
  0
LWPOLYLINE
  5
161
100
AcDbEntity
  8
0
 62
7
100
AcDbPolyline
 90
2
 70
0
 10
92.329751
 20
193.069905
 30
0.0
 10
96.329748
 20
193.069905
 30
0.0
  0
LWPOLYLINE
  5
162
100
AcDbEntity
  8
0
 62
7
100
AcDbPolyline
 90
2
 70
0
 10
92.036090
 20
194.924634
 30
0.0
 10
95.840295
 20
196.160238
 30
0.0
  0
LWPOLYLINE
  5
163
100
AcDbEntity
  8
0
 62
7
100
AcDbPolyline
 90
2
 70
0
 10
91.183840
 20
196.596801
 30
0.0
 10
94.419906
 20
198.948947
 30
0.0
  0
LWPOLYLINE
  5
164
100
AcDbEntity
  8
0
 62
7
100
AcDbPolyline
 90
2
 70
0
 10
89.856452
 20
197.925009
 30
0.0
 10
92.207593
 20
201.160863
 30
0.0
  0
LWPOLYLINE
  5
165
100
AcDbEntity
  8
0
 62
7
100
AcDbPolyline
 90
2
 70
0
 10
88.183836
 20
198.776967
 30
0.0
 10
89.419916
 20
202.581676
 30
0.0
  0
LWPOLYLINE
  5
166
100
AcDbEntity
  8
0
 62
7
100
AcDbPolyline
 90
2
 70
0
 10
86.329741
 20
199.070655
 30
0.0
 10
86.329741
 20
203.071155
 30
0.0
  0
LWPOLYLINE
  5
167
100
AcDbEntity
  8
0
 62
7
100
AcDbPolyline
 90
4
 70
0
 10
107.329748
 20
203.071155
 30
0.0
 10
107.329748
 20
205.068759
 30
0.0
 10
109.329733
 20
205.068759
 30
0.0
 10
109.329733
 20
203.071155
 30
0.0
  0
LWPOLYLINE
  5
168
100
AcDbEntity
  8
0
 62
7
100
AcDbPolyline
 90
2
 70
0
 10
105.329744
 20
203.071155
 30
0.0
 10
107.329748
 20
203.071155
 30
0.0
  0
LWPOLYLINE
  5
169
100
AcDbEntity
  8
0
 62
7
100
AcDbPolyline
 90
2
 70
0
 10
105.329744
 20
203.071155
 30
0.0
 10
105.329744
 20
205.068759
 30
0.0
  0
LWPOLYLINE
  5
16a
100
AcDbEntity
  8
0
 62
7
100
AcDbPolyline
 90
5
 70
0
 10
111.329745
 20
203.071155
 30
0.0
 10
112.329738
 20
205.068759
 30
0.0
 10
113.329730
 20
203.071155
 30
0.0
 10
114.329750
 20
205.068759
 30
0.0
 10
115.329742
 20
203.071155
 30
0.0
  0
SPLINE
  5
16b
100
AcDbEntity
  8
0
 62
7
100
AcDbSpline
 70
8
 71
3
 72
8
 73
4
 74
0
 40
0
 40
0
 40
0
 40
0
 40
1
 40
1
 40
1
 40
1
 10
76.329743
 20
237.069990
 30
0.0
 10
76.064526
 20
237.069990
 30
0.0
 10
75.810172
 20
236.964633
 30
0.0
 10
75.622635
 20
236.777096
 30
0.0
  0
SPLINE
  5
16c
100
AcDbEntity
  8
0
 62
7
100
AcDbSpline
 70
8
 71
3
 72
8
 73
4
 74
0
 40
0
 40
0
 40
0
 40
0
 40
1
 40
1
 40
1
 40
1
 10
75.622635
 20
236.777096
 30
0.0
 10
75.435099
 20
236.589560
 30
0.0
 10
75.329742
 20
236.335206
 30
0.0
 10
75.329742
 20
236.069989
 30
0.0
  0
SPLINE
  5
16d
100
AcDbEntity
  8
0
 62
7
100
AcDbSpline
 70
8
 71
3
 72
8
 73
4
 74
0
 40
0
 40
0
 40
0
 40
0
 40
1
 40
1
 40
1
 40
1
 10
133.329744
 20
236.069989
 30
0.0
 10
133.329744
 20
236.335206
 30
0.0
 10
133.224387
 20
236.589560
 30
0.0
 10
133.036851
 20
236.777096
 30
0.0
  0
SPLINE
  5
16e
100
AcDbEntity
  8
0
 62
7
100
AcDbSpline
 70
8
 71
3
 72
8
 73
4
 74
0
 40
0
 40
0
 40
0
 40
0
 40
1
 40
1
 40
1
 40
1
 10
133.036851
 20
236.777096
 30
0.0
 10
132.849314
 20
236.964633
 30
0.0
 10
132.594960
 20
237.069990
 30
0.0
 10
132.329743
 20
237.069990
 30
0.0
  0
LWPOLYLINE
  5
16f
100
AcDbEntity
  8
0
 62
7
100
AcDbPolyline
 90
5
 70
0
 10
117.329754
 20
203.071155
 30
0.0
 10
119.329740
 20
205.068759
 30
0.0
 10
119.329740
 20
203.071155
 30
0.0
 10
121.329752
 20
205.068759
 30
0.0
 10
121.329752
 20
203.071155
 30
0.0
  0
LWPOLYLINE
  5
170
100
AcDbEntity
  8
0
 62
7
100
AcDbPolyline
 90
2
 70
0
 10
75.329821
 20
236.069989
 30
0.0
 10
75.329821
 20
232.070018
 30
0.0
  0
SPLINE
  5
171
100
AcDbEntity
  8
0
 62
7
100
AcDbSpline
 70
8
 71
3
 72
8
 73
4
 74
0
 40
0
 40
0
 40
0
 40
0
 40
1
 40
1
 40
1
 40
1
 10
40.329743
 20
207.069991
 30
0.0
 10
40.064526
 20
207.069991
 30
0.0
 10
39.810172
 20
206.964634
 30
0.0
 10
39.622635
 20
206.777098
 30
0.0
  0
SPLINE
  5
172
100
AcDbEntity
  8
0
 62
7
100
AcDbSpline
 70
8
 71
3
 72
8
 73
4
 74
0
 40
0
 40
0
 40
0
 40
0
 40
1
 40
1
 40
1
 40
1
 10
39.622635
 20
206.777098
 30
0.0
 10
39.435099
 20
206.589561
 30
0.0
 10
39.329742
 20
206.335207
 30
0.0
 10
39.329742
 20
206.069990
 30
0.0
  0
LWPOLYLINE
  5
173
100
AcDbEntity
  8
0
 62
7
100
AcDbPolyline
 90
2
 70
0
 10
62.436358
 20
207.169411
 30
0.0
 10
40.325583
 20
207.169411
 30
0.0
  0
SPLINE
  5
174
100
AcDbEntity
  8
0
 62
7
100
AcDbSpline
 70
8
 71
3
 72
8
 73
4
 74
0
 40
0
 40
0
 40
0
 40
0
 40
1
 40
1
 40
1
 40
1
 10
97.329744
 20
206.069990
 30
0.0
 10
97.329744
 20
206.335207
 30
0.0
 10
97.224387
 20
206.589561
 30
0.0
 10
97.036850
 20
206.777098
 30
0.0
  0
SPLINE
  5
175
100
AcDbEntity
  8
0
 62
7
100
AcDbSpline
 70
8
 71
3
 72
8
 73
4
 74
0
 40
0
 40
0
 40
0
 40
0
 40
1
 40
1
 40
1
 40
1
 10
97.036850
 20
206.777098
 30
0.0
 10
96.849314
 20
206.964634
 30
0.0
 10
96.594960
 20
207.069991
 30
0.0
 10
96.329743
 20
207.069991
 30
0.0
  0
LWPOLYLINE
  5
176
100
AcDbEntity
  8
0
 62
7
100
AcDbPolyline
 90
2
 70
0
 10
73.380379
 20
207.069009
 30
0.0
 10
96.334079
 20
207.069009
 30
0.0
  0
LWPOLYLINE
  5
177
100
AcDbEntity
  8
0
 62
7
100
AcDbPolyline
 90
2
 70
0
 10
39.329819
 20
206.068884
 30
0.0
 10
39.329819
 20
202.071030
 30
0.0
  0
LWPOLYLINE
  5
178
100
AcDbEntity
  8
0
 62
7
100
AcDbPolyline
 90
2
 70
0
 10
97.329741
 20
206.068884
 30
0.0
 10
97.329741
 20
202.071030
 30
0.0
  0
LWPOLYLINE
  5
179
100
AcDbEntity
  8
0
 62
7
100
AcDbPolyline
 90
2
 70
0
 10
133.329664
 20
236.069989
 30
0.0
 10
133.329664
 20
232.070018
 30
0.0
  0
LWPOLYLINE
  5
17a
100
AcDbEntity
  8
0
 62
7
100
AcDbPolyline
 90
2
 70
0
 10
145.621746
 20
184.857685
 30
0.0
 10
153.034358
 20
184.857685
 30
0.0
  0
LWPOLYLINE
  5
17b
100
AcDbEntity
  8
0
 62
7
100
AcDbPolyline
 90
2
 70
0
 10
58.262765
 20
180.897428
 30
0.0
 10
63.678058
 20
180.897428
 30
0.0
  0
LWPOLYLINE
  5
17c
100
AcDbEntity
  8
0
 62
7
100
AcDbPolyline
 90
2
 70
0
 10
92.248783
 20
180.891716
 30
0.0
 10
103.472427
 20
180.891716
 30
0.0
  0
LWPOLYLINE
  5
17d
100
AcDbEntity
  8
0
 62
7
100
AcDbPolyline
 90
2
 70
0
 10
55.418264
 20
210.339762
 30
0.0
 10
63.257460
 20
210.339762
 30
0.0
  0
LWPOLYLINE
  5
17e
100
AcDbEntity
  8
0
 62
7
100
AcDbPolyline
 90
2
 70
0
 10
127.616823
 20
184.884728
 30
0.0
 10
135.271145
 20
184.884728
 30
0.0
  0
LWPOLYLINE
  5
17f
100
AcDbEntity
  8
0
 62
7
100
AcDbPolyline
 90
2
 70
0
 10
153.329784
 20
193.069905
 30
0.0
 10
163.329711
 20
193.069905
 30
0.0
  0
LWPOLYLINE
  5
180
100
AcDbEntity
  8
0
 62
7
100
AcDbPolyline
 90
2
 70
0
 10
97.285825
 20
237.074805
 30
0.0
 10
76.324991
 20
237.074805
 30
0.0
  0
LWPOLYLINE
  5
181
100
AcDbEntity
  8
0
 62
7
100
AcDbPolyline
 90
2
 70
0
 10
110.249221
 20
237.070114
 30
0.0
 10
132.334027
 20
237.070114
 30
0.0
  0
LWPOLYLINE
  5
182
100
AcDbEntity
  8
0
 62
7
100
AcDbPolyline
 90
4
 70
0
 10
47.304536
 20
211.100230
 30
0.0
 10
47.304536
 20
213.196860
 30
0.0
 10
46.217507
 20
213.196860
 30
0.0
 10
48.379730
 20
213.196860
 30
0.0
  0
LWPOLYLINE
  5
183
100
AcDbEntity
  8
0
 62
7
100
AcDbPolyline
 90
6
 70
0
 10
48.697331
 20
212.752073
 30
0.0
 10
48.697331
 20
211.249506
 30
0.0
 10
48.846101
 20
211.100229
 30
0.0
 10
50.114019
 20
211.100229
 30
0.0
 10
50.293218
 20
211.291770
 30
0.0
 10
50.293218
 20
212.772360
 30
0.0
  0
LWPOLYLINE
  5
184
100
AcDbEntity
  8
0
 62
7
100
AcDbPolyline
 90
5
 70
0
 10
50.787066
 20
211.100230
 30
0.0
 10
50.787066
 20
212.750552
 30
0.0
 10
52.234183
 20
212.750552
 30
0.0
 10
52.393096
 20
212.591640
 30
0.0
 10
52.393096
 20
211.089749
 30
0.0
  0
LWPOLYLINE
  5
185
100
AcDbEntity
  8
0
 62
7
100
AcDbPolyline
 90
9
 70
0
 10
54.546888
 20
211.100229
 30
0.0
 10
53.032148
 20
211.100229
 30
0.0
 10
52.863093
 20
211.281288
 30
0.0
 10
52.863093
 20
212.516409
 30
0.0
 10
53.045673
 20
212.709133
 30
0.0
 10
54.279780
 20
212.709133
 30
0.0
 10
54.458979
 20
212.526553
 30
0.0
 10
54.458979
 20
211.911190
 30
0.0
 10
52.852949
 20
211.911190
 30
0.0
  0
LWPOLYLINE
  5
186
100
AcDbEntity
  8
0
 62
7
100
AcDbPolyline
 90
6
 70
1
 10
81.627276
 20
213.083029
 30
0.0
 10
81.627276
 20
210.995338
 30
0.0
 10
83.518441
 20
210.995338
 30
0.0
 10
83.726610
 20
211.206330
 30
0.0
 10
83.726610
 20
212.885445
 30
0.0
 10
83.529026
 20
213.083029
 30
0.0
  0
LWPOLYLINE
  5
187
100
AcDbEntity
  8
0
 62
7
100
AcDbPolyline
 90
9
 70
0
 10
86.051753
 20
210.984224
 30
0.0
 10
84.471078
 20
210.984224
 30
0.0
 10
84.294664
 20
211.173164
 30
0.0
 10
84.294664
 20
212.462050
 30
0.0
 10
84.485191
 20
212.663162
 30
0.0
 10
85.773018
 20
212.663162
 30
0.0
 10
85.960018
 20
212.472635
 30
0.0
 10
85.960018
 20
211.830485
 30
0.0
 10
84.284079
 20
211.830485
 30
0.0
  0
LWPOLYLINE
  5
188
100
AcDbEntity
  8
0
 62
7
100
AcDbPolyline
 90
4
 70
0
 10
86.450461
 20
213.361764
 30
0.0
 10
86.450461
 20
211.195393
 30
0.0
 10
86.648045
 20
210.995338
 30
0.0
 10
87.004403
 20
210.995338
 30
0.0
  0
LWPOLYLINE
  5
189
100
AcDbEntity
  8
0
 62
7
100
AcDbPolyline
 90
8
 70
0
 10
87.205509
 20
212.652577
 30
0.0
 10
88.772071
 20
212.652577
 30
0.0
 10
88.959070
 20
212.472635
 30
0.0
 10
88.959070
 20
210.995338
 30
0.0
 10
87.459546
 20
210.995338
 30
0.0
 10
87.283131
 20
211.173164
 30
0.0
 10
87.283131
 20
211.805787
 30
0.0
 10
88.937901
 20
211.805787
 30
0.0
  0
LWPOLYLINE
  5
18a
100
AcDbEntity
  8
0
 62
7
100
AcDbPolyline
 90
9
 70
0
 10
89.661186
 20
210.228640
 30
0.0
 10
90.906673
 20
210.228640
 30
0.0
 10
91.104258
 20
210.429753
 30
0.0
 10
91.104258
 20
212.740785
 30
0.0
 10
91.104258
 20
211.117417
 30
0.0
 10
90.973711
 20
210.995338
 30
0.0
 10
89.562394
 20
210.995338
 30
0.0
 10
89.371866
 20
211.184455
 30
0.0
 10
89.371866
 20
212.730200
 30
0.0
  0
LWPOLYLINE
  5
18b
100
AcDbEntity
  8
0
 62
7
100
AcDbPolyline
 90
6
 70
0
 10
114.076333
 20
210.995670
 30
0.0
 10
114.076333
 20
212.170188
 30
0.0
 10
115.693448
 20
212.170188
 30
0.0
 10
114.076333
 20
212.170188
 30
0.0
 10
114.076333
 20
213.189674
 30
0.0
 10
116.069603
 20
213.189674
 30
0.0
  0
LWPOLYLINE
  5
18c
100
AcDbEntity
  8
0
 62
7
100
AcDbPolyline
 90
9
 70
0
 10
117.944290
 20
210.995670
 30
0.0
 10
116.369361
 20
210.995670
 30
0.0
 10
116.193587
 20
211.183924
 30
0.0
 10
116.193587
 20
212.468124
 30
0.0
 10
116.383422
 20
212.668505
 30
0.0
 10
117.666568
 20
212.668505
 30
0.0
 10
117.852888
 20
212.478670
 30
0.0
 10
117.852888
 20
211.838855
 30
0.0
 10
116.183041
 20
211.838855
 30
0.0
  0
LWPOLYLINE
  5
18d
100
AcDbEntity
  8
0
 62
7
100
AcDbPolyline
 90
9
 70
0
 10
120.113351
 20
210.995670
 30
0.0
 10
118.538421
 20
210.995670
 30
0.0
 10
118.362648
 20
211.183924
 30
0.0
 10
118.362648
 20
212.468124
 30
0.0
 10
118.552483
 20
212.668505
 30
0.0
 10
119.835629
 20
212.668505
 30
0.0
 10
120.021949
 20
212.478670
 30
0.0
 10
120.021949
 20
211.838855
 30
0.0
 10
118.352102
 20
211.838855
 30
0.0
  0
LWPOLYLINE
  5
18e
100
AcDbEntity
  8
0
 62
7
100
AcDbPolyline
 90
8
 70
0
 10
122.127701
 20
213.342948
 30
0.0
 10
122.127701
 20
210.995670
 30
0.0
 10
120.609020
 20
210.995670
 30
0.0
 10
120.410044
 20
211.205895
 30
0.0
 10
120.410044
 20
212.435957
 30
0.0
 10
120.598473
 20
212.622277
 30
0.0
 10
121.948413
 20
212.622277
 30
0.0
 10
122.113640
 20
212.467597
 30
0.0
  0
LWPOLYLINE
  5
18f
100
AcDbEntity
  8
0
 62
7
100
AcDbPolyline
 90
8
 70
0
 10
122.612815
 20
213.342420
 30
0.0
 10
122.612815
 20
210.995670
 30
0.0
 10
124.096343
 20
210.995670
 30
0.0
 10
124.272116
 20
211.183923
 30
0.0
 10
124.272116
 20
212.445976
 30
0.0
 10
124.085796
 20
212.635811
 30
0.0
 10
122.756950
 20
212.635811
 30
0.0
 10
122.633908
 20
212.512770
 30
0.0
  0
LWPOLYLINE
  5
190
100
AcDbEntity
  8
0
 62
7
100
AcDbPolyline
 90
8
 70
0
 10
124.616666
 20
212.646885
 30
0.0
 10
126.177534
 20
212.646885
 30
0.0
 10
126.363854
 20
212.467597
 30
0.0
 10
126.363854
 20
210.995670
 30
0.0
 10
124.869780
 20
210.995670
 30
0.0
 10
124.694006
 20
211.172850
 30
0.0
 10
124.694006
 20
211.803173
 30
0.0
 10
126.342761
 20
211.803173
 30
0.0
  0
LWPOLYLINE
  5
191
100
AcDbEntity
  8
0
 62
7
100
AcDbPolyline
 90
6
 70
0
 10
128.638579
 20
210.995670
 30
0.0
 10
127.067165
 20
210.995670
 30
0.0
 10
126.877330
 20
211.194997
 30
0.0
 10
126.877330
 20
212.467597
 30
0.0
 10
127.067165
 20
212.657432
 30
0.0
 10
128.638579
 20
212.657432
 30
0.0
  0
LWPOLYLINE
  5
192
100
AcDbEntity
  8
0
 62
7
100
AcDbPolyline
 90
7
 70
0
 10
129.021520
 20
213.453685
 30
0.0
 10
129.021520
 20
210.995670
 30
0.0
 10
129.021520
 20
211.924457
 30
0.0
 10
129.752737
 20
211.924457
 30
0.0
 10
130.571841
 20
212.845509
 30
0.0
 10
129.752737
 20
211.924457
 30
0.0
 10
130.582388
 20
211.006568
 30
0.0
  0
LWPOLYLINE
  5
193
100
AcDbEntity
  8
0
 62
7
100
AcDbPolyline
 90
3
 70
0
 10
155.418194
 20
213.364245
 30
0.0
 10
156.770057
 20
211.057425
 30
0.0
 10
158.154366
 20
213.375060
 30
0.0
  0
LWPOLYLINE
  5
194
100
AcDbEntity
  8
0
 62
7
100
AcDbPolyline
 90
8
 70
1
 10
158.319265
 20
212.523548
 30
0.0
 10
158.319265
 20
211.261809
 30
0.0
 10
158.510329
 20
211.057407
 30
0.0
 10
159.829748
 20
211.057407
 30
0.0
 10
160.009996
 20
211.239098
 30
0.0
 10
160.009996
 20
212.602858
 30
0.0
 10
159.851377
 20
212.772291
 30
0.0
 10
158.546379
 20
212.772291
 30
0.0
  0
LWPOLYLINE
  5
195
100
AcDbEntity
  8
0
 62
7
100
AcDbPolyline
 90
4
 70
0
 10
160.676684
 20
213.475278
 30
0.0
 10
160.676684
 20
211.261827
 30
0.0
 10
160.878562
 20
211.057425
 30
0.0
 10
161.242664
 20
211.057425
 30
0.0
  0
LWPOLYLINE
  5
196
100
AcDbEntity
  8
0
 62
7
100
AcDbPolyline
 90
3
 70
0
 10
63.285050
 20
208.528934
 30
0.0
 10
63.285050
 20
205.852296
 30
0.0
 10
66.016179
 20
205.852296
 30
0.0
  0
LWPOLYLINE
  5
197
100
AcDbEntity
  8
0
 62
7
100
AcDbPolyline
 90
6
 70
0
 10
66.680841
 20
205.714208
 30
0.0
 10
66.680841
 20
207.176500
 30
0.0
 10
68.694173
 20
207.176500
 30
0.0
 10
66.680841
 20
207.176500
 30
0.0
 10
66.680841
 20
208.445774
 30
0.0
 10
69.162491
 20
208.445774
 30
0.0
  0
LWPOLYLINE
  5
198
100
AcDbEntity
  8
0
 62
7
100
AcDbPolyline
 90
8
 70
1
 10
69.827147
 20
208.183166
 30
0.0
 10
69.827147
 20
206.073106
 30
0.0
 10
70.063494
 20
205.852296
 30
0.0
 10
72.212508
 20
205.852296
 30
0.0
 10
72.431348
 20
206.073106
 30
0.0
 10
72.431348
 20
208.222557
 30
0.0
 10
72.212508
 20
208.415137
 30
0.0
 10
70.045987
 20
208.428267
 30
0.0
  0
LWPOLYLINE
  5
199
100
AcDbEntity
  8
0
 62
7
100
AcDbPolyline
 90
14
 70
0
 10
45.186956
 20
181.754995
 30
0.0
 10
45.186956
 20
181.593573
 30
0.0
 10
45.326878
 20
181.453821
 30
0.0
 10
47.036661
 20
181.453821
 30
0.0
 10
47.197060
 20
181.615073
 30
0.0
 10
47.197060
 20
182.312296
 30
0.0
 10
47.036661
 20
182.476107
 30
0.0
 10
45.347354
 20
182.476107
 30
0.0
 10
45.186956
 20
182.646744
 30
0.0
 10
45.186956
 20
183.291752
 30
0.0
 10
45.381482
 20
183.486278
 30
0.0
 10
47.057137
 20
183.486278
 30
0.0
 10
47.217536
 20
183.325880
 30
0.0
 10
47.217536
 20
183.151830
 30
0.0
  0
LWPOLYLINE
  5
19a
100
AcDbEntity
  8
0
 62
7
100
AcDbPolyline
 90
8
 70
0
 10
47.722622
 20
180.592274
 30
0.0
 10
47.722622
 20
183.022146
 30
0.0
 10
49.186688
 20
183.022146
 30
0.0
 10
49.336848
 20
182.882223
 30
0.0
 10
49.336848
 20
181.561152
 30
0.0
 10
49.196926
 20
181.421570
 30
0.0
 10
47.896672
 20
181.421570
 30
0.0
 10
47.743098
 20
181.572072
 30
0.0
  0
LWPOLYLINE
  5
19b
100
AcDbEntity
  8
0
 62
7
100
AcDbPolyline
 90
9
 70
0
 10
51.411804
 20
181.432321
 30
0.0
 10
49.882896
 20
181.432321
 30
0.0
 10
49.712259
 20
181.615073
 30
0.0
 10
49.712259
 20
182.861747
 30
0.0
 10
49.896547
 20
183.056273
 30
0.0
 10
51.142197
 20
183.056273
 30
0.0
 10
51.323072
 20
182.871985
 30
0.0
 10
51.323072
 20
182.250866
 30
0.0
 10
49.702021
 20
182.250866
 30
0.0
  0
LWPOLYLINE
  5
19c
100
AcDbEntity
  8
0
 62
7
100
AcDbPolyline
 90
9
 70
0
 10
53.517453
 20
181.432321
 30
0.0
 10
51.988545
 20
181.432321
 30
0.0
 10
51.817908
 20
181.615073
 30
0.0
 10
51.817908
 20
182.861747
 30
0.0
 10
52.002196
 20
183.056273
 30
0.0
 10
53.247846
 20
183.056273
 30
0.0
 10
53.428721
 20
182.871985
 30
0.0
 10
53.428721
 20
182.250866
 30
0.0
 10
51.807670
 20
182.250866
 30
0.0
  0
LWPOLYLINE
  5
19d
100
AcDbEntity
  8
0
 62
7
100
AcDbPolyline
 90
8
 70
0
 10
55.472941
 20
183.721758
 30
0.0
 10
55.472941
 20
181.443071
 30
0.0
 10
53.998637
 20
181.443071
 30
0.0
 10
53.805476
 20
181.647153
 30
0.0
 10
53.805476
 20
182.841270
 30
0.0
 10
53.988399
 20
183.022146
 30
0.0
 10
55.298891
 20
183.022146
 30
0.0
 10
55.459290
 20
182.871985
 30
0.0
  0
LWPOLYLINE
  5
19e
100
AcDbEntity
  8
0
 62
7
100
AcDbPolyline
 90
7
 70
0
 10
82.926919
 20
181.428870
 30
0.0
 10
82.926919
 20
183.541197
 30
0.0
 10
83.033737
 20
183.531182
 30
0.0
 10
84.071875
 20
182.312789
 30
0.0
 10
85.103337
 20
183.541197
 30
0.0
 10
85.200141
 20
183.541197
 30
0.0
 10
85.200141
 20
181.407840
 30
0.0
  0
LWPOLYLINE
  5
19f
100
AcDbEntity
  8
0
 62
7
100
AcDbPolyline
 90
8
 70
1
 10
85.610814
 20
182.765432
 30
0.0
 10
85.610814
 20
181.597109
 30
0.0
 10
85.787732
 20
181.407841
 30
0.0
 10
87.009463
 20
181.407841
 30
0.0
 10
87.176366
 20
181.576080
 30
0.0
 10
87.176366
 20
182.838869
 30
0.0
 10
87.029491
 20
182.995758
 30
0.0
 10
85.821112
 20
182.995758
 30
0.0
  0
LWPOLYLINE
  5
1a0
100
AcDbEntity
  8
0
 62
7
100
AcDbPolyline
 90
8
 70
0
 10
89.175871
 20
183.636667
 30
0.0
 10
89.175871
 20
181.407841
 30
0.0
 10
87.733827
 20
181.407841
 30
0.0
 10
87.544893
 20
181.607457
 30
0.0
 10
87.544893
 20
182.775446
 30
0.0
 10
87.723813
 20
182.952363
 30
0.0
 10
89.005630
 20
182.952363
 30
0.0
 10
89.162519
 20
182.805489
 30
0.0
  0
LWPOLYLINE
  5
1a1
100
AcDbEntity
  8
0
 62
7
100
AcDbPolyline
 90
5
 70
0
 10
108.156907
 20
187.914165
 30
0.0
 10
109.002753
 20
185.631814
 30
0.0
 10
109.848599
 20
187.935669
 30
0.0
 10
110.762543
 20
185.598123
 30
0.0
 10
111.609823
 20
187.946422
 30
0.0
  0
LWPOLYLINE
  5
1a2
100
AcDbEntity
  8
0
 62
7
100
AcDbPolyline
 90
8
 70
0
 10
111.926641
 20
187.315264
 30
0.0
 10
113.517978
 20
187.315264
 30
0.0
 10
113.707935
 20
187.132475
 30
0.0
 10
113.707935
 20
185.631815
 30
0.0
 10
112.184695
 20
185.631815
 30
0.0
 10
112.005491
 20
185.812454
 30
0.0
 10
112.005491
 20
186.455082
 30
0.0
 10
113.686431
 20
186.455082
 30
0.0
  0
LWPOLYLINE
  5
1a3
100
AcDbEntity
  8
0
 62
7
100
AcDbPolyline
 90
3
 70
0
 10
114.148802
 20
187.495901
 30
0.0
 10
115.177437
 20
185.631814
 30
0.0
 10
116.259833
 20
187.517406
 30
0.0
  0
LWPOLYLINE
  5
1a4
100
AcDbEntity
  8
0
 62
7
100
AcDbPolyline
 90
9
 70
0
 10
118.503491
 20
185.631814
 30
0.0
 10
116.897817
 20
185.631814
 30
0.0
 10
116.718612
 20
185.823742
 30
0.0
 10
116.718612
 20
187.133012
 30
0.0
 10
116.912153
 20
187.337305
 30
0.0
 10
118.220347
 20
187.337305
 30
0.0
 10
118.410304
 20
187.143764
 30
0.0
 10
118.410304
 20
186.491459
 30
0.0
 10
116.707860
 20
186.491459
 30
0.0
  0
LWPOLYLINE
  5
1a5
100
AcDbEntity
  8
0
 62
7
100
AcDbPolyline
 90
3
 70
0
 10
127.499945
 20
187.928851
 30
0.0
 10
127.499945
 20
185.634730
 30
0.0
 10
129.840769
 20
185.634730
 30
0.0
  0
LWPOLYLINE
  5
1a6
100
AcDbEntity
  8
0
 62
7
100
AcDbPolyline
 90
6
 70
0
 10
130.440720
 20
185.634730
 30
0.0
 10
130.440720
 20
186.888046
 30
0.0
 10
132.166328
 20
186.888046
 30
0.0
 10
130.440720
 20
186.888046
 30
0.0
 10
130.440720
 20
187.975930
 30
0.0
 10
132.567719
 20
187.975930
 30
0.0
  0
LWPOLYLINE
  5
1a7
100
AcDbEntity
  8
0
 62
7
100
AcDbPolyline
 90
8
 70
1
 10
133.055205
 20
187.632496
 30
0.0
 10
133.055205
 20
185.823984
 30
0.0
 10
133.257777
 20
185.634730
 30
0.0
 10
135.099676
 20
185.634730
 30
0.0
 10
135.287242
 20
185.823984
 30
0.0
 10
135.287242
 20
187.666258
 30
0.0
 10
135.099676
 20
187.831316
 30
0.0
 10
133.242771
 20
187.842570
 30
0.0
  0
LWPOLYLINE
  5
1a8
100
AcDbEntity
  8
0
 62
7
100
AcDbPolyline
 90
14
 70
0
 10
145.626856
 20
185.942560
 30
0.0
 10
145.626856
 20
185.783007
 30
0.0
 10
145.765158
 20
185.644874
 30
0.0
 10
147.455138
 20
185.644874
 30
0.0
 10
147.613679
 20
185.804258
 30
0.0
 10
147.613679
 20
186.493406
 30
0.0
 10
147.455138
 20
186.655320
 30
0.0
 10
145.785397
 20
186.655320
 30
0.0
 10
145.626856
 20
186.823981
 30
0.0
 10
145.626856
 20
187.461519
 30
0.0
 10
145.819129
 20
187.653792
 30
0.0
 10
147.475378
 20
187.653792
 30
0.0
 10
147.633919
 20
187.495251
 30
0.0
 10
147.633919
 20
187.323217
 30
0.0
  0
LWPOLYLINE
  5
1a9
100
AcDbEntity
  8
0
 62
7
100
AcDbPolyline
 90
6
 70
0
 10
148.123035
 20
185.644874
 30
0.0
 10
148.123035
 20
187.992294
 30
0.0
 10
148.123035
 20
187.314278
 30
0.0
 10
149.536412
 20
187.314278
 30
0.0
 10
149.728685
 20
187.132124
 30
0.0
 10
149.728685
 20
185.634079
 30
0.0
  0
LWPOLYLINE
  5
1aa
100
AcDbEntity
  8
0
 62
7
100
AcDbPolyline
 90
3
 70
0
 10
150.288561
 20
185.634248
 30
0.0
 10
150.278440
 20
185.655500
 30
0.0
 10
150.278440
 20
187.378538
 30
0.0
  0
LWPOLYLINE
  5
1ab
100
AcDbEntity
  8
0
 62
7
100
AcDbPolyline
 90
4
 70
1
 10
150.224468
 20
187.844041
 30
0.0
 10
150.224468
 20
187.982343
 30
0.0
 10
150.362770
 20
187.982343
 30
0.0
 10
150.362770
 20
187.844041
 30
0.0
  0
LWPOLYLINE
  5
1ac
100
AcDbEntity
  8
0
 62
7
100
AcDbPolyline
 90
7
 70
0
 10
150.851827
 20
185.644874
 30
0.0
 10
150.851827
 20
187.300785
 30
0.0
 10
151.742356
 20
187.300785
 30
0.0
 10
150.851827
 20
187.300785
 30
0.0
 10
150.851827
 20
187.739303
 30
0.0
 10
151.030607
 20
187.918083
 30
0.0
 10
151.755849
 20
187.918083
 30
0.0
  0
LWPOLYLINE
  5
1ad
100
AcDbEntity
  8
0
 62
7
100
AcDbPolyline
 90
7
 70
0
 10
152.153792
 20
187.896157
 30
0.0
 10
152.153792
 20
187.194529
 30
0.0
 10
153.034201
 20
187.194529
 30
0.0
 10
152.153792
 20
187.194529
 30
0.0
 10
152.153792
 20
185.772381
 30
0.0
 10
152.271854
 20
185.644874
 30
0.0
 10
153.034201
 20
185.644874
 30
0.0
  0
LWPOLYLINE
  5
1ae
100
AcDbEntity
  8
0
 62
7
100
AcDbPolyline
 90
14
 70
0
 10
163.457291
 20
185.986805
 30
0.0
 10
163.457291
 20
185.802620
 30
0.0
 10
163.580313
 20
185.643161
 30
0.0
 10
165.083583
 20
185.643161
 30
0.0
 10
165.224608
 20
185.827152
 30
0.0
 10
165.224608
 20
186.622694
 30
0.0
 10
165.083583
 20
186.809606
 30
0.0
 10
163.598316
 20
186.809606
 30
0.0
 10
163.457291
 20
187.004305
 30
0.0
 10
163.457291
 20
187.740270
 30
0.0
 10
163.628322
 20
187.962227
 30
0.0
 10
165.101586
 20
187.962227
 30
0.0
 10
165.242611
 20
187.779210
 30
0.0
 10
165.242611
 20
187.580616
 30
0.0
  0
LWPOLYLINE
  5
1af
100
AcDbEntity
  8
0
 62
7
100
AcDbPolyline
 90
8
 70
0
 10
165.655699
 20
187.472169
 30
0.0
 10
166.987938
 20
187.472169
 30
0.0
 10
167.146966
 20
187.273575
 30
0.0
 10
167.146966
 20
185.643161
 30
0.0
 10
165.871738
 20
185.643161
 30
0.0
 10
165.721711
 20
185.839418
 30
0.0
 10
165.721711
 20
186.537611
 30
0.0
 10
167.128963
 20
186.537611
 30
0.0
  0
LWPOLYLINE
  5
1b0
100
AcDbEntity
  8
0
 62
7
100
AcDbPolyline
 90
3
 70
0
 10
167.542541
 20
187.668426
 30
0.0
 10
168.403695
 20
185.643161
 30
0.0
 10
169.309858
 20
187.691790
 30
0.0
  0
LWPOLYLINE
  5
1b1
100
AcDbEntity
  8
0
 62
7
100
AcDbPolyline
 90
9
 70
0
 10
171.203215
 20
185.643161
 30
0.0
 10
169.858974
 20
185.643161
 30
0.0
 10
169.708947
 20
185.851684
 30
0.0
 10
169.708947
 20
187.274159
 30
0.0
 10
169.870977
 20
187.496117
 30
0.0
 10
170.966173
 20
187.496117
 30
0.0
 10
171.125201
 20
187.285841
 30
0.0
 10
171.125201
 20
186.577135
 30
0.0
 10
169.699946
 20
186.577135
 30
0.0
  0
LWPOLYLINE
  5
1b2
100
AcDbEntity
  8
0
 62
7
100
AcDbPolyline
 90
11
 70
0
 10
155.084263
 20
197.261869
 30
0.0
 10
155.084263
 20
198.641834
 30
0.0
 10
156.297101
 20
198.641834
 30
0.0
 10
156.415047
 20
198.523888
 30
0.0
 10
156.415047
 20
198.005372
 30
0.0
 10
156.290425
 20
197.885201
 30
0.0
 10
155.182180
 20
197.885201
 30
0.0
 10
155.077587
 20
197.992020
 30
0.0
 10
155.182180
 20
197.885201
 30
0.0
 10
155.847572
 20
197.885201
 30
0.0
 10
156.359412
 20
197.261869
 30
0.0
  0
LWPOLYLINE
  5
1b3
100
AcDbEntity
  8
0
 62
7
100
AcDbPolyline
 90
9
 70
0
 10
157.945067
 20
197.261862
 30
0.0
 10
156.948092
 20
197.261862
 30
0.0
 10
156.836823
 20
197.381032
 30
0.0
 10
156.836823
 20
198.193967
 30
0.0
 10
156.956994
 20
198.320814
 30
0.0
 10
157.769262
 20
198.320814
 30
0.0
 10
157.887207
 20
198.200643
 30
0.0
 10
157.887207
 20
197.795622
 30
0.0
 10
156.830147
 20
197.795622
 30
0.0
  0
LWPOLYLINE
  5
1b4
100
AcDbEntity
  8
0
 62
7
100
AcDbPolyline
 90
14
 70
0
 10
158.339625
 20
197.437112
 30
0.0
 10
158.339625
 20
197.367012
 30
0.0
 10
158.437543
 20
197.268872
 30
0.0
 10
159.278739
 20
197.268872
 30
0.0
 10
159.383332
 20
197.381032
 30
0.0
 10
159.383332
 20
197.682127
 30
0.0
 10
159.285415
 20
197.780044
 30
0.0
 10
158.466473
 20
197.780044
 30
0.0
 10
158.352978
 20
197.893539
 30
0.0
 10
158.352978
 20
198.207319
 30
0.0
 10
158.473149
 20
198.320814
 30
0.0
 10
159.265387
 20
198.320814
 30
0.0
 10
159.376656
 20
198.207319
 30
0.0
 10
159.376656
 20
198.145009
 30
0.0
  0
LWPOLYLINE
  5
1b5
100
AcDbEntity
  8
0
 62
7
100
AcDbPolyline
 90
9
 70
0
 10
160.932133
 20
197.261862
 30
0.0
 10
159.935158
 20
197.261862
 30
0.0
 10
159.823889
 20
197.381032
 30
0.0
 10
159.823889
 20
198.193967
 30
0.0
 10
159.944060
 20
198.320814
 30
0.0
 10
160.756327
 20
198.320814
 30
0.0
 10
160.874273
 20
198.200643
 30
0.0
 10
160.874273
 20
197.795622
 30
0.0
 10
159.817212
 20
197.795622
 30
0.0
  0
LWPOLYLINE
  5
1b6
100
AcDbEntity
  8
0
 62
7
100
AcDbPolyline
 90
7
 70
0
 10
161.326698
 20
198.768118
 30
0.0
 10
161.326698
 20
198.305237
 30
0.0
 10
161.907525
 20
198.305237
 30
0.0
 10
161.326698
 20
198.305237
 30
0.0
 10
161.326698
 20
197.367012
 30
0.0
 10
161.404587
 20
197.282892
 30
0.0
 10
161.907525
 20
197.282892
 30
0.0
  0
LWPOLYLINE
  5
1b7
100
AcDbEntity
  8
0
 62
7
100
AcDbPolyline
 90
3
 70
0
 10
155.153003
 20
195.855180
 30
0.0
 10
155.153003
 20
194.494242
 30
0.0
 10
156.541647
 20
194.494242
 30
0.0
  0
LWPOLYLINE
  5
1b8
100
AcDbEntity
  8
0
 62
7
100
AcDbPolyline
 90
6
 70
0
 10
156.971703
 20
194.494251
 30
0.0
 10
156.971703
 20
195.237754
 30
0.0
 10
157.995382
 20
195.237754
 30
0.0
 10
156.971703
 20
195.237754
 30
0.0
 10
156.971703
 20
195.883117
 30
0.0
 10
158.233499
 20
195.883117
 30
0.0
  0
LWPOLYLINE
  5
1b9
100
AcDbEntity
  8
0
 62
7
100
AcDbPolyline
 90
8
 70
1
 10
158.589426
 20
195.679374
 30
0.0
 10
158.589426
 20
194.606513
 30
0.0
 10
158.709597
 20
194.494242
 30
0.0
 10
159.802261
 20
194.494242
 30
0.0
 10
159.913530
 20
194.606513
 30
0.0
 10
159.913530
 20
195.699402
 30
0.0
 10
159.802261
 20
195.797320
 30
0.0
 10
158.700696
 20
195.803996
 30
0.0
  0
LWPOLYLINE
  5
1ba
100
AcDbEntity
  8
0
 62
7
100
AcDbPolyline
 90
11
 70
0
 10
160.421532
 20
195.594809
 30
0.0
 10
160.421532
 20
195.679374
 30
0.0
 10
160.561731
 20
195.819573
 30
0.0
 10
161.656624
 20
195.819573
 30
0.0
 10
161.781245
 20
195.686050
 30
0.0
 10
161.781245
 20
195.258775
 30
0.0
 10
161.656624
 20
195.131928
 30
0.0
 10
160.555055
 20
195.131928
 30
0.0
 10
160.421532
 20
194.998404
 30
0.0
 10
160.421532
 20
194.494242
 30
0.0
 10
161.836880
 20
194.494242
 30
0.0
  0
LWPOLYLINE
  5
1bb
100
AcDbEntity
  8
0
 62
7
100
AcDbPolyline
 90
6
 70
0
 10
128.019894
 20
182.662567
 30
0.0
 10
128.019894
 20
183.442617
 30
0.0
 10
129.093893
 20
183.442617
 30
0.0
 10
128.019894
 20
183.442617
 30
0.0
 10
128.019894
 20
184.119703
 30
0.0
 10
129.343714
 20
184.119703
 30
0.0
  0
LWPOLYLINE
  5
1bc
100
AcDbEntity
  8
0
 62
7
100
AcDbPolyline
 90
4
 70
0
 10
129.731027
 20
184.228512
 30
0.0
 10
129.731027
 20
182.794957
 30
0.0
 10
129.861775
 20
182.662575
 30
0.0
 10
130.097588
 20
182.662575
 30
0.0
  0
LWPOLYLINE
  5
1bd
100
AcDbEntity
  8
0
 62
7
100
AcDbPolyline
 90
8
 70
0
 10
130.464409
 20
183.759221
 30
0.0
 10
131.501051
 20
183.759221
 30
0.0
 10
131.624794
 20
183.640148
 30
0.0
 10
131.624794
 20
182.662575
 30
0.0
 10
130.632513
 20
182.662575
 30
0.0
 10
130.515774
 20
182.780248
 30
0.0
 10
130.515774
 20
183.198874
 30
0.0
 10
131.610786
 20
183.198874
 30
0.0
  0
LWPOLYLINE
  5
1be
100
AcDbEntity
  8
0
 62
7
100
AcDbPolyline
 90
11
 70
0
 10
132.301349
 20
182.162582
 30
0.0
 10
133.125525
 20
182.162582
 30
0.0
 10
133.256273
 20
182.295664
 30
0.0
 10
133.256273
 20
183.654506
 30
0.0
 10
133.125525
 20
183.787589
 30
0.0
 10
132.249983
 20
183.787589
 30
0.0
 10
132.116901
 20
183.654506
 30
0.0
 10
132.116901
 20
182.772894
 30
0.0
 10
132.226636
 20
182.662575
 30
0.0
 10
133.118521
 20
182.662575
 30
0.0
 10
133.249268
 20
182.795074
 30
0.0
  0
LWPOLYLINE
  5
1bf
100
AcDbEntity
  8
0
 62
7
100
AcDbPolyline
 90
14
 70
0
 10
133.671630
 20
182.839085
 30
0.0
 10
133.671630
 20
182.765539
 30
0.0
 10
133.774360
 20
182.662575
 30
0.0
 10
134.656907
 20
182.662575
 30
0.0
 10
134.766642
 20
182.780248
 30
0.0
 10
134.766642
 20
183.096144
 30
0.0
 10
134.663912
 20
183.198874
 30
0.0
 10
133.804713
 20
183.198874
 30
0.0
 10
133.685639
 20
183.317948
 30
0.0
 10
133.685639
 20
183.647152
 30
0.0
 10
133.811717
 20
183.766226
 30
0.0
 10
134.642899
 20
183.766226
 30
0.0
 10
134.759638
 20
183.647152
 30
0.0
 10
134.759638
 20
183.581778
 30
0.0
  0
LWPOLYLINE
  5
1c0
100
AcDbEntity
  8
0
 62
7
100
AcDbPolyline
 90
14
 70
1
 10
145.903097
 20
184.111674
 30
0.0
 10
147.222868
 20
184.111674
 30
0.0
 10
147.396250
 20
183.940880
 30
0.0
 10
147.396250
 20
183.534598
 30
0.0
 10
147.297914
 20
183.387094
 30
0.0
 10
146.009196
 20
183.387094
 30
0.0
 10
145.918623
 20
183.477666
 30
0.0
 10
145.918623
 20
183.306872
 30
0.0
 10
146.009196
 20
183.387094
 30
0.0
 10
147.297914
 20
183.387094
 30
0.0
 10
147.442830
 20
183.247353
 30
0.0
 10
147.442830
 20
182.726949
 30
0.0
 10
147.297914
 20
182.580092
 30
0.0
 10
145.895333
 20
182.580092
 30
0.0
  0
LWPOLYLINE
  5
1c1
100
AcDbEntity
  8
0
 62
7
100
AcDbPolyline
 90
8
 70
0
 10
147.884751
 20
183.795576
 30
0.0
 10
149.033729
 20
183.795576
 30
0.0
 10
149.170882
 20
183.663599
 30
0.0
 10
149.170882
 20
182.580092
 30
0.0
 10
148.071072
 20
182.580092
 30
0.0
 10
147.941683
 20
182.710517
 30
0.0
 10
147.941683
 20
183.174507
 30
0.0
 10
149.155355
 20
183.174507
 30
0.0
  0
LWPOLYLINE
  5
1c2
100
AcDbEntity
  8
0
 62
7
100
AcDbPolyline
 90
5
 70
0
 10
149.644734
 20
182.580092
 30
0.0
 10
149.644734
 20
183.843191
 30
0.0
 10
150.752307
 20
183.843191
 30
0.0
 10
150.873933
 20
183.721565
 30
0.0
 10
150.873933
 20
182.572070
 30
0.0
  0
LWPOLYLINE
  5
1c3
100
AcDbEntity
  8
0
 62
7
100
AcDbPolyline
 90
7
 70
0
 10
151.457003
 20
184.389473
 30
0.0
 10
151.457003
 20
182.580092
 30
0.0
 10
151.457003
 20
183.263786
 30
0.0
 10
151.995263
 20
183.263786
 30
0.0
 10
152.598217
 20
183.941786
 30
0.0
 10
151.995263
 20
183.263786
 30
0.0
 10
152.605980
 20
182.588114
 30
0.0
  0
LWPOLYLINE
  5
1c4
100
AcDbEntity
  8
0
 62
7
100
AcDbPolyline
 90
2
 70
0
 10
55.473772
 20
211.208908
 30
0.0
 10
56.412574
 20
212.307354
 30
0.0
  0
LWPOLYLINE
  5
1c5
100
AcDbEntity
  8
0
 62
7
100
AcDbPolyline
 90
8
 70
0
 10
56.987727
 20
211.100179
 30
0.0
 10
56.987727
 20
212.351982
 30
0.0
 10
58.105445
 20
212.351982
 30
0.0
 10
58.200786
 20
212.256641
 30
0.0
 10
58.200786
 20
211.757624
 30
0.0
 10
58.099360
 20
211.656198
 30
0.0
 10
57.083068
 20
211.656198
 30
0.0
 10
56.987727
 20
211.751538
 30
0.0
  0
LWPOLYLINE
  5
1c6
100
AcDbEntity
  8
0
 62
7
100
AcDbPolyline
 90
6
 70
0
 10
58.559770
 20
212.091215
 30
0.0
 10
58.559770
 20
211.189738
 30
0.0
 10
58.649026
 20
211.100179
 30
0.0
 10
59.409723
 20
211.100179
 30
0.0
 10
59.517234
 20
211.215095
 30
0.0
 10
59.517234
 20
212.103386
 30
0.0
  0
LWPOLYLINE
  5
1c7
100
AcDbEntity
  8
0
 62
7
100
AcDbPolyline
 90
4
 70
0
 10
59.911368
 20
212.460711
 30
0.0
 10
59.911368
 20
211.215196
 30
0.0
 10
60.024965
 20
211.100179
 30
0.0
 10
60.229846
 20
211.100179
 30
0.0
  0
LWPOLYLINE
  5
1c8
100
AcDbEntity
  8
0
 62
7
100
AcDbPolyline
 90
14
 70
0
 10
60.615814
 20
211.277358
 30
0.0
 10
60.615814
 20
211.213459
 30
0.0
 10
60.705069
 20
211.124001
 30
0.0
 10
61.471852
 20
211.124001
 30
0.0
 10
61.567192
 20
211.226239
 30
0.0
 10
61.567192
 20
211.500698
 30
0.0
 10
61.477937
 20
211.589953
 30
0.0
 10
60.731440
 20
211.589953
 30
0.0
 10
60.627985
 20
211.693408
 30
0.0
 10
60.627985
 20
211.979430
 30
0.0
 10
60.737525
 20
212.082885
 30
0.0
 10
61.459680
 20
212.082885
 30
0.0
 10
61.561107
 20
211.979430
 30
0.0
 10
61.561107
 20
211.922632
 30
0.0
  0
LWPOLYLINE
  5
1c9
100
AcDbEntity
  8
0
 62
7
100
AcDbPolyline
 90
9
 70
0
 10
62.995887
 20
211.100179
 30
0.0
 10
62.087107
 20
211.100179
 30
0.0
 10
61.985681
 20
211.208806
 30
0.0
 10
61.985681
 20
211.949827
 30
0.0
 10
62.095221
 20
212.065453
 30
0.0
 10
62.835633
 20
212.065453
 30
0.0
 10
62.943145
 20
211.955912
 30
0.0
 10
62.943145
 20
211.586720
 30
0.0
 10
61.979595
 20
211.586720
 30
0.0
  0
LWPOLYLINE
  5
1ca
100
AcDbEntity
  8
0
 62
7
100
AcDbPolyline
 90
7
 70
0
 10
100.756293
 20
235.626280
 30
0.0
 10
98.078641
 20
235.626280
 30
0.0
 10
98.078641
 20
237.069945
 30
0.0
 10
100.222652
 20
237.069945
 30
0.0
 10
98.078641
 20
237.069945
 30
0.0
 10
98.078641
 20
238.420578
 30
0.0
 10
100.742125
 20
238.420578
 30
0.0
  0
LWPOLYLINE
  5
1cb
100
AcDbEntity
  8
0
 62
7
100
AcDbPolyline
 90
6
 70
0
 10
103.674791
 20
235.626280
 30
0.0
 10
101.563837
 20
235.626280
 30
0.0
 10
101.308823
 20
235.894045
 30
0.0
 10
101.308823
 20
237.603587
 30
0.0
 10
101.563837
 20
237.858601
 30
0.0
 10
103.674791
 20
237.858601
 30
0.0
  0
LWPOLYLINE
  5
1cc
100
AcDbEntity
  8
0
 62
7
100
AcDbPolyline
 90
6
 70
0
 10
104.272658
 20
235.626293
 30
0.0
 10
104.272658
 20
238.912674
 30
0.0
 10
104.272658
 20
237.963453
 30
0.0
 10
106.251381
 20
237.963453
 30
0.0
 10
106.520563
 20
237.708439
 30
0.0
 10
106.520563
 20
235.611181
 30
0.0
  0
LWPOLYLINE
  5
1cd
100
AcDbEntity
  8
0
 62
7
100
AcDbPolyline
 90
8
 70
1
 10
107.155271
 20
237.546917
 30
0.0
 10
107.155271
 20
235.894045
 30
0.0
 10
107.405563
 20
235.626280
 30
0.0
 10
109.133994
 20
235.626280
 30
0.0
 10
109.370119
 20
235.864293
 30
0.0
 10
109.370119
 20
237.650812
 30
0.0
 10
109.162329
 20
237.872769
 30
0.0
 10
107.452788
 20
237.872769
 30
0.0
  0
LWPOLYLINE
  5
1ce
100
AcDbEntity
  8
0
 62
7
100
AcDbPolyline
 90
8
 70
1
 10
40.518123
 20
238.117607
 30
0.0
 10
40.518123
 20
235.832560
 30
0.0
 10
40.774071
 20
235.593439
 30
0.0
 10
43.101301
 20
235.593439
 30
0.0
 10
43.338290
 20
235.832560
 30
0.0
 10
43.338290
 20
238.160264
 30
0.0
 10
43.101301
 20
238.368815
 30
0.0
 10
40.755112
 20
238.383034
 30
0.0
  0
LWPOLYLINE
  5
1cf
100
AcDbEntity
  8
0
 62
7
100
AcDbPolyline
 90
14
 70
0
 10
44.011336
 20
235.936836
 30
0.0
 10
44.011336
 20
235.787533
 30
0.0
 10
44.219886
 20
235.578508
 30
0.0
 10
46.011521
 20
235.578508
 30
0.0
 10
46.234290
 20
235.817393
 30
0.0
 10
46.234290
 20
236.458685
 30
0.0
 10
46.025741
 20
236.667235
 30
0.0
 10
44.281503
 20
236.667235
 30
0.0
 10
44.039775
 20
236.908964
 30
0.0
 10
44.039775
 20
237.577272
 30
0.0
 10
44.295722
 20
237.819001
 30
0.0
 10
45.983082
 20
237.819001
 30
0.0
 10
46.220071
 20
237.577272
 30
0.0
 10
46.220071
 20
237.444558
 30
0.0
  0
LWPOLYLINE
  5
1d0
100
AcDbEntity
  8
0
 62
7
100
AcDbPolyline
 90
6
 70
0
 10
49.310383
 20
235.578508
 30
0.0
 10
47.191703
 20
235.578508
 30
0.0
 10
46.935756
 20
235.847254
 30
0.0
 10
46.935756
 20
237.563053
 30
0.0
 10
47.191703
 20
237.819001
 30
0.0
 10
49.310383
 20
237.819001
 30
0.0
  0
LWPOLYLINE
  5
1d1
100
AcDbEntity
  8
0
 62
7
100
AcDbPolyline
 90
3
 70
0
 10
49.907609
 20
235.518313
 30
0.0
 10
49.893376
 20
235.548174
 30
0.0
 10
49.893376
 20
237.969251
 30
0.0
  0
LWPOLYLINE
  5
1d2
100
AcDbEntity
  8
0
 62
7
100
AcDbPolyline
 90
4
 70
1
 10
49.817536
 20
238.623340
 30
0.0
 10
49.817536
 20
238.817671
 30
0.0
 10
50.011867
 20
238.817671
 30
0.0
 10
50.011867
 20
238.623340
 30
0.0
  0
LWPOLYLINE
  5
1d3
100
AcDbEntity
  8
0
 62
7
100
AcDbPolyline
 90
4
 70
0
 10
50.519057
 20
238.757476
 30
0.0
 10
50.519057
 20
235.847254
 30
0.0
 10
50.784485
 20
235.578508
 30
0.0
 10
51.263201
 20
235.578508
 30
0.0
  0
LWPOLYLINE
  5
1d4
100
AcDbEntity
  8
0
 62
7
100
AcDbPolyline
 90
4
 70
0
 10
51.623416
 20
238.757476
 30
0.0
 10
51.623416
 20
235.847254
 30
0.0
 10
51.888844
 20
235.578508
 30
0.0
 10
52.367561
 20
235.578508
 30
0.0
  0
LWPOLYLINE
  5
1d5
100
AcDbEntity
  8
0
 62
7
100
AcDbPolyline
 90
8
 70
0
 10
52.637720
 20
237.804781
 30
0.0
 10
54.742177
 20
237.804781
 30
0.0
 10
54.993388
 20
237.563053
 30
0.0
 10
54.993388
 20
235.578508
 30
0.0
 10
52.978983
 20
235.578508
 30
0.0
 10
52.741995
 20
235.817393
 30
0.0
 10
52.741995
 20
236.667235
 30
0.0
 10
54.964949
 20
236.667235
 30
0.0
  0
LWPOLYLINE
  5
1d6
100
AcDbEntity
  8
0
 62
7
100
AcDbPolyline
 90
7
 70
0
 10
55.652247
 20
238.741835
 30
0.0
 10
55.652247
 20
237.755962
 30
0.0
 10
56.889328
 20
237.755962
 30
0.0
 10
55.652247
 20
237.755962
 30
0.0
 10
55.652247
 20
235.757672
 30
0.0
 10
55.818139
 20
235.578508
 30
0.0
 10
56.889328
 20
235.578508
 30
0.0
  0
LWPOLYLINE
  5
1d7
100
AcDbEntity
  8
0
 62
7
100
AcDbPolyline
 90
8
 70
1
 10
57.382236
 20
237.506175
 30
0.0
 10
57.382236
 20
235.847254
 30
0.0
 10
57.633445
 20
235.578508
 30
0.0
 10
59.368202
 20
235.578508
 30
0.0
 10
59.605191
 20
235.817393
 30
0.0
 10
59.605191
 20
237.610451
 30
0.0
 10
59.396641
 20
237.833220
 30
0.0
 10
57.680842
 20
237.833220
 30
0.0
  0
LWPOLYLINE
  5
1d8
100
AcDbEntity
  8
0
 62
7
100
AcDbPolyline
 90
4
 70
0
 10
60.292449
 20
235.578508
 30
0.0
 10
60.292449
 20
237.712356
 30
0.0
 10
60.548398
 20
237.982523
 30
0.0
 10
62.055646
 20
237.982523
 30
0.0
  0
LWPOLYLINE
  5
1d9
100
AcDbEntity
  8
0
 62
7
100
AcDbPolyline
 90
4
 70
0
 10
127.708647
 20
204.479181
 30
0.0
 10
128.296161
 20
204.994190
 30
0.0
 10
128.379550
 20
204.994190
 30
0.0
 10
128.379550
 20
203.145595
 30
0.0
  0
LWPOLYLINE
  5
1da
100
AcDbEntity
  8
0
 62
7
100
AcDbPolyline
 90
11
 70
0
 10
133.725095
 20
204.680967
 30
0.0
 10
133.725095
 20
204.798959
 30
0.0
 10
133.883890
 20
204.994578
 30
0.0
 10
135.124006
 20
204.994578
 30
0.0
 10
135.265158
 20
204.808275
 30
0.0
 10
135.265158
 20
204.212104
 30
0.0
 10
135.124006
 20
204.035115
 30
0.0
 10
133.876328
 20
204.035115
 30
0.0
 10
133.725095
 20
203.848812
 30
0.0
 10
133.725095
 20
203.145361
 30
0.0
 10
135.328172
 20
203.145361
 30
0.0
  0
LWPOLYLINE
  5
1db
100
AcDbEntity
  8
0
 62
7
100
AcDbPolyline
 90
8
 70
1
 10
85.715747
 20
205.625912
 30
0.0
 10
85.715747
 20
204.673719
 30
0.0
 10
85.829746
 20
204.566520
 30
0.0
 10
86.825739
 20
204.566520
 30
0.0
 10
86.943738
 20
204.679919
 30
0.0
 10
86.943738
 20
205.649912
 30
0.0
 10
86.843739
 20
205.749911
 30
0.0
 10
85.841746
 20
205.749911
 30
0.0
  0
LWPOLYLINE
  5
1dc
100
AcDbEntity
  8
0
 62
7
100
AcDbPolyline
 90
2
 70
0
 10
85.727747
 20
204.679919
 30
0.0
 10
86.931738
 20
205.655912
 30
0.0
  0
LWPOLYLINE
  5
1dd
100
AcDbEntity
  8
0
 62
7
100
AcDbPolyline
 90
2
 70
0
 10
149.647682
 20
214.927134
 30
0.0
 10
151.012142
 20
214.927134
 30
0.0
  0
LWPOLYLINE
  5
1de
100
AcDbEntity
  8
0
 62
7
100
AcDbPolyline
 90
2
 70
0
 10
166.322701
 20
214.060463
 30
0.0
 10
166.322701
 20
215.793755
 30
0.0
  0
LWPOLYLINE
  5
1df
100
AcDbEntity
  8
0
 62
7
100
AcDbPolyline
 90
2
 70
0
 10
165.464875
 20
214.931897
 30
0.0
 10
167.194639
 20
214.931897
 30
0.0
  0
LWPOLYLINE
  5
1e0
100
AcDbEntity
  8
0
 62
7
100
AcDbPolyline
 90
2
 70
0
 10
113.790554
 20
214.927139
 30
0.0
 10
115.155014
 20
214.927139
 30
0.0
  0
LWPOLYLINE
  5
1e1
100
AcDbEntity
  8
0
 62
7
100
AcDbPolyline
 90
2
 70
0
 10
130.466102
 20
214.060463
 30
0.0
 10
130.466102
 20
215.793755
 30
0.0
  0
LWPOLYLINE
  5
1e2
100
AcDbEntity
  8
0
 62
7
100
AcDbPolyline
 90
2
 70
0
 10
129.608277
 20
214.931897
 30
0.0
 10
131.338040
 20
214.931897
 30
0.0
  0
LWPOLYLINE
  5
1e3
100
AcDbEntity
  8
0
 62
7
100
AcDbPolyline
 90
2
 70
0
 10
56.346816
 20
181.502143
 30
0.0
 10
57.688486
 20
183.071966
 30
0.0
  0
LWPOLYLINE
  5
1e4
100
AcDbEntity
  8
0
 62
7
100
AcDbPolyline
 90
7
 70
0
 10
59.906793
 20
181.429087
 30
0.0
 10
58.263045
 20
181.429087
 30
0.0
 10
58.263045
 20
182.315320
 30
0.0
 10
59.579203
 20
182.315320
 30
0.0
 10
58.263045
 20
182.315320
 30
0.0
 10
58.263045
 20
183.144441
 30
0.0
 10
59.898096
 20
183.144441
 30
0.0
  0
LWPOLYLINE
  5
1e5
100
AcDbEntity
  8
0
 62
7
100
AcDbPolyline
 90
5
 70
0
 10
60.246357
 20
181.438074
 30
0.0
 10
60.246357
 20
182.853089
 30
0.0
 10
61.487141
 20
182.853089
 30
0.0
 10
61.623395
 20
182.716835
 30
0.0
 10
61.623395
 20
181.429087
 30
0.0
  0
LWPOLYLINE
  5
1e6
100
AcDbEntity
  8
0
 62
7
100
AcDbPolyline
 90
3
 70
0
 10
61.970899
 20
182.854539
 30
0.0
 10
62.802920
 20
181.346755
 30
0.0
 10
63.678426
 20
182.871933
 30
0.0
  0
LWPOLYLINE
  5
1e7
100
AcDbEntity
  8
0
 62
7
100
AcDbPolyline
 90
2
 70
0
 10
90.032305
 20
181.585691
 30
0.0
 10
91.255359
 20
183.016728
 30
0.0
  0
LWPOLYLINE
  5
1e8
100
AcDbEntity
  8
0
 62
7
100
AcDbPolyline
 90
7
 70
0
 10
93.748414
 20
181.444041
 30
0.0
 10
92.249988
 20
181.444041
 30
0.0
 10
92.249988
 20
182.251922
 30
0.0
 10
93.449786
 20
182.251922
 30
0.0
 10
92.249988
 20
182.251922
 30
0.0
 10
92.249988
 20
183.007742
 30
0.0
 10
93.740486
 20
183.007742
 30
0.0
  0
LWPOLYLINE
  5
1e9
100
AcDbEntity
  8
0
 62
7
100
AcDbPolyline
 90
5
 70
0
 10
94.108172
 20
181.444041
 30
0.0
 10
94.108172
 20
182.733956
 30
0.0
 10
95.239261
 20
182.733956
 30
0.0
 10
95.363469
 20
182.609748
 30
0.0
 10
95.363469
 20
181.435848
 30
0.0
  0
LWPOLYLINE
  5
1ea
100
AcDbEntity
  8
0
 62
7
100
AcDbPolyline
 90
3
 70
0
 10
95.688523
 20
182.818523
 30
0.0
 10
96.446986
 20
181.444041
 30
0.0
 10
97.245089
 20
182.834379
 30
0.0
  0
LWPOLYLINE
  5
1eb
100
AcDbEntity
  8
0
 62
7
100
AcDbPolyline
 90
4
 70
1
 10
97.216287
 20
181.560849
 30
0.0
 10
97.216287
 20
181.469147
 30
0.0
 10
97.340496
 20
181.469147
 30
0.0
 10
97.340496
 20
181.560849
 30
0.0
  0
LWPOLYLINE
  5
1ec
100
AcDbEntity
  8
0
 62
7
100
AcDbPolyline
 90
10
 70
0
 10
98.029986
 20
181.460690
 30
0.0
 10
98.029986
 20
182.749812
 30
0.0
 10
98.920585
 20
182.749812
 30
0.0
 10
99.044793
 20
182.633532
 30
0.0
 10
99.044793
 20
181.435848
 30
0.0
 10
99.044793
 20
182.633532
 30
0.0
 10
99.161073
 20
182.749812
 30
0.0
 10
99.911608
 20
182.749812
 30
0.0
 10
100.043744
 20
182.617676
 30
0.0
 10
100.043744
 20
181.444041
 30
0.0
  0
LWPOLYLINE
  5
1ed
100
AcDbEntity
  8
0
 62
7
100
AcDbPolyline
 90
8
 70
1
 10
100.493110
 20
182.593891
 30
0.0
 10
100.493110
 20
181.668937
 30
0.0
 10
100.633175
 20
181.519094
 30
0.0
 10
101.600413
 20
181.519094
 30
0.0
 10
101.732549
 20
181.652288
 30
0.0
 10
101.732549
 20
182.652031
 30
0.0
 10
101.616269
 20
182.776240
 30
0.0
 10
100.659602
 20
182.776240
 30
0.0
  0
LWPOLYLINE
  5
1ee
100
AcDbEntity
  8
0
 62
7
100
AcDbPolyline
 90
8
 70
0
 10
103.514051
 20
183.283643
 30
0.0
 10
103.514051
 20
181.519094
 30
0.0
 10
102.372393
 20
181.519094
 30
0.0
 10
102.222815
 20
181.677129
 30
0.0
 10
102.222815
 20
182.601819
 30
0.0
 10
102.364465
 20
182.741884
 30
0.0
 10
103.379272
 20
182.741884
 30
0.0
 10
103.503481
 20
182.625604
 30
0.0
  0
LWPOLYLINE
  5
1ef
100
AcDbEntity
  8
0
 62
7
100
AcDbPolyline
 90
2
 70
0
 10
77.790551
 20
214.927134
 30
0.0
 10
79.155011
 20
214.927134
 30
0.0
  0
LWPOLYLINE
  5
1f0
100
AcDbEntity
  8
0
 62
7
100
AcDbPolyline
 90
2
 70
0
 10
94.466893
 20
214.060463
 30
0.0
 10
94.466893
 20
215.793755
 30
0.0
  0
LWPOLYLINE
  5
1f1
100
AcDbEntity
  8
0
 62
7
100
AcDbPolyline
 90
2
 70
0
 10
93.609068
 20
214.931897
 30
0.0
 10
95.338831
 20
214.931897
 30
0.0
  0
LWPOLYLINE
  5
1f2
100
AcDbEntity
  8
0
 62
7
100
AcDbPolyline
 90
2
 70
0
 10
41.790813
 20
214.927134
 30
0.0
 10
43.155273
 20
214.927134
 30
0.0
  0
LWPOLYLINE
  5
1f3
100
AcDbEntity
  8
0
 62
7
100
AcDbPolyline
 90
2
 70
0
 10
58.465038
 20
214.060463
 30
0.0
 10
58.465038
 20
215.793755
 30
0.0
  0
LWPOLYLINE
  5
1f4
100
AcDbEntity
  8
0
 62
7
100
AcDbPolyline
 90
2
 70
0
 10
57.607213
 20
214.931897
 30
0.0
 10
59.336976
 20
214.931897
 30
0.0
  0
LWPOLYLINE
  5
1f5
100
AcDbEntity
  8
0
 62
7
100
AcDbPolyline
 90
2
 70
0
 10
41.790813
 20
184.925904
 30
0.0
 10
43.155273
 20
184.925904
 30
0.0
  0
LWPOLYLINE
  5
1f6
100
AcDbEntity
  8
0
 62
7
100
AcDbPolyline
 90
2
 70
0
 10
58.465038
 20
184.059358
 30
0.0
 10
58.465038
 20
185.792650
 30
0.0
  0
LWPOLYLINE
  5
1f7
100
AcDbEntity
  8
0
 62
7
100
AcDbPolyline
 90
2
 70
0
 10
57.607213
 20
184.930792
 30
0.0
 10
59.336976
 20
184.930792
 30
0.0
  0
LWPOLYLINE
  5
1f8
100
AcDbEntity
  8
0
 62
7
100
AcDbPolyline
 90
2
 70
0
 10
77.790551
 20
184.925904
 30
0.0
 10
79.155011
 20
184.925904
 30
0.0
  0
LWPOLYLINE
  5
1f9
100
AcDbEntity
  8
0
 62
7
100
AcDbPolyline
 90
2
 70
0
 10
94.466893
 20
184.059358
 30
0.0
 10
94.466893
 20
185.792650
 30
0.0
  0
LWPOLYLINE
  5
1fa
100
AcDbEntity
  8
0
 62
7
100
AcDbPolyline
 90
2
 70
0
 10
93.609068
 20
184.930792
 30
0.0
 10
95.338831
 20
184.930792
 30
0.0
  0
LWPOLYLINE
  5
1fb
100
AcDbEntity
  8
0
 62
7
100
AcDbPolyline
 90
4
 70
0
 10
25.276825
 20
140.410597
 30
0.0
 10
25.276825
 20
147.052928
 30
0.0
 10
25.276825
 20
147.052928
 30
0.0
 10
25.276825
 20
147.052928
 30
0.0
  0
SPLINE
  5
1fc
100
AcDbEntity
  8
MODELSKETCH_VISIBLE
 62
7
100
AcDbSpline
 70
8
 71
3
 72
8
 73
4
 74
0
 40
0
 40
0
 40
0
 40
0
 40
1
 40
1
 40
1
 40
1
 10
115.079743
 20
200.069989
 30
0.0
 10
115.078823
 20
201.035836
 30
0.0
 10
114.295591
 20
201.818322
 30
0.0
 10
113.329744
 20
201.818322
 30
0.0
  0
SPLINE
  5
1fd
100
AcDbEntity
  8
MODELSKETCH_VISIBLE
 62
7
100
AcDbSpline
 70
8
 71
3
 72
8
 73
4
 74
0
 40
0
 40
0
 40
0
 40
0
 40
1
 40
1
 40
1
 40
1
 10
113.329744
 20
201.818322
 30
0.0
 10
112.363896
 20
201.818322
 30
0.0
 10
111.580664
 20
201.035836
 30
0.0
 10
111.579744
 20
200.069989
 30
0.0
  0
SPLINE
  5
1fe
100
AcDbEntity
  8
MODELSKETCH_VISIBLE
 62
7
100
AcDbSpline
 70
8
 71
3
 72
8
 73
4
 74
0
 40
0
 40
0
 40
0
 40
0
 40
1
 40
1
 40
1
 40
1
 10
111.579744
 20
200.069989
 30
0.0
 10
111.580664
 20
199.104142
 30
0.0
 10
112.363896
 20
198.321656
 30
0.0
 10
113.329744
 20
198.321656
 30
0.0
  0
SPLINE
  5
1ff
100
AcDbEntity
  8
MODELSKETCH_VISIBLE
 62
7
100
AcDbSpline
 70
8
 71
3
 72
8
 73
4
 74
0
 40
0
 40
0
 40
0
 40
0
 40
1
 40
1
 40
1
 40
1
 10
113.329744
 20
198.321656
 30
0.0
 10
114.295591
 20
198.321656
 30
0.0
 10
115.078823
 20
199.104142
 30
0.0
 10
115.079743
 20
200.069989
 30
0.0
  0
LWPOLYLINE
  5
200
100
AcDbEntity
  8
0
 62
7
100
AcDbPolyline
 90
3
 70
0
 10
22.824179
 20
145.517072
 30
0.0
 10
25.276825
 20
145.517072
 30
0.0
 10
25.276825
 20
142.963834
 30
0.0
  0
SPLINE
  5
201
100
AcDbEntity
  8
MODELSKETCH_VISIBLE
 62
7
100
AcDbSpline
 70
8
 71
3
 72
8
 73
4
 74
0
 40
0
 40
0
 40
0
 40
0
 40
1
 40
1
 40
1
 40
1
 10
171.079746
 20
193.069989
 30
0.0
 10
171.079746
 20
194.409736
 30
0.0
 10
170.365000
 20
195.647712
 30
0.0
 10
169.204746
 20
196.317585
 30
0.0
  0
SPLINE
  5
202
100
AcDbEntity
  8
MODELSKETCH_VISIBLE
 62
7
100
AcDbSpline
 70
8
 71
3
 72
8
 73
4
 74
0
 40
0
 40
0
 40
0
 40
0
 40
1
 40
1
 40
1
 40
1
 10
169.204746
 20
196.317585
 30
0.0
 10
168.044491
 20
196.987458
 30
0.0
 10
166.614999
 20
196.987458
 30
0.0
 10
165.454745
 20
196.317585
 30
0.0
  0
SPLINE
  5
203
100
AcDbEntity
  8
MODELSKETCH_VISIBLE
 62
7
100
AcDbSpline
 70
8
 71
3
 72
8
 73
4
 74
0
 40
0
 40
0
 40
0
 40
0
 40
1
 40
1
 40
1
 40
1
 10
165.454745
 20
196.317585
 30
0.0
 10
164.294491
 20
195.647712
 30
0.0
 10
163.579745
 20
194.409736
 30
0.0
 10
163.579745
 20
193.069989
 30
0.0
  0
SPLINE
  5
204
100
AcDbEntity
  8
MODELSKETCH_VISIBLE
 62
7
100
AcDbSpline
 70
8
 71
3
 72
8
 73
4
 74
0
 40
0
 40
0
 40
0
 40
0
 40
1
 40
1
 40
1
 40
1
 10
163.579745
 20
193.069989
 30
0.0
 10
163.579745
 20
191.730243
 30
0.0
 10
164.294491
 20
190.492267
 30
0.0
 10
165.454745
 20
189.822394
 30
0.0
  0
SPLINE
  5
205
100
AcDbEntity
  8
MODELSKETCH_VISIBLE
 62
7
100
AcDbSpline
 70
8
 71
3
 72
8
 73
4
 74
0
 40
0
 40
0
 40
0
 40
0
 40
1
 40
1
 40
1
 40
1
 10
165.454745
 20
189.822394
 30
0.0
 10
166.614999
 20
189.152521
 30
0.0
 10
168.044491
 20
189.152521
 30
0.0
 10
169.204746
 20
189.822394
 30
0.0
  0
SPLINE
  5
206
100
AcDbEntity
  8
MODELSKETCH_VISIBLE
 62
7
100
AcDbSpline
 70
8
 71
3
 72
8
 73
4
 74
0
 40
0
 40
0
 40
0
 40
0
 40
1
 40
1
 40
1
 40
1
 10
169.204746
 20
189.822394
 30
0.0
 10
170.365000
 20
190.492267
 30
0.0
 10
171.079746
 20
191.730243
 30
0.0
 10
171.079746
 20
193.069989
 30
0.0
  0
LWPOLYLINE
  5
207
100
AcDbEntity
  8
MODELSKETCH_VISIBLE
 62
7
100
AcDbPolyline
 90
1
 70
1
 10
115.079743
 20
200.069989
 30
0.0
  0
SPLINE
  5
208
100
AcDbEntity
  8
MODELSKETCH_VISIBLE
 62
7
100
AcDbSpline
 70
8
 71
3
 72
8
 73
4
 74
0
 40
0
 40
0
 40
0
 40
0
 40
1
 40
1
 40
1
 40
1
 10
135.079743
 20
193.069989
 30
0.0
 10
135.078396
 20
195.140104
 30
0.0
 10
133.399859
 20
196.817550
 30
0.0
 10
131.329744
 20
196.817550
 30
0.0
  0
SPLINE
  5
209
100
AcDbEntity
  8
MODELSKETCH_VISIBLE
 62
7
100
AcDbSpline
 70
8
 71
3
 72
8
 73
4
 74
0
 40
0
 40
0
 40
0
 40
0
 40
1
 40
1
 40
1
 40
1
 10
131.329744
 20
196.817550
 30
0.0
 10
129.259629
 20
196.817550
 30
0.0
 10
127.581091
 20
195.140104
 30
0.0
 10
127.579745
 20
193.069989
 30
0.0
  0
SPLINE
  5
20a
100
AcDbEntity
  8
MODELSKETCH_VISIBLE
 62
7
100
AcDbSpline
 70
8
 71
3
 72
8
 73
4
 74
0
 40
0
 40
0
 40
0
 40
0
 40
1
 40
1
 40
1
 40
1
 10
127.579745
 20
193.069989
 30
0.0
 10
127.581091
 20
190.999875
 30
0.0
 10
129.259629
 20
189.322429
 30
0.0
 10
131.329744
 20
189.322429
 30
0.0
  0
SPLINE
  5
20b
100
AcDbEntity
  8
MODELSKETCH_VISIBLE
 62
7
100
AcDbSpline
 70
8
 71
3
 72
8
 73
4
 74
0
 40
0
 40
0
 40
0
 40
0
 40
1
 40
1
 40
1
 40
1
 10
131.329744
 20
189.322429
 30
0.0
 10
133.399859
 20
189.322429
 30
0.0
 10
135.078396
 20
190.999875
 30
0.0
 10
135.079743
 20
193.069989
 30
0.0
  0
LWPOLYLINE
  5
20c
100
AcDbEntity
  8
MODELSKETCH_VISIBLE
 62
7
100
AcDbPolyline
 90
1
 70
1
 10
171.079746
 20
193.069989
 30
0.0
  0
SPLINE
  5
20d
100
AcDbEntity
  8
MODELSKETCH_VISIBLE
 62
7
100
AcDbSpline
 70
8
 71
3
 72
8
 73
4
 74
0
 40
0
 40
0
 40
0
 40
0
 40
1
 40
1
 40
1
 40
1
 10
90.079742
 20
193.069989
 30
0.0
 10
90.078395
 20
195.140104
 30
0.0
 10
88.399858
 20
196.817550
 30
0.0
 10
86.329743
 20
196.817550
 30
0.0
  0
SPLINE
  5
20e
100
AcDbEntity
  8
MODELSKETCH_VISIBLE
 62
7
100
AcDbSpline
 70
8
 71
3
 72
8
 73
4
 74
0
 40
0
 40
0
 40
0
 40
0
 40
1
 40
1
 40
1
 40
1
 10
86.329743
 20
196.817550
 30
0.0
 10
84.259628
 20
196.817550
 30
0.0
 10
82.581091
 20
195.140104
 30
0.0
 10
82.579744
 20
193.069989
 30
0.0
  0
SPLINE
  5
20f
100
AcDbEntity
  8
MODELSKETCH_VISIBLE
 62
7
100
AcDbSpline
 70
8
 71
3
 72
8
 73
4
 74
0
 40
0
 40
0
 40
0
 40
0
 40
1
 40
1
 40
1
 40
1
 10
82.579744
 20
193.069989
 30
0.0
 10
82.581091
 20
190.999875
 30
0.0
 10
84.259628
 20
189.322429
 30
0.0
 10
86.329743
 20
189.322429
 30
0.0
  0
SPLINE
  5
210
100
AcDbEntity
  8
MODELSKETCH_VISIBLE
 62
7
100
AcDbSpline
 70
8
 71
3
 72
8
 73
4
 74
0
 40
0
 40
0
 40
0
 40
0
 40
1
 40
1
 40
1
 40
1
 10
86.329743
 20
189.322429
 30
0.0
 10
88.399858
 20
189.322429
 30
0.0
 10
90.078395
 20
190.999875
 30
0.0
 10
90.079742
 20
193.069989
 30
0.0
  0
LWPOLYLINE
  5
211
100
AcDbEntity
  8
MODELSKETCH_VISIBLE
 62
7
100
AcDbPolyline
 90
1
 70
1
 10
135.079743
 20
193.069989
 30
0.0
  0
SPLINE
  5
212
100
AcDbEntity
  8
MODELSKETCH_VISIBLE
 62
7
100
AcDbSpline
 70
8
 71
3
 72
8
 73
4
 74
0
 40
0
 40
0
 40
0
 40
0
 40
1
 40
1
 40
1
 40
1
 10
149.829746
 20
153.069989
 30
0.0
 10
149.829745
 20
152.517705
 30
0.0
 10
150.277459
 20
152.069990
 30
0.0
 10
150.829744
 20
152.069989
 30
0.0
  0
SPLINE
  5
213
100
AcDbEntity
  8
MODELSKETCH_VISIBLE
 62
7
100
AcDbSpline
 70
8
 71
3
 72
8
 73
4
 74
0
 40
0
 40
0
 40
0
 40
0
 40
1
 40
1
 40
1
 40
1
 10
162.079745
 20
223.069991
 30
0.0
 10
162.079745
 20
225.141059
 30
0.0
 10
160.400813
 20
226.819991
 30
0.0
 10
158.329745
 20
226.819991
 30
0.0
  0
SPLINE
  5
214
100
AcDbEntity
  8
MODELSKETCH_VISIBLE
 62
7
100
AcDbSpline
 70
8
 71
3
 72
8
 73
4
 74
0
 40
0
 40
0
 40
0
 40
0
 40
1
 40
1
 40
1
 40
1
 10
158.329745
 20
226.819991
 30
0.0
 10
156.258677
 20
226.819991
 30
0.0
 10
154.579744
 20
225.141059
 30
0.0
 10
154.579744
 20
223.069991
 30
0.0
  0
SPLINE
  5
215
100
AcDbEntity
  8
MODELSKETCH_VISIBLE
 62
7
100
AcDbSpline
 70
8
 71
3
 72
8
 73
4
 74
0
 40
0
 40
0
 40
0
 40
0
 40
1
 40
1
 40
1
 40
1
 10
154.579744
 20
223.069991
 30
0.0
 10
154.579744
 20
220.998923
 30
0.0
 10
156.258677
 20
219.319991
 30
0.0
 10
158.329745
 20
219.319991
 30
0.0
  0
SPLINE
  5
216
100
AcDbEntity
  8
MODELSKETCH_VISIBLE
 62
7
100
AcDbSpline
 70
8
 71
3
 72
8
 73
4
 74
0
 40
0
 40
0
 40
0
 40
0
 40
1
 40
1
 40
1
 40
1
 10
158.329745
 20
219.319991
 30
0.0
 10
160.400813
 20
219.319991
 30
0.0
 10
162.079745
 20
220.998923
 30
0.0
 10
162.079745
 20
223.069991
 30
0.0
  0
LWPOLYLINE
  5
217
100
AcDbEntity
  8
MODELSKETCH_VISIBLE
 62
7
100
AcDbPolyline
 90
1
 70
1
 10
90.079742
 20
193.069989
 30
0.0
  0
SPLINE
  5
218
100
AcDbEntity
  8
MODELSKETCH_VISIBLE
 62
7
100
AcDbSpline
 70
8
 71
3
 72
8
 73
4
 74
0
 40
0
 40
0
 40
0
 40
0
 40
1
 40
1
 40
1
 40
1
 10
165.829746
 20
152.069989
 30
0.0
 10
166.382030
 20
152.069990
 30
0.0
 10
166.829744
 20
152.517705
 30
0.0
 10
166.829744
 20
153.069989
 30
0.0
  0
SPLINE
  5
219
100
AcDbEntity
  8
MODELSKETCH_VISIBLE
 62
7
100
AcDbSpline
 70
8
 71
3
 72
8
 73
4
 74
0
 40
0
 40
0
 40
0
 40
0
 40
1
 40
1
 40
1
 40
1
 10
166.829744
 20
177.069989
 30
0.0
 10
166.829744
 20
177.622274
 30
0.0
 10
166.382030
 20
178.069989
 30
0.0
 10
165.829746
 20
178.069990
 30
0.0
  0
SPLINE
  5
21a
100
AcDbEntity
  8
MODELSKETCH_VISIBLE
 62
7
100
AcDbSpline
 70
8
 71
3
 72
8
 73
4
 74
0
 40
0
 40
0
 40
0
 40
0
 40
1
 40
1
 40
1
 40
1
 10
90.079742
 20
223.069991
 30
0.0
 10
90.078395
 20
225.140106
 30
0.0
 10
88.399858
 20
226.817551
 30
0.0
 10
86.329743
 20
226.817551
 30
0.0
  0
SPLINE
  5
21b
100
AcDbEntity
  8
MODELSKETCH_VISIBLE
 62
7
100
AcDbSpline
 70
8
 71
3
 72
8
 73
4
 74
0
 40
0
 40
0
 40
0
 40
0
 40
1
 40
1
 40
1
 40
1
 10
86.329743
 20
226.817551
 30
0.0
 10
84.259628
 20
226.817551
 30
0.0
 10
82.581091
 20
225.140106
 30
0.0
 10
82.579744
 20
223.069991
 30
0.0
  0
SPLINE
  5
21c
100
AcDbEntity
  8
MODELSKETCH_VISIBLE
 62
7
100
AcDbSpline
 70
8
 71
3
 72
8
 73
4
 74
0
 40
0
 40
0
 40
0
 40
0
 40
1
 40
1
 40
1
 40
1
 10
82.579744
 20
223.069991
 30
0.0
 10
82.581091
 20
220.999876
 30
0.0
 10
84.259628
 20
219.322431
 30
0.0
 10
86.329743
 20
219.322431
 30
0.0
  0
SPLINE
  5
21d
100
AcDbEntity
  8
MODELSKETCH_VISIBLE
 62
7
100
AcDbSpline
 70
8
 71
3
 72
8
 73
4
 74
0
 40
0
 40
0
 40
0
 40
0
 40
1
 40
1
 40
1
 40
1
 10
86.329743
 20
219.322431
 30
0.0
 10
88.399858
 20
219.322431
 30
0.0
 10
90.078395
 20
220.999876
 30
0.0
 10
90.079742
 20
223.069991
 30
0.0
  0
LWPOLYLINE
  5
21e
100
AcDbEntity
  8
MODELSKETCH_VISIBLE
 62
7
100
AcDbPolyline
 90
1
 70
1
 10
162.079745
 20
223.069991
 30
0.0
  0
SPLINE
  5
21f
100
AcDbEntity
  8
MODELSKETCH_VISIBLE
 62
7
100
AcDbSpline
 70
8
 71
3
 72
8
 73
4
 74
0
 40
0
 40
0
 40
0
 40
0
 40
1
 40
1
 40
1
 40
1
 10
150.829744
 20
178.069990
 30
0.0
 10
150.277459
 20
178.069989
 30
0.0
 10
149.829745
 20
177.622274
 30
0.0
 10
149.829746
 20
177.069989
 30
0.0
  0
LWPOLYLINE
  5
220
100
AcDbEntity
  8
MODELSKETCH_VISIBLE
 62
7
100
AcDbPolyline
 90
1
 70
1
 10
90.079742
 20
223.069991
 30
0.0
  0
SPLINE
  5
221
100
AcDbEntity
  8
MODELSKETCH_VISIBLE
 62
7
100
AcDbSpline
 70
8
 71
3
 72
8
 73
4
 74
0
 40
0
 40
0
 40
0
 40
0
 40
1
 40
1
 40
1
 40
1
 10
130.829743
 20
177.069989
 30
0.0
 10
130.829744
 20
177.622274
 30
0.0
 10
130.382030
 20
178.069989
 30
0.0
 10
129.829745
 20
178.069990
 30
0.0
  0
LWPOLYLINE
  5
222
100
AcDbEntity
  8
MODELSKETCH_VISIBLE
 62
7
100
AcDbPolyline
 90
2
 70
0
 10
166.829619
 20
177.070550
 30
0.0
 10
166.829619
 20
153.070196
 30
0.0
  0
SPLINE
  5
223
100
AcDbEntity
  8
MODELSKETCH_VISIBLE
 62
7
100
AcDbSpline
 70
8
 71
3
 72
8
 73
4
 74
0
 40
0
 40
0
 40
0
 40
0
 40
1
 40
1
 40
1
 40
1
 10
54.079742
 20
193.069989
 30
0.0
 10
54.078187
 20
195.139957
 30
0.0
 10
52.399710
 20
196.817172
 30
0.0
 10
50.329743
 20
196.817172
 30
0.0
  0
SPLINE
  5
224
100
AcDbEntity
  8
MODELSKETCH_VISIBLE
 62
7
100
AcDbSpline
 70
8
 71
3
 72
8
 73
4
 74
0
 40
0
 40
0
 40
0
 40
0
 40
1
 40
1
 40
1
 40
1
 10
50.329743
 20
196.817172
 30
0.0
 10
48.259775
 20
196.817172
 30
0.0
 10
46.581299
 20
195.139957
 30
0.0
 10
46.579743
 20
193.069989
 30
0.0
  0
SPLINE
  5
225
100
AcDbEntity
  8
MODELSKETCH_VISIBLE
 62
7
100
AcDbSpline
 70
8
 71
3
 72
8
 73
4
 74
0
 40
0
 40
0
 40
0
 40
0
 40
1
 40
1
 40
1
 40
1
 10
46.579743
 20
193.069989
 30
0.0
 10
46.581299
 20
191.000022
 30
0.0
 10
48.259775
 20
189.322807
 30
0.0
 10
50.329743
 20
189.322807
 30
0.0
  0
SPLINE
  5
226
100
AcDbEntity
  8
MODELSKETCH_VISIBLE
 62
7
100
AcDbSpline
 70
8
 71
3
 72
8
 73
4
 74
0
 40
0
 40
0
 40
0
 40
0
 40
1
 40
1
 40
1
 40
1
 10
50.329743
 20
189.322807
 30
0.0
 10
52.399710
 20
189.322807
 30
0.0
 10
54.078187
 20
191.000022
 30
0.0
 10
54.079742
 20
193.069989
 30
0.0
  0
LWPOLYLINE
  5
227
100
AcDbEntity
  8
MODELSKETCH_VISIBLE
 62
7
100
AcDbPolyline
 90
2
 70
0
 10
149.829875
 20
177.070550
 30
0.0
 10
149.829875
 20
153.070196
 30
0.0
  0
SPLINE
  5
228
100
AcDbEntity
  8
MODELSKETCH_VISIBLE
 62
7
100
AcDbSpline
 70
8
 71
3
 72
8
 73
4
 74
0
 40
0
 40
0
 40
0
 40
0
 40
1
 40
1
 40
1
 40
1
 10
25.329742
 20
150.569989
 30
0.0
 10
25.329742
 20
147.808565
 30
0.0
 10
27.568318
 20
145.569989
 30
0.0
 10
30.329741
 20
145.569988
 30
0.0
  0
SPLINE
  5
229
100
AcDbEntity
  8
MODELSKETCH_VISIBLE
 62
7
100
AcDbSpline
 70
8
 71
3
 72
8
 73
4
 74
0
 40
0
 40
0
 40
0
 40
0
 40
1
 40
1
 40
1
 40
1
 10
178.329745
 20
145.569988
 30
0.0
 10
179.655827
 20
145.569988
 30
0.0
 10
180.927597
 20
146.096772
 30
0.0
 10
181.865279
 20
147.034454
 30
0.0
  0
SPLINE
  5
22a
100
AcDbEntity
  8
MODELSKETCH_VISIBLE
 62
7
100
AcDbSpline
 70
8
 71
3
 72
8
 73
4
 74
0
 40
0
 40
0
 40
0
 40
0
 40
1
 40
1
 40
1
 40
1
 10
181.865279
 20
147.034454
 30
0.0
 10
182.802961
 20
147.972136
 30
0.0
 10
183.329746
 20
149.243906
 30
0.0
 10
183.329745
 20
150.569989
 30
0.0
  0
SPLINE
  5
22b
100
AcDbEntity
  8
MODELSKETCH_VISIBLE
 62
7
100
AcDbSpline
 70
8
 71
3
 72
8
 73
4
 74
0
 40
0
 40
0
 40
0
 40
0
 40
1
 40
1
 40
1
 40
1
 10
169.079744
 20
200.069989
 30
0.0
 10
169.078825
 20
201.035836
 30
0.0
 10
168.295593
 20
201.818322
 30
0.0
 10
167.329745
 20
201.818322
 30
0.0
  0
SPLINE
  5
22c
100
AcDbEntity
  8
MODELSKETCH_VISIBLE
 62
7
100
AcDbSpline
 70
8
 71
3
 72
8
 73
4
 74
0
 40
0
 40
0
 40
0
 40
0
 40
1
 40
1
 40
1
 40
1
 10
167.329745
 20
201.818322
 30
0.0
 10
166.363898
 20
201.818322
 30
0.0
 10
165.580666
 20
201.035836
 30
0.0
 10
165.579746
 20
200.069989
 30
0.0
  0
SPLINE
  5
22d
100
AcDbEntity
  8
MODELSKETCH_VISIBLE
 62
7
100
AcDbSpline
 70
8
 71
3
 72
8
 73
4
 74
0
 40
0
 40
0
 40
0
 40
0
 40
1
 40
1
 40
1
 40
1
 10
165.579746
 20
200.069989
 30
0.0
 10
165.580666
 20
199.104142
 30
0.0
 10
166.363898
 20
198.321656
 30
0.0
 10
167.329745
 20
198.321656
 30
0.0
  0
SPLINE
  5
22e
100
AcDbEntity
  8
MODELSKETCH_VISIBLE
 62
7
100
AcDbSpline
 70
8
 71
3
 72
8
 73
4
 74
0
 40
0
 40
0
 40
0
 40
0
 40
1
 40
1
 40
1
 40
1
 10
167.329745
 20
198.321656
 30
0.0
 10
168.295593
 20
198.321656
 30
0.0
 10
169.078825
 20
199.104142
 30
0.0
 10
169.079744
 20
200.069989
 30
0.0
  0
LWPOLYLINE
  5
22f
100
AcDbEntity
  8
MODELSKETCH_VISIBLE
 62
7
100
AcDbPolyline
 90
1
 70
1
 10
54.079742
 20
193.069989
 30
0.0
  0
SPLINE
  5
230
100
AcDbEntity
  8
MODELSKETCH_VISIBLE
 62
7
100
AcDbSpline
 70
8
 71
3
 72
8
 73
4
 74
0
 40
0
 40
0
 40
0
 40
0
 40
1
 40
1
 40
1
 40
1
 10
121.079744
 20
200.069989
 30
0.0
 10
121.079744
 20
200.695204
 30
0.0
 10
120.746196
 20
201.272926
 30
0.0
 10
120.204744
 20
201.585534
 30
0.0
  0
SPLINE
  5
231
100
AcDbEntity
  8
MODELSKETCH_VISIBLE
 62
7
100
AcDbSpline
 70
8
 71
3
 72
8
 73
4
 74
0
 40
0
 40
0
 40
0
 40
0
 40
1
 40
1
 40
1
 40
1
 10
120.204744
 20
201.585534
 30
0.0
 10
119.663292
 20
201.898141
 30
0.0
 10
118.996195
 20
201.898141
 30
0.0
 10
118.454743
 20
201.585534
 30
0.0
  0
SPLINE
  5
232
100
AcDbEntity
  8
MODELSKETCH_VISIBLE
 62
7
100
AcDbSpline
 70
8
 71
3
 72
8
 73
4
 74
0
 40
0
 40
0
 40
0
 40
0
 40
1
 40
1
 40
1
 40
1
 10
118.454743
 20
201.585534
 30
0.0
 10
117.913291
 20
201.272926
 30
0.0
 10
117.579743
 20
200.695204
 30
0.0
 10
117.579743
 20
200.069989
 30
0.0
  0
SPLINE
  5
233
100
AcDbEntity
  8
MODELSKETCH_VISIBLE
 62
7
100
AcDbSpline
 70
8
 71
3
 72
8
 73
4
 74
0
 40
0
 40
0
 40
0
 40
0
 40
1
 40
1
 40
1
 40
1
 10
117.579743
 20
200.069989
 30
0.0
 10
117.579743
 20
199.444774
 30
0.0
 10
117.913291
 20
198.867051
 30
0.0
 10
118.454743
 20
198.554444
 30
0.0
  0
SPLINE
  5
234
100
AcDbEntity
  8
MODELSKETCH_VISIBLE
 62
7
100
AcDbSpline
 70
8
 71
3
 72
8
 73
4
 74
0
 40
0
 40
0
 40
0
 40
0
 40
1
 40
1
 40
1
 40
1
 10
118.454743
 20
198.554444
 30
0.0
 10
118.996195
 20
198.241836
 30
0.0
 10
119.663292
 20
198.241836
 30
0.0
 10
120.204744
 20
198.554444
 30
0.0
  0
SPLINE
  5
235
100
AcDbEntity
  8
MODELSKETCH_VISIBLE
 62
7
100
AcDbSpline
 70
8
 71
3
 72
8
 73
4
 74
0
 40
0
 40
0
 40
0
 40
0
 40
1
 40
1
 40
1
 40
1
 10
120.204744
 20
198.554444
 30
0.0
 10
120.746196
 20
198.867051
 30
0.0
 10
121.079744
 20
199.444774
 30
0.0
 10
121.079744
 20
200.069989
 30
0.0
  0
LWPOLYLINE
  5
236
100
AcDbEntity
  8
MODELSKETCH_VISIBLE
 62
7
100
AcDbPolyline
 90
1
 70
1
 10
169.079744
 20
200.069989
 30
0.0
  0
LWPOLYLINE
  5
237
100
AcDbEntity
  8
MODELSKETCH_VISIBLE
 62
7
100
AcDbPolyline
 90
1
 70
1
 10
121.079744
 20
200.069989
 30
0.0
  0
SPLINE
  5
238
100
AcDbEntity
  8
MODELSKETCH_VISIBLE
 62
7
100
AcDbSpline
 70
8
 71
3
 72
8
 73
4
 74
0
 40
0
 40
0
 40
0
 40
0
 40
1
 40
1
 40
1
 40
1
 10
30.329741
 20
240.569991
 30
0.0
 10
27.568318
 20
240.569990
 30
0.0
 10
25.329742
 20
238.331414
 30
0.0
 10
25.329742
 20
235.569990
 30
0.0
  0
LWPOLYLINE
  5
239
100
AcDbEntity
  8
MODELSKETCH_VISIBLE
 62
7
100
AcDbPolyline
 90
2
 70
0
 10
41.829867
 20
153.070196
 30
0.0
 10
41.829867
 20
177.070550
 30
0.0
  0
LWPOLYLINE
  5
23a
100
AcDbEntity
  8
MODELSKETCH_VISIBLE
 62
7
100
AcDbPolyline
 90
2
 70
0
 10
58.829611
 20
153.070196
 30
0.0
 10
58.829611
 20
177.070550
 30
0.0
  0
LWPOLYLINE
  5
23b
100
AcDbEntity
  8
MODELSKETCH_VISIBLE
 62
7
100
AcDbPolyline
 90
2
 70
0
 10
183.329830
 20
235.569927
 30
0.0
 10
183.329830
 20
150.569883
 30
0.0
  0
SPLINE
  5
23c
100
AcDbEntity
  8
MODELSKETCH_VISIBLE
 62
7
100
AcDbSpline
 70
8
 71
3
 72
8
 73
4
 74
0
 40
0
 40
0
 40
0
 40
0
 40
1
 40
1
 40
1
 40
1
 10
117.079744
 20
193.069989
 30
0.0
 10
117.079744
 20
195.141057
 30
0.0
 10
115.400812
 20
196.819990
 30
0.0
 10
113.329744
 20
196.819990
 30
0.0
  0
SPLINE
  5
23d
100
AcDbEntity
  8
MODELSKETCH_VISIBLE
 62
7
100
AcDbSpline
 70
8
 71
3
 72
8
 73
4
 74
0
 40
0
 40
0
 40
0
 40
0
 40
1
 40
1
 40
1
 40
1
 10
113.329744
 20
196.819990
 30
0.0
 10
111.258676
 20
196.819990
 30
0.0
 10
109.579743
 20
195.141057
 30
0.0
 10
109.579743
 20
193.069989
 30
0.0
  0
SPLINE
  5
23e
100
AcDbEntity
  8
MODELSKETCH_VISIBLE
 62
7
100
AcDbSpline
 70
8
 71
3
 72
8
 73
4
 74
0
 40
0
 40
0
 40
0
 40
0
 40
1
 40
1
 40
1
 40
1
 10
109.579743
 20
193.069989
 30
0.0
 10
109.579743
 20
191.730243
 30
0.0
 10
110.294489
 20
190.492267
 30
0.0
 10
111.454743
 20
189.822394
 30
0.0
  0
SPLINE
  5
23f
100
AcDbEntity
  8
MODELSKETCH_VISIBLE
 62
7
100
AcDbSpline
 70
8
 71
3
 72
8
 73
4
 74
0
 40
0
 40
0
 40
0
 40
0
 40
1
 40
1
 40
1
 40
1
 10
111.454743
 20
189.822394
 30
0.0
 10
112.614998
 20
189.152521
 30
0.0
 10
114.044490
 20
189.152521
 30
0.0
 10
115.204744
 20
189.822394
 30
0.0
  0
SPLINE
  5
240
100
AcDbEntity
  8
MODELSKETCH_VISIBLE
 62
7
100
AcDbSpline
 70
8
 71
3
 72
8
 73
4
 74
0
 40
0
 40
0
 40
0
 40
0
 40
1
 40
1
 40
1
 40
1
 10
115.204744
 20
189.822394
 30
0.0
 10
116.364998
 20
190.492267
 30
0.0
 10
117.079744
 20
191.730243
 30
0.0
 10
117.079744
 20
193.069989
 30
0.0
  0
LWPOLYLINE
  5
241
100
AcDbEntity
  8
MODELSKETCH_VISIBLE
 62
7
100
AcDbPolyline
 90
2
 70
0
 10
57.829750
 20
178.070675
 30
0.0
 10
42.829727
 20
178.070675
 30
0.0
  0
LWPOLYLINE
  5
242
100
AcDbEntity
  8
MODELSKETCH_VISIBLE
 62
7
100
AcDbPolyline
 90
1
 70
1
 10
117.079744
 20
193.069989
 30
0.0
  0
SPLINE
  5
243
100
AcDbEntity
  8
MODELSKETCH_VISIBLE
 62
7
100
AcDbSpline
 70
8
 71
3
 72
8
 73
4
 74
0
 40
0
 40
0
 40
0
 40
0
 40
1
 40
1
 40
1
 40
1
 10
136.079744
 20
200.069989
 30
0.0
 10
136.078824
 20
201.035836
 30
0.0
 10
135.295592
 20
201.818322
 30
0.0
 10
134.329744
 20
201.818322
 30
0.0
  0
SPLINE
  5
244
100
AcDbEntity
  8
MODELSKETCH_VISIBLE
 62
7
100
AcDbSpline
 70
8
 71
3
 72
8
 73
4
 74
0
 40
0
 40
0
 40
0
 40
0
 40
1
 40
1
 40
1
 40
1
 10
134.329744
 20
201.818322
 30
0.0
 10
133.363897
 20
201.818322
 30
0.0
 10
132.580665
 20
201.035836
 30
0.0
 10
132.579745
 20
200.069989
 30
0.0
  0
SPLINE
  5
245
100
AcDbEntity
  8
MODELSKETCH_VISIBLE
 62
7
100
AcDbSpline
 70
8
 71
3
 72
8
 73
4
 74
0
 40
0
 40
0
 40
0
 40
0
 40
1
 40
1
 40
1
 40
1
 10
132.579745
 20
200.069989
 30
0.0
 10
132.580665
 20
199.104142
 30
0.0
 10
133.363897
 20
198.321656
 30
0.0
 10
134.329744
 20
198.321656
 30
0.0
  0
SPLINE
  5
246
100
AcDbEntity
  8
MODELSKETCH_VISIBLE
 62
7
100
AcDbSpline
 70
8
 71
3
 72
8
 73
4
 74
0
 40
0
 40
0
 40
0
 40
0
 40
1
 40
1
 40
1
 40
1
 10
134.329744
 20
198.321656
 30
0.0
 10
135.295592
 20
198.321656
 30
0.0
 10
136.078824
 20
199.104142
 30
0.0
 10
136.079744
 20
200.069989
 30
0.0
  0
LWPOLYLINE
  5
247
100
AcDbEntity
  8
MODELSKETCH_VISIBLE
 62
7
100
AcDbPolyline
 90
2
 70
0
 10
25.329657
 20
235.569927
 30
0.0
 10
25.329657
 20
150.569883
 30
0.0
  0
SPLINE
  5
248
100
AcDbEntity
  8
MODELSKETCH_VISIBLE
 62
7
100
AcDbSpline
 70
8
 71
3
 72
8
 73
4
 74
0
 40
0
 40
0
 40
0
 40
0
 40
1
 40
1
 40
1
 40
1
 10
183.329745
 20
235.569990
 30
0.0
 10
183.329746
 20
236.896073
 30
0.0
 10
182.802961
 20
238.167843
 30
0.0
 10
181.865279
 20
239.105525
 30
0.0
  0
SPLINE
  5
249
100
AcDbEntity
  8
MODELSKETCH_VISIBLE
 62
7
100
AcDbSpline
 70
8
 71
3
 72
8
 73
4
 74
0
 40
0
 40
0
 40
0
 40
0
 40
1
 40
1
 40
1
 40
1
 10
181.865279
 20
239.105525
 30
0.0
 10
180.927597
 20
240.043207
 30
0.0
 10
179.655827
 20
240.569991
 30
0.0
 10
178.329745
 20
240.569991
 30
0.0
  0
SPLINE
  5
24a
100
AcDbEntity
  8
MODELSKETCH_VISIBLE
 62
7
100
AcDbSpline
 70
8
 71
3
 72
8
 73
4
 74
0
 40
0
 40
0
 40
0
 40
0
 40
1
 40
1
 40
1
 40
1
 10
114.829743
 20
178.069990
 30
0.0
 10
114.564527
 20
178.069990
 30
0.0
 10
114.310172
 20
177.964633
 30
0.0
 10
114.122636
 20
177.777097
 30
0.0
  0
SPLINE
  5
24b
100
AcDbEntity
  8
MODELSKETCH_VISIBLE
 62
7
100
AcDbSpline
 70
8
 71
3
 72
8
 73
4
 74
0
 40
0
 40
0
 40
0
 40
0
 40
1
 40
1
 40
1
 40
1
 10
114.122636
 20
177.777097
 30
0.0
 10
113.935099
 20
177.589560
 30
0.0
 10
113.829743
 20
177.335206
 30
0.0
 10
113.829743
 20
177.069989
 30
0.0
  0
SPLINE
  5
24c
100
AcDbEntity
  8
MODELSKETCH_VISIBLE
 62
7
100
AcDbSpline
 70
8
 71
3
 72
8
 73
4
 74
0
 40
0
 40
0
 40
0
 40
0
 40
1
 40
1
 40
1
 40
1
 10
151.079746
 20
200.069989
 30
0.0
 10
151.079746
 20
200.695204
 30
0.0
 10
150.746197
 20
201.272926
 30
0.0
 10
150.204745
 20
201.585534
 30
0.0
  0
SPLINE
  5
24d
100
AcDbEntity
  8
MODELSKETCH_VISIBLE
 62
7
100
AcDbSpline
 70
8
 71
3
 72
8
 73
4
 74
0
 40
0
 40
0
 40
0
 40
0
 40
1
 40
1
 40
1
 40
1
 10
150.204745
 20
201.585534
 30
0.0
 10
149.663293
 20
201.898141
 30
0.0
 10
148.996197
 20
201.898141
 30
0.0
 10
148.454745
 20
201.585534
 30
0.0
  0
SPLINE
  5
24e
100
AcDbEntity
  8
MODELSKETCH_VISIBLE
 62
7
100
AcDbSpline
 70
8
 71
3
 72
8
 73
4
 74
0
 40
0
 40
0
 40
0
 40
0
 40
1
 40
1
 40
1
 40
1
 10
148.454745
 20
201.585534
 30
0.0
 10
147.913293
 20
201.272926
 30
0.0
 10
147.579745
 20
200.695204
 30
0.0
 10
147.579745
 20
200.069989
 30
0.0
  0
SPLINE
  5
24f
100
AcDbEntity
  8
MODELSKETCH_VISIBLE
 62
7
100
AcDbSpline
 70
8
 71
3
 72
8
 73
4
 74
0
 40
0
 40
0
 40
0
 40
0
 40
1
 40
1
 40
1
 40
1
 10
147.579745
 20
200.069989
 30
0.0
 10
147.579745
 20
199.444774
 30
0.0
 10
147.913293
 20
198.867051
 30
0.0
 10
148.454745
 20
198.554444
 30
0.0
  0
SPLINE
  5
250
100
AcDbEntity
  8
MODELSKETCH_VISIBLE
 62
7
100
AcDbSpline
 70
8
 71
3
 72
8
 73
4
 74
0
 40
0
 40
0
 40
0
 40
0
 40
1
 40
1
 40
1
 40
1
 10
148.454745
 20
198.554444
 30
0.0
 10
148.996197
 20
198.241836
 30
0.0
 10
149.663293
 20
198.241836
 30
0.0
 10
150.204745
 20
198.554444
 30
0.0
  0
SPLINE
  5
251
100
AcDbEntity
  8
MODELSKETCH_VISIBLE
 62
7
100
AcDbSpline
 70
8
 71
3
 72
8
 73
4
 74
0
 40
0
 40
0
 40
0
 40
0
 40
1
 40
1
 40
1
 40
1
 10
150.204745
 20
198.554444
 30
0.0
 10
150.746197
 20
198.867051
 30
0.0
 10
151.079746
 20
199.444774
 30
0.0
 10
151.079746
 20
200.069989
 30
0.0
  0
LWPOLYLINE
  5
252
100
AcDbEntity
  8
MODELSKETCH_VISIBLE
 62
7
100
AcDbPolyline
 90
1
 70
1
 10
136.079744
 20
200.069989
 30
0.0
  0
SPLINE
  5
253
100
AcDbEntity
  8
MODELSKETCH_VISIBLE
 62
7
100
AcDbSpline
 70
8
 71
3
 72
8
 73
4
 74
0
 40
0
 40
0
 40
0
 40
0
 40
1
 40
1
 40
1
 40
1
 10
153.079744
 20
193.069989
 30
0.0
 10
153.079744
 20
194.409736
 30
0.0
 10
152.364998
 20
195.647712
 30
0.0
 10
151.204744
 20
196.317585
 30
0.0
  0
SPLINE
  5
254
100
AcDbEntity
  8
MODELSKETCH_VISIBLE
 62
7
100
AcDbSpline
 70
8
 71
3
 72
8
 73
4
 74
0
 40
0
 40
0
 40
0
 40
0
 40
1
 40
1
 40
1
 40
1
 10
151.204744
 20
196.317585
 30
0.0
 10
150.044490
 20
196.987458
 30
0.0
 10
148.614998
 20
196.987458
 30
0.0
 10
147.454744
 20
196.317585
 30
0.0
  0
SPLINE
  5
255
100
AcDbEntity
  8
MODELSKETCH_VISIBLE
 62
7
100
AcDbSpline
 70
8
 71
3
 72
8
 73
4
 74
0
 40
0
 40
0
 40
0
 40
0
 40
1
 40
1
 40
1
 40
1
 10
147.454744
 20
196.317585
 30
0.0
 10
146.294489
 20
195.647712
 30
0.0
 10
145.579743
 20
194.409736
 30
0.0
 10
145.579743
 20
193.069989
 30
0.0
  0
SPLINE
  5
256
100
AcDbEntity
  8
MODELSKETCH_VISIBLE
 62
7
100
AcDbSpline
 70
8
 71
3
 72
8
 73
4
 74
0
 40
0
 40
0
 40
0
 40
0
 40
1
 40
1
 40
1
 40
1
 10
145.579743
 20
193.069989
 30
0.0
 10
145.579743
 20
191.730243
 30
0.0
 10
146.294489
 20
190.492267
 30
0.0
 10
147.454744
 20
189.822394
 30
0.0
  0
SPLINE
  5
257
100
AcDbEntity
  8
MODELSKETCH_VISIBLE
 62
7
100
AcDbSpline
 70
8
 71
3
 72
8
 73
4
 74
0
 40
0
 40
0
 40
0
 40
0
 40
1
 40
1
 40
1
 40
1
 10
147.454744
 20
189.822394
 30
0.0
 10
148.614998
 20
189.152521
 30
0.0
 10
150.044490
 20
189.152521
 30
0.0
 10
151.204744
 20
189.822394
 30
0.0
  0
SPLINE
  5
258
100
AcDbEntity
  8
MODELSKETCH_VISIBLE
 62
7
100
AcDbSpline
 70
8
 71
3
 72
8
 73
4
 74
0
 40
0
 40
0
 40
0
 40
0
 40
1
 40
1
 40
1
 40
1
 10
151.204744
 20
189.822394
 30
0.0
 10
152.364998
 20
190.492267
 30
0.0
 10
153.079744
 20
191.730243
 30
0.0
 10
153.079744
 20
193.069989
 30
0.0
  0
LWPOLYLINE
  5
259
100
AcDbEntity
  8
MODELSKETCH_VISIBLE
 62
7
100
AcDbPolyline
 90
1
 70
1
 10
151.079746
 20
200.069989
 30
0.0
  0
LWPOLYLINE
  5
25a
100
AcDbEntity
  8
MODELSKETCH_VISIBLE
 62
7
100
AcDbPolyline
 90
1
 70
1
 10
153.079744
 20
193.069989
 30
0.0
  0
LWPOLYLINE
  5
25b
100
AcDbEntity
  8
MODELSKETCH_VISIBLE
 62
7
100
AcDbPolyline
 90
2
 70
0
 10
150.829736
 20
152.070071
 30
0.0
 10
165.829759
 20
152.070071
 30
0.0
  0
LWPOLYLINE
  5
25c
100
AcDbEntity
  8
MODELSKETCH_VISIBLE
 62
7
100
AcDbPolyline
 90
2
 70
0
 10
57.829750
 20
152.070071
 30
0.0
 10
42.829727
 20
152.070071
 30
0.0
  0
SPLINE
  5
25d
100
AcDbEntity
  8
MODELSKETCH_VISIBLE
 62
7
100
AcDbSpline
 70
8
 71
3
 72
8
 73
4
 74
0
 40
0
 40
0
 40
0
 40
0
 40
1
 40
1
 40
1
 40
1
 10
130.079745
 20
200.069989
 30
0.0
 10
130.079745
 20
200.695204
 30
0.0
 10
129.746197
 20
201.272926
 30
0.0
 10
129.204745
 20
201.585534
 30
0.0
  0
SPLINE
  5
25e
100
AcDbEntity
  8
MODELSKETCH_VISIBLE
 62
7
100
AcDbSpline
 70
8
 71
3
 72
8
 73
4
 74
0
 40
0
 40
0
 40
0
 40
0
 40
1
 40
1
 40
1
 40
1
 10
129.204745
 20
201.585534
 30
0.0
 10
128.663293
 20
201.898141
 30
0.0
 10
127.996196
 20
201.898141
 30
0.0
 10
127.454744
 20
201.585534
 30
0.0
  0
SPLINE
  5
25f
100
AcDbEntity
  8
MODELSKETCH_VISIBLE
 62
7
100
AcDbSpline
 70
8
 71
3
 72
8
 73
4
 74
0
 40
0
 40
0
 40
0
 40
0
 40
1
 40
1
 40
1
 40
1
 10
127.454744
 20
201.585534
 30
0.0
 10
126.913292
 20
201.272926
 30
0.0
 10
126.579744
 20
200.695204
 30
0.0
 10
126.579744
 20
200.069989
 30
0.0
  0
SPLINE
  5
260
100
AcDbEntity
  8
MODELSKETCH_VISIBLE
 62
7
100
AcDbSpline
 70
8
 71
3
 72
8
 73
4
 74
0
 40
0
 40
0
 40
0
 40
0
 40
1
 40
1
 40
1
 40
1
 10
126.579744
 20
200.069989
 30
0.0
 10
126.579744
 20
199.444774
 30
0.0
 10
126.913292
 20
198.867051
 30
0.0
 10
127.454744
 20
198.554444
 30
0.0
  0
SPLINE
  5
261
100
AcDbEntity
  8
MODELSKETCH_VISIBLE
 62
7
100
AcDbSpline
 70
8
 71
3
 72
8
 73
4
 74
0
 40
0
 40
0
 40
0
 40
0
 40
1
 40
1
 40
1
 40
1
 10
127.454744
 20
198.554444
 30
0.0
 10
127.996196
 20
198.241836
 30
0.0
 10
128.663293
 20
198.241836
 30
0.0
 10
129.204745
 20
198.554444
 30
0.0
  0
SPLINE
  5
262
100
AcDbEntity
  8
MODELSKETCH_VISIBLE
 62
7
100
AcDbSpline
 70
8
 71
3
 72
8
 73
4
 74
0
 40
0
 40
0
 40
0
 40
0
 40
1
 40
1
 40
1
 40
1
 10
129.204745
 20
198.554444
 30
0.0
 10
129.746197
 20
198.867051
 30
0.0
 10
130.079745
 20
199.444774
 30
0.0
 10
130.079745
 20
200.069989
 30
0.0
  0
LWPOLYLINE
  5
263
100
AcDbEntity
  8
MODELSKETCH_VISIBLE
 62
7
100
AcDbPolyline
 90
2
 70
0
 10
30.329752
 20
145.569258
 30
0.0
 10
178.329734
 20
145.569258
 30
0.0
  0
SPLINE
  5
264
100
AcDbEntity
  8
MODELSKETCH_VISIBLE
 62
7
100
AcDbSpline
 70
8
 71
3
 72
8
 73
4
 74
0
 40
0
 40
0
 40
0
 40
0
 40
1
 40
1
 40
1
 40
1
 10
94.829743
 20
177.069989
 30
0.0
 10
94.829743
 20
177.335206
 30
0.0
 10
94.724386
 20
177.589560
 30
0.0
 10
94.536850
 20
177.777097
 30
0.0
  0
SPLINE
  5
265
100
AcDbEntity
  8
MODELSKETCH_VISIBLE
 62
7
100
AcDbSpline
 70
8
 71
3
 72
8
 73
4
 74
0
 40
0
 40
0
 40
0
 40
0
 40
1
 40
1
 40
1
 40
1
 10
94.536850
 20
177.777097
 30
0.0
 10
94.349313
 20
177.964633
 30
0.0
 10
94.094959
 20
178.069990
 30
0.0
 10
93.829743
 20
178.069990
 30
0.0
  0
LWPOLYLINE
  5
266
100
AcDbEntity
  8
MODELSKETCH_VISIBLE
 62
7
100
AcDbPolyline
 90
1
 70
1
 10
130.079745
 20
200.069989
 30
0.0
  0
LWPOLYLINE
  5
267
100
AcDbEntity
  8
MODELSKETCH_VISIBLE
 62
7
100
AcDbPolyline
 90
2
 70
0
 10
30.329752
 20
240.570023
 30
0.0
 10
178.329734
 20
240.570023
 30
0.0
  0
SPLINE
  5
268
100
AcDbEntity
  8
MODELSKETCH_VISIBLE
 62
7
100
AcDbSpline
 70
8
 71
3
 72
8
 73
4
 74
0
 40
0
 40
0
 40
0
 40
0
 40
1
 40
1
 40
1
 40
1
 10
42.829743
 20
178.069990
 30
0.0
 10
42.564526
 20
178.069990
 30
0.0
 10
42.310172
 20
177.964633
 30
0.0
 10
42.122635
 20
177.777097
 30
0.0
  0
SPLINE
  5
269
100
AcDbEntity
  8
MODELSKETCH_VISIBLE
 62
7
100
AcDbSpline
 70
8
 71
3
 72
8
 73
4
 74
0
 40
0
 40
0
 40
0
 40
0
 40
1
 40
1
 40
1
 40
1
 10
42.122635
 20
177.777097
 30
0.0
 10
41.935099
 20
177.589560
 30
0.0
 10
41.829742
 20
177.335206
 30
0.0
 10
41.829742
 20
177.069989
 30
0.0
  0
LWPOLYLINE
  5
26a
100
AcDbEntity
  8
MODELSKETCH_VISIBLE
 62
7
100
AcDbPolyline
 90
2
 70
0
 10
78.829730
 20
178.070675
 30
0.0
 10
93.829753
 20
178.070675
 30
0.0
  0
SPLINE
  5
26b
100
AcDbEntity
  8
MODELSKETCH_VISIBLE
 62
7
100
AcDbSpline
 70
8
 71
3
 72
8
 73
4
 74
0
 40
0
 40
0
 40
0
 40
0
 40
1
 40
1
 40
1
 40
1
 10
58.829743
 20
177.069989
 30
0.0
 10
58.829743
 20
177.335206
 30
0.0
 10
58.724386
 20
177.589560
 30
0.0
 10
58.536850
 20
177.777097
 30
0.0
  0
SPLINE
  5
26c
100
AcDbEntity
  8
MODELSKETCH_VISIBLE
 62
7
100
AcDbSpline
 70
8
 71
3
 72
8
 73
4
 74
0
 40
0
 40
0
 40
0
 40
0
 40
1
 40
1
 40
1
 40
1
 10
58.536850
 20
177.777097
 30
0.0
 10
58.349313
 20
177.964633
 30
0.0
 10
58.094959
 20
178.069990
 30
0.0
 10
57.829742
 20
178.069990
 30
0.0
  0
LWPOLYLINE
  5
26d
100
AcDbEntity
  8
MODELSKETCH_VISIBLE
 62
7
100
AcDbPolyline
 90
2
 70
0
 10
78.829730
 20
152.070071
 30
0.0
 10
93.829753
 20
152.070071
 30
0.0
  0
SPLINE
  5
26e
100
AcDbEntity
  8
MODELSKETCH_VISIBLE
 62
7
100
AcDbSpline
 70
8
 71
3
 72
8
 73
4
 74
0
 40
0
 40
0
 40
0
 40
0
 40
1
 40
1
 40
1
 40
1
 10
41.829742
 20
153.069989
 30
0.0
 10
41.829742
 20
152.804773
 30
0.0
 10
41.935099
 20
152.550418
 30
0.0
 10
42.122635
 20
152.362882
 30
0.0
  0
SPLINE
  5
26f
100
AcDbEntity
  8
MODELSKETCH_VISIBLE
 62
7
100
AcDbSpline
 70
8
 71
3
 72
8
 73
4
 74
0
 40
0
 40
0
 40
0
 40
0
 40
1
 40
1
 40
1
 40
1
 10
42.122635
 20
152.362882
 30
0.0
 10
42.310172
 20
152.175345
 30
0.0
 10
42.564526
 20
152.069988
 30
0.0
 10
42.829743
 20
152.069989
 30
0.0
  0
LWPOLYLINE
  5
270
100
AcDbEntity
  8
MODELSKETCH_VISIBLE
 62
7
100
AcDbPolyline
 90
2
 70
0
 10
77.829869
 20
177.070550
 30
0.0
 10
77.829869
 20
153.070196
 30
0.0
  0
SPLINE
  5
271
100
AcDbEntity
  8
MODELSKETCH_VISIBLE
 62
7
100
AcDbSpline
 70
8
 71
3
 72
8
 73
4
 74
0
 40
0
 40
0
 40
0
 40
0
 40
1
 40
1
 40
1
 40
1
 10
57.829742
 20
152.069989
 30
0.0
 10
58.094959
 20
152.069988
 30
0.0
 10
58.349313
 20
152.175345
 30
0.0
 10
58.536850
 20
152.362882
 30
0.0
  0
SPLINE
  5
272
100
AcDbEntity
  8
MODELSKETCH_VISIBLE
 62
7
100
AcDbSpline
 70
8
 71
3
 72
8
 73
4
 74
0
 40
0
 40
0
 40
0
 40
0
 40
1
 40
1
 40
1
 40
1
 10
58.536850
 20
152.362882
 30
0.0
 10
58.724386
 20
152.550418
 30
0.0
 10
58.829743
 20
152.804773
 30
0.0
 10
58.829743
 20
153.069989
 30
0.0
  0
SPLINE
  5
273
100
AcDbEntity
  8
MODELSKETCH_VISIBLE
 62
7
100
AcDbSpline
 70
8
 71
3
 72
8
 73
4
 74
0
 40
0
 40
0
 40
0
 40
0
 40
1
 40
1
 40
1
 40
1
 10
109.079744
 20
200.069989
 30
0.0
 10
109.079744
 20
200.695204
 30
0.0
 10
108.746196
 20
201.272926
 30
0.0
 10
108.204744
 20
201.585534
 30
0.0
  0
SPLINE
  5
274
100
AcDbEntity
  8
MODELSKETCH_VISIBLE
 62
7
100
AcDbSpline
 70
8
 71
3
 72
8
 73
4
 74
0
 40
0
 40
0
 40
0
 40
0
 40
1
 40
1
 40
1
 40
1
 10
108.204744
 20
201.585534
 30
0.0
 10
107.663292
 20
201.898141
 30
0.0
 10
106.996195
 20
201.898141
 30
0.0
 10
106.454743
 20
201.585534
 30
0.0
  0
SPLINE
  5
275
100
AcDbEntity
  8
MODELSKETCH_VISIBLE
 62
7
100
AcDbSpline
 70
8
 71
3
 72
8
 73
4
 74
0
 40
0
 40
0
 40
0
 40
0
 40
1
 40
1
 40
1
 40
1
 10
106.454743
 20
201.585534
 30
0.0
 10
105.913291
 20
201.272926
 30
0.0
 10
105.579743
 20
200.695204
 30
0.0
 10
105.579743
 20
200.069989
 30
0.0
  0
SPLINE
  5
276
100
AcDbEntity
  8
MODELSKETCH_VISIBLE
 62
7
100
AcDbSpline
 70
8
 71
3
 72
8
 73
4
 74
0
 40
0
 40
0
 40
0
 40
0
 40
1
 40
1
 40
1
 40
1
 10
105.579743
 20
200.069989
 30
0.0
 10
105.579743
 20
199.444774
 30
0.0
 10
105.913291
 20
198.867051
 30
0.0
 10
106.454743
 20
198.554444
 30
0.0
  0
SPLINE
  5
277
100
AcDbEntity
  8
MODELSKETCH_VISIBLE
 62
7
100
AcDbSpline
 70
8
 71
3
 72
8
 73
4
 74
0
 40
0
 40
0
 40
0
 40
0
 40
1
 40
1
 40
1
 40
1
 10
106.454743
 20
198.554444
 30
0.0
 10
106.996195
 20
198.241836
 30
0.0
 10
107.663292
 20
198.241836
 30
0.0
 10
108.204744
 20
198.554444
 30
0.0
  0
SPLINE
  5
278
100
AcDbEntity
  8
MODELSKETCH_VISIBLE
 62
7
100
AcDbSpline
 70
8
 71
3
 72
8
 73
4
 74
0
 40
0
 40
0
 40
0
 40
0
 40
1
 40
1
 40
1
 40
1
 10
108.204744
 20
198.554444
 30
0.0
 10
108.746196
 20
198.867051
 30
0.0
 10
109.079744
 20
199.444774
 30
0.0
 10
109.079744
 20
200.069989
 30
0.0
  0
LWPOLYLINE
  5
279
100
AcDbEntity
  8
MODELSKETCH_VISIBLE
 62
7
100
AcDbPolyline
 90
2
 70
0
 10
94.829746
 20
177.070550
 30
0.0
 10
94.829746
 20
153.070196
 30
0.0
  0
LWPOLYLINE
  5
27a
100
AcDbEntity
  8
MODELSKETCH_VISIBLE
 62
7
100
AcDbPolyline
 90
1
 70
1
 10
109.079744
 20
200.069989
 30
0.0
  0
SPLINE
  5
27b
100
AcDbEntity
  8
MODELSKETCH_VISIBLE
 62
7
100
AcDbSpline
 70
8
 71
3
 72
8
 73
4
 74
0
 40
0
 40
0
 40
0
 40
0
 40
1
 40
1
 40
1
 40
1
 10
126.079745
 20
223.069991
 30
0.0
 10
126.079745
 20
224.409737
 30
0.0
 10
125.364999
 20
225.647714
 30
0.0
 10
124.204745
 20
226.317587
 30
0.0
  0
SPLINE
  5
27c
100
AcDbEntity
  8
MODELSKETCH_VISIBLE
 62
7
100
AcDbSpline
 70
8
 71
3
 72
8
 73
4
 74
0
 40
0
 40
0
 40
0
 40
0
 40
1
 40
1
 40
1
 40
1
 10
124.204745
 20
226.317587
 30
0.0
 10
123.044490
 20
226.987460
 30
0.0
 10
121.614998
 20
226.987460
 30
0.0
 10
120.454744
 20
226.317587
 30
0.0
  0
SPLINE
  5
27d
100
AcDbEntity
  8
MODELSKETCH_VISIBLE
 62
7
100
AcDbSpline
 70
8
 71
3
 72
8
 73
4
 74
0
 40
0
 40
0
 40
0
 40
0
 40
1
 40
1
 40
1
 40
1
 10
120.454744
 20
226.317587
 30
0.0
 10
119.294490
 20
225.647714
 30
0.0
 10
118.579744
 20
224.409737
 30
0.0
 10
118.579744
 20
223.069991
 30
0.0
  0
SPLINE
  5
27e
100
AcDbEntity
  8
MODELSKETCH_VISIBLE
 62
7
100
AcDbSpline
 70
8
 71
3
 72
8
 73
4
 74
0
 40
0
 40
0
 40
0
 40
0
 40
1
 40
1
 40
1
 40
1
 10
118.579744
 20
223.069991
 30
0.0
 10
118.579744
 20
221.730245
 30
0.0
 10
119.294490
 20
220.492268
 30
0.0
 10
120.454744
 20
219.822395
 30
0.0
  0
SPLINE
  5
27f
100
AcDbEntity
  8
MODELSKETCH_VISIBLE
 62
7
100
AcDbSpline
 70
8
 71
3
 72
8
 73
4
 74
0
 40
0
 40
0
 40
0
 40
0
 40
1
 40
1
 40
1
 40
1
 10
120.454744
 20
219.822395
 30
0.0
 10
121.614998
 20
219.152522
 30
0.0
 10
123.044490
 20
219.152522
 30
0.0
 10
124.204745
 20
219.822395
 30
0.0
  0
SPLINE
  5
280
100
AcDbEntity
  8
MODELSKETCH_VISIBLE
 62
7
100
AcDbSpline
 70
8
 71
3
 72
8
 73
4
 74
0
 40
0
 40
0
 40
0
 40
0
 40
1
 40
1
 40
1
 40
1
 10
124.204745
 20
219.822395
 30
0.0
 10
125.364999
 20
220.492268
 30
0.0
 10
126.079745
 20
221.730245
 30
0.0
 10
126.079745
 20
223.069991
 30
0.0
  0
LWPOLYLINE
  5
281
100
AcDbEntity
  8
MODELSKETCH_VISIBLE
 62
7
100
AcDbPolyline
 90
2
 70
0
 10
114.829733
 20
178.070675
 30
0.0
 10
129.829756
 20
178.070675
 30
0.0
  0
SPLINE
  5
282
100
AcDbEntity
  8
MODELSKETCH_VISIBLE
 62
7
100
AcDbSpline
 70
8
 71
3
 72
8
 73
4
 74
0
 40
0
 40
0
 40
0
 40
0
 40
1
 40
1
 40
1
 40
1
 10
78.829743
 20
178.069990
 30
0.0
 10
78.564526
 20
178.069990
 30
0.0
 10
78.310172
 20
177.964633
 30
0.0
 10
78.122636
 20
177.777097
 30
0.0
  0
SPLINE
  5
283
100
AcDbEntity
  8
MODELSKETCH_VISIBLE
 62
7
100
AcDbSpline
 70
8
 71
3
 72
8
 73
4
 74
0
 40
0
 40
0
 40
0
 40
0
 40
1
 40
1
 40
1
 40
1
 10
78.122636
 20
177.777097
 30
0.0
 10
77.935099
 20
177.589560
 30
0.0
 10
77.829742
 20
177.335206
 30
0.0
 10
77.829742
 20
177.069989
 30
0.0
  0
LWPOLYLINE
  5
284
100
AcDbEntity
  8
MODELSKETCH_VISIBLE
 62
7
100
AcDbPolyline
 90
1
 70
1
 10
126.079745
 20
223.069991
 30
0.0
  0
LWPOLYLINE
  5
285
100
AcDbEntity
  8
MODELSKETCH_VISIBLE
 62
7
100
AcDbPolyline
 90
2
 70
0
 10
114.829733
 20
152.070071
 30
0.0
 10
129.829756
 20
152.070071
 30
0.0
  0
SPLINE
  5
286
100
AcDbEntity
  8
MODELSKETCH_VISIBLE
 62
7
100
AcDbSpline
 70
8
 71
3
 72
8
 73
4
 74
0
 40
0
 40
0
 40
0
 40
0
 40
1
 40
1
 40
1
 40
1
 10
77.829742
 20
153.069989
 30
0.0
 10
77.829742
 20
152.804773
 30
0.0
 10
77.935099
 20
152.550418
 30
0.0
 10
78.122636
 20
152.362882
 30
0.0
  0
SPLINE
  5
287
100
AcDbEntity
  8
MODELSKETCH_VISIBLE
 62
7
100
AcDbSpline
 70
8
 71
3
 72
8
 73
4
 74
0
 40
0
 40
0
 40
0
 40
0
 40
1
 40
1
 40
1
 40
1
 10
78.122636
 20
152.362882
 30
0.0
 10
78.310172
 20
152.175345
 30
0.0
 10
78.564526
 20
152.069988
 30
0.0
 10
78.829743
 20
152.069989
 30
0.0
  0
LWPOLYLINE
  5
288
100
AcDbEntity
  8
MODELSKETCH_VISIBLE
 62
7
100
AcDbPolyline
 90
2
 70
0
 10
113.829740
 20
177.070550
 30
0.0
 10
113.829740
 20
153.070196
 30
0.0
  0
SPLINE
  5
289
100
AcDbEntity
  8
MODELSKETCH_VISIBLE
 62
7
100
AcDbSpline
 70
8
 71
3
 72
8
 73
4
 74
0
 40
0
 40
0
 40
0
 40
0
 40
1
 40
1
 40
1
 40
1
 10
93.829743
 20
152.069989
 30
0.0
 10
94.094959
 20
152.069988
 30
0.0
 10
94.349313
 20
152.175345
 30
0.0
 10
94.536850
 20
152.362882
 30
0.0
  0
SPLINE
  5
28a
100
AcDbEntity
  8
MODELSKETCH_VISIBLE
 62
7
100
AcDbSpline
 70
8
 71
3
 72
8
 73
4
 74
0
 40
0
 40
0
 40
0
 40
0
 40
1
 40
1
 40
1
 40
1
 10
94.536850
 20
152.362882
 30
0.0
 10
94.724386
 20
152.550418
 30
0.0
 10
94.829743
 20
152.804773
 30
0.0
 10
94.829743
 20
153.069989
 30
0.0
  0
LWPOLYLINE
  5
28b
100
AcDbEntity
  8
MODELSKETCH_VISIBLE
 62
7
100
AcDbPolyline
 90
2
 70
0
 10
130.829616
 20
177.070550
 30
0.0
 10
130.829616
 20
153.070196
 30
0.0
  0
SPLINE
  5
28c
100
AcDbEntity
  8
MODELSKETCH_VISIBLE
 62
7
100
AcDbSpline
 70
8
 71
3
 72
8
 73
4
 74
0
 40
0
 40
0
 40
0
 40
0
 40
1
 40
1
 40
1
 40
1
 10
113.829743
 20
153.069989
 30
0.0
 10
113.829743
 20
152.804773
 30
0.0
 10
113.935099
 20
152.550418
 30
0.0
 10
114.122636
 20
152.362882
 30
0.0
  0
SPLINE
  5
28d
100
AcDbEntity
  8
MODELSKETCH_VISIBLE
 62
7
100
AcDbSpline
 70
8
 71
3
 72
8
 73
4
 74
0
 40
0
 40
0
 40
0
 40
0
 40
1
 40
1
 40
1
 40
1
 10
114.122636
 20
152.362882
 30
0.0
 10
114.310172
 20
152.175345
 30
0.0
 10
114.564527
 20
152.069988
 30
0.0
 10
114.829743
 20
152.069989
 30
0.0
  0
SPLINE
  5
28e
100
AcDbEntity
  8
MODELSKETCH_VISIBLE
 62
7
100
AcDbSpline
 70
8
 71
3
 72
8
 73
4
 74
0
 40
0
 40
0
 40
0
 40
0
 40
1
 40
1
 40
1
 40
1
 10
54.079742
 20
223.069991
 30
0.0
 10
54.078187
 20
225.139958
 30
0.0
 10
52.399710
 20
226.817174
 30
0.0
 10
50.329743
 20
226.817174
 30
0.0
  0
SPLINE
  5
28f
100
AcDbEntity
  8
MODELSKETCH_VISIBLE
 62
7
100
AcDbSpline
 70
8
 71
3
 72
8
 73
4
 74
0
 40
0
 40
0
 40
0
 40
0
 40
1
 40
1
 40
1
 40
1
 10
50.329743
 20
226.817174
 30
0.0
 10
48.259775
 20
226.817174
 30
0.0
 10
46.581299
 20
225.139958
 30
0.0
 10
46.579743
 20
223.069991
 30
0.0
  0
SPLINE
  5
290
100
AcDbEntity
  8
MODELSKETCH_VISIBLE
 62
7
100
AcDbSpline
 70
8
 71
3
 72
8
 73
4
 74
0
 40
0
 40
0
 40
0
 40
0
 40
1
 40
1
 40
1
 40
1
 10
46.579743
 20
223.069991
 30
0.0
 10
46.581299
 20
221.000024
 30
0.0
 10
48.259775
 20
219.322808
 30
0.0
 10
50.329743
 20
219.322808
 30
0.0
  0
SPLINE
  5
291
100
AcDbEntity
  8
MODELSKETCH_VISIBLE
 62
7
100
AcDbSpline
 70
8
 71
3
 72
8
 73
4
 74
0
 40
0
 40
0
 40
0
 40
0
 40
1
 40
1
 40
1
 40
1
 10
50.329743
 20
219.322808
 30
0.0
 10
52.399710
 20
219.322808
 30
0.0
 10
54.078187
 20
221.000024
 30
0.0
 10
54.079742
 20
223.069991
 30
0.0
  0
LWPOLYLINE
  5
292
100
AcDbEntity
  8
MODELSKETCH_VISIBLE
 62
7
100
AcDbPolyline
 90
2
 70
0
 10
150.829736
 20
178.070675
 30
0.0
 10
165.829759
 20
178.070675
 30
0.0
  0
SPLINE
  5
293
100
AcDbEntity
  8
MODELSKETCH_VISIBLE
 62
7
100
AcDbSpline
 70
8
 71
3
 72
8
 73
4
 74
0
 40
0
 40
0
 40
0
 40
0
 40
1
 40
1
 40
1
 40
1
 10
129.829745
 20
152.069989
 30
0.0
 10
130.382030
 20
152.069990
 30
0.0
 10
130.829744
 20
152.517705
 30
0.0
 10
130.829743
 20
153.069989
 30
0.0
  0
LWPOLYLINE
  5
294
100
AcDbEntity
  8
MODELSKETCH_VISIBLE
 62
7
100
AcDbPolyline
 90
1
 70
1
 10
54.079742
 20
223.069991
 30
0.0
  0
ENDSEC
  0
SECTION
  2
OBJECTS
  0
DICTIONARY
  5
C
330
0
100
AcDbDictionary
  3
ACAD_GROUP
350
D
  3
ACAD_MLINESTYLE
350
17
  0
DICTIONARY
  5
D
330
C
100
AcDbDictionary
  0
DICTIONARY
  5
1A
330
C
100
AcDbDictionary
  0
DICTIONARY
  5
17
330
C
100
AcDbDictionary
  3
STANDARD
350
18
  0
DICTIONARY
  5
19
330
C
100
AcDbDictionary
  0
ENDSEC
  0
EOF
