  0
SECTION
  2
HEADER
  9
$ACADVER
  1
AC1014
  9
$HANDSEED
  5
FFFF
  9
$INSUNITS
 70
     0
  9
$MEASUREMENT
 70
     1
  0
ENDSEC
  0
SECTION
  2
TABLES
  0
TABLE
  2
VPORT
  5
8
330
0
100
AcDbSymbolTable
 70
     4
  0
VPORT
  5
2E
330
8
100
AcDbSymbolTableRecord
100
AcDbViewportTableRecord
  2
*ACTIVE
 70
     0
 10
0.0
 20
0.0
 11
1.0
 21
1.0
 12
210.0
 22
148.5
 13
0.0
 23
0.0
 14
10.0
 24
10.0
 15
10.0
 25
10.0
 16
0.0
 26
0.0
 36
1.0
 17
0.0
 27
0.0
 37
0.0
 40
341.0
 41
1.24
 42
50.0
 43
0.0
 44
0.0
 50
0.0
 51
0.0
 71
     0
 72
   100
 73
     1
 74
     3
 75
     0
 76
     0
 77
     0
 78
     0
  0
ENDTAB
  0
TABLE
  2
LTYPE
  5
5
330
0
100
AcDbSymbolTable
 70
     1
  0
LTYPE
  5
14
330
5
100
AcDbSymbolTableRecord
100
AcDbLinetypeTableRecord
  2
BYBLOCK
 70
     0
  3

 72
    65
 73
     0
 40
0.0
  0
LTYPE
  5
15
330
5
100
AcDbSymbolTableRecord
100
AcDbLinetypeTableRecord
  2
BYLAYER
 70
     0
  3

 72
    65
 73
     0
 40
0.0
  0
LTYPE
  5
16
330
5
100
AcDbSymbolTableRecord
100
AcDbLinetypeTableRecord
  2
CONTINUOUS
 70
     0
  3
Solid line
 72
    65
 73
     0
 40
0.0
  0
ENDTAB
  0
TABLE
  2
LAYER
  5
2
100
AcDbSymbolTable
 70
40
  0
LAYER
  5
50
100
AcDbSymbolTableRecord
100
AcDbLayerTableRecord
  2
0
 70
0
  6
CONTINUOUS
  0
LAYER
  5
51
100
AcDbSymbolTableRecord
100
AcDbLayerTableRecord
  2
ANNOTATION_LINES
 70
0
  6
CONTINUOUS
  0
LAYER
  5
52
100
AcDbSymbolTableRecord
100
AcDbLayerTableRecord
  2
ANNOTATION_TEXT
 70
0
  6
CONTINUOUS
  0
LAYER
  5
53
100
AcDbSymbolTableRecord
100
AcDbLayerTableRecord
  2
BLIND_THREAD_SYMBOLS
 70
0
  6
CONTINUOUS
  0
LAYER
  5
54
100
AcDbSymbolTableRecord
100
AcDbLayerTableRecord
  2
BLIND_THREAD_SYMBOLS_HIDDE
 70
0
  6
CONTINUOUS
  0
LAYER
  5
55
100
AcDbSymbolTableRecord
100
AcDbLayerTableRecord
  2
BREAK_LINES
 70
0
  6
CONTINUOUS
  0
LAYER
  5
56
100
AcDbSymbolTableRecord
100
AcDbLayerTableRecord
  2
CENTERLINES
 70
0
  6
CONTINUOUS
  0
LAYER
  5
57
100
AcDbSymbolTableRecord
100
AcDbLayerTableRecord
  2
CENTERMARKS
 70
0
  6
CONTINUOUS
  0
LAYER
  5
58
100
AcDbSymbolTableRecord
100
AcDbLayerTableRecord
  2
DETAIL_VIEW_BORDER
 70
0
  6
CONTINUOUS
  0
LAYER
  5
59
100
AcDbSymbolTableRecord
100
AcDbLayerTableRecord
  2
DETAIL_VIEW_PARENT_BORDER
 70
0
  6
CONTINUOUS
  0
LAYER
  5
5a
100
AcDbSymbolTableRecord
100
AcDbLayerTableRecord
  2
EXPLODE_LINES
 70
0
  6
CONTINUOUS
  0
LAYER
  5
5b
100
AcDbSymbolTableRecord
100
AcDbLayerTableRecord
  2
HIDDEN
 70
0
  6
CONTINUOUS
  0
LAYER
  5
5c
100
AcDbSymbolTableRecord
100
AcDbLayerTableRecord
  2
HIDDEN_BASE_VIEW
 70
0
  6
CONTINUOUS
  0
LAYER
  5
5d
100
AcDbSymbolTableRecord
100
AcDbLayerTableRecord
  2
HIDDEN_EXPLODE_LINES
 70
0
  6
CONTINUOUS
  0
LAYER
  5
5e
100
AcDbSymbolTableRecord
100
AcDbLayerTableRecord
  2
IMAGES
 70
0
  6
CONTINUOUS
  0
LAYER
  5
5f
100
AcDbSymbolTableRecord
100
AcDbLayerTableRecord
  2
INVISIBLE_LINES
 70
0
  6
CONTINUOUS
  0
LAYER
  5
60
100
AcDbSymbolTableRecord
100
AcDbLayerTableRecord
  2
MODELSKETCH_CONSTRUCTION
 70
0
  6
CONTINUOUS
  0
LAYER
  5
61
100
AcDbSymbolTableRecord
100
AcDbLayerTableRecord
  2
MODELSKETCH_POINT
 70
0
  6
CONTINUOUS
  0
LAYER
  5
62
100
AcDbSymbolTableRecord
100
AcDbLayerTableRecord
  2
MODELSKETCH_VISIBLE
 70
0
  6
CONTINUOUS
  0
LAYER
  5
63
100
AcDbSymbolTableRecord
100
AcDbLayerTableRecord
  2
PATTERN_CENTERLINES
 70
0
  6
CONTINUOUS
  0
LAYER
  5
64
100
AcDbSymbolTableRecord
100
AcDbLayerTableRecord
  2
REGION_ASSOC_POINTS
 70
0
  6
CONTINUOUS
  0
LAYER
  5
65
100
AcDbSymbolTableRecord
100
AcDbLayerTableRecord
  2
SECTION_CUTTING_LINE
 70
0
  6
CONTINUOUS
  0
LAYER
  5
66
100
AcDbSymbolTableRecord
100
AcDbLayerTableRecord
  2
SECTION_JOG_LINES
 70
0
  6
CONTINUOUS
  0
LAYER
  5
67
100
AcDbSymbolTableRecord
100
AcDbLayerTableRecord
  2
SHEETMETAL_BEND_LINES_DOWN
 70
0
  6
CONTINUOUS
  0
LAYER
  5
68
100
AcDbSymbolTableRecord
100
AcDbLayerTableRecord
  2
SHEETMETAL_BEND_LINES_UP
 70
0
  6
CONTINUOUS
  0
LAYER
  5
69
100
AcDbSymbolTableRecord
100
AcDbLayerTableRecord
  2
SHEETMETAL_BEND_TANGENT_LI
 70
0
  6
CONTINUOUS
  0
LAYER
  5
6a
100
AcDbSymbolTableRecord
100
AcDbLayerTableRecord
  2
SHEETMETAL_CUT_LINES
 70
0
  6
CONTINUOUS
  0
LAYER
  5
6b
100
AcDbSymbolTableRecord
100
AcDbLayerTableRecord
  2
SIDE_THREAD_SYMBOLS
 70
0
  6
CONTINUOUS
  0
LAYER
  5
6c
100
AcDbSymbolTableRecord
100
AcDbLayerTableRecord
  2
SIDE_THREAD_SYMBOLS_HIDDEN
 70
0
  6
CONTINUOUS
  0
LAYER
  5
6d
100
AcDbSymbolTableRecord
100
AcDbLayerTableRecord
  2
SKETCHED_GEOMETRY
 70
0
  6
CONTINUOUS
  0
LAYER
  5
6e
100
AcDbSymbolTableRecord
100
AcDbLayerTableRecord
  2
SURFACE_THREAD_SYMBOLS
 70
0
  6
CONTINUOUS
  0
LAYER
  5
6f
100
AcDbSymbolTableRecord
100
AcDbLayerTableRecord
  2
SURFACE_THREAD_SYMBOLS_HID
 70
0
  6
CONTINUOUS
  0
LAYER
  5
70
100
AcDbSymbolTableRecord
100
AcDbLayerTableRecord
  2
SURFACE_THREAD_SYMBOLS_ON_
 70
0
  6
CONTINUOUS
  0
LAYER
  5
71
100
AcDbSymbolTableRecord
100
AcDbLayerTableRecord
  2
TABLES
 70
0
  6
CONTINUOUS
  0
LAYER
  5
72
100
AcDbSymbolTableRecord
100
AcDbLayerTableRecord
  2
TANGENT_HIDDEN
 70
0
  6
CONTINUOUS
  0
LAYER
  5
73
100
AcDbSymbolTableRecord
100
AcDbLayerTableRecord
  2
TANGENT_LINES
 70
0
  6
CONTINUOUS
  0
LAYER
  5
74
100
AcDbSymbolTableRecord
100
AcDbLayerTableRecord
  2
TEXT
 70
0
  6
CONTINUOUS
  0
LAYER
  5
75
100
AcDbSymbolTableRecord
100
AcDbLayerTableRecord
  2
VIEW_HATCHES
 70
0
  6
CONTINUOUS
  0
LAYER
  5
76
100
AcDbSymbolTableRecord
100
AcDbLayerTableRecord
  2
VIRTUAL_SHARPS
 70
0
  6
CONTINUOUS
  0
LAYER
  5
77
100
AcDbSymbolTableRecord
100
AcDbLayerTableRecord
  2
VISIBLE
 70
0
  6
CONTINUOUS
  0
ENDTAB
  0
TABLE
  2
STYLE
  5
3
330
0
100
AcDbSymbolTable
 70
     1
  0
STYLE
  5
11
330
3
100
AcDbSymbolTableRecord
100
AcDbTextStyleTableRecord
  2
STANDARD
 70
     0
 40
0.0
 41
1.0
 50
0.0
 71
     0
 42
2.5
  3
txt
  4

  0
ENDTAB
  0
TABLE
  2
VIEW
  5
6
330
0
100
AcDbSymbolTable
 70
     0
  0
ENDTAB
  0
TABLE
  2
UCS
  5
7
330
0
100
AcDbSymbolTable
 70
     0
  0
ENDTAB
  0
TABLE
  2
APPID
  5
9
330
0
100
AcDbSymbolTable
 70
     2
  0
APPID
  5
12
330
9
100
AcDbSymbolTableRecord
100
AcDbRegAppTableRecord
  2
ACAD
 70
     0
  0
ENDTAB
  0
TABLE
  2
DIMSTYLE
  5
A
330
0
100
AcDbSymbolTable
 70
     1
  0
DIMSTYLE
105
27
330
A
100
AcDbSymbolTableRecord
100
AcDbDimStyleTableRecord
  2
ISO-25
 70
     0
  3

  4

  5

  6

  7

 40
1.0
 41
2.5
 42
0.625
 43
3.75
 44
1.25
 45
0.0
 46
0.0
 47
0.0
 48
0.0
140
2.5
141
2.5
142
0.0
143
0.03937007874016
144
1.0
145
0.0
146
1.0
147
0.625
 71
     0
 72
     0
 73
     0
 74
     0
 75
     0
 76
     0
 77
     1
 78
     8
170
     0
171
     3
172
     1
173
     0
174
     0
175
     0
176
     0
177
     0
178
     0
270
     2
271
     2
272
     2
273
     2
274
     3
340
11
275
     0
280
     0
281
     0
282
     0
283
     0
284
     8
285
     0
286
     0
287
     3
288
     0
  0
ENDTAB
  0
TABLE
  2
BLOCK_RECORD
  5
1
330
0
100
AcDbSymbolTable
 70
     1
  0
BLOCK_RECORD
  5
1F
330
1
100
AcDbSymbolTableRecord
100
AcDbBlockTableRecord
  2
*MODEL_SPACE
  0
BLOCK_RECORD
  5
1B
330
1
100
AcDbSymbolTableRecord
100
AcDbBlockTableRecord
  2
*PAPER_SPACE
  0
ENDTAB
  0
ENDSEC
  0
SECTION
  2
BLOCKS
  0
BLOCK
  5
20
330
1F
100
AcDbEntity
  8
0
100
AcDbBlockBegin
  2
*MODEL_SPACE
 70
     0
 10
0.0
 20
0.0
 30
0.0
  3
*MODEL_SPACE
  1

  0
ENDBLK
  5
21
330
1F
100
AcDbEntity
  8
0
100
AcDbBlockEnd
  0
BLOCK
  5
1C
330
1B
100
AcDbEntity
 67
     1
  8
0
100
AcDbBlockBegin
  2
*PAPER_SPACE
  1

  0
ENDBLK
  5
1D
330
1B
100
AcDbEntity
 67
     1
  8
0
100
AcDbBlockEnd
  0
ENDSEC
  0
SECTION
  2
ENTITIES
  0
LWPOLYLINE
  5
100
100
AcDbEntity
  8
0
 62
7
100
AcDbPolyline
 90
2
 70
0
 10
190.223130
 20
865.775995
 30
0.0
 10
190.223130
 20
880.893995
 30
0.0
  0
LWPOLYLINE
  5
101
100
AcDbEntity
  8
0
 62
7
100
AcDbPolyline
 90
2
 70
0
 10
183.215130
 20
864.665995
 30
0.0
 10
178.543130
 20
879.044995
 30
0.0
  0
LWPOLYLINE
  5
102
100
AcDbEntity
  8
0
 62
7
100
AcDbPolyline
 90
2
 70
0
 10
176.893130
 20
861.444995
 30
0.0
 10
168.007130
 20
873.675995
 30
0.0
  0
LWPOLYLINE
  5
103
100
AcDbEntity
  8
0
 62
7
100
AcDbPolyline
 90
2
 70
0
 10
171.876130
 20
856.427995
 30
0.0
 10
159.645130
 20
865.314995
 30
0.0
  0
LWPOLYLINE
  5
104
100
AcDbEntity
  8
0
 62
7
100
AcDbPolyline
 90
2
 70
0
 10
168.655130
 20
850.102995
 30
0.0
 10
154.277130
 20
854.778995
 30
0.0
  0
LWPOLYLINE
  5
105
100
AcDbEntity
  8
0
 62
7
100
AcDbPolyline
 90
2
 70
0
 10
167.545130
 20
843.102995
 30
0.0
 10
152.427130
 20
843.102995
 30
0.0
  0
LWPOLYLINE
  5
106
100
AcDbEntity
  8
0
 62
7
100
AcDbPolyline
 90
2
 70
0
 10
168.655130
 20
836.092995
 30
0.0
 10
154.277130
 20
831.422995
 30
0.0
  0
LWPOLYLINE
  5
107
100
AcDbEntity
  8
0
 62
7
100
AcDbPolyline
 90
2
 70
0
 10
171.876130
 20
829.772995
 30
0.0
 10
159.645130
 20
820.882995
 30
0.0
  0
LWPOLYLINE
  5
108
100
AcDbEntity
  8
0
 62
7
100
AcDbPolyline
 90
2
 70
0
 10
176.893130
 20
824.752995
 30
0.0
 10
168.007130
 20
812.522995
 30
0.0
  0
LWPOLYLINE
  5
109
100
AcDbEntity
  8
0
 62
7
100
AcDbPolyline
 90
2
 70
0
 10
203.552130
 20
824.752995
 30
0.0
 10
212.438130
 20
812.522995
 30
0.0
  0
LWPOLYLINE
  5
10a
100
AcDbEntity
  8
0
 62
7
100
AcDbPolyline
 90
2
 70
0
 10
208.569130
 20
829.772995
 30
0.0
 10
220.800130
 20
820.882995
 30
0.0
  0
LWPOLYLINE
  5
10b
100
AcDbEntity
  8
0
 62
7
100
AcDbPolyline
 90
2
 70
0
 10
211.790130
 20
836.092995
 30
0.0
 10
226.168130
 20
831.422995
 30
0.0
  0
LWPOLYLINE
  5
10c
100
AcDbEntity
  8
0
 62
7
100
AcDbPolyline
 90
2
 70
0
 10
212.900130
 20
843.102995
 30
0.0
 10
228.018130
 20
843.102995
 30
0.0
  0
LWPOLYLINE
  5
10d
100
AcDbEntity
  8
0
 62
7
100
AcDbPolyline
 90
2
 70
0
 10
211.790130
 20
850.102995
 30
0.0
 10
226.168130
 20
854.778995
 30
0.0
  0
LWPOLYLINE
  5
10e
100
AcDbEntity
  8
0
 62
7
100
AcDbPolyline
 90
2
 70
0
 10
208.569130
 20
856.427995
 30
0.0
 10
220.800130
 20
865.314995
 30
0.0
  0
LWPOLYLINE
  5
10f
100
AcDbEntity
  8
0
 62
7
100
AcDbPolyline
 90
2
 70
0
 10
203.552130
 20
861.444995
 30
0.0
 10
212.438130
 20
873.675995
 30
0.0
  0
LWPOLYLINE
  5
110
100
AcDbEntity
  8
0
 62
7
100
AcDbPolyline
 90
2
 70
0
 10
197.230130
 20
864.665995
 30
0.0
 10
201.902130
 20
879.044995
 30
0.0
  0
LWPOLYLINE
  5
111
100
AcDbEntity
  8
0
 62
7
100
AcDbPolyline
 90
2
 70
0
 10
190.223130
 20
865.775995
 30
0.0
 10
190.223130
 20
880.893995
 30
0.0
  0
LWPOLYLINE
  5
112
100
AcDbEntity
  8
0
 62
7
100
AcDbPolyline
 90
2
 70
0
 10
319.278030
 20
864.665995
 30
0.0
 10
314.606230
 20
879.044995
 30
0.0
  0
LWPOLYLINE
  5
113
100
AcDbEntity
  8
0
 62
7
100
AcDbPolyline
 90
2
 70
0
 10
312.956330
 20
861.444995
 30
0.0
 10
304.070130
 20
873.675995
 30
0.0
  0
LWPOLYLINE
  5
114
100
AcDbEntity
  8
0
 62
7
100
AcDbPolyline
 90
2
 70
0
 10
307.939430
 20
856.427995
 30
0.0
 10
295.708630
 20
865.314995
 30
0.0
  0
LWPOLYLINE
  5
115
100
AcDbEntity
  8
0
 62
7
100
AcDbPolyline
 90
2
 70
0
 10
304.718330
 20
850.102995
 30
0.0
 10
290.340130
 20
854.778995
 30
0.0
  0
LWPOLYLINE
  5
116
100
AcDbEntity
  8
0
 62
7
100
AcDbPolyline
 90
2
 70
0
 10
303.608430
 20
843.102995
 30
0.0
 10
288.490130
 20
843.102995
 30
0.0
  0
LWPOLYLINE
  5
117
100
AcDbEntity
  8
0
 62
7
100
AcDbPolyline
 90
2
 70
0
 10
304.718330
 20
836.092995
 30
0.0
 10
290.340130
 20
831.422995
 30
0.0
  0
LWPOLYLINE
  5
118
100
AcDbEntity
  8
0
 62
7
100
AcDbPolyline
 90
2
 70
0
 10
307.939430
 20
829.772995
 30
0.0
 10
295.708630
 20
820.882995
 30
0.0
  0
LWPOLYLINE
  5
119
100
AcDbEntity
  8
0
 62
7
100
AcDbPolyline
 90
2
 70
0
 10
312.956330
 20
824.752995
 30
0.0
 10
304.070130
 20
812.522995
 30
0.0
  0
LWPOLYLINE
  5
11a
100
AcDbEntity
  8
0
 62
7
100
AcDbPolyline
 90
2
 70
0
 10
339.614930
 20
824.752995
 30
0.0
 10
348.501130
 20
812.522995
 30
0.0
  0
LWPOLYLINE
  5
11b
100
AcDbEntity
  8
0
 62
7
100
AcDbPolyline
 90
2
 70
0
 10
344.631830
 20
829.772995
 30
0.0
 10
356.862630
 20
820.882995
 30
0.0
  0
LWPOLYLINE
  5
11c
100
AcDbEntity
  8
0
 62
7
100
AcDbPolyline
 90
2
 70
0
 10
347.852930
 20
836.092995
 30
0.0
 10
362.231030
 20
831.422995
 30
0.0
  0
LWPOLYLINE
  5
11d
100
AcDbEntity
  8
0
 62
7
100
AcDbPolyline
 90
2
 70
0
 10
348.962830
 20
843.102995
 30
0.0
 10
364.080930
 20
843.102995
 30
0.0
  0
LWPOLYLINE
  5
11e
100
AcDbEntity
  8
0
 62
7
100
AcDbPolyline
 90
2
 70
0
 10
347.852930
 20
850.102995
 30
0.0
 10
362.231030
 20
854.778995
 30
0.0
  0
LWPOLYLINE
  5
11f
100
AcDbEntity
  8
0
 62
7
100
AcDbPolyline
 90
2
 70
0
 10
344.631830
 20
856.427995
 30
0.0
 10
356.862630
 20
865.314995
 30
0.0
  0
LWPOLYLINE
  5
120
100
AcDbEntity
  8
0
 62
7
100
AcDbPolyline
 90
2
 70
0
 10
339.614930
 20
861.444995
 30
0.0
 10
348.501130
 20
873.675995
 30
0.0
  0
LWPOLYLINE
  5
121
100
AcDbEntity
  8
0
 62
7
100
AcDbPolyline
 90
2
 70
0
 10
333.293230
 20
864.665995
 30
0.0
 10
337.965030
 20
879.044995
 30
0.0
  0
LWPOLYLINE
  5
122
100
AcDbEntity
  8
0
 62
7
100
AcDbPolyline
 90
2
 70
0
 10
326.285630
 20
865.775995
 30
0.0
 10
326.285630
 20
880.893995
 30
0.0
  0
LWPOLYLINE
  5
123
100
AcDbEntity
  8
0
 62
7
100
AcDbPolyline
 90
2
 70
0
 10
455.341030
 20
864.665995
 30
0.0
 10
450.669230
 20
879.044995
 30
0.0
  0
LWPOLYLINE
  5
124
100
AcDbEntity
  8
0
 62
7
100
AcDbPolyline
 90
2
 70
0
 10
449.019330
 20
861.444995
 30
0.0
 10
440.133130
 20
873.675995
 30
0.0
  0
LWPOLYLINE
  5
125
100
AcDbEntity
  8
0
 62
7
100
AcDbPolyline
 90
2
 70
0
 10
444.002430
 20
856.427995
 30
0.0
 10
431.771630
 20
865.314995
 30
0.0
  0
LWPOLYLINE
  5
126
100
AcDbEntity
  8
0
 62
7
100
AcDbPolyline
 90
2
 70
0
 10
440.781330
 20
850.102995
 30
0.0
 10
426.403230
 20
854.778995
 30
0.0
  0
LWPOLYLINE
  5
127
100
AcDbEntity
  8
0
 62
7
100
AcDbPolyline
 90
2
 70
0
 10
439.671430
 20
843.102995
 30
0.0
 10
424.553330
 20
843.102995
 30
0.0
  0
LWPOLYLINE
  5
128
100
AcDbEntity
  8
0
 62
7
100
AcDbPolyline
 90
2
 70
0
 10
440.781330
 20
836.092995
 30
0.0
 10
426.403230
 20
831.422995
 30
0.0
  0
LWPOLYLINE
  5
129
100
AcDbEntity
  8
0
 62
7
100
AcDbPolyline
 90
2
 70
0
 10
444.002430
 20
829.772995
 30
0.0
 10
431.771630
 20
820.882995
 30
0.0
  0
LWPOLYLINE
  5
12a
100
AcDbEntity
  8
0
 62
7
100
AcDbPolyline
 90
2
 70
0
 10
449.019330
 20
824.752995
 30
0.0
 10
440.133130
 20
812.522995
 30
0.0
  0
LWPOLYLINE
  5
12b
100
AcDbEntity
  8
0
 62
7
100
AcDbPolyline
 90
2
 70
0
 10
475.677930
 20
824.752995
 30
0.0
 10
484.564130
 20
812.522995
 30
0.0
  0
LWPOLYLINE
  5
12c
100
AcDbEntity
  8
0
 62
7
100
AcDbPolyline
 90
2
 70
0
 10
480.694830
 20
829.772995
 30
0.0
 10
492.925630
 20
820.882995
 30
0.0
  0
LWPOLYLINE
  5
12d
100
AcDbEntity
  8
0
 62
7
100
AcDbPolyline
 90
2
 70
0
 10
483.915930
 20
836.092995
 30
0.0
 10
498.294130
 20
831.422995
 30
0.0
  0
LWPOLYLINE
  5
12e
100
AcDbEntity
  8
0
 62
7
100
AcDbPolyline
 90
2
 70
0
 10
485.025830
 20
843.102995
 30
0.0
 10
500.144130
 20
843.102995
 30
0.0
  0
LWPOLYLINE
  5
12f
100
AcDbEntity
  8
0
 62
7
100
AcDbPolyline
 90
2
 70
0
 10
483.915930
 20
850.102995
 30
0.0
 10
498.294130
 20
854.778995
 30
0.0
  0
LWPOLYLINE
  5
130
100
AcDbEntity
  8
0
 62
7
100
AcDbPolyline
 90
2
 70
0
 10
480.694830
 20
856.427995
 30
0.0
 10
492.925630
 20
865.314995
 30
0.0
  0
LWPOLYLINE
  5
131
100
AcDbEntity
  8
0
 62
7
100
AcDbPolyline
 90
2
 70
0
 10
475.677930
 20
861.444995
 30
0.0
 10
484.564130
 20
873.675995
 30
0.0
  0
LWPOLYLINE
  5
132
100
AcDbEntity
  8
0
 62
7
100
AcDbPolyline
 90
2
 70
0
 10
469.356230
 20
864.665995
 30
0.0
 10
474.028030
 20
879.044995
 30
0.0
  0
LWPOLYLINE
  5
133
100
AcDbEntity
  8
0
 62
7
100
AcDbPolyline
 90
2
 70
0
 10
462.348630
 20
865.775995
 30
0.0
 10
462.348630
 20
880.893995
 30
0.0
  0
LWPOLYLINE
  5
134
100
AcDbEntity
  8
0
 62
7
100
AcDbPolyline
 90
2
 70
0
 10
591.404130
 20
864.665995
 30
0.0
 10
586.732130
 20
879.044995
 30
0.0
  0
LWPOLYLINE
  5
135
100
AcDbEntity
  8
0
 62
7
100
AcDbPolyline
 90
2
 70
0
 10
585.082130
 20
861.444995
 30
0.0
 10
576.196130
 20
873.675995
 30
0.0
  0
LWPOLYLINE
  5
136
100
AcDbEntity
  8
0
 62
7
100
AcDbPolyline
 90
2
 70
0
 10
580.065130
 20
856.427995
 30
0.0
 10
567.834130
 20
865.314995
 30
0.0
  0
LWPOLYLINE
  5
137
100
AcDbEntity
  8
0
 62
7
100
AcDbPolyline
 90
2
 70
0
 10
576.844130
 20
850.102995
 30
0.0
 10
562.466130
 20
854.778995
 30
0.0
  0
LWPOLYLINE
  5
138
100
AcDbEntity
  8
0
 62
7
100
AcDbPolyline
 90
2
 70
0
 10
575.734130
 20
843.102995
 30
0.0
 10
560.616130
 20
843.102995
 30
0.0
  0
LWPOLYLINE
  5
139
100
AcDbEntity
  8
0
 62
7
100
AcDbPolyline
 90
2
 70
0
 10
576.844130
 20
836.092995
 30
0.0
 10
562.466130
 20
831.422995
 30
0.0
  0
LWPOLYLINE
  5
13a
100
AcDbEntity
  8
0
 62
7
100
AcDbPolyline
 90
2
 70
0
 10
580.065130
 20
829.772995
 30
0.0
 10
567.834130
 20
820.882995
 30
0.0
  0
LWPOLYLINE
  5
13b
100
AcDbEntity
  8
0
 62
7
100
AcDbPolyline
 90
2
 70
0
 10
585.082130
 20
824.752995
 30
0.0
 10
576.196130
 20
812.522995
 30
0.0
  0
LWPOLYLINE
  5
13c
100
AcDbEntity
  8
0
 62
7
100
AcDbPolyline
 90
2
 70
0
 10
611.741130
 20
824.752995
 30
0.0
 10
620.627130
 20
812.522995
 30
0.0
  0
LWPOLYLINE
  5
13d
100
AcDbEntity
  8
0
 62
7
100
AcDbPolyline
 90
2
 70
0
 10
616.758130
 20
829.772995
 30
0.0
 10
628.989130
 20
820.882995
 30
0.0
  0
LWPOLYLINE
  5
13e
100
AcDbEntity
  8
0
 62
7
100
AcDbPolyline
 90
2
 70
0
 10
619.979130
 20
836.092995
 30
0.0
 10
634.357130
 20
831.422995
 30
0.0
  0
LWPOLYLINE
  5
13f
100
AcDbEntity
  8
0
 62
7
100
AcDbPolyline
 90
2
 70
0
 10
621.089130
 20
843.102995
 30
0.0
 10
636.207130
 20
843.102995
 30
0.0
  0
LWPOLYLINE
  5
140
100
AcDbEntity
  8
0
 62
7
100
AcDbPolyline
 90
2
 70
0
 10
619.979130
 20
850.102995
 30
0.0
 10
634.357130
 20
854.778995
 30
0.0
  0
LWPOLYLINE
  5
141
100
AcDbEntity
  8
0
 62
7
100
AcDbPolyline
 90
2
 70
0
 10
616.758130
 20
856.427995
 30
0.0
 10
628.989130
 20
865.314995
 30
0.0
  0
LWPOLYLINE
  5
142
100
AcDbEntity
  8
0
 62
7
100
AcDbPolyline
 90
2
 70
0
 10
611.741130
 20
861.444995
 30
0.0
 10
620.627130
 20
873.675995
 30
0.0
  0
LWPOLYLINE
  5
143
100
AcDbEntity
  8
0
 62
7
100
AcDbPolyline
 90
2
 70
0
 10
605.419130
 20
864.665995
 30
0.0
 10
610.091130
 20
879.044995
 30
0.0
  0
LWPOLYLINE
  5
144
100
AcDbEntity
  8
0
 62
7
100
AcDbPolyline
 90
2
 70
0
 10
598.411130
 20
865.775995
 30
0.0
 10
598.411130
 20
880.893995
 30
0.0
  0
LWPOLYLINE
  5
145
100
AcDbEntity
  8
0
 62
7
100
AcDbPolyline
 90
2
 70
0
 10
183.215130
 20
751.282995
 30
0.0
 10
178.543130
 20
765.662995
 30
0.0
  0
LWPOLYLINE
  5
146
100
AcDbEntity
  8
0
 62
7
100
AcDbPolyline
 90
2
 70
0
 10
176.893130
 20
748.062995
 30
0.0
 10
168.007130
 20
760.292995
 30
0.0
  0
LWPOLYLINE
  5
147
100
AcDbEntity
  8
0
 62
7
100
AcDbPolyline
 90
2
 70
0
 10
171.876130
 20
743.042995
 30
0.0
 10
159.645130
 20
751.932995
 30
0.0
  0
LWPOLYLINE
  5
148
100
AcDbEntity
  8
0
 62
7
100
AcDbPolyline
 90
2
 70
0
 10
168.655130
 20
736.722995
 30
0.0
 10
154.277130
 20
741.392995
 30
0.0
  0
LWPOLYLINE
  5
149
100
AcDbEntity
  8
0
 62
7
100
AcDbPolyline
 90
2
 70
0
 10
167.545130
 20
729.712995
 30
0.0
 10
152.427130
 20
729.712995
 30
0.0
  0
LWPOLYLINE
  5
14a
100
AcDbEntity
  8
0
 62
7
100
AcDbPolyline
 90
2
 70
0
 10
168.655130
 20
722.702995
 30
0.0
 10
154.277130
 20
718.032995
 30
0.0
  0
LWPOLYLINE
  5
14b
100
AcDbEntity
  8
0
 62
7
100
AcDbPolyline
 90
2
 70
0
 10
171.876130
 20
716.382995
 30
0.0
 10
159.645130
 20
707.492995
 30
0.0
  0
LWPOLYLINE
  5
14c
100
AcDbEntity
  8
0
 62
7
100
AcDbPolyline
 90
2
 70
0
 10
176.893130
 20
711.362995
 30
0.0
 10
168.007130
 20
699.132995
 30
0.0
  0
LWPOLYLINE
  5
14d
100
AcDbEntity
  8
0
 62
7
100
AcDbPolyline
 90
2
 70
0
 10
203.552130
 20
711.362995
 30
0.0
 10
212.438130
 20
699.132995
 30
0.0
  0
LWPOLYLINE
  5
14e
100
AcDbEntity
  8
0
 62
7
100
AcDbPolyline
 90
2
 70
0
 10
208.569130
 20
716.382995
 30
0.0
 10
220.800130
 20
707.492995
 30
0.0
  0
LWPOLYLINE
  5
14f
100
AcDbEntity
  8
0
 62
7
100
AcDbPolyline
 90
2
 70
0
 10
211.790130
 20
722.702995
 30
0.0
 10
226.168130
 20
718.032995
 30
0.0
  0
LWPOLYLINE
  5
150
100
AcDbEntity
  8
0
 62
7
100
AcDbPolyline
 90
2
 70
0
 10
212.900130
 20
729.712995
 30
0.0
 10
228.018130
 20
729.712995
 30
0.0
  0
LWPOLYLINE
  5
151
100
AcDbEntity
  8
0
 62
7
100
AcDbPolyline
 90
2
 70
0
 10
211.790130
 20
736.722995
 30
0.0
 10
226.168130
 20
741.392995
 30
0.0
  0
LWPOLYLINE
  5
152
100
AcDbEntity
  8
0
 62
7
100
AcDbPolyline
 90
2
 70
0
 10
208.569130
 20
743.042995
 30
0.0
 10
220.800130
 20
751.932995
 30
0.0
  0
LWPOLYLINE
  5
153
100
AcDbEntity
  8
0
 62
7
100
AcDbPolyline
 90
2
 70
0
 10
203.552130
 20
748.062995
 30
0.0
 10
212.438130
 20
760.292995
 30
0.0
  0
LWPOLYLINE
  5
154
100
AcDbEntity
  8
0
 62
7
100
AcDbPolyline
 90
2
 70
0
 10
197.230130
 20
751.282995
 30
0.0
 10
201.902130
 20
765.662995
 30
0.0
  0
LWPOLYLINE
  5
155
100
AcDbEntity
  8
0
 62
7
100
AcDbPolyline
 90
2
 70
0
 10
190.223130
 20
752.392995
 30
0.0
 10
190.223130
 20
767.512995
 30
0.0
  0
LWPOLYLINE
  5
156
100
AcDbEntity
  8
0
 62
7
100
AcDbPolyline
 90
2
 70
0
 10
319.278030
 20
751.282995
 30
0.0
 10
314.606230
 20
765.662995
 30
0.0
  0
LWPOLYLINE
  5
157
100
AcDbEntity
  8
0
 62
7
100
AcDbPolyline
 90
2
 70
0
 10
312.956330
 20
748.062995
 30
0.0
 10
304.070130
 20
760.292995
 30
0.0
  0
LWPOLYLINE
  5
158
100
AcDbEntity
  8
0
 62
7
100
AcDbPolyline
 90
2
 70
0
 10
307.939430
 20
743.042995
 30
0.0
 10
295.708630
 20
751.932995
 30
0.0
  0
LWPOLYLINE
  5
159
100
AcDbEntity
  8
0
 62
7
100
AcDbPolyline
 90
2
 70
0
 10
304.718330
 20
736.722995
 30
0.0
 10
290.340130
 20
741.392995
 30
0.0
  0
LWPOLYLINE
  5
15a
100
AcDbEntity
  8
0
 62
7
100
AcDbPolyline
 90
2
 70
0
 10
303.608430
 20
729.712995
 30
0.0
 10
288.490130
 20
729.712995
 30
0.0
  0
LWPOLYLINE
  5
15b
100
AcDbEntity
  8
0
 62
7
100
AcDbPolyline
 90
2
 70
0
 10
304.718330
 20
722.702995
 30
0.0
 10
290.340130
 20
718.032995
 30
0.0
  0
LWPOLYLINE
  5
15c
100
AcDbEntity
  8
0
 62
7
100
AcDbPolyline
 90
2
 70
0
 10
307.939430
 20
716.382995
 30
0.0
 10
295.708630
 20
707.492995
 30
0.0
  0
LWPOLYLINE
  5
15d
100
AcDbEntity
  8
0
 62
7
100
AcDbPolyline
 90
2
 70
0
 10
312.956330
 20
711.362995
 30
0.0
 10
304.070130
 20
699.132995
 30
0.0
  0
LWPOLYLINE
  5
15e
100
AcDbEntity
  8
0
 62
7
100
AcDbPolyline
 90
2
 70
0
 10
339.614930
 20
711.362995
 30
0.0
 10
348.501130
 20
699.132995
 30
0.0
  0
LWPOLYLINE
  5
15f
100
AcDbEntity
  8
0
 62
7
100
AcDbPolyline
 90
2
 70
0
 10
344.631830
 20
716.382995
 30
0.0
 10
356.862630
 20
707.492995
 30
0.0
  0
LWPOLYLINE
  5
160
100
AcDbEntity
  8
0
 62
7
100
AcDbPolyline
 90
2
 70
0
 10
347.852930
 20
722.702995
 30
0.0
 10
362.231030
 20
718.032995
 30
0.0
  0
LWPOLYLINE
  5
161
100
AcDbEntity
  8
0
 62
7
100
AcDbPolyline
 90
2
 70
0
 10
348.962830
 20
729.712995
 30
0.0
 10
364.080930
 20
729.712995
 30
0.0
  0
LWPOLYLINE
  5
162
100
AcDbEntity
  8
0
 62
7
100
AcDbPolyline
 90
2
 70
0
 10
347.852930
 20
736.722995
 30
0.0
 10
362.231030
 20
741.392995
 30
0.0
  0
LWPOLYLINE
  5
163
100
AcDbEntity
  8
0
 62
7
100
AcDbPolyline
 90
2
 70
0
 10
344.631830
 20
743.042995
 30
0.0
 10
356.862630
 20
751.932995
 30
0.0
  0
LWPOLYLINE
  5
164
100
AcDbEntity
  8
0
 62
7
100
AcDbPolyline
 90
2
 70
0
 10
339.614930
 20
748.062995
 30
0.0
 10
348.501130
 20
760.292995
 30
0.0
  0
LWPOLYLINE
  5
165
100
AcDbEntity
  8
0
 62
7
100
AcDbPolyline
 90
2
 70
0
 10
333.293230
 20
751.282995
 30
0.0
 10
337.965030
 20
765.662995
 30
0.0
  0
LWPOLYLINE
  5
166
100
AcDbEntity
  8
0
 62
7
100
AcDbPolyline
 90
2
 70
0
 10
326.285630
 20
752.392995
 30
0.0
 10
326.285630
 20
767.512995
 30
0.0
  0
LWPOLYLINE
  5
167
100
AcDbEntity
  8
0
 62
7
100
AcDbPolyline
 90
4
 70
0
 10
405.655730
 20
767.512995
 30
0.0
 10
405.655730
 20
775.062995
 30
0.0
 10
413.214730
 20
775.062995
 30
0.0
 10
413.214730
 20
767.512995
 30
0.0
  0
LWPOLYLINE
  5
168
100
AcDbEntity
  8
0
 62
7
100
AcDbPolyline
 90
2
 70
0
 10
398.096660
 20
767.512995
 30
0.0
 10
405.655730
 20
767.512995
 30
0.0
  0
LWPOLYLINE
  5
169
100
AcDbEntity
  8
0
 62
7
100
AcDbPolyline
 90
2
 70
0
 10
398.096660
 20
767.512995
 30
0.0
 10
398.096660
 20
775.062995
 30
0.0
  0
LWPOLYLINE
  5
16a
100
AcDbEntity
  8
0
 62
7
100
AcDbPolyline
 90
5
 70
0
 10
420.773830
 20
767.512995
 30
0.0
 10
424.553330
 20
775.062995
 30
0.0
 10
428.332830
 20
767.512995
 30
0.0
 10
432.112430
 20
775.062995
 30
0.0
 10
435.891930
 20
767.512995
 30
0.0
  0
SPLINE
  5
16b
100
AcDbEntity
  8
0
 62
7
100
AcDbSpline
 70
8
 71
3
 72
8
 73
4
 74
0
 40
0
 40
0
 40
0
 40
0
 40
1
 40
1
 40
1
 40
1
 10
288.490360
 20
896.012525
 30
0.0
 10
287.487966
 20
896.012526
 30
0.0
 10
286.526628
 20
895.614326
 30
0.0
 10
285.817828
 20
894.905527
 30
0.0
  0
SPLINE
  5
16c
100
AcDbEntity
  8
0
 62
7
100
AcDbSpline
 70
8
 71
3
 72
8
 73
4
 74
0
 40
0
 40
0
 40
0
 40
0
 40
1
 40
1
 40
1
 40
1
 10
285.817828
 20
894.905527
 30
0.0
 10
285.109029
 20
894.196727
 30
0.0
 10
284.710829
 20
893.235389
 30
0.0
 10
284.710830
 20
892.232995
 30
0.0
  0
SPLINE
  5
16d
100
AcDbEntity
  8
0
 62
7
100
AcDbSpline
 70
8
 71
3
 72
8
 73
4
 74
0
 40
0
 40
0
 40
0
 40
0
 40
1
 40
1
 40
1
 40
1
 10
503.923430
 20
892.232995
 30
0.0
 10
503.923431
 20
893.235389
 30
0.0
 10
503.525231
 20
894.196727
 30
0.0
 10
502.816432
 20
894.905527
 30
0.0
  0
SPLINE
  5
16e
100
AcDbEntity
  8
0
 62
7
100
AcDbSpline
 70
8
 71
3
 72
8
 73
4
 74
0
 40
0
 40
0
 40
0
 40
0
 40
1
 40
1
 40
1
 40
1
 10
502.816432
 20
894.905527
 30
0.0
 10
502.107632
 20
895.614326
 30
0.0
 10
501.146294
 20
896.012526
 30
0.0
 10
500.143900
 20
896.012525
 30
0.0
  0
LWPOLYLINE
  5
16f
100
AcDbEntity
  8
0
 62
7
100
AcDbPolyline
 90
5
 70
0
 10
443.451030
 20
767.512995
 30
0.0
 10
451.010030
 20
775.062995
 30
0.0
 10
451.010030
 20
767.512995
 30
0.0
 10
458.569130
 20
775.062995
 30
0.0
 10
458.569130
 20
767.512995
 30
0.0
  0
LWPOLYLINE
  5
170
100
AcDbEntity
  8
0
 62
7
100
AcDbPolyline
 90
2
 70
0
 10
284.711130
 20
892.232995
 30
0.0
 10
284.711130
 20
877.114995
 30
0.0
  0
SPLINE
  5
171
100
AcDbEntity
  8
0
 62
7
100
AcDbSpline
 70
8
 71
3
 72
8
 73
4
 74
0
 40
0
 40
0
 40
0
 40
0
 40
1
 40
1
 40
1
 40
1
 10
152.427370
 20
782.626705
 30
0.0
 10
151.424976
 20
782.626706
 30
0.0
 10
150.463638
 20
782.228506
 30
0.0
 10
149.754838
 20
781.519707
 30
0.0
  0
SPLINE
  5
172
100
AcDbEntity
  8
0
 62
7
100
AcDbSpline
 70
8
 71
3
 72
8
 73
4
 74
0
 40
0
 40
0
 40
0
 40
0
 40
1
 40
1
 40
1
 40
1
 10
149.754838
 20
781.519707
 30
0.0
 10
149.046039
 20
780.810907
 30
0.0
 10
148.647839
 20
779.849569
 30
0.0
 10
148.647840
 20
778.847175
 30
0.0
  0
LWPOLYLINE
  5
173
100
AcDbEntity
  8
0
 62
7
100
AcDbPolyline
 90
2
 70
0
 10
243.136130
 20
782.622995
 30
0.0
 10
152.427130
 20
782.622995
 30
0.0
  0
SPLINE
  5
174
100
AcDbEntity
  8
0
 62
7
100
AcDbSpline
 70
8
 71
3
 72
8
 73
4
 74
0
 40
0
 40
0
 40
0
 40
0
 40
1
 40
1
 40
1
 40
1
 10
367.860440
 20
778.847175
 30
0.0
 10
367.860441
 20
779.849569
 30
0.0
 10
367.462241
 20
780.810907
 30
0.0
 10
366.753442
 20
781.519707
 30
0.0
  0
SPLINE
  5
175
100
AcDbEntity
  8
0
 62
7
100
AcDbSpline
 70
8
 71
3
 72
8
 73
4
 74
0
 40
0
 40
0
 40
0
 40
0
 40
1
 40
1
 40
1
 40
1
 10
366.753442
 20
781.519707
 30
0.0
 10
366.044642
 20
782.228506
 30
0.0
 10
365.083304
 20
782.626706
 30
0.0
 10
364.080910
 20
782.626705
 30
0.0
  0
LWPOLYLINE
  5
176
100
AcDbEntity
  8
0
 62
7
100
AcDbPolyline
 90
2
 70
0
 10
269.593130
 20
782.622995
 30
0.0
 10
364.080930
 20
782.622995
 30
0.0
  0
LWPOLYLINE
  5
177
100
AcDbEntity
  8
0
 62
7
100
AcDbPolyline
 90
2
 70
0
 10
148.648130
 20
778.842995
 30
0.0
 10
148.648130
 20
763.732995
 30
0.0
  0
LWPOLYLINE
  5
178
100
AcDbEntity
  8
0
 62
7
100
AcDbPolyline
 90
2
 70
0
 10
367.860430
 20
778.842995
 30
0.0
 10
367.860430
 20
763.732995
 30
0.0
  0
LWPOLYLINE
  5
179
100
AcDbEntity
  8
0
 62
7
100
AcDbPolyline
 90
2
 70
0
 10
503.923130
 20
892.232995
 30
0.0
 10
503.923130
 20
877.114995
 30
0.0
  0
LWPOLYLINE
  5
17a
100
AcDbEntity
  8
0
 62
7
100
AcDbPolyline
 90
2
 70
0
 10
554.964780
 20
698.674685
 30
0.0
 10
574.918630
 20
698.674685
 30
0.0
  0
LWPOLYLINE
  5
17b
100
AcDbEntity
  8
0
 62
7
100
AcDbPolyline
 90
2
 70
0
 10
207.302950
 20
683.110885
 30
0.0
 10
226.725790
 20
683.110885
 30
0.0
  0
LWPOLYLINE
  5
17c
100
AcDbEntity
  8
0
 62
7
100
AcDbPolyline
 90
2
 70
0
 10
337.493290
 20
683.110885
 30
0.0
 10
368.369740
 20
683.110885
 30
0.0
  0
LWPOLYLINE
  5
17d
100
AcDbEntity
  8
0
 62
7
100
AcDbPolyline
 90
2
 70
0
 10
204.198120
 20
795.259605
 30
0.0
 10
226.105830
 20
795.259605
 30
0.0
  0
LWPOLYLINE
  5
17e
100
AcDbEntity
  8
0
 62
7
100
AcDbPolyline
 90
2
 70
0
 10
486.695620
 20
698.674685
 30
0.0
 10
506.513910
 20
698.674685
 30
0.0
  0
LWPOLYLINE
  5
17f
100
AcDbEntity
  8
0
 62
7
100
AcDbPolyline
 90
2
 70
0
 10
579.514130
 20
729.712995
 30
0.0
 10
617.309130
 20
729.712995
 30
0.0
  0
LWPOLYLINE
  5
180
100
AcDbEntity
  8
0
 62
7
100
AcDbPolyline
 90
2
 70
0
 10
375.419530
 20
896.012995
 30
0.0
 10
288.490130
 20
896.012995
 30
0.0
  0
LWPOLYLINE
  5
181
100
AcDbEntity
  8
0
 62
7
100
AcDbPolyline
 90
2
 70
0
 10
409.435230
 20
896.012995
 30
0.0
 10
500.144130
 20
896.012995
 30
0.0
  0
LWPOLYLINE
  5
182
100
AcDbEntity
  8
0
 62
7
100
AcDbPolyline
 90
4
 70
0
 10
181.523426
 20
797.463222
 30
0.0
 10
181.523426
 20
803.322547
 30
0.0
 10
178.485573
 20
803.322547
 30
0.0
 10
184.528208
 20
803.322547
 30
0.0
  0
LWPOLYLINE
  5
183
100
AcDbEntity
  8
0
 62
7
100
AcDbPolyline
 90
6
 70
0
 10
185.482558
 20
802.377647
 30
0.0
 10
185.482558
 20
798.178511
 30
0.0
 10
185.898314
 20
797.761338
 30
0.0
 10
189.441689
 20
797.761338
 30
0.0
 10
189.942486
 20
798.296624
 30
0.0
 10
189.942486
 20
802.434341
 30
0.0
  0
LWPOLYLINE
  5
184
100
AcDbEntity
  8
0
 62
7
100
AcDbPolyline
 90
5
 70
0
 10
191.255847
 20
797.463222
 30
0.0
 10
191.255847
 20
802.075279
 30
0.0
 10
195.300019
 20
802.075279
 30
0.0
 10
195.744122
 20
801.631176
 30
0.0
 10
195.744122
 20
797.433930
 30
0.0
  0
LWPOLYLINE
  5
185
100
AcDbEntity
  8
0
 62
7
100
AcDbPolyline
 90
9
 70
0
 10
201.763196
 20
797.701809
 30
0.0
 10
197.530044
 20
797.701809
 30
0.0
 10
197.057594
 20
798.207803
 30
0.0
 10
197.057594
 20
801.659523
 30
0.0
 10
197.567840
 20
802.198116
 30
0.0
 10
201.016725
 20
802.198116
 30
0.0
 10
201.517522
 20
801.687870
 30
0.0
 10
201.517522
 20
799.968152
 30
0.0
 10
197.029247
 20
799.968152
 30
0.0
  0
LWPOLYLINE
  5
186
100
AcDbEntity
  8
0
 62
7
100
AcDbPolyline
 90
6
 70
1
 10
314.446854
 20
803.053997
 30
0.0
 10
314.446854
 20
797.463024
 30
0.0
 10
319.511518
 20
797.463024
 30
0.0
 10
320.069009
 20
798.028074
 30
0.0
 10
320.069009
 20
802.524853
 30
0.0
 10
319.539865
 20
803.053997
 30
0.0
  0
LWPOLYLINE
  5
187
100
AcDbEntity
  8
0
 62
7
100
AcDbPolyline
 90
9
 70
0
 10
326.295896
 20
797.433259
 30
0.0
 10
322.062744
 20
797.433259
 30
0.0
 10
321.590294
 20
797.939253
 30
0.0
 10
321.590294
 20
801.390973
 30
0.0
 10
322.100540
 20
801.929566
 30
0.0
 10
325.549425
 20
801.929566
 30
0.0
 10
326.050222
 20
801.419320
 30
0.0
 10
326.050222
 20
799.699602
 30
0.0
 10
321.561947
 20
799.699602
 30
0.0
  0
LWPOLYLINE
  5
188
100
AcDbEntity
  8
0
 62
7
100
AcDbPolyline
 90
4
 70
0
 10
327.363660
 20
803.800468
 30
0.0
 10
327.363660
 20
797.998782
 30
0.0
 10
327.892804
 20
797.463024
 30
0.0
 10
328.847153
 20
797.463024
 30
0.0
  0
LWPOLYLINE
  5
189
100
AcDbEntity
  8
0
 62
7
100
AcDbPolyline
 90
8
 70
0
 10
329.385729
 20
801.901219
 30
0.0
 10
333.581085
 20
801.901219
 30
0.0
 10
334.081882
 20
801.419320
 30
0.0
 10
334.081882
 20
797.463024
 30
0.0
 10
330.066057
 20
797.463024
 30
0.0
 10
329.593607
 20
797.939253
 30
0.0
 10
329.593607
 20
799.633459
 30
0.0
 10
334.025188
 20
799.633459
 30
0.0
  0
LWPOLYLINE
  5
18a
100
AcDbEntity
  8
0
 62
7
100
AcDbPolyline
 90
9
 70
0
 10
335.962194
 20
795.409756
 30
0.0
 10
339.297691
 20
795.409756
 30
0.0
 10
339.826835
 20
795.948349
 30
0.0
 10
339.826835
 20
802.137444
 30
0.0
 10
339.826835
 20
797.789959
 30
0.0
 10
339.477222
 20
797.463024
 30
0.0
 10
335.697622
 20
797.463024
 30
0.0
 10
335.187376
 20
797.969490
 30
0.0
 10
335.187376
 20
802.109097
 30
0.0
  0
LWPOLYLINE
  5
18b
100
AcDbEntity
  8
0
 62
7
100
AcDbPolyline
 90
6
 70
0
 10
440.932224
 20
797.164902
 30
0.0
 10
440.932224
 20
800.321813
 30
0.0
 10
445.278764
 20
800.321813
 30
0.0
 10
440.932224
 20
800.321813
 30
0.0
 10
440.932224
 20
803.062023
 30
0.0
 10
446.289807
 20
803.062023
 30
0.0
  0
LWPOLYLINE
  5
18c
100
AcDbEntity
  8
0
 62
7
100
AcDbPolyline
 90
9
 70
0
 10
451.562346
 20
797.403489
 30
0.0
 10
447.329194
 20
797.403489
 30
0.0
 10
446.856744
 20
797.909483
 30
0.0
 10
446.856744
 20
801.361203
 30
0.0
 10
447.366990
 20
801.899796
 30
0.0
 10
450.815875
 20
801.899796
 30
0.0
 10
451.316672
 20
801.389550
 30
0.0
 10
451.316672
 20
799.669832
 30
0.0
 10
446.828397
 20
799.669832
 30
0.0
  0
LWPOLYLINE
  5
18d
100
AcDbEntity
  8
0
 62
7
100
AcDbPolyline
 90
9
 70
0
 10
457.392426
 20
797.403489
 30
0.0
 10
453.159274
 20
797.403489
 30
0.0
 10
452.686824
 20
797.909483
 30
0.0
 10
452.686824
 20
801.361203
 30
0.0
 10
453.197070
 20
801.899796
 30
0.0
 10
456.645955
 20
801.899796
 30
0.0
 10
457.146752
 20
801.389550
 30
0.0
 10
457.146752
 20
799.669832
 30
0.0
 10
452.658477
 20
799.669832
 30
0.0
  0
LWPOLYLINE
  5
18e
100
AcDbEntity
  8
0
 62
7
100
AcDbPolyline
 90
8
 70
0
 10
462.806670
 20
803.742351
 30
0.0
 10
462.806670
 20
797.433254
 30
0.0
 10
458.724702
 20
797.433254
 30
0.0
 10
458.189889
 20
797.998304
 30
0.0
 10
458.189889
 20
801.304509
 30
0.0
 10
458.696355
 20
801.805306
 30
0.0
 10
462.324771
 20
801.805306
 30
0.0
 10
462.768874
 20
801.389550
 30
0.0
  0
LWPOLYLINE
  5
18f
100
AcDbEntity
  8
0
 62
7
100
AcDbPolyline
 90
8
 70
0
 10
464.110577
 20
803.770698
 30
0.0
 10
464.110577
 20
797.463018
 30
0.0
 10
468.098055
 20
797.463018
 30
0.0
 10
468.570505
 20
797.969012
 30
0.0
 10
468.570505
 20
801.361203
 30
0.0
 10
468.069708
 20
801.871449
 30
0.0
 10
464.497986
 20
801.871449
 30
0.0
 10
464.167271
 20
801.540734
 30
0.0
  0
LWPOLYLINE
  5
190
100
AcDbEntity
  8
0
 62
7
100
AcDbPolyline
 90
8
 70
0
 10
469.496599
 20
801.871449
 30
0.0
 10
473.691955
 20
801.871449
 30
0.0
 10
474.192752
 20
801.389550
 30
0.0
 10
474.192752
 20
797.433254
 30
0.0
 10
470.176927
 20
797.433254
 30
0.0
 10
469.704477
 20
797.909483
 30
0.0
 10
469.704477
 20
799.603689
 30
0.0
 10
474.136058
 20
799.603689
 30
0.0
  0
LWPOLYLINE
  5
191
100
AcDbEntity
  8
0
 62
7
100
AcDbPolyline
 90
6
 70
0
 10
480.240073
 20
797.433254
 30
0.0
 10
476.016370
 20
797.433254
 30
0.0
 10
475.506124
 20
797.969012
 30
0.0
 10
475.506124
 20
801.389550
 30
0.0
 10
476.016370
 20
801.899796
 30
0.0
 10
480.240073
 20
801.899796
 30
0.0
  0
LWPOLYLINE
  5
192
100
AcDbEntity
  8
0
 62
7
100
AcDbPolyline
 90
7
 70
0
 10
481.336124
 20
803.742351
 30
0.0
 10
481.336124
 20
797.135610
 30
0.0
 10
481.336124
 20
799.632036
 30
0.0
 10
483.301516
 20
799.632036
 30
0.0
 10
485.503133
 20
802.107674
 30
0.0
 10
483.301516
 20
799.632036
 30
0.0
 10
485.531480
 20
797.164902
 30
0.0
  0
LWPOLYLINE
  5
193
100
AcDbEntity
  8
0
 62
7
100
AcDbPolyline
 90
3
 70
0
 10
589.683797
 20
803.271714
 30
0.0
 10
593.227172
 20
797.225299
 30
0.0
 10
596.855588
 20
803.300061
 30
0.0
  0
LWPOLYLINE
  5
194
100
AcDbEntity
  8
0
 62
7
100
AcDbPolyline
 90
8
 70
1
 10
598.556405
 20
801.306322
 30
0.0
 10
598.556405
 20
797.999172
 30
0.0
 10
599.057202
 20
797.463414
 30
0.0
 10
602.515536
 20
797.463414
 30
0.0
 10
602.987986
 20
797.939643
 30
0.0
 10
602.987986
 20
801.514200
 30
0.0
 10
602.572230
 20
801.958303
 30
0.0
 10
599.151692
 20
801.958303
 30
0.0
  0
LWPOLYLINE
  5
195
100
AcDbEntity
  8
0
 62
7
100
AcDbPolyline
 90
4
 70
0
 10
604.301450
 20
803.800858
 30
0.0
 10
604.301450
 20
797.999172
 30
0.0
 10
604.830594
 20
797.463414
 30
0.0
 10
605.784943
 20
797.463414
 30
0.0
  0
LWPOLYLINE
  5
196
100
AcDbEntity
  8
0
 62
7
100
AcDbPolyline
 90
3
 70
0
 10
246.778987
 20
785.532644
 30
0.0
 10
246.778987
 20
779.754108
 30
0.0
 10
252.675162
 20
779.754108
 30
0.0
  0
LWPOLYLINE
  5
197
100
AcDbEntity
  8
0
 62
7
100
AcDbPolyline
 90
6
 70
0
 10
254.110086
 20
779.455992
 30
0.0
 10
254.110086
 20
782.612903
 30
0.0
 10
258.456626
 20
782.612903
 30
0.0
 10
254.110086
 20
782.612903
 30
0.0
 10
254.110086
 20
785.353113
 30
0.0
 10
259.467669
 20
785.353113
 30
0.0
  0
LWPOLYLINE
  5
198
100
AcDbEntity
  8
0
 62
7
100
AcDbPolyline
 90
8
 70
1
 10
260.902580
 20
784.786173
 30
0.0
 10
260.902580
 20
780.230810
 30
0.0
 10
261.412826
 20
779.754108
 30
0.0
 10
266.052285
 20
779.754108
 30
0.0
 10
266.524735
 20
780.230810
 30
0.0
 10
266.524735
 20
784.871214
 30
0.0
 10
266.052285
 20
785.286970
 30
0.0
 10
261.375030
 20
785.315317
 30
0.0
  0
LWPOLYLINE
  5
199
100
AcDbEntity
  8
0
 62
7
100
AcDbPolyline
 90
14
 70
0
 10
176.081214
 20
686.664772
 30
0.0
 10
176.081214
 20
686.217835
 30
0.0
 10
176.468623
 20
685.830898
 30
0.0
 10
181.202572
 20
685.830898
 30
0.0
 10
181.646675
 20
686.277363
 30
0.0
 10
181.646675
 20
688.207794
 30
0.0
 10
181.202572
 20
688.661346
 30
0.0
 10
176.525317
 20
688.661346
 30
0.0
 10
176.081214
 20
689.133796
 30
0.0
 10
176.081214
 20
690.919657
 30
0.0
 10
176.619807
 20
691.458250
 30
0.0
 10
181.259266
 20
691.458250
 30
0.0
 10
181.703369
 20
691.014147
 30
0.0
 10
181.703369
 20
690.532248
 30
0.0
  0
LWPOLYLINE
  5
19a
100
AcDbEntity
  8
0
 62
7
100
AcDbPolyline
 90
8
 70
0
 10
183.101821
 20
683.445498
 30
0.0
 10
183.101821
 20
690.173186
 30
0.0
 10
187.155442
 20
690.173186
 30
0.0
 10
187.571198
 20
689.785777
 30
0.0
 10
187.571198
 20
686.128069
 30
0.0
 10
187.183789
 20
685.741605
 30
0.0
 10
183.583720
 20
685.741605
 30
0.0
 10
183.158515
 20
686.158306
 30
0.0
  0
LWPOLYLINE
  5
19b
100
AcDbEntity
  8
0
 62
7
100
AcDbPolyline
 90
9
 70
0
 10
193.316216
 20
685.771369
 30
0.0
 10
189.083064
 20
685.771369
 30
0.0
 10
188.610614
 20
686.277363
 30
0.0
 10
188.610614
 20
689.729083
 30
0.0
 10
189.120860
 20
690.267676
 30
0.0
 10
192.569745
 20
690.267676
 30
0.0
 10
193.070542
 20
689.757430
 30
0.0
 10
193.070542
 20
688.037712
 30
0.0
 10
188.582267
 20
688.037712
 30
0.0
  0
LWPOLYLINE
  5
19c
100
AcDbEntity
  8
0
 62
7
100
AcDbPolyline
 90
9
 70
0
 10
199.146216
 20
685.771369
 30
0.0
 10
194.913064
 20
685.771369
 30
0.0
 10
194.440614
 20
686.277363
 30
0.0
 10
194.440614
 20
689.729083
 30
0.0
 10
194.950860
 20
690.267676
 30
0.0
 10
198.399745
 20
690.267676
 30
0.0
 10
198.900542
 20
689.757430
 30
0.0
 10
198.900542
 20
688.037712
 30
0.0
 10
194.412267
 20
688.037712
 30
0.0
  0
LWPOLYLINE
  5
19d
100
AcDbEntity
  8
0
 62
7
100
AcDbPolyline
 90
8
 70
0
 10
204.560460
 20
692.110231
 30
0.0
 10
204.560460
 20
685.801134
 30
0.0
 10
200.478492
 20
685.801134
 30
0.0
 10
199.943679
 20
686.366184
 30
0.0
 10
199.943679
 20
689.672389
 30
0.0
 10
200.450145
 20
690.173186
 30
0.0
 10
204.078561
 20
690.173186
 30
0.0
 10
204.522664
 20
689.757430
 30
0.0
  0
LWPOLYLINE
  5
19e
100
AcDbEntity
  8
0
 62
7
100
AcDbPolyline
 90
7
 70
0
 10
316.450511
 20
685.562551
 30
0.0
 10
316.450511
 20
691.541878
 30
0.0
 10
316.752879
 20
691.513531
 30
0.0
 10
319.691518
 20
688.064646
 30
0.0
 10
322.611259
 20
691.541878
 30
0.0
 10
322.885280
 20
691.541878
 30
0.0
 10
322.885280
 20
685.503022
 30
0.0
  0
LWPOLYLINE
  5
19f
100
AcDbEntity
  8
0
 62
7
100
AcDbPolyline
 90
8
 70
1
 10
324.425465
 20
689.614282
 30
0.0
 10
324.425465
 20
686.307132
 30
0.0
 10
324.926262
 20
685.771374
 30
0.0
 10
328.384596
 20
685.771374
 30
0.0
 10
328.857046
 20
686.247603
 30
0.0
 10
328.857046
 20
689.822160
 30
0.0
 10
328.441290
 20
690.266263
 30
0.0
 10
325.020752
 20
690.266263
 30
0.0
  0
LWPOLYLINE
  5
1a0
100
AcDbEntity
  8
0
 62
7
100
AcDbPolyline
 90
8
 70
0
 10
334.517010
 20
692.080471
 30
0.0
 10
334.517010
 20
685.771374
 30
0.0
 10
330.435042
 20
685.771374
 30
0.0
 10
329.900229
 20
686.336424
 30
0.0
 10
329.900229
 20
689.642629
 30
0.0
 10
330.406695
 20
690.143426
 30
0.0
 10
334.035111
 20
690.143426
 30
0.0
 10
334.479214
 20
689.727670
 30
0.0
  0
LWPOLYLINE
  5
1a1
100
AcDbEntity
  8
0
 62
7
100
AcDbPolyline
 90
2
 70
0
 10
207.276027
 20
685.941389
 30
0.0
 10
209.899640
 20
689.011152
 30
0.0
  0
LWPOLYLINE
  5
1a2
100
AcDbEntity
  8
0
 62
7
100
AcDbPolyline
 90
4
 70
0
 10
213.815766
 20
685.637530
 30
0.0
 10
213.815766
 20
689.152877
 30
0.0
 10
211.993183
 20
689.152877
 30
0.0
 10
215.618508
 20
689.152877
 30
0.0
  0
LWPOLYLINE
  5
1a3
100
AcDbEntity
  8
0
 62
7
100
AcDbPolyline
 90
3
 70
0
 10
216.808559
 20
685.637530
 30
0.0
 10
216.791551
 20
685.673245
 30
0.0
 10
216.791551
 20
688.568970
 30
0.0
  0
LWPOLYLINE
  5
1a4
100
AcDbEntity
  8
0
 62
7
100
AcDbPolyline
 90
4
 70
1
 10
216.700848
 20
689.351292
 30
0.0
 10
216.700848
 20
689.583721
 30
0.0
 10
216.933277
 20
689.583721
 30
0.0
 10
216.933277
 20
689.351292
 30
0.0
  0
LWPOLYLINE
  5
1a5
100
AcDbEntity
  8
0
 62
7
100
AcDbPolyline
 90
10
 70
0
 10
218.480456
 20
685.720457
 30
0.0
 10
218.480456
 20
688.485795
 30
0.0
 10
220.390909
 20
688.485795
 30
0.0
 10
220.657352
 20
688.236359
 30
0.0
 10
220.657352
 20
685.667169
 30
0.0
 10
220.657352
 20
688.236359
 30
0.0
 10
220.906788
 20
688.485795
 30
0.0
 10
222.516784
 20
688.485795
 30
0.0
 10
222.800234
 20
688.202345
 30
0.0
 10
222.800234
 20
685.684742
 30
0.0
  0
LWPOLYLINE
  5
1a6
100
AcDbEntity
  8
0
 62
7
100
AcDbPolyline
 90
9
 70
0
 10
226.762606
 20
685.780672
 30
0.0
 10
224.222894
 20
685.780672
 30
0.0
 10
223.939444
 20
686.084247
 30
0.0
 10
223.939444
 20
688.155133
 30
0.0
 10
224.245570
 20
688.478266
 30
0.0
 10
226.314755
 20
688.478266
 30
0.0
 10
226.615212
 20
688.172140
 30
0.0
 10
226.615212
 20
687.140382
 30
0.0
 10
223.922437
 20
687.140382
 30
0.0
  0
LWPOLYLINE
  5
1a7
100
AcDbEntity
  8
0
 62
7
100
AcDbPolyline
 90
2
 70
0
 10
337.418157
 20
686.265609
 30
0.0
 10
340.041770
 20
689.335372
 30
0.0
  0
LWPOLYLINE
  5
1a8
100
AcDbEntity
  8
0
 62
7
100
AcDbPolyline
 90
4
 70
0
 10
343.374265
 20
685.735660
 30
0.0
 10
343.374265
 20
689.251007
 30
0.0
 10
341.551681
 20
689.251007
 30
0.0
 10
345.177007
 20
689.251007
 30
0.0
  0
LWPOLYLINE
  5
1a9
100
AcDbEntity
  8
0
 62
7
100
AcDbPolyline
 90
3
 70
0
 10
346.178208
 20
685.735660
 30
0.0
 10
346.161201
 20
685.771375
 30
0.0
 10
346.161201
 20
688.667100
 30
0.0
  0
LWPOLYLINE
  5
1aa
100
AcDbEntity
  8
0
 62
7
100
AcDbPolyline
 90
4
 70
1
 10
346.070497
 20
689.449422
 30
0.0
 10
346.070497
 20
689.681851
 30
0.0
 10
346.302926
 20
689.681851
 30
0.0
 10
346.302926
 20
689.449422
 30
0.0
  0
LWPOLYLINE
  5
1ab
100
AcDbEntity
  8
0
 62
7
100
AcDbPolyline
 90
10
 70
0
 10
347.219263
 20
685.771375
 30
0.0
 10
347.219263
 20
688.536713
 30
0.0
 10
349.129711
 20
688.536713
 30
0.0
 10
349.396154
 20
688.287277
 30
0.0
 10
349.396154
 20
685.718086
 30
0.0
 10
349.396154
 20
688.287277
 30
0.0
 10
349.645590
 20
688.536713
 30
0.0
 10
351.255586
 20
688.536713
 30
0.0
 10
351.539036
 20
688.253263
 30
0.0
 10
351.539036
 20
685.735660
 30
0.0
  0
LWPOLYLINE
  5
1ac
100
AcDbEntity
  8
0
 62
7
100
AcDbPolyline
 90
9
 70
0
 10
355.501405
 20
685.878802
 30
0.0
 10
352.961693
 20
685.878802
 30
0.0
 10
352.678243
 20
686.182377
 30
0.0
 10
352.678243
 20
688.253263
 30
0.0
 10
352.984369
 20
688.576396
 30
0.0
 10
355.053554
 20
688.576396
 30
0.0
 10
355.354011
 20
688.270270
 30
0.0
 10
355.354011
 20
687.238512
 30
0.0
 10
352.661236
 20
687.238512
 30
0.0
  0
LWPOLYLINE
  5
1ad
100
AcDbEntity
  8
0
 62
7
100
AcDbPolyline
 90
10
 70
0
 10
356.583944
 20
685.771375
 30
0.0
 10
356.583944
 20
688.536713
 30
0.0
 10
358.494397
 20
688.536713
 30
0.0
 10
358.760840
 20
688.287277
 30
0.0
 10
358.760840
 20
685.718086
 30
0.0
 10
358.760840
 20
688.287277
 30
0.0
 10
359.010276
 20
688.536713
 30
0.0
 10
360.620272
 20
688.536713
 30
0.0
 10
360.903722
 20
688.253263
 30
0.0
 10
360.903722
 20
685.735660
 30
0.0
  0
LWPOLYLINE
  5
1ae
100
AcDbEntity
  8
0
 62
7
100
AcDbPolyline
 90
8
 70
1
 10
361.961722
 20
688.202242
 30
0.0
 10
361.961722
 20
686.218092
 30
0.0
 10
362.262179
 20
685.896660
 30
0.0
 10
364.337033
 20
685.896660
 30
0.0
 10
364.620483
 20
686.182377
 30
0.0
 10
364.620483
 20
688.326960
 30
0.0
 10
364.371047
 20
688.593403
 30
0.0
 10
362.318869
 20
688.593403
 30
0.0
  0
LWPOLYLINE
  5
1af
100
AcDbEntity
  8
0
 62
7
100
AcDbPolyline
 90
8
 70
0
 10
368.441145
 20
689.681851
 30
0.0
 10
368.441145
 20
685.896660
 30
0.0
 10
365.992137
 20
685.896660
 30
0.0
 10
365.671272
 20
686.235666
 30
0.0
 10
365.671272
 20
688.219249
 30
0.0
 10
365.975130
 20
688.519706
 30
0.0
 10
368.152026
 20
688.519706
 30
0.0
 10
368.418469
 20
688.270270
 30
0.0
  0
LWPOLYLINE
  5
1b0
100
AcDbEntity
  8
0
 62
7
100
AcDbPolyline
 90
5
 70
0
 10
414.859408
 20
707.420794
 30
0.0
 10
417.089372
 20
701.403671
 30
0.0
 10
419.319336
 20
707.477488
 30
0.0
 10
421.728831
 20
701.314850
 30
0.0
 10
423.962575
 20
707.505835
 30
0.0
  0
LWPOLYLINE
  5
1b1
100
AcDbEntity
  8
0
 62
7
100
AcDbPolyline
 90
8
 70
0
 10
424.797824
 20
706.050689
 30
0.0
 10
428.993180
 20
706.050689
 30
0.0
 10
429.493977
 20
705.568790
 30
0.0
 10
429.493977
 20
701.612494
 30
0.0
 10
425.478152
 20
701.612494
 30
0.0
 10
425.005702
 20
702.088723
 30
0.0
 10
425.005702
 20
703.782929
 30
0.0
 10
429.437283
 20
703.782929
 30
0.0
  0
LWPOLYLINE
  5
1b2
100
AcDbEntity
  8
0
 62
7
100
AcDbPolyline
 90
3
 70
0
 10
430.656265
 20
706.258567
 30
0.0
 10
433.368128
 20
701.344142
 30
0.0
 10
436.221726
 20
706.315261
 30
0.0
  0
LWPOLYLINE
  5
1b3
100
AcDbEntity
  8
0
 62
7
100
AcDbPolyline
 90
9
 70
0
 10
442.184051
 20
701.582729
 30
0.0
 10
437.950899
 20
701.582729
 30
0.0
 10
437.478449
 20
702.088723
 30
0.0
 10
437.478449
 20
705.540443
 30
0.0
 10
437.988695
 20
706.079036
 30
0.0
 10
441.437580
 20
706.079036
 30
0.0
 10
441.938377
 20
705.568790
 30
0.0
 10
441.938377
 20
703.849072
 30
0.0
 10
437.450102
 20
703.849072
 30
0.0
  0
LWPOLYLINE
  5
1b4
100
AcDbEntity
  8
0
 62
7
100
AcDbPolyline
 90
3
 70
0
 10
486.815846
 20
707.689144
 30
0.0
 10
486.815846
 20
701.910608
 30
0.0
 10
492.712022
 20
701.910608
 30
0.0
  0
LWPOLYLINE
  5
1b5
100
AcDbEntity
  8
0
 62
7
100
AcDbPolyline
 90
6
 70
0
 10
494.223204
 20
701.612492
 30
0.0
 10
494.223204
 20
704.769403
 30
0.0
 10
498.569744
 20
704.769403
 30
0.0
 10
494.223204
 20
704.769403
 30
0.0
 10
494.223204
 20
707.509613
 30
0.0
 10
499.580787
 20
707.509613
 30
0.0
  0
LWPOLYLINE
  5
1b6
100
AcDbEntity
  8
0
 62
7
100
AcDbPolyline
 90
8
 70
1
 10
500.808689
 20
706.942673
 30
0.0
 10
500.808689
 20
702.387310
 30
0.0
 10
501.318935
 20
701.910608
 30
0.0
 10
505.958394
 20
701.910608
 30
0.0
 10
506.430844
 20
702.387310
 30
0.0
 10
506.430844
 20
707.027714
 30
0.0
 10
505.958394
 20
707.443470
 30
0.0
 10
501.281139
 20
707.471817
 30
0.0
  0
LWPOLYLINE
  5
1b7
100
AcDbEntity
  8
0
 62
7
100
AcDbPolyline
 90
14
 70
0
 10
555.083474
 20
702.714242
 30
0.0
 10
555.083474
 20
702.267305
 30
0.0
 10
555.470883
 20
701.880368
 30
0.0
 10
560.204832
 20
701.880368
 30
0.0
 10
560.648935
 20
702.326833
 30
0.0
 10
560.648935
 20
704.257264
 30
0.0
 10
560.204832
 20
704.710816
 30
0.0
 10
555.527577
 20
704.710816
 30
0.0
 10
555.083474
 20
705.183266
 30
0.0
 10
555.083474
 20
706.969127
 30
0.0
 10
555.622067
 20
707.507720
 30
0.0
 10
560.261526
 20
707.507720
 30
0.0
 10
560.705629
 20
707.063617
 30
0.0
 10
560.705629
 20
706.581718
 30
0.0
  0
LWPOLYLINE
  5
1b8
100
AcDbEntity
  8
0
 62
7
100
AcDbPolyline
 90
6
 70
0
 10
562.075734
 20
701.612489
 30
0.0
 10
562.075734
 20
708.188048
 30
0.0
 10
562.075734
 20
706.288799
 30
0.0
 10
566.034865
 20
706.288799
 30
0.0
 10
566.573458
 20
705.778553
 30
0.0
 10
566.573458
 20
701.582252
 30
0.0
  0
LWPOLYLINE
  5
1b9
100
AcDbEntity
  8
0
 62
7
100
AcDbPolyline
 90
3
 70
0
 10
567.764074
 20
701.582252
 30
0.0
 10
567.735727
 20
701.641781
 30
0.0
 10
567.735727
 20
706.468330
 30
0.0
  0
LWPOLYLINE
  5
1ba
100
AcDbEntity
  8
0
 62
7
100
AcDbPolyline
 90
4
 70
1
 10
567.584543
 20
707.772292
 30
0.0
 10
567.584543
 20
708.159701
 30
0.0
 10
567.971952
 20
708.159701
 30
0.0
 10
567.971952
 20
707.772292
 30
0.0
  0
LWPOLYLINE
  5
1bb
100
AcDbEntity
  8
0
 62
7
100
AcDbPolyline
 90
7
 70
0
 10
569.105827
 20
701.612489
 30
0.0
 10
569.105827
 20
706.251003
 30
0.0
 10
571.600363
 20
706.251003
 30
0.0
 10
569.105827
 20
706.251003
 30
0.0
 10
569.105827
 20
707.479373
 30
0.0
 10
569.606624
 20
707.980170
 30
0.0
 10
571.638159
 20
707.980170
 30
0.0
  0
LWPOLYLINE
  5
1bc
100
AcDbEntity
  8
0
 62
7
100
AcDbPolyline
 90
7
 70
0
 10
572.375174
 20
708.216395
 30
0.0
 10
572.375174
 20
706.251003
 30
0.0
 10
574.841363
 20
706.251003
 30
0.0
 10
572.375174
 20
706.251003
 30
0.0
 10
572.375174
 20
702.267305
 30
0.0
 10
572.705889
 20
701.910132
 30
0.0
 10
574.841363
 20
701.910132
 30
0.0
  0
LWPOLYLINE
  5
1bd
100
AcDbEntity
  8
0
 62
7
100
AcDbPolyline
 90
14
 70
0
 10
623.056986
 20
703.158187
 30
0.0
 10
623.056986
 20
702.694321
 30
0.0
 10
623.366812
 20
702.292728
 30
0.0
 10
627.152743
 20
702.292728
 30
0.0
 10
627.507910
 20
702.756104
 30
0.0
 10
627.507910
 20
704.759653
 30
0.0
 10
627.152743
 20
705.230384
 30
0.0
 10
623.412153
 20
705.230384
 30
0.0
 10
623.056986
 20
705.720729
 30
0.0
 10
623.056986
 20
707.574232
 30
0.0
 10
623.487720
 20
708.133225
 30
0.0
 10
627.198083
 20
708.133225
 30
0.0
 10
627.553250
 20
707.672301
 30
0.0
 10
627.553250
 20
707.172149
 30
0.0
  0
LWPOLYLINE
  5
1be
100
AcDbEntity
  8
0
 62
7
100
AcDbPolyline
 90
8
 70
0
 10
628.460060
 20
706.868135
 30
0.0
 10
631.815256
 20
706.868135
 30
0.0
 10
632.215764
 20
706.367984
 30
0.0
 10
632.215764
 20
702.261837
 30
0.0
 10
629.004146
 20
702.261837
 30
0.0
 10
628.626308
 20
702.756104
 30
0.0
 10
628.626308
 20
704.514480
 30
0.0
 10
632.170423
 20
704.514480
 30
0.0
  0
LWPOLYLINE
  5
1bf
100
AcDbEntity
  8
0
 62
7
100
AcDbPolyline
 90
3
 70
0
 10
633.145234
 20
707.083887
 30
0.0
 10
635.314021
 20
701.983321
 30
0.0
 10
637.596159
 20
707.142728
 30
0.0
  0
LWPOLYLINE
  5
1c0
100
AcDbEntity
  8
0
 62
7
100
AcDbPolyline
 90
9
 70
0
 10
642.364512
 20
702.230945
 30
0.0
 10
638.979089
 20
702.230945
 30
0.0
 10
638.601252
 20
702.756104
 30
0.0
 10
638.601252
 20
706.338563
 30
0.0
 10
639.009316
 20
706.897556
 30
0.0
 10
641.767529
 20
706.897556
 30
0.0
 10
642.168037
 20
706.367984
 30
0.0
 10
642.168037
 20
704.583129
 30
0.0
 10
638.578582
 20
704.583129
 30
0.0
  0
LWPOLYLINE
  5
1c1
100
AcDbEntity
  8
0
 62
7
100
AcDbPolyline
 90
11
 70
0
 10
589.744017
 20
742.002680
 30
0.0
 10
589.744017
 20
745.518027
 30
0.0
 10
592.833622
 20
745.518027
 30
0.0
 10
593.134079
 20
745.217570
 30
0.0
 10
593.134079
 20
743.896693
 30
0.0
 10
592.816615
 20
743.590567
 30
0.0
 10
589.993453
 20
743.590567
 30
0.0
 10
589.727010
 20
743.862679
 30
0.0
 10
589.993453
 20
743.590567
 30
0.0
 10
591.688484
 20
743.590567
 30
0.0
 10
592.992354
 20
742.002680
 30
0.0
  0
LWPOLYLINE
  5
1c2
100
AcDbEntity
  8
0
 62
7
100
AcDbPolyline
 90
9
 70
0
 10
596.998298
 20
742.145822
 30
0.0
 10
594.458586
 20
742.145822
 30
0.0
 10
594.175136
 20
742.449397
 30
0.0
 10
594.175136
 20
744.520283
 30
0.0
 10
594.481262
 20
744.843416
 30
0.0
 10
596.550447
 20
744.843416
 30
0.0
 10
596.850904
 20
744.537290
 30
0.0
 10
596.850904
 20
743.505532
 30
0.0
 10
594.158128
 20
743.505532
 30
0.0
  0
LWPOLYLINE
  5
1c3
100
AcDbEntity
  8
0
 62
7
100
AcDbPolyline
 90
14
 70
0
 10
598.003402
 20
742.592256
 30
0.0
 10
598.003402
 20
742.413683
 30
0.0
 10
598.252838
 20
742.163680
 30
0.0
 10
600.395716
 20
742.163680
 30
0.0
 10
600.662159
 20
742.449397
 30
0.0
 10
600.662159
 20
743.216413
 30
0.0
 10
600.412723
 20
743.465849
 30
0.0
 10
598.326535
 20
743.465849
 30
0.0
 10
598.037416
 20
743.754968
 30
0.0
 10
598.037416
 20
744.554297
 30
0.0
 10
598.343542
 20
744.843416
 30
0.0
 10
600.361702
 20
744.843416
 30
0.0
 10
600.645152
 20
744.554297
 30
0.0
 10
600.645152
 20
744.395565
 30
0.0
  0
LWPOLYLINE
  5
1c4
100
AcDbEntity
  8
0
 62
7
100
AcDbPolyline
 90
9
 70
0
 10
604.607602
 20
742.145822
 30
0.0
 10
602.067890
 20
742.145822
 30
0.0
 10
601.784440
 20
742.449397
 30
0.0
 10
601.784440
 20
744.520283
 30
0.0
 10
602.090566
 20
744.843416
 30
0.0
 10
604.159751
 20
744.843416
 30
0.0
 10
604.460208
 20
744.537290
 30
0.0
 10
604.460208
 20
743.505532
 30
0.0
 10
601.767433
 20
743.505532
 30
0.0
  0
LWPOLYLINE
  5
1c5
100
AcDbEntity
  8
0
 62
7
100
AcDbPolyline
 90
7
 70
0
 10
605.612724
 20
745.982885
 30
0.0
 10
605.612724
 20
744.803733
 30
0.0
 10
607.092333
 20
744.803733
 30
0.0
 10
605.612724
 20
744.803733
 30
0.0
 10
605.612724
 20
742.413683
 30
0.0
 10
605.811139
 20
742.199394
 30
0.0
 10
607.092333
 20
742.199394
 30
0.0
  0
LWPOLYLINE
  5
1c6
100
AcDbEntity
  8
0
 62
7
100
AcDbPolyline
 90
3
 70
0
 10
589.885742
 20
738.562414
 30
0.0
 10
589.885742
 20
735.095537
 30
0.0
 10
593.423198
 20
735.095537
 30
0.0
  0
LWPOLYLINE
  5
1c7
100
AcDbEntity
  8
0
 62
7
100
AcDbPolyline
 90
6
 70
0
 10
594.518731
 20
734.916680
 30
0.0
 10
594.518731
 20
736.810693
 30
0.0
 10
597.126471
 20
736.810693
 30
0.0
 10
594.518731
 20
736.810693
 30
0.0
 10
594.518731
 20
738.454703
 30
0.0
 10
597.733054
 20
738.454703
 30
0.0
  0
LWPOLYLINE
  5
1c8
100
AcDbEntity
  8
0
 62
7
100
AcDbPolyline
 90
8
 70
1
 10
598.639748
 20
738.114563
 30
0.0
 10
598.639748
 20
735.381538
 30
0.0
 10
598.945874
 20
735.095537
 30
0.0
 10
601.729345
 20
735.095537
 30
0.0
 10
602.012795
 20
735.381538
 30
0.0
 10
602.012795
 20
738.165584
 30
0.0
 10
601.729345
 20
738.415020
 30
0.0
 10
598.923198
 20
738.432027
 30
0.0
  0
LWPOLYLINE
  5
1c9
100
AcDbEntity
  8
0
 62
7
100
AcDbPolyline
 90
11
 70
0
 10
603.306887
 20
737.899141
 30
0.0
 10
603.306887
 20
738.114563
 30
0.0
 10
603.664034
 20
738.471710
 30
0.0
 10
606.453182
 20
738.471710
 30
0.0
 10
606.770646
 20
738.131570
 30
0.0
 10
606.770646
 20
737.043122
 30
0.0
 10
606.453182
 20
736.719989
 30
0.0
 10
603.647027
 20
736.719989
 30
0.0
 10
603.306887
 20
736.379849
 30
0.0
 10
603.306887
 20
735.095537
 30
0.0
 10
606.912371
 20
735.095537
 30
0.0
  0
LWPOLYLINE
  5
1ca
100
AcDbEntity
  8
0
 62
7
100
AcDbPolyline
 90
6
 70
0
 10
488.369644
 20
692.452860
 30
0.0
 10
488.369644
 20
694.346873
 30
0.0
 10
490.977384
 20
694.346873
 30
0.0
 10
488.369644
 20
694.346873
 30
0.0
 10
488.369644
 20
695.990883
 30
0.0
 10
491.583967
 20
695.990883
 30
0.0
  0
LWPOLYLINE
  5
1cb
100
AcDbEntity
  8
0
 62
7
100
AcDbPolyline
 90
4
 70
0
 10
492.524388
 20
696.416058
 30
0.0
 10
492.524388
 20
692.935292
 30
0.0
 10
492.841852
 20
692.613860
 30
0.0
 10
493.414421
 20
692.613860
 30
0.0
  0
LWPOLYLINE
  5
1cc
100
AcDbEntity
  8
0
 62
7
100
AcDbPolyline
 90
8
 70
0
 10
494.305087
 20
695.276589
 30
0.0
 10
496.822123
 20
695.276589
 30
0.0
 10
497.122580
 20
694.987470
 30
0.0
 10
497.122580
 20
692.613860
 30
0.0
 10
494.713255
 20
692.613860
 30
0.0
 10
494.429805
 20
692.899577
 30
0.0
 10
494.429805
 20
693.916029
 30
0.0
 10
497.088566
 20
693.916029
 30
0.0
  0
LWPOLYLINE
  5
1cd
100
AcDbEntity
  8
0
 62
7
100
AcDbPolyline
 90
11
 70
0
 10
498.718086
 20
691.381986
 30
0.0
 10
500.719241
 20
691.381986
 30
0.0
 10
501.036705
 20
691.705119
 30
0.0
 10
501.036705
 20
695.004477
 30
0.0
 10
500.719241
 20
695.327610
 30
0.0
 10
498.593368
 20
695.327610
 30
0.0
 10
498.270236
 20
695.004477
 30
0.0
 10
498.270236
 20
692.863863
 30
0.0
 10
498.536678
 20
692.596002
 30
0.0
 10
500.702234
 20
692.596002
 30
0.0
 10
501.019698
 20
692.917718
 30
0.0
  0
LWPOLYLINE
  5
1ce
100
AcDbEntity
  8
0
 62
7
100
AcDbPolyline
 90
14
 70
0
 10
502.092432
 20
693.042436
 30
0.0
 10
502.092432
 20
692.863863
 30
0.0
 10
502.341868
 20
692.613860
 30
0.0
 10
504.484750
 20
692.613860
 30
0.0
 10
504.751193
 20
692.899577
 30
0.0
 10
504.751193
 20
693.666593
 30
0.0
 10
504.501757
 20
693.916029
 30
0.0
 10
502.415565
 20
693.916029
 30
0.0
 10
502.126446
 20
694.205148
 30
0.0
 10
502.126446
 20
695.004477
 30
0.0
 10
502.432572
 20
695.293596
 30
0.0
 10
504.450736
 20
695.293596
 30
0.0
 10
504.734186
 20
695.004477
 30
0.0
 10
504.734186
 20
694.845745
 30
0.0
  0
LWPOLYLINE
  5
1cf
100
AcDbEntity
  8
0
 62
7
100
AcDbPolyline
 90
14
 70
1
 10
557.918701
 20
695.951220
 30
0.0
 10
560.809891
 20
695.951220
 30
0.0
 10
561.189714
 20
695.577066
 30
0.0
 10
561.189714
 20
694.687033
 30
0.0
 10
560.974292
 20
694.363900
 30
0.0
 10
558.151130
 20
694.363900
 30
0.0
 10
557.952715
 20
694.562315
 30
0.0
 10
557.952715
 20
694.188161
 30
0.0
 10
558.151130
 20
694.363900
 30
0.0
 10
560.974292
 20
694.363900
 30
0.0
 10
561.291756
 20
694.057774
 30
0.0
 10
561.291756
 20
692.917738
 30
0.0
 10
560.974292
 20
692.596022
 30
0.0
 10
557.901694
 20
692.596022
 30
0.0
  0
LWPOLYLINE
  5
1d0
100
AcDbEntity
  8
0
 62
7
100
AcDbPolyline
 90
8
 70
0
 10
562.212649
 20
695.276609
 30
0.0
 10
564.729686
 20
695.276609
 30
0.0
 10
565.030143
 20
694.987490
 30
0.0
 10
565.030143
 20
692.613880
 30
0.0
 10
562.620818
 20
692.613880
 30
0.0
 10
562.337368
 20
692.899597
 30
0.0
 10
562.337368
 20
693.916049
 30
0.0
 10
564.996129
 20
693.916049
 30
0.0
  0
LWPOLYLINE
  5
1d1
100
AcDbEntity
  8
0
 62
7
100
AcDbPolyline
 90
5
 70
0
 10
566.068200
 20
692.452880
 30
0.0
 10
566.068200
 20
695.219919
 30
0.0
 10
568.494531
 20
695.219919
 30
0.0
 10
568.760974
 20
694.953476
 30
0.0
 10
568.760974
 20
692.435306
 30
0.0
  0
LWPOLYLINE
  5
1d2
100
AcDbEntity
  8
0
 62
7
100
AcDbPolyline
 90
7
 70
0
 10
569.849442
 20
696.399071
 30
0.0
 10
569.849442
 20
692.435306
 30
0.0
 10
569.849442
 20
693.933056
 30
0.0
 10
571.028594
 20
693.933056
 30
0.0
 10
572.349471
 20
695.418334
 30
0.0
 10
571.028594
 20
693.933056
 30
0.0
 10
572.366478
 20
692.452880
 30
0.0
  0
LWPOLYLINE
  5
1d3
100
AcDbEntity
  8
0
 62
7
100
AcDbPolyline
 90
2
 70
0
 10
204.353447
 20
797.766879
 30
0.0
 10
206.977060
 20
800.836642
 30
0.0
  0
LWPOLYLINE
  5
1d4
100
AcDbEntity
  8
0
 62
7
100
AcDbPolyline
 90
8
 70
0
 10
208.584407
 20
797.463020
 30
0.0
 10
208.584407
 20
800.961360
 30
0.0
 10
211.708026
 20
800.961360
 30
0.0
 10
211.974469
 20
800.694917
 30
0.0
 10
211.974469
 20
799.300343
 30
0.0
 10
211.691019
 20
799.016893
 30
0.0
 10
208.850850
 20
799.016893
 30
0.0
 10
208.584407
 20
799.283336
 30
0.0
  0
LWPOLYLINE
  5
1d5
100
AcDbEntity
  8
0
 62
7
100
AcDbPolyline
 90
6
 70
0
 10
212.977702
 20
800.411467
 30
0.0
 10
212.977702
 20
797.892163
 30
0.0
 10
213.227138
 20
797.641877
 30
0.0
 10
215.353012
 20
797.641877
 30
0.0
 10
215.653469
 20
797.963026
 30
0.0
 10
215.653469
 20
800.445481
 30
0.0
  0
LWPOLYLINE
  5
1d6
100
AcDbEntity
  8
0
 62
7
100
AcDbPolyline
 90
4
 70
0
 10
216.754930
 20
801.426218
 30
0.0
 10
216.754930
 20
797.945452
 30
0.0
 10
217.072394
 20
797.624020
 30
0.0
 10
217.644963
 20
797.624020
 30
0.0
  0
LWPOLYLINE
  5
1d7
100
AcDbEntity
  8
0
 62
7
100
AcDbPolyline
 90
14
 70
0
 10
218.723603
 20
797.958172
 30
0.0
 10
218.723603
 20
797.779598
 30
0.0
 10
218.973039
 20
797.529595
 30
0.0
 10
221.115921
 20
797.529595
 30
0.0
 10
221.382364
 20
797.815313
 30
0.0
 10
221.382364
 20
798.582328
 30
0.0
 10
221.132928
 20
798.831764
 30
0.0
 10
219.046736
 20
798.831764
 30
0.0
 10
218.757617
 20
799.120883
 30
0.0
 10
218.757617
 20
799.920212
 30
0.0
 10
219.063743
 20
800.209331
 30
0.0
 10
221.081907
 20
800.209331
 30
0.0
 10
221.365357
 20
799.920212
 30
0.0
 10
221.365357
 20
799.761480
 30
0.0
  0
LWPOLYLINE
  5
1d8
100
AcDbEntity
  8
0
 62
7
100
AcDbPolyline
 90
9
 70
0
 10
225.375051
 20
797.606162
 30
0.0
 10
222.835339
 20
797.606162
 30
0.0
 10
222.551889
 20
797.909737
 30
0.0
 10
222.551889
 20
799.980623
 30
0.0
 10
222.858015
 20
800.303756
 30
0.0
 10
224.927200
 20
800.303756
 30
0.0
 10
225.227657
 20
799.997630
 30
0.0
 10
225.227657
 20
798.965872
 30
0.0
 10
222.534882
 20
798.965872
 30
0.0
  0
LWPOLYLINE
  5
1d9
100
AcDbEntity
  8
0
 62
7
100
AcDbPolyline
 90
7
 70
0
 10
386.417660
 20
893.766504
 30
0.0
 10
381.060077
 20
893.766504
 30
0.0
 10
381.060077
 20
896.655063
 30
0.0
 10
385.349923
 20
896.655063
 30
0.0
 10
381.060077
 20
896.655063
 30
0.0
 10
381.060077
 20
899.357477
 30
0.0
 10
386.389313
 20
899.357477
 30
0.0
  0
LWPOLYLINE
  5
1da
100
AcDbEntity
  8
0
 62
7
100
AcDbPolyline
 90
6
 70
0
 10
392.257139
 20
893.766504
 30
0.0
 10
388.033436
 20
893.766504
 30
0.0
 10
387.523190
 20
894.302262
 30
0.0
 10
387.523190
 20
897.722800
 30
0.0
 10
388.033436
 20
898.233046
 30
0.0
 10
392.257139
 20
898.233046
 30
0.0
  0
LWPOLYLINE
  5
1db
100
AcDbEntity
  8
0
 62
7
100
AcDbPolyline
 90
6
 70
0
 10
393.353230
 20
893.528389
 30
0.0
 10
393.353230
 20
900.103948
 30
0.0
 10
393.353230
 20
898.204699
 30
0.0
 10
397.312361
 20
898.204699
 30
0.0
 10
397.850954
 20
897.694453
 30
0.0
 10
397.850954
 20
893.498152
 30
0.0
  0
LWPOLYLINE
  5
1dc
100
AcDbEntity
  8
0
 62
7
100
AcDbPolyline
 90
8
 70
1
 10
399.221061
 20
897.609412
 30
0.0
 10
399.221061
 20
894.302262
 30
0.0
 10
399.721858
 20
893.766504
 30
0.0
 10
403.180192
 20
893.766504
 30
0.0
 10
403.652642
 20
894.242733
 30
0.0
 10
403.652642
 20
897.817290
 30
0.0
 10
403.236886
 20
898.261393
 30
0.0
 10
399.816348
 20
898.261393
 30
0.0
  0
LWPOLYLINE
  5
1dd
100
AcDbEntity
  8
0
 62
7
100
AcDbPolyline
 90
8
 70
1
 10
170.645944
 20
897.637753
 30
0.0
 10
170.645944
 20
893.082390
 30
0.0
 10
171.156190
 20
892.605688
 30
0.0
 10
175.795649
 20
892.605688
 30
0.0
 10
176.268099
 20
893.082390
 30
0.0
 10
176.268099
 20
897.722794
 30
0.0
 10
175.795649
 20
898.138550
 30
0.0
 10
171.118394
 20
898.166897
 30
0.0
  0
LWPOLYLINE
  5
1de
100
AcDbEntity
  8
0
 62
7
100
AcDbPolyline
 90
14
 70
0
 10
177.609854
 20
893.290268
 30
0.0
 10
177.609854
 20
892.992625
 30
0.0
 10
178.025610
 20
892.575924
 30
0.0
 10
181.597332
 20
892.575924
 30
0.0
 10
182.041435
 20
893.052153
 30
0.0
 10
182.041435
 20
894.330603
 30
0.0
 10
181.625679
 20
894.746359
 30
0.0
 10
178.148447
 20
894.746359
 30
0.0
 10
177.666548
 20
895.228258
 30
0.0
 10
177.666548
 20
896.560567
 30
0.0
 10
178.176794
 20
897.042466
 30
0.0
 10
181.540638
 20
897.042466
 30
0.0
 10
182.013088
 20
896.560567
 30
0.0
 10
182.013088
 20
896.295995
 30
0.0
  0
LWPOLYLINE
  5
1df
100
AcDbEntity
  8
0
 62
7
100
AcDbPolyline
 90
6
 70
0
 10
188.173793
 20
892.575924
 30
0.0
 10
183.950090
 20
892.575924
 30
0.0
 10
183.439844
 20
893.111682
 30
0.0
 10
183.439844
 20
896.532220
 30
0.0
 10
183.950090
 20
897.042466
 30
0.0
 10
188.173793
 20
897.042466
 30
0.0
  0
LWPOLYLINE
  5
1e0
100
AcDbEntity
  8
0
 62
7
100
AcDbPolyline
 90
3
 70
0
 10
189.269944
 20
892.307572
 30
0.0
 10
189.241597
 20
892.367101
 30
0.0
 10
189.241597
 20
897.193650
 30
0.0
  0
LWPOLYLINE
  5
1e1
100
AcDbEntity
  8
0
 62
7
100
AcDbPolyline
 90
4
 70
1
 10
189.090413
 20
898.497612
 30
0.0
 10
189.090413
 20
898.885021
 30
0.0
 10
189.477822
 20
898.885021
 30
0.0
 10
189.477822
 20
898.497612
 30
0.0
  0
LWPOLYLINE
  5
1e2
100
AcDbEntity
  8
0
 62
7
100
AcDbPolyline
 90
4
 70
0
 10
190.583350
 20
898.913368
 30
0.0
 10
190.583350
 20
893.111682
 30
0.0
 10
191.112494
 20
892.575924
 30
0.0
 10
192.066843
 20
892.575924
 30
0.0
  0
LWPOLYLINE
  5
1e3
100
AcDbEntity
  8
0
 62
7
100
AcDbPolyline
 90
4
 70
0
 10
192.784950
 20
898.913368
 30
0.0
 10
192.784950
 20
893.111682
 30
0.0
 10
193.314094
 20
892.575924
 30
0.0
 10
194.268443
 20
892.575924
 30
0.0
  0
LWPOLYLINE
  5
1e4
100
AcDbEntity
  8
0
 62
7
100
AcDbPolyline
 90
8
 70
0
 10
194.807019
 20
897.014119
 30
0.0
 10
199.002375
 20
897.014119
 30
0.0
 10
199.503172
 20
896.532220
 30
0.0
 10
199.503172
 20
892.575924
 30
0.0
 10
195.487347
 20
892.575924
 30
0.0
 10
195.014897
 20
893.052153
 30
0.0
 10
195.014897
 20
894.746359
 30
0.0
 10
199.446478
 20
894.746359
 30
0.0
  0
LWPOLYLINE
  5
1e5
100
AcDbEntity
  8
0
 62
7
100
AcDbPolyline
 90
7
 70
0
 10
200.816644
 20
898.941715
 30
0.0
 10
200.816644
 20
896.976323
 30
0.0
 10
203.282833
 20
896.976323
 30
0.0
 10
200.816644
 20
896.976323
 30
0.0
 10
200.816644
 20
892.992625
 30
0.0
 10
201.147359
 20
892.635452
 30
0.0
 10
203.282833
 20
892.635452
 30
0.0
  0
LWPOLYLINE
  5
1e6
100
AcDbEntity
  8
0
 62
7
100
AcDbPolyline
 90
8
 70
1
 10
204.265475
 20
896.418832
 30
0.0
 10
204.265475
 20
893.111682
 30
0.0
 10
204.766272
 20
892.575924
 30
0.0
 10
208.224606
 20
892.575924
 30
0.0
 10
208.697056
 20
893.052153
 30
0.0
 10
208.697056
 20
896.626710
 30
0.0
 10
208.281300
 20
897.070813
 30
0.0
 10
204.860762
 20
897.070813
 30
0.0
  0
LWPOLYLINE
  5
1e7
100
AcDbEntity
  8
0
 62
7
100
AcDbPolyline
 90
4
 70
0
 10
210.067144
 20
892.278280
 30
0.0
 10
210.067144
 20
896.532220
 30
0.0
 10
210.577390
 20
897.070813
 30
0.0
 10
213.582172
 20
897.070813
 30
0.0
  0
LWPOLYLINE
  5
1e8
100
AcDbEntity
  8
0
 62
7
100
AcDbPolyline
 90
4
 70
0
 10
483.412577
 20
772.369331
 30
0.0
 10
484.584222
 20
773.729951
 30
0.0
 10
484.750520
 20
773.729951
 30
0.0
 10
484.750520
 20
768.846081
 30
0.0
  0
LWPOLYLINE
  5
1e9
100
AcDbEntity
  8
0
 62
7
100
AcDbPolyline
 90
11
 70
0
 10
504.921501
 20
772.860291
 30
0.0
 10
504.921501
 20
773.147533
 30
0.0
 10
505.397718
 20
773.623750
 30
0.0
 10
509.116746
 20
773.623750
 30
0.0
 10
509.540050
 20
773.170210
 30
0.0
 10
509.540050
 20
771.718882
 30
0.0
 10
509.116746
 20
771.288019
 30
0.0
 10
505.375041
 20
771.288019
 30
0.0
 10
504.921501
 20
770.834479
 30
0.0
 10
504.921501
 20
769.121988
 30
0.0
 10
509.729025
 20
769.121988
 30
0.0
  0
LWPOLYLINE
  5
1ea
100
AcDbEntity
  8
0
 62
7
100
AcDbPolyline
 90
8
 70
1
 10
323.965021
 20
777.168769
 30
0.0
 10
323.965021
 20
773.569929
 30
0.0
 10
324.395884
 20
773.164767
 30
0.0
 10
328.160266
 20
773.164767
 30
0.0
 10
328.606247
 20
773.593362
 30
0.0
 10
328.606247
 20
777.259477
 30
0.0
 10
328.228297
 20
777.637427
 30
0.0
 10
324.441238
 20
777.637427
 30
0.0
  0
LWPOLYLINE
  5
1eb
100
AcDbEntity
  8
0
 62
7
100
AcDbPolyline
 90
2
 70
0
 10
324.010375
 20
773.593362
 30
0.0
 10
328.560893
 20
777.282154
 30
0.0
  0
LWPOLYLINE
  5
1ec
100
AcDbEntity
  8
0
 62
7
100
AcDbPolyline
 90
2
 70
0
 10
158.013048
 20
812.023022
 30
0.0
 10
160.654163
 20
812.023022
 30
0.0
  0
LWPOLYLINE
  5
1ed
100
AcDbEntity
  8
0
 62
7
100
AcDbPolyline
 90
2
 70
0
 10
295.010808
 20
812.023022
 30
0.0
 10
297.651923
 20
812.023022
 30
0.0
  0
LWPOLYLINE
  5
1ee
100
AcDbEntity
  8
0
 62
7
100
AcDbPolyline
 90
2
 70
0
 10
357.082251
 20
810.716065
 30
0.0
 10
357.082251
 20
813.315605
 30
0.0
  0
LWPOLYLINE
  5
1ef
100
AcDbEntity
  8
0
 62
7
100
AcDbPolyline
 90
2
 70
0
 10
355.795709
 20
812.023016
 30
0.0
 10
358.389958
 20
812.023016
 30
0.0
  0
LWPOLYLINE
  5
1f0
100
AcDbEntity
  8
0
 62
7
100
AcDbPolyline
 90
2
 70
0
 10
430.392698
 20
812.023022
 30
0.0
 10
433.033813
 20
812.023022
 30
0.0
  0
LWPOLYLINE
  5
1f1
100
AcDbEntity
  8
0
 62
7
100
AcDbPolyline
 90
2
 70
0
 10
492.998291
 20
810.723245
 30
0.0
 10
492.998291
 20
813.322785
 30
0.0
  0
LWPOLYLINE
  5
1f2
100
AcDbEntity
  8
0
 62
7
100
AcDbPolyline
 90
2
 70
0
 10
491.711749
 20
812.030196
 30
0.0
 10
494.305998
 20
812.030196
 30
0.0
  0
LWPOLYLINE
  5
1f3
100
AcDbEntity
  8
0
 62
7
100
AcDbPolyline
 90
2
 70
0
 10
566.266858
 20
812.023022
 30
0.0
 10
568.907973
 20
812.023022
 30
0.0
  0
LWPOLYLINE
  5
1f4
100
AcDbEntity
  8
0
 62
7
100
AcDbPolyline
 90
2
 70
0
 10
629.302671
 20
810.716065
 30
0.0
 10
629.302671
 20
813.315605
 30
0.0
  0
LWPOLYLINE
  5
1f5
100
AcDbEntity
  8
0
 62
7
100
AcDbPolyline
 90
2
 70
0
 10
628.016129
 20
812.023016
 30
0.0
 10
630.610378
 20
812.023016
 30
0.0
  0
LWPOLYLINE
  5
1f6
100
AcDbEntity
  8
0
 62
7
100
AcDbPolyline
 90
2
 70
0
 10
158.644398
 20
698.674692
 30
0.0
 10
161.285513
 20
698.674692
 30
0.0
  0
LWPOLYLINE
  5
1f7
100
AcDbEntity
  8
0
 62
7
100
AcDbPolyline
 90
2
 70
0
 10
220.830401
 20
697.367735
 30
0.0
 10
220.830401
 20
699.967275
 30
0.0
  0
LWPOLYLINE
  5
1f8
100
AcDbEntity
  8
0
 62
7
100
AcDbPolyline
 90
2
 70
0
 10
219.543859
 20
698.674686
 30
0.0
 10
222.138108
 20
698.674686
 30
0.0
  0
LWPOLYLINE
  5
1f9
100
AcDbEntity
  8
0
 62
7
100
AcDbPolyline
 90
2
 70
0
 10
356.480761
 20
697.367735
 30
0.0
 10
356.480761
 20
699.967275
 30
0.0
  0
LWPOLYLINE
  5
1fa
100
AcDbEntity
  8
0
 62
7
100
AcDbPolyline
 90
2
 70
0
 10
355.194219
 20
698.674686
 30
0.0
 10
357.788468
 20
698.674686
 30
0.0
  0
LWPOLYLINE
  5
1fb
100
AcDbEntity
  8
0
 62
7
100
AcDbPolyline
 90
2
 70
0
 10
294.610198
 20
698.674692
 30
0.0
 10
297.251313
 20
698.674692
 30
0.0
  0
LWPOLYLINE
  5
1fc
100
AcDbEntity
  8
0
 62
7
100
AcDbPolyline
 90
2
 70
0
 10
221.807045
 20
810.716065
 30
0.0
 10
221.807045
 20
813.315605
 30
0.0
  0
SPLINE
  5
1fd
100
AcDbEntity
  8
MODELSKETCH_VISIBLE
 62
7
100
AcDbSpline
 70
8
 71
3
 72
8
 73
4
 74
0
 40
0
 40
0
 40
0
 40
0
 40
1
 40
1
 40
1
 40
1
 10
434.947050
 20
756.170005
 30
0.0
 10
434.943573
 20
759.820450
 30
0.0
 10
431.983327
 20
762.777878
 30
0.0
 10
428.332880
 20
762.777878
 30
0.0
  0
SPLINE
  5
1fe
100
AcDbEntity
  8
MODELSKETCH_VISIBLE
 62
7
100
AcDbSpline
 70
8
 71
3
 72
8
 73
4
 74
0
 40
0
 40
0
 40
0
 40
0
 40
1
 40
1
 40
1
 40
1
 10
428.332880
 20
762.777878
 30
0.0
 10
424.682433
 20
762.777878
 30
0.0
 10
421.722187
 20
759.820450
 30
0.0
 10
421.718710
 20
756.170005
 30
0.0
  0
SPLINE
  5
1ff
100
AcDbEntity
  8
MODELSKETCH_VISIBLE
 62
7
100
AcDbSpline
 70
8
 71
3
 72
8
 73
4
 74
0
 40
0
 40
0
 40
0
 40
0
 40
1
 40
1
 40
1
 40
1
 10
421.718710
 20
756.170005
 30
0.0
 10
421.722187
 20
752.519560
 30
0.0
 10
424.682433
 20
749.562132
 30
0.0
 10
428.332880
 20
749.562132
 30
0.0
  0
SPLINE
  5
200
100
AcDbEntity
  8
MODELSKETCH_VISIBLE
 62
7
100
AcDbSpline
 70
8
 71
3
 72
8
 73
4
 74
0
 40
0
 40
0
 40
0
 40
0
 40
1
 40
1
 40
1
 40
1
 10
428.332880
 20
749.562132
 30
0.0
 10
431.983327
 20
749.562132
 30
0.0
 10
434.943573
 20
752.519560
 30
0.0
 10
434.947050
 20
756.170005
 30
0.0
  0
LWPOLYLINE
  5
201
100
AcDbEntity
  8
0
 62
7
100
AcDbPolyline
 90
2
 70
0
 10
220.520503
 20
812.023016
 30
0.0
 10
223.114752
 20
812.023016
 30
0.0
  0
SPLINE
  5
202
100
AcDbEntity
  8
MODELSKETCH_VISIBLE
 62
7
100
AcDbSpline
 70
8
 71
3
 72
8
 73
4
 74
0
 40
0
 40
0
 40
0
 40
0
 40
1
 40
1
 40
1
 40
1
 10
646.600600
 20
729.713315
 30
0.0
 10
646.600599
 20
734.776922
 30
0.0
 10
643.899197
 20
739.455888
 30
0.0
 10
639.513984
 20
741.987691
 30
0.0
  0
SPLINE
  5
203
100
AcDbEntity
  8
MODELSKETCH_VISIBLE
 62
7
100
AcDbSpline
 70
8
 71
3
 72
8
 73
4
 74
0
 40
0
 40
0
 40
0
 40
0
 40
1
 40
1
 40
1
 40
1
 10
639.513984
 20
741.987691
 30
0.0
 10
635.128772
 20
744.519495
 30
0.0
 10
629.725968
 20
744.519495
 30
0.0
 10
625.340756
 20
741.987691
 30
0.0
  0
SPLINE
  5
204
100
AcDbEntity
  8
MODELSKETCH_VISIBLE
 62
7
100
AcDbSpline
 70
8
 71
3
 72
8
 73
4
 74
0
 40
0
 40
0
 40
0
 40
0
 40
1
 40
1
 40
1
 40
1
 10
625.340756
 20
741.987691
 30
0.0
 10
620.955543
 20
739.455888
 30
0.0
 10
618.254141
 20
734.776922
 30
0.0
 10
618.254141
 20
729.713315
 30
0.0
  0
SPLINE
  5
205
100
AcDbEntity
  8
MODELSKETCH_VISIBLE
 62
7
100
AcDbSpline
 70
8
 71
3
 72
8
 73
4
 74
0
 40
0
 40
0
 40
0
 40
0
 40
1
 40
1
 40
1
 40
1
 10
618.254141
 20
729.713315
 30
0.0
 10
618.254142
 20
724.649708
 30
0.0
 10
620.955544
 20
719.970742
 30
0.0
 10
625.340756
 20
717.438939
 30
0.0
  0
SPLINE
  5
206
100
AcDbEntity
  8
MODELSKETCH_VISIBLE
 62
7
100
AcDbSpline
 70
8
 71
3
 72
8
 73
4
 74
0
 40
0
 40
0
 40
0
 40
0
 40
1
 40
1
 40
1
 40
1
 10
625.340756
 20
717.438939
 30
0.0
 10
629.725969
 20
714.907135
 30
0.0
 10
635.128773
 20
714.907135
 30
0.0
 10
639.513985
 20
717.438939
 30
0.0
  0
SPLINE
  5
207
100
AcDbEntity
  8
MODELSKETCH_VISIBLE
 62
7
100
AcDbSpline
 70
8
 71
3
 72
8
 73
4
 74
0
 40
0
 40
0
 40
0
 40
0
 40
1
 40
1
 40
1
 40
1
 10
639.513985
 20
717.438939
 30
0.0
 10
643.899198
 20
719.970742
 30
0.0
 10
646.600600
 20
724.649708
 30
0.0
 10
646.600600
 20
729.713315
 30
0.0
  0
LWPOLYLINE
  5
208
100
AcDbEntity
  8
MODELSKETCH_VISIBLE
 62
7
100
AcDbPolyline
 90
1
 70
1
 10
434.947050
 20
756.170005
 30
0.0
  0
SPLINE
  5
209
100
AcDbEntity
  8
MODELSKETCH_VISIBLE
 62
7
100
AcDbSpline
 70
8
 71
3
 72
8
 73
4
 74
0
 40
0
 40
0
 40
0
 40
0
 40
1
 40
1
 40
1
 40
1
 10
510.537600
 20
729.713315
 30
0.0
 10
510.532509
 20
737.537370
 30
0.0
 10
504.188432
 20
743.877321
 30
0.0
 10
496.364375
 20
743.877321
 30
0.0
  0
SPLINE
  5
20a
100
AcDbEntity
  8
MODELSKETCH_VISIBLE
 62
7
100
AcDbSpline
 70
8
 71
3
 72
8
 73
4
 74
0
 40
0
 40
0
 40
0
 40
0
 40
1
 40
1
 40
1
 40
1
 10
496.364375
 20
743.877321
 30
0.0
 10
488.540318
 20
743.877321
 30
0.0
 10
482.196241
 20
737.537370
 30
0.0
 10
482.191150
 20
729.713315
 30
0.0
  0
SPLINE
  5
20b
100
AcDbEntity
  8
MODELSKETCH_VISIBLE
 62
7
100
AcDbSpline
 70
8
 71
3
 72
8
 73
4
 74
0
 40
0
 40
0
 40
0
 40
0
 40
1
 40
1
 40
1
 40
1
 10
482.191150
 20
729.713315
 30
0.0
 10
482.196241
 20
721.889260
 30
0.0
 10
488.540318
 20
715.549309
 30
0.0
 10
496.364375
 20
715.549309
 30
0.0
  0
SPLINE
  5
20c
100
AcDbEntity
  8
MODELSKETCH_VISIBLE
 62
7
100
AcDbSpline
 70
8
 71
3
 72
8
 73
4
 74
0
 40
0
 40
0
 40
0
 40
0
 40
1
 40
1
 40
1
 40
1
 10
496.364375
 20
715.549309
 30
0.0
 10
504.188432
 20
715.549309
 30
0.0
 10
510.532509
 20
721.889260
 30
0.0
 10
510.537600
 20
729.713315
 30
0.0
  0
LWPOLYLINE
  5
20d
100
AcDbEntity
  8
MODELSKETCH_VISIBLE
 62
7
100
AcDbPolyline
 90
1
 70
1
 10
646.600600
 20
729.713315
 30
0.0
  0
SPLINE
  5
20e
100
AcDbEntity
  8
MODELSKETCH_VISIBLE
 62
7
100
AcDbSpline
 70
8
 71
3
 72
8
 73
4
 74
0
 40
0
 40
0
 40
0
 40
0
 40
1
 40
1
 40
1
 40
1
 10
340.458860
 20
729.713315
 30
0.0
 10
340.453769
 20
737.537370
 30
0.0
 10
334.109692
 20
743.877321
 30
0.0
 10
326.285635
 20
743.877321
 30
0.0
  0
SPLINE
  5
20f
100
AcDbEntity
  8
MODELSKETCH_VISIBLE
 62
7
100
AcDbSpline
 70
8
 71
3
 72
8
 73
4
 74
0
 40
0
 40
0
 40
0
 40
0
 40
1
 40
1
 40
1
 40
1
 10
326.285635
 20
743.877321
 30
0.0
 10
318.461578
 20
743.877321
 30
0.0
 10
312.117501
 20
737.537370
 30
0.0
 10
312.112410
 20
729.713315
 30
0.0
  0
SPLINE
  5
210
100
AcDbEntity
  8
MODELSKETCH_VISIBLE
 62
7
100
AcDbSpline
 70
8
 71
3
 72
8
 73
4
 74
0
 40
0
 40
0
 40
0
 40
0
 40
1
 40
1
 40
1
 40
1
 10
312.112410
 20
729.713315
 30
0.0
 10
312.117501
 20
721.889260
 30
0.0
 10
318.461578
 20
715.549309
 30
0.0
 10
326.285635
 20
715.549309
 30
0.0
  0
SPLINE
  5
211
100
AcDbEntity
  8
MODELSKETCH_VISIBLE
 62
7
100
AcDbSpline
 70
8
 71
3
 72
8
 73
4
 74
0
 40
0
 40
0
 40
0
 40
0
 40
1
 40
1
 40
1
 40
1
 10
326.285635
 20
715.549309
 30
0.0
 10
334.109692
 20
715.549309
 30
0.0
 10
340.453769
 20
721.889260
 30
0.0
 10
340.458860
 20
729.713315
 30
0.0
  0
LWPOLYLINE
  5
212
100
AcDbEntity
  8
MODELSKETCH_VISIBLE
 62
7
100
AcDbPolyline
 90
1
 70
1
 10
510.537600
 20
729.713315
 30
0.0
  0
SPLINE
  5
213
100
AcDbEntity
  8
MODELSKETCH_VISIBLE
 62
7
100
AcDbSpline
 70
8
 71
3
 72
8
 73
4
 74
0
 40
0
 40
0
 40
0
 40
0
 40
1
 40
1
 40
1
 40
1
 10
566.285640
 20
578.532215
 30
0.0
 10
566.285639
 20
576.444842
 30
0.0
 10
567.977787
 20
574.752689
 30
0.0
 10
570.065160
 20
574.752685
 30
0.0
  0
SPLINE
  5
214
100
AcDbEntity
  8
MODELSKETCH_VISIBLE
 62
7
100
AcDbSpline
 70
8
 71
3
 72
8
 73
4
 74
0
 40
0
 40
0
 40
0
 40
0
 40
1
 40
1
 40
1
 40
1
 10
612.584850
 20
843.099145
 30
0.0
 10
612.584849
 20
848.162752
 30
0.0
 10
609.883447
 20
852.841718
 30
0.0
 10
605.498234
 20
855.373521
 30
0.0
  0
SPLINE
  5
215
100
AcDbEntity
  8
MODELSKETCH_VISIBLE
 62
7
100
AcDbSpline
 70
8
 71
3
 72
8
 73
4
 74
0
 40
0
 40
0
 40
0
 40
0
 40
1
 40
1
 40
1
 40
1
 10
605.498234
 20
855.373521
 30
0.0
 10
601.113022
 20
857.905325
 30
0.0
 10
595.710218
 20
857.905325
 30
0.0
 10
591.325005
 20
855.373521
 30
0.0
  0
SPLINE
  5
216
100
AcDbEntity
  8
MODELSKETCH_VISIBLE
 62
7
100
AcDbSpline
 70
8
 71
3
 72
8
 73
4
 74
0
 40
0
 40
0
 40
0
 40
0
 40
1
 40
1
 40
1
 40
1
 10
591.325005
 20
855.373521
 30
0.0
 10
586.939793
 20
852.841718
 30
0.0
 10
584.238391
 20
848.162752
 30
0.0
 10
584.238391
 20
843.099145
 30
0.0
  0
SPLINE
  5
217
100
AcDbEntity
  8
MODELSKETCH_VISIBLE
 62
7
100
AcDbSpline
 70
8
 71
3
 72
8
 73
4
 74
0
 40
0
 40
0
 40
0
 40
0
 40
1
 40
1
 40
1
 40
1
 10
584.238391
 20
843.099145
 30
0.0
 10
584.238392
 20
838.035538
 30
0.0
 10
586.939794
 20
833.356572
 30
0.0
 10
591.325006
 20
830.824769
 30
0.0
  0
SPLINE
  5
218
100
AcDbEntity
  8
MODELSKETCH_VISIBLE
 62
7
100
AcDbSpline
 70
8
 71
3
 72
8
 73
4
 74
0
 40
0
 40
0
 40
0
 40
0
 40
1
 40
1
 40
1
 40
1
 10
591.325006
 20
830.824769
 30
0.0
 10
595.710219
 20
828.292965
 30
0.0
 10
601.113023
 20
828.292965
 30
0.0
 10
605.498235
 20
830.824769
 30
0.0
  0
SPLINE
  5
219
100
AcDbEntity
  8
MODELSKETCH_VISIBLE
 62
7
100
AcDbSpline
 70
8
 71
3
 72
8
 73
4
 74
0
 40
0
 40
0
 40
0
 40
0
 40
1
 40
1
 40
1
 40
1
 10
605.498235
 20
830.824769
 30
0.0
 10
609.883448
 20
833.356572
 30
0.0
 10
612.584850
 20
838.035538
 30
0.0
 10
612.584850
 20
843.099145
 30
0.0
  0
LWPOLYLINE
  5
21a
100
AcDbEntity
  8
MODELSKETCH_VISIBLE
 62
7
100
AcDbPolyline
 90
1
 70
1
 10
340.458860
 20
729.713315
 30
0.0
  0
SPLINE
  5
21b
100
AcDbEntity
  8
MODELSKETCH_VISIBLE
 62
7
100
AcDbSpline
 70
8
 71
3
 72
8
 73
4
 74
0
 40
0
 40
0
 40
0
 40
0
 40
1
 40
1
 40
1
 40
1
 10
626.758080
 20
574.752685
 30
0.0
 10
628.845453
 20
574.752689
 30
0.0
 10
630.537601
 20
576.444842
 30
0.0
 10
630.537600
 20
578.532215
 30
0.0
  0
SPLINE
  5
21c
100
AcDbEntity
  8
MODELSKETCH_VISIBLE
 62
7
100
AcDbSpline
 70
8
 71
3
 72
8
 73
4
 74
0
 40
0
 40
0
 40
0
 40
0
 40
1
 40
1
 40
1
 40
1
 10
630.537600
 20
669.240875
 30
0.0
 10
630.537601
 20
671.328248
 30
0.0
 10
628.845453
 20
673.020401
 30
0.0
 10
626.758080
 20
673.020405
 30
0.0
  0
SPLINE
  5
21d
100
AcDbEntity
  8
MODELSKETCH_VISIBLE
 62
7
100
AcDbSpline
 70
8
 71
3
 72
8
 73
4
 74
0
 40
0
 40
0
 40
0
 40
0
 40
1
 40
1
 40
1
 40
1
 10
340.458860
 20
843.099145
 30
0.0
 10
340.453769
 20
850.923200
 30
0.0
 10
334.109692
 20
857.263151
 30
0.0
 10
326.285635
 20
857.263151
 30
0.0
  0
SPLINE
  5
21e
100
AcDbEntity
  8
MODELSKETCH_VISIBLE
 62
7
100
AcDbSpline
 70
8
 71
3
 72
8
 73
4
 74
0
 40
0
 40
0
 40
0
 40
0
 40
1
 40
1
 40
1
 40
1
 10
326.285635
 20
857.263151
 30
0.0
 10
318.461578
 20
857.263151
 30
0.0
 10
312.117501
 20
850.923200
 30
0.0
 10
312.112410
 20
843.099145
 30
0.0
  0
SPLINE
  5
21f
100
AcDbEntity
  8
MODELSKETCH_VISIBLE
 62
7
100
AcDbSpline
 70
8
 71
3
 72
8
 73
4
 74
0
 40
0
 40
0
 40
0
 40
0
 40
1
 40
1
 40
1
 40
1
 10
312.112410
 20
843.099145
 30
0.0
 10
312.117501
 20
835.275090
 30
0.0
 10
318.461578
 20
828.935139
 30
0.0
 10
326.285635
 20
828.935139
 30
0.0
  0
SPLINE
  5
220
100
AcDbEntity
  8
MODELSKETCH_VISIBLE
 62
7
100
AcDbSpline
 70
8
 71
3
 72
8
 73
4
 74
0
 40
0
 40
0
 40
0
 40
0
 40
1
 40
1
 40
1
 40
1
 10
326.285635
 20
828.935139
 30
0.0
 10
334.109692
 20
828.935139
 30
0.0
 10
340.453769
 20
835.275090
 30
0.0
 10
340.458860
 20
843.099145
 30
0.0
  0
LWPOLYLINE
  5
221
100
AcDbEntity
  8
MODELSKETCH_VISIBLE
 62
7
100
AcDbPolyline
 90
1
 70
1
 10
612.584850
 20
843.099145
 30
0.0
  0
SPLINE
  5
222
100
AcDbEntity
  8
MODELSKETCH_VISIBLE
 62
7
100
AcDbSpline
 70
8
 71
3
 72
8
 73
4
 74
0
 40
0
 40
0
 40
0
 40
0
 40
1
 40
1
 40
1
 40
1
 10
570.065160
 20
673.020405
 30
0.0
 10
567.977787
 20
673.020401
 30
0.0
 10
566.285639
 20
671.328248
 30
0.0
 10
566.285640
 20
669.240875
 30
0.0
  0
LWPOLYLINE
  5
223
100
AcDbEntity
  8
MODELSKETCH_VISIBLE
 62
7
100
AcDbPolyline
 90
1
 70
1
 10
340.458860
 20
843.099145
 30
0.0
  0
SPLINE
  5
224
100
AcDbEntity
  8
MODELSKETCH_VISIBLE
 62
7
100
AcDbSpline
 70
8
 71
3
 72
8
 73
4
 74
0
 40
0
 40
0
 40
0
 40
0
 40
1
 40
1
 40
1
 40
1
 10
494.474610
 20
669.240875
 30
0.0
 10
494.474611
 20
671.328248
 30
0.0
 10
492.782463
 20
673.020401
 30
0.0
 10
490.695090
 20
673.020405
 30
0.0
  0
LWPOLYLINE
  5
225
100
AcDbEntity
  8
MODELSKETCH_VISIBLE
 62
7
100
AcDbPolyline
 90
2
 70
0
 10
630.537130
 20
669.242995
 30
0.0
 10
630.537130
 20
578.532995
 30
0.0
  0
SPLINE
  5
226
100
AcDbEntity
  8
MODELSKETCH_VISIBLE
 62
7
100
AcDbSpline
 70
8
 71
3
 72
8
 73
4
 74
0
 40
0
 40
0
 40
0
 40
0
 40
1
 40
1
 40
1
 40
1
 10
204.395870
 20
729.713315
 30
0.0
 10
204.389992
 20
737.536813
 30
0.0
 10
198.046145
 20
743.875896
 30
0.0
 10
190.222645
 20
743.875896
 30
0.0
  0
SPLINE
  5
227
100
AcDbEntity
  8
MODELSKETCH_VISIBLE
 62
7
100
AcDbSpline
 70
8
 71
3
 72
8
 73
4
 74
0
 40
0
 40
0
 40
0
 40
0
 40
1
 40
1
 40
1
 40
1
 10
190.222645
 20
743.875896
 30
0.0
 10
182.399145
 20
743.875896
 30
0.0
 10
176.055298
 20
737.536813
 30
0.0
 10
176.049420
 20
729.713315
 30
0.0
  0
SPLINE
  5
228
100
AcDbEntity
  8
MODELSKETCH_VISIBLE
 62
7
100
AcDbSpline
 70
8
 71
3
 72
8
 73
4
 74
0
 40
0
 40
0
 40
0
 40
0
 40
1
 40
1
 40
1
 40
1
 10
176.049420
 20
729.713315
 30
0.0
 10
176.055298
 20
721.889817
 30
0.0
 10
182.399145
 20
715.550734
 30
0.0
 10
190.222645
 20
715.550734
 30
0.0
  0
SPLINE
  5
229
100
AcDbEntity
  8
MODELSKETCH_VISIBLE
 62
7
100
AcDbSpline
 70
8
 71
3
 72
8
 73
4
 74
0
 40
0
 40
0
 40
0
 40
0
 40
1
 40
1
 40
1
 40
1
 10
190.222645
 20
715.550734
 30
0.0
 10
198.046145
 20
715.550734
 30
0.0
 10
204.389992
 20
721.889817
 30
0.0
 10
204.395870
 20
729.713315
 30
0.0
  0
LWPOLYLINE
  5
22a
100
AcDbEntity
  8
MODELSKETCH_VISIBLE
 62
7
100
AcDbPolyline
 90
2
 70
0
 10
566.286130
 20
669.242995
 30
0.0
 10
566.286130
 20
578.532995
 30
0.0
  0
SPLINE
  5
22b
100
AcDbEntity
  8
MODELSKETCH_VISIBLE
 62
7
100
AcDbSpline
 70
8
 71
3
 72
8
 73
4
 74
0
 40
0
 40
0
 40
0
 40
0
 40
1
 40
1
 40
1
 40
1
 10
95.734456
 20
569.083395
 30
0.0
 10
95.734455
 20
558.646519
 30
0.0
 10
104.195214
 20
550.185757
 30
0.0
 10
114.632090
 20
550.185755
 30
0.0
  0
SPLINE
  5
22c
100
AcDbEntity
  8
MODELSKETCH_VISIBLE
 62
7
100
AcDbSpline
 70
8
 71
3
 72
8
 73
4
 74
0
 40
0
 40
0
 40
0
 40
0
 40
1
 40
1
 40
1
 40
1
 10
674.002170
 20
550.185755
 30
0.0
 10
679.014136
 20
550.185755
 30
0.0
 10
683.820825
 20
552.176750
 30
0.0
 10
687.364820
 20
555.720745
 30
0.0
  0
SPLINE
  5
22d
100
AcDbEntity
  8
MODELSKETCH_VISIBLE
 62
7
100
AcDbSpline
 70
8
 71
3
 72
8
 73
4
 74
0
 40
0
 40
0
 40
0
 40
0
 40
1
 40
1
 40
1
 40
1
 10
687.364820
 20
555.720745
 30
0.0
 10
690.908815
 20
559.264740
 30
0.0
 10
692.899811
 20
564.071429
 30
0.0
 10
692.899810
 20
569.083395
 30
0.0
  0
SPLINE
  5
22e
100
AcDbEntity
  8
MODELSKETCH_VISIBLE
 62
7
100
AcDbSpline
 70
8
 71
3
 72
8
 73
4
 74
0
 40
0
 40
0
 40
0
 40
0
 40
1
 40
1
 40
1
 40
1
 10
639.041540
 20
756.170005
 30
0.0
 10
639.038063
 20
759.820450
 30
0.0
 10
636.077817
 20
762.777878
 30
0.0
 10
632.427370
 20
762.777878
 30
0.0
  0
SPLINE
  5
22f
100
AcDbEntity
  8
MODELSKETCH_VISIBLE
 62
7
100
AcDbSpline
 70
8
 71
3
 72
8
 73
4
 74
0
 40
0
 40
0
 40
0
 40
0
 40
1
 40
1
 40
1
 40
1
 10
632.427370
 20
762.777878
 30
0.0
 10
628.776923
 20
762.777878
 30
0.0
 10
625.816677
 20
759.820450
 30
0.0
 10
625.813200
 20
756.170005
 30
0.0
  0
SPLINE
  5
230
100
AcDbEntity
  8
MODELSKETCH_VISIBLE
 62
7
100
AcDbSpline
 70
8
 71
3
 72
8
 73
4
 74
0
 40
0
 40
0
 40
0
 40
0
 40
1
 40
1
 40
1
 40
1
 10
625.813200
 20
756.170005
 30
0.0
 10
625.816677
 20
752.519560
 30
0.0
 10
628.776923
 20
749.562132
 30
0.0
 10
632.427370
 20
749.562132
 30
0.0
  0
SPLINE
  5
231
100
AcDbEntity
  8
MODELSKETCH_VISIBLE
 62
7
100
AcDbSpline
 70
8
 71
3
 72
8
 73
4
 74
0
 40
0
 40
0
 40
0
 40
0
 40
1
 40
1
 40
1
 40
1
 10
632.427370
 20
749.562132
 30
0.0
 10
636.077817
 20
749.562132
 30
0.0
 10
639.038063
 20
752.519560
 30
0.0
 10
639.041540
 20
756.170005
 30
0.0
  0
LWPOLYLINE
  5
232
100
AcDbEntity
  8
MODELSKETCH_VISIBLE
 62
7
100
AcDbPolyline
 90
1
 70
1
 10
204.395870
 20
729.713315
 30
0.0
  0
SPLINE
  5
233
100
AcDbEntity
  8
MODELSKETCH_VISIBLE
 62
7
100
AcDbSpline
 70
8
 71
3
 72
8
 73
4
 74
0
 40
0
 40
0
 40
0
 40
0
 40
1
 40
1
 40
1
 40
1
 10
457.624220
 20
756.170005
 30
0.0
 10
457.624218
 20
758.533022
 30
0.0
 10
456.363564
 20
760.716539
 30
0.0
 10
454.317132
 20
761.898047
 30
0.0
  0
SPLINE
  5
234
100
AcDbEntity
  8
MODELSKETCH_VISIBLE
 62
7
100
AcDbSpline
 70
8
 71
3
 72
8
 73
4
 74
0
 40
0
 40
0
 40
0
 40
0
 40
1
 40
1
 40
1
 40
1
 10
454.317132
 20
761.898047
 30
0.0
 10
452.270699
 20
763.079556
 30
0.0
 10
449.749391
 20
763.079556
 30
0.0
 10
447.702958
 20
761.898047
 30
0.0
  0
SPLINE
  5
235
100
AcDbEntity
  8
MODELSKETCH_VISIBLE
 62
7
100
AcDbSpline
 70
8
 71
3
 72
8
 73
4
 74
0
 40
0
 40
0
 40
0
 40
0
 40
1
 40
1
 40
1
 40
1
 10
447.702958
 20
761.898047
 30
0.0
 10
445.656526
 20
760.716539
 30
0.0
 10
444.395871
 20
758.533022
 30
0.0
 10
444.395871
 20
756.170005
 30
0.0
  0
SPLINE
  5
236
100
AcDbEntity
  8
MODELSKETCH_VISIBLE
 62
7
100
AcDbSpline
 70
8
 71
3
 72
8
 73
4
 74
0
 40
0
 40
0
 40
0
 40
0
 40
1
 40
1
 40
1
 40
1
 10
444.395871
 20
756.170005
 30
0.0
 10
444.395873
 20
753.806988
 30
0.0
 10
445.656527
 20
751.623471
 30
0.0
 10
447.702960
 20
750.441963
 30
0.0
  0
SPLINE
  5
237
100
AcDbEntity
  8
MODELSKETCH_VISIBLE
 62
7
100
AcDbSpline
 70
8
 71
3
 72
8
 73
4
 74
0
 40
0
 40
0
 40
0
 40
0
 40
1
 40
1
 40
1
 40
1
 10
447.702960
 20
750.441963
 30
0.0
 10
449.749392
 20
749.260454
 30
0.0
 10
452.270701
 20
749.260454
 30
0.0
 10
454.317133
 20
750.441963
 30
0.0
  0
SPLINE
  5
238
100
AcDbEntity
  8
MODELSKETCH_VISIBLE
 62
7
100
AcDbSpline
 70
8
 71
3
 72
8
 73
4
 74
0
 40
0
 40
0
 40
0
 40
0
 40
1
 40
1
 40
1
 40
1
 10
454.317133
 20
750.441963
 30
0.0
 10
456.363566
 20
751.623471
 30
0.0
 10
457.624220
 20
753.806988
 30
0.0
 10
457.624220
 20
756.170005
 30
0.0
  0
LWPOLYLINE
  5
239
100
AcDbEntity
  8
MODELSKETCH_VISIBLE
 62
7
100
AcDbPolyline
 90
1
 70
1
 10
639.041540
 20
756.170005
 30
0.0
  0
LWPOLYLINE
  5
23a
100
AcDbEntity
  8
MODELSKETCH_VISIBLE
 62
7
100
AcDbPolyline
 90
1
 70
1
 10
457.624220
 20
756.170005
 30
0.0
  0
SPLINE
  5
23b
100
AcDbEntity
  8
MODELSKETCH_VISIBLE
 62
7
100
AcDbSpline
 70
8
 71
3
 72
8
 73
4
 74
0
 40
0
 40
0
 40
0
 40
0
 40
1
 40
1
 40
1
 40
1
 10
114.632090
 20
909.240875
 30
0.0
 10
104.195214
 20
909.240873
 30
0.0
 10
95.734455
 20
900.780112
 30
0.0
 10
95.734456
 20
890.343235
 30
0.0
  0
LWPOLYLINE
  5
23c
100
AcDbEntity
  8
MODELSKETCH_VISIBLE
 62
7
100
AcDbPolyline
 90
2
 70
0
 10
158.097130
 20
578.532995
 30
0.0
 10
158.097130
 20
669.242995
 30
0.0
  0
LWPOLYLINE
  5
23d
100
AcDbEntity
  8
MODELSKETCH_VISIBLE
 62
7
100
AcDbPolyline
 90
2
 70
0
 10
222.348130
 20
578.532995
 30
0.0
 10
222.348130
 20
669.242995
 30
0.0
  0
LWPOLYLINE
  5
23e
100
AcDbEntity
  8
MODELSKETCH_VISIBLE
 62
7
100
AcDbPolyline
 90
2
 70
0
 10
692.900130
 20
890.342995
 30
0.0
 10
692.900130
 20
569.082995
 30
0.0
  0
SPLINE
  5
23f
100
AcDbEntity
  8
MODELSKETCH_VISIBLE
 62
7
100
AcDbSpline
 70
8
 71
3
 72
8
 73
4
 74
0
 40
0
 40
0
 40
0
 40
0
 40
1
 40
1
 40
1
 40
1
 10
442.506110
 20
729.713315
 30
0.0
 10
442.506108
 20
734.776922
 30
0.0
 10
439.804706
 20
739.455887
 30
0.0
 10
435.419494
 20
741.987691
 30
0.0
  0
SPLINE
  5
240
100
AcDbEntity
  8
MODELSKETCH_VISIBLE
 62
7
100
AcDbSpline
 70
8
 71
3
 72
8
 73
4
 74
0
 40
0
 40
0
 40
0
 40
0
 40
1
 40
1
 40
1
 40
1
 10
435.419494
 20
741.987691
 30
0.0
 10
431.034282
 20
744.519494
 30
0.0
 10
425.631478
 20
744.519494
 30
0.0
 10
421.246266
 20
741.987691
 30
0.0
  0
SPLINE
  5
241
100
AcDbEntity
  8
MODELSKETCH_VISIBLE
 62
7
100
AcDbSpline
 70
8
 71
3
 72
8
 73
4
 74
0
 40
0
 40
0
 40
0
 40
0
 40
1
 40
1
 40
1
 40
1
 10
421.246266
 20
741.987691
 30
0.0
 10
416.861054
 20
739.455887
 30
0.0
 10
414.159652
 20
734.776922
 30
0.0
 10
414.159652
 20
729.713315
 30
0.0
  0
SPLINE
  5
242
100
AcDbEntity
  8
MODELSKETCH_VISIBLE
 62
7
100
AcDbSpline
 70
8
 71
3
 72
8
 73
4
 74
0
 40
0
 40
0
 40
0
 40
0
 40
1
 40
1
 40
1
 40
1
 10
414.159652
 20
729.713315
 30
0.0
 10
414.159654
 20
724.649708
 30
0.0
 10
416.861056
 20
719.970743
 30
0.0
 10
421.246268
 20
717.438940
 30
0.0
  0
SPLINE
  5
243
100
AcDbEntity
  8
MODELSKETCH_VISIBLE
 62
7
100
AcDbSpline
 70
8
 71
3
 72
8
 73
4
 74
0
 40
0
 40
0
 40
0
 40
0
 40
1
 40
1
 40
1
 40
1
 10
421.246268
 20
717.438940
 30
0.0
 10
425.631480
 20
714.907136
 30
0.0
 10
431.034284
 20
714.907136
 30
0.0
 10
435.419496
 20
717.438940
 30
0.0
  0
SPLINE
  5
244
100
AcDbEntity
  8
MODELSKETCH_VISIBLE
 62
7
100
AcDbSpline
 70
8
 71
3
 72
8
 73
4
 74
0
 40
0
 40
0
 40
0
 40
0
 40
1
 40
1
 40
1
 40
1
 10
435.419496
 20
717.438940
 30
0.0
 10
439.804708
 20
719.970743
 30
0.0
 10
442.506110
 20
724.649708
 30
0.0
 10
442.506110
 20
729.713315
 30
0.0
  0
LWPOLYLINE
  5
245
100
AcDbEntity
  8
MODELSKETCH_VISIBLE
 62
7
100
AcDbPolyline
 90
2
 70
0
 10
218.569130
 20
673.022995
 30
0.0
 10
161.876130
 20
673.022995
 30
0.0
  0
LWPOLYLINE
  5
246
100
AcDbEntity
  8
MODELSKETCH_VISIBLE
 62
7
100
AcDbPolyline
 90
1
 70
1
 10
442.506110
 20
729.713315
 30
0.0
  0
SPLINE
  5
247
100
AcDbEntity
  8
MODELSKETCH_VISIBLE
 62
7
100
AcDbSpline
 70
8
 71
3
 72
8
 73
4
 74
0
 40
0
 40
0
 40
0
 40
0
 40
1
 40
1
 40
1
 40
1
 10
514.317130
 20
756.170005
 30
0.0
 10
514.313653
 20
759.820450
 30
0.0
 10
511.353407
 20
762.777878
 30
0.0
 10
507.702960
 20
762.777878
 30
0.0
  0
SPLINE
  5
248
100
AcDbEntity
  8
MODELSKETCH_VISIBLE
 62
7
100
AcDbSpline
 70
8
 71
3
 72
8
 73
4
 74
0
 40
0
 40
0
 40
0
 40
0
 40
1
 40
1
 40
1
 40
1
 10
507.702960
 20
762.777878
 30
0.0
 10
504.052513
 20
762.777878
 30
0.0
 10
501.092267
 20
759.820450
 30
0.0
 10
501.088790
 20
756.170005
 30
0.0
  0
SPLINE
  5
249
100
AcDbEntity
  8
MODELSKETCH_VISIBLE
 62
7
100
AcDbSpline
 70
8
 71
3
 72
8
 73
4
 74
0
 40
0
 40
0
 40
0
 40
0
 40
1
 40
1
 40
1
 40
1
 10
501.088790
 20
756.170005
 30
0.0
 10
501.092267
 20
752.519560
 30
0.0
 10
504.052513
 20
749.562132
 30
0.0
 10
507.702960
 20
749.562132
 30
0.0
  0
SPLINE
  5
24a
100
AcDbEntity
  8
MODELSKETCH_VISIBLE
 62
7
100
AcDbSpline
 70
8
 71
3
 72
8
 73
4
 74
0
 40
0
 40
0
 40
0
 40
0
 40
1
 40
1
 40
1
 40
1
 10
507.702960
 20
749.562132
 30
0.0
 10
511.353407
 20
749.562132
 30
0.0
 10
514.313653
 20
752.519560
 30
0.0
 10
514.317130
 20
756.170005
 30
0.0
  0
LWPOLYLINE
  5
24b
100
AcDbEntity
  8
MODELSKETCH_VISIBLE
 62
7
100
AcDbPolyline
 90
2
 70
0
 10
95.734133
 20
890.342995
 30
0.0
 10
95.734133
 20
569.082995
 30
0.0
  0
SPLINE
  5
24c
100
AcDbEntity
  8
MODELSKETCH_VISIBLE
 62
7
100
AcDbSpline
 70
8
 71
3
 72
8
 73
4
 74
0
 40
0
 40
0
 40
0
 40
0
 40
1
 40
1
 40
1
 40
1
 10
692.899810
 20
890.343235
 30
0.0
 10
692.899811
 20
895.355201
 30
0.0
 10
690.908815
 20
900.161890
 30
0.0
 10
687.364820
 20
903.705885
 30
0.0
  0
SPLINE
  5
24d
100
AcDbEntity
  8
MODELSKETCH_VISIBLE
 62
7
100
AcDbSpline
 70
8
 71
3
 72
8
 73
4
 74
0
 40
0
 40
0
 40
0
 40
0
 40
1
 40
1
 40
1
 40
1
 10
687.364820
 20
903.705885
 30
0.0
 10
683.820825
 20
907.249880
 30
0.0
 10
679.014136
 20
909.240876
 30
0.0
 10
674.002170
 20
909.240875
 30
0.0
  0
SPLINE
  5
24e
100
AcDbEntity
  8
MODELSKETCH_VISIBLE
 62
7
100
AcDbSpline
 70
8
 71
3
 72
8
 73
4
 74
0
 40
0
 40
0
 40
0
 40
0
 40
1
 40
1
 40
1
 40
1
 10
434.002170
 20
673.020405
 30
0.0
 10
432.999776
 20
673.020406
 30
0.0
 10
432.038438
 20
672.622206
 30
0.0
 10
431.329638
 20
671.913407
 30
0.0
  0
SPLINE
  5
24f
100
AcDbEntity
  8
MODELSKETCH_VISIBLE
 62
7
100
AcDbSpline
 70
8
 71
3
 72
8
 73
4
 74
0
 40
0
 40
0
 40
0
 40
0
 40
1
 40
1
 40
1
 40
1
 10
431.329638
 20
671.913407
 30
0.0
 10
430.620839
 20
671.204607
 30
0.0
 10
430.222639
 20
670.243269
 30
0.0
 10
430.222640
 20
669.240875
 30
0.0
  0
SPLINE
  5
250
100
AcDbEntity
  8
MODELSKETCH_VISIBLE
 62
7
100
AcDbSpline
 70
8
 71
3
 72
8
 73
4
 74
0
 40
0
 40
0
 40
0
 40
0
 40
1
 40
1
 40
1
 40
1
 10
571.010050
 20
756.170005
 30
0.0
 10
571.010048
 20
758.533021
 30
0.0
 10
569.749394
 20
760.716539
 30
0.0
 10
567.702961
 20
761.898047
 30
0.0
  0
SPLINE
  5
251
100
AcDbEntity
  8
MODELSKETCH_VISIBLE
 62
7
100
AcDbSpline
 70
8
 71
3
 72
8
 73
4
 74
0
 40
0
 40
0
 40
0
 40
0
 40
1
 40
1
 40
1
 40
1
 10
567.702961
 20
761.898047
 30
0.0
 10
565.656529
 20
763.079555
 30
0.0
 10
563.135221
 20
763.079555
 30
0.0
 10
561.088788
 20
761.898047
 30
0.0
  0
SPLINE
  5
252
100
AcDbEntity
  8
MODELSKETCH_VISIBLE
 62
7
100
AcDbSpline
 70
8
 71
3
 72
8
 73
4
 74
0
 40
0
 40
0
 40
0
 40
0
 40
1
 40
1
 40
1
 40
1
 10
561.088788
 20
761.898047
 30
0.0
 10
559.042356
 20
760.716539
 30
0.0
 10
557.781702
 20
758.533021
 30
0.0
 10
557.781702
 20
756.170005
 30
0.0
  0
SPLINE
  5
253
100
AcDbEntity
  8
MODELSKETCH_VISIBLE
 62
7
100
AcDbSpline
 70
8
 71
3
 72
8
 73
4
 74
0
 40
0
 40
0
 40
0
 40
0
 40
1
 40
1
 40
1
 40
1
 10
557.781702
 20
756.170005
 30
0.0
 10
557.781704
 20
753.806989
 30
0.0
 10
559.042358
 20
751.623471
 30
0.0
 10
561.088790
 20
750.441963
 30
0.0
  0
SPLINE
  5
254
100
AcDbEntity
  8
MODELSKETCH_VISIBLE
 62
7
100
AcDbSpline
 70
8
 71
3
 72
8
 73
4
 74
0
 40
0
 40
0
 40
0
 40
0
 40
1
 40
1
 40
1
 40
1
 10
561.088790
 20
750.441963
 30
0.0
 10
563.135223
 20
749.260455
 30
0.0
 10
565.656531
 20
749.260455
 30
0.0
 10
567.702963
 20
750.441963
 30
0.0
  0
SPLINE
  5
255
100
AcDbEntity
  8
MODELSKETCH_VISIBLE
 62
7
100
AcDbSpline
 70
8
 71
3
 72
8
 73
4
 74
0
 40
0
 40
0
 40
0
 40
0
 40
1
 40
1
 40
1
 40
1
 10
567.702963
 20
750.441963
 30
0.0
 10
569.749396
 20
751.623471
 30
0.0
 10
571.010050
 20
753.806989
 30
0.0
 10
571.010050
 20
756.170005
 30
0.0
  0
LWPOLYLINE
  5
256
100
AcDbEntity
  8
MODELSKETCH_VISIBLE
 62
7
100
AcDbPolyline
 90
1
 70
1
 10
514.317130
 20
756.170005
 30
0.0
  0
SPLINE
  5
257
100
AcDbEntity
  8
MODELSKETCH_VISIBLE
 62
7
100
AcDbSpline
 70
8
 71
3
 72
8
 73
4
 74
0
 40
0
 40
0
 40
0
 40
0
 40
1
 40
1
 40
1
 40
1
 10
578.569100
 20
729.713315
 30
0.0
 10
578.569099
 20
734.776922
 30
0.0
 10
575.867697
 20
739.455888
 30
0.0
 10
571.482485
 20
741.987691
 30
0.0
  0
SPLINE
  5
258
100
AcDbEntity
  8
MODELSKETCH_VISIBLE
 62
7
100
AcDbSpline
 70
8
 71
3
 72
8
 73
4
 74
0
 40
0
 40
0
 40
0
 40
0
 40
1
 40
1
 40
1
 40
1
 10
571.482485
 20
741.987691
 30
0.0
 10
567.097272
 20
744.519495
 30
0.0
 10
561.694468
 20
744.519495
 30
0.0
 10
557.309256
 20
741.987691
 30
0.0
  0
SPLINE
  5
259
100
AcDbEntity
  8
MODELSKETCH_VISIBLE
 62
7
100
AcDbSpline
 70
8
 71
3
 72
8
 73
4
 74
0
 40
0
 40
0
 40
0
 40
0
 40
1
 40
1
 40
1
 40
1
 10
557.309256
 20
741.987691
 30
0.0
 10
552.924043
 20
739.455888
 30
0.0
 10
550.222641
 20
734.776922
 30
0.0
 10
550.222641
 20
729.713315
 30
0.0
  0
SPLINE
  5
25a
100
AcDbEntity
  8
MODELSKETCH_VISIBLE
 62
7
100
AcDbSpline
 70
8
 71
3
 72
8
 73
4
 74
0
 40
0
 40
0
 40
0
 40
0
 40
1
 40
1
 40
1
 40
1
 10
550.222641
 20
729.713315
 30
0.0
 10
550.222642
 20
724.649708
 30
0.0
 10
552.924044
 20
719.970742
 30
0.0
 10
557.309257
 20
717.438939
 30
0.0
  0
SPLINE
  5
25b
100
AcDbEntity
  8
MODELSKETCH_VISIBLE
 62
7
100
AcDbSpline
 70
8
 71
3
 72
8
 73
4
 74
0
 40
0
 40
0
 40
0
 40
0
 40
1
 40
1
 40
1
 40
1
 10
557.309257
 20
717.438939
 30
0.0
 10
561.694469
 20
714.907135
 30
0.0
 10
567.097273
 20
714.907135
 30
0.0
 10
571.482486
 20
717.438939
 30
0.0
  0
SPLINE
  5
25c
100
AcDbEntity
  8
MODELSKETCH_VISIBLE
 62
7
100
AcDbSpline
 70
8
 71
3
 72
8
 73
4
 74
0
 40
0
 40
0
 40
0
 40
0
 40
1
 40
1
 40
1
 40
1
 10
571.482486
 20
717.438939
 30
0.0
 10
575.867698
 20
719.970742
 30
0.0
 10
578.569100
 20
724.649708
 30
0.0
 10
578.569100
 20
729.713315
 30
0.0
  0
LWPOLYLINE
  5
25d
100
AcDbEntity
  8
MODELSKETCH_VISIBLE
 62
7
100
AcDbPolyline
 90
1
 70
1
 10
571.010050
 20
756.170005
 30
0.0
  0
LWPOLYLINE
  5
25e
100
AcDbEntity
  8
MODELSKETCH_VISIBLE
 62
7
100
AcDbPolyline
 90
1
 70
1
 10
578.569100
 20
729.713315
 30
0.0
  0
LWPOLYLINE
  5
25f
100
AcDbEntity
  8
MODELSKETCH_VISIBLE
 62
7
100
AcDbPolyline
 90
2
 70
0
 10
570.065130
 20
574.752995
 30
0.0
 10
626.758130
 20
574.752995
 30
0.0
  0
LWPOLYLINE
  5
260
100
AcDbEntity
  8
MODELSKETCH_VISIBLE
 62
7
100
AcDbPolyline
 90
2
 70
0
 10
218.569130
 20
574.752995
 30
0.0
 10
161.876130
 20
574.752995
 30
0.0
  0
SPLINE
  5
261
100
AcDbEntity
  8
MODELSKETCH_VISIBLE
 62
7
100
AcDbSpline
 70
8
 71
3
 72
8
 73
4
 74
0
 40
0
 40
0
 40
0
 40
0
 40
1
 40
1
 40
1
 40
1
 10
491.639970
 20
756.170005
 30
0.0
 10
491.639969
 20
758.533022
 30
0.0
 10
490.379314
 20
760.716539
 30
0.0
 10
488.332882
 20
761.898047
 30
0.0
  0
SPLINE
  5
262
100
AcDbEntity
  8
MODELSKETCH_VISIBLE
 62
7
100
AcDbSpline
 70
8
 71
3
 72
8
 73
4
 74
0
 40
0
 40
0
 40
0
 40
0
 40
1
 40
1
 40
1
 40
1
 10
488.332882
 20
761.898047
 30
0.0
 10
486.286449
 20
763.079556
 30
0.0
 10
483.765141
 20
763.079556
 30
0.0
 10
481.718708
 20
761.898047
 30
0.0
  0
SPLINE
  5
263
100
AcDbEntity
  8
MODELSKETCH_VISIBLE
 62
7
100
AcDbSpline
 70
8
 71
3
 72
8
 73
4
 74
0
 40
0
 40
0
 40
0
 40
0
 40
1
 40
1
 40
1
 40
1
 10
481.718708
 20
761.898047
 30
0.0
 10
479.672276
 20
760.716539
 30
0.0
 10
478.411621
 20
758.533022
 30
0.0
 10
478.411621
 20
756.170005
 30
0.0
  0
SPLINE
  5
264
100
AcDbEntity
  8
MODELSKETCH_VISIBLE
 62
7
100
AcDbSpline
 70
8
 71
3
 72
8
 73
4
 74
0
 40
0
 40
0
 40
0
 40
0
 40
1
 40
1
 40
1
 40
1
 10
478.411621
 20
756.170005
 30
0.0
 10
478.411623
 20
753.806988
 30
0.0
 10
479.672277
 20
751.623471
 30
0.0
 10
481.718710
 20
750.441963
 30
0.0
  0
SPLINE
  5
265
100
AcDbEntity
  8
MODELSKETCH_VISIBLE
 62
7
100
AcDbSpline
 70
8
 71
3
 72
8
 73
4
 74
0
 40
0
 40
0
 40
0
 40
0
 40
1
 40
1
 40
1
 40
1
 10
481.718710
 20
750.441963
 30
0.0
 10
483.765142
 20
749.260454
 30
0.0
 10
486.286451
 20
749.260454
 30
0.0
 10
488.332883
 20
750.441963
 30
0.0
  0
SPLINE
  5
266
100
AcDbEntity
  8
MODELSKETCH_VISIBLE
 62
7
100
AcDbSpline
 70
8
 71
3
 72
8
 73
4
 74
0
 40
0
 40
0
 40
0
 40
0
 40
1
 40
1
 40
1
 40
1
 10
488.332883
 20
750.441963
 30
0.0
 10
490.379316
 20
751.623471
 30
0.0
 10
491.639970
 20
753.806988
 30
0.0
 10
491.639970
 20
756.170005
 30
0.0
  0
LWPOLYLINE
  5
267
100
AcDbEntity
  8
MODELSKETCH_VISIBLE
 62
7
100
AcDbPolyline
 90
2
 70
0
 10
114.632130
 20
550.182995
 30
0.0
 10
674.002130
 20
550.182995
 30
0.0
  0
SPLINE
  5
268
100
AcDbEntity
  8
MODELSKETCH_VISIBLE
 62
7
100
AcDbSpline
 70
8
 71
3
 72
8
 73
4
 74
0
 40
0
 40
0
 40
0
 40
0
 40
1
 40
1
 40
1
 40
1
 10
358.411620
 20
669.240875
 30
0.0
 10
358.411621
 20
670.243269
 30
0.0
 10
358.013421
 20
671.204607
 30
0.0
 10
357.304622
 20
671.913407
 30
0.0
  0
SPLINE
  5
269
100
AcDbEntity
  8
MODELSKETCH_VISIBLE
 62
7
100
AcDbSpline
 70
8
 71
3
 72
8
 73
4
 74
0
 40
0
 40
0
 40
0
 40
0
 40
1
 40
1
 40
1
 40
1
 10
357.304622
 20
671.913407
 30
0.0
 10
356.595822
 20
672.622206
 30
0.0
 10
355.634484
 20
673.020406
 30
0.0
 10
354.632090
 20
673.020405
 30
0.0
  0
LWPOLYLINE
  5
26a
100
AcDbEntity
  8
MODELSKETCH_VISIBLE
 62
7
100
AcDbPolyline
 90
1
 70
1
 10
491.639970
 20
756.170005
 30
0.0
  0
LWPOLYLINE
  5
26b
100
AcDbEntity
  8
MODELSKETCH_VISIBLE
 62
7
100
AcDbPolyline
 90
2
 70
0
 10
114.632130
 20
909.240995
 30
0.0
 10
674.002130
 20
909.240995
 30
0.0
  0
SPLINE
  5
26c
100
AcDbEntity
  8
MODELSKETCH_VISIBLE
 62
7
100
AcDbSpline
 70
8
 71
3
 72
8
 73
4
 74
0
 40
0
 40
0
 40
0
 40
0
 40
1
 40
1
 40
1
 40
1
 10
161.876190
 20
673.020405
 30
0.0
 10
160.873796
 20
673.020406
 30
0.0
 10
159.912458
 20
672.622206
 30
0.0
 10
159.203658
 20
671.913407
 30
0.0
  0
SPLINE
  5
26d
100
AcDbEntity
  8
MODELSKETCH_VISIBLE
 62
7
100
AcDbSpline
 70
8
 71
3
 72
8
 73
4
 74
0
 40
0
 40
0
 40
0
 40
0
 40
1
 40
1
 40
1
 40
1
 10
159.203658
 20
671.913407
 30
0.0
 10
158.494859
 20
671.204607
 30
0.0
 10
158.096659
 20
670.243269
 30
0.0
 10
158.096660
 20
669.240875
 30
0.0
  0
LWPOLYLINE
  5
26e
100
AcDbEntity
  8
MODELSKETCH_VISIBLE
 62
7
100
AcDbPolyline
 90
2
 70
0
 10
297.939130
 20
673.022995
 30
0.0
 10
354.632130
 20
673.022995
 30
0.0
  0
SPLINE
  5
26f
100
AcDbEntity
  8
MODELSKETCH_VISIBLE
 62
7
100
AcDbSpline
 70
8
 71
3
 72
8
 73
4
 74
0
 40
0
 40
0
 40
0
 40
0
 40
1
 40
1
 40
1
 40
1
 10
222.348630
 20
669.240875
 30
0.0
 10
222.348631
 20
670.243269
 30
0.0
 10
221.950431
 20
671.204607
 30
0.0
 10
221.241632
 20
671.913407
 30
0.0
  0
SPLINE
  5
270
100
AcDbEntity
  8
MODELSKETCH_VISIBLE
 62
7
100
AcDbSpline
 70
8
 71
3
 72
8
 73
4
 74
0
 40
0
 40
0
 40
0
 40
0
 40
1
 40
1
 40
1
 40
1
 10
221.241632
 20
671.913407
 30
0.0
 10
220.532832
 20
672.622206
 30
0.0
 10
219.571494
 20
673.020406
 30
0.0
 10
218.569100
 20
673.020405
 30
0.0
  0
LWPOLYLINE
  5
271
100
AcDbEntity
  8
MODELSKETCH_VISIBLE
 62
7
100
AcDbPolyline
 90
2
 70
0
 10
297.939130
 20
574.752995
 30
0.0
 10
354.632130
 20
574.752995
 30
0.0
  0
SPLINE
  5
272
100
AcDbEntity
  8
MODELSKETCH_VISIBLE
 62
7
100
AcDbSpline
 70
8
 71
3
 72
8
 73
4
 74
0
 40
0
 40
0
 40
0
 40
0
 40
1
 40
1
 40
1
 40
1
 10
158.096660
 20
578.532215
 30
0.0
 10
158.096659
 20
577.529821
 30
0.0
 10
158.494859
 20
576.568483
 30
0.0
 10
159.203658
 20
575.859683
 30
0.0
  0
SPLINE
  5
273
100
AcDbEntity
  8
MODELSKETCH_VISIBLE
 62
7
100
AcDbSpline
 70
8
 71
3
 72
8
 73
4
 74
0
 40
0
 40
0
 40
0
 40
0
 40
1
 40
1
 40
1
 40
1
 10
159.203658
 20
575.859683
 30
0.0
 10
159.912458
 20
575.150884
 30
0.0
 10
160.873796
 20
574.752685
 30
0.0
 10
161.876190
 20
574.752685
 30
0.0
  0
LWPOLYLINE
  5
274
100
AcDbEntity
  8
MODELSKETCH_VISIBLE
 62
7
100
AcDbPolyline
 90
2
 70
0
 10
294.160130
 20
669.242995
 30
0.0
 10
294.160130
 20
578.532995
 30
0.0
  0
SPLINE
  5
275
100
AcDbEntity
  8
MODELSKETCH_VISIBLE
 62
7
100
AcDbSpline
 70
8
 71
3
 72
8
 73
4
 74
0
 40
0
 40
0
 40
0
 40
0
 40
1
 40
1
 40
1
 40
1
 10
218.569100
 20
574.752685
 30
0.0
 10
219.571494
 20
574.752685
 30
0.0
 10
220.532832
 20
575.150884
 30
0.0
 10
221.241632
 20
575.859683
 30
0.0
  0
SPLINE
  5
276
100
AcDbEntity
  8
MODELSKETCH_VISIBLE
 62
7
100
AcDbSpline
 70
8
 71
3
 72
8
 73
4
 74
0
 40
0
 40
0
 40
0
 40
0
 40
1
 40
1
 40
1
 40
1
 10
221.241632
 20
575.859683
 30
0.0
 10
221.950431
 20
576.568483
 30
0.0
 10
222.348631
 20
577.529821
 30
0.0
 10
222.348630
 20
578.532215
 30
0.0
  0
SPLINE
  5
277
100
AcDbEntity
  8
MODELSKETCH_VISIBLE
 62
7
100
AcDbSpline
 70
8
 71
3
 72
8
 73
4
 74
0
 40
0
 40
0
 40
0
 40
0
 40
1
 40
1
 40
1
 40
1
 10
412.269890
 20
756.170005
 30
0.0
 10
412.269888
 20
758.533022
 30
0.0
 10
411.009234
 20
760.716539
 30
0.0
 10
408.962802
 20
761.898047
 30
0.0
  0
SPLINE
  5
278
100
AcDbEntity
  8
MODELSKETCH_VISIBLE
 62
7
100
AcDbSpline
 70
8
 71
3
 72
8
 73
4
 74
0
 40
0
 40
0
 40
0
 40
0
 40
1
 40
1
 40
1
 40
1
 10
408.962802
 20
761.898047
 30
0.0
 10
406.916369
 20
763.079556
 30
0.0
 10
404.395061
 20
763.079556
 30
0.0
 10
402.348628
 20
761.898047
 30
0.0
  0
SPLINE
  5
279
100
AcDbEntity
  8
MODELSKETCH_VISIBLE
 62
7
100
AcDbSpline
 70
8
 71
3
 72
8
 73
4
 74
0
 40
0
 40
0
 40
0
 40
0
 40
1
 40
1
 40
1
 40
1
 10
402.348628
 20
761.898047
 30
0.0
 10
400.302196
 20
760.716539
 30
0.0
 10
399.041541
 20
758.533022
 30
0.0
 10
399.041541
 20
756.170005
 30
0.0
  0
SPLINE
  5
27a
100
AcDbEntity
  8
MODELSKETCH_VISIBLE
 62
7
100
AcDbSpline
 70
8
 71
3
 72
8
 73
4
 74
0
 40
0
 40
0
 40
0
 40
0
 40
1
 40
1
 40
1
 40
1
 10
399.041541
 20
756.170005
 30
0.0
 10
399.041543
 20
753.806988
 30
0.0
 10
400.302197
 20
751.623471
 30
0.0
 10
402.348630
 20
750.441963
 30
0.0
  0
SPLINE
  5
27b
100
AcDbEntity
  8
MODELSKETCH_VISIBLE
 62
7
100
AcDbSpline
 70
8
 71
3
 72
8
 73
4
 74
0
 40
0
 40
0
 40
0
 40
0
 40
1
 40
1
 40
1
 40
1
 10
402.348630
 20
750.441963
 30
0.0
 10
404.395062
 20
749.260454
 30
0.0
 10
406.916371
 20
749.260454
 30
0.0
 10
408.962803
 20
750.441963
 30
0.0
  0
SPLINE
  5
27c
100
AcDbEntity
  8
MODELSKETCH_VISIBLE
 62
7
100
AcDbSpline
 70
8
 71
3
 72
8
 73
4
 74
0
 40
0
 40
0
 40
0
 40
0
 40
1
 40
1
 40
1
 40
1
 10
408.962803
 20
750.441963
 30
0.0
 10
411.009236
 20
751.623471
 30
0.0
 10
412.269890
 20
753.806988
 30
0.0
 10
412.269890
 20
756.170005
 30
0.0
  0
LWPOLYLINE
  5
27d
100
AcDbEntity
  8
MODELSKETCH_VISIBLE
 62
7
100
AcDbPolyline
 90
2
 70
0
 10
358.411630
 20
669.242995
 30
0.0
 10
358.411630
 20
578.532995
 30
0.0
  0
LWPOLYLINE
  5
27e
100
AcDbEntity
  8
MODELSKETCH_VISIBLE
 62
7
100
AcDbPolyline
 90
1
 70
1
 10
412.269890
 20
756.170005
 30
0.0
  0
SPLINE
  5
27f
100
AcDbEntity
  8
MODELSKETCH_VISIBLE
 62
7
100
AcDbSpline
 70
8
 71
3
 72
8
 73
4
 74
0
 40
0
 40
0
 40
0
 40
0
 40
1
 40
1
 40
1
 40
1
 10
476.521860
 20
843.099145
 30
0.0
 10
476.521858
 20
848.162752
 30
0.0
 10
473.820456
 20
852.841717
 30
0.0
 10
469.435244
 20
855.373521
 30
0.0
  0
SPLINE
  5
280
100
AcDbEntity
  8
MODELSKETCH_VISIBLE
 62
7
100
AcDbSpline
 70
8
 71
3
 72
8
 73
4
 74
0
 40
0
 40
0
 40
0
 40
0
 40
1
 40
1
 40
1
 40
1
 10
469.435244
 20
855.373521
 30
0.0
 10
465.050032
 20
857.905324
 30
0.0
 10
459.647228
 20
857.905324
 30
0.0
 10
455.262016
 20
855.373521
 30
0.0
  0
SPLINE
  5
281
100
AcDbEntity
  8
MODELSKETCH_VISIBLE
 62
7
100
AcDbSpline
 70
8
 71
3
 72
8
 73
4
 74
0
 40
0
 40
0
 40
0
 40
0
 40
1
 40
1
 40
1
 40
1
 10
455.262016
 20
855.373521
 30
0.0
 10
450.876804
 20
852.841717
 30
0.0
 10
448.175402
 20
848.162752
 30
0.0
 10
448.175402
 20
843.099145
 30
0.0
  0
SPLINE
  5
282
100
AcDbEntity
  8
MODELSKETCH_VISIBLE
 62
7
100
AcDbSpline
 70
8
 71
3
 72
8
 73
4
 74
0
 40
0
 40
0
 40
0
 40
0
 40
1
 40
1
 40
1
 40
1
 10
448.175402
 20
843.099145
 30
0.0
 10
448.175404
 20
838.035538
 30
0.0
 10
450.876806
 20
833.356573
 30
0.0
 10
455.262018
 20
830.824770
 30
0.0
  0
SPLINE
  5
283
100
AcDbEntity
  8
MODELSKETCH_VISIBLE
 62
7
100
AcDbSpline
 70
8
 71
3
 72
8
 73
4
 74
0
 40
0
 40
0
 40
0
 40
0
 40
1
 40
1
 40
1
 40
1
 10
455.262018
 20
830.824770
 30
0.0
 10
459.647230
 20
828.292966
 30
0.0
 10
465.050034
 20
828.292966
 30
0.0
 10
469.435246
 20
830.824770
 30
0.0
  0
SPLINE
  5
284
100
AcDbEntity
  8
MODELSKETCH_VISIBLE
 62
7
100
AcDbSpline
 70
8
 71
3
 72
8
 73
4
 74
0
 40
0
 40
0
 40
0
 40
0
 40
1
 40
1
 40
1
 40
1
 10
469.435246
 20
830.824770
 30
0.0
 10
473.820458
 20
833.356573
 30
0.0
 10
476.521860
 20
838.035538
 30
0.0
 10
476.521860
 20
843.099145
 30
0.0
  0
LWPOLYLINE
  5
285
100
AcDbEntity
  8
MODELSKETCH_VISIBLE
 62
7
100
AcDbPolyline
 90
2
 70
0
 10
434.002130
 20
673.022995
 30
0.0
 10
490.695130
 20
673.022995
 30
0.0
  0
SPLINE
  5
286
100
AcDbEntity
  8
MODELSKETCH_VISIBLE
 62
7
100
AcDbSpline
 70
8
 71
3
 72
8
 73
4
 74
0
 40
0
 40
0
 40
0
 40
0
 40
1
 40
1
 40
1
 40
1
 10
297.939180
 20
673.020405
 30
0.0
 10
296.936786
 20
673.020406
 30
0.0
 10
295.975448
 20
672.622206
 30
0.0
 10
295.266648
 20
671.913407
 30
0.0
  0
SPLINE
  5
287
100
AcDbEntity
  8
MODELSKETCH_VISIBLE
 62
7
100
AcDbSpline
 70
8
 71
3
 72
8
 73
4
 74
0
 40
0
 40
0
 40
0
 40
0
 40
1
 40
1
 40
1
 40
1
 10
295.266648
 20
671.913407
 30
0.0
 10
294.557849
 20
671.204607
 30
0.0
 10
294.159649
 20
670.243269
 30
0.0
 10
294.159650
 20
669.240875
 30
0.0
  0
LWPOLYLINE
  5
288
100
AcDbEntity
  8
MODELSKETCH_VISIBLE
 62
7
100
AcDbPolyline
 90
1
 70
1
 10
476.521860
 20
843.099145
 30
0.0
  0
LWPOLYLINE
  5
289
100
AcDbEntity
  8
MODELSKETCH_VISIBLE
 62
7
100
AcDbPolyline
 90
2
 70
0
 10
434.002130
 20
574.752995
 30
0.0
 10
490.695130
 20
574.752995
 30
0.0
  0
SPLINE
  5
28a
100
AcDbEntity
  8
MODELSKETCH_VISIBLE
 62
7
100
AcDbSpline
 70
8
 71
3
 72
8
 73
4
 74
0
 40
0
 40
0
 40
0
 40
0
 40
1
 40
1
 40
1
 40
1
 10
294.159650
 20
578.532215
 30
0.0
 10
294.159649
 20
577.529821
 30
0.0
 10
294.557849
 20
576.568483
 30
0.0
 10
295.266648
 20
575.859683
 30
0.0
  0
SPLINE
  5
28b
100
AcDbEntity
  8
MODELSKETCH_VISIBLE
 62
7
100
AcDbSpline
 70
8
 71
3
 72
8
 73
4
 74
0
 40
0
 40
0
 40
0
 40
0
 40
1
 40
1
 40
1
 40
1
 10
295.266648
 20
575.859683
 30
0.0
 10
295.975448
 20
575.150884
 30
0.0
 10
296.936786
 20
574.752685
 30
0.0
 10
297.939180
 20
574.752685
 30
0.0
  0
LWPOLYLINE
  5
28c
100
AcDbEntity
  8
MODELSKETCH_VISIBLE
 62
7
100
AcDbPolyline
 90
2
 70
0
 10
430.222630
 20
669.242995
 30
0.0
 10
430.222630
 20
578.532995
 30
0.0
  0
SPLINE
  5
28d
100
AcDbEntity
  8
MODELSKETCH_VISIBLE
 62
7
100
AcDbSpline
 70
8
 71
3
 72
8
 73
4
 74
0
 40
0
 40
0
 40
0
 40
0
 40
1
 40
1
 40
1
 40
1
 10
354.632090
 20
574.752685
 30
0.0
 10
355.634484
 20
574.752685
 30
0.0
 10
356.595822
 20
575.150884
 30
0.0
 10
357.304622
 20
575.859683
 30
0.0
  0
SPLINE
  5
28e
100
AcDbEntity
  8
MODELSKETCH_VISIBLE
 62
7
100
AcDbSpline
 70
8
 71
3
 72
8
 73
4
 74
0
 40
0
 40
0
 40
0
 40
0
 40
1
 40
1
 40
1
 40
1
 10
357.304622
 20
575.859683
 30
0.0
 10
358.013421
 20
576.568483
 30
0.0
 10
358.411621
 20
577.529821
 30
0.0
 10
358.411620
 20
578.532215
 30
0.0
  0
LWPOLYLINE
  5
28f
100
AcDbEntity
  8
MODELSKETCH_VISIBLE
 62
7
100
AcDbPolyline
 90
2
 70
0
 10
494.474130
 20
669.242995
 30
0.0
 10
494.474130
 20
578.532995
 30
0.0
  0
SPLINE
  5
290
100
AcDbEntity
  8
MODELSKETCH_VISIBLE
 62
7
100
AcDbSpline
 70
8
 71
3
 72
8
 73
4
 74
0
 40
0
 40
0
 40
0
 40
0
 40
1
 40
1
 40
1
 40
1
 10
430.222640
 20
578.532215
 30
0.0
 10
430.222639
 20
577.529821
 30
0.0
 10
430.620839
 20
576.568483
 30
0.0
 10
431.329638
 20
575.859683
 30
0.0
  0
SPLINE
  5
291
100
AcDbEntity
  8
MODELSKETCH_VISIBLE
 62
7
100
AcDbSpline
 70
8
 71
3
 72
8
 73
4
 74
0
 40
0
 40
0
 40
0
 40
0
 40
1
 40
1
 40
1
 40
1
 10
431.329638
 20
575.859683
 30
0.0
 10
432.038438
 20
575.150884
 30
0.0
 10
432.999776
 20
574.752685
 30
0.0
 10
434.002170
 20
574.752685
 30
0.0
  0
SPLINE
  5
292
100
AcDbEntity
  8
MODELSKETCH_VISIBLE
 62
7
100
AcDbSpline
 70
8
 71
3
 72
8
 73
4
 74
0
 40
0
 40
0
 40
0
 40
0
 40
1
 40
1
 40
1
 40
1
 10
204.395870
 20
843.099145
 30
0.0
 10
204.389992
 20
850.922643
 30
0.0
 10
198.046145
 20
857.261726
 30
0.0
 10
190.222645
 20
857.261726
 30
0.0
  0
SPLINE
  5
293
100
AcDbEntity
  8
MODELSKETCH_VISIBLE
 62
7
100
AcDbSpline
 70
8
 71
3
 72
8
 73
4
 74
0
 40
0
 40
0
 40
0
 40
0
 40
1
 40
1
 40
1
 40
1
 10
190.222645
 20
857.261726
 30
0.0
 10
182.399145
 20
857.261726
 30
0.0
 10
176.055298
 20
850.922643
 30
0.0
 10
176.049420
 20
843.099145
 30
0.0
  0
SPLINE
  5
294
100
AcDbEntity
  8
MODELSKETCH_VISIBLE
 62
7
100
AcDbSpline
 70
8
 71
3
 72
8
 73
4
 74
0
 40
0
 40
0
 40
0
 40
0
 40
1
 40
1
 40
1
 40
1
 10
176.049420
 20
843.099145
 30
0.0
 10
176.055298
 20
835.275647
 30
0.0
 10
182.399145
 20
828.936564
 30
0.0
 10
190.222645
 20
828.936564
 30
0.0
  0
SPLINE
  5
295
100
AcDbEntity
  8
MODELSKETCH_VISIBLE
 62
7
100
AcDbSpline
 70
8
 71
3
 72
8
 73
4
 74
0
 40
0
 40
0
 40
0
 40
0
 40
1
 40
1
 40
1
 40
1
 10
190.222645
 20
828.936564
 30
0.0
 10
198.046145
 20
828.936564
 30
0.0
 10
204.389992
 20
835.275647
 30
0.0
 10
204.395870
 20
843.099145
 30
0.0
  0
LWPOLYLINE
  5
296
100
AcDbEntity
  8
MODELSKETCH_VISIBLE
 62
7
100
AcDbPolyline
 90
2
 70
0
 10
570.065130
 20
673.022995
 30
0.0
 10
626.758130
 20
673.022995
 30
0.0
  0
SPLINE
  5
297
100
AcDbEntity
  8
MODELSKETCH_VISIBLE
 62
7
100
AcDbSpline
 70
8
 71
3
 72
8
 73
4
 74
0
 40
0
 40
0
 40
0
 40
0
 40
1
 40
1
 40
1
 40
1
 10
490.695090
 20
574.752685
 30
0.0
 10
492.782463
 20
574.752689
 30
0.0
 10
494.474611
 20
576.444842
 30
0.0
 10
494.474610
 20
578.532215
 30
0.0
  0
LWPOLYLINE
  5
298
100
AcDbEntity
  8
MODELSKETCH_VISIBLE
 62
7
100
AcDbPolyline
 90
1
 70
1
 10
204.395870
 20
843.099145
 30
0.0
  0
ENDSEC
  0
SECTION
  2
OBJECTS
  0
DICTIONARY
  5
C
330
0
100
AcDbDictionary
  3
ACAD_GROUP
350
D
  3
ACAD_MLINESTYLE
350
17
  0
DICTIONARY
  5
D
330
C
100
AcDbDictionary
  0
DICTIONARY
  5
1A
330
C
100
AcDbDictionary
  0
DICTIONARY
  5
17
330
C
100
AcDbDictionary
  3
STANDARD
350
18
  0
DICTIONARY
  5
19
330
C
100
AcDbDictionary
  0
ENDSEC
  0
EOF
