<?xml version="1.0" encoding="UTF-8" standalone="no"?>
<svg
   viewBox="0 0 617.76687 379.27651"
   width="163.45082mm"
   height="100.35024mm"
   version="1.1"
   id="svg258"
   sodipodi:docname="DIYBody - Frontplatte_EMS_grosse_schriftt_cut.svg"
   inkscape:version="1.3.2 (091e20e, 2023-11-25, custom)"
   xmlns:inkscape="http://www.inkscape.org/namespaces/inkscape"
   xmlns:sodipodi="http://sodipodi.sourceforge.net/DTD/sodipodi-0.dtd"
   xmlns="http://www.w3.org/2000/svg"
   xmlns:svg="http://www.w3.org/2000/svg"
   xmlns:rdf="http://www.w3.org/1999/02/22-rdf-syntax-ns#"
   xmlns:cc="http://creativecommons.org/ns#"
   xmlns:dc="http://purl.org/dc/elements/1.1/">
  <title
     id="title1">DUB-IY Fromtplatte</title>
  <sodipodi:namedview
     id="namedview258"
     pagecolor="#ffffff"
     bordercolor="#000000"
     borderopacity="0.25"
     inkscape:showpageshadow="2"
     inkscape:pageopacity="0.0"
     inkscape:pagecheckerboard="false"
     inkscape:deskcolor="#d1d1d1"
     inkscape:zoom="1.3238076"
     inkscape:cx="365.98975"
     inkscape:cy="176.38515"
     inkscape:window-width="1920"
     inkscape:window-height="1001"
     inkscape:window-x="-9"
     inkscape:window-y="-9"
     inkscape:window-maximized="1"
     inkscape:current-layer="g171"
     showguides="true"
     inkscape:document-units="mm">
    <sodipodi:guide
       position="203.05668,1098.9905"
       orientation="0,-1"
       id="guide495"
       inkscape:locked="false" />
    <sodipodi:guide
       position="348.56849,974.26602"
       orientation="0,-1"
       id="guide521"
       inkscape:locked="false" />
    <sodipodi:guide
       position="141.94075,1000.441"
       orientation="0,-1"
       id="guide525"
       inkscape:locked="false" />
    <sodipodi:guide
       position="143.59813,888.74937"
       orientation="0,-1"
       id="guide526"
       inkscape:locked="false" />
    <sodipodi:guide
       position="315.17596,904.59049"
       orientation="0,-1"
       id="guide527"
       inkscape:locked="false" />
    <sodipodi:guide
       position="347.50312,911.20975"
       orientation="0,-1"
       id="guide528"
       inkscape:locked="false" />
    <sodipodi:guide
       position="408.91862,901.65269"
       orientation="0,-1"
       id="guide529"
       inkscape:locked="false" />
    <sodipodi:guide
       position="82.073449,1015.001"
       orientation="0,-1"
       id="guide531"
       inkscape:locked="false" />
    <sodipodi:guide
       position="153.09599,886.62981"
       orientation="0,-1"
       id="guide532"
       inkscape:locked="false" />
    <sodipodi:guide
       position="164.60266,998.31644"
       orientation="0,-1"
       id="guide275"
       inkscape:locked="false" />
    <sodipodi:guide
       position="282.72659,1093.1775"
       orientation="0,-1"
       id="guide316"
       inkscape:locked="false" />
    <sodipodi:guide
       position="74.810179,896.71182"
       orientation="0,-1"
       id="guide317"
       inkscape:locked="false" />
    <sodipodi:guide
       position="510.29475,945.12384"
       orientation="0,-1"
       id="guide318"
       inkscape:locked="false" />
    <sodipodi:guide
       position="506.22078,938.07356"
       orientation="0,-1"
       id="guide319"
       inkscape:locked="false" />
    <sodipodi:guide
       position="102.85285,1105.2292"
       orientation="0,-1"
       id="guide1"
       inkscape:locked="false" />
    <sodipodi:guide
       position="93.355429,1008.7605"
       orientation="0,-1"
       id="guide2"
       inkscape:locked="false" />
    <sodipodi:guide
       position="471.28494,893.04222"
       orientation="0,-1"
       id="guide3"
       inkscape:locked="false" />
  </sodipodi:namedview>
  <desc
     id="desc1">DIYBody - Frontplatte.dxf - scale = 1.000000, origin = (0.000000, 0.000000), method = manual</desc>
  <defs
     id="defs4" />
  <g
     inkscape:groupmode="layer"
     inkscape:label="Fraeskontur"
     id="g237"
     style="display:inline"
     transform="translate(-85.433681,-202.97803)">
    <path
       d="m 434.94705,366.34968 a 6.614173,6.614173 0 0 0 -13.22834,0 6.614173,6.614173 0 0 0 13.22834,0 z"
       style="fill:none;stroke:#000000;stroke-width:0.4;stroke-linecap:round;stroke-dasharray:none"
       id="path181" />
    <path
       d="m 646.6006,392.80637 a 14.17323,14.17323 0 0 0 -28.34646,0 14.17323,14.17323 0 0 0 28.34646,0 z"
       style="fill:none;stroke:#000000;stroke-width:0.4;stroke-linecap:round;stroke-dasharray:none"
       id="path182" />
    <path
       d="m 510.5376,392.80637 a 14.173228,14.173228 0 0 0 -28.34645,0 14.173228,14.173228 0 0 0 28.34645,0 z"
       style="fill:none;stroke:#000000;stroke-width:0.4;stroke-linecap:round;stroke-dasharray:none"
       id="path183" />
    <path
       d="m 340.45886,392.80637 a 14.173228,14.173228 0 0 0 -28.34645,0 14.173228,14.173228 0 0 0 28.34645,0 z"
       style="fill:none;stroke:#000000;stroke-width:0.4;stroke-linecap:round;stroke-dasharray:none"
       id="path184" />
    <path
       d="m 566.28564,543.98747 a 3.779528,3.779528 0 0 0 3.77952,3.77953"
       style="fill:none;stroke:#000000;stroke-width:0.4;stroke-linecap:round;stroke-dasharray:none"
       id="path185" />
    <path
       d="m 612.58485,279.42054 a 14.17323,14.17323 0 0 0 -28.34646,0 14.17323,14.17323 0 0 0 28.34646,0 z"
       style="fill:none;stroke:#000000;stroke-width:0.4;stroke-linecap:round;stroke-dasharray:none"
       id="path186" />
    <path
       d="m 626.75808,547.767 a 3.779528,3.779528 0 0 0 3.77952,-3.77953"
       style="fill:none;stroke:#000000;stroke-width:0.4;stroke-linecap:round;stroke-dasharray:none"
       id="path187" />
    <path
       d="m 630.5376,453.27881 a 3.779528,3.779528 0 0 0 -3.77952,-3.77953"
       style="fill:none;stroke:#000000;stroke-width:0.4;stroke-linecap:round;stroke-dasharray:none"
       id="path188" />
    <path
       d="m 340.45886,279.42054 a 14.173228,14.173228 0 0 0 -28.34645,0 14.173228,14.173228 0 0 0 28.34645,0 z"
       style="fill:none;stroke:#000000;stroke-width:0.4;stroke-linecap:round;stroke-dasharray:none"
       id="path189" />
    <path
       d="m 570.06516,449.49928 a 3.779528,3.779528 0 0 0 -3.77952,3.77953"
       style="fill:none;stroke:#000000;stroke-width:0.4;stroke-linecap:round;stroke-dasharray:none"
       id="path190" />
    <path
       style="fill:none;stroke:#000000;stroke-width:0.4;stroke-linecap:round;stroke-dasharray:none"
       d="m 630.53713,453.27669 v 90.71"
       id="path191" />
    <path
       d="m 494.47461,453.27881 a 3.779528,3.779528 0 0 0 -3.77952,-3.77953"
       style="fill:none;stroke:#000000;stroke-width:0.4;stroke-linecap:round;stroke-dasharray:none"
       id="path192" />
    <path
       style="fill:none;stroke:#000000;stroke-width:0.4;stroke-linecap:round;stroke-dasharray:none"
       d="m 566.28613,453.27669 v 90.71"
       id="path193" />
    <path
       d="m 204.39587,392.80637 a 14.173229,14.173229 0 0 0 -28.34645,0 14.173229,14.173229 0 0 0 28.34645,0 z"
       style="fill:none;stroke:#000000;stroke-width:0.4;stroke-linecap:round;stroke-dasharray:none"
       id="path194" />
    <path
       d="m 95.734456,553.43629 a 18.897638,18.897638 0 0 0 18.897634,18.89764"
       style="fill:none;stroke:#000000;stroke-width:0.4;stroke-linecap:round;stroke-dasharray:none"
       id="path195" />
    <path
       d="m 674.00217,572.33393 a 18.897638,18.897638 0 0 0 18.89764,-18.89764"
       style="fill:none;stroke:#000000;stroke-width:0.4;stroke-linecap:round;stroke-dasharray:none"
       id="path196" />
    <path
       d="m 639.04154,366.34968 a 6.614173,6.614173 0 0 0 -13.22834,0 6.614173,6.614173 0 0 0 13.22834,0 z"
       style="fill:none;stroke:#000000;stroke-width:0.4;stroke-linecap:round;stroke-dasharray:none"
       id="path197" />
    <path
       d="m 457.62422,366.34968 a 6.614175,6.614175 0 0 0 -13.22835,0 6.614175,6.614175 0 0 0 13.22835,0 z"
       style="fill:none;stroke:#000000;stroke-width:0.4;stroke-linecap:round;stroke-dasharray:none"
       id="path198" />
    <path
       style="fill:none;stroke:#000000;stroke-width:0.4;stroke-linecap:round;stroke-dasharray:none"
       d="m 158.09713,543.98669 v -90.71"
       id="path199" />
    <path
       d="M 114.63209,213.27881 A 18.897638,18.897638 0 0 0 95.734456,232.17645"
       style="fill:none;stroke:#000000;stroke-width:0.4;stroke-linecap:round;stroke-dasharray:none"
       id="path200" />
    <path
       style="fill:none;stroke:#000000;stroke-width:0.4;stroke-linecap:round;stroke-dasharray:none"
       d="m 222.34813,543.98669 v -90.71"
       id="path201" />
    <path
       style="fill:none;stroke:#000000;stroke-width:0.4;stroke-linecap:round;stroke-dasharray:none"
       d="m 692.90013,232.17669 v 321.26"
       id="path202" />
    <path
       style="fill:none;stroke:#000000;stroke-width:0.4;stroke-linecap:round;stroke-dasharray:none"
       d="m 218.56913,449.49669 h -56.693"
       id="path203" />
    <path
       d="m 442.50611,392.80637 a 14.17323,14.17323 0 0 0 -28.34646,0 14.17323,14.17323 0 0 0 28.34646,0 z"
       style="fill:none;stroke:#000000;stroke-width:0.4;stroke-linecap:round;stroke-dasharray:none"
       id="path204" />
    <path
       style="fill:none;stroke:#000000;stroke-width:0.4;stroke-linecap:round;stroke-dasharray:none"
       d="m 95.734133,232.17669 v 321.26"
       id="path205" />
    <path
       d="m 514.31713,366.34968 a 6.614173,6.614173 0 0 0 -13.22834,0 6.614173,6.614173 0 0 0 13.22834,0 z"
       style="fill:none;stroke:#000000;stroke-width:0.4;stroke-linecap:round;stroke-dasharray:none"
       id="path206" />
    <path
       d="M 692.89981,232.17645 A 18.897638,18.897638 0 0 0 674.00217,213.27881"
       style="fill:none;stroke:#000000;stroke-width:0.4;stroke-linecap:round;stroke-dasharray:none"
       id="path207" />
    <path
       d="m 434.00217,449.49928 a 3.779528,3.779528 0 0 0 -3.77953,3.77953"
       style="fill:none;stroke:#000000;stroke-width:0.4;stroke-linecap:round;stroke-dasharray:none"
       id="path208" />
    <path
       d="m 571.01005,366.34968 a 6.614175,6.614175 0 0 0 -13.22835,0 6.614175,6.614175 0 0 0 13.22835,0 z"
       style="fill:none;stroke:#000000;stroke-width:0.4;stroke-linecap:round;stroke-dasharray:none"
       id="path209" />
    <path
       d="m 578.5691,392.80637 a 14.17323,14.17323 0 0 0 -28.34646,0 14.17323,14.17323 0 0 0 28.34646,0 z"
       style="fill:none;stroke:#000000;stroke-width:0.4;stroke-linecap:round;stroke-dasharray:none"
       id="path210" />
    <path
       style="fill:none;stroke:#000000;stroke-width:0.4;stroke-linecap:round;stroke-dasharray:none"
       d="m 570.06513,547.76669 h 56.693"
       id="path211" />
    <path
       style="fill:none;stroke:#000000;stroke-width:0.4;stroke-linecap:round;stroke-dasharray:none"
       d="m 218.56913,547.76669 h -56.693"
       id="path212" />
    <path
       style="fill:none;stroke:#000000;stroke-width:0.4;stroke-linecap:round;stroke-dasharray:none"
       d="m 114.63213,572.33669 h 559.37"
       id="path213" />
    <path
       d="m 491.63997,366.34968 a 6.614175,6.614175 0 0 0 -13.22835,0 6.614175,6.614175 0 0 0 13.22835,0 z"
       style="fill:none;stroke:#000000;stroke-width:0.4;stroke-linecap:round;stroke-dasharray:none"
       id="path214" />
    <path
       d="m 358.41162,453.27881 a 3.779528,3.779528 0 0 0 -3.77953,-3.77953"
       style="fill:none;stroke:#000000;stroke-width:0.4;stroke-linecap:round;stroke-dasharray:none"
       id="path215" />
    <path
       style="fill:none;stroke:#000000;stroke-width:0.4;stroke-linecap:round;stroke-dasharray:none"
       d="m 114.63213,213.27869 h 559.37"
       id="path216" />
    <path
       style="fill:none;stroke:#000000;stroke-width:0.4;stroke-linecap:round;stroke-dasharray:none"
       d="m 297.93913,449.49669 h 56.693"
       id="path217" />
    <path
       d="m 161.87619,449.49928 a 3.779528,3.779528 0 0 0 -3.77953,3.77953"
       style="fill:none;stroke:#000000;stroke-width:0.4;stroke-linecap:round;stroke-dasharray:none"
       id="path218" />
    <path
       style="fill:none;stroke:#000000;stroke-width:0.4;stroke-linecap:round;stroke-dasharray:none"
       d="m 297.93913,547.76669 h 56.693"
       id="path219" />
    <path
       d="m 222.34863,453.27881 a 3.779528,3.779528 0 0 0 -3.77953,-3.77953"
       style="fill:none;stroke:#000000;stroke-width:0.4;stroke-linecap:round;stroke-dasharray:none"
       id="path220" />
    <path
       style="fill:none;stroke:#000000;stroke-width:0.4;stroke-linecap:round;stroke-dasharray:none"
       d="m 294.16013,453.27669 v 90.71"
       id="path221" />
    <path
       d="m 158.09666,543.98747 a 3.779528,3.779528 0 0 0 3.77953,3.77953"
       style="fill:none;stroke:#000000;stroke-width:0.4;stroke-linecap:round;stroke-dasharray:none"
       id="path222" />
    <path
       style="fill:none;stroke:#000000;stroke-width:0.4;stroke-linecap:round;stroke-dasharray:none"
       d="m 358.41163,453.27669 v 90.71"
       id="path223" />
    <path
       d="m 218.5691,547.767 a 3.779528,3.779528 0 0 0 3.77953,-3.77953"
       style="fill:none;stroke:#000000;stroke-width:0.4;stroke-linecap:round;stroke-dasharray:none"
       id="path224" />
    <path
       d="m 412.26989,366.34968 a 6.614175,6.614175 0 0 0 -13.22835,0 6.614175,6.614175 0 0 0 13.22835,0 z"
       style="fill:none;stroke:#000000;stroke-width:0.4;stroke-linecap:round;stroke-dasharray:none"
       id="path225" />
    <path
       style="fill:none;stroke:#000000;stroke-width:0.4;stroke-linecap:round;stroke-dasharray:none"
       d="m 434.00213,449.49669 h 56.693"
       id="path226" />
    <path
       d="m 476.52186,279.42054 a 14.17323,14.17323 0 0 0 -28.34646,0 14.17323,14.17323 0 0 0 28.34646,0 z"
       style="fill:none;stroke:#000000;stroke-width:0.4;stroke-linecap:round;stroke-dasharray:none"
       id="path227" />
    <path
       d="m 297.93918,449.49928 a 3.779528,3.779528 0 0 0 -3.77953,3.77953"
       style="fill:none;stroke:#000000;stroke-width:0.4;stroke-linecap:round;stroke-dasharray:none"
       id="path228" />
    <path
       style="fill:none;stroke:#000000;stroke-width:0.4;stroke-linecap:round;stroke-dasharray:none"
       d="m 434.00213,547.76669 h 56.693"
       id="path229" />
    <path
       style="fill:none;stroke:#000000;stroke-width:0.4;stroke-linecap:round;stroke-dasharray:none"
       d="m 430.22263,453.27669 v 90.71"
       id="path230" />
    <path
       d="m 294.15965,543.98747 a 3.779528,3.779528 0 0 0 3.77953,3.77953"
       style="fill:none;stroke:#000000;stroke-width:0.4;stroke-linecap:round;stroke-dasharray:none"
       id="path231" />
    <path
       style="fill:none;stroke:#000000;stroke-width:0.4;stroke-linecap:round;stroke-dasharray:none"
       d="m 494.47413,453.27669 v 90.71"
       id="path232" />
    <path
       d="m 354.63209,547.767 a 3.779528,3.779528 0 0 0 3.77953,-3.77953"
       style="fill:none;stroke:#000000;stroke-width:0.4;stroke-linecap:round;stroke-dasharray:none"
       id="path233" />
    <path
       style="fill:none;stroke:#000000;stroke-width:0.4;stroke-linecap:round;stroke-dasharray:none"
       d="m 570.06513,449.49669 h 56.693"
       id="path234" />
    <path
       d="m 430.22264,543.98747 a 3.779528,3.779528 0 0 0 3.77953,3.77953"
       style="fill:none;stroke:#000000;stroke-width:0.4;stroke-linecap:round;stroke-dasharray:none"
       id="path235" />
    <path
       d="m 204.39587,279.42054 a 14.173229,14.173229 0 0 0 -28.34645,0 14.173229,14.173229 0 0 0 28.34645,0 z"
       style="fill:none;stroke:#000000;stroke-width:0.4;stroke-linecap:round;stroke-dasharray:none"
       id="path236" />
    <path
       d="m 490.69509,547.767 a 3.779528,3.779528 0 0 0 3.77952,-3.77953"
       style="fill:none;stroke:#000000;stroke-width:0.4;stroke-linecap:round;stroke-dasharray:none"
       id="path237" />
  </g>
  <g
     inkscape:groupmode="layer"
     inkscape:label="CENTERMARKS"
     id="g171"
     style="display:inline"
     transform="translate(-85.433681,-202.97803)">
    <path
       style="display:inline;fill:none;stroke:#000000;stroke-width:0.901491;stroke-opacity:1"
       d="m 86.264612,572.53393 h 9.269844 v 9.65003"
       id="marker_ul" />
    <path
       style="display:inline;fill:none;stroke:#000000;stroke-width:0.901491;stroke-opacity:1"
       d="m 95.083711,203.35822 v 9.26984 h -9.65003"
       id="marker_ol" />
    <path
       style="display:inline;fill:none;stroke:#000000;stroke-width:0.901491;stroke-opacity:1"
       d="m 702.8204,212.62806 h -9.26984 v -9.65003"
       id="marker_or" />
    <path
       style="display:inline;fill:none;stroke:#000000;stroke-width:0.901491;stroke-opacity:1"
       d="m 693.55056,582.25452 v -9.26984 h 9.65003"
       id="marker_ur" />
  </g>
  <metadata
     id="metadata1">
    <rdf:RDF>
      <cc:Work
         rdf:about="">
        <dc:title>DUB-IY Fromtplatte</dc:title>
        <dc:date>14.12.2024</dc:date>
        <dc:creator>
          <cc:Agent>
            <dc:title>Dirk Hanisch</dc:title>
          </cc:Agent>
        </dc:creator>
      </cc:Work>
    </rdf:RDF>
  </metadata>
</svg>
