  0
SECTION
  2
HEADER
  9
$ACADVER
  1
AC1014
  9
$HANDSEED
  5
FFFF
  9
$INSUNITS
 70
     4
  9
$MEASUREMENT
 70
     1
  0
ENDSEC
  0
SECTION
  2
TABLES
  0
TABLE
  2
VPORT
  5
8
330
0
100
AcDbSymbolTable
 70
     4
  0
VPORT
  5
2E
330
8
100
AcDbSymbolTableRecord
100
AcDbViewportTableRecord
  2
*ACTIVE
 70
     0
 10
0.0
 20
0.0
 11
1.0
 21
1.0
 12
210.0
 22
148.5
 13
0.0
 23
0.0
 14
10.0
 24
10.0
 15
10.0
 25
10.0
 16
0.0
 26
0.0
 36
1.0
 17
0.0
 27
0.0
 37
0.0
 40
341.0
 41
1.24
 42
50.0
 43
0.0
 44
0.0
 50
0.0
 51
0.0
 71
     0
 72
   100
 73
     1
 74
     3
 75
     0
 76
     0
 77
     0
 78
     0
  0
ENDTAB
  0
TABLE
  2
LTYPE
  5
5
330
0
100
AcDbSymbolTable
 70
     1
  0
LTYPE
  5
14
330
5
100
AcDbSymbolTableRecord
100
AcDbLinetypeTableRecord
  2
BYBLOCK
 70
     0
  3

 72
    65
 73
     0
 40
0.0
  0
LTYPE
  5
15
330
5
100
AcDbSymbolTableRecord
100
AcDbLinetypeTableRecord
  2
BYLAYER
 70
     0
  3

 72
    65
 73
     0
 40
0.0
  0
LTYPE
  5
16
330
5
100
AcDbSymbolTableRecord
100
AcDbLinetypeTableRecord
  2
CONTINUOUS
 70
     0
  3
Solid line
 72
    65
 73
     0
 40
0.0
  0
ENDTAB
  0
TABLE
  2
LAYER
  5
2
100
AcDbSymbolTable
 70
40
  0
LAYER
  5
50
100
AcDbSymbolTableRecord
100
AcDbLayerTableRecord
  2
0
 70
0
  6
CONTINUOUS
  0
LAYER
  5
51
100
AcDbSymbolTableRecord
100
AcDbLayerTableRecord
  2
ANNOTATION_LINES
 70
0
  6
CONTINUOUS
  0
LAYER
  5
52
100
AcDbSymbolTableRecord
100
AcDbLayerTableRecord
  2
ANNOTATION_TEXT
 70
0
  6
CONTINUOUS
  0
LAYER
  5
53
100
AcDbSymbolTableRecord
100
AcDbLayerTableRecord
  2
BLIND_THREAD_SYMBOLS
 70
0
  6
CONTINUOUS
  0
LAYER
  5
54
100
AcDbSymbolTableRecord
100
AcDbLayerTableRecord
  2
BLIND_THREAD_SYMBOLS_HIDDE
 70
0
  6
CONTINUOUS
  0
LAYER
  5
55
100
AcDbSymbolTableRecord
100
AcDbLayerTableRecord
  2
BREAK_LINES
 70
0
  6
CONTINUOUS
  0
LAYER
  5
56
100
AcDbSymbolTableRecord
100
AcDbLayerTableRecord
  2
CENTERLINES
 70
0
  6
CONTINUOUS
  0
LAYER
  5
57
100
AcDbSymbolTableRecord
100
AcDbLayerTableRecord
  2
CENTERMARKS
 70
0
  6
CONTINUOUS
  0
LAYER
  5
58
100
AcDbSymbolTableRecord
100
AcDbLayerTableRecord
  2
DETAIL_VIEW_BORDER
 70
0
  6
CONTINUOUS
  0
LAYER
  5
59
100
AcDbSymbolTableRecord
100
AcDbLayerTableRecord
  2
DETAIL_VIEW_PARENT_BORDER
 70
0
  6
CONTINUOUS
  0
LAYER
  5
5a
100
AcDbSymbolTableRecord
100
AcDbLayerTableRecord
  2
EXPLODE_LINES
 70
0
  6
CONTINUOUS
  0
LAYER
  5
5b
100
AcDbSymbolTableRecord
100
AcDbLayerTableRecord
  2
HIDDEN
 70
0
  6
CONTINUOUS
  0
LAYER
  5
5c
100
AcDbSymbolTableRecord
100
AcDbLayerTableRecord
  2
HIDDEN_BASE_VIEW
 70
0
  6
CONTINUOUS
  0
LAYER
  5
5d
100
AcDbSymbolTableRecord
100
AcDbLayerTableRecord
  2
HIDDEN_EXPLODE_LINES
 70
0
  6
CONTINUOUS
  0
LAYER
  5
5e
100
AcDbSymbolTableRecord
100
AcDbLayerTableRecord
  2
IMAGES
 70
0
  6
CONTINUOUS
  0
LAYER
  5
5f
100
AcDbSymbolTableRecord
100
AcDbLayerTableRecord
  2
INVISIBLE_LINES
 70
0
  6
CONTINUOUS
  0
LAYER
  5
60
100
AcDbSymbolTableRecord
100
AcDbLayerTableRecord
  2
MODELSKETCH_CONSTRUCTION
 70
0
  6
CONTINUOUS
  0
LAYER
  5
61
100
AcDbSymbolTableRecord
100
AcDbLayerTableRecord
  2
MODELSKETCH_POINT
 70
0
  6
CONTINUOUS
  0
LAYER
  5
62
100
AcDbSymbolTableRecord
100
AcDbLayerTableRecord
  2
MODELSKETCH_VISIBLE
 70
0
  6
CONTINUOUS
  0
LAYER
  5
63
100
AcDbSymbolTableRecord
100
AcDbLayerTableRecord
  2
PATTERN_CENTERLINES
 70
0
  6
CONTINUOUS
  0
LAYER
  5
64
100
AcDbSymbolTableRecord
100
AcDbLayerTableRecord
  2
REGION_ASSOC_POINTS
 70
0
  6
CONTINUOUS
  0
LAYER
  5
65
100
AcDbSymbolTableRecord
100
AcDbLayerTableRecord
  2
SECTION_CUTTING_LINE
 70
0
  6
CONTINUOUS
  0
LAYER
  5
66
100
AcDbSymbolTableRecord
100
AcDbLayerTableRecord
  2
SECTION_JOG_LINES
 70
0
  6
CONTINUOUS
  0
LAYER
  5
67
100
AcDbSymbolTableRecord
100
AcDbLayerTableRecord
  2
SHEETMETAL_BEND_LINES_DOWN
 70
0
  6
CONTINUOUS
  0
LAYER
  5
68
100
AcDbSymbolTableRecord
100
AcDbLayerTableRecord
  2
SHEETMETAL_BEND_LINES_UP
 70
0
  6
CONTINUOUS
  0
LAYER
  5
69
100
AcDbSymbolTableRecord
100
AcDbLayerTableRecord
  2
SHEETMETAL_BEND_TANGENT_LI
 70
0
  6
CONTINUOUS
  0
LAYER
  5
6a
100
AcDbSymbolTableRecord
100
AcDbLayerTableRecord
  2
SHEETMETAL_CUT_LINES
 70
0
  6
CONTINUOUS
  0
LAYER
  5
6b
100
AcDbSymbolTableRecord
100
AcDbLayerTableRecord
  2
SIDE_THREAD_SYMBOLS
 70
0
  6
CONTINUOUS
  0
LAYER
  5
6c
100
AcDbSymbolTableRecord
100
AcDbLayerTableRecord
  2
SIDE_THREAD_SYMBOLS_HIDDEN
 70
0
  6
CONTINUOUS
  0
LAYER
  5
6d
100
AcDbSymbolTableRecord
100
AcDbLayerTableRecord
  2
SKETCHED_GEOMETRY
 70
0
  6
CONTINUOUS
  0
LAYER
  5
6e
100
AcDbSymbolTableRecord
100
AcDbLayerTableRecord
  2
SURFACE_THREAD_SYMBOLS
 70
0
  6
CONTINUOUS
  0
LAYER
  5
6f
100
AcDbSymbolTableRecord
100
AcDbLayerTableRecord
  2
SURFACE_THREAD_SYMBOLS_HID
 70
0
  6
CONTINUOUS
  0
LAYER
  5
70
100
AcDbSymbolTableRecord
100
AcDbLayerTableRecord
  2
SURFACE_THREAD_SYMBOLS_ON_
 70
0
  6
CONTINUOUS
  0
LAYER
  5
71
100
AcDbSymbolTableRecord
100
AcDbLayerTableRecord
  2
TABLES
 70
0
  6
CONTINUOUS
  0
LAYER
  5
72
100
AcDbSymbolTableRecord
100
AcDbLayerTableRecord
  2
TANGENT_HIDDEN
 70
0
  6
CONTINUOUS
  0
LAYER
  5
73
100
AcDbSymbolTableRecord
100
AcDbLayerTableRecord
  2
TANGENT_LINES
 70
0
  6
CONTINUOUS
  0
LAYER
  5
74
100
AcDbSymbolTableRecord
100
AcDbLayerTableRecord
  2
TEXT
 70
0
  6
CONTINUOUS
  0
LAYER
  5
75
100
AcDbSymbolTableRecord
100
AcDbLayerTableRecord
  2
VIEW_HATCHES
 70
0
  6
CONTINUOUS
  0
LAYER
  5
76
100
AcDbSymbolTableRecord
100
AcDbLayerTableRecord
  2
VIRTUAL_SHARPS
 70
0
  6
CONTINUOUS
  0
LAYER
  5
77
100
AcDbSymbolTableRecord
100
AcDbLayerTableRecord
  2
VISIBLE
 70
0
  6
CONTINUOUS
  0
ENDTAB
  0
TABLE
  2
STYLE
  5
3
330
0
100
AcDbSymbolTable
 70
     1
  0
STYLE
  5
11
330
3
100
AcDbSymbolTableRecord
100
AcDbTextStyleTableRecord
  2
STANDARD
 70
     0
 40
0.0
 41
1.0
 50
0.0
 71
     0
 42
2.5
  3
txt
  4

  0
ENDTAB
  0
TABLE
  2
VIEW
  5
6
330
0
100
AcDbSymbolTable
 70
     0
  0
ENDTAB
  0
TABLE
  2
UCS
  5
7
330
0
100
AcDbSymbolTable
 70
     0
  0
ENDTAB
  0
TABLE
  2
APPID
  5
9
330
0
100
AcDbSymbolTable
 70
     2
  0
APPID
  5
12
330
9
100
AcDbSymbolTableRecord
100
AcDbRegAppTableRecord
  2
ACAD
 70
     0
  0
ENDTAB
  0
TABLE
  2
DIMSTYLE
  5
A
330
0
100
AcDbSymbolTable
 70
     1
  0
DIMSTYLE
105
27
330
A
100
AcDbSymbolTableRecord
100
AcDbDimStyleTableRecord
  2
ISO-25
 70
     0
  3

  4

  5

  6

  7

 40
1.0
 41
2.5
 42
0.625
 43
3.75
 44
1.25
 45
0.0
 46
0.0
 47
0.0
 48
0.0
140
2.5
141
2.5
142
0.0
143
0.03937007874016
144
1.0
145
0.0
146
1.0
147
0.625
 71
     0
 72
     0
 73
     0
 74
     0
 75
     0
 76
     0
 77
     1
 78
     8
170
     0
171
     3
172
     1
173
     0
174
     0
175
     0
176
     0
177
     0
178
     0
270
     2
271
     2
272
     2
273
     2
274
     3
340
11
275
     0
280
     0
281
     0
282
     0
283
     0
284
     8
285
     0
286
     0
287
     3
288
     0
  0
ENDTAB
  0
TABLE
  2
BLOCK_RECORD
  5
1
330
0
100
AcDbSymbolTable
 70
     1
  0
BLOCK_RECORD
  5
1F
330
1
100
AcDbSymbolTableRecord
100
AcDbBlockTableRecord
  2
*MODEL_SPACE
  0
BLOCK_RECORD
  5
1B
330
1
100
AcDbSymbolTableRecord
100
AcDbBlockTableRecord
  2
*PAPER_SPACE
  0
ENDTAB
  0
ENDSEC
  0
SECTION
  2
BLOCKS
  0
BLOCK
  5
20
330
1F
100
AcDbEntity
  8
0
100
AcDbBlockBegin
  2
*MODEL_SPACE
 70
     0
 10
0.0
 20
0.0
 30
0.0
  3
*MODEL_SPACE
  1

  0
ENDBLK
  5
21
330
1F
100
AcDbEntity
  8
0
100
AcDbBlockEnd
  0
BLOCK
  5
1C
330
1B
100
AcDbEntity
 67
     1
  8
0
100
AcDbBlockBegin
  2
*PAPER_SPACE
  1

  0
ENDBLK
  5
1D
330
1B
100
AcDbEntity
 67
     1
  8
0
100
AcDbBlockEnd
  0
ENDSEC
  0
SECTION
  2
ENTITIES
  0
LWPOLYLINE
  5
100
100
AcDbEntity
  8
0
 62
7
100
AcDbPolyline
 90
2
 70
0
 10
50.329806
 20
229.069984
 30
0.0
 10
50.329806
 20
233.069950
 30
0.0
  0
LWPOLYLINE
  5
101
100
AcDbEntity
  8
0
 62
7
100
AcDbPolyline
 90
2
 70
0
 10
48.475609
 20
228.776297
 30
0.0
 10
47.239477
 20
232.580736
 30
0.0
  0
LWPOLYLINE
  5
102
100
AcDbEntity
  8
0
 62
7
100
AcDbPolyline
 90
2
 70
0
 10
46.802915
 20
227.924075
 30
0.0
 10
44.451830
 20
231.160190
 30
0.0
  0
LWPOLYLINE
  5
103
100
AcDbEntity
  8
0
 62
7
100
AcDbPolyline
 90
2
 70
0
 10
45.475502
 20
226.596662
 30
0.0
 10
42.239387
 20
228.948012
 30
0.0
  0
LWPOLYLINE
  5
104
100
AcDbEntity
  8
0
 62
7
100
AcDbPolyline
 90
2
 70
0
 10
44.623280
 20
224.923175
 30
0.0
 10
40.819106
 20
226.160365
 30
0.0
  0
LWPOLYLINE
  5
105
100
AcDbEntity
  8
0
 62
7
100
AcDbPolyline
 90
2
 70
0
 10
44.329593
 20
223.071094
 30
0.0
 10
40.329627
 20
223.071094
 30
0.0
  0
LWPOLYLINE
  5
106
100
AcDbEntity
  8
0
 62
7
100
AcDbPolyline
 90
2
 70
0
 10
44.623280
 20
221.216367
 30
0.0
 10
40.819106
 20
219.980765
 30
0.0
  0
LWPOLYLINE
  5
107
100
AcDbEntity
  8
0
 62
7
100
AcDbPolyline
 90
2
 70
0
 10
45.475502
 20
219.544203
 30
0.0
 10
42.239387
 20
217.192060
 30
0.0
  0
LWPOLYLINE
  5
108
100
AcDbEntity
  8
0
 62
7
100
AcDbPolyline
 90
2
 70
0
 10
46.802915
 20
218.215996
 30
0.0
 10
44.451830
 20
214.980146
 30
0.0
  0
LWPOLYLINE
  5
109
100
AcDbEntity
  8
0
 62
7
100
AcDbPolyline
 90
2
 70
0
 10
53.856433
 20
218.215996
 30
0.0
 10
56.207518
 20
214.980146
 30
0.0
  0
LWPOLYLINE
  5
10a
100
AcDbEntity
  8
0
 62
7
100
AcDbPolyline
 90
2
 70
0
 10
55.183846
 20
219.544203
 30
0.0
 10
58.419961
 20
217.192060
 30
0.0
  0
LWPOLYLINE
  5
10b
100
AcDbEntity
  8
0
 62
7
100
AcDbPolyline
 90
2
 70
0
 10
56.036068
 20
221.216367
 30
0.0
 10
59.840242
 20
219.980765
 30
0.0
  0
LWPOLYLINE
  5
10c
100
AcDbEntity
  8
0
 62
7
100
AcDbPolyline
 90
2
 70
0
 10
56.329755
 20
223.071094
 30
0.0
 10
60.329721
 20
223.071094
 30
0.0
  0
LWPOLYLINE
  5
10d
100
AcDbEntity
  8
0
 62
7
100
AcDbPolyline
 90
2
 70
0
 10
56.036068
 20
224.923175
 30
0.0
 10
59.840242
 20
226.160365
 30
0.0
  0
LWPOLYLINE
  5
10e
100
AcDbEntity
  8
0
 62
7
100
AcDbPolyline
 90
2
 70
0
 10
55.183846
 20
226.596662
 30
0.0
 10
58.419961
 20
228.948012
 30
0.0
  0
LWPOLYLINE
  5
10f
100
AcDbEntity
  8
0
 62
7
100
AcDbPolyline
 90
2
 70
0
 10
53.856433
 20
227.924075
 30
0.0
 10
56.207518
 20
231.160190
 30
0.0
  0
LWPOLYLINE
  5
110
100
AcDbEntity
  8
0
 62
7
100
AcDbPolyline
 90
2
 70
0
 10
52.183739
 20
228.776297
 30
0.0
 10
53.419871
 20
232.580736
 30
0.0
  0
LWPOLYLINE
  5
111
100
AcDbEntity
  8
0
 62
7
100
AcDbPolyline
 90
2
 70
0
 10
50.329806
 20
229.069984
 30
0.0
 10
50.329806
 20
233.069950
 30
0.0
  0
LWPOLYLINE
  5
112
100
AcDbEntity
  8
0
 62
7
100
AcDbPolyline
 90
2
 70
0
 10
84.475539
 20
228.776297
 30
0.0
 10
83.239460
 20
232.580736
 30
0.0
  0
LWPOLYLINE
  5
113
100
AcDbEntity
  8
0
 62
7
100
AcDbPolyline
 90
2
 70
0
 10
82.802925
 20
227.924075
 30
0.0
 10
80.451787
 20
231.160190
 30
0.0
  0
LWPOLYLINE
  5
114
100
AcDbEntity
  8
0
 62
7
100
AcDbPolyline
 90
2
 70
0
 10
81.475538
 20
226.596662
 30
0.0
 10
78.239476
 20
228.948012
 30
0.0
  0
LWPOLYLINE
  5
115
100
AcDbEntity
  8
0
 62
7
100
AcDbPolyline
 90
2
 70
0
 10
80.623290
 20
224.923175
 30
0.0
 10
76.819063
 20
226.160365
 30
0.0
  0
LWPOLYLINE
  5
116
100
AcDbEntity
  8
0
 62
7
100
AcDbPolyline
 90
2
 70
0
 10
80.329629
 20
223.071094
 30
0.0
 10
76.329584
 20
223.071094
 30
0.0
  0
LWPOLYLINE
  5
117
100
AcDbEntity
  8
0
 62
7
100
AcDbPolyline
 90
2
 70
0
 10
80.623290
 20
221.216367
 30
0.0
 10
76.819063
 20
219.980765
 30
0.0
  0
LWPOLYLINE
  5
118
100
AcDbEntity
  8
0
 62
7
100
AcDbPolyline
 90
2
 70
0
 10
81.475538
 20
219.544203
 30
0.0
 10
78.239476
 20
217.192060
 30
0.0
  0
LWPOLYLINE
  5
119
100
AcDbEntity
  8
0
 62
7
100
AcDbPolyline
 90
2
 70
0
 10
82.802925
 20
218.215996
 30
0.0
 10
80.451787
 20
214.980146
 30
0.0
  0
LWPOLYLINE
  5
11a
100
AcDbEntity
  8
0
 62
7
100
AcDbPolyline
 90
2
 70
0
 10
89.856337
 20
218.215996
 30
0.0
 10
92.207474
 20
214.980146
 30
0.0
  0
LWPOLYLINE
  5
11b
100
AcDbEntity
  8
0
 62
7
100
AcDbPolyline
 90
2
 70
0
 10
91.183723
 20
219.544203
 30
0.0
 10
94.419785
 20
217.192060
 30
0.0
  0
LWPOLYLINE
  5
11c
100
AcDbEntity
  8
0
 62
7
100
AcDbPolyline
 90
2
 70
0
 10
92.035972
 20
221.216367
 30
0.0
 10
95.840173
 20
219.980765
 30
0.0
  0
LWPOLYLINE
  5
11d
100
AcDbEntity
  8
0
 62
7
100
AcDbPolyline
 90
2
 70
0
 10
92.329632
 20
223.071094
 30
0.0
 10
96.329625
 20
223.071094
 30
0.0
  0
LWPOLYLINE
  5
11e
100
AcDbEntity
  8
0
 62
7
100
AcDbPolyline
 90
2
 70
0
 10
92.035972
 20
224.923175
 30
0.0
 10
95.840173
 20
226.160365
 30
0.0
  0
LWPOLYLINE
  5
11f
100
AcDbEntity
  8
0
 62
7
100
AcDbPolyline
 90
2
 70
0
 10
91.183723
 20
226.596662
 30
0.0
 10
94.419785
 20
228.948012
 30
0.0
  0
LWPOLYLINE
  5
120
100
AcDbEntity
  8
0
 62
7
100
AcDbPolyline
 90
2
 70
0
 10
89.856337
 20
227.924075
 30
0.0
 10
92.207474
 20
231.160190
 30
0.0
  0
LWPOLYLINE
  5
121
100
AcDbEntity
  8
0
 62
7
100
AcDbPolyline
 90
2
 70
0
 10
88.183723
 20
228.776297
 30
0.0
 10
89.419801
 20
232.580736
 30
0.0
  0
LWPOLYLINE
  5
122
100
AcDbEntity
  8
0
 62
7
100
AcDbPolyline
 90
2
 70
0
 10
86.329631
 20
229.069984
 30
0.0
 10
86.329631
 20
233.069950
 30
0.0
  0
LWPOLYLINE
  5
123
100
AcDbEntity
  8
0
 62
7
100
AcDbPolyline
 90
2
 70
0
 10
120.475496
 20
228.776297
 30
0.0
 10
119.239417
 20
232.580736
 30
0.0
  0
LWPOLYLINE
  5
124
100
AcDbEntity
  8
0
 62
7
100
AcDbPolyline
 90
2
 70
0
 10
118.802881
 20
227.924075
 30
0.0
 10
116.451744
 20
231.160190
 30
0.0
  0
LWPOLYLINE
  5
125
100
AcDbEntity
  8
0
 62
7
100
AcDbPolyline
 90
2
 70
0
 10
117.475495
 20
226.596662
 30
0.0
 10
114.239433
 20
228.948012
 30
0.0
  0
LWPOLYLINE
  5
126
100
AcDbEntity
  8
0
 62
7
100
AcDbPolyline
 90
2
 70
0
 10
116.623247
 20
224.923175
 30
0.0
 10
112.819046
 20
226.160365
 30
0.0
  0
LWPOLYLINE
  5
127
100
AcDbEntity
  8
0
 62
7
100
AcDbPolyline
 90
2
 70
0
 10
116.329586
 20
223.071094
 30
0.0
 10
112.329594
 20
223.071094
 30
0.0
  0
LWPOLYLINE
  5
128
100
AcDbEntity
  8
0
 62
7
100
AcDbPolyline
 90
2
 70
0
 10
116.623247
 20
221.216367
 30
0.0
 10
112.819046
 20
219.980765
 30
0.0
  0
LWPOLYLINE
  5
129
100
AcDbEntity
  8
0
 62
7
100
AcDbPolyline
 90
2
 70
0
 10
117.475495
 20
219.544203
 30
0.0
 10
114.239433
 20
217.192060
 30
0.0
  0
LWPOLYLINE
  5
12a
100
AcDbEntity
  8
0
 62
7
100
AcDbPolyline
 90
2
 70
0
 10
118.802881
 20
218.215996
 30
0.0
 10
116.451744
 20
214.980146
 30
0.0
  0
LWPOLYLINE
  5
12b
100
AcDbEntity
  8
0
 62
7
100
AcDbPolyline
 90
2
 70
0
 10
125.856294
 20
218.215996
 30
0.0
 10
128.207431
 20
214.980146
 30
0.0
  0
LWPOLYLINE
  5
12c
100
AcDbEntity
  8
0
 62
7
100
AcDbPolyline
 90
2
 70
0
 10
127.183680
 20
219.544203
 30
0.0
 10
130.419742
 20
217.192060
 30
0.0
  0
LWPOLYLINE
  5
12d
100
AcDbEntity
  8
0
 62
7
100
AcDbPolyline
 90
2
 70
0
 10
128.035928
 20
221.216367
 30
0.0
 10
131.840156
 20
219.980765
 30
0.0
  0
LWPOLYLINE
  5
12e
100
AcDbEntity
  8
0
 62
7
100
AcDbPolyline
 90
2
 70
0
 10
128.329589
 20
223.071094
 30
0.0
 10
132.329634
 20
223.071094
 30
0.0
  0
LWPOLYLINE
  5
12f
100
AcDbEntity
  8
0
 62
7
100
AcDbPolyline
 90
2
 70
0
 10
128.035928
 20
224.923175
 30
0.0
 10
131.840156
 20
226.160365
 30
0.0
  0
LWPOLYLINE
  5
130
100
AcDbEntity
  8
0
 62
7
100
AcDbPolyline
 90
2
 70
0
 10
127.183680
 20
226.596662
 30
0.0
 10
130.419742
 20
228.948012
 30
0.0
  0
LWPOLYLINE
  5
131
100
AcDbEntity
  8
0
 62
7
100
AcDbPolyline
 90
2
 70
0
 10
125.856294
 20
227.924075
 30
0.0
 10
128.207431
 20
231.160190
 30
0.0
  0
LWPOLYLINE
  5
132
100
AcDbEntity
  8
0
 62
7
100
AcDbPolyline
 90
2
 70
0
 10
124.183679
 20
228.776297
 30
0.0
 10
125.419758
 20
232.580736
 30
0.0
  0
LWPOLYLINE
  5
133
100
AcDbEntity
  8
0
 62
7
100
AcDbPolyline
 90
2
 70
0
 10
122.329587
 20
229.069984
 30
0.0
 10
122.329587
 20
233.069950
 30
0.0
  0
LWPOLYLINE
  5
134
100
AcDbEntity
  8
0
 62
7
100
AcDbPolyline
 90
2
 70
0
 10
156.475479
 20
228.776297
 30
0.0
 10
155.239347
 20
232.580736
 30
0.0
  0
LWPOLYLINE
  5
135
100
AcDbEntity
  8
0
 62
7
100
AcDbPolyline
 90
2
 70
0
 10
154.802785
 20
227.924075
 30
0.0
 10
152.451701
 20
231.160190
 30
0.0
  0
LWPOLYLINE
  5
136
100
AcDbEntity
  8
0
 62
7
100
AcDbPolyline
 90
2
 70
0
 10
153.475372
 20
226.596662
 30
0.0
 10
150.239258
 20
228.948012
 30
0.0
  0
LWPOLYLINE
  5
137
100
AcDbEntity
  8
0
 62
7
100
AcDbPolyline
 90
2
 70
0
 10
152.623150
 20
224.923175
 30
0.0
 10
148.818976
 20
226.160365
 30
0.0
  0
LWPOLYLINE
  5
138
100
AcDbEntity
  8
0
 62
7
100
AcDbPolyline
 90
2
 70
0
 10
152.329463
 20
223.071094
 30
0.0
 10
148.329497
 20
223.071094
 30
0.0
  0
LWPOLYLINE
  5
139
100
AcDbEntity
  8
0
 62
7
100
AcDbPolyline
 90
2
 70
0
 10
152.623150
 20
221.216367
 30
0.0
 10
148.818976
 20
219.980765
 30
0.0
  0
LWPOLYLINE
  5
13a
100
AcDbEntity
  8
0
 62
7
100
AcDbPolyline
 90
2
 70
0
 10
153.475372
 20
219.544203
 30
0.0
 10
150.239258
 20
217.192060
 30
0.0
  0
LWPOLYLINE
  5
13b
100
AcDbEntity
  8
0
 62
7
100
AcDbPolyline
 90
2
 70
0
 10
154.802785
 20
218.215996
 30
0.0
 10
152.451701
 20
214.980146
 30
0.0
  0
LWPOLYLINE
  5
13c
100
AcDbEntity
  8
0
 62
7
100
AcDbPolyline
 90
2
 70
0
 10
161.856303
 20
218.215996
 30
0.0
 10
164.207388
 20
214.980146
 30
0.0
  0
LWPOLYLINE
  5
13d
100
AcDbEntity
  8
0
 62
7
100
AcDbPolyline
 90
2
 70
0
 10
163.183716
 20
219.544203
 30
0.0
 10
166.419831
 20
217.192060
 30
0.0
  0
LWPOLYLINE
  5
13e
100
AcDbEntity
  8
0
 62
7
100
AcDbPolyline
 90
2
 70
0
 10
164.035938
 20
221.216367
 30
0.0
 10
167.840112
 20
219.980765
 30
0.0
  0
LWPOLYLINE
  5
13f
100
AcDbEntity
  8
0
 62
7
100
AcDbPolyline
 90
2
 70
0
 10
164.329625
 20
223.071094
 30
0.0
 10
168.329591
 20
223.071094
 30
0.0
  0
LWPOLYLINE
  5
140
100
AcDbEntity
  8
0
 62
7
100
AcDbPolyline
 90
2
 70
0
 10
164.035938
 20
224.923175
 30
0.0
 10
167.840112
 20
226.160365
 30
0.0
  0
LWPOLYLINE
  5
141
100
AcDbEntity
  8
0
 62
7
100
AcDbPolyline
 90
2
 70
0
 10
163.183716
 20
226.596662
 30
0.0
 10
166.419831
 20
228.948012
 30
0.0
  0
LWPOLYLINE
  5
142
100
AcDbEntity
  8
0
 62
7
100
AcDbPolyline
 90
2
 70
0
 10
161.856303
 20
227.924075
 30
0.0
 10
164.207388
 20
231.160190
 30
0.0
  0
LWPOLYLINE
  5
143
100
AcDbEntity
  8
0
 62
7
100
AcDbPolyline
 90
2
 70
0
 10
160.183610
 20
228.776297
 30
0.0
 10
161.419741
 20
232.580736
 30
0.0
  0
LWPOLYLINE
  5
144
100
AcDbEntity
  8
0
 62
7
100
AcDbPolyline
 90
2
 70
0
 10
158.329412
 20
229.069984
 30
0.0
 10
158.329412
 20
233.069950
 30
0.0
  0
LWPOLYLINE
  5
145
100
AcDbEntity
  8
0
 62
7
100
AcDbPolyline
 90
2
 70
0
 10
48.475609
 20
198.777083
 30
0.0
 10
47.239477
 20
202.581786
 30
0.0
  0
LWPOLYLINE
  5
146
100
AcDbEntity
  8
0
 62
7
100
AcDbPolyline
 90
2
 70
0
 10
46.802915
 20
197.925126
 30
0.0
 10
44.451830
 20
201.160976
 30
0.0
  0
LWPOLYLINE
  5
147
100
AcDbEntity
  8
0
 62
7
100
AcDbPolyline
 90
2
 70
0
 10
45.475502
 20
196.596919
 30
0.0
 10
42.239387
 20
198.949062
 30
0.0
  0
LWPOLYLINE
  5
148
100
AcDbEntity
  8
0
 62
7
100
AcDbPolyline
 90
2
 70
0
 10
44.623280
 20
194.924754
 30
0.0
 10
40.819106
 20
196.160357
 30
0.0
  0
LWPOLYLINE
  5
149
100
AcDbEntity
  8
0
 62
7
100
AcDbPolyline
 90
2
 70
0
 10
44.329593
 20
193.070028
 30
0.0
 10
40.329627
 20
193.070028
 30
0.0
  0
LWPOLYLINE
  5
14a
100
AcDbEntity
  8
0
 62
7
100
AcDbPolyline
 90
2
 70
0
 10
44.623280
 20
191.215301
 30
0.0
 10
40.819106
 20
189.979698
 30
0.0
  0
LWPOLYLINE
  5
14b
100
AcDbEntity
  8
0
 62
7
100
AcDbPolyline
 90
2
 70
0
 10
45.475502
 20
189.543136
 30
0.0
 10
42.239387
 20
187.190993
 30
0.0
  0
LWPOLYLINE
  5
14c
100
AcDbEntity
  8
0
 62
7
100
AcDbPolyline
 90
2
 70
0
 10
46.802915
 20
188.214930
 30
0.0
 10
44.451830
 20
184.979079
 30
0.0
  0
LWPOLYLINE
  5
14d
100
AcDbEntity
  8
0
 62
7
100
AcDbPolyline
 90
2
 70
0
 10
53.856433
 20
188.214930
 30
0.0
 10
56.207518
 20
184.979079
 30
0.0
  0
LWPOLYLINE
  5
14e
100
AcDbEntity
  8
0
 62
7
100
AcDbPolyline
 90
2
 70
0
 10
55.183846
 20
189.543136
 30
0.0
 10
58.419961
 20
187.190993
 30
0.0
  0
LWPOLYLINE
  5
14f
100
AcDbEntity
  8
0
 62
7
100
AcDbPolyline
 90
2
 70
0
 10
56.036068
 20
191.215301
 30
0.0
 10
59.840242
 20
189.979698
 30
0.0
  0
LWPOLYLINE
  5
150
100
AcDbEntity
  8
0
 62
7
100
AcDbPolyline
 90
2
 70
0
 10
56.329755
 20
193.070028
 30
0.0
 10
60.329721
 20
193.070028
 30
0.0
  0
LWPOLYLINE
  5
151
100
AcDbEntity
  8
0
 62
7
100
AcDbPolyline
 90
2
 70
0
 10
56.036068
 20
194.924754
 30
0.0
 10
59.840242
 20
196.160357
 30
0.0
  0
LWPOLYLINE
  5
152
100
AcDbEntity
  8
0
 62
7
100
AcDbPolyline
 90
2
 70
0
 10
55.183846
 20
196.596919
 30
0.0
 10
58.419961
 20
198.949062
 30
0.0
  0
LWPOLYLINE
  5
153
100
AcDbEntity
  8
0
 62
7
100
AcDbPolyline
 90
2
 70
0
 10
53.856433
 20
197.925126
 30
0.0
 10
56.207518
 20
201.160976
 30
0.0
  0
LWPOLYLINE
  5
154
100
AcDbEntity
  8
0
 62
7
100
AcDbPolyline
 90
2
 70
0
 10
52.183739
 20
198.777083
 30
0.0
 10
53.419871
 20
202.581786
 30
0.0
  0
LWPOLYLINE
  5
155
100
AcDbEntity
  8
0
 62
7
100
AcDbPolyline
 90
2
 70
0
 10
50.329806
 20
199.070770
 30
0.0
 10
50.329806
 20
203.071265
 30
0.0
  0
LWPOLYLINE
  5
156
100
AcDbEntity
  8
0
 62
7
100
AcDbPolyline
 90
2
 70
0
 10
84.475539
 20
198.777083
 30
0.0
 10
83.239460
 20
202.581786
 30
0.0
  0
LWPOLYLINE
  5
157
100
AcDbEntity
  8
0
 62
7
100
AcDbPolyline
 90
2
 70
0
 10
82.802925
 20
197.925126
 30
0.0
 10
80.451787
 20
201.160976
 30
0.0
  0
LWPOLYLINE
  5
158
100
AcDbEntity
  8
0
 62
7
100
AcDbPolyline
 90
2
 70
0
 10
81.475538
 20
196.596919
 30
0.0
 10
78.239476
 20
198.949062
 30
0.0
  0
LWPOLYLINE
  5
159
100
AcDbEntity
  8
0
 62
7
100
AcDbPolyline
 90
2
 70
0
 10
80.623290
 20
194.924754
 30
0.0
 10
76.819063
 20
196.160357
 30
0.0
  0
LWPOLYLINE
  5
15a
100
AcDbEntity
  8
0
 62
7
100
AcDbPolyline
 90
2
 70
0
 10
80.329629
 20
193.070028
 30
0.0
 10
76.329584
 20
193.070028
 30
0.0
  0
LWPOLYLINE
  5
15b
100
AcDbEntity
  8
0
 62
7
100
AcDbPolyline
 90
2
 70
0
 10
80.623290
 20
191.215301
 30
0.0
 10
76.819063
 20
189.979698
 30
0.0
  0
LWPOLYLINE
  5
15c
100
AcDbEntity
  8
0
 62
7
100
AcDbPolyline
 90
2
 70
0
 10
81.475538
 20
189.543136
 30
0.0
 10
78.239476
 20
187.190993
 30
0.0
  0
LWPOLYLINE
  5
15d
100
AcDbEntity
  8
0
 62
7
100
AcDbPolyline
 90
2
 70
0
 10
82.802925
 20
188.214930
 30
0.0
 10
80.451787
 20
184.979079
 30
0.0
  0
LWPOLYLINE
  5
15e
100
AcDbEntity
  8
0
 62
7
100
AcDbPolyline
 90
2
 70
0
 10
89.856337
 20
188.214930
 30
0.0
 10
92.207474
 20
184.979079
 30
0.0
  0
LWPOLYLINE
  5
15f
100
AcDbEntity
  8
0
 62
7
100
AcDbPolyline
 90
2
 70
0
 10
91.183723
 20
189.543136
 30
0.0
 10
94.419785
 20
187.190993
 30
0.0
  0
LWPOLYLINE
  5
160
100
AcDbEntity
  8
0
 62
7
100
AcDbPolyline
 90
2
 70
0
 10
92.035972
 20
191.215301
 30
0.0
 10
95.840173
 20
189.979698
 30
0.0
  0
LWPOLYLINE
  5
161
100
AcDbEntity
  8
0
 62
7
100
AcDbPolyline
 90
2
 70
0
 10
92.329632
 20
193.070028
 30
0.0
 10
96.329625
 20
193.070028
 30
0.0
  0
LWPOLYLINE
  5
162
100
AcDbEntity
  8
0
 62
7
100
AcDbPolyline
 90
2
 70
0
 10
92.035972
 20
194.924754
 30
0.0
 10
95.840173
 20
196.160357
 30
0.0
  0
LWPOLYLINE
  5
163
100
AcDbEntity
  8
0
 62
7
100
AcDbPolyline
 90
2
 70
0
 10
91.183723
 20
196.596919
 30
0.0
 10
94.419785
 20
198.949062
 30
0.0
  0
LWPOLYLINE
  5
164
100
AcDbEntity
  8
0
 62
7
100
AcDbPolyline
 90
2
 70
0
 10
89.856337
 20
197.925126
 30
0.0
 10
92.207474
 20
201.160976
 30
0.0
  0
LWPOLYLINE
  5
165
100
AcDbEntity
  8
0
 62
7
100
AcDbPolyline
 90
2
 70
0
 10
88.183723
 20
198.777083
 30
0.0
 10
89.419801
 20
202.581786
 30
0.0
  0
LWPOLYLINE
  5
166
100
AcDbEntity
  8
0
 62
7
100
AcDbPolyline
 90
2
 70
0
 10
86.329631
 20
199.070770
 30
0.0
 10
86.329631
 20
203.071265
 30
0.0
  0
LWPOLYLINE
  5
167
100
AcDbEntity
  8
0
 62
7
100
AcDbPolyline
 90
4
 70
0
 10
107.329610
 20
203.071265
 30
0.0
 10
107.329610
 20
205.068867
 30
0.0
 10
109.329593
 20
205.068867
 30
0.0
 10
109.329593
 20
203.071265
 30
0.0
  0
LWPOLYLINE
  5
168
100
AcDbEntity
  8
0
 62
7
100
AcDbPolyline
 90
2
 70
0
 10
105.329609
 20
203.071265
 30
0.0
 10
107.329610
 20
203.071265
 30
0.0
  0
LWPOLYLINE
  5
169
100
AcDbEntity
  8
0
 62
7
100
AcDbPolyline
 90
2
 70
0
 10
105.329609
 20
203.071265
 30
0.0
 10
105.329609
 20
205.068867
 30
0.0
  0
LWPOLYLINE
  5
16a
100
AcDbEntity
  8
0
 62
7
100
AcDbPolyline
 90
5
 70
0
 10
111.329602
 20
203.071265
 30
0.0
 10
112.329594
 20
205.068867
 30
0.0
 10
113.329585
 20
203.071265
 30
0.0
 10
114.329603
 20
205.068867
 30
0.0
 10
115.329594
 20
203.071265
 30
0.0
  0
SPLINE
  5
16b
100
AcDbEntity
  8
0
 62
7
100
AcDbSpline
 70
8
 71
3
 72
8
 73
4
 74
0
 40
0
 40
0
 40
0
 40
0
 40
1
 40
1
 40
1
 40
1
 10
76.329645
 20
237.070056
 30
0.0
 10
76.064428
 20
237.070056
 30
0.0
 10
75.810075
 20
236.964700
 30
0.0
 10
75.622538
 20
236.777163
 30
0.0
  0
SPLINE
  5
16c
100
AcDbEntity
  8
0
 62
7
100
AcDbSpline
 70
8
 71
3
 72
8
 73
4
 74
0
 40
0
 40
0
 40
0
 40
0
 40
1
 40
1
 40
1
 40
1
 10
75.622538
 20
236.777163
 30
0.0
 10
75.435002
 20
236.589627
 30
0.0
 10
75.329645
 20
236.335273
 30
0.0
 10
75.329645
 20
236.070057
 30
0.0
  0
SPLINE
  5
16d
100
AcDbEntity
  8
0
 62
7
100
AcDbSpline
 70
8
 71
3
 72
8
 73
4
 74
0
 40
0
 40
0
 40
0
 40
0
 40
1
 40
1
 40
1
 40
1
 10
133.329573
 20
236.070057
 30
0.0
 10
133.329573
 20
236.335273
 30
0.0
 10
133.224216
 20
236.589627
 30
0.0
 10
133.036680
 20
236.777163
 30
0.0
  0
SPLINE
  5
16e
100
AcDbEntity
  8
0
 62
7
100
AcDbSpline
 70
8
 71
3
 72
8
 73
4
 74
0
 40
0
 40
0
 40
0
 40
0
 40
1
 40
1
 40
1
 40
1
 10
133.036680
 20
236.777163
 30
0.0
 10
132.849144
 20
236.964700
 30
0.0
 10
132.594790
 20
237.070056
 30
0.0
 10
132.329573
 20
237.070056
 30
0.0
  0
LWPOLYLINE
  5
16f
100
AcDbEntity
  8
0
 62
7
100
AcDbPolyline
 90
5
 70
0
 10
117.329604
 20
203.071265
 30
0.0
 10
119.329587
 20
205.068867
 30
0.0
 10
119.329587
 20
203.071265
 30
0.0
 10
121.329596
 20
205.068867
 30
0.0
 10
121.329596
 20
203.071265
 30
0.0
  0
LWPOLYLINE
  5
170
100
AcDbEntity
  8
0
 62
7
100
AcDbPolyline
 90
2
 70
0
 10
75.329725
 20
236.070057
 30
0.0
 10
75.329725
 20
232.070091
 30
0.0
  0
SPLINE
  5
171
100
AcDbEntity
  8
0
 62
7
100
AcDbSpline
 70
8
 71
3
 72
8
 73
4
 74
0
 40
0
 40
0
 40
0
 40
0
 40
1
 40
1
 40
1
 40
1
 10
40.329691
 20
207.070096
 30
0.0
 10
40.064474
 20
207.070096
 30
0.0
 10
39.810121
 20
206.964739
 30
0.0
 10
39.622584
 20
206.777203
 30
0.0
  0
SPLINE
  5
172
100
AcDbEntity
  8
0
 62
7
100
AcDbSpline
 70
8
 71
3
 72
8
 73
4
 74
0
 40
0
 40
0
 40
0
 40
0
 40
1
 40
1
 40
1
 40
1
 10
39.622584
 20
206.777203
 30
0.0
 10
39.435048
 20
206.589667
 30
0.0
 10
39.329691
 20
206.335313
 30
0.0
 10
39.329691
 20
206.070096
 30
0.0
  0
LWPOLYLINE
  5
173
100
AcDbEntity
  8
0
 62
7
100
AcDbPolyline
 90
2
 70
0
 10
64.329687
 20
207.069114
 30
0.0
 10
40.329627
 20
207.069114
 30
0.0
  0
SPLINE
  5
174
100
AcDbEntity
  8
0
 62
7
100
AcDbSpline
 70
8
 71
3
 72
8
 73
4
 74
0
 40
0
 40
0
 40
0
 40
0
 40
1
 40
1
 40
1
 40
1
 10
97.329619
 20
206.070096
 30
0.0
 10
97.329619
 20
206.335313
 30
0.0
 10
97.224262
 20
206.589667
 30
0.0
 10
97.036726
 20
206.777203
 30
0.0
  0
SPLINE
  5
175
100
AcDbEntity
  8
0
 62
7
100
AcDbSpline
 70
8
 71
3
 72
8
 73
4
 74
0
 40
0
 40
0
 40
0
 40
0
 40
1
 40
1
 40
1
 40
1
 10
97.036726
 20
206.777203
 30
0.0
 10
96.849190
 20
206.964739
 30
0.0
 10
96.594836
 20
207.070096
 30
0.0
 10
96.329619
 20
207.070096
 30
0.0
  0
LWPOLYLINE
  5
176
100
AcDbEntity
  8
0
 62
7
100
AcDbPolyline
 90
2
 70
0
 10
71.329759
 20
207.069114
 30
0.0
 10
96.329625
 20
207.069114
 30
0.0
  0
LWPOLYLINE
  5
177
100
AcDbEntity
  8
0
 62
7
100
AcDbPolyline
 90
2
 70
0
 10
39.329768
 20
206.068990
 30
0.0
 10
39.329768
 20
202.071141
 30
0.0
  0
LWPOLYLINE
  5
178
100
AcDbEntity
  8
0
 62
7
100
AcDbPolyline
 90
2
 70
0
 10
97.329616
 20
206.068990
 30
0.0
 10
97.329616
 20
202.071141
 30
0.0
  0
LWPOLYLINE
  5
179
100
AcDbEntity
  8
0
 62
7
100
AcDbPolyline
 90
2
 70
0
 10
133.329493
 20
236.070057
 30
0.0
 10
133.329493
 20
232.070091
 30
0.0
  0
LWPOLYLINE
  5
17a
100
AcDbEntity
  8
0
 62
7
100
AcDbPolyline
 90
2
 70
0
 10
146.836625
 20
184.857818
 30
0.0
 10
152.353199
 20
184.857818
 30
0.0
  0
LWPOLYLINE
  5
17b
100
AcDbEntity
  8
0
 62
7
100
AcDbPolyline
 90
2
 70
0
 10
54.496057
 20
180.883025
 30
0.0
 10
57.999983
 20
180.883025
 30
0.0
  0
LWPOLYLINE
  5
17c
100
AcDbEntity
  8
0
 62
7
100
AcDbPolyline
 90
2
 70
0
 10
89.277321
 20
180.883020
 30
0.0
 10
97.446705
 20
180.883020
 30
0.0
  0
LWPOLYLINE
  5
17d
100
AcDbEntity
  8
0
 62
7
100
AcDbPolyline
 90
2
 70
0
 10
54.027351
 20
210.433403
 30
0.0
 10
59.823759
 20
210.433403
 30
0.0
  0
LWPOLYLINE
  5
17e
100
AcDbEntity
  8
0
 62
7
100
AcDbPolyline
 90
2
 70
0
 10
128.771387
 20
184.857818
 30
0.0
 10
134.014970
 20
184.857818
 30
0.0
  0
LWPOLYLINE
  5
17f
100
AcDbEntity
  8
0
 62
7
100
AcDbPolyline
 90
2
 70
0
 10
153.329587
 20
193.070028
 30
0.0
 10
163.329501
 20
193.070028
 30
0.0
  0
LWPOLYLINE
  5
180
100
AcDbEntity
  8
0
 62
7
100
AcDbPolyline
 90
2
 70
0
 10
99.329625
 20
237.070180
 30
0.0
 10
76.329584
 20
237.070180
 30
0.0
  0
LWPOLYLINE
  5
181
100
AcDbEntity
  8
0
 62
7
100
AcDbPolyline
 90
2
 70
0
 10
108.329601
 20
237.070180
 30
0.0
 10
132.329634
 20
237.070180
 30
0.0
  0
LWPOLYLINE
  5
182
100
AcDbEntity
  8
0
 62
7
100
AcDbPolyline
 90
4
 70
0
 10
48.028013
 20
210.995586
 30
0.0
 10
48.028013
 20
212.545864
 30
0.0
 10
47.224248
 20
212.545864
 30
0.0
 10
48.823027
 20
212.545864
 30
0.0
  0
LWPOLYLINE
  5
183
100
AcDbEntity
  8
0
 62
7
100
AcDbPolyline
 90
6
 70
0
 10
49.057866
 20
212.216982
 30
0.0
 10
49.057866
 20
211.105962
 30
0.0
 10
49.167868
 20
210.995585
 30
0.0
 10
50.105385
 20
210.995585
 30
0.0
 10
50.237887
 20
211.137213
 30
0.0
 10
50.237887
 20
212.231982
 30
0.0
  0
LWPOLYLINE
  5
184
100
AcDbEntity
  8
0
 62
7
100
AcDbPolyline
 90
5
 70
0
 10
50.603046
 20
210.995586
 30
0.0
 10
50.603046
 20
212.215858
 30
0.0
 10
51.673065
 20
212.215858
 30
0.0
 10
51.790567
 20
212.098356
 30
0.0
 10
51.790567
 20
210.987836
 30
0.0
  0
LWPOLYLINE
  5
185
100
AcDbEntity
  8
0
 62
7
100
AcDbPolyline
 90
9
 70
0
 10
53.383112
 20
210.995585
 30
0.0
 10
52.263092
 20
210.995585
 30
0.0
 10
52.138089
 20
211.129463
 30
0.0
 10
52.138089
 20
212.042729
 30
0.0
 10
52.273092
 20
212.185232
 30
0.0
 10
53.185608
 20
212.185232
 30
0.0
 10
53.318110
 20
212.050229
 30
0.0
 10
53.318110
 20
211.595221
 30
0.0
 10
52.130589
 20
211.595221
 30
0.0
  0
LWPOLYLINE
  5
186
100
AcDbEntity
  8
0
 62
7
100
AcDbPolyline
 90
6
 70
1
 10
83.197292
 20
212.474810
 30
0.0
 10
83.197292
 20
210.995533
 30
0.0
 10
84.537316
 20
210.995533
 30
0.0
 10
84.684819
 20
211.145036
 30
0.0
 10
84.684819
 20
212.334807
 30
0.0
 10
84.544816
 20
212.474810
 30
0.0
  0
LWPOLYLINE
  5
187
100
AcDbEntity
  8
0
 62
7
100
AcDbPolyline
 90
9
 70
0
 10
86.332347
 20
210.987658
 30
0.0
 10
85.212327
 20
210.987658
 30
0.0
 10
85.087325
 20
211.121536
 30
0.0
 10
85.087325
 20
212.034802
 30
0.0
 10
85.222327
 20
212.177305
 30
0.0
 10
86.134843
 20
212.177305
 30
0.0
 10
86.267346
 20
212.042302
 30
0.0
 10
86.267346
 20
211.587294
 30
0.0
 10
85.079825
 20
211.587294
 30
0.0
  0
LWPOLYLINE
  5
188
100
AcDbEntity
  8
0
 62
7
100
AcDbPolyline
 90
4
 70
0
 10
86.614859
 20
212.672313
 30
0.0
 10
86.614859
 20
211.137286
 30
0.0
 10
86.754862
 20
210.995533
 30
0.0
 10
87.007366
 20
210.995533
 30
0.0
  0
LWPOLYLINE
  5
189
100
AcDbEntity
  8
0
 62
7
100
AcDbPolyline
 90
8
 70
0
 10
87.149864
 20
212.169804
 30
0.0
 10
88.259884
 20
212.169804
 30
0.0
 10
88.392387
 20
212.042302
 30
0.0
 10
88.392387
 20
210.995533
 30
0.0
 10
87.329868
 20
210.995533
 30
0.0
 10
87.204865
 20
211.121536
 30
0.0
 10
87.204865
 20
211.569794
 30
0.0
 10
88.377386
 20
211.569794
 30
0.0
  0
LWPOLYLINE
  5
18a
100
AcDbEntity
  8
0
 62
7
100
AcDbPolyline
 90
9
 70
0
 10
88.889885
 20
210.452274
 30
0.0
 10
89.772401
 20
210.452274
 30
0.0
 10
89.912403
 20
210.594776
 30
0.0
 10
89.912403
 20
212.232306
 30
0.0
 10
89.912403
 20
211.082035
 30
0.0
 10
89.819902
 20
210.995533
 30
0.0
 10
88.819884
 20
210.995533
 30
0.0
 10
88.684881
 20
211.129536
 30
0.0
 10
88.684881
 20
212.224805
 30
0.0
  0
LWPOLYLINE
  5
18b
100
AcDbEntity
  8
0
 62
7
100
AcDbPolyline
 90
6
 70
0
 10
116.725001
 20
210.995532
 30
0.0
 10
116.725001
 20
211.830797
 30
0.0
 10
117.875021
 20
211.830797
 30
0.0
 10
116.725001
 20
211.830797
 30
0.0
 10
116.725001
 20
212.555810
 30
0.0
 10
118.142526
 20
212.555810
 30
0.0
  0
LWPOLYLINE
  5
18c
100
AcDbEntity
  8
0
 62
7
100
AcDbPolyline
 90
9
 70
0
 10
119.475720
 20
210.995532
 30
0.0
 10
118.355700
 20
210.995532
 30
0.0
 10
118.230698
 20
211.129410
 30
0.0
 10
118.230698
 20
212.042676
 30
0.0
 10
118.365700
 20
212.185179
 30
0.0
 10
119.278217
 20
212.185179
 30
0.0
 10
119.410719
 20
212.050176
 30
0.0
 10
119.410719
 20
211.595168
 30
0.0
 10
118.223198
 20
211.595168
 30
0.0
  0
LWPOLYLINE
  5
18d
100
AcDbEntity
  8
0
 62
7
100
AcDbPolyline
 90
9
 70
0
 10
121.018260
 20
210.995532
 30
0.0
 10
119.898240
 20
210.995532
 30
0.0
 10
119.773238
 20
211.129410
 30
0.0
 10
119.773238
 20
212.042676
 30
0.0
 10
119.908240
 20
212.185179
 30
0.0
 10
120.820757
 20
212.185179
 30
0.0
 10
120.953259
 20
212.050176
 30
0.0
 10
120.953259
 20
211.595168
 30
0.0
 10
119.765738
 20
211.595168
 30
0.0
  0
LWPOLYLINE
  5
18e
100
AcDbEntity
  8
0
 62
7
100
AcDbPolyline
 90
8
 70
0
 10
122.450777
 20
212.664812
 30
0.0
 10
122.450777
 20
210.995532
 30
0.0
 10
121.370758
 20
210.995532
 30
0.0
 10
121.229255
 20
211.145035
 30
0.0
 10
121.229255
 20
212.019801
 30
0.0
 10
121.363258
 20
212.152303
 30
0.0
 10
122.323275
 20
212.152303
 30
0.0
 10
122.440777
 20
212.042301
 30
0.0
  0
LWPOLYLINE
  5
18f
100
AcDbEntity
  8
0
 62
7
100
AcDbPolyline
 90
8
 70
0
 10
122.795769
 20
212.664437
 30
0.0
 10
122.795769
 20
210.995532
 30
0.0
 10
123.850788
 20
210.995532
 30
0.0
 10
123.975790
 20
211.129409
 30
0.0
 10
123.975790
 20
212.026925
 30
0.0
 10
123.843287
 20
212.161928
 30
0.0
 10
122.898271
 20
212.161928
 30
0.0
 10
122.810769
 20
212.074426
 30
0.0
  0
LWPOLYLINE
  5
190
100
AcDbEntity
  8
0
 62
7
100
AcDbPolyline
 90
8
 70
0
 10
124.220819
 20
212.169803
 30
0.0
 10
125.330838
 20
212.169803
 30
0.0
 10
125.463341
 20
212.042301
 30
0.0
 10
125.463341
 20
210.995532
 30
0.0
 10
124.400822
 20
210.995532
 30
0.0
 10
124.275820
 20
211.121535
 30
0.0
 10
124.275820
 20
211.569793
 30
0.0
 10
125.448341
 20
211.569793
 30
0.0
  0
LWPOLYLINE
  5
191
100
AcDbEntity
  8
0
 62
7
100
AcDbPolyline
 90
6
 70
0
 10
127.081025
 20
210.995532
 30
0.0
 10
125.963505
 20
210.995532
 30
0.0
 10
125.828502
 20
211.137285
 30
0.0
 10
125.828502
 20
212.042301
 30
0.0
 10
125.963505
 20
212.177304
 30
0.0
 10
127.081025
 20
212.177304
 30
0.0
  0
LWPOLYLINE
  5
192
100
AcDbEntity
  8
0
 62
7
100
AcDbPolyline
 90
7
 70
0
 10
127.353356
 20
212.743564
 30
0.0
 10
127.353356
 20
210.995532
 30
0.0
 10
127.353356
 20
211.656044
 30
0.0
 10
127.873365
 20
211.656044
 30
0.0
 10
128.455875
 20
212.311056
 30
0.0
 10
127.873365
 20
211.656044
 30
0.0
 10
128.463375
 20
211.003282
 30
0.0
  0
LWPOLYLINE
  5
193
100
AcDbEntity
  8
0
 62
7
100
AcDbPolyline
 90
3
 70
0
 10
156.356071
 20
212.595375
 30
0.0
 10
157.293588
 20
210.995596
 30
0.0
 10
158.253605
 20
212.602875
 30
0.0
  0
LWPOLYLINE
  5
194
100
AcDbEntity
  8
0
 62
7
100
AcDbPolyline
 90
8
 70
1
 10
158.367963
 20
212.012352
 30
0.0
 10
158.367963
 20
211.137336
 30
0.0
 10
158.500465
 20
210.995584
 30
0.0
 10
159.415482
 20
210.995584
 30
0.0
 10
159.540484
 20
211.121586
 30
0.0
 10
159.540484
 20
212.067353
 30
0.0
 10
159.430482
 20
212.184855
 30
0.0
 10
158.525466
 20
212.184855
 30
0.0
  0
LWPOLYLINE
  5
195
100
AcDbEntity
  8
0
 62
7
100
AcDbPolyline
 90
4
 70
0
 10
160.002832
 20
212.672376
 30
0.0
 10
160.002832
 20
211.137348
 30
0.0
 10
160.142834
 20
210.995596
 30
0.0
 10
160.395339
 20
210.995596
 30
0.0
  0
LWPOLYLINE
  5
196
100
AcDbEntity
  8
0
 62
7
100
AcDbPolyline
 90
3
 70
0
 10
65.293525
 20
207.838958
 30
0.0
 10
65.293525
 20
206.310055
 30
0.0
 10
66.853552
 20
206.310055
 30
0.0
  0
LWPOLYLINE
  5
197
100
AcDbEntity
  8
0
 62
7
100
AcDbPolyline
 90
6
 70
0
 10
67.233209
 20
206.231179
 30
0.0
 10
67.233209
 20
207.066444
 30
0.0
 10
68.383229
 20
207.066444
 30
0.0
 10
67.233209
 20
207.066444
 30
0.0
 10
67.233209
 20
207.791457
 30
0.0
 10
68.650734
 20
207.791457
 30
0.0
  0
LWPOLYLINE
  5
198
100
AcDbEntity
  8
0
 62
7
100
AcDbPolyline
 90
8
 70
1
 10
69.030387
 20
207.641454
 30
0.0
 10
69.030387
 20
206.436183
 30
0.0
 10
69.165390
 20
206.310055
 30
0.0
 10
70.392912
 20
206.310055
 30
0.0
 10
70.517914
 20
206.436183
 30
0.0
 10
70.517914
 20
207.663955
 30
0.0
 10
70.392912
 20
207.773957
 30
0.0
 10
69.155390
 20
207.781457
 30
0.0
  0
LWPOLYLINE
  5
199
100
AcDbEntity
  8
0
 62
7
100
AcDbPolyline
 90
14
 70
0
 10
46.588096
 20
181.680200
 30
0.0
 10
46.588096
 20
181.561948
 30
0.0
 10
46.690598
 20
181.459571
 30
0.0
 10
47.943120
 20
181.459571
 30
0.0
 10
48.060622
 20
181.577698
 30
0.0
 10
48.060622
 20
182.088457
 30
0.0
 10
47.943120
 20
182.208459
 30
0.0
 10
46.705598
 20
182.208459
 30
0.0
 10
46.588096
 20
182.333461
 30
0.0
 10
46.588096
 20
182.805970
 30
0.0
 10
46.730598
 20
182.948472
 30
0.0
 10
47.958120
 20
182.948472
 30
0.0
 10
48.075622
 20
182.830970
 30
0.0
 10
48.075622
 20
182.703468
 30
0.0
  0
LWPOLYLINE
  5
19a
100
AcDbEntity
  8
0
 62
7
100
AcDbPolyline
 90
8
 70
0
 10
48.445629
 20
180.828434
 30
0.0
 10
48.445629
 20
182.608466
 30
0.0
 10
49.518148
 20
182.608466
 30
0.0
 10
49.628150
 20
182.505964
 30
0.0
 10
49.628150
 20
181.538197
 30
0.0
 10
49.525648
 20
181.435945
 30
0.0
 10
48.573131
 20
181.435945
 30
0.0
 10
48.460629
 20
181.546197
 30
0.0
  0
LWPOLYLINE
  5
19b
100
AcDbEntity
  8
0
 62
7
100
AcDbPolyline
 90
9
 70
0
 10
51.148184
 20
181.443820
 30
0.0
 10
50.028164
 20
181.443820
 30
0.0
 10
49.903162
 20
181.577698
 30
0.0
 10
49.903162
 20
182.490964
 30
0.0
 10
50.038164
 20
182.633467
 30
0.0
 10
50.950681
 20
182.633467
 30
0.0
 10
51.083183
 20
182.498464
 30
0.0
 10
51.083183
 20
182.043456
 30
0.0
 10
49.895662
 20
182.043456
 30
0.0
  0
LWPOLYLINE
  5
19c
100
AcDbEntity
  8
0
 62
7
100
AcDbPolyline
 90
9
 70
0
 10
52.690703
 20
181.443820
 30
0.0
 10
51.570683
 20
181.443820
 30
0.0
 10
51.445681
 20
181.577698
 30
0.0
 10
51.445681
 20
182.490964
 30
0.0
 10
51.580683
 20
182.633467
 30
0.0
 10
52.493200
 20
182.633467
 30
0.0
 10
52.625702
 20
182.498464
 30
0.0
 10
52.625702
 20
182.043456
 30
0.0
 10
51.438181
 20
182.043456
 30
0.0
  0
LWPOLYLINE
  5
19d
100
AcDbEntity
  8
0
 62
7
100
AcDbPolyline
 90
8
 70
0
 10
54.123220
 20
183.120976
 30
0.0
 10
54.123220
 20
181.451696
 30
0.0
 10
53.043201
 20
181.451696
 30
0.0
 10
52.901698
 20
181.601198
 30
0.0
 10
52.901698
 20
182.475964
 30
0.0
 10
53.035701
 20
182.608466
 30
0.0
 10
53.995718
 20
182.608466
 30
0.0
 10
54.113220
 20
182.498464
 30
0.0
  0
LWPOLYLINE
  5
19e
100
AcDbEntity
  8
0
 62
7
100
AcDbPolyline
 90
7
 70
0
 10
83.827358
 20
181.459571
 30
0.0
 10
83.827358
 20
183.041599
 30
0.0
 10
83.907360
 20
183.034099
 30
0.0
 10
84.684873
 20
182.121583
 30
0.0
 10
85.457387
 20
183.041599
 30
0.0
 10
85.529889
 20
183.041599
 30
0.0
 10
85.529889
 20
181.443821
 30
0.0
  0
LWPOLYLINE
  5
19f
100
AcDbEntity
  8
0
 62
7
100
AcDbPolyline
 90
8
 70
1
 10
85.837463
 20
182.460590
 30
0.0
 10
85.837463
 20
181.585574
 30
0.0
 10
85.969965
 20
181.443822
 30
0.0
 10
86.884982
 20
181.443822
 30
0.0
 10
87.009984
 20
181.569824
 30
0.0
 10
87.009984
 20
182.515591
 30
0.0
 10
86.899982
 20
182.633093
 30
0.0
 10
85.994966
 20
182.633093
 30
0.0
  0
LWPOLYLINE
  5
1a0
100
AcDbEntity
  8
0
 62
7
100
AcDbPolyline
 90
8
 70
0
 10
88.507514
 20
183.113102
 30
0.0
 10
88.507514
 20
181.443822
 30
0.0
 10
87.427495
 20
181.443822
 30
0.0
 10
87.285992
 20
181.593324
 30
0.0
 10
87.285992
 20
182.468090
 30
0.0
 10
87.419995
 20
182.600592
 30
0.0
 10
88.380012
 20
182.600592
 30
0.0
 10
88.497514
 20
182.490590
 30
0.0
  0
LWPOLYLINE
  5
1a1
100
AcDbEntity
  8
0
 62
7
100
AcDbPolyline
 90
5
 70
0
 10
109.764747
 20
187.227140
 30
0.0
 10
110.354757
 20
185.635112
 30
0.0
 10
110.944768
 20
187.242140
 30
0.0
 10
111.582279
 20
185.611611
 30
0.0
 10
112.173290
 20
187.249641
 30
0.0
  0
LWPOLYLINE
  5
1a2
100
AcDbEntity
  8
0
 62
7
100
AcDbPolyline
 90
8
 70
0
 10
112.394283
 20
186.809384
 30
0.0
 10
113.504302
 20
186.809384
 30
0.0
 10
113.636805
 20
186.681881
 30
0.0
 10
113.636805
 20
185.635113
 30
0.0
 10
112.574286
 20
185.635113
 30
0.0
 10
112.449284
 20
185.761115
 30
0.0
 10
112.449284
 20
186.209373
 30
0.0
 10
113.621805
 20
186.209373
 30
0.0
  0
LWPOLYLINE
  5
1a3
100
AcDbEntity
  8
0
 62
7
100
AcDbPolyline
 90
3
 70
0
 10
113.944326
 20
186.935385
 30
0.0
 10
114.661839
 20
185.635112
 30
0.0
 10
115.416853
 20
186.950385
 30
0.0
  0
LWPOLYLINE
  5
1a4
100
AcDbEntity
  8
0
 62
7
100
AcDbPolyline
 90
9
 70
0
 10
116.981891
 20
185.635112
 30
0.0
 10
115.861871
 20
185.635112
 30
0.0
 10
115.736869
 20
185.768989
 30
0.0
 10
115.736869
 20
186.682255
 30
0.0
 10
115.871871
 20
186.824758
 30
0.0
 10
116.784388
 20
186.824758
 30
0.0
 10
116.916890
 20
186.689756
 30
0.0
 10
116.916890
 20
186.234747
 30
0.0
 10
115.729369
 20
186.234747
 30
0.0
  0
LWPOLYLINE
  5
1a5
100
AcDbEntity
  8
0
 62
7
100
AcDbPolyline
 90
3
 70
0
 10
128.803197
 20
187.164014
 30
0.0
 10
128.803197
 20
185.635112
 30
0.0
 10
130.363225
 20
185.635112
 30
0.0
  0
LWPOLYLINE
  5
1a6
100
AcDbEntity
  8
0
 62
7
100
AcDbPolyline
 90
6
 70
0
 10
130.763058
 20
185.635112
 30
0.0
 10
130.763058
 20
186.470377
 30
0.0
 10
131.913078
 20
186.470377
 30
0.0
 10
130.763058
 20
186.470377
 30
0.0
 10
130.763058
 20
187.195390
 30
0.0
 10
132.180583
 20
187.195390
 30
0.0
  0
LWPOLYLINE
  5
1a7
100
AcDbEntity
  8
0
 62
7
100
AcDbPolyline
 90
8
 70
1
 10
132.505465
 20
186.966511
 30
0.0
 10
132.505465
 20
185.761239
 30
0.0
 10
132.640468
 20
185.635112
 30
0.0
 10
133.867990
 20
185.635112
 30
0.0
 10
133.992992
 20
185.761239
 30
0.0
 10
133.992992
 20
186.989011
 30
0.0
 10
133.867990
 20
187.099013
 30
0.0
 10
132.630468
 20
187.106513
 30
0.0
  0
LWPOLYLINE
  5
1a8
100
AcDbEntity
  8
0
 62
7
100
AcDbPolyline
 90
14
 70
0
 10
146.865651
 20
185.855741
 30
0.0
 10
146.865651
 20
185.737488
 30
0.0
 10
146.968153
 20
185.635112
 30
0.0
 10
148.220675
 20
185.635112
 30
0.0
 10
148.338177
 20
185.753239
 30
0.0
 10
148.338177
 20
186.263998
 30
0.0
 10
148.220675
 20
186.384000
 30
0.0
 10
146.983153
 20
186.384000
 30
0.0
 10
146.865651
 20
186.509002
 30
0.0
 10
146.865651
 20
186.981511
 30
0.0
 10
147.008153
 20
187.124013
 30
0.0
 10
148.235675
 20
187.124013
 30
0.0
 10
148.353177
 20
187.006511
 30
0.0
 10
148.353177
 20
186.879009
 30
0.0
  0
LWPOLYLINE
  5
1a9
100
AcDbEntity
  8
0
 62
7
100
AcDbPolyline
 90
6
 70
0
 10
148.715684
 20
185.635111
 30
0.0
 10
148.715684
 20
187.374893
 30
0.0
 10
148.715684
 20
186.872384
 30
0.0
 10
149.763203
 20
186.872384
 30
0.0
 10
149.905705
 20
186.737381
 30
0.0
 10
149.905705
 20
185.627111
 30
0.0
  0
LWPOLYLINE
  5
1aa
100
AcDbEntity
  8
0
 62
7
100
AcDbPolyline
 90
3
 70
0
 10
150.320655
 20
185.627237
 30
0.0
 10
150.313154
 20
185.642987
 30
0.0
 10
150.313154
 20
186.920010
 30
0.0
  0
LWPOLYLINE
  5
1ab
100
AcDbEntity
  8
0
 62
7
100
AcDbPolyline
 90
4
 70
1
 10
150.273153
 20
187.265016
 30
0.0
 10
150.273153
 20
187.367518
 30
0.0
 10
150.375655
 20
187.367518
 30
0.0
 10
150.375655
 20
187.265016
 30
0.0
  0
LWPOLYLINE
  5
1ac
100
AcDbEntity
  8
0
 62
7
100
AcDbPolyline
 90
7
 70
0
 10
150.738117
 20
185.635112
 30
0.0
 10
150.738117
 20
186.862384
 30
0.0
 10
151.398129
 20
186.862384
 30
0.0
 10
150.738117
 20
186.862384
 30
0.0
 10
150.738117
 20
187.187389
 30
0.0
 10
150.870620
 20
187.319892
 30
0.0
 10
151.408129
 20
187.319892
 30
0.0
  0
LWPOLYLINE
  5
1ad
100
AcDbEntity
  8
0
 62
7
100
AcDbPolyline
 90
7
 70
0
 10
151.703063
 20
187.303642
 30
0.0
 10
151.703063
 20
186.783632
 30
0.0
 10
152.355575
 20
186.783632
 30
0.0
 10
151.703063
 20
186.783632
 30
0.0
 10
151.703063
 20
185.729613
 30
0.0
 10
151.790565
 20
185.635112
 30
0.0
 10
152.355575
 20
185.635112
 30
0.0
  0
LWPOLYLINE
  5
1ae
100
AcDbEntity
  8
0
 62
7
100
AcDbPolyline
 90
14
 70
0
 10
164.850286
 20
185.864097
 30
0.0
 10
164.850286
 20
185.741366
 30
0.0
 10
164.932261
 20
185.635112
 30
0.0
 10
165.933954
 20
185.635112
 30
0.0
 10
166.027925
 20
185.757713
 30
0.0
 10
166.027925
 20
186.287818
 30
0.0
 10
165.933954
 20
186.412365
 30
0.0
 10
164.944258
 20
186.412365
 30
0.0
 10
164.850286
 20
186.542102
 30
0.0
 10
164.850286
 20
187.032508
 30
0.0
 10
164.964251
 20
187.180408
 30
0.0
 10
165.945950
 20
187.180408
 30
0.0
 10
166.039922
 20
187.058455
 30
0.0
 10
166.039922
 20
186.926123
 30
0.0
  0
LWPOLYLINE
  5
1af
100
AcDbEntity
  8
0
 62
7
100
AcDbPolyline
 90
8
 70
0
 10
166.315179
 20
186.853860
 30
0.0
 10
167.202907
 20
186.853860
 30
0.0
 10
167.308875
 20
186.721528
 30
0.0
 10
167.308875
 20
185.635112
 30
0.0
 10
166.459135
 20
185.635112
 30
0.0
 10
166.359166
 20
185.765886
 30
0.0
 10
166.359166
 20
186.231123
 30
0.0
 10
167.296878
 20
186.231123
 30
0.0
  0
LWPOLYLINE
  5
1b0
100
AcDbEntity
  8
0
 62
7
100
AcDbPolyline
 90
3
 70
0
 10
167.572463
 20
186.984635
 30
0.0
 10
168.146287
 20
185.635112
 30
0.0
 10
168.750102
 20
187.000203
 30
0.0
  0
LWPOLYLINE
  5
1b1
100
AcDbEntity
  8
0
 62
7
100
AcDbPolyline
 90
9
 70
0
 10
170.011727
 20
185.635112
 30
0.0
 10
169.116002
 20
185.635112
 30
0.0
 10
169.016032
 20
185.774060
 30
0.0
 10
169.016032
 20
186.721918
 30
0.0
 10
169.123999
 20
186.869818
 30
0.0
 10
169.853775
 20
186.869818
 30
0.0
 10
169.959743
 20
186.729702
 30
0.0
 10
169.959743
 20
186.257460
 30
0.0
 10
169.010034
 20
186.257460
 30
0.0
  0
LWPOLYLINE
  5
1b2
100
AcDbEntity
  8
0
 62
7
100
AcDbPolyline
 90
11
 70
0
 10
156.027408
 20
196.359547
 30
0.0
 10
156.027408
 20
197.289648
 30
0.0
 10
156.844865
 20
197.289648
 30
0.0
 10
156.924361
 20
197.210152
 30
0.0
 10
156.924361
 20
196.860671
 30
0.0
 10
156.840365
 20
196.779675
 30
0.0
 10
156.093405
 20
196.779675
 30
0.0
 10
156.022909
 20
196.851671
 30
0.0
 10
156.093405
 20
196.779675
 30
0.0
 10
156.541881
 20
196.779675
 30
0.0
 10
156.886863
 20
196.359547
 30
0.0
  0
LWPOLYLINE
  5
1b3
100
AcDbEntity
  8
0
 62
7
100
AcDbPolyline
 90
9
 70
0
 10
157.955600
 20
196.359542
 30
0.0
 10
157.283636
 20
196.359542
 30
0.0
 10
157.208640
 20
196.439863
 30
0.0
 10
157.208640
 20
196.987784
 30
0.0
 10
157.289636
 20
197.073280
 30
0.0
 10
157.837107
 20
197.073280
 30
0.0
 10
157.916602
 20
196.992284
 30
0.0
 10
157.916602
 20
196.719298
 30
0.0
 10
157.204140
 20
196.719298
 30
0.0
  0
LWPOLYLINE
  5
1b4
100
AcDbEntity
  8
0
 62
7
100
AcDbPolyline
 90
14
 70
0
 10
158.221534
 20
196.477661
 30
0.0
 10
158.221534
 20
196.430414
 30
0.0
 10
158.287530
 20
196.364267
 30
0.0
 10
158.854500
 20
196.364267
 30
0.0
 10
158.924996
 20
196.439863
 30
0.0
 10
158.924996
 20
196.642802
 30
0.0
 10
158.858999
 20
196.708799
 30
0.0
 10
158.307029
 20
196.708799
 30
0.0
 10
158.230533
 20
196.785295
 30
0.0
 10
158.230533
 20
196.996784
 30
0.0
 10
158.311529
 20
197.073280
 30
0.0
 10
158.845500
 20
197.073280
 30
0.0
 10
158.920496
 20
196.996784
 30
0.0
 10
158.920496
 20
196.954786
 30
0.0
  0
LWPOLYLINE
  5
1b5
100
AcDbEntity
  8
0
 62
7
100
AcDbPolyline
 90
9
 70
0
 10
159.968893
 20
196.359542
 30
0.0
 10
159.296928
 20
196.359542
 30
0.0
 10
159.221932
 20
196.439863
 30
0.0
 10
159.221932
 20
196.987784
 30
0.0
 10
159.302928
 20
197.073280
 30
0.0
 10
159.850399
 20
197.073280
 30
0.0
 10
159.929895
 20
196.992284
 30
0.0
 10
159.929895
 20
196.719298
 30
0.0
 10
159.217433
 20
196.719298
 30
0.0
  0
LWPOLYLINE
  5
1b6
100
AcDbEntity
  8
0
 62
7
100
AcDbPolyline
 90
7
 70
0
 10
160.234831
 20
197.374764
 30
0.0
 10
160.234831
 20
197.062780
 30
0.0
 10
160.626311
 20
197.062780
 30
0.0
 10
160.234831
 20
197.062780
 30
0.0
 10
160.234831
 20
196.430414
 30
0.0
 10
160.287328
 20
196.373717
 30
0.0
 10
160.626311
 20
196.373717
 30
0.0
  0
LWPOLYLINE
  5
1b7
100
AcDbEntity
  8
0
 62
7
100
AcDbPolyline
 90
3
 70
0
 10
156.073739
 20
195.411433
 30
0.0
 10
156.073739
 20
194.494157
 30
0.0
 10
157.009690
 20
194.494157
 30
0.0
  0
LWPOLYLINE
  5
1b8
100
AcDbEntity
  8
0
 62
7
100
AcDbPolyline
 90
6
 70
0
 10
157.299549
 20
194.494163
 30
0.0
 10
157.299549
 20
194.995286
 30
0.0
 10
157.989513
 20
194.995286
 30
0.0
 10
157.299549
 20
194.995286
 30
0.0
 10
157.299549
 20
195.430263
 30
0.0
 10
158.150004
 20
195.430263
 30
0.0
  0
LWPOLYLINE
  5
1b9
100
AcDbEntity
  8
0
 62
7
100
AcDbPolyline
 90
8
 70
1
 10
158.389900
 20
195.292940
 30
0.0
 10
158.389900
 20
194.569828
 30
0.0
 10
158.470896
 20
194.494157
 30
0.0
 10
159.207355
 20
194.494157
 30
0.0
 10
159.282351
 20
194.569828
 30
0.0
 10
159.282351
 20
195.306439
 30
0.0
 10
159.207355
 20
195.372435
 30
0.0
 10
158.464896
 20
195.376935
 30
0.0
  0
LWPOLYLINE
  5
1ba
100
AcDbEntity
  8
0
 62
7
100
AcDbPolyline
 90
11
 70
0
 10
159.624746
 20
195.235943
 30
0.0
 10
159.624746
 20
195.292940
 30
0.0
 10
159.719241
 20
195.387435
 30
0.0
 10
160.457202
 20
195.387435
 30
0.0
 10
160.541198
 20
195.297439
 30
0.0
 10
160.541198
 20
195.009455
 30
0.0
 10
160.457202
 20
194.923959
 30
0.0
 10
159.714741
 20
194.923959
 30
0.0
 10
159.624746
 20
194.833964
 30
0.0
 10
159.624746
 20
194.494157
 30
0.0
 10
160.578696
 20
194.494157
 30
0.0
  0
LWPOLYLINE
  5
1bb
100
AcDbEntity
  8
0
 62
7
100
AcDbPolyline
 90
6
 70
0
 10
129.214305
 20
183.211629
 30
0.0
 10
129.214305
 20
183.712753
 30
0.0
 10
129.904269
 20
183.712753
 30
0.0
 10
129.214305
 20
183.712753
 30
0.0
 10
129.214305
 20
184.147730
 30
0.0
 10
130.064761
 20
184.147730
 30
0.0
  0
LWPOLYLINE
  5
1bc
100
AcDbEntity
  8
0
 62
7
100
AcDbPolyline
 90
4
 70
0
 10
130.313580
 20
184.217632
 30
0.0
 10
130.313580
 20
183.296680
 30
0.0
 10
130.397576
 20
183.211635
 30
0.0
 10
130.549068
 20
183.211635
 30
0.0
  0
LWPOLYLINE
  5
1bd
100
AcDbEntity
  8
0
 62
7
100
AcDbPolyline
 90
8
 70
0
 10
130.784723
 20
183.916147
 30
0.0
 10
131.450688
 20
183.916147
 30
0.0
 10
131.530183
 20
183.839652
 30
0.0
 10
131.530183
 20
183.211635
 30
0.0
 10
130.892717
 20
183.211635
 30
0.0
 10
130.817721
 20
183.287231
 30
0.0
 10
130.817721
 20
183.556166
 30
0.0
 10
131.521184
 20
183.556166
 30
0.0
  0
LWPOLYLINE
  5
1be
100
AcDbEntity
  8
0
 62
7
100
AcDbPolyline
 90
11
 70
0
 10
131.964819
 20
182.890426
 30
0.0
 10
132.494290
 20
182.890426
 30
0.0
 10
132.578286
 20
182.975922
 30
0.0
 10
132.578286
 20
183.848876
 30
0.0
 10
132.494290
 20
183.934372
 30
0.0
 10
131.931820
 20
183.934372
 30
0.0
 10
131.846325
 20
183.848876
 30
0.0
 10
131.846325
 20
183.282506
 30
0.0
 10
131.916821
 20
183.211635
 30
0.0
 10
132.489791
 20
183.211635
 30
0.0
 10
132.573786
 20
183.296755
 30
0.0
  0
LWPOLYLINE
  5
1bf
100
AcDbEntity
  8
0
 62
7
100
AcDbPolyline
 90
14
 70
0
 10
132.845122
 20
183.325029
 30
0.0
 10
132.845122
 20
183.277781
 30
0.0
 10
132.911118
 20
183.211635
 30
0.0
 10
133.478089
 20
183.211635
 30
0.0
 10
133.548585
 20
183.287231
 30
0.0
 10
133.548585
 20
183.490170
 30
0.0
 10
133.482588
 20
183.556166
 30
0.0
 10
132.930617
 20
183.556166
 30
0.0
 10
132.854121
 20
183.632662
 30
0.0
 10
132.854121
 20
183.844151
 30
0.0
 10
132.935117
 20
183.920647
 30
0.0
 10
133.469089
 20
183.920647
 30
0.0
 10
133.544085
 20
183.844151
 30
0.0
 10
133.544085
 20
183.802153
 30
0.0
  0
LWPOLYLINE
  5
1c0
100
AcDbEntity
  8
0
 62
7
100
AcDbPolyline
 90
14
 70
1
 10
147.603312
 20
184.099363
 30
0.0
 10
148.368272
 20
184.099363
 30
0.0
 10
148.468766
 20
184.000368
 30
0.0
 10
148.468766
 20
183.764880
 30
0.0
 10
148.411769
 20
183.679385
 30
0.0
 10
147.664809
 20
183.679385
 30
0.0
 10
147.612312
 20
183.731882
 30
0.0
 10
147.612312
 20
183.632887
 30
0.0
 10
147.664809
 20
183.679385
 30
0.0
 10
148.411769
 20
183.679385
 30
0.0
 10
148.495765
 20
183.598389
 30
0.0
 10
148.495765
 20
183.296755
 30
0.0
 10
148.411769
 20
183.211635
 30
0.0
 10
147.598812
 20
183.211635
 30
0.0
  0
LWPOLYLINE
  5
1c1
100
AcDbEntity
  8
0
 62
7
100
AcDbPolyline
 90
8
 70
0
 10
148.751909
 20
183.916147
 30
0.0
 10
149.417874
 20
183.916147
 30
0.0
 10
149.497370
 20
183.839652
 30
0.0
 10
149.497370
 20
183.211635
 30
0.0
 10
148.859904
 20
183.211635
 30
0.0
 10
148.784908
 20
183.287231
 30
0.0
 10
148.784908
 20
183.556166
 30
0.0
 10
149.488371
 20
183.556166
 30
0.0
  0
LWPOLYLINE
  5
1c2
100
AcDbEntity
  8
0
 62
7
100
AcDbPolyline
 90
5
 70
0
 10
149.772023
 20
183.211635
 30
0.0
 10
149.772023
 20
183.943746
 30
0.0
 10
150.413988
 20
183.943746
 30
0.0
 10
150.484485
 20
183.873250
 30
0.0
 10
150.484485
 20
183.206985
 30
0.0
  0
LWPOLYLINE
  5
1c3
100
AcDbEntity
  8
0
 62
7
100
AcDbPolyline
 90
7
 70
0
 10
150.822441
 20
184.260379
 30
0.0
 10
150.822441
 20
183.211635
 30
0.0
 10
150.822441
 20
183.607914
 30
0.0
 10
151.134425
 20
183.607914
 30
0.0
 10
151.483906
 20
184.000893
 30
0.0
 10
151.134425
 20
183.607914
 30
0.0
 10
151.488406
 20
183.216284
 30
0.0
  0
LWPOLYLINE
  5
1c4
100
AcDbEntity
  8
0
 62
7
100
AcDbPolyline
 90
2
 70
0
 10
54.068448
 20
211.075928
 30
0.0
 10
54.762611
 20
211.888135
 30
0.0
  0
LWPOLYLINE
  5
1c5
100
AcDbEntity
  8
0
 62
7
100
AcDbPolyline
 90
8
 70
0
 10
55.187888
 20
210.995532
 30
0.0
 10
55.187888
 20
211.921134
 30
0.0
 10
56.014345
 20
211.921134
 30
0.0
 10
56.084841
 20
211.850637
 30
0.0
 10
56.084841
 20
211.481657
 30
0.0
 10
56.009845
 20
211.406661
 30
0.0
 10
55.258384
 20
211.406661
 30
0.0
 10
55.187888
 20
211.477157
 30
0.0
  0
LWPOLYLINE
  5
1c6
100
AcDbEntity
  8
0
 62
7
100
AcDbPolyline
 90
6
 70
0
 10
56.350279
 20
211.728319
 30
0.0
 10
56.350279
 20
211.061754
 30
0.0
 10
56.416276
 20
210.995532
 30
0.0
 10
56.978746
 20
210.995532
 30
0.0
 10
57.058242
 20
211.080503
 30
0.0
 10
57.058242
 20
211.737318
 30
0.0
  0
LWPOLYLINE
  5
1c7
100
AcDbEntity
  8
0
 62
7
100
AcDbPolyline
 90
4
 70
0
 10
57.349670
 20
212.001529
 30
0.0
 10
57.349670
 20
211.080578
 30
0.0
 10
57.433665
 20
210.995532
 30
0.0
 10
57.585157
 20
210.995532
 30
0.0
  0
LWPOLYLINE
  5
1c8
100
AcDbEntity
  8
0
 62
7
100
AcDbPolyline
 90
14
 70
0
 10
57.870547
 20
211.126541
 30
0.0
 10
57.870547
 20
211.079294
 30
0.0
 10
57.936544
 20
211.013147
 30
0.0
 10
58.503514
 20
211.013147
 30
0.0
 10
58.574010
 20
211.088743
 30
0.0
 10
58.574010
 20
211.291682
 30
0.0
 10
58.508013
 20
211.357679
 30
0.0
 10
57.956043
 20
211.357679
 30
0.0
 10
57.879547
 20
211.434175
 30
0.0
 10
57.879547
 20
211.645664
 30
0.0
 10
57.960542
 20
211.722160
 30
0.0
 10
58.494514
 20
211.722160
 30
0.0
 10
58.569510
 20
211.645664
 30
0.0
 10
58.569510
 20
211.603666
 30
0.0
  0
LWPOLYLINE
  5
1c9
100
AcDbEntity
  8
0
 62
7
100
AcDbPolyline
 90
9
 70
0
 10
59.630407
 20
210.995532
 30
0.0
 10
58.958442
 20
210.995532
 30
0.0
 10
58.883446
 20
211.075853
 30
0.0
 10
58.883446
 20
211.623774
 30
0.0
 10
58.964442
 20
211.709270
 30
0.0
 10
59.511913
 20
211.709270
 30
0.0
 10
59.591409
 20
211.628274
 30
0.0
 10
59.591409
 20
211.355288
 30
0.0
 10
58.878947
 20
211.355288
 30
0.0
  0
LWPOLYLINE
  5
1ca
100
AcDbEntity
  8
0
 62
7
100
AcDbPolyline
 90
7
 70
0
 10
102.239544
 20
236.475797
 30
0.0
 10
100.822018
 20
236.475797
 30
0.0
 10
100.822018
 20
237.240061
 30
0.0
 10
101.957039
 20
237.240061
 30
0.0
 10
100.822018
 20
237.240061
 30
0.0
 10
100.822018
 20
237.955074
 30
0.0
 10
102.232044
 20
237.955074
 30
0.0
  0
LWPOLYLINE
  5
1cb
100
AcDbEntity
  8
0
 62
7
100
AcDbPolyline
 90
6
 70
0
 10
103.784571
 20
236.475797
 30
0.0
 10
102.667051
 20
236.475797
 30
0.0
 10
102.532048
 20
236.617550
 30
0.0
 10
102.532048
 20
237.522566
 30
0.0
 10
102.667051
 20
237.657568
 30
0.0
 10
103.784571
 20
237.657568
 30
0.0
  0
LWPOLYLINE
  5
1cc
100
AcDbEntity
  8
0
 62
7
100
AcDbPolyline
 90
6
 70
0
 10
104.101076
 20
236.475804
 30
0.0
 10
104.101076
 20
238.215585
 30
0.0
 10
104.101076
 20
237.713076
 30
0.0
 10
105.148595
 20
237.713076
 30
0.0
 10
105.291097
 20
237.578074
 30
0.0
 10
105.291097
 20
236.467804
 30
0.0
  0
LWPOLYLINE
  5
1cd
100
AcDbEntity
  8
0
 62
7
100
AcDbPolyline
 90
8
 70
1
 10
105.627106
 20
237.492565
 30
0.0
 10
105.627106
 20
236.617550
 30
0.0
 10
105.759608
 20
236.475797
 30
0.0
 10
106.674625
 20
236.475797
 30
0.0
 10
106.799627
 20
236.601799
 30
0.0
 10
106.799627
 20
237.547566
 30
0.0
 10
106.689625
 20
237.665068
 30
0.0
 10
105.784609
 20
237.665068
 30
0.0
  0
LWPOLYLINE
  5
1ce
100
AcDbEntity
  8
0
 62
7
100
AcDbPolyline
 90
8
 70
1
 10
45.150016
 20
237.815079
 30
0.0
 10
45.150016
 20
236.609807
 30
0.0
 10
45.285018
 20
236.483680
 30
0.0
 10
46.512540
 20
236.483680
 30
0.0
 10
46.637542
 20
236.609807
 30
0.0
 10
46.637542
 20
237.837579
 30
0.0
 10
46.512540
 20
237.947581
 30
0.0
 10
45.275018
 20
237.955081
 30
0.0
  0
LWPOLYLINE
  5
1cf
100
AcDbEntity
  8
0
 62
7
100
AcDbPolyline
 90
14
 70
0
 10
46.992548
 20
236.664808
 30
0.0
 10
46.992548
 20
236.586057
 30
0.0
 10
47.102550
 20
236.475805
 30
0.0
 10
48.047567
 20
236.475805
 30
0.0
 10
48.165069
 20
236.601807
 30
0.0
 10
48.165069
 20
236.940063
 30
0.0
 10
48.055067
 20
237.050065
 30
0.0
 10
47.135051
 20
237.050065
 30
0.0
 10
47.007548
 20
237.177568
 30
0.0
 10
47.007548
 20
237.530074
 30
0.0
 10
47.142551
 20
237.657576
 30
0.0
 10
48.032567
 20
237.657576
 30
0.0
 10
48.157569
 20
237.530074
 30
0.0
 10
48.157569
 20
237.460073
 30
0.0
  0
LWPOLYLINE
  5
1d0
100
AcDbEntity
  8
0
 62
7
100
AcDbPolyline
 90
6
 70
0
 10
49.787587
 20
236.475805
 30
0.0
 10
48.670067
 20
236.475805
 30
0.0
 10
48.535064
 20
236.617558
 30
0.0
 10
48.535064
 20
237.522574
 30
0.0
 10
48.670067
 20
237.657576
 30
0.0
 10
49.787587
 20
237.657576
 30
0.0
  0
LWPOLYLINE
  5
1d1
100
AcDbEntity
  8
0
 62
7
100
AcDbPolyline
 90
3
 70
0
 10
50.077610
 20
236.404804
 30
0.0
 10
50.070109
 20
236.420554
 30
0.0
 10
50.070109
 20
237.697577
 30
0.0
  0
LWPOLYLINE
  5
1d2
100
AcDbEntity
  8
0
 62
7
100
AcDbPolyline
 90
4
 70
1
 10
50.030109
 20
238.042583
 30
0.0
 10
50.030109
 20
238.145085
 30
0.0
 10
50.132611
 20
238.145085
 30
0.0
 10
50.132611
 20
238.042583
 30
0.0
  0
LWPOLYLINE
  5
1d3
100
AcDbEntity
  8
0
 62
7
100
AcDbPolyline
 90
4
 70
0
 10
50.425114
 20
238.152585
 30
0.0
 10
50.425114
 20
236.617558
 30
0.0
 10
50.565117
 20
236.475805
 30
0.0
 10
50.817621
 20
236.475805
 30
0.0
  0
LWPOLYLINE
  5
1d4
100
AcDbEntity
  8
0
 62
7
100
AcDbPolyline
 90
4
 70
0
 10
51.007620
 20
238.152585
 30
0.0
 10
51.007620
 20
236.617558
 30
0.0
 10
51.147623
 20
236.475805
 30
0.0
 10
51.400127
 20
236.475805
 30
0.0
  0
LWPOLYLINE
  5
1d5
100
AcDbEntity
  8
0
 62
7
100
AcDbPolyline
 90
8
 70
0
 10
51.542625
 20
237.650076
 30
0.0
 10
52.652645
 20
237.650076
 30
0.0
 10
52.785148
 20
237.522574
 30
0.0
 10
52.785148
 20
236.475805
 30
0.0
 10
51.722629
 20
236.475805
 30
0.0
 10
51.597626
 20
236.601807
 30
0.0
 10
51.597626
 20
237.050065
 30
0.0
 10
52.770147
 20
237.050065
 30
0.0
  0
LWPOLYLINE
  5
1d6
100
AcDbEntity
  8
0
 62
7
100
AcDbPolyline
 90
7
 70
0
 10
53.132670
 20
238.144335
 30
0.0
 10
53.132670
 20
237.624326
 30
0.0
 10
53.785182
 20
237.624326
 30
0.0
 10
53.132670
 20
237.624326
 30
0.0
 10
53.132670
 20
236.570307
 30
0.0
 10
53.220172
 20
236.475805
 30
0.0
 10
53.785182
 20
236.475805
 30
0.0
  0
LWPOLYLINE
  5
1d7
100
AcDbEntity
  8
0
 62
7
100
AcDbPolyline
 90
8
 70
1
 10
54.045172
 20
237.492573
 30
0.0
 10
54.045172
 20
236.617558
 30
0.0
 10
54.177675
 20
236.475805
 30
0.0
 10
55.092691
 20
236.475805
 30
0.0
 10
55.217693
 20
236.601807
 30
0.0
 10
55.217693
 20
237.547574
 30
0.0
 10
55.107691
 20
237.665076
 30
0.0
 10
54.202675
 20
237.665076
 30
0.0
  0
LWPOLYLINE
  5
1d8
100
AcDbEntity
  8
0
 62
7
100
AcDbPolyline
 90
4
 70
0
 10
55.580195
 20
236.475805
 30
0.0
 10
55.580195
 20
237.601325
 30
0.0
 10
55.715198
 20
237.743828
 30
0.0
 10
56.510212
 20
237.743828
 30
0.0
  0
LWPOLYLINE
  5
1d9
100
AcDbEntity
  8
0
 62
7
100
AcDbPolyline
 90
4
 70
0
 10
127.902750
 20
204.356169
 30
0.0
 10
128.212747
 20
204.716166
 30
0.0
 10
128.256747
 20
204.716166
 30
0.0
 10
128.256747
 20
203.423977
 30
0.0
  0
LWPOLYLINE
  5
1da
100
AcDbEntity
  8
0
 62
7
100
AcDbPolyline
 90
11
 70
0
 10
133.593645
 20
204.486069
 30
0.0
 10
133.593645
 20
204.562068
 30
0.0
 10
133.719644
 20
204.688067
 30
0.0
 10
134.703636
 20
204.688067
 30
0.0
 10
134.815635
 20
204.568068
 30
0.0
 10
134.815635
 20
204.184071
 30
0.0
 10
134.703636
 20
204.070072
 30
0.0
 10
133.713644
 20
204.070072
 30
0.0
 10
133.593645
 20
203.950073
 30
0.0
 10
133.593645
 20
203.496977
 30
0.0
 10
134.865635
 20
203.496977
 30
0.0
  0
LWPOLYLINE
  5
1db
100
AcDbEntity
  8
0
 62
7
100
AcDbPolyline
 90
8
 70
1
 10
85.715637
 20
205.626019
 30
0.0
 10
85.715637
 20
204.673827
 30
0.0
 10
85.829636
 20
204.566628
 30
0.0
 10
86.825628
 20
204.566628
 30
0.0
 10
86.943627
 20
204.680027
 30
0.0
 10
86.943627
 20
205.650018
 30
0.0
 10
86.843627
 20
205.750018
 30
0.0
 10
85.841636
 20
205.750018
 30
0.0
  0
LWPOLYLINE
  5
1dc
100
AcDbEntity
  8
0
 62
7
100
AcDbPolyline
 90
2
 70
0
 10
85.727637
 20
204.680027
 30
0.0
 10
86.931627
 20
205.656018
 30
0.0
  0
LWPOLYLINE
  5
1dd
100
AcDbEntity
  8
0
 62
7
100
AcDbPolyline
 90
2
 70
0
 10
41.807566
 20
214.847861
 30
0.0
 10
42.506360
 20
214.847861
 30
0.0
  0
LWPOLYLINE
  5
1de
100
AcDbEntity
  8
0
 62
7
100
AcDbPolyline
 90
2
 70
0
 10
78.054845
 20
214.847861
 30
0.0
 10
78.753639
 20
214.847861
 30
0.0
  0
LWPOLYLINE
  5
1df
100
AcDbEntity
  8
0
 62
7
100
AcDbPolyline
 90
2
 70
0
 10
94.477893
 20
214.502063
 30
0.0
 10
94.477893
 20
215.189857
 30
0.0
  0
LWPOLYLINE
  5
1e0
100
AcDbEntity
  8
0
 62
7
100
AcDbPolyline
 90
2
 70
0
 10
94.137496
 20
214.847860
 30
0.0
 10
94.823890
 20
214.847860
 30
0.0
  0
LWPOLYLINE
  5
1e1
100
AcDbEntity
  8
0
 62
7
100
AcDbPolyline
 90
2
 70
0
 10
113.874591
 20
214.847861
 30
0.0
 10
114.573385
 20
214.847861
 30
0.0
  0
LWPOLYLINE
  5
1e2
100
AcDbEntity
  8
0
 62
7
100
AcDbPolyline
 90
2
 70
0
 10
130.438967
 20
214.503963
 30
0.0
 10
130.438967
 20
215.191757
 30
0.0
  0
LWPOLYLINE
  5
1e3
100
AcDbEntity
  8
0
 62
7
100
AcDbPolyline
 90
2
 70
0
 10
130.098570
 20
214.849760
 30
0.0
 10
130.784964
 20
214.849760
 30
0.0
  0
LWPOLYLINE
  5
1e4
100
AcDbEntity
  8
0
 62
7
100
AcDbPolyline
 90
2
 70
0
 10
149.824584
 20
214.847861
 30
0.0
 10
150.523378
 20
214.847861
 30
0.0
  0
LWPOLYLINE
  5
1e5
100
AcDbEntity
  8
0
 62
7
100
AcDbPolyline
 90
2
 70
0
 10
166.502788
 20
214.502063
 30
0.0
 10
166.502788
 20
215.189857
 30
0.0
  0
LWPOLYLINE
  5
1e6
100
AcDbEntity
  8
0
 62
7
100
AcDbPolyline
 90
2
 70
0
 10
166.162391
 20
214.847860
 30
0.0
 10
166.848786
 20
214.847860
 30
0.0
  0
LWPOLYLINE
  5
1e7
100
AcDbEntity
  8
0
 62
7
100
AcDbPolyline
 90
2
 70
0
 10
41.974611
 20
184.857820
 30
0.0
 10
42.673405
 20
184.857820
 30
0.0
  0
LWPOLYLINE
  5
1e8
100
AcDbEntity
  8
0
 62
7
100
AcDbPolyline
 90
2
 70
0
 10
58.427970
 20
184.512022
 30
0.0
 10
58.427970
 20
185.199816
 30
0.0
  0
LWPOLYLINE
  5
1e9
100
AcDbEntity
  8
0
 62
7
100
AcDbPolyline
 90
2
 70
0
 10
58.087573
 20
184.857819
 30
0.0
 10
58.773967
 20
184.857819
 30
0.0
  0
LWPOLYLINE
  5
1ea
100
AcDbEntity
  8
0
 62
7
100
AcDbPolyline
 90
2
 70
0
 10
94.318749
 20
184.512022
 30
0.0
 10
94.318749
 20
185.199816
 30
0.0
  0
LWPOLYLINE
  5
1eb
100
AcDbEntity
  8
0
 62
7
100
AcDbPolyline
 90
2
 70
0
 10
93.978352
 20
184.857819
 30
0.0
 10
94.664746
 20
184.857819
 30
0.0
  0
LWPOLYLINE
  5
1ec
100
AcDbEntity
  8
0
 62
7
100
AcDbPolyline
 90
2
 70
0
 10
77.948850
 20
184.857820
 30
0.0
 10
78.647644
 20
184.857820
 30
0.0
  0
LWPOLYLINE
  5
1ed
100
AcDbEntity
  8
0
 62
7
100
AcDbPolyline
 90
2
 70
0
 10
58.686373
 20
214.502063
 30
0.0
 10
58.686373
 20
215.189857
 30
0.0
  0
LWPOLYLINE
  5
1ee
100
AcDbEntity
  8
0
 62
7
100
AcDbPolyline
 90
2
 70
0
 10
58.345976
 20
214.847860
 30
0.0
 10
59.032370
 20
214.847860
 30
0.0
  0
LWPOLYLINE
  5
1ef
100
AcDbEntity
  8
0
 62
7
100
AcDbPolyline
 90
2
 70
0
 10
54.503529
 20
181.479379
 30
0.0
 10
55.156590
 20
182.243494
 30
0.0
  0
LWPOLYLINE
  5
1f0
100
AcDbEntity
  8
0
 62
7
100
AcDbPolyline
 90
7
 70
0
 10
56.236357
 20
181.443819
 30
0.0
 10
55.436258
 20
181.443819
 30
0.0
 10
55.436258
 20
181.875195
 30
0.0
 10
56.076901
 20
181.875195
 30
0.0
 10
55.436258
 20
181.875195
 30
0.0
 10
55.436258
 20
182.278772
 30
0.0
 10
56.232123
 20
182.278772
 30
0.0
  0
LWPOLYLINE
  5
1f1
100
AcDbEntity
  8
0
 62
7
100
AcDbPolyline
 90
5
 70
0
 10
56.401640
 20
181.448194
 30
0.0
 10
56.401640
 20
182.136956
 30
0.0
 10
57.005594
 20
182.136956
 30
0.0
 10
57.071917
 20
182.070634
 30
0.0
 10
57.071917
 20
181.443819
 30
0.0
  0
LWPOLYLINE
  5
1f2
100
AcDbEntity
  8
0
 62
7
100
AcDbPolyline
 90
3
 70
0
 10
57.241065
 20
182.137661
 30
0.0
 10
57.646053
 20
181.403744
 30
0.0
 10
58.072208
 20
182.146128
 30
0.0
  0
LWPOLYLINE
  5
1f3
100
AcDbEntity
  8
0
 62
7
100
AcDbPolyline
 90
2
 70
0
 10
89.201442
 20
181.519456
 30
0.0
 10
89.854503
 20
182.283571
 30
0.0
  0
LWPOLYLINE
  5
1f4
100
AcDbEntity
  8
0
 62
7
100
AcDbPolyline
 90
7
 70
0
 10
91.185693
 20
181.443820
 30
0.0
 10
90.385594
 20
181.443820
 30
0.0
 10
90.385594
 20
181.875196
 30
0.0
 10
91.026237
 20
181.875196
 30
0.0
 10
90.385594
 20
181.875196
 30
0.0
 10
90.385594
 20
182.278773
 30
0.0
 10
91.181459
 20
182.278773
 30
0.0
  0
LWPOLYLINE
  5
1f5
100
AcDbEntity
  8
0
 62
7
100
AcDbPolyline
 90
5
 70
0
 10
91.377789
 20
181.443820
 30
0.0
 10
91.377789
 20
182.132582
 30
0.0
 10
91.981744
 20
182.132582
 30
0.0
 10
92.048066
 20
182.066260
 30
0.0
 10
92.048066
 20
181.439446
 30
0.0
  0
LWPOLYLINE
  5
1f6
100
AcDbEntity
  8
0
 62
7
100
AcDbPolyline
 90
3
 70
0
 10
92.221631
 20
182.177738
 30
0.0
 10
92.626620
 20
181.443820
 30
0.0
 10
93.052774
 20
182.186204
 30
0.0
  0
LWPOLYLINE
  5
1f7
100
AcDbEntity
  8
0
 62
7
100
AcDbPolyline
 90
4
 70
1
 10
93.037395
 20
181.506191
 30
0.0
 10
93.037395
 20
181.457226
 30
0.0
 10
93.103717
 20
181.457226
 30
0.0
 10
93.103717
 20
181.506191
 30
0.0
  0
LWPOLYLINE
  5
1f8
100
AcDbEntity
  8
0
 62
7
100
AcDbPolyline
 90
10
 70
0
 10
93.471877
 20
181.452710
 30
0.0
 10
93.471877
 20
182.141049
 30
0.0
 10
93.947420
 20
182.141049
 30
0.0
 10
94.013743
 20
182.078960
 30
0.0
 10
94.013743
 20
181.439446
 30
0.0
 10
94.013743
 20
182.078960
 30
0.0
 10
94.075831
 20
182.141049
 30
0.0
 10
94.476586
 20
182.141049
 30
0.0
 10
94.547142
 20
182.070494
 30
0.0
 10
94.547142
 20
181.443820
 30
0.0
  0
LWPOLYLINE
  5
1f9
100
AcDbEntity
  8
0
 62
7
100
AcDbPolyline
 90
8
 70
1
 10
94.787085
 20
182.057794
 30
0.0
 10
94.787085
 20
181.563906
 30
0.0
 10
94.861873
 20
181.483896
 30
0.0
 10
95.378339
 20
181.483896
 30
0.0
 10
95.448895
 20
181.555016
 30
0.0
 10
95.448895
 20
182.088838
 30
0.0
 10
95.386806
 20
182.155160
 30
0.0
 10
94.875984
 20
182.155160
 30
0.0
  0
SPLINE
  5
1fa
100
AcDbEntity
  8
MODELSKETCH_VISIBLE
 62
7
100
AcDbSpline
 70
8
 71
3
 72
8
 73
4
 74
0
 40
0
 40
0
 40
0
 40
0
 40
1
 40
1
 40
1
 40
1
 10
115.079595
 20
200.070103
 30
0.0
 10
115.078675
 20
201.035948
 30
0.0
 10
114.295445
 20
201.818434
 30
0.0
 10
113.329598
 20
201.818434
 30
0.0
  0
SPLINE
  5
1fb
100
AcDbEntity
  8
MODELSKETCH_VISIBLE
 62
7
100
AcDbSpline
 70
8
 71
3
 72
8
 73
4
 74
0
 40
0
 40
0
 40
0
 40
0
 40
1
 40
1
 40
1
 40
1
 10
113.329598
 20
201.818434
 30
0.0
 10
112.363752
 20
201.818434
 30
0.0
 10
111.580521
 20
201.035948
 30
0.0
 10
111.579601
 20
200.070103
 30
0.0
  0
SPLINE
  5
1fc
100
AcDbEntity
  8
MODELSKETCH_VISIBLE
 62
7
100
AcDbSpline
 70
8
 71
3
 72
8
 73
4
 74
0
 40
0
 40
0
 40
0
 40
0
 40
1
 40
1
 40
1
 40
1
 10
111.579601
 20
200.070103
 30
0.0
 10
111.580521
 20
199.104257
 30
0.0
 10
112.363752
 20
198.321772
 30
0.0
 10
113.329598
 20
198.321772
 30
0.0
  0
SPLINE
  5
1fd
100
AcDbEntity
  8
MODELSKETCH_VISIBLE
 62
7
100
AcDbSpline
 70
8
 71
3
 72
8
 73
4
 74
0
 40
0
 40
0
 40
0
 40
0
 40
1
 40
1
 40
1
 40
1
 10
113.329598
 20
198.321772
 30
0.0
 10
114.295445
 20
198.321772
 30
0.0
 10
115.078675
 20
199.104257
 30
0.0
 10
115.079595
 20
200.070103
 30
0.0
  0
LWPOLYLINE
  5
1fe
100
AcDbEntity
  8
0
 62
7
100
AcDbPolyline
 90
8
 70
0
 10
96.400144
 20
182.426093
 30
0.0
 10
96.400144
 20
181.483896
 30
0.0
 10
95.790545
 20
181.483896
 30
0.0
 10
95.710676
 20
181.568280
 30
0.0
 10
95.710676
 20
182.062027
 30
0.0
 10
95.786312
 20
182.136816
 30
0.0
 10
96.328177
 20
182.136816
 30
0.0
 10
96.394500
 20
182.074727
 30
0.0
  0
SPLINE
  5
1ff
100
AcDbEntity
  8
MODELSKETCH_VISIBLE
 62
7
100
AcDbSpline
 70
8
 71
3
 72
8
 73
4
 74
0
 40
0
 40
0
 40
0
 40
0
 40
1
 40
1
 40
1
 40
1
 10
171.079526
 20
193.070112
 30
0.0
 10
171.079526
 20
194.409857
 30
0.0
 10
170.364781
 20
195.647832
 30
0.0
 10
169.204529
 20
196.317704
 30
0.0
  0
SPLINE
  5
200
100
AcDbEntity
  8
MODELSKETCH_VISIBLE
 62
7
100
AcDbSpline
 70
8
 71
3
 72
8
 73
4
 74
0
 40
0
 40
0
 40
0
 40
0
 40
1
 40
1
 40
1
 40
1
 10
169.204529
 20
196.317704
 30
0.0
 10
168.044276
 20
196.987576
 30
0.0
 10
166.614786
 20
196.987576
 30
0.0
 10
165.454533
 20
196.317704
 30
0.0
  0
SPLINE
  5
201
100
AcDbEntity
  8
MODELSKETCH_VISIBLE
 62
7
100
AcDbSpline
 70
8
 71
3
 72
8
 73
4
 74
0
 40
0
 40
0
 40
0
 40
0
 40
1
 40
1
 40
1
 40
1
 10
165.454533
 20
196.317704
 30
0.0
 10
164.294280
 20
195.647832
 30
0.0
 10
163.579535
 20
194.409857
 30
0.0
 10
163.579535
 20
193.070112
 30
0.0
  0
SPLINE
  5
202
100
AcDbEntity
  8
MODELSKETCH_VISIBLE
 62
7
100
AcDbSpline
 70
8
 71
3
 72
8
 73
4
 74
0
 40
0
 40
0
 40
0
 40
0
 40
1
 40
1
 40
1
 40
1
 10
163.579535
 20
193.070112
 30
0.0
 10
163.579535
 20
191.730368
 30
0.0
 10
164.294280
 20
190.492393
 30
0.0
 10
165.454533
 20
189.822521
 30
0.0
  0
SPLINE
  5
203
100
AcDbEntity
  8
MODELSKETCH_VISIBLE
 62
7
100
AcDbSpline
 70
8
 71
3
 72
8
 73
4
 74
0
 40
0
 40
0
 40
0
 40
0
 40
1
 40
1
 40
1
 40
1
 10
165.454533
 20
189.822521
 30
0.0
 10
166.614786
 20
189.152649
 30
0.0
 10
168.044276
 20
189.152649
 30
0.0
 10
169.204529
 20
189.822521
 30
0.0
  0
SPLINE
  5
204
100
AcDbEntity
  8
MODELSKETCH_VISIBLE
 62
7
100
AcDbSpline
 70
8
 71
3
 72
8
 73
4
 74
0
 40
0
 40
0
 40
0
 40
0
 40
1
 40
1
 40
1
 40
1
 10
169.204529
 20
189.822521
 30
0.0
 10
170.364781
 20
190.492393
 30
0.0
 10
171.079526
 20
191.730368
 30
0.0
 10
171.079526
 20
193.070112
 30
0.0
  0
LWPOLYLINE
  5
205
100
AcDbEntity
  8
MODELSKETCH_VISIBLE
 62
7
100
AcDbPolyline
 90
1
 70
1
 10
115.079595
 20
200.070103
 30
0.0
  0
SPLINE
  5
206
100
AcDbEntity
  8
MODELSKETCH_VISIBLE
 62
7
100
AcDbSpline
 70
8
 71
3
 72
8
 73
4
 74
0
 40
0
 40
0
 40
0
 40
0
 40
1
 40
1
 40
1
 40
1
 10
135.079570
 20
193.070112
 30
0.0
 10
135.078223
 20
195.140224
 30
0.0
 10
133.399688
 20
196.817668
 30
0.0
 10
131.329575
 20
196.817668
 30
0.0
  0
SPLINE
  5
207
100
AcDbEntity
  8
MODELSKETCH_VISIBLE
 62
7
100
AcDbSpline
 70
8
 71
3
 72
8
 73
4
 74
0
 40
0
 40
0
 40
0
 40
0
 40
1
 40
1
 40
1
 40
1
 10
131.329575
 20
196.817668
 30
0.0
 10
129.259463
 20
196.817668
 30
0.0
 10
127.580928
 20
195.140224
 30
0.0
 10
127.579581
 20
193.070112
 30
0.0
  0
SPLINE
  5
208
100
AcDbEntity
  8
MODELSKETCH_VISIBLE
 62
7
100
AcDbSpline
 70
8
 71
3
 72
8
 73
4
 74
0
 40
0
 40
0
 40
0
 40
0
 40
1
 40
1
 40
1
 40
1
 10
127.579581
 20
193.070112
 30
0.0
 10
127.580928
 20
191.000000
 30
0.0
 10
129.259463
 20
189.322557
 30
0.0
 10
131.329575
 20
189.322557
 30
0.0
  0
SPLINE
  5
209
100
AcDbEntity
  8
MODELSKETCH_VISIBLE
 62
7
100
AcDbSpline
 70
8
 71
3
 72
8
 73
4
 74
0
 40
0
 40
0
 40
0
 40
0
 40
1
 40
1
 40
1
 40
1
 10
131.329575
 20
189.322557
 30
0.0
 10
133.399688
 20
189.322557
 30
0.0
 10
135.078223
 20
191.000000
 30
0.0
 10
135.079570
 20
193.070112
 30
0.0
  0
LWPOLYLINE
  5
20a
100
AcDbEntity
  8
MODELSKETCH_VISIBLE
 62
7
100
AcDbPolyline
 90
1
 70
1
 10
171.079526
 20
193.070112
 30
0.0
  0
SPLINE
  5
20b
100
AcDbEntity
  8
MODELSKETCH_VISIBLE
 62
7
100
AcDbSpline
 70
8
 71
3
 72
8
 73
4
 74
0
 40
0
 40
0
 40
0
 40
0
 40
1
 40
1
 40
1
 40
1
 10
90.079626
 20
193.070112
 30
0.0
 10
90.078280
 20
195.140224
 30
0.0
 10
88.399744
 20
196.817668
 30
0.0
 10
86.329632
 20
196.817668
 30
0.0
  0
SPLINE
  5
20c
100
AcDbEntity
  8
MODELSKETCH_VISIBLE
 62
7
100
AcDbSpline
 70
8
 71
3
 72
8
 73
4
 74
0
 40
0
 40
0
 40
0
 40
0
 40
1
 40
1
 40
1
 40
1
 10
86.329632
 20
196.817668
 30
0.0
 10
84.259520
 20
196.817668
 30
0.0
 10
82.580985
 20
195.140224
 30
0.0
 10
82.579638
 20
193.070112
 30
0.0
  0
SPLINE
  5
20d
100
AcDbEntity
  8
MODELSKETCH_VISIBLE
 62
7
100
AcDbSpline
 70
8
 71
3
 72
8
 73
4
 74
0
 40
0
 40
0
 40
0
 40
0
 40
1
 40
1
 40
1
 40
1
 10
82.579638
 20
193.070112
 30
0.0
 10
82.580985
 20
191.000000
 30
0.0
 10
84.259520
 20
189.322557
 30
0.0
 10
86.329632
 20
189.322557
 30
0.0
  0
SPLINE
  5
20e
100
AcDbEntity
  8
MODELSKETCH_VISIBLE
 62
7
100
AcDbSpline
 70
8
 71
3
 72
8
 73
4
 74
0
 40
0
 40
0
 40
0
 40
0
 40
1
 40
1
 40
1
 40
1
 10
86.329632
 20
189.322557
 30
0.0
 10
88.399744
 20
189.322557
 30
0.0
 10
90.078280
 20
191.000000
 30
0.0
 10
90.079626
 20
193.070112
 30
0.0
  0
LWPOLYLINE
  5
20f
100
AcDbEntity
  8
MODELSKETCH_VISIBLE
 62
7
100
AcDbPolyline
 90
1
 70
1
 10
135.079570
 20
193.070112
 30
0.0
  0
SPLINE
  5
210
100
AcDbEntity
  8
MODELSKETCH_VISIBLE
 62
7
100
AcDbSpline
 70
8
 71
3
 72
8
 73
4
 74
0
 40
0
 40
0
 40
0
 40
0
 40
1
 40
1
 40
1
 40
1
 10
149.829553
 20
153.070163
 30
0.0
 10
149.829553
 20
152.517880
 30
0.0
 10
150.277267
 20
152.070165
 30
0.0
 10
150.829550
 20
152.070164
 30
0.0
  0
SPLINE
  5
211
100
AcDbEntity
  8
MODELSKETCH_VISIBLE
 62
7
100
AcDbSpline
 70
8
 71
3
 72
8
 73
4
 74
0
 40
0
 40
0
 40
0
 40
0
 40
1
 40
1
 40
1
 40
1
 10
162.079537
 20
223.070075
 30
0.0
 10
162.079537
 20
225.141141
 30
0.0
 10
160.400607
 20
226.820071
 30
0.0
 10
158.329542
 20
226.820071
 30
0.0
  0
SPLINE
  5
212
100
AcDbEntity
  8
MODELSKETCH_VISIBLE
 62
7
100
AcDbSpline
 70
8
 71
3
 72
8
 73
4
 74
0
 40
0
 40
0
 40
0
 40
0
 40
1
 40
1
 40
1
 40
1
 10
158.329542
 20
226.820071
 30
0.0
 10
156.258476
 20
226.820071
 30
0.0
 10
154.579546
 20
225.141141
 30
0.0
 10
154.579546
 20
223.070075
 30
0.0
  0
SPLINE
  5
213
100
AcDbEntity
  8
MODELSKETCH_VISIBLE
 62
7
100
AcDbSpline
 70
8
 71
3
 72
8
 73
4
 74
0
 40
0
 40
0
 40
0
 40
0
 40
1
 40
1
 40
1
 40
1
 10
154.579546
 20
223.070075
 30
0.0
 10
154.579546
 20
220.999010
 30
0.0
 10
156.258476
 20
219.320080
 30
0.0
 10
158.329542
 20
219.320080
 30
0.0
  0
SPLINE
  5
214
100
AcDbEntity
  8
MODELSKETCH_VISIBLE
 62
7
100
AcDbSpline
 70
8
 71
3
 72
8
 73
4
 74
0
 40
0
 40
0
 40
0
 40
0
 40
1
 40
1
 40
1
 40
1
 10
158.329542
 20
219.320080
 30
0.0
 10
160.400607
 20
219.320080
 30
0.0
 10
162.079537
 20
220.999010
 30
0.0
 10
162.079537
 20
223.070075
 30
0.0
  0
LWPOLYLINE
  5
215
100
AcDbEntity
  8
MODELSKETCH_VISIBLE
 62
7
100
AcDbPolyline
 90
1
 70
1
 10
90.079626
 20
193.070112
 30
0.0
  0
SPLINE
  5
216
100
AcDbEntity
  8
MODELSKETCH_VISIBLE
 62
7
100
AcDbSpline
 70
8
 71
3
 72
8
 73
4
 74
0
 40
0
 40
0
 40
0
 40
0
 40
1
 40
1
 40
1
 40
1
 10
165.829533
 20
152.070164
 30
0.0
 10
166.381816
 20
152.070165
 30
0.0
 10
166.829530
 20
152.517880
 30
0.0
 10
166.829530
 20
153.070163
 30
0.0
  0
SPLINE
  5
217
100
AcDbEntity
  8
MODELSKETCH_VISIBLE
 62
7
100
AcDbSpline
 70
8
 71
3
 72
8
 73
4
 74
0
 40
0
 40
0
 40
0
 40
0
 40
1
 40
1
 40
1
 40
1
 10
166.829530
 20
177.070133
 30
0.0
 10
166.829530
 20
177.622416
 30
0.0
 10
166.381816
 20
178.070131
 30
0.0
 10
165.829533
 20
178.070132
 30
0.0
  0
SPLINE
  5
218
100
AcDbEntity
  8
MODELSKETCH_VISIBLE
 62
7
100
AcDbSpline
 70
8
 71
3
 72
8
 73
4
 74
0
 40
0
 40
0
 40
0
 40
0
 40
1
 40
1
 40
1
 40
1
 10
90.079626
 20
223.070075
 30
0.0
 10
90.078280
 20
225.140187
 30
0.0
 10
88.399744
 20
226.817631
 30
0.0
 10
86.329632
 20
226.817631
 30
0.0
  0
SPLINE
  5
219
100
AcDbEntity
  8
MODELSKETCH_VISIBLE
 62
7
100
AcDbSpline
 70
8
 71
3
 72
8
 73
4
 74
0
 40
0
 40
0
 40
0
 40
0
 40
1
 40
1
 40
1
 40
1
 10
86.329632
 20
226.817631
 30
0.0
 10
84.259520
 20
226.817631
 30
0.0
 10
82.580985
 20
225.140187
 30
0.0
 10
82.579638
 20
223.070075
 30
0.0
  0
SPLINE
  5
21a
100
AcDbEntity
  8
MODELSKETCH_VISIBLE
 62
7
100
AcDbSpline
 70
8
 71
3
 72
8
 73
4
 74
0
 40
0
 40
0
 40
0
 40
0
 40
1
 40
1
 40
1
 40
1
 10
82.579638
 20
223.070075
 30
0.0
 10
82.580985
 20
220.999963
 30
0.0
 10
84.259520
 20
219.322520
 30
0.0
 10
86.329632
 20
219.322520
 30
0.0
  0
SPLINE
  5
21b
100
AcDbEntity
  8
MODELSKETCH_VISIBLE
 62
7
100
AcDbSpline
 70
8
 71
3
 72
8
 73
4
 74
0
 40
0
 40
0
 40
0
 40
0
 40
1
 40
1
 40
1
 40
1
 10
86.329632
 20
219.322520
 30
0.0
 10
88.399744
 20
219.322520
 30
0.0
 10
90.078280
 20
220.999963
 30
0.0
 10
90.079626
 20
223.070075
 30
0.0
  0
LWPOLYLINE
  5
21c
100
AcDbEntity
  8
MODELSKETCH_VISIBLE
 62
7
100
AcDbPolyline
 90
1
 70
1
 10
162.079537
 20
223.070075
 30
0.0
  0
SPLINE
  5
21d
100
AcDbEntity
  8
MODELSKETCH_VISIBLE
 62
7
100
AcDbSpline
 70
8
 71
3
 72
8
 73
4
 74
0
 40
0
 40
0
 40
0
 40
0
 40
1
 40
1
 40
1
 40
1
 10
150.829550
 20
178.070132
 30
0.0
 10
150.277267
 20
178.070131
 30
0.0
 10
149.829553
 20
177.622416
 30
0.0
 10
149.829553
 20
177.070133
 30
0.0
  0
LWPOLYLINE
  5
21e
100
AcDbEntity
  8
MODELSKETCH_VISIBLE
 62
7
100
AcDbPolyline
 90
1
 70
1
 10
90.079626
 20
223.070075
 30
0.0
  0
SPLINE
  5
21f
100
AcDbEntity
  8
MODELSKETCH_VISIBLE
 62
7
100
AcDbSpline
 70
8
 71
3
 72
8
 73
4
 74
0
 40
0
 40
0
 40
0
 40
0
 40
1
 40
1
 40
1
 40
1
 10
130.829576
 20
177.070133
 30
0.0
 10
130.829576
 20
177.622416
 30
0.0
 10
130.381862
 20
178.070131
 30
0.0
 10
129.829579
 20
178.070132
 30
0.0
  0
LWPOLYLINE
  5
220
100
AcDbEntity
  8
MODELSKETCH_VISIBLE
 62
7
100
AcDbPolyline
 90
2
 70
0
 10
166.829405
 20
177.070694
 30
0.0
 10
166.829405
 20
153.070370
 30
0.0
  0
SPLINE
  5
221
100
AcDbEntity
  8
MODELSKETCH_VISIBLE
 62
7
100
AcDbSpline
 70
8
 71
3
 72
8
 73
4
 74
0
 40
0
 40
0
 40
0
 40
0
 40
1
 40
1
 40
1
 40
1
 10
54.079672
 20
193.070112
 30
0.0
 10
54.078117
 20
195.140077
 30
0.0
 10
52.399643
 20
196.817290
 30
0.0
 10
50.329678
 20
196.817290
 30
0.0
  0
SPLINE
  5
222
100
AcDbEntity
  8
MODELSKETCH_VISIBLE
 62
7
100
AcDbSpline
 70
8
 71
3
 72
8
 73
4
 74
0
 40
0
 40
0
 40
0
 40
0
 40
1
 40
1
 40
1
 40
1
 10
50.329678
 20
196.817290
 30
0.0
 10
48.259713
 20
196.817290
 30
0.0
 10
46.581239
 20
195.140077
 30
0.0
 10
46.579684
 20
193.070112
 30
0.0
  0
SPLINE
  5
223
100
AcDbEntity
  8
MODELSKETCH_VISIBLE
 62
7
100
AcDbSpline
 70
8
 71
3
 72
8
 73
4
 74
0
 40
0
 40
0
 40
0
 40
0
 40
1
 40
1
 40
1
 40
1
 10
46.579684
 20
193.070112
 30
0.0
 10
46.581239
 20
191.000148
 30
0.0
 10
48.259713
 20
189.322934
 30
0.0
 10
50.329678
 20
189.322934
 30
0.0
  0
SPLINE
  5
224
100
AcDbEntity
  8
MODELSKETCH_VISIBLE
 62
7
100
AcDbSpline
 70
8
 71
3
 72
8
 73
4
 74
0
 40
0
 40
0
 40
0
 40
0
 40
1
 40
1
 40
1
 40
1
 10
50.329678
 20
189.322934
 30
0.0
 10
52.399643
 20
189.322934
 30
0.0
 10
54.078117
 20
191.000148
 30
0.0
 10
54.079672
 20
193.070112
 30
0.0
  0
LWPOLYLINE
  5
225
100
AcDbEntity
  8
MODELSKETCH_VISIBLE
 62
7
100
AcDbPolyline
 90
2
 70
0
 10
149.829683
 20
177.070694
 30
0.0
 10
149.829683
 20
153.070370
 30
0.0
  0
SPLINE
  5
226
100
AcDbEntity
  8
MODELSKETCH_VISIBLE
 62
7
100
AcDbSpline
 70
8
 71
3
 72
8
 73
4
 74
0
 40
0
 40
0
 40
0
 40
0
 40
1
 40
1
 40
1
 40
1
 10
25.329710
 20
150.570166
 30
0.0
 10
25.329709
 20
147.808746
 30
0.0
 10
27.568282
 20
145.570172
 30
0.0
 10
30.329702
 20
145.570172
 30
0.0
  0
SPLINE
  5
227
100
AcDbEntity
  8
MODELSKETCH_VISIBLE
 62
7
100
AcDbSpline
 70
8
 71
3
 72
8
 73
4
 74
0
 40
0
 40
0
 40
0
 40
0
 40
1
 40
1
 40
1
 40
1
 10
178.329516
 20
145.570172
 30
0.0
 10
179.655597
 20
145.570172
 30
0.0
 10
180.927365
 20
146.096955
 30
0.0
 10
181.865046
 20
147.034636
 30
0.0
  0
SPLINE
  5
228
100
AcDbEntity
  8
MODELSKETCH_VISIBLE
 62
7
100
AcDbSpline
 70
8
 71
3
 72
8
 73
4
 74
0
 40
0
 40
0
 40
0
 40
0
 40
1
 40
1
 40
1
 40
1
 10
181.865046
 20
147.034636
 30
0.0
 10
182.802727
 20
147.972317
 30
0.0
 10
183.329510
 20
149.244085
 30
0.0
 10
183.329510
 20
150.570166
 30
0.0
  0
SPLINE
  5
229
100
AcDbEntity
  8
MODELSKETCH_VISIBLE
 62
7
100
AcDbSpline
 70
8
 71
3
 72
8
 73
4
 74
0
 40
0
 40
0
 40
0
 40
0
 40
1
 40
1
 40
1
 40
1
 10
169.079528
 20
200.070103
 30
0.0
 10
169.078608
 20
201.035948
 30
0.0
 10
168.295377
 20
201.818434
 30
0.0
 10
167.329531
 20
201.818434
 30
0.0
  0
SPLINE
  5
22a
100
AcDbEntity
  8
MODELSKETCH_VISIBLE
 62
7
100
AcDbSpline
 70
8
 71
3
 72
8
 73
4
 74
0
 40
0
 40
0
 40
0
 40
0
 40
1
 40
1
 40
1
 40
1
 10
167.329531
 20
201.818434
 30
0.0
 10
166.363685
 20
201.818434
 30
0.0
 10
165.580454
 20
201.035948
 30
0.0
 10
165.579534
 20
200.070103
 30
0.0
  0
SPLINE
  5
22b
100
AcDbEntity
  8
MODELSKETCH_VISIBLE
 62
7
100
AcDbSpline
 70
8
 71
3
 72
8
 73
4
 74
0
 40
0
 40
0
 40
0
 40
0
 40
1
 40
1
 40
1
 40
1
 10
165.579534
 20
200.070103
 30
0.0
 10
165.580454
 20
199.104257
 30
0.0
 10
166.363685
 20
198.321772
 30
0.0
 10
167.329531
 20
198.321772
 30
0.0
  0
SPLINE
  5
22c
100
AcDbEntity
  8
MODELSKETCH_VISIBLE
 62
7
100
AcDbSpline
 70
8
 71
3
 72
8
 73
4
 74
0
 40
0
 40
0
 40
0
 40
0
 40
1
 40
1
 40
1
 40
1
 10
167.329531
 20
198.321772
 30
0.0
 10
168.295377
 20
198.321772
 30
0.0
 10
169.078608
 20
199.104257
 30
0.0
 10
169.079528
 20
200.070103
 30
0.0
  0
LWPOLYLINE
  5
22d
100
AcDbEntity
  8
MODELSKETCH_VISIBLE
 62
7
100
AcDbPolyline
 90
1
 70
1
 10
54.079672
 20
193.070112
 30
0.0
  0
SPLINE
  5
22e
100
AcDbEntity
  8
MODELSKETCH_VISIBLE
 62
7
100
AcDbSpline
 70
8
 71
3
 72
8
 73
4
 74
0
 40
0
 40
0
 40
0
 40
0
 40
1
 40
1
 40
1
 40
1
 10
121.079589
 20
200.070103
 30
0.0
 10
121.079589
 20
200.695317
 30
0.0
 10
120.746041
 20
201.273039
 30
0.0
 10
120.204590
 20
201.585646
 30
0.0
  0
SPLINE
  5
22f
100
AcDbEntity
  8
MODELSKETCH_VISIBLE
 62
7
100
AcDbSpline
 70
8
 71
3
 72
8
 73
4
 74
0
 40
0
 40
0
 40
0
 40
0
 40
1
 40
1
 40
1
 40
1
 10
120.204590
 20
201.585646
 30
0.0
 10
119.663138
 20
201.898253
 30
0.0
 10
118.996043
 20
201.898253
 30
0.0
 10
118.454592
 20
201.585646
 30
0.0
  0
SPLINE
  5
230
100
AcDbEntity
  8
MODELSKETCH_VISIBLE
 62
7
100
AcDbSpline
 70
8
 71
3
 72
8
 73
4
 74
0
 40
0
 40
0
 40
0
 40
0
 40
1
 40
1
 40
1
 40
1
 10
118.454592
 20
201.585646
 30
0.0
 10
117.913140
 20
201.273039
 30
0.0
 10
117.579592
 20
200.695317
 30
0.0
 10
117.579592
 20
200.070103
 30
0.0
  0
SPLINE
  5
231
100
AcDbEntity
  8
MODELSKETCH_VISIBLE
 62
7
100
AcDbSpline
 70
8
 71
3
 72
8
 73
4
 74
0
 40
0
 40
0
 40
0
 40
0
 40
1
 40
1
 40
1
 40
1
 10
117.579592
 20
200.070103
 30
0.0
 10
117.579592
 20
199.444889
 30
0.0
 10
117.913140
 20
198.867167
 30
0.0
 10
118.454592
 20
198.554560
 30
0.0
  0
SPLINE
  5
232
100
AcDbEntity
  8
MODELSKETCH_VISIBLE
 62
7
100
AcDbSpline
 70
8
 71
3
 72
8
 73
4
 74
0
 40
0
 40
0
 40
0
 40
0
 40
1
 40
1
 40
1
 40
1
 10
118.454592
 20
198.554560
 30
0.0
 10
118.996043
 20
198.241953
 30
0.0
 10
119.663138
 20
198.241953
 30
0.0
 10
120.204590
 20
198.554560
 30
0.0
  0
SPLINE
  5
233
100
AcDbEntity
  8
MODELSKETCH_VISIBLE
 62
7
100
AcDbSpline
 70
8
 71
3
 72
8
 73
4
 74
0
 40
0
 40
0
 40
0
 40
0
 40
1
 40
1
 40
1
 40
1
 10
120.204590
 20
198.554560
 30
0.0
 10
120.746041
 20
198.867167
 30
0.0
 10
121.079589
 20
199.444889
 30
0.0
 10
121.079589
 20
200.070103
 30
0.0
  0
LWPOLYLINE
  5
234
100
AcDbEntity
  8
MODELSKETCH_VISIBLE
 62
7
100
AcDbPolyline
 90
1
 70
1
 10
169.079528
 20
200.070103
 30
0.0
  0
LWPOLYLINE
  5
235
100
AcDbEntity
  8
MODELSKETCH_VISIBLE
 62
7
100
AcDbPolyline
 90
1
 70
1
 10
121.079589
 20
200.070103
 30
0.0
  0
SPLINE
  5
236
100
AcDbEntity
  8
MODELSKETCH_VISIBLE
 62
7
100
AcDbSpline
 70
8
 71
3
 72
8
 73
4
 74
0
 40
0
 40
0
 40
0
 40
0
 40
1
 40
1
 40
1
 40
1
 10
30.329702
 20
240.570053
 30
0.0
 10
27.568282
 20
240.570052
 30
0.0
 10
25.329709
 20
238.331478
 30
0.0
 10
25.329710
 20
235.570058
 30
0.0
  0
LWPOLYLINE
  5
237
100
AcDbEntity
  8
MODELSKETCH_VISIBLE
 62
7
100
AcDbPolyline
 90
2
 70
0
 10
41.829813
 20
153.070370
 30
0.0
 10
41.829813
 20
177.070694
 30
0.0
  0
LWPOLYLINE
  5
238
100
AcDbEntity
  8
MODELSKETCH_VISIBLE
 62
7
100
AcDbPolyline
 90
2
 70
0
 10
58.829535
 20
153.070370
 30
0.0
 10
58.829535
 20
177.070694
 30
0.0
  0
LWPOLYLINE
  5
239
100
AcDbEntity
  8
MODELSKETCH_VISIBLE
 62
7
100
AcDbPolyline
 90
2
 70
0
 10
183.329595
 20
235.569995
 30
0.0
 10
183.329595
 20
150.570060
 30
0.0
  0
SPLINE
  5
23a
100
AcDbEntity
  8
MODELSKETCH_VISIBLE
 62
7
100
AcDbSpline
 70
8
 71
3
 72
8
 73
4
 74
0
 40
0
 40
0
 40
0
 40
0
 40
1
 40
1
 40
1
 40
1
 10
117.079594
 20
193.070112
 30
0.0
 10
117.079594
 20
195.141178
 30
0.0
 10
115.400664
 20
196.820108
 30
0.0
 10
113.329598
 20
196.820108
 30
0.0
  0
SPLINE
  5
23b
100
AcDbEntity
  8
MODELSKETCH_VISIBLE
 62
7
100
AcDbSpline
 70
8
 71
3
 72
8
 73
4
 74
0
 40
0
 40
0
 40
0
 40
0
 40
1
 40
1
 40
1
 40
1
 10
113.329598
 20
196.820108
 30
0.0
 10
111.258533
 20
196.820108
 30
0.0
 10
109.579603
 20
195.141178
 30
0.0
 10
109.579603
 20
193.070112
 30
0.0
  0
SPLINE
  5
23c
100
AcDbEntity
  8
MODELSKETCH_VISIBLE
 62
7
100
AcDbSpline
 70
8
 71
3
 72
8
 73
4
 74
0
 40
0
 40
0
 40
0
 40
0
 40
1
 40
1
 40
1
 40
1
 10
109.579603
 20
193.070112
 30
0.0
 10
109.579603
 20
191.730368
 30
0.0
 10
110.294348
 20
190.492393
 30
0.0
 10
111.454600
 20
189.822521
 30
0.0
  0
SPLINE
  5
23d
100
AcDbEntity
  8
MODELSKETCH_VISIBLE
 62
7
100
AcDbSpline
 70
8
 71
3
 72
8
 73
4
 74
0
 40
0
 40
0
 40
0
 40
0
 40
1
 40
1
 40
1
 40
1
 10
111.454600
 20
189.822521
 30
0.0
 10
112.614853
 20
189.152649
 30
0.0
 10
114.044343
 20
189.152649
 30
0.0
 10
115.204596
 20
189.822521
 30
0.0
  0
SPLINE
  5
23e
100
AcDbEntity
  8
MODELSKETCH_VISIBLE
 62
7
100
AcDbSpline
 70
8
 71
3
 72
8
 73
4
 74
0
 40
0
 40
0
 40
0
 40
0
 40
1
 40
1
 40
1
 40
1
 10
115.204596
 20
189.822521
 30
0.0
 10
116.364849
 20
190.492393
 30
0.0
 10
117.079594
 20
191.730368
 30
0.0
 10
117.079594
 20
193.070112
 30
0.0
  0
LWPOLYLINE
  5
23f
100
AcDbEntity
  8
MODELSKETCH_VISIBLE
 62
7
100
AcDbPolyline
 90
2
 70
0
 10
57.829676
 20
178.070817
 30
0.0
 10
42.829672
 20
178.070817
 30
0.0
  0
LWPOLYLINE
  5
240
100
AcDbEntity
  8
MODELSKETCH_VISIBLE
 62
7
100
AcDbPolyline
 90
1
 70
1
 10
117.079594
 20
193.070112
 30
0.0
  0
SPLINE
  5
241
100
AcDbEntity
  8
MODELSKETCH_VISIBLE
 62
7
100
AcDbSpline
 70
8
 71
3
 72
8
 73
4
 74
0
 40
0
 40
0
 40
0
 40
0
 40
1
 40
1
 40
1
 40
1
 10
136.079569
 20
200.070103
 30
0.0
 10
136.078649
 20
201.035948
 30
0.0
 10
135.295418
 20
201.818434
 30
0.0
 10
134.329572
 20
201.818434
 30
0.0
  0
SPLINE
  5
242
100
AcDbEntity
  8
MODELSKETCH_VISIBLE
 62
7
100
AcDbSpline
 70
8
 71
3
 72
8
 73
4
 74
0
 40
0
 40
0
 40
0
 40
0
 40
1
 40
1
 40
1
 40
1
 10
134.329572
 20
201.818434
 30
0.0
 10
133.363726
 20
201.818434
 30
0.0
 10
132.580495
 20
201.035948
 30
0.0
 10
132.579575
 20
200.070103
 30
0.0
  0
SPLINE
  5
243
100
AcDbEntity
  8
MODELSKETCH_VISIBLE
 62
7
100
AcDbSpline
 70
8
 71
3
 72
8
 73
4
 74
0
 40
0
 40
0
 40
0
 40
0
 40
1
 40
1
 40
1
 40
1
 10
132.579575
 20
200.070103
 30
0.0
 10
132.580495
 20
199.104257
 30
0.0
 10
133.363726
 20
198.321772
 30
0.0
 10
134.329572
 20
198.321772
 30
0.0
  0
SPLINE
  5
244
100
AcDbEntity
  8
MODELSKETCH_VISIBLE
 62
7
100
AcDbSpline
 70
8
 71
3
 72
8
 73
4
 74
0
 40
0
 40
0
 40
0
 40
0
 40
1
 40
1
 40
1
 40
1
 10
134.329572
 20
198.321772
 30
0.0
 10
135.295418
 20
198.321772
 30
0.0
 10
136.078649
 20
199.104257
 30
0.0
 10
136.079569
 20
200.070103
 30
0.0
  0
LWPOLYLINE
  5
245
100
AcDbEntity
  8
MODELSKETCH_VISIBLE
 62
7
100
AcDbPolyline
 90
2
 70
0
 10
25.329624
 20
235.569995
 30
0.0
 10
25.329624
 20
150.570060
 30
0.0
  0
SPLINE
  5
246
100
AcDbEntity
  8
MODELSKETCH_VISIBLE
 62
7
100
AcDbSpline
 70
8
 71
3
 72
8
 73
4
 74
0
 40
0
 40
0
 40
0
 40
0
 40
1
 40
1
 40
1
 40
1
 10
183.329510
 20
235.570058
 30
0.0
 10
183.329510
 20
236.896139
 30
0.0
 10
182.802727
 20
238.167908
 30
0.0
 10
181.865046
 20
239.105588
 30
0.0
  0
SPLINE
  5
247
100
AcDbEntity
  8
MODELSKETCH_VISIBLE
 62
7
100
AcDbSpline
 70
8
 71
3
 72
8
 73
4
 74
0
 40
0
 40
0
 40
0
 40
0
 40
1
 40
1
 40
1
 40
1
 10
181.865046
 20
239.105588
 30
0.0
 10
180.927365
 20
240.043269
 30
0.0
 10
179.655597
 20
240.570053
 30
0.0
 10
178.329516
 20
240.570053
 30
0.0
  0
SPLINE
  5
248
100
AcDbEntity
  8
MODELSKETCH_VISIBLE
 62
7
100
AcDbSpline
 70
8
 71
3
 72
8
 73
4
 74
0
 40
0
 40
0
 40
0
 40
0
 40
1
 40
1
 40
1
 40
1
 10
114.829596
 20
178.070132
 30
0.0
 10
114.564380
 20
178.070132
 30
0.0
 10
114.310026
 20
177.964775
 30
0.0
 10
114.122490
 20
177.777239
 30
0.0
  0
SPLINE
  5
249
100
AcDbEntity
  8
MODELSKETCH_VISIBLE
 62
7
100
AcDbSpline
 70
8
 71
3
 72
8
 73
4
 74
0
 40
0
 40
0
 40
0
 40
0
 40
1
 40
1
 40
1
 40
1
 10
114.122490
 20
177.777239
 30
0.0
 10
113.934953
 20
177.589703
 30
0.0
 10
113.829597
 20
177.335349
 30
0.0
 10
113.829597
 20
177.070133
 30
0.0
  0
SPLINE
  5
24a
100
AcDbEntity
  8
MODELSKETCH_VISIBLE
 62
7
100
AcDbSpline
 70
8
 71
3
 72
8
 73
4
 74
0
 40
0
 40
0
 40
0
 40
0
 40
1
 40
1
 40
1
 40
1
 10
151.079552
 20
200.070103
 30
0.0
 10
151.079552
 20
200.695317
 30
0.0
 10
150.746004
 20
201.273039
 30
0.0
 10
150.204553
 20
201.585646
 30
0.0
  0
SPLINE
  5
24b
100
AcDbEntity
  8
MODELSKETCH_VISIBLE
 62
7
100
AcDbSpline
 70
8
 71
3
 72
8
 73
4
 74
0
 40
0
 40
0
 40
0
 40
0
 40
1
 40
1
 40
1
 40
1
 10
150.204553
 20
201.585646
 30
0.0
 10
149.663101
 20
201.898253
 30
0.0
 10
148.996006
 20
201.898253
 30
0.0
 10
148.454555
 20
201.585646
 30
0.0
  0
SPLINE
  5
24c
100
AcDbEntity
  8
MODELSKETCH_VISIBLE
 62
7
100
AcDbSpline
 70
8
 71
3
 72
8
 73
4
 74
0
 40
0
 40
0
 40
0
 40
0
 40
1
 40
1
 40
1
 40
1
 10
148.454555
 20
201.585646
 30
0.0
 10
147.913103
 20
201.273039
 30
0.0
 10
147.579555
 20
200.695317
 30
0.0
 10
147.579555
 20
200.070103
 30
0.0
  0
SPLINE
  5
24d
100
AcDbEntity
  8
MODELSKETCH_VISIBLE
 62
7
100
AcDbSpline
 70
8
 71
3
 72
8
 73
4
 74
0
 40
0
 40
0
 40
0
 40
0
 40
1
 40
1
 40
1
 40
1
 10
147.579555
 20
200.070103
 30
0.0
 10
147.579555
 20
199.444889
 30
0.0
 10
147.913103
 20
198.867167
 30
0.0
 10
148.454555
 20
198.554560
 30
0.0
  0
SPLINE
  5
24e
100
AcDbEntity
  8
MODELSKETCH_VISIBLE
 62
7
100
AcDbSpline
 70
8
 71
3
 72
8
 73
4
 74
0
 40
0
 40
0
 40
0
 40
0
 40
1
 40
1
 40
1
 40
1
 10
148.454555
 20
198.554560
 30
0.0
 10
148.996006
 20
198.241953
 30
0.0
 10
149.663101
 20
198.241953
 30
0.0
 10
150.204553
 20
198.554560
 30
0.0
  0
SPLINE
  5
24f
100
AcDbEntity
  8
MODELSKETCH_VISIBLE
 62
7
100
AcDbSpline
 70
8
 71
3
 72
8
 73
4
 74
0
 40
0
 40
0
 40
0
 40
0
 40
1
 40
1
 40
1
 40
1
 10
150.204553
 20
198.554560
 30
0.0
 10
150.746004
 20
198.867167
 30
0.0
 10
151.079552
 20
199.444889
 30
0.0
 10
151.079552
 20
200.070103
 30
0.0
  0
LWPOLYLINE
  5
250
100
AcDbEntity
  8
MODELSKETCH_VISIBLE
 62
7
100
AcDbPolyline
 90
1
 70
1
 10
136.079569
 20
200.070103
 30
0.0
  0
SPLINE
  5
251
100
AcDbEntity
  8
MODELSKETCH_VISIBLE
 62
7
100
AcDbSpline
 70
8
 71
3
 72
8
 73
4
 74
0
 40
0
 40
0
 40
0
 40
0
 40
1
 40
1
 40
1
 40
1
 10
153.079548
 20
193.070112
 30
0.0
 10
153.079548
 20
194.409857
 30
0.0
 10
152.364803
 20
195.647832
 30
0.0
 10
151.204550
 20
196.317704
 30
0.0
  0
SPLINE
  5
252
100
AcDbEntity
  8
MODELSKETCH_VISIBLE
 62
7
100
AcDbSpline
 70
8
 71
3
 72
8
 73
4
 74
0
 40
0
 40
0
 40
0
 40
0
 40
1
 40
1
 40
1
 40
1
 10
151.204550
 20
196.317704
 30
0.0
 10
150.044298
 20
196.987576
 30
0.0
 10
148.614807
 20
196.987576
 30
0.0
 10
147.454555
 20
196.317704
 30
0.0
  0
SPLINE
  5
253
100
AcDbEntity
  8
MODELSKETCH_VISIBLE
 62
7
100
AcDbSpline
 70
8
 71
3
 72
8
 73
4
 74
0
 40
0
 40
0
 40
0
 40
0
 40
1
 40
1
 40
1
 40
1
 10
147.454555
 20
196.317704
 30
0.0
 10
146.294302
 20
195.647832
 30
0.0
 10
145.579557
 20
194.409857
 30
0.0
 10
145.579557
 20
193.070112
 30
0.0
  0
SPLINE
  5
254
100
AcDbEntity
  8
MODELSKETCH_VISIBLE
 62
7
100
AcDbSpline
 70
8
 71
3
 72
8
 73
4
 74
0
 40
0
 40
0
 40
0
 40
0
 40
1
 40
1
 40
1
 40
1
 10
145.579557
 20
193.070112
 30
0.0
 10
145.579557
 20
191.730368
 30
0.0
 10
146.294302
 20
190.492393
 30
0.0
 10
147.454555
 20
189.822521
 30
0.0
  0
SPLINE
  5
255
100
AcDbEntity
  8
MODELSKETCH_VISIBLE
 62
7
100
AcDbSpline
 70
8
 71
3
 72
8
 73
4
 74
0
 40
0
 40
0
 40
0
 40
0
 40
1
 40
1
 40
1
 40
1
 10
147.454555
 20
189.822521
 30
0.0
 10
148.614807
 20
189.152649
 30
0.0
 10
150.044298
 20
189.152649
 30
0.0
 10
151.204550
 20
189.822521
 30
0.0
  0
SPLINE
  5
256
100
AcDbEntity
  8
MODELSKETCH_VISIBLE
 62
7
100
AcDbSpline
 70
8
 71
3
 72
8
 73
4
 74
0
 40
0
 40
0
 40
0
 40
0
 40
1
 40
1
 40
1
 40
1
 10
151.204550
 20
189.822521
 30
0.0
 10
152.364803
 20
190.492393
 30
0.0
 10
153.079548
 20
191.730368
 30
0.0
 10
153.079548
 20
193.070112
 30
0.0
  0
LWPOLYLINE
  5
257
100
AcDbEntity
  8
MODELSKETCH_VISIBLE
 62
7
100
AcDbPolyline
 90
1
 70
1
 10
151.079552
 20
200.070103
 30
0.0
  0
LWPOLYLINE
  5
258
100
AcDbEntity
  8
MODELSKETCH_VISIBLE
 62
7
100
AcDbPolyline
 90
1
 70
1
 10
153.079548
 20
193.070112
 30
0.0
  0
LWPOLYLINE
  5
259
100
AcDbEntity
  8
MODELSKETCH_VISIBLE
 62
7
100
AcDbPolyline
 90
2
 70
0
 10
150.829542
 20
152.070246
 30
0.0
 10
165.829546
 20
152.070246
 30
0.0
  0
LWPOLYLINE
  5
25a
100
AcDbEntity
  8
MODELSKETCH_VISIBLE
 62
7
100
AcDbPolyline
 90
2
 70
0
 10
57.829676
 20
152.070246
 30
0.0
 10
42.829672
 20
152.070246
 30
0.0
  0
SPLINE
  5
25b
100
AcDbEntity
  8
MODELSKETCH_VISIBLE
 62
7
100
AcDbSpline
 70
8
 71
3
 72
8
 73
4
 74
0
 40
0
 40
0
 40
0
 40
0
 40
1
 40
1
 40
1
 40
1
 10
130.079578
 20
200.070103
 30
0.0
 10
130.079578
 20
200.695317
 30
0.0
 10
129.746030
 20
201.273039
 30
0.0
 10
129.204579
 20
201.585646
 30
0.0
  0
SPLINE
  5
25c
100
AcDbEntity
  8
MODELSKETCH_VISIBLE
 62
7
100
AcDbSpline
 70
8
 71
3
 72
8
 73
4
 74
0
 40
0
 40
0
 40
0
 40
0
 40
1
 40
1
 40
1
 40
1
 10
129.204579
 20
201.585646
 30
0.0
 10
128.663128
 20
201.898253
 30
0.0
 10
127.996032
 20
201.898253
 30
0.0
 10
127.454581
 20
201.585646
 30
0.0
  0
SPLINE
  5
25d
100
AcDbEntity
  8
MODELSKETCH_VISIBLE
 62
7
100
AcDbSpline
 70
8
 71
3
 72
8
 73
4
 74
0
 40
0
 40
0
 40
0
 40
0
 40
1
 40
1
 40
1
 40
1
 10
127.454581
 20
201.585646
 30
0.0
 10
126.913129
 20
201.273039
 30
0.0
 10
126.579582
 20
200.695317
 30
0.0
 10
126.579582
 20
200.070103
 30
0.0
  0
SPLINE
  5
25e
100
AcDbEntity
  8
MODELSKETCH_VISIBLE
 62
7
100
AcDbSpline
 70
8
 71
3
 72
8
 73
4
 74
0
 40
0
 40
0
 40
0
 40
0
 40
1
 40
1
 40
1
 40
1
 10
126.579582
 20
200.070103
 30
0.0
 10
126.579582
 20
199.444889
 30
0.0
 10
126.913129
 20
198.867167
 30
0.0
 10
127.454581
 20
198.554560
 30
0.0
  0
SPLINE
  5
25f
100
AcDbEntity
  8
MODELSKETCH_VISIBLE
 62
7
100
AcDbSpline
 70
8
 71
3
 72
8
 73
4
 74
0
 40
0
 40
0
 40
0
 40
0
 40
1
 40
1
 40
1
 40
1
 10
127.454581
 20
198.554560
 30
0.0
 10
127.996032
 20
198.241953
 30
0.0
 10
128.663128
 20
198.241953
 30
0.0
 10
129.204579
 20
198.554560
 30
0.0
  0
SPLINE
  5
260
100
AcDbEntity
  8
MODELSKETCH_VISIBLE
 62
7
100
AcDbSpline
 70
8
 71
3
 72
8
 73
4
 74
0
 40
0
 40
0
 40
0
 40
0
 40
1
 40
1
 40
1
 40
1
 10
129.204579
 20
198.554560
 30
0.0
 10
129.746030
 20
198.867167
 30
0.0
 10
130.079578
 20
199.444889
 30
0.0
 10
130.079578
 20
200.070103
 30
0.0
  0
LWPOLYLINE
  5
261
100
AcDbEntity
  8
MODELSKETCH_VISIBLE
 62
7
100
AcDbPolyline
 90
2
 70
0
 10
30.329713
 20
145.569442
 30
0.0
 10
178.329505
 20
145.569442
 30
0.0
  0
SPLINE
  5
262
100
AcDbEntity
  8
MODELSKETCH_VISIBLE
 62
7
100
AcDbSpline
 70
8
 71
3
 72
8
 73
4
 74
0
 40
0
 40
0
 40
0
 40
0
 40
1
 40
1
 40
1
 40
1
 10
94.829622
 20
177.070133
 30
0.0
 10
94.829622
 20
177.335349
 30
0.0
 10
94.724265
 20
177.589703
 30
0.0
 10
94.536729
 20
177.777239
 30
0.0
  0
SPLINE
  5
263
100
AcDbEntity
  8
MODELSKETCH_VISIBLE
 62
7
100
AcDbSpline
 70
8
 71
3
 72
8
 73
4
 74
0
 40
0
 40
0
 40
0
 40
0
 40
1
 40
1
 40
1
 40
1
 10
94.536729
 20
177.777239
 30
0.0
 10
94.349192
 20
177.964775
 30
0.0
 10
94.094839
 20
178.070132
 30
0.0
 10
93.829622
 20
178.070132
 30
0.0
  0
LWPOLYLINE
  5
264
100
AcDbEntity
  8
MODELSKETCH_VISIBLE
 62
7
100
AcDbPolyline
 90
1
 70
1
 10
130.079578
 20
200.070103
 30
0.0
  0
LWPOLYLINE
  5
265
100
AcDbEntity
  8
MODELSKETCH_VISIBLE
 62
7
100
AcDbPolyline
 90
2
 70
0
 10
30.329713
 20
240.570084
 30
0.0
 10
178.329505
 20
240.570084
 30
0.0
  0
SPLINE
  5
266
100
AcDbEntity
  8
MODELSKETCH_VISIBLE
 62
7
100
AcDbSpline
 70
8
 71
3
 72
8
 73
4
 74
0
 40
0
 40
0
 40
0
 40
0
 40
1
 40
1
 40
1
 40
1
 10
42.829688
 20
178.070132
 30
0.0
 10
42.564472
 20
178.070132
 30
0.0
 10
42.310118
 20
177.964775
 30
0.0
 10
42.122581
 20
177.777239
 30
0.0
  0
SPLINE
  5
267
100
AcDbEntity
  8
MODELSKETCH_VISIBLE
 62
7
100
AcDbSpline
 70
8
 71
3
 72
8
 73
4
 74
0
 40
0
 40
0
 40
0
 40
0
 40
1
 40
1
 40
1
 40
1
 10
42.122581
 20
177.777239
 30
0.0
 10
41.935045
 20
177.589703
 30
0.0
 10
41.829688
 20
177.335349
 30
0.0
 10
41.829689
 20
177.070133
 30
0.0
  0
LWPOLYLINE
  5
268
100
AcDbEntity
  8
MODELSKETCH_VISIBLE
 62
7
100
AcDbPolyline
 90
2
 70
0
 10
78.829629
 20
178.070817
 30
0.0
 10
93.829633
 20
178.070817
 30
0.0
  0
SPLINE
  5
269
100
AcDbEntity
  8
MODELSKETCH_VISIBLE
 62
7
100
AcDbSpline
 70
8
 71
3
 72
8
 73
4
 74
0
 40
0
 40
0
 40
0
 40
0
 40
1
 40
1
 40
1
 40
1
 10
58.829668
 20
177.070133
 30
0.0
 10
58.829668
 20
177.335349
 30
0.0
 10
58.724311
 20
177.589703
 30
0.0
 10
58.536775
 20
177.777239
 30
0.0
  0
SPLINE
  5
26a
100
AcDbEntity
  8
MODELSKETCH_VISIBLE
 62
7
100
AcDbSpline
 70
8
 71
3
 72
8
 73
4
 74
0
 40
0
 40
0
 40
0
 40
0
 40
1
 40
1
 40
1
 40
1
 10
58.536775
 20
177.777239
 30
0.0
 10
58.349238
 20
177.964775
 30
0.0
 10
58.094885
 20
178.070132
 30
0.0
 10
57.829668
 20
178.070132
 30
0.0
  0
LWPOLYLINE
  5
26b
100
AcDbEntity
  8
MODELSKETCH_VISIBLE
 62
7
100
AcDbPolyline
 90
2
 70
0
 10
78.829629
 20
152.070246
 30
0.0
 10
93.829633
 20
152.070246
 30
0.0
  0
SPLINE
  5
26c
100
AcDbEntity
  8
MODELSKETCH_VISIBLE
 62
7
100
AcDbSpline
 70
8
 71
3
 72
8
 73
4
 74
0
 40
0
 40
0
 40
0
 40
0
 40
1
 40
1
 40
1
 40
1
 10
41.829689
 20
153.070163
 30
0.0
 10
41.829688
 20
152.804947
 30
0.0
 10
41.935045
 20
152.550593
 30
0.0
 10
42.122581
 20
152.363057
 30
0.0
  0
SPLINE
  5
26d
100
AcDbEntity
  8
MODELSKETCH_VISIBLE
 62
7
100
AcDbSpline
 70
8
 71
3
 72
8
 73
4
 74
0
 40
0
 40
0
 40
0
 40
0
 40
1
 40
1
 40
1
 40
1
 10
42.122581
 20
152.363057
 30
0.0
 10
42.310118
 20
152.175521
 30
0.0
 10
42.564472
 20
152.070164
 30
0.0
 10
42.829688
 20
152.070164
 30
0.0
  0
LWPOLYLINE
  5
26e
100
AcDbEntity
  8
MODELSKETCH_VISIBLE
 62
7
100
AcDbPolyline
 90
2
 70
0
 10
77.829770
 20
177.070694
 30
0.0
 10
77.829770
 20
153.070370
 30
0.0
  0
SPLINE
  5
26f
100
AcDbEntity
  8
MODELSKETCH_VISIBLE
 62
7
100
AcDbSpline
 70
8
 71
3
 72
8
 73
4
 74
0
 40
0
 40
0
 40
0
 40
0
 40
1
 40
1
 40
1
 40
1
 10
57.829668
 20
152.070164
 30
0.0
 10
58.094885
 20
152.070164
 30
0.0
 10
58.349238
 20
152.175521
 30
0.0
 10
58.536775
 20
152.363057
 30
0.0
  0
SPLINE
  5
270
100
AcDbEntity
  8
MODELSKETCH_VISIBLE
 62
7
100
AcDbSpline
 70
8
 71
3
 72
8
 73
4
 74
0
 40
0
 40
0
 40
0
 40
0
 40
1
 40
1
 40
1
 40
1
 10
58.536775
 20
152.363057
 30
0.0
 10
58.724311
 20
152.550593
 30
0.0
 10
58.829668
 20
152.804947
 30
0.0
 10
58.829668
 20
153.070163
 30
0.0
  0
SPLINE
  5
271
100
AcDbEntity
  8
MODELSKETCH_VISIBLE
 62
7
100
AcDbSpline
 70
8
 71
3
 72
8
 73
4
 74
0
 40
0
 40
0
 40
0
 40
0
 40
1
 40
1
 40
1
 40
1
 10
109.079604
 20
200.070103
 30
0.0
 10
109.079604
 20
200.695317
 30
0.0
 10
108.746056
 20
201.273039
 30
0.0
 10
108.204605
 20
201.585646
 30
0.0
  0
SPLINE
  5
272
100
AcDbEntity
  8
MODELSKETCH_VISIBLE
 62
7
100
AcDbSpline
 70
8
 71
3
 72
8
 73
4
 74
0
 40
0
 40
0
 40
0
 40
0
 40
1
 40
1
 40
1
 40
1
 10
108.204605
 20
201.585646
 30
0.0
 10
107.663154
 20
201.898253
 30
0.0
 10
106.996058
 20
201.898253
 30
0.0
 10
106.454607
 20
201.585646
 30
0.0
  0
SPLINE
  5
273
100
AcDbEntity
  8
MODELSKETCH_VISIBLE
 62
7
100
AcDbSpline
 70
8
 71
3
 72
8
 73
4
 74
0
 40
0
 40
0
 40
0
 40
0
 40
1
 40
1
 40
1
 40
1
 10
106.454607
 20
201.585646
 30
0.0
 10
105.913155
 20
201.273039
 30
0.0
 10
105.579608
 20
200.695317
 30
0.0
 10
105.579608
 20
200.070103
 30
0.0
  0
SPLINE
  5
274
100
AcDbEntity
  8
MODELSKETCH_VISIBLE
 62
7
100
AcDbSpline
 70
8
 71
3
 72
8
 73
4
 74
0
 40
0
 40
0
 40
0
 40
0
 40
1
 40
1
 40
1
 40
1
 10
105.579608
 20
200.070103
 30
0.0
 10
105.579608
 20
199.444889
 30
0.0
 10
105.913155
 20
198.867167
 30
0.0
 10
106.454607
 20
198.554560
 30
0.0
  0
SPLINE
  5
275
100
AcDbEntity
  8
MODELSKETCH_VISIBLE
 62
7
100
AcDbSpline
 70
8
 71
3
 72
8
 73
4
 74
0
 40
0
 40
0
 40
0
 40
0
 40
1
 40
1
 40
1
 40
1
 10
106.454607
 20
198.554560
 30
0.0
 10
106.996058
 20
198.241953
 30
0.0
 10
107.663154
 20
198.241953
 30
0.0
 10
108.204605
 20
198.554560
 30
0.0
  0
SPLINE
  5
276
100
AcDbEntity
  8
MODELSKETCH_VISIBLE
 62
7
100
AcDbSpline
 70
8
 71
3
 72
8
 73
4
 74
0
 40
0
 40
0
 40
0
 40
0
 40
1
 40
1
 40
1
 40
1
 10
108.204605
 20
198.554560
 30
0.0
 10
108.746056
 20
198.867167
 30
0.0
 10
109.079604
 20
199.444889
 30
0.0
 10
109.079604
 20
200.070103
 30
0.0
  0
LWPOLYLINE
  5
277
100
AcDbEntity
  8
MODELSKETCH_VISIBLE
 62
7
100
AcDbPolyline
 90
2
 70
0
 10
94.829624
 20
177.070694
 30
0.0
 10
94.829624
 20
153.070370
 30
0.0
  0
LWPOLYLINE
  5
278
100
AcDbEntity
  8
MODELSKETCH_VISIBLE
 62
7
100
AcDbPolyline
 90
1
 70
1
 10
109.079604
 20
200.070103
 30
0.0
  0
SPLINE
  5
279
100
AcDbEntity
  8
MODELSKETCH_VISIBLE
 62
7
100
AcDbSpline
 70
8
 71
3
 72
8
 73
4
 74
0
 40
0
 40
0
 40
0
 40
0
 40
1
 40
1
 40
1
 40
1
 10
126.079583
 20
223.070075
 30
0.0
 10
126.079583
 20
224.409820
 30
0.0
 10
125.364838
 20
225.647795
 30
0.0
 10
124.204585
 20
226.317667
 30
0.0
  0
SPLINE
  5
27a
100
AcDbEntity
  8
MODELSKETCH_VISIBLE
 62
7
100
AcDbSpline
 70
8
 71
3
 72
8
 73
4
 74
0
 40
0
 40
0
 40
0
 40
0
 40
1
 40
1
 40
1
 40
1
 10
124.204585
 20
226.317667
 30
0.0
 10
123.044333
 20
226.987539
 30
0.0
 10
121.614842
 20
226.987539
 30
0.0
 10
120.454590
 20
226.317667
 30
0.0
  0
SPLINE
  5
27b
100
AcDbEntity
  8
MODELSKETCH_VISIBLE
 62
7
100
AcDbSpline
 70
8
 71
3
 72
8
 73
4
 74
0
 40
0
 40
0
 40
0
 40
0
 40
1
 40
1
 40
1
 40
1
 10
120.454590
 20
226.317667
 30
0.0
 10
119.294337
 20
225.647795
 30
0.0
 10
118.579592
 20
224.409820
 30
0.0
 10
118.579592
 20
223.070075
 30
0.0
  0
SPLINE
  5
27c
100
AcDbEntity
  8
MODELSKETCH_VISIBLE
 62
7
100
AcDbSpline
 70
8
 71
3
 72
8
 73
4
 74
0
 40
0
 40
0
 40
0
 40
0
 40
1
 40
1
 40
1
 40
1
 10
118.579592
 20
223.070075
 30
0.0
 10
118.579592
 20
221.730331
 30
0.0
 10
119.294337
 20
220.492356
 30
0.0
 10
120.454590
 20
219.822484
 30
0.0
  0
SPLINE
  5
27d
100
AcDbEntity
  8
MODELSKETCH_VISIBLE
 62
7
100
AcDbSpline
 70
8
 71
3
 72
8
 73
4
 74
0
 40
0
 40
0
 40
0
 40
0
 40
1
 40
1
 40
1
 40
1
 10
120.454590
 20
219.822484
 30
0.0
 10
121.614842
 20
219.152612
 30
0.0
 10
123.044333
 20
219.152612
 30
0.0
 10
124.204585
 20
219.822484
 30
0.0
  0
SPLINE
  5
27e
100
AcDbEntity
  8
MODELSKETCH_VISIBLE
 62
7
100
AcDbSpline
 70
8
 71
3
 72
8
 73
4
 74
0
 40
0
 40
0
 40
0
 40
0
 40
1
 40
1
 40
1
 40
1
 10
124.204585
 20
219.822484
 30
0.0
 10
125.364838
 20
220.492356
 30
0.0
 10
126.079583
 20
221.730331
 30
0.0
 10
126.079583
 20
223.070075
 30
0.0
  0
LWPOLYLINE
  5
27f
100
AcDbEntity
  8
MODELSKETCH_VISIBLE
 62
7
100
AcDbPolyline
 90
2
 70
0
 10
114.829585
 20
178.070817
 30
0.0
 10
129.829589
 20
178.070817
 30
0.0
  0
SPLINE
  5
280
100
AcDbEntity
  8
MODELSKETCH_VISIBLE
 62
7
100
AcDbSpline
 70
8
 71
3
 72
8
 73
4
 74
0
 40
0
 40
0
 40
0
 40
0
 40
1
 40
1
 40
1
 40
1
 10
78.829642
 20
178.070132
 30
0.0
 10
78.564426
 20
178.070132
 30
0.0
 10
78.310072
 20
177.964775
 30
0.0
 10
78.122536
 20
177.777239
 30
0.0
  0
SPLINE
  5
281
100
AcDbEntity
  8
MODELSKETCH_VISIBLE
 62
7
100
AcDbSpline
 70
8
 71
3
 72
8
 73
4
 74
0
 40
0
 40
0
 40
0
 40
0
 40
1
 40
1
 40
1
 40
1
 10
78.122536
 20
177.777239
 30
0.0
 10
77.934999
 20
177.589703
 30
0.0
 10
77.829642
 20
177.335349
 30
0.0
 10
77.829643
 20
177.070133
 30
0.0
  0
LWPOLYLINE
  5
282
100
AcDbEntity
  8
MODELSKETCH_VISIBLE
 62
7
100
AcDbPolyline
 90
1
 70
1
 10
126.079583
 20
223.070075
 30
0.0
  0
LWPOLYLINE
  5
283
100
AcDbEntity
  8
MODELSKETCH_VISIBLE
 62
7
100
AcDbPolyline
 90
2
 70
0
 10
114.829585
 20
152.070246
 30
0.0
 10
129.829589
 20
152.070246
 30
0.0
  0
SPLINE
  5
284
100
AcDbEntity
  8
MODELSKETCH_VISIBLE
 62
7
100
AcDbSpline
 70
8
 71
3
 72
8
 73
4
 74
0
 40
0
 40
0
 40
0
 40
0
 40
1
 40
1
 40
1
 40
1
 10
77.829643
 20
153.070163
 30
0.0
 10
77.829642
 20
152.804947
 30
0.0
 10
77.934999
 20
152.550593
 30
0.0
 10
78.122536
 20
152.363057
 30
0.0
  0
SPLINE
  5
285
100
AcDbEntity
  8
MODELSKETCH_VISIBLE
 62
7
100
AcDbSpline
 70
8
 71
3
 72
8
 73
4
 74
0
 40
0
 40
0
 40
0
 40
0
 40
1
 40
1
 40
1
 40
1
 10
78.122536
 20
152.363057
 30
0.0
 10
78.310072
 20
152.175521
 30
0.0
 10
78.564426
 20
152.070164
 30
0.0
 10
78.829642
 20
152.070164
 30
0.0
  0
LWPOLYLINE
  5
286
100
AcDbEntity
  8
MODELSKETCH_VISIBLE
 62
7
100
AcDbPolyline
 90
2
 70
0
 10
113.829594
 20
177.070694
 30
0.0
 10
113.829594
 20
153.070370
 30
0.0
  0
SPLINE
  5
287
100
AcDbEntity
  8
MODELSKETCH_VISIBLE
 62
7
100
AcDbSpline
 70
8
 71
3
 72
8
 73
4
 74
0
 40
0
 40
0
 40
0
 40
0
 40
1
 40
1
 40
1
 40
1
 10
93.829622
 20
152.070164
 30
0.0
 10
94.094839
 20
152.070164
 30
0.0
 10
94.349192
 20
152.175521
 30
0.0
 10
94.536729
 20
152.363057
 30
0.0
  0
SPLINE
  5
288
100
AcDbEntity
  8
MODELSKETCH_VISIBLE
 62
7
100
AcDbSpline
 70
8
 71
3
 72
8
 73
4
 74
0
 40
0
 40
0
 40
0
 40
0
 40
1
 40
1
 40
1
 40
1
 10
94.536729
 20
152.363057
 30
0.0
 10
94.724265
 20
152.550593
 30
0.0
 10
94.829622
 20
152.804947
 30
0.0
 10
94.829622
 20
153.070163
 30
0.0
  0
LWPOLYLINE
  5
289
100
AcDbEntity
  8
MODELSKETCH_VISIBLE
 62
7
100
AcDbPolyline
 90
2
 70
0
 10
130.829449
 20
177.070694
 30
0.0
 10
130.829449
 20
153.070370
 30
0.0
  0
SPLINE
  5
28a
100
AcDbEntity
  8
MODELSKETCH_VISIBLE
 62
7
100
AcDbSpline
 70
8
 71
3
 72
8
 73
4
 74
0
 40
0
 40
0
 40
0
 40
0
 40
1
 40
1
 40
1
 40
1
 10
113.829597
 20
153.070163
 30
0.0
 10
113.829597
 20
152.804947
 30
0.0
 10
113.934953
 20
152.550593
 30
0.0
 10
114.122490
 20
152.363057
 30
0.0
  0
SPLINE
  5
28b
100
AcDbEntity
  8
MODELSKETCH_VISIBLE
 62
7
100
AcDbSpline
 70
8
 71
3
 72
8
 73
4
 74
0
 40
0
 40
0
 40
0
 40
0
 40
1
 40
1
 40
1
 40
1
 10
114.122490
 20
152.363057
 30
0.0
 10
114.310026
 20
152.175521
 30
0.0
 10
114.564380
 20
152.070164
 30
0.0
 10
114.829596
 20
152.070164
 30
0.0
  0
SPLINE
  5
28c
100
AcDbEntity
  8
MODELSKETCH_VISIBLE
 62
7
100
AcDbSpline
 70
8
 71
3
 72
8
 73
4
 74
0
 40
0
 40
0
 40
0
 40
0
 40
1
 40
1
 40
1
 40
1
 10
54.079672
 20
223.070075
 30
0.0
 10
54.078117
 20
225.140040
 30
0.0
 10
52.399643
 20
226.817253
 30
0.0
 10
50.329678
 20
226.817253
 30
0.0
  0
SPLINE
  5
28d
100
AcDbEntity
  8
MODELSKETCH_VISIBLE
 62
7
100
AcDbSpline
 70
8
 71
3
 72
8
 73
4
 74
0
 40
0
 40
0
 40
0
 40
0
 40
1
 40
1
 40
1
 40
1
 10
50.329678
 20
226.817253
 30
0.0
 10
48.259713
 20
226.817253
 30
0.0
 10
46.581239
 20
225.140040
 30
0.0
 10
46.579684
 20
223.070075
 30
0.0
  0
SPLINE
  5
28e
100
AcDbEntity
  8
MODELSKETCH_VISIBLE
 62
7
100
AcDbSpline
 70
8
 71
3
 72
8
 73
4
 74
0
 40
0
 40
0
 40
0
 40
0
 40
1
 40
1
 40
1
 40
1
 10
46.579684
 20
223.070075
 30
0.0
 10
46.581239
 20
221.000111
 30
0.0
 10
48.259713
 20
219.322897
 30
0.0
 10
50.329678
 20
219.322897
 30
0.0
  0
SPLINE
  5
28f
100
AcDbEntity
  8
MODELSKETCH_VISIBLE
 62
7
100
AcDbSpline
 70
8
 71
3
 72
8
 73
4
 74
0
 40
0
 40
0
 40
0
 40
0
 40
1
 40
1
 40
1
 40
1
 10
50.329678
 20
219.322897
 30
0.0
 10
52.399643
 20
219.322897
 30
0.0
 10
54.078117
 20
221.000111
 30
0.0
 10
54.079672
 20
223.070075
 30
0.0
  0
LWPOLYLINE
  5
290
100
AcDbEntity
  8
MODELSKETCH_VISIBLE
 62
7
100
AcDbPolyline
 90
2
 70
0
 10
150.829542
 20
178.070817
 30
0.0
 10
165.829546
 20
178.070817
 30
0.0
  0
SPLINE
  5
291
100
AcDbEntity
  8
MODELSKETCH_VISIBLE
 62
7
100
AcDbSpline
 70
8
 71
3
 72
8
 73
4
 74
0
 40
0
 40
0
 40
0
 40
0
 40
1
 40
1
 40
1
 40
1
 10
129.829579
 20
152.070164
 30
0.0
 10
130.381862
 20
152.070165
 30
0.0
 10
130.829576
 20
152.517880
 30
0.0
 10
130.829576
 20
153.070163
 30
0.0
  0
LWPOLYLINE
  5
292
100
AcDbEntity
  8
MODELSKETCH_VISIBLE
 62
7
100
AcDbPolyline
 90
1
 70
1
 10
54.079672
 20
223.070075
 30
0.0
  0
ENDSEC
  0
SECTION
  2
OBJECTS
  0
DICTIONARY
  5
C
330
0
100
AcDbDictionary
  3
ACAD_GROUP
350
D
  3
ACAD_MLINESTYLE
350
17
  0
DICTIONARY
  5
D
330
C
100
AcDbDictionary
  0
DICTIONARY
  5
1A
330
C
100
AcDbDictionary
  0
DICTIONARY
  5
17
330
C
100
AcDbDictionary
  3
STANDARD
350
18
  0
DICTIONARY
  5
19
330
C
100
AcDbDictionary
  0
ENDSEC
  0
EOF
