  0
SECTION
  2
HEADER
  9
$ACADVER
  1
AC1014
  9
$HANDSEED
  5
FFFF
  9
$MEASUREMENT
 70
     1
  0
ENDSEC
  0
SECTION
  2
TABLES
  0
TABLE
  2
VPORT
  5
8
330
0
100
AcDbSymbolTable
 70
     4
  0
VPORT
  5
2E
330
8
100
AcDbSymbolTableRecord
100
AcDbViewportTableRecord
  2
*ACTIVE
 70
     0
 10
0.0
 20
0.0
 11
1.0
 21
1.0
 12
210.0
 22
148.5
 13
0.0
 23
0.0
 14
10.0
 24
10.0
 15
10.0
 25
10.0
 16
0.0
 26
0.0
 36
1.0
 17
0.0
 27
0.0
 37
0.0
 40
341.0
 41
1.24
 42
50.0
 43
0.0
 44
0.0
 50
0.0
 51
0.0
 71
     0
 72
   100
 73
     1
 74
     3
 75
     0
 76
     0
 77
     0
 78
     0
  0
ENDTAB
  0
TABLE
  2
LTYPE
  5
5
330
0
100
AcDbSymbolTable
 70
     1
  0
LTYPE
  5
14
330
5
100
AcDbSymbolTableRecord
100
AcDbLinetypeTableRecord
  2
BYBLOCK
 70
     0
  3

 72
    65
 73
     0
 40
0.0
  0
LTYPE
  5
15
330
5
100
AcDbSymbolTableRecord
100
AcDbLinetypeTableRecord
  2
BYLAYER
 70
     0
  3

 72
    65
 73
     0
 40
0.0
  0
LTYPE
  5
16
330
5
100
AcDbSymbolTableRecord
100
AcDbLinetypeTableRecord
  2
CONTINUOUS
 70
     0
  3
Solid line
 72
    65
 73
     0
 40
0.0
  0
ENDTAB
  0
TABLE
  2
LAYER
  5
2
100
AcDbSymbolTable
 70
1
  0
LAYER
  5
50
100
AcDbSymbolTableRecord
100
AcDbLayerTableRecord
  2
0
 70
0
  6
CONTINUOUS
  0
ENDTAB
  0
TABLE
  2
STYLE
  5
3
330
0
100
AcDbSymbolTable
 70
     1
  0
STYLE
  5
11
330
3
100
AcDbSymbolTableRecord
100
AcDbTextStyleTableRecord
  2
STANDARD
 70
     0
 40
0.0
 41
1.0
 50
0.0
 71
     0
 42
2.5
  3
txt
  4

  0
ENDTAB
  0
TABLE
  2
VIEW
  5
6
330
0
100
AcDbSymbolTable
 70
     0
  0
ENDTAB
  0
TABLE
  2
UCS
  5
7
330
0
100
AcDbSymbolTable
 70
     0
  0
ENDTAB
  0
TABLE
  2
APPID
  5
9
330
0
100
AcDbSymbolTable
 70
     2
  0
APPID
  5
12
330
9
100
AcDbSymbolTableRecord
100
AcDbRegAppTableRecord
  2
ACAD
 70
     0
  0
ENDTAB
  0
TABLE
  2
DIMSTYLE
  5
A
330
0
100
AcDbSymbolTable
 70
     1
  0
DIMSTYLE
105
27
330
A
100
AcDbSymbolTableRecord
100
AcDbDimStyleTableRecord
  2
ISO-25
 70
     0
  3

  4

  5

  6

  7

 40
1.0
 41
2.5
 42
0.625
 43
3.75
 44
1.25
 45
0.0
 46
0.0
 47
0.0
 48
0.0
140
2.5
141
2.5
142
0.0
143
0.03937007874016
144
1.0
145
0.0
146
1.0
147
0.625
 71
     0
 72
     0
 73
     0
 74
     0
 75
     0
 76
     0
 77
     1
 78
     8
170
     0
171
     3
172
     1
173
     0
174
     0
175
     0
176
     0
177
     0
178
     0
270
     2
271
     2
272
     2
273
     2
274
     3
340
11
275
     0
280
     0
281
     0
282
     0
283
     0
284
     8
285
     0
286
     0
287
     3
288
     0
  0
ENDTAB
  0
TABLE
  2
BLOCK_RECORD
  5
1
330
0
100
AcDbSymbolTable
 70
     1
  0
BLOCK_RECORD
  5
1F
330
1
100
AcDbSymbolTableRecord
100
AcDbBlockTableRecord
  2
*MODEL_SPACE
  0
BLOCK_RECORD
  5
1B
330
1
100
AcDbSymbolTableRecord
100
AcDbBlockTableRecord
  2
*PAPER_SPACE
  0
ENDTAB
  0
ENDSEC
  0
SECTION
  2
BLOCKS
  0
BLOCK
  5
20
330
1F
100
AcDbEntity
  8
0
100
AcDbBlockBegin
  2
*MODEL_SPACE
 70
     0
 10
0.0
 20
0.0
 30
0.0
  3
*MODEL_SPACE
  1

  0
ENDBLK
  5
21
330
1F
100
AcDbEntity
  8
0
100
AcDbBlockEnd
  0
BLOCK
  5
1C
330
1B
100
AcDbEntity
 67
     1
  8
0
100
AcDbBlockBegin
  2
*PAPER_SPACE
  1

  0
ENDBLK
  5
1D
330
1B
100
AcDbEntity
 67
     1
  8
0
100
AcDbBlockEnd
  0
ENDSEC
  0
SECTION
  2
ENTITIES
  0
LWPOLYLINE
  5
100
100
AcDbEntity
  8
0
 62
7
100
AcDbPolyline
 90
2
 70
0
 10
25.194981
 20
84.025415
 30
0.0
 10
25.194981
 20
88.048027
 30
0.0
  0
LWPOLYLINE
  5
101
100
AcDbEntity
  8
0
 62
7
100
AcDbPolyline
 90
2
 70
0
 10
23.330286
 20
83.730065
 30
0.0
 10
22.087155
 20
87.556043
 30
0.0
  0
LWPOLYLINE
  5
102
100
AcDbEntity
  8
0
 62
7
100
AcDbPolyline
 90
2
 70
0
 10
21.648122
 20
82.873018
 30
0.0
 10
19.283726
 20
86.127454
 30
0.0
  0
LWPOLYLINE
  5
103
100
AcDbEntity
  8
0
 62
7
100
AcDbPolyline
 90
2
 70
0
 10
20.313194
 20
81.538090
 30
0.0
 10
17.058757
 20
83.902751
 30
0.0
  0
LWPOLYLINE
  5
104
100
AcDbEntity
  8
0
 62
7
100
AcDbPolyline
 90
2
 70
0
 10
19.456147
 20
79.855128
 30
0.0
 10
15.630435
 20
81.099322
 30
0.0
  0
LWPOLYLINE
  5
105
100
AcDbEntity
  8
0
 62
7
100
AcDbPolyline
 90
2
 70
0
 10
19.160797
 20
77.992561
 30
0.0
 10
15.138185
 20
77.992561
 30
0.0
  0
LWPOLYLINE
  5
106
100
AcDbEntity
  8
0
 62
7
100
AcDbPolyline
 90
2
 70
0
 10
19.456147
 20
76.127334
 30
0.0
 10
15.630435
 20
74.884735
 30
0.0
  0
LWPOLYLINE
  5
107
100
AcDbEntity
  8
0
 62
7
100
AcDbPolyline
 90
2
 70
0
 10
20.313194
 20
74.445702
 30
0.0
 10
17.058757
 20
72.080242
 30
0.0
  0
LWPOLYLINE
  5
108
100
AcDbEntity
  8
0
 62
7
100
AcDbPolyline
 90
2
 70
0
 10
21.648122
 20
73.109975
 30
0.0
 10
19.283726
 20
69.855805
 30
0.0
  0
LWPOLYLINE
  5
109
100
AcDbEntity
  8
0
 62
7
100
AcDbPolyline
 90
2
 70
0
 10
28.741574
 20
73.109975
 30
0.0
 10
31.105970
 20
69.855805
 30
0.0
  0
LWPOLYLINE
  5
10a
100
AcDbEntity
  8
0
 62
7
100
AcDbPolyline
 90
2
 70
0
 10
30.076502
 20
74.445702
 30
0.0
 10
33.330939
 20
72.080242
 30
0.0
  0
LWPOLYLINE
  5
10b
100
AcDbEntity
  8
0
 62
7
100
AcDbPolyline
 90
2
 70
0
 10
30.933549
 20
76.127334
 30
0.0
 10
34.759261
 20
74.884735
 30
0.0
  0
LWPOLYLINE
  5
10c
100
AcDbEntity
  8
0
 62
7
100
AcDbPolyline
 90
2
 70
0
 10
31.228899
 20
77.992561
 30
0.0
 10
35.251511
 20
77.992561
 30
0.0
  0
LWPOLYLINE
  5
10d
100
AcDbEntity
  8
0
 62
7
100
AcDbPolyline
 90
2
 70
0
 10
30.933549
 20
79.855128
 30
0.0
 10
34.759261
 20
81.099322
 30
0.0
  0
LWPOLYLINE
  5
10e
100
AcDbEntity
  8
0
 62
7
100
AcDbPolyline
 90
2
 70
0
 10
30.076502
 20
81.538090
 30
0.0
 10
33.330939
 20
83.902751
 30
0.0
  0
LWPOLYLINE
  5
10f
100
AcDbEntity
  8
0
 62
7
100
AcDbPolyline
 90
2
 70
0
 10
28.741574
 20
82.873018
 30
0.0
 10
31.105970
 20
86.127454
 30
0.0
  0
LWPOLYLINE
  5
110
100
AcDbEntity
  8
0
 62
7
100
AcDbPolyline
 90
2
 70
0
 10
27.059410
 20
83.730065
 30
0.0
 10
28.302541
 20
87.556043
 30
0.0
  0
LWPOLYLINE
  5
111
100
AcDbEntity
  8
0
 62
7
100
AcDbPolyline
 90
2
 70
0
 10
25.194981
 20
84.025415
 30
0.0
 10
25.194981
 20
88.048027
 30
0.0
  0
LWPOLYLINE
  5
112
100
AcDbEntity
  8
0
 62
7
100
AcDbPolyline
 90
2
 70
0
 10
59.534033
 20
83.730065
 30
0.0
 10
58.290956
 20
87.556043
 30
0.0
  0
LWPOLYLINE
  5
113
100
AcDbEntity
  8
0
 62
7
100
AcDbPolyline
 90
2
 70
0
 10
57.851949
 20
82.873018
 30
0.0
 10
55.487501
 20
86.127454
 30
0.0
  0
LWPOLYLINE
  5
114
100
AcDbEntity
  8
0
 62
7
100
AcDbPolyline
 90
2
 70
0
 10
56.517048
 20
81.538090
 30
0.0
 10
53.262665
 20
83.902751
 30
0.0
  0
LWPOLYLINE
  5
115
100
AcDbEntity
  8
0
 62
7
100
AcDbPolyline
 90
2
 70
0
 10
55.659974
 20
79.855128
 30
0.0
 10
51.834209
 20
81.099322
 30
0.0
  0
LWPOLYLINE
  5
116
100
AcDbEntity
  8
0
 62
7
100
AcDbPolyline
 90
2
 70
0
 10
55.364651
 20
77.992561
 30
0.0
 10
51.341959
 20
77.992561
 30
0.0
  0
LWPOLYLINE
  5
117
100
AcDbEntity
  8
0
 62
7
100
AcDbPolyline
 90
2
 70
0
 10
55.659974
 20
76.127334
 30
0.0
 10
51.834209
 20
74.884735
 30
0.0
  0
LWPOLYLINE
  5
118
100
AcDbEntity
  8
0
 62
7
100
AcDbPolyline
 90
2
 70
0
 10
56.517048
 20
74.445702
 30
0.0
 10
53.262665
 20
72.080242
 30
0.0
  0
LWPOLYLINE
  5
119
100
AcDbEntity
  8
0
 62
7
100
AcDbPolyline
 90
2
 70
0
 10
57.851949
 20
73.109975
 30
0.0
 10
55.487501
 20
69.855805
 30
0.0
  0
LWPOLYLINE
  5
11a
100
AcDbEntity
  8
0
 62
7
100
AcDbPolyline
 90
2
 70
0
 10
64.945295
 20
73.109975
 30
0.0
 10
67.309744
 20
69.855805
 30
0.0
  0
LWPOLYLINE
  5
11b
100
AcDbEntity
  8
0
 62
7
100
AcDbPolyline
 90
2
 70
0
 10
66.280197
 20
74.445702
 30
0.0
 10
69.534580
 20
72.080242
 30
0.0
  0
LWPOLYLINE
  5
11c
100
AcDbEntity
  8
0
 62
7
100
AcDbPolyline
 90
2
 70
0
 10
67.137270
 20
76.127334
 30
0.0
 10
70.963009
 20
74.884735
 30
0.0
  0
LWPOLYLINE
  5
11d
100
AcDbEntity
  8
0
 62
7
100
AcDbPolyline
 90
2
 70
0
 10
67.432594
 20
77.992561
 30
0.0
 10
71.455232
 20
77.992561
 30
0.0
  0
LWPOLYLINE
  5
11e
100
AcDbEntity
  8
0
 62
7
100
AcDbPolyline
 90
2
 70
0
 10
67.137270
 20
79.855128
 30
0.0
 10
70.963009
 20
81.099322
 30
0.0
  0
LWPOLYLINE
  5
11f
100
AcDbEntity
  8
0
 62
7
100
AcDbPolyline
 90
2
 70
0
 10
66.280197
 20
81.538090
 30
0.0
 10
69.534580
 20
83.902751
 30
0.0
  0
LWPOLYLINE
  5
120
100
AcDbEntity
  8
0
 62
7
100
AcDbPolyline
 90
2
 70
0
 10
64.945295
 20
82.873018
 30
0.0
 10
67.309744
 20
86.127454
 30
0.0
  0
LWPOLYLINE
  5
121
100
AcDbEntity
  8
0
 62
7
100
AcDbPolyline
 90
2
 70
0
 10
63.263211
 20
83.730065
 30
0.0
 10
64.506288
 20
87.556043
 30
0.0
  0
LWPOLYLINE
  5
122
100
AcDbEntity
  8
0
 62
7
100
AcDbPolyline
 90
2
 70
0
 10
61.398622
 20
84.025415
 30
0.0
 10
61.398622
 20
88.048027
 30
0.0
  0
LWPOLYLINE
  5
123
100
AcDbEntity
  8
0
 62
7
100
AcDbPolyline
 90
2
 70
0
 10
95.737808
 20
83.730065
 30
0.0
 10
94.494731
 20
87.556043
 30
0.0
  0
LWPOLYLINE
  5
124
100
AcDbEntity
  8
0
 62
7
100
AcDbPolyline
 90
2
 70
0
 10
94.055724
 20
82.873018
 30
0.0
 10
91.691275
 20
86.127454
 30
0.0
  0
LWPOLYLINE
  5
125
100
AcDbEntity
  8
0
 62
7
100
AcDbPolyline
 90
2
 70
0
 10
92.720822
 20
81.538090
 30
0.0
 10
89.466439
 20
83.902751
 30
0.0
  0
LWPOLYLINE
  5
126
100
AcDbEntity
  8
0
 62
7
100
AcDbPolyline
 90
2
 70
0
 10
91.863749
 20
79.855128
 30
0.0
 10
88.038010
 20
81.099322
 30
0.0
  0
LWPOLYLINE
  5
127
100
AcDbEntity
  8
0
 62
7
100
AcDbPolyline
 90
2
 70
0
 10
91.568425
 20
77.992561
 30
0.0
 10
87.545787
 20
77.992561
 30
0.0
  0
LWPOLYLINE
  5
128
100
AcDbEntity
  8
0
 62
7
100
AcDbPolyline
 90
2
 70
0
 10
91.863749
 20
76.127334
 30
0.0
 10
88.038010
 20
74.884735
 30
0.0
  0
LWPOLYLINE
  5
129
100
AcDbEntity
  8
0
 62
7
100
AcDbPolyline
 90
2
 70
0
 10
92.720822
 20
74.445702
 30
0.0
 10
89.466439
 20
72.080242
 30
0.0
  0
LWPOLYLINE
  5
12a
100
AcDbEntity
  8
0
 62
7
100
AcDbPolyline
 90
2
 70
0
 10
94.055724
 20
73.109975
 30
0.0
 10
91.691275
 20
69.855805
 30
0.0
  0
LWPOLYLINE
  5
12b
100
AcDbEntity
  8
0
 62
7
100
AcDbPolyline
 90
2
 70
0
 10
101.149070
 20
73.109975
 30
0.0
 10
103.513518
 20
69.855805
 30
0.0
  0
LWPOLYLINE
  5
12c
100
AcDbEntity
  8
0
 62
7
100
AcDbPolyline
 90
2
 70
0
 10
102.483971
 20
74.445702
 30
0.0
 10
105.738354
 20
72.080242
 30
0.0
  0
LWPOLYLINE
  5
12d
100
AcDbEntity
  8
0
 62
7
100
AcDbPolyline
 90
2
 70
0
 10
103.341045
 20
76.127334
 30
0.0
 10
107.166810
 20
74.884735
 30
0.0
  0
LWPOLYLINE
  5
12e
100
AcDbEntity
  8
0
 62
7
100
AcDbPolyline
 90
2
 70
0
 10
103.636368
 20
77.992561
 30
0.0
 10
107.659060
 20
77.992561
 30
0.0
  0
LWPOLYLINE
  5
12f
100
AcDbEntity
  8
0
 62
7
100
AcDbPolyline
 90
2
 70
0
 10
103.341045
 20
79.855128
 30
0.0
 10
107.166810
 20
81.099322
 30
0.0
  0
LWPOLYLINE
  5
130
100
AcDbEntity
  8
0
 62
7
100
AcDbPolyline
 90
2
 70
0
 10
102.483971
 20
81.538090
 30
0.0
 10
105.738354
 20
83.902751
 30
0.0
  0
LWPOLYLINE
  5
131
100
AcDbEntity
  8
0
 62
7
100
AcDbPolyline
 90
2
 70
0
 10
101.149070
 20
82.873018
 30
0.0
 10
103.513518
 20
86.127454
 30
0.0
  0
LWPOLYLINE
  5
132
100
AcDbEntity
  8
0
 62
7
100
AcDbPolyline
 90
2
 70
0
 10
99.466986
 20
83.730065
 30
0.0
 10
100.710063
 20
87.556043
 30
0.0
  0
LWPOLYLINE
  5
133
100
AcDbEntity
  8
0
 62
7
100
AcDbPolyline
 90
2
 70
0
 10
97.602397
 20
84.025415
 30
0.0
 10
97.602397
 20
88.048027
 30
0.0
  0
LWPOLYLINE
  5
134
100
AcDbEntity
  8
0
 62
7
100
AcDbPolyline
 90
2
 70
0
 10
131.941609
 20
83.730065
 30
0.0
 10
130.698478
 20
87.556043
 30
0.0
  0
LWPOLYLINE
  5
135
100
AcDbEntity
  8
0
 62
7
100
AcDbPolyline
 90
2
 70
0
 10
130.259445
 20
82.873018
 30
0.0
 10
127.895049
 20
86.127454
 30
0.0
  0
LWPOLYLINE
  5
136
100
AcDbEntity
  8
0
 62
7
100
AcDbPolyline
 90
2
 70
0
 10
128.924517
 20
81.538090
 30
0.0
 10
125.670080
 20
83.902751
 30
0.0
  0
LWPOLYLINE
  5
137
100
AcDbEntity
  8
0
 62
7
100
AcDbPolyline
 90
2
 70
0
 10
128.067470
 20
79.855128
 30
0.0
 10
124.241758
 20
81.099322
 30
0.0
  0
LWPOLYLINE
  5
138
100
AcDbEntity
  8
0
 62
7
100
AcDbPolyline
 90
2
 70
0
 10
127.772120
 20
77.992561
 30
0.0
 10
123.749508
 20
77.992561
 30
0.0
  0
LWPOLYLINE
  5
139
100
AcDbEntity
  8
0
 62
7
100
AcDbPolyline
 90
2
 70
0
 10
128.067470
 20
76.127334
 30
0.0
 10
124.241758
 20
74.884735
 30
0.0
  0
LWPOLYLINE
  5
13a
100
AcDbEntity
  8
0
 62
7
100
AcDbPolyline
 90
2
 70
0
 10
128.924517
 20
74.445702
 30
0.0
 10
125.670080
 20
72.080242
 30
0.0
  0
LWPOLYLINE
  5
13b
100
AcDbEntity
  8
0
 62
7
100
AcDbPolyline
 90
2
 70
0
 10
130.259445
 20
73.109975
 30
0.0
 10
127.895049
 20
69.855805
 30
0.0
  0
LWPOLYLINE
  5
13c
100
AcDbEntity
  8
0
 62
7
100
AcDbPolyline
 90
2
 70
0
 10
137.352897
 20
73.109975
 30
0.0
 10
139.717293
 20
69.855805
 30
0.0
  0
LWPOLYLINE
  5
13d
100
AcDbEntity
  8
0
 62
7
100
AcDbPolyline
 90
2
 70
0
 10
138.687826
 20
74.445702
 30
0.0
 10
141.942262
 20
72.080242
 30
0.0
  0
LWPOLYLINE
  5
13e
100
AcDbEntity
  8
0
 62
7
100
AcDbPolyline
 90
2
 70
0
 10
139.544872
 20
76.127334
 30
0.0
 10
143.370584
 20
74.884735
 30
0.0
  0
LWPOLYLINE
  5
13f
100
AcDbEntity
  8
0
 62
7
100
AcDbPolyline
 90
2
 70
0
 10
139.840222
 20
77.992561
 30
0.0
 10
143.862834
 20
77.992561
 30
0.0
  0
LWPOLYLINE
  5
140
100
AcDbEntity
  8
0
 62
7
100
AcDbPolyline
 90
2
 70
0
 10
139.544872
 20
79.855128
 30
0.0
 10
143.370584
 20
81.099322
 30
0.0
  0
LWPOLYLINE
  5
141
100
AcDbEntity
  8
0
 62
7
100
AcDbPolyline
 90
2
 70
0
 10
138.687826
 20
81.538090
 30
0.0
 10
141.942262
 20
83.902751
 30
0.0
  0
LWPOLYLINE
  5
142
100
AcDbEntity
  8
0
 62
7
100
AcDbPolyline
 90
2
 70
0
 10
137.352897
 20
82.873018
 30
0.0
 10
139.717293
 20
86.127454
 30
0.0
  0
LWPOLYLINE
  5
143
100
AcDbEntity
  8
0
 62
7
100
AcDbPolyline
 90
2
 70
0
 10
135.670733
 20
83.730065
 30
0.0
 10
136.913864
 20
87.556043
 30
0.0
  0
LWPOLYLINE
  5
144
100
AcDbEntity
  8
0
 62
7
100
AcDbPolyline
 90
2
 70
0
 10
133.806038
 20
84.025415
 30
0.0
 10
133.806038
 20
88.048027
 30
0.0
  0
LWPOLYLINE
  5
145
100
AcDbEntity
  8
0
 62
7
100
AcDbPolyline
 90
2
 70
0
 10
23.330286
 20
53.561007
 30
0.0
 10
22.087155
 20
57.387251
 30
0.0
  0
LWPOLYLINE
  5
146
100
AcDbEntity
  8
0
 62
7
100
AcDbPolyline
 90
2
 70
0
 10
21.648122
 20
52.704226
 30
0.0
 10
19.283726
 20
55.958396
 30
0.0
  0
LWPOLYLINE
  5
147
100
AcDbEntity
  8
0
 62
7
100
AcDbPolyline
 90
2
 70
0
 10
20.313194
 20
51.368500
 30
0.0
 10
17.058757
 20
53.733959
 30
0.0
  0
LWPOLYLINE
  5
148
100
AcDbEntity
  8
0
 62
7
100
AcDbPolyline
 90
2
 70
0
 10
19.456147
 20
49.686868
 30
0.0
 10
15.630435
 20
50.929466
 30
0.0
  0
LWPOLYLINE
  5
149
100
AcDbEntity
  8
0
 62
7
100
AcDbPolyline
 90
2
 70
0
 10
19.160797
 20
47.821640
 30
0.0
 10
15.138185
 20
47.821640
 30
0.0
  0
LWPOLYLINE
  5
14a
100
AcDbEntity
  8
0
 62
7
100
AcDbPolyline
 90
2
 70
0
 10
19.456147
 20
45.956413
 30
0.0
 10
15.630435
 20
44.713815
 30
0.0
  0
LWPOLYLINE
  5
14b
100
AcDbEntity
  8
0
 62
7
100
AcDbPolyline
 90
2
 70
0
 10
20.313194
 20
44.274781
 30
0.0
 10
17.058757
 20
41.909321
 30
0.0
  0
LWPOLYLINE
  5
14c
100
AcDbEntity
  8
0
 62
7
100
AcDbPolyline
 90
2
 70
0
 10
21.648122
 20
42.939055
 30
0.0
 10
19.283726
 20
39.684885
 30
0.0
  0
LWPOLYLINE
  5
14d
100
AcDbEntity
  8
0
 62
7
100
AcDbPolyline
 90
2
 70
0
 10
28.741574
 20
42.939055
 30
0.0
 10
31.105970
 20
39.684885
 30
0.0
  0
LWPOLYLINE
  5
14e
100
AcDbEntity
  8
0
 62
7
100
AcDbPolyline
 90
2
 70
0
 10
30.076502
 20
44.274781
 30
0.0
 10
33.330939
 20
41.909321
 30
0.0
  0
LWPOLYLINE
  5
14f
100
AcDbEntity
  8
0
 62
7
100
AcDbPolyline
 90
2
 70
0
 10
30.933549
 20
45.956413
 30
0.0
 10
34.759261
 20
44.713815
 30
0.0
  0
LWPOLYLINE
  5
150
100
AcDbEntity
  8
0
 62
7
100
AcDbPolyline
 90
2
 70
0
 10
31.228899
 20
47.821640
 30
0.0
 10
35.251511
 20
47.821640
 30
0.0
  0
LWPOLYLINE
  5
151
100
AcDbEntity
  8
0
 62
7
100
AcDbPolyline
 90
2
 70
0
 10
30.933549
 20
49.686868
 30
0.0
 10
34.759261
 20
50.929466
 30
0.0
  0
LWPOLYLINE
  5
152
100
AcDbEntity
  8
0
 62
7
100
AcDbPolyline
 90
2
 70
0
 10
30.076502
 20
51.368500
 30
0.0
 10
33.330939
 20
53.733959
 30
0.0
  0
LWPOLYLINE
  5
153
100
AcDbEntity
  8
0
 62
7
100
AcDbPolyline
 90
2
 70
0
 10
28.741574
 20
52.704226
 30
0.0
 10
31.105970
 20
55.958396
 30
0.0
  0
LWPOLYLINE
  5
154
100
AcDbEntity
  8
0
 62
7
100
AcDbPolyline
 90
2
 70
0
 10
27.059410
 20
53.561007
 30
0.0
 10
28.302541
 20
57.387251
 30
0.0
  0
LWPOLYLINE
  5
155
100
AcDbEntity
  8
0
 62
7
100
AcDbPolyline
 90
2
 70
0
 10
25.194981
 20
53.856357
 30
0.0
 10
25.194981
 20
57.879501
 30
0.0
  0
LWPOLYLINE
  5
156
100
AcDbEntity
  8
0
 62
7
100
AcDbPolyline
 90
2
 70
0
 10
59.534033
 20
53.561007
 30
0.0
 10
58.290956
 20
57.387251
 30
0.0
  0
LWPOLYLINE
  5
157
100
AcDbEntity
  8
0
 62
7
100
AcDbPolyline
 90
2
 70
0
 10
57.851949
 20
52.704226
 30
0.0
 10
55.487501
 20
55.958396
 30
0.0
  0
LWPOLYLINE
  5
158
100
AcDbEntity
  8
0
 62
7
100
AcDbPolyline
 90
2
 70
0
 10
56.517048
 20
51.368500
 30
0.0
 10
53.262665
 20
53.733959
 30
0.0
  0
LWPOLYLINE
  5
159
100
AcDbEntity
  8
0
 62
7
100
AcDbPolyline
 90
2
 70
0
 10
55.659974
 20
49.686868
 30
0.0
 10
51.834209
 20
50.929466
 30
0.0
  0
LWPOLYLINE
  5
15a
100
AcDbEntity
  8
0
 62
7
100
AcDbPolyline
 90
2
 70
0
 10
55.364651
 20
47.821640
 30
0.0
 10
51.341959
 20
47.821640
 30
0.0
  0
LWPOLYLINE
  5
15b
100
AcDbEntity
  8
0
 62
7
100
AcDbPolyline
 90
2
 70
0
 10
55.659974
 20
45.956413
 30
0.0
 10
51.834209
 20
44.713815
 30
0.0
  0
LWPOLYLINE
  5
15c
100
AcDbEntity
  8
0
 62
7
100
AcDbPolyline
 90
2
 70
0
 10
56.517048
 20
44.274781
 30
0.0
 10
53.262665
 20
41.909321
 30
0.0
  0
LWPOLYLINE
  5
15d
100
AcDbEntity
  8
0
 62
7
100
AcDbPolyline
 90
2
 70
0
 10
57.851949
 20
42.939055
 30
0.0
 10
55.487501
 20
39.684885
 30
0.0
  0
LWPOLYLINE
  5
15e
100
AcDbEntity
  8
0
 62
7
100
AcDbPolyline
 90
2
 70
0
 10
64.945295
 20
42.939055
 30
0.0
 10
67.309744
 20
39.684885
 30
0.0
  0
LWPOLYLINE
  5
15f
100
AcDbEntity
  8
0
 62
7
100
AcDbPolyline
 90
2
 70
0
 10
66.280197
 20
44.274781
 30
0.0
 10
69.534580
 20
41.909321
 30
0.0
  0
LWPOLYLINE
  5
160
100
AcDbEntity
  8
0
 62
7
100
AcDbPolyline
 90
2
 70
0
 10
67.137270
 20
45.956413
 30
0.0
 10
70.963009
 20
44.713815
 30
0.0
  0
LWPOLYLINE
  5
161
100
AcDbEntity
  8
0
 62
7
100
AcDbPolyline
 90
2
 70
0
 10
67.432594
 20
47.821640
 30
0.0
 10
71.455232
 20
47.821640
 30
0.0
  0
LWPOLYLINE
  5
162
100
AcDbEntity
  8
0
 62
7
100
AcDbPolyline
 90
2
 70
0
 10
67.137270
 20
49.686868
 30
0.0
 10
70.963009
 20
50.929466
 30
0.0
  0
LWPOLYLINE
  5
163
100
AcDbEntity
  8
0
 62
7
100
AcDbPolyline
 90
2
 70
0
 10
66.280197
 20
51.368500
 30
0.0
 10
69.534580
 20
53.733959
 30
0.0
  0
LWPOLYLINE
  5
164
100
AcDbEntity
  8
0
 62
7
100
AcDbPolyline
 90
2
 70
0
 10
64.945295
 20
52.704226
 30
0.0
 10
67.309744
 20
55.958396
 30
0.0
  0
LWPOLYLINE
  5
165
100
AcDbEntity
  8
0
 62
7
100
AcDbPolyline
 90
2
 70
0
 10
63.263211
 20
53.561007
 30
0.0
 10
64.506288
 20
57.387251
 30
0.0
  0
LWPOLYLINE
  5
166
100
AcDbEntity
  8
0
 62
7
100
AcDbPolyline
 90
2
 70
0
 10
61.398622
 20
53.856357
 30
0.0
 10
61.398622
 20
57.879501
 30
0.0
  0
LWPOLYLINE
  5
167
100
AcDbEntity
  8
0
 62
7
100
AcDbPolyline
 90
4
 70
0
 10
82.517495
 20
57.879501
 30
0.0
 10
82.517495
 20
59.888412
 30
0.0
 10
84.528801
 20
59.888412
 30
0.0
 10
84.528801
 20
57.879501
 30
0.0
  0
LWPOLYLINE
  5
168
100
AcDbEntity
  8
0
 62
7
100
AcDbPolyline
 90
2
 70
0
 10
80.506171
 20
57.879501
 30
0.0
 10
82.517495
 20
57.879501
 30
0.0
  0
LWPOLYLINE
  5
169
100
AcDbEntity
  8
0
 62
7
100
AcDbPolyline
 90
2
 70
0
 10
80.506171
 20
57.879501
 30
0.0
 10
80.506171
 20
59.888412
 30
0.0
  0
LWPOLYLINE
  5
16a
100
AcDbEntity
  8
0
 62
7
100
AcDbPolyline
 90
5
 70
0
 10
86.540134
 20
57.879501
 30
0.0
 10
87.545787
 20
59.888412
 30
0.0
 10
88.551440
 20
57.879501
 30
0.0
 10
89.557119
 20
59.888412
 30
0.0
 10
90.562772
 20
57.879501
 30
0.0
  0
SPLINE
  5
16b
100
AcDbEntity
  8
0
 62
7
100
AcDbSpline
 70
8
 71
3
 72
8
 73
4
 74
0
 40
0
 40
0
 40
0
 40
0
 40
1
 40
1
 40
1
 40
1
 10
51.342020
 20
92.070780
 30
0.0
 10
51.075303
 20
92.070780
 30
0.0
 10
50.819509
 20
91.964827
 30
0.0
 10
50.630911
 20
91.776229
 30
0.0
  0
SPLINE
  5
16c
100
AcDbEntity
  8
0
 62
7
100
AcDbSpline
 70
8
 71
3
 72
8
 73
4
 74
0
 40
0
 40
0
 40
0
 40
0
 40
1
 40
1
 40
1
 40
1
 10
50.630911
 20
91.776229
 30
0.0
 10
50.442313
 20
91.587631
 30
0.0
 10
50.336359
 20
91.331837
 30
0.0
 10
50.336359
 20
91.065119
 30
0.0
  0
SPLINE
  5
16d
100
AcDbEntity
  8
0
 62
7
100
AcDbSpline
 70
8
 71
3
 72
8
 73
4
 74
0
 40
0
 40
0
 40
0
 40
0
 40
1
 40
1
 40
1
 40
1
 10
108.664660
 20
91.065119
 30
0.0
 10
108.664660
 20
91.331837
 30
0.0
 10
108.558707
 20
91.587631
 30
0.0
 10
108.370109
 20
91.776229
 30
0.0
  0
SPLINE
  5
16e
100
AcDbEntity
  8
0
 62
7
100
AcDbSpline
 70
8
 71
3
 72
8
 73
4
 74
0
 40
0
 40
0
 40
0
 40
0
 40
1
 40
1
 40
1
 40
1
 10
108.370109
 20
91.776229
 30
0.0
 10
108.181510
 20
91.964827
 30
0.0
 10
107.925717
 20
92.070780
 30
0.0
 10
107.658999
 20
92.070780
 30
0.0
  0
LWPOLYLINE
  5
16f
100
AcDbEntity
  8
0
 62
7
100
AcDbPolyline
 90
5
 70
0
 10
92.574105
 20
57.879501
 30
0.0
 10
94.585411
 20
59.888412
 30
0.0
 10
94.585411
 20
57.879501
 30
0.0
 10
96.596744
 20
59.888412
 30
0.0
 10
96.596744
 20
57.879501
 30
0.0
  0
LWPOLYLINE
  5
170
100
AcDbEntity
  8
0
 62
7
100
AcDbPolyline
 90
2
 70
0
 10
50.336439
 20
91.065119
 30
0.0
 10
50.336439
 20
87.042507
 30
0.0
  0
SPLINE
  5
171
100
AcDbEntity
  8
0
 62
7
100
AcDbSpline
 70
8
 71
3
 72
8
 73
4
 74
0
 40
0
 40
0
 40
0
 40
0
 40
1
 40
1
 40
1
 40
1
 10
15.138249
 20
61.900971
 30
0.0
 10
14.871531
 20
61.900972
 30
0.0
 10
14.615737
 20
61.795018
 30
0.0
 10
14.427139
 20
61.606420
 30
0.0
  0
SPLINE
  5
172
100
AcDbEntity
  8
0
 62
7
100
AcDbSpline
 70
8
 71
3
 72
8
 73
4
 74
0
 40
0
 40
0
 40
0
 40
0
 40
1
 40
1
 40
1
 40
1
 10
14.427139
 20
61.606420
 30
0.0
 10
14.238541
 20
61.417822
 30
0.0
 10
14.132588
 20
61.162028
 30
0.0
 10
14.132588
 20
60.895310
 30
0.0
  0
LWPOLYLINE
  5
173
100
AcDbEntity
  8
0
 62
7
100
AcDbPolyline
 90
2
 70
0
 10
37.369995
 20
62.000954
 30
0.0
 10
15.134066
 20
62.000954
 30
0.0
  0
SPLINE
  5
174
100
AcDbEntity
  8
0
 62
7
100
AcDbSpline
 70
8
 71
3
 72
8
 73
4
 74
0
 40
0
 40
0
 40
0
 40
0
 40
1
 40
1
 40
1
 40
1
 10
72.460888
 20
60.895310
 30
0.0
 10
72.460888
 20
61.162028
 30
0.0
 10
72.354935
 20
61.417822
 30
0.0
 10
72.166337
 20
61.606420
 30
0.0
  0
SPLINE
  5
175
100
AcDbEntity
  8
0
 62
7
100
AcDbSpline
 70
8
 71
3
 72
8
 73
4
 74
0
 40
0
 40
0
 40
0
 40
0
 40
1
 40
1
 40
1
 40
1
 10
72.166337
 20
61.606420
 30
0.0
 10
71.977739
 20
61.795018
 30
0.0
 10
71.721945
 20
61.900972
 30
0.0
 10
71.455227
 20
61.900971
 30
0.0
  0
LWPOLYLINE
  5
176
100
AcDbEntity
  8
0
 62
7
100
AcDbPolyline
 90
2
 70
0
 10
48.375963
 20
61.899984
 30
0.0
 10
71.459588
 20
61.899984
 30
0.0
  0
LWPOLYLINE
  5
177
100
AcDbEntity
  8
0
 62
7
100
AcDbPolyline
 90
2
 70
0
 10
14.132665
 20
60.894198
 30
0.0
 10
14.132665
 20
56.873715
 30
0.0
  0
LWPOLYLINE
  5
178
100
AcDbEntity
  8
0
 62
7
100
AcDbPolyline
 90
2
 70
0
 10
72.460885
 20
60.894198
 30
0.0
 10
72.460885
 20
56.873715
 30
0.0
  0
LWPOLYLINE
  5
179
100
AcDbEntity
  8
0
 62
7
100
AcDbPolyline
 90
2
 70
0
 10
108.664580
 20
91.065119
 30
0.0
 10
108.664580
 20
87.042507
 30
0.0
  0
LWPOLYLINE
  5
17a
100
AcDbEntity
  8
0
 62
7
100
AcDbPolyline
 90
2
 70
0
 10
121.026238
 20
39.562937
 30
0.0
 10
128.480808
 20
39.562937
 30
0.0
  0
LWPOLYLINE
  5
17b
100
AcDbEntity
  8
0
 62
7
100
AcDbPolyline
 90
2
 70
0
 10
33.172778
 20
35.580264
 30
0.0
 10
38.618723
 20
35.580264
 30
0.0
  0
LWPOLYLINE
  5
17c
100
AcDbEntity
  8
0
 62
7
100
AcDbPolyline
 90
2
 70
0
 10
67.351168
 20
35.574519
 30
0.0
 10
78.638341
 20
35.574519
 30
0.0
  0
LWPOLYLINE
  5
17d
100
AcDbEntity
  8
0
 62
7
100
AcDbPolyline
 90
2
 70
0
 10
30.312176
 20
65.189251
 30
0.0
 10
38.195745
 20
65.189251
 30
0.0
  0
LWPOLYLINE
  5
17e
100
AcDbEntity
  8
0
 62
7
100
AcDbPolyline
 90
2
 70
0
 10
102.919402
 20
39.590133
 30
0.0
 10
110.617050
 20
39.590133
 30
0.0
  0
LWPOLYLINE
  5
17f
100
AcDbEntity
  8
0
 62
7
100
AcDbPolyline
 90
2
 70
0
 10
128.777906
 20
47.821640
 30
0.0
 10
138.834436
 20
47.821640
 30
0.0
  0
LWPOLYLINE
  5
180
100
AcDbEntity
  8
0
 62
7
100
AcDbPolyline
 90
2
 70
0
 10
72.416721
 20
92.075623
 30
0.0
 10
51.337242
 20
92.075623
 30
0.0
  0
LWPOLYLINE
  5
181
100
AcDbEntity
  8
0
 62
7
100
AcDbPolyline
 90
2
 70
0
 10
85.453494
 20
92.070905
 30
0.0
 10
107.663307
 20
92.070905
 30
0.0
  0
LWPOLYLINE
  5
182
100
AcDbEntity
  8
0
 62
7
100
AcDbPolyline
 90
4
 70
0
 10
22.152521
 20
65.954023
 30
0.0
 10
22.152521
 20
68.062520
 30
0.0
 10
21.059340
 20
68.062520
 30
0.0
 10
23.233802
 20
68.062520
 30
0.0
  0
LWPOLYLINE
  5
183
100
AcDbEntity
  8
0
 62
7
100
AcDbPolyline
 90
6
 70
0
 10
23.553201
 20
67.615216
 30
0.0
 10
23.553201
 20
66.104144
 30
0.0
 10
23.702812
 20
65.954022
 30
0.0
 10
24.977907
 20
65.954022
 30
0.0
 10
25.158120
 20
66.146647
 30
0.0
 10
25.158120
 20
67.635618
 30
0.0
  0
LWPOLYLINE
  5
184
100
AcDbEntity
  8
0
 62
7
100
AcDbPolyline
 90
5
 70
0
 10
25.654764
 20
65.954023
 30
0.0
 10
25.654764
 20
67.613687
 30
0.0
 10
27.110073
 20
67.613687
 30
0.0
 10
27.269885
 20
67.453875
 30
0.0
 10
27.269885
 20
65.943483
 30
0.0
  0
LWPOLYLINE
  5
185
100
AcDbEntity
  8
0
 62
7
100
AcDbPolyline
 90
9
 70
0
 10
29.435868
 20
65.954022
 30
0.0
 10
27.912554
 20
65.954022
 30
0.0
 10
27.742542
 20
66.136106
 30
0.0
 10
27.742542
 20
67.378218
 30
0.0
 10
27.926155
 20
67.572033
 30
0.0
 10
29.167248
 20
67.572033
 30
0.0
 10
29.347461
 20
67.388419
 30
0.0
 10
29.347461
 20
66.769573
 30
0.0
 10
27.732341
 20
66.769573
 30
0.0
  0
LWPOLYLINE
  5
186
100
AcDbEntity
  8
0
 62
7
100
AcDbPolyline
 90
6
 70
1
 10
56.669539
 20
67.948045
 30
0.0
 10
56.669539
 20
65.848538
 30
0.0
 10
58.571409
 20
65.848538
 30
0.0
 10
58.780756
 20
66.060724
 30
0.0
 10
58.780756
 20
67.749343
 30
0.0
 10
58.582054
 20
67.948045
 30
0.0
  0
LWPOLYLINE
  5
187
100
AcDbEntity
  8
0
 62
7
100
AcDbPolyline
 90
9
 70
0
 10
61.119061
 20
65.837361
 30
0.0
 10
59.529439
 20
65.837361
 30
0.0
 10
59.352025
 20
66.027370
 30
0.0
 10
59.352025
 20
67.323551
 30
0.0
 10
59.543632
 20
67.525802
 30
0.0
 10
60.838748
 20
67.525802
 30
0.0
 10
61.026806
 20
67.334196
 30
0.0
 10
61.026806
 20
66.688412
 30
0.0
 10
59.341381
 20
66.688412
 30
0.0
  0
LWPOLYLINE
  5
188
100
AcDbEntity
  8
0
 62
7
100
AcDbPolyline
 90
4
 70
0
 10
61.520025
 20
68.228358
 30
0.0
 10
61.520025
 20
66.049724
 30
0.0
 10
61.718728
 20
65.848538
 30
0.0
 10
62.077102
 20
65.848538
 30
0.0
  0
LWPOLYLINE
  5
189
100
AcDbEntity
  8
0
 62
7
100
AcDbPolyline
 90
8
 70
0
 10
62.279347
 20
67.515157
 30
0.0
 10
63.854776
 20
67.515157
 30
0.0
 10
64.042834
 20
67.334196
 30
0.0
 10
64.042834
 20
65.848538
 30
0.0
 10
62.534822
 20
65.848538
 30
0.0
 10
62.357409
 20
66.027370
 30
0.0
 10
62.357409
 20
66.663574
 30
0.0
 10
64.021544
 20
66.663574
 30
0.0
  0
LWPOLYLINE
  5
18a
100
AcDbEntity
  8
0
 62
7
100
AcDbPolyline
 90
9
 70
0
 10
64.748924
 20
65.077500
 30
0.0
 10
66.001461
 20
65.077500
 30
0.0
 10
66.200164
 20
65.279751
 30
0.0
 10
66.200164
 20
67.603864
 30
0.0
 10
66.200164
 20
65.971308
 30
0.0
 10
66.068878
 20
65.848538
 30
0.0
 10
64.649573
 20
65.848538
 30
0.0
 10
64.457966
 20
66.038725
 30
0.0
 10
64.457966
 20
67.593219
 30
0.0
  0
LWPOLYLINE
  5
18b
100
AcDbEntity
  8
0
 62
7
100
AcDbPolyline
 90
6
 70
0
 10
89.302269
 20
65.848871
 30
0.0
 10
89.302269
 20
67.030037
 30
0.0
 10
90.928537
 20
67.030037
 30
0.0
 10
89.302269
 20
67.030037
 30
0.0
 10
89.302269
 20
68.055293
 30
0.0
 10
91.306821
 20
68.055293
 30
0.0
  0
LWPOLYLINE
  5
18c
100
AcDbEntity
  8
0
 62
7
100
AcDbPolyline
 90
9
 70
0
 10
93.192119
 20
65.848871
 30
0.0
 10
91.608275
 20
65.848871
 30
0.0
 10
91.431507
 20
66.038190
 30
0.0
 10
91.431507
 20
67.329660
 30
0.0
 10
91.622417
 20
67.531175
 30
0.0
 10
92.912825
 20
67.531175
 30
0.0
 10
93.100200
 20
67.340266
 30
0.0
 10
93.100200
 20
66.696829
 30
0.0
 10
91.420901
 20
66.696829
 30
0.0
  0
LWPOLYLINE
  5
18d
100
AcDbEntity
  8
0
 62
7
100
AcDbPolyline
 90
9
 70
0
 10
95.373458
 20
65.848871
 30
0.0
 10
93.789614
 20
65.848871
 30
0.0
 10
93.612845
 20
66.038190
 30
0.0
 10
93.612845
 20
67.329660
 30
0.0
 10
93.803755
 20
67.531175
 30
0.0
 10
95.094164
 20
67.531175
 30
0.0
 10
95.281538
 20
67.340266
 30
0.0
 10
95.281538
 20
66.696829
 30
0.0
 10
93.602239
 20
66.696829
 30
0.0
  0
LWPOLYLINE
  5
18e
100
AcDbEntity
  8
0
 62
7
100
AcDbPolyline
 90
8
 70
0
 10
97.399210
 20
68.209435
 30
0.0
 10
97.399210
 20
65.848871
 30
0.0
 10
95.871932
 20
65.848871
 30
0.0
 10
95.671830
 20
66.060286
 30
0.0
 10
95.671830
 20
67.297311
 30
0.0
 10
95.861326
 20
67.484685
 30
0.0
 10
97.218907
 20
67.484685
 30
0.0
 10
97.385069
 20
67.329129
 30
0.0
  0
LWPOLYLINE
  5
18f
100
AcDbEntity
  8
0
 62
7
100
AcDbPolyline
 90
8
 70
0
 10
97.887070
 20
68.208905
 30
0.0
 10
97.887070
 20
65.848871
 30
0.0
 10
99.378995
 20
65.848871
 30
0.0
 10
99.555763
 20
66.038190
 30
0.0
 10
99.555763
 20
67.307386
 30
0.0
 10
99.368389
 20
67.498296
 30
0.0
 10
98.032020
 20
67.498296
 30
0.0
 10
97.908282
 20
67.374558
 30
0.0
  0
LWPOLYLINE
  5
190
100
AcDbEntity
  8
0
 62
7
100
AcDbPolyline
 90
8
 70
0
 10
99.902263
 20
67.509433
 30
0.0
 10
101.471966
 20
67.509433
 30
0.0
 10
101.659340
 20
67.329129
 30
0.0
 10
101.659340
 20
65.848871
 30
0.0
 10
100.156810
 20
65.848871
 30
0.0
 10
99.980041
 20
66.027054
 30
0.0
 10
99.980041
 20
66.660945
 30
0.0
 10
101.638128
 20
66.660945
 30
0.0
  0
LWPOLYLINE
  5
191
100
AcDbEntity
  8
0
 62
7
100
AcDbPolyline
 90
6
 70
0
 10
103.946941
 20
65.848871
 30
0.0
 10
102.366633
 20
65.848871
 30
0.0
 10
102.175723
 20
66.049327
 30
0.0
 10
102.175723
 20
67.329129
 30
0.0
 10
102.366633
 20
67.520039
 30
0.0
 10
103.946941
 20
67.520039
 30
0.0
  0
LWPOLYLINE
  5
192
100
AcDbEntity
  8
0
 62
7
100
AcDbPolyline
 90
7
 70
0
 10
104.332050
 20
68.320799
 30
0.0
 10
104.332050
 20
65.848871
 30
0.0
 10
104.332050
 20
66.782915
 30
0.0
 10
105.067406
 20
66.782915
 30
0.0
 10
105.891147
 20
67.709181
 30
0.0
 10
105.067406
 20
66.782915
 30
0.0
 10
105.901753
 20
65.859831
 30
0.0
  0
LWPOLYLINE
  5
193
100
AcDbEntity
  8
0
 62
7
100
AcDbPolyline
 90
3
 70
0
 10
130.878137
 20
68.230853
 30
0.0
 10
132.237653
 20
65.910976
 30
0.0
 10
133.629797
 20
68.241729
 30
0.0
  0
LWPOLYLINE
  5
194
100
AcDbEntity
  8
0
 62
7
100
AcDbPolyline
 90
8
 70
1
 10
133.795630
 20
67.385398
 30
0.0
 10
133.795630
 20
66.116517
 30
0.0
 10
133.987775
 20
65.910958
 30
0.0
 10
135.314662
 20
65.910958
 30
0.0
 10
135.495931
 20
66.093677
 30
0.0
 10
135.495931
 20
67.465156
 30
0.0
 10
135.336414
 20
67.635549
 30
0.0
 10
134.024029
 20
67.635549
 30
0.0
  0
LWPOLYLINE
  5
195
100
AcDbEntity
  8
0
 62
7
100
AcDbPolyline
 90
4
 70
0
 10
136.166392
 20
68.342514
 30
0.0
 10
136.166392
 20
66.116534
 30
0.0
 10
136.369413
 20
65.910976
 30
0.0
 10
136.735576
 20
65.910976
 30
0.0
  0
LWPOLYLINE
  5
196
100
AcDbEntity
  8
0
 62
7
100
AcDbPolyline
 90
3
 70
0
 10
38.223491
 20
63.368172
 30
0.0
 10
38.223491
 20
60.676384
 30
0.0
 10
40.970079
 20
60.676384
 30
0.0
  0
LWPOLYLINE
  5
197
100
AcDbEntity
  8
0
 62
7
100
AcDbPolyline
 90
6
 70
0
 10
41.638502
 20
60.537514
 30
0.0
 10
41.638502
 20
62.008083
 30
0.0
 10
43.663230
 20
62.008083
 30
0.0
 10
41.638502
 20
62.008083
 30
0.0
 10
41.638502
 20
63.284542
 30
0.0
 10
44.134200
 20
63.284542
 30
0.0
  0
LWPOLYLINE
  5
198
100
AcDbEntity
  8
0
 62
7
100
AcDbPolyline
 90
8
 70
1
 10
44.802618
 20
63.020447
 30
0.0
 10
44.802618
 20
60.898444
 30
0.0
 10
45.040303
 20
60.676384
 30
0.0
 10
47.201480
 20
60.676384
 30
0.0
 10
47.421560
 20
60.898444
 30
0.0
 10
47.421560
 20
63.060062
 30
0.0
 10
47.201480
 20
63.253731
 30
0.0
 10
45.022697
 20
63.266936
 30
0.0
  0
LWPOLYLINE
  5
199
100
AcDbEntity
  8
0
 62
7
100
AcDbPolyline
 90
14
 70
0
 10
20.022955
 20
36.442685
 30
0.0
 10
20.022955
 20
36.280348
 30
0.0
 10
20.163670
 20
36.139806
 30
0.0
 10
21.883131
 20
36.139806
 30
0.0
 10
22.044437
 20
36.301970
 30
0.0
 10
22.044437
 20
37.003140
 30
0.0
 10
21.883131
 20
37.167879
 30
0.0
 10
20.184262
 20
37.167879
 30
0.0
 10
20.022955
 20
37.339481
 30
0.0
 10
20.022955
 20
37.988140
 30
0.0
 10
20.218583
 20
38.183768
 30
0.0
 10
21.903723
 20
38.183768
 30
0.0
 10
22.065030
 20
38.022461
 30
0.0
 10
22.065030
 20
37.847426
 30
0.0
  0
LWPOLYLINE
  5
19a
100
AcDbEntity
  8
0
 62
7
100
AcDbPolyline
 90
8
 70
0
 10
22.572974
 20
35.273383
 30
0.0
 10
22.572974
 20
37.717008
 30
0.0
 10
24.045327
 20
37.717008
 30
0.0
 10
24.196337
 20
37.576293
 30
0.0
 10
24.196337
 20
36.247744
 30
0.0
 10
24.055623
 20
36.107373
 30
0.0
 10
22.748009
 20
36.107373
 30
0.0
 10
22.593566
 20
36.258727
 30
0.0
  0
LWPOLYLINE
  5
19b
100
AcDbEntity
  8
0
 62
7
100
AcDbPolyline
 90
9
 70
0
 10
26.283038
 20
36.118184
 30
0.0
 10
24.745476
 20
36.118184
 30
0.0
 10
24.573873
 20
36.301970
 30
0.0
 10
24.573873
 20
37.555701
 30
0.0
 10
24.759204
 20
37.751328
 30
0.0
 10
26.011905
 20
37.751328
 30
0.0
 10
26.193804
 20
37.565997
 30
0.0
 10
26.193804
 20
36.941363
 30
0.0
 10
24.563577
 20
36.941363
 30
0.0
  0
LWPOLYLINE
  5
19c
100
AcDbEntity
  8
0
 62
7
100
AcDbPolyline
 90
9
 70
0
 10
28.400606
 20
36.118184
 30
0.0
 10
26.863044
 20
36.118184
 30
0.0
 10
26.691441
 20
36.301970
 30
0.0
 10
26.691441
 20
37.555701
 30
0.0
 10
26.876772
 20
37.751328
 30
0.0
 10
28.129473
 20
37.751328
 30
0.0
 10
28.311372
 20
37.565997
 30
0.0
 10
28.311372
 20
36.941363
 30
0.0
 10
26.681145
 20
36.941363
 30
0.0
  0
LWPOLYLINE
  5
19d
100
AcDbEntity
  8
0
 62
7
100
AcDbPolyline
 90
8
 70
0
 10
30.367163
 20
38.420580
 30
0.0
 10
30.367163
 20
36.128995
 30
0.0
 10
28.884514
 20
36.128995
 30
0.0
 10
28.690259
 20
36.334232
 30
0.0
 10
28.690259
 20
37.535109
 30
0.0
 10
28.874217
 20
37.717008
 30
0.0
 10
30.192128
 20
37.717008
 30
0.0
 10
30.353434
 20
37.565997
 30
0.0
  0
LWPOLYLINE
  5
19e
100
AcDbEntity
  8
0
 62
7
100
AcDbPolyline
 90
7
 70
0
 10
57.976539
 20
36.114713
 30
0.0
 10
57.976539
 20
38.238997
 30
0.0
 10
58.083961
 20
38.228926
 30
0.0
 10
59.127976
 20
37.003636
 30
0.0
 10
60.165276
 20
38.238997
 30
0.0
 10
60.262628
 20
38.238997
 30
0.0
 10
60.262628
 20
36.093565
 30
0.0
  0
LWPOLYLINE
  5
19f
100
AcDbEntity
  8
0
 62
7
100
AcDbPolyline
 90
8
 70
1
 10
60.675626
 20
37.458841
 30
0.0
 10
60.675626
 20
36.283905
 30
0.0
 10
60.853544
 20
36.093566
 30
0.0
 10
62.082191
 20
36.093566
 30
0.0
 10
62.250039
 20
36.262757
 30
0.0
 10
62.250039
 20
37.532694
 30
0.0
 10
62.102333
 20
37.690471
 30
0.0
 10
60.887114
 20
37.690471
 30
0.0
  0
LWPOLYLINE
  5
1a0
100
AcDbEntity
  8
0
 62
7
100
AcDbPolyline
 90
8
 70
0
 10
64.260862
 20
38.335007
 30
0.0
 10
64.260862
 20
36.093566
 30
0.0
 10
62.810656
 20
36.093566
 30
0.0
 10
62.620652
 20
36.294312
 30
0.0
 10
62.620652
 20
37.468912
 30
0.0
 10
62.800585
 20
37.646831
 30
0.0
 10
64.089657
 20
37.646831
 30
0.0
 10
64.247434
 20
37.499124
 30
0.0
  0
LWPOLYLINE
  5
1a1
100
AcDbEntity
  8
0
 62
7
100
AcDbPolyline
 90
5
 70
0
 10
83.349336
 20
42.636717
 30
0.0
 10
84.199970
 20
40.341448
 30
0.0
 10
85.050604
 20
42.658344
 30
0.0
 10
85.969721
 20
40.307566
 30
0.0
 10
86.821797
 20
42.669157
 30
0.0
  0
LWPOLYLINE
  5
1a2
100
AcDbEntity
  8
0
 62
7
100
AcDbPolyline
 90
8
 70
0
 10
87.140408
 20
42.034427
 30
0.0
 10
88.740753
 20
42.034427
 30
0.0
 10
88.931785
 20
41.850603
 30
0.0
 10
88.931785
 20
40.341449
 30
0.0
 10
87.399924
 20
40.341449
 30
0.0
 10
87.219705
 20
40.523110
 30
0.0
 10
87.219705
 20
41.169375
 30
0.0
 10
88.910159
 20
41.169375
 30
0.0
  0
LWPOLYLINE
  5
1a3
100
AcDbEntity
  8
0
 62
7
100
AcDbPolyline
 90
3
 70
0
 10
89.375148
 20
42.216086
 30
0.0
 10
90.409605
 20
40.341448
 30
0.0
 10
91.498128
 20
42.237712
 30
0.0
  0
LWPOLYLINE
  5
1a4
100
AcDbEntity
  8
0
 62
7
100
AcDbPolyline
 90
9
 70
0
 10
93.754485
 20
40.341448
 30
0.0
 10
92.139723
 20
40.341448
 30
0.0
 10
91.959504
 20
40.534462
 30
0.0
 10
91.959504
 20
41.851142
 30
0.0
 10
92.154140
 20
42.056592
 30
0.0
 10
93.469739
 20
42.056592
 30
0.0
 10
93.660771
 20
41.861956
 30
0.0
 10
93.660771
 20
41.205958
 30
0.0
 10
91.948690
 20
41.205958
 30
0.0
  0
LWPOLYLINE
  5
1a5
100
AcDbEntity
  8
0
 62
7
100
AcDbPolyline
 90
3
 70
0
 10
102.801862
 20
42.651486
 30
0.0
 10
102.801862
 20
40.344380
 30
0.0
 10
105.155937
 20
40.344380
 30
0.0
  0
LWPOLYLINE
  5
1a6
100
AcDbEntity
  8
0
 62
7
100
AcDbPolyline
 90
6
 70
0
 10
105.759283
 20
40.344380
 30
0.0
 10
105.759283
 20
41.604791
 30
0.0
 10
107.494658
 20
41.604791
 30
0.0
 10
105.759283
 20
41.604791
 30
0.0
 10
105.759283
 20
42.698832
 30
0.0
 10
107.898322
 20
42.698832
 30
0.0
  0
LWPOLYLINE
  5
1a7
100
AcDbEntity
  8
0
 62
7
100
AcDbPolyline
 90
8
 70
1
 10
108.388567
 20
42.353454
 30
0.0
 10
108.388567
 20
40.534705
 30
0.0
 10
108.592285
 20
40.344380
 30
0.0
 10
110.444610
 20
40.344380
 30
0.0
 10
110.633238
 20
40.534705
 30
0.0
 10
110.633238
 20
42.387407
 30
0.0
 10
110.444610
 20
42.553400
 30
0.0
 10
108.577195
 20
42.564717
 30
0.0
  0
LWPOLYLINE
  5
1a8
100
AcDbEntity
  8
0
 62
7
100
AcDbPolyline
 90
14
 70
0
 10
121.031377
 20
40.653953
 30
0.0
 10
121.031377
 20
40.493497
 30
0.0
 10
121.170462
 20
40.354581
 30
0.0
 10
122.870008
 20
40.354581
 30
0.0
 10
123.029447
 20
40.514868
 30
0.0
 10
123.029447
 20
41.207917
 30
0.0
 10
122.870008
 20
41.370747
 30
0.0
 10
121.190816
 20
41.370747
 30
0.0
 10
121.031377
 20
41.540363
 30
0.0
 10
121.031377
 20
42.181509
 30
0.0
 10
121.224739
 20
42.374871
 30
0.0
 10
122.890362
 20
42.374871
 30
0.0
 10
123.049801
 20
42.215432
 30
0.0
 10
123.049801
 20
42.042424
 30
0.0
  0
LWPOLYLINE
  5
1a9
100
AcDbEntity
  8
0
 62
7
100
AcDbPolyline
 90
6
 70
0
 10
123.541685
 20
40.354581
 30
0.0
 10
123.541685
 20
42.715288
 30
0.0
 10
123.541685
 20
42.033434
 30
0.0
 10
124.963063
 20
42.033434
 30
0.0
 10
125.156424
 20
41.850250
 30
0.0
 10
125.156424
 20
40.343726
 30
0.0
  0
LWPOLYLINE
  5
1aa
100
AcDbEntity
  8
0
 62
7
100
AcDbPolyline
 90
3
 70
0
 10
125.719469
 20
40.343896
 30
0.0
 10
125.709291
 20
40.365267
 30
0.0
 10
125.709291
 20
42.098058
 30
0.0
  0
LWPOLYLINE
  5
1ab
100
AcDbEntity
  8
0
 62
7
100
AcDbPolyline
 90
4
 70
1
 10
125.655014
 20
42.566197
 30
0.0
 10
125.655014
 20
42.705281
 30
0.0
 10
125.794098
 20
42.705281
 30
0.0
 10
125.794098
 20
42.566197
 30
0.0
  0
LWPOLYLINE
  5
1ac
100
AcDbEntity
  8
0
 62
7
100
AcDbPolyline
 90
7
 70
0
 10
126.285923
 20
40.354581
 30
0.0
 10
126.285923
 20
42.019866
 30
0.0
 10
127.181493
 20
42.019866
 30
0.0
 10
126.285923
 20
42.019866
 30
0.0
 10
126.285923
 20
42.460866
 30
0.0
 10
126.465716
 20
42.640658
 30
0.0
 10
127.195062
 20
42.640658
 30
0.0
  0
LWPOLYLINE
  5
1ad
100
AcDbEntity
  8
0
 62
7
100
AcDbPolyline
 90
7
 70
0
 10
127.595258
 20
42.618608
 30
0.0
 10
127.595258
 20
41.913008
 30
0.0
 10
128.480650
 20
41.913008
 30
0.0
 10
127.595258
 20
41.913008
 30
0.0
 10
127.595258
 20
40.482811
 30
0.0
 10
127.713989
 20
40.354581
 30
0.0
 10
128.480650
 20
40.354581
 30
0.0
  0
LWPOLYLINE
  5
1ae
100
AcDbEntity
  8
0
 62
7
100
AcDbPolyline
 90
14
 70
0
 10
138.962738
 20
40.698448
 30
0.0
 10
138.962738
 20
40.513220
 30
0.0
 10
139.086457
 20
40.352859
 30
0.0
 10
140.598235
 20
40.352859
 30
0.0
 10
140.740059
 20
40.537891
 30
0.0
 10
140.740059
 20
41.337937
 30
0.0
 10
140.598235
 20
41.525906
 30
0.0
 10
139.104562
 20
41.525906
 30
0.0
 10
138.962738
 20
41.721708
 30
0.0
 10
138.962738
 20
42.461838
 30
0.0
 10
139.134737
 20
42.685052
 30
0.0
 10
140.616341
 20
42.685052
 30
0.0
 10
140.758164
 20
42.500998
 30
0.0
 10
140.758164
 20
42.301281
 30
0.0
  0
LWPOLYLINE
  5
1af
100
AcDbEntity
  8
0
 62
7
100
AcDbPolyline
 90
8
 70
0
 10
141.173590
 20
42.192219
 30
0.0
 10
142.513370
 20
42.192219
 30
0.0
 10
142.673298
 20
41.992502
 30
0.0
 10
142.673298
 20
40.352859
 30
0.0
 10
141.390852
 20
40.352859
 30
0.0
 10
141.239975
 20
40.550227
 30
0.0
 10
141.239975
 20
41.252371
 30
0.0
 10
142.655193
 20
41.252371
 30
0.0
  0
LWPOLYLINE
  5
1b0
100
AcDbEntity
  8
0
 62
7
100
AcDbPolyline
 90
3
 70
0
 10
143.071112
 20
42.389587
 30
0.0
 10
143.937141
 20
40.352859
 30
0.0
 10
144.848432
 20
42.413083
 30
0.0
  0
LWPOLYLINE
  5
1b1
100
AcDbEntity
  8
0
 62
7
100
AcDbPolyline
 90
9
 70
0
 10
146.752507
 20
40.352859
 30
0.0
 10
145.400657
 20
40.352859
 30
0.0
 10
145.249781
 20
40.562562
 30
0.0
 10
145.249781
 20
41.993089
 30
0.0
 10
145.412727
 20
42.216303
 30
0.0
 10
146.514123
 20
42.216303
 30
0.0
 10
146.674052
 20
42.004837
 30
0.0
 10
146.674052
 20
41.292119
 30
0.0
 10
145.240729
 20
41.292119
 30
0.0
  0
LWPOLYLINE
  5
1b2
100
AcDbEntity
  8
0
 62
7
100
AcDbPolyline
 90
11
 70
0
 10
130.542316
 20
52.037333
 30
0.0
 10
130.542316
 20
53.425108
 30
0.0
 10
131.762019
 20
53.425108
 30
0.0
 10
131.880633
 20
53.306495
 30
0.0
 10
131.880633
 20
52.785044
 30
0.0
 10
131.755305
 20
52.664193
 30
0.0
 10
130.640788
 20
52.664193
 30
0.0
 10
130.535602
 20
52.771616
 30
0.0
 10
130.640788
 20
52.664193
 30
0.0
 10
131.309946
 20
52.664193
 30
0.0
 10
131.824683
 20
52.037333
 30
0.0
  0
LWPOLYLINE
  5
1b3
100
AcDbEntity
  8
0
 62
7
100
AcDbPolyline
 90
9
 70
0
 10
133.419314
 20
52.037326
 30
0.0
 10
132.416696
 20
52.037326
 30
0.0
 10
132.304796
 20
52.157170
 30
0.0
 10
132.304796
 20
52.974707
 30
0.0
 10
132.425648
 20
53.102272
 30
0.0
 10
133.242513
 20
53.102272
 30
0.0
 10
133.361126
 20
52.981421
 30
0.0
 10
133.361126
 20
52.574107
 30
0.0
 10
132.298082
 20
52.574107
 30
0.0
  0
LWPOLYLINE
  5
1b4
100
AcDbEntity
  8
0
 62
7
100
AcDbPolyline
 90
14
 70
0
 10
133.816105
 20
52.213567
 30
0.0
 10
133.816105
 20
52.143071
 30
0.0
 10
133.914577
 20
52.044375
 30
0.0
 10
134.760534
 20
52.044375
 30
0.0
 10
134.865720
 20
52.157170
 30
0.0
 10
134.865720
 20
52.459970
 30
0.0
 10
134.767248
 20
52.558441
 30
0.0
 10
133.943670
 20
52.558441
 30
0.0
 10
133.829533
 20
52.672578
 30
0.0
 10
133.829533
 20
52.988135
 30
0.0
 10
133.950384
 20
53.102272
 30
0.0
 10
134.747106
 20
53.102272
 30
0.0
 10
134.859006
 20
52.988135
 30
0.0
 10
134.859006
 20
52.925471
 30
0.0
  0
LWPOLYLINE
  5
1b5
100
AcDbEntity
  8
0
 62
7
100
AcDbPolyline
 90
9
 70
0
 10
136.423287
 20
52.037326
 30
0.0
 10
135.420669
 20
52.037326
 30
0.0
 10
135.308770
 20
52.157170
 30
0.0
 10
135.308770
 20
52.974707
 30
0.0
 10
135.429621
 20
53.102272
 30
0.0
 10
136.246486
 20
53.102272
 30
0.0
 10
136.365100
 20
52.981421
 30
0.0
 10
136.365100
 20
52.574107
 30
0.0
 10
135.302056
 20
52.574107
 30
0.0
  0
LWPOLYLINE
  5
1b6
100
AcDbEntity
  8
0
 62
7
100
AcDbPolyline
 90
7
 70
0
 10
136.820086
 20
53.552107
 30
0.0
 10
136.820086
 20
53.086606
 30
0.0
 10
137.404200
 20
53.086606
 30
0.0
 10
136.820086
 20
53.086606
 30
0.0
 10
136.820086
 20
52.143071
 30
0.0
 10
136.898415
 20
52.058475
 30
0.0
 10
137.404200
 20
52.058475
 30
0.0
  0
LWPOLYLINE
  5
1b7
100
AcDbEntity
  8
0
 62
7
100
AcDbPolyline
 90
3
 70
0
 10
130.611445
 20
50.622681
 30
0.0
 10
130.611445
 20
49.254040
 30
0.0
 10
132.007949
 20
49.254040
 30
0.0
  0
LWPOLYLINE
  5
1b8
100
AcDbEntity
  8
0
 62
7
100
AcDbPolyline
 90
6
 70
0
 10
132.440440
 20
49.254049
 30
0.0
 10
132.440440
 20
50.001760
 30
0.0
 10
133.469914
 20
50.001760
 30
0.0
 10
132.440440
 20
50.001760
 30
0.0
 10
132.440440
 20
50.650777
 30
0.0
 10
133.709378
 20
50.650777
 30
0.0
  0
LWPOLYLINE
  5
1b9
100
AcDbEntity
  8
0
 62
7
100
AcDbPolyline
 90
8
 70
1
 10
134.067320
 20
50.445880
 30
0.0
 10
134.067320
 20
49.366946
 30
0.0
 10
134.188171
 20
49.254040
 30
0.0
 10
135.287020
 20
49.254040
 30
0.0
 10
135.398919
 20
49.366946
 30
0.0
 10
135.398919
 20
50.466022
 30
0.0
 10
135.287020
 20
50.564493
 30
0.0
 10
134.179219
 20
50.571207
 30
0.0
  0
LWPOLYLINE
  5
1ba
100
AcDbEntity
  8
0
 62
7
100
AcDbPolyline
 90
11
 70
0
 10
135.909796
 20
50.360836
 30
0.0
 10
135.909796
 20
50.445880
 30
0.0
 10
136.050789
 20
50.586873
 30
0.0
 10
137.151879
 20
50.586873
 30
0.0
 10
137.277206
 20
50.452594
 30
0.0
 10
137.277206
 20
50.022900
 30
0.0
 10
137.151879
 20
49.895335
 30
0.0
 10
136.044075
 20
49.895335
 30
0.0
 10
135.909796
 20
49.761056
 30
0.0
 10
135.909796
 20
49.254040
 30
0.0
 10
137.333156
 20
49.254040
 30
0.0
  0
LWPOLYLINE
  5
1bb
100
AcDbEntity
  8
0
 62
7
100
AcDbPolyline
 90
6
 70
0
 10
103.324754
 20
37.355394
 30
0.0
 10
103.324754
 20
38.139859
 30
0.0
 10
104.404832
 20
38.139859
 30
0.0
 10
103.324754
 20
38.139859
 30
0.0
 10
103.324754
 20
38.820778
 30
0.0
 10
104.656068
 20
38.820778
 30
0.0
  0
LWPOLYLINE
  5
1bc
100
AcDbEntity
  8
0
 62
7
100
AcDbPolyline
 90
4
 70
0
 10
105.045573
 20
38.930203
 30
0.0
 10
105.045573
 20
37.488533
 30
0.0
 10
105.177061
 20
37.355402
 30
0.0
 10
105.414208
 20
37.355402
 30
0.0
  0
LWPOLYLINE
  5
1bd
100
AcDbEntity
  8
0
 62
7
100
AcDbPolyline
 90
8
 70
0
 10
105.783106
 20
38.458256
 30
0.0
 10
106.825616
 20
38.458256
 30
0.0
 10
106.950060
 20
38.338508
 30
0.0
 10
106.950060
 20
37.355402
 30
0.0
 10
105.952161
 20
37.355402
 30
0.0
 10
105.834762
 20
37.473741
 30
0.0
 10
105.834762
 20
37.894737
 30
0.0
 10
106.935972
 20
37.894737
 30
0.0
  0
LWPOLYLINE
  5
1be
100
AcDbEntity
  8
0
 62
7
100
AcDbPolyline
 90
11
 70
0
 10
107.630443
 20
36.852579
 30
0.0
 10
108.459285
 20
36.852579
 30
0.0
 10
108.590773
 20
36.986414
 30
0.0
 10
108.590773
 20
38.352948
 30
0.0
 10
108.459285
 20
38.486784
 30
0.0
 10
107.578787
 20
38.486784
 30
0.0
 10
107.444952
 20
38.352948
 30
0.0
 10
107.444952
 20
37.466345
 30
0.0
 10
107.555308
 20
37.355402
 30
0.0
 10
108.452241
 20
37.355402
 30
0.0
 10
108.583729
 20
37.488651
 30
0.0
  0
LWPOLYLINE
  5
1bf
100
AcDbEntity
  8
0
 62
7
100
AcDbPolyline
 90
14
 70
0
 10
109.008481
 20
37.532910
 30
0.0
 10
109.008481
 20
37.458949
 30
0.0
 10
109.111793
 20
37.355402
 30
0.0
 10
109.999335
 20
37.355402
 30
0.0
 10
110.109691
 20
37.473741
 30
0.0
 10
110.109691
 20
37.791425
 30
0.0
 10
110.006379
 20
37.894737
 30
0.0
 10
109.142317
 20
37.894737
 30
0.0
 10
109.022569
 20
38.014484
 30
0.0
 10
109.022569
 20
38.345552
 30
0.0
 10
109.149361
 20
38.465300
 30
0.0
 10
109.985247
 20
38.465300
 30
0.0
 10
110.102647
 20
38.345552
 30
0.0
 10
110.102647
 20
38.279808
 30
0.0
  0
LWPOLYLINE
  5
1c0
100
AcDbEntity
  8
0
 62
7
100
AcDbPolyline
 90
14
 70
1
 10
121.309182
 20
38.812703
 30
0.0
 10
122.636424
 20
38.812703
 30
0.0
 10
122.810787
 20
38.640943
 30
0.0
 10
122.810787
 20
38.232360
 30
0.0
 10
122.711894
 20
38.084022
 30
0.0
 10
121.415882
 20
38.084022
 30
0.0
 10
121.324796
 20
38.175107
 30
0.0
 10
121.324796
 20
38.003346
 30
0.0
 10
121.415882
 20
38.084022
 30
0.0
 10
122.711894
 20
38.084022
 30
0.0
 10
122.857631
 20
37.943490
 30
0.0
 10
122.857631
 20
37.420140
 30
0.0
 10
122.711894
 20
37.272452
 30
0.0
 10
121.301375
 20
37.272452
 30
0.0
  0
LWPOLYLINE
  5
1c1
100
AcDbEntity
  8
0
 62
7
100
AcDbPolyline
 90
8
 70
0
 10
123.302053
 20
38.494816
 30
0.0
 10
124.457534
 20
38.494816
 30
0.0
 10
124.595463
 20
38.362092
 30
0.0
 10
124.595463
 20
37.272452
 30
0.0
 10
123.489428
 20
37.272452
 30
0.0
 10
123.359307
 20
37.403615
 30
0.0
 10
123.359307
 20
37.870232
 30
0.0
 10
124.579849
 20
37.870232
 30
0.0
  0
LWPOLYLINE
  5
1c2
100
AcDbEntity
  8
0
 62
7
100
AcDbPolyline
 90
5
 70
0
 10
125.071998
 20
37.272452
 30
0.0
 10
125.071998
 20
38.542701
 30
0.0
 10
126.185840
 20
38.542701
 30
0.0
 10
126.308154
 20
38.420386
 30
0.0
 10
126.308154
 20
37.264385
 30
0.0
  0
LWPOLYLINE
  5
1c3
100
AcDbEntity
  8
0
 62
7
100
AcDbPolyline
 90
7
 70
0
 10
126.894525
 20
39.092075
 30
0.0
 10
126.894525
 20
37.272452
 30
0.0
 10
126.894525
 20
37.960016
 30
0.0
 10
127.435831
 20
37.960016
 30
0.0
 10
128.042199
 20
38.641853
 30
0.0
 10
127.435831
 20
37.960016
 30
0.0
 10
128.050006
 20
37.280520
 30
0.0
  0
LWPOLYLINE
  5
1c4
100
AcDbEntity
  8
0
 62
7
100
AcDbPolyline
 90
2
 70
0
 10
30.367999
 20
66.063316
 30
0.0
 10
31.312114
 20
67.167980
 30
0.0
  0
LWPOLYLINE
  5
1c5
100
AcDbEntity
  8
0
 62
7
100
AcDbPolyline
 90
8
 70
0
 10
31.890523
 20
65.953971
 30
0.0
 10
31.890523
 20
67.212860
 30
0.0
 10
33.014567
 20
67.212860
 30
0.0
 10
33.110448
 20
67.116980
 30
0.0
 10
33.110448
 20
66.615138
 30
0.0
 10
33.008447
 20
66.513138
 30
0.0
 10
31.986403
 20
66.513138
 30
0.0
 10
31.890523
 20
66.609018
 30
0.0
  0
LWPOLYLINE
  5
1c6
100
AcDbEntity
  8
0
 62
7
100
AcDbPolyline
 90
6
 70
0
 10
33.471464
 20
66.950617
 30
0.0
 10
33.471464
 20
66.044038
 30
0.0
 10
33.561225
 20
65.953971
 30
0.0
 10
34.326227
 20
65.953971
 30
0.0
 10
34.434348
 20
66.069538
 30
0.0
 10
34.434348
 20
66.962857
 30
0.0
  0
LWPOLYLINE
  5
1c7
100
AcDbEntity
  8
0
 62
7
100
AcDbPolyline
 90
4
 70
0
 10
34.830712
 20
67.322205
 30
0.0
 10
34.830712
 20
66.069640
 30
0.0
 10
34.944953
 20
65.953971
 30
0.0
 10
35.150993
 20
65.953971
 30
0.0
  0
LWPOLYLINE
  5
1c8
100
AcDbEntity
  8
0
 62
7
100
AcDbPolyline
 90
14
 70
0
 10
35.539146
 20
66.132153
 30
0.0
 10
35.539146
 20
66.067893
 30
0.0
 10
35.628906
 20
65.977929
 30
0.0
 10
36.400029
 20
65.977929
 30
0.0
 10
36.495909
 20
66.080745
 30
0.0
 10
36.495909
 20
66.356758
 30
0.0
 10
36.406149
 20
66.446518
 30
0.0
 10
35.655426
 20
66.446518
 30
0.0
 10
35.551386
 20
66.550559
 30
0.0
 10
35.551386
 20
66.838200
 30
0.0
 10
35.661546
 20
66.942240
 30
0.0
 10
36.387789
 20
66.942240
 30
0.0
 10
36.489789
 20
66.838200
 30
0.0
 10
36.489789
 20
66.781080
 30
0.0
  0
LWPOLYLINE
  5
1c9
100
AcDbEntity
  8
0
 62
7
100
AcDbPolyline
 90
9
 70
0
 10
37.932690
 20
65.953971
 30
0.0
 10
37.018767
 20
65.953971
 30
0.0
 10
36.916767
 20
66.063214
 30
0.0
 10
36.916767
 20
66.808429
 30
0.0
 10
37.026927
 20
66.924709
 30
0.0
 10
37.771530
 20
66.924709
 30
0.0
 10
37.879650
 20
66.814549
 30
0.0
 10
37.879650
 20
66.443267
 30
0.0
 10
36.910647
 20
66.443267
 30
0.0
  0
LWPOLYLINE
  5
1ca
100
AcDbEntity
  8
0
 62
7
100
AcDbPolyline
 90
7
 70
0
 10
75.906833
 20
90.618898
 30
0.0
 10
73.214024
 20
90.618898
 30
0.0
 10
73.214024
 20
92.070735
 30
0.0
 10
75.370171
 20
92.070735
 30
0.0
 10
73.214024
 20
92.070735
 30
0.0
 10
73.214024
 20
93.429012
 30
0.0
 10
75.892585
 20
93.429012
 30
0.0
  0
LWPOLYLINE
  5
1cb
100
AcDbEntity
  8
0
 62
7
100
AcDbPolyline
 90
6
 70
0
 10
78.841850
 20
90.618898
 30
0.0
 10
76.718948
 20
90.618898
 30
0.0
 10
76.462490
 20
90.888179
 30
0.0
 10
76.462490
 20
92.607397
 30
0.0
 10
76.718948
 20
92.863855
 30
0.0
 10
78.841850
 20
92.863855
 30
0.0
  0
LWPOLYLINE
  5
1cc
100
AcDbEntity
  8
0
 62
7
100
AcDbPolyline
 90
6
 70
0
 10
79.443101
 20
90.618911
 30
0.0
 10
79.443101
 20
93.923894
 30
0.0
 10
79.443101
 20
92.969301
 30
0.0
 10
81.433025
 20
92.969301
 30
0.0
 10
81.703731
 20
92.712843
 30
0.0
 10
81.703731
 20
90.603714
 30
0.0
  0
LWPOLYLINE
  5
1cd
100
AcDbEntity
  8
0
 62
7
100
AcDbPolyline
 90
8
 70
1
 10
82.342031
 20
92.550406
 30
0.0
 10
82.342031
 20
90.888179
 30
0.0
 10
82.593739
 20
90.618898
 30
0.0
 10
84.331955
 20
90.618898
 30
0.0
 10
84.569416
 20
90.858259
 30
0.0
 10
84.569416
 20
92.654889
 30
0.0
 10
84.360450
 20
92.878103
 30
0.0
 10
82.641232
 20
92.878103
 30
0.0
  0
LWPOLYLINE
  5
1ce
100
AcDbEntity
  8
0
 62
7
100
AcDbPolyline
 90
8
 70
1
 10
15.327696
 20
93.124327
 30
0.0
 10
15.327696
 20
90.826346
 30
0.0
 10
15.585093
 20
90.585871
 30
0.0
 10
17.925495
 20
90.585871
 30
0.0
 10
18.163825
 20
90.826346
 30
0.0
 10
18.163825
 20
93.167226
 30
0.0
 10
17.925495
 20
93.376957
 30
0.0
 10
15.566026
 20
93.391257
 30
0.0
  0
LWPOLYLINE
  5
1cf
100
AcDbEntity
  8
0
 62
7
100
AcDbPolyline
 90
14
 70
0
 10
18.840681
 20
90.931212
 30
0.0
 10
18.840681
 20
90.781064
 30
0.0
 10
19.050412
 20
90.570856
 30
0.0
 10
20.852188
 20
90.570856
 30
0.0
 10
21.076218
 20
90.811093
 30
0.0
 10
21.076218
 20
91.456015
 30
0.0
 10
20.866488
 20
91.665745
 30
0.0
 10
19.112377
 20
91.665745
 30
0.0
 10
18.869281
 20
91.908842
 30
0.0
 10
18.869281
 20
92.580934
 30
0.0
 10
19.126677
 20
92.824030
 30
0.0
 10
20.823588
 20
92.824030
 30
0.0
 10
21.061919
 20
92.580934
 30
0.0
 10
21.061919
 20
92.447469
 30
0.0
  0
LWPOLYLINE
  5
1d0
100
AcDbEntity
  8
0
 62
7
100
AcDbPolyline
 90
6
 70
0
 10
24.169723
 20
90.570856
 30
0.0
 10
22.039050
 20
90.570856
 30
0.0
 10
21.781654
 20
90.841123
 30
0.0
 10
21.781654
 20
92.566634
 30
0.0
 10
22.039050
 20
92.824030
 30
0.0
 10
24.169723
 20
92.824030
 30
0.0
  0
LWPOLYLINE
  5
1d1
100
AcDbEntity
  8
0
 62
7
100
AcDbPolyline
 90
3
 70
0
 10
24.770329
 20
90.510321
 30
0.0
 10
24.756015
 20
90.540350
 30
0.0
 10
24.756015
 20
92.975131
 30
0.0
  0
LWPOLYLINE
  5
1d2
100
AcDbEntity
  8
0
 62
7
100
AcDbPolyline
 90
4
 70
1
 10
24.679746
 20
93.632923
 30
0.0
 10
24.679746
 20
93.828354
 30
0.0
 10
24.875177
 20
93.828354
 30
0.0
 10
24.875177
 20
93.632923
 30
0.0
  0
LWPOLYLINE
  5
1d3
100
AcDbEntity
  8
0
 62
7
100
AcDbPolyline
 90
4
 70
0
 10
25.385238
 20
93.767818
 30
0.0
 10
25.385238
 20
90.841123
 30
0.0
 10
25.652169
 20
90.570856
 30
0.0
 10
26.133594
 20
90.570856
 30
0.0
  0
LWPOLYLINE
  5
1d4
100
AcDbEntity
  8
0
 62
7
100
AcDbPolyline
 90
4
 70
0
 10
26.495848
 20
93.767818
 30
0.0
 10
26.495848
 20
90.841123
 30
0.0
 10
26.762778
 20
90.570856
 30
0.0
 10
27.244205
 20
90.570856
 30
0.0
  0
LWPOLYLINE
  5
1d5
100
AcDbEntity
  8
0
 62
7
100
AcDbPolyline
 90
8
 70
0
 10
27.515893
 20
92.809731
 30
0.0
 10
29.632263
 20
92.809731
 30
0.0
 10
29.884895
 20
92.566634
 30
0.0
 10
29.884895
 20
90.570856
 30
0.0
 10
27.859088
 20
90.570856
 30
0.0
 10
27.620759
 20
90.811093
 30
0.0
 10
27.620759
 20
91.665745
 30
0.0
 10
29.856296
 20
91.665745
 30
0.0
  0
LWPOLYLINE
  5
1d6
100
AcDbEntity
  8
0
 62
7
100
AcDbPolyline
 90
7
 70
0
 10
30.547484
 20
93.752088
 30
0.0
 10
30.547484
 20
92.760635
 30
0.0
 10
31.791566
 20
92.760635
 30
0.0
 10
30.547484
 20
92.760635
 30
0.0
 10
30.547484
 20
90.751034
 30
0.0
 10
30.714314
 20
90.570856
 30
0.0
 10
31.791566
 20
90.570856
 30
0.0
  0
LWPOLYLINE
  5
1d7
100
AcDbEntity
  8
0
 62
7
100
AcDbPolyline
 90
8
 70
1
 10
32.287265
 20
92.509435
 30
0.0
 10
32.287265
 20
90.841123
 30
0.0
 10
32.539895
 20
90.570856
 30
0.0
 10
34.284472
 20
90.570856
 30
0.0
 10
34.522803
 20
90.811093
 30
0.0
 10
34.522803
 20
92.614300
 30
0.0
 10
34.313072
 20
92.838330
 30
0.0
 10
32.587561
 20
92.838330
 30
0.0
  0
LWPOLYLINE
  5
1d8
100
AcDbEntity
  8
0
 62
7
100
AcDbPolyline
 90
4
 70
0
 10
35.213950
 20
90.570856
 30
0.0
 10
35.213950
 20
92.716782
 30
0.0
 10
35.471348
 20
92.988478
 30
0.0
 10
36.987128
 20
92.988478
 30
0.0
  0
LWPOLYLINE
  5
1d9
100
AcDbEntity
  8
0
 62
7
100
AcDbPolyline
 90
4
 70
0
 10
103.011746
 20
59.295497
 30
0.0
 10
103.602585
 20
59.813421
 30
0.0
 10
103.686447
 20
59.813421
 30
0.0
 10
103.686447
 20
57.954362
 30
0.0
  0
LWPOLYLINE
  5
1da
100
AcDbEntity
  8
0
 62
7
100
AcDbPolyline
 90
11
 70
0
 10
109.062248
 20
59.498425
 30
0.0
 10
109.062248
 20
59.617085
 30
0.0
 10
109.221943
 20
59.813811
 30
0.0
 10
110.469078
 20
59.813811
 30
0.0
 10
110.611029
 20
59.626453
 30
0.0
 10
110.611029
 20
59.026908
 30
0.0
 10
110.469078
 20
58.848917
 30
0.0
 10
109.214338
 20
58.848917
 30
0.0
 10
109.062248
 20
58.661560
 30
0.0
 10
109.062248
 20
57.954127
 30
0.0
 10
110.674400
 20
57.954127
 30
0.0
  0
LWPOLYLINE
  5
1db
100
AcDbEntity
  8
0
 62
7
100
AcDbPolyline
 90
8
 70
1
 10
60.781152
 20
60.448719
 30
0.0
 10
60.781152
 20
59.491136
 30
0.0
 10
60.895797
 20
59.383330
 30
0.0
 10
61.897427
 20
59.383330
 30
0.0
 10
62.016094
 20
59.497371
 30
0.0
 10
62.016094
 20
60.472854
 30
0.0
 10
61.915529
 20
60.573420
 30
0.0
 10
60.907865
 20
60.573420
 30
0.0
  0
LWPOLYLINE
  5
1dc
100
AcDbEntity
  8
0
 62
7
100
AcDbPolyline
 90
2
 70
0
 10
60.793220
 20
59.497371
 30
0.0
 10
62.004027
 20
60.478888
 30
0.0
  0
LWPOLYLINE
  5
1dd
100
AcDbEntity
  8
0
 62
7
100
AcDbPolyline
 90
2
 70
0
 10
125.074962
 20
69.802588
 30
0.0
 10
126.447146
 20
69.802588
 30
0.0
  0
LWPOLYLINE
  5
1de
100
AcDbEntity
  8
0
 62
7
100
AcDbPolyline
 90
2
 70
0
 10
141.844368
 20
68.931012
 30
0.0
 10
141.844368
 20
70.674114
 30
0.0
  0
LWPOLYLINE
  5
1df
100
AcDbEntity
  8
0
 62
7
100
AcDbPolyline
 90
2
 70
0
 10
140.981686
 20
69.807378
 30
0.0
 10
142.721241
 20
69.807378
 30
0.0
  0
LWPOLYLINE
  5
1e0
100
AcDbEntity
  8
0
 62
7
100
AcDbPolyline
 90
2
 70
0
 10
89.014872
 20
69.802593
 30
0.0
 10
90.387055
 20
69.802593
 30
0.0
  0
LWPOLYLINE
  5
1e1
100
AcDbEntity
  8
0
 62
7
100
AcDbPolyline
 90
2
 70
0
 10
105.784809
 20
68.931012
 30
0.0
 10
105.784809
 20
70.674114
 30
0.0
  0
LWPOLYLINE
  5
1e2
100
AcDbEntity
  8
0
 62
7
100
AcDbPolyline
 90
2
 70
0
 10
104.922128
 20
69.807378
 30
0.0
 10
106.661682
 20
69.807378
 30
0.0
  0
LWPOLYLINE
  5
1e3
100
AcDbEntity
  8
0
 62
7
100
AcDbPolyline
 90
2
 70
0
 10
31.245984
 20
36.188401
 30
0.0
 10
32.595248
 20
37.767110
 30
0.0
  0
LWPOLYLINE
  5
1e4
100
AcDbEntity
  8
0
 62
7
100
AcDbPolyline
 90
7
 70
0
 10
34.826112
 20
36.114932
 30
0.0
 10
33.173059
 20
36.114932
 30
0.0
 10
33.173059
 20
37.006181
 30
0.0
 10
34.496667
 20
37.006181
 30
0.0
 10
33.173059
 20
37.006181
 30
0.0
 10
33.173059
 20
37.839996
 30
0.0
 10
34.817365
 20
37.839996
 30
0.0
  0
LWPOLYLINE
  5
1e5
100
AcDbEntity
  8
0
 62
7
100
AcDbPolyline
 90
5
 70
0
 10
35.167597
 20
36.123970
 30
0.0
 10
35.167597
 20
37.546994
 30
0.0
 10
36.415404
 20
37.546994
 30
0.0
 10
36.552430
 20
37.409969
 30
0.0
 10
36.552430
 20
36.114932
 30
0.0
  0
LWPOLYLINE
  5
1e6
100
AcDbEntity
  8
0
 62
7
100
AcDbPolyline
 90
3
 70
0
 10
36.901901
 20
37.548452
 30
0.0
 10
37.738632
 20
36.032134
 30
0.0
 10
38.619094
 20
37.565945
 30
0.0
  0
LWPOLYLINE
  5
1e7
100
AcDbEntity
  8
0
 62
7
100
AcDbPolyline
 90
2
 70
0
 10
65.122144
 20
36.272422
 30
0.0
 10
66.352121
 20
37.711559
 30
0.0
  0
LWPOLYLINE
  5
1e8
100
AcDbEntity
  8
0
 62
7
100
AcDbPolyline
 90
7
 70
0
 10
68.859287
 20
36.129970
 30
0.0
 10
67.352379
 20
36.129970
 30
0.0
 10
67.352379
 20
36.942425
 30
0.0
 10
68.558969
 20
36.942425
 30
0.0
 10
67.352379
 20
36.942425
 30
0.0
 10
67.352379
 20
37.702523
 30
0.0
 10
68.851314
 20
37.702523
 30
0.0
  0
LWPOLYLINE
  5
1e9
100
AcDbEntity
  8
0
 62
7
100
AcDbPolyline
 90
5
 70
0
 10
69.221081
 20
36.129970
 30
0.0
 10
69.221081
 20
37.427187
 30
0.0
 10
70.358572
 20
37.427187
 30
0.0
 10
70.483484
 20
37.302275
 30
0.0
 10
70.483484
 20
36.121731
 30
0.0
  0
LWPOLYLINE
  5
1ea
100
AcDbEntity
  8
0
 62
7
100
AcDbPolyline
 90
3
 70
0
 10
70.810378
 20
37.512233
 30
0.0
 10
71.573134
 20
36.129970
 30
0.0
 10
72.375755
 20
37.528179
 30
0.0
  0
LWPOLYLINE
  5
1eb
100
AcDbEntity
  8
0
 62
7
100
AcDbPolyline
 90
4
 70
1
 10
72.346789
 20
36.247440
 30
0.0
 10
72.346789
 20
36.155218
 30
0.0
 10
72.471701
 20
36.155218
 30
0.0
 10
72.471701
 20
36.247440
 30
0.0
  0
LWPOLYLINE
  5
1ec
100
AcDbEntity
  8
0
 62
7
100
AcDbPolyline
 90
10
 70
0
 10
73.165094
 20
36.146714
 30
0.0
 10
73.165094
 20
37.443133
 30
0.0
 10
74.060734
 20
37.443133
 30
0.0
 10
74.185645
 20
37.326195
 30
0.0
 10
74.185645
 20
36.121731
 30
0.0
 10
74.185645
 20
37.326195
 30
0.0
 10
74.302583
 20
37.443133
 30
0.0
 10
75.057366
 20
37.443133
 30
0.0
 10
75.190251
 20
37.310249
 30
0.0
 10
75.190251
 20
36.129970
 30
0.0
  0
LWPOLYLINE
  5
1ed
100
AcDbEntity
  8
0
 62
7
100
AcDbPolyline
 90
8
 70
1
 10
75.642160
 20
37.286329
 30
0.0
 10
75.642160
 20
36.356139
 30
0.0
 10
75.783018
 20
36.205448
 30
0.0
 10
76.755731
 20
36.205448
 30
0.0
 10
76.888615
 20
36.339396
 30
0.0
 10
76.888615
 20
37.344798
 30
0.0
 10
76.771677
 20
37.469710
 30
0.0
 10
75.809594
 20
37.469710
 30
0.0
  0
LWPOLYLINE
  5
1ee
100
AcDbEntity
  8
0
 62
7
100
AcDbPolyline
 90
8
 70
0
 10
78.680201
 20
37.979985
 30
0.0
 10
78.680201
 20
36.205448
 30
0.0
 10
77.532080
 20
36.205448
 30
0.0
 10
77.381656
 20
36.364378
 30
0.0
 10
77.381656
 20
37.294302
 30
0.0
 10
77.524107
 20
37.435160
 30
0.0
 10
78.544659
 20
37.435160
 30
0.0
 10
78.669570
 20
37.318222
 30
0.0
  0
LWPOLYLINE
  5
1ef
100
AcDbEntity
  8
0
 62
7
100
AcDbPolyline
 90
2
 70
0
 10
52.811097
 20
69.802588
 30
0.0
 10
54.183281
 20
69.802588
 30
0.0
  0
LWPOLYLINE
  5
1f0
100
AcDbEntity
  8
0
 62
7
100
AcDbPolyline
 90
2
 70
0
 10
69.581833
 20
68.931012
 30
0.0
 10
69.581833
 20
70.674114
 30
0.0
  0
LWPOLYLINE
  5
1f1
100
AcDbEntity
  8
0
 62
7
100
AcDbPolyline
 90
2
 70
0
 10
68.719152
 20
69.807378
 30
0.0
 10
70.458706
 20
69.807378
 30
0.0
  0
LWPOLYLINE
  5
1f2
100
AcDbEntity
  8
0
 62
7
100
AcDbPolyline
 90
2
 70
0
 10
16.607589
 20
69.802588
 30
0.0
 10
17.979772
 20
69.802588
 30
0.0
  0
LWPOLYLINE
  5
1f3
100
AcDbEntity
  8
0
 62
7
100
AcDbPolyline
 90
2
 70
0
 10
33.376196
 20
68.931012
 30
0.0
 10
33.376196
 20
70.674114
 30
0.0
  0
LWPOLYLINE
  5
1f4
100
AcDbEntity
  8
0
 62
7
100
AcDbPolyline
 90
2
 70
0
 10
32.513515
 20
69.807378
 30
0.0
 10
34.253069
 20
69.807378
 30
0.0
  0
LWPOLYLINE
  5
1f5
100
AcDbEntity
  8
0
 62
7
100
AcDbPolyline
 90
2
 70
0
 10
16.607589
 20
39.631542
 30
0.0
 10
17.979772
 20
39.631542
 30
0.0
  0
LWPOLYLINE
  5
1f6
100
AcDbEntity
  8
0
 62
7
100
AcDbPolyline
 90
2
 70
0
 10
33.376196
 20
38.760091
 30
0.0
 10
33.376196
 20
40.503194
 30
0.0
  0
LWPOLYLINE
  5
1f7
100
AcDbEntity
  8
0
 62
7
100
AcDbPolyline
 90
2
 70
0
 10
32.513515
 20
39.636458
 30
0.0
 10
34.253069
 20
39.636458
 30
0.0
  0
LWPOLYLINE
  5
1f8
100
AcDbEntity
  8
0
 62
7
100
AcDbPolyline
 90
2
 70
0
 10
52.811097
 20
39.631542
 30
0.0
 10
54.183281
 20
39.631542
 30
0.0
  0
LWPOLYLINE
  5
1f9
100
AcDbEntity
  8
0
 62
7
100
AcDbPolyline
 90
2
 70
0
 10
69.581833
 20
38.760091
 30
0.0
 10
69.581833
 20
40.503194
 30
0.0
  0
SPLINE
  5
1fa
100
AcDbEntity
  8
0
 62
7
100
AcDbSpline
 70
8
 71
3
 72
8
 73
4
 74
0
 40
0
 40
0
 40
0
 40
0
 40
1
 40
1
 40
1
 40
1
 10
125.953810
 20
61.150889
 30
0.0
 10
125.953810
 20
60.688483
 30
0.0
 10
125.849858
 20
60.269356
 30
0.0
 10
125.641953
 20
59.893508
 30
0.0
  0
SPLINE
  5
1fb
100
AcDbEntity
  8
0
 62
7
100
AcDbSpline
 70
8
 71
3
 72
8
 73
4
 74
0
 40
0
 40
0
 40
0
 40
0
 40
1
 40
1
 40
1
 40
1
 10
125.641953
 20
59.893508
 30
0.0
 10
125.436383
 20
59.517660
 30
0.0
 10
125.161902
 20
59.226094
 30
0.0
 10
124.818510
 20
59.018808
 30
0.0
  0
SPLINE
  5
1fc
100
AcDbEntity
  8
0
 62
7
100
AcDbSpline
 70
8
 71
3
 72
8
 73
4
 74
0
 40
0
 40
0
 40
0
 40
0
 40
1
 40
1
 40
1
 40
1
 10
124.818510
 20
59.018808
 30
0.0
 10
124.580235
 20
58.875303
 30
0.0
 10
124.313930
 20
58.771660
 30
0.0
 10
124.019593
 20
58.707879
 30
0.0
  0
SPLINE
  5
1fd
100
AcDbEntity
  8
0
 62
7
100
AcDbSpline
 70
8
 71
3
 72
8
 73
4
 74
0
 40
0
 40
0
 40
0
 40
0
 40
1
 40
1
 40
1
 40
1
 10
124.019593
 20
58.707879
 30
0.0
 10
123.727592
 20
58.644099
 30
0.0
 10
123.342151
 20
58.612210
 30
0.0
 10
122.863269
 20
58.612210
 30
0.0
  0
LWPOLYLINE
  5
1fe
100
AcDbEntity
  8
0
 62
7
100
AcDbPolyline
 90
2
 70
0
 10
68.719152
 20
39.636458
 30
0.0
 10
70.458706
 20
39.636458
 30
0.0
  0
SPLINE
  5
1ff
100
AcDbEntity
  8
0
 62
7
100
AcDbSpline
 70
8
 71
3
 72
8
 73
4
 74
0
 40
0
 40
0
 40
0
 40
0
 40
1
 40
1
 40
1
 40
1
 10
122.849252
 20
63.699817
 30
0.0
 10
123.358502
 20
63.699817
 30
0.0
 10
123.762632
 20
63.663371
 30
0.0
 10
124.061641
 20
63.590480
 30
0.0
  0
SPLINE
  5
200
100
AcDbEntity
  8
0
 62
7
100
AcDbSpline
 70
8
 71
3
 72
8
 73
4
 74
0
 40
0
 40
0
 40
0
 40
0
 40
1
 40
1
 40
1
 40
1
 10
124.061641
 20
63.590480
 30
0.0
 10
124.362986
 20
63.519867
 30
0.0
 10
124.617612
 20
63.421919
 30
0.0
 10
124.825518
 20
63.296635
 30
0.0
  0
SPLINE
  5
201
100
AcDbEntity
  8
0
 62
7
100
AcDbSpline
 70
8
 71
3
 72
8
 73
4
 74
0
 40
0
 40
0
 40
0
 40
0
 40
1
 40
1
 40
1
 40
1
 10
124.825518
 20
63.296635
 30
0.0
 10
125.180591
 20
63.080239
 30
0.0
 10
125.457408
 20
62.792089
 30
0.0
 10
125.655970
 20
62.432187
 30
0.0
  0
SPLINE
  5
202
100
AcDbEntity
  8
0
 62
7
100
AcDbSpline
 70
8
 71
3
 72
8
 73
4
 74
0
 40
0
 40
0
 40
0
 40
0
 40
1
 40
1
 40
1
 40
1
 10
125.655970
 20
62.432187
 30
0.0
 10
125.854530
 20
62.072285
 30
0.0
 10
125.953810
 20
61.645185
 30
0.0
 10
125.953810
 20
61.150889
 30
0.0
  0
LWPOLYLINE
  5
203
100
AcDbEntity
  8
0
 62
7
100
AcDbPolyline
 90
4
 70
0
 10
122.863269
 20
58.612210
 30
0.0
 10
121.545758
 20
58.612210
 30
0.0
 10
121.545758
 20
63.699817
 30
0.0
 10
122.849252
 20
63.699817
 30
0.0
  0
SPLINE
  5
204
100
AcDbEntity
  8
0
 62
7
100
AcDbSpline
 70
8
 71
3
 72
8
 73
4
 74
0
 40
0
 40
0
 40
0
 40
0
 40
1
 40
1
 40
1
 40
1
 10
125.228478
 20
61.161136
 30
0.0
 10
125.228478
 20
61.559762
 30
0.0
 10
125.157230
 20
61.895747
 30
0.0
 10
125.014733
 20
62.169092
 30
0.0
  0
SPLINE
  5
205
100
AcDbEntity
  8
0
 62
7
100
AcDbSpline
 70
8
 71
3
 72
8
 73
4
 74
0
 40
0
 40
0
 40
0
 40
0
 40
1
 40
1
 40
1
 40
1
 10
125.014733
 20
62.169092
 30
0.0
 10
124.872237
 20
62.442434
 30
0.0
 10
124.659661
 20
62.657692
 30
0.0
 10
124.377004
 20
62.814864
 30
0.0
  0
SPLINE
  5
206
100
AcDbEntity
  8
0
 62
7
100
AcDbSpline
 70
8
 71
3
 72
8
 73
4
 74
0
 40
0
 40
0
 40
0
 40
0
 40
1
 40
1
 40
1
 40
1
 10
124.377004
 20
62.814864
 30
0.0
 10
124.171434
 20
62.928759
 30
0.0
 10
123.953017
 20
63.007345
 30
0.0
 10
123.721752
 20
63.050623
 30
0.0
  0
SPLINE
  5
207
100
AcDbEntity
  8
0
 62
7
100
AcDbSpline
 70
8
 71
3
 72
8
 73
4
 74
0
 40
0
 40
0
 40
0
 40
0
 40
1
 40
1
 40
1
 40
1
 10
123.721752
 20
63.050623
 30
0.0
 10
123.490488
 20
63.096181
 30
0.0
 10
123.213670
 20
63.118959
 30
0.0
 10
122.891301
 20
63.118959
 30
0.0
  0
LWPOLYLINE
  5
208
100
AcDbEntity
  8
0
 62
7
100
AcDbPolyline
 90
1
 70
1
 10
125.953810
 20
61.150889
 30
0.0
  0
SPLINE
  5
209
100
AcDbEntity
  8
0
 62
7
100
AcDbSpline
 70
8
 71
3
 72
8
 73
4
 74
0
 40
0
 40
0
 40
0
 40
0
 40
1
 40
1
 40
1
 40
1
 10
122.891301
 20
59.193063
 30
0.0
 10
123.225350
 20
59.193063
 30
0.0
 10
123.516184
 20
59.216980
 30
0.0
 10
123.763801
 20
59.264814
 30
0.0
  0
SPLINE
  5
20a
100
AcDbEntity
  8
0
 62
7
100
AcDbSpline
 70
8
 71
3
 72
8
 73
4
 74
0
 40
0
 40
0
 40
0
 40
0
 40
1
 40
1
 40
1
 40
1
 10
123.763801
 20
59.264814
 30
0.0
 10
124.013753
 20
59.312650
 30
0.0
 10
124.242682
 20
59.401487
 30
0.0
 10
124.450587
 20
59.531325
 30
0.0
  0
SPLINE
  5
20b
100
AcDbEntity
  8
0
 62
7
100
AcDbSpline
 70
8
 71
3
 72
8
 73
4
 74
0
 40
0
 40
0
 40
0
 40
0
 40
1
 40
1
 40
1
 40
1
 10
124.450587
 20
59.531325
 30
0.0
 10
124.709884
 20
59.693054
 30
0.0
 10
124.903773
 20
59.906034
 30
0.0
 10
125.032253
 20
60.170266
 30
0.0
  0
SPLINE
  5
20c
100
AcDbEntity
  8
0
 62
7
100
AcDbSpline
 70
8
 71
3
 72
8
 73
4
 74
0
 40
0
 40
0
 40
0
 40
0
 40
1
 40
1
 40
1
 40
1
 10
125.032253
 20
60.170266
 30
0.0
 10
125.163070
 20
60.434499
 30
0.0
 10
125.228478
 20
60.764788
 30
0.0
 10
125.228478
 20
61.161136
 30
0.0
  0
LWPOLYLINE
  5
20d
100
AcDbEntity
  8
0
 62
7
100
AcDbPolyline
 90
4
 70
0
 10
122.891301
 20
63.118959
 30
0.0
 10
122.239552
 20
63.118959
 30
0.0
 10
122.239552
 20
59.193063
 30
0.0
 10
122.891301
 20
59.193063
 30
0.0
  0
SPLINE
  5
20e
100
AcDbEntity
  8
0
 62
7
100
AcDbSpline
 70
8
 71
3
 72
8
 73
4
 74
0
 40
0
 40
0
 40
0
 40
0
 40
1
 40
1
 40
1
 40
1
 10
131.003097
 20
60.655450
 30
0.0
 10
131.003097
 20
60.286437
 30
0.0
 10
130.961048
 20
59.964119
 30
0.0
 10
130.876951
 20
59.688496
 30
0.0
  0
SPLINE
  5
20f
100
AcDbEntity
  8
0
 62
7
100
AcDbSpline
 70
8
 71
3
 72
8
 73
4
 74
0
 40
0
 40
0
 40
0
 40
0
 40
1
 40
1
 40
1
 40
1
 10
130.876951
 20
59.688496
 30
0.0
 10
130.795191
 20
59.415153
 30
0.0
 10
130.659702
 20
59.187367
 30
0.0
 10
130.470485
 20
59.005137
 30
0.0
  0
SPLINE
  5
210
100
AcDbEntity
  8
0
 62
7
100
AcDbSpline
 70
8
 71
3
 72
8
 73
4
 74
0
 40
0
 40
0
 40
0
 40
0
 40
1
 40
1
 40
1
 40
1
 10
130.470485
 20
59.005137
 30
0.0
 10
130.290613
 20
58.832021
 30
0.0
 10
130.080372
 20
58.705599
 30
0.0
 10
129.839762
 20
58.625873
 30
0.0
  0
SPLINE
  5
211
100
AcDbEntity
  8
0
 62
7
100
AcDbSpline
 70
8
 71
3
 72
8
 73
4
 74
0
 40
0
 40
0
 40
0
 40
0
 40
1
 40
1
 40
1
 40
1
 10
129.839762
 20
58.625873
 30
0.0
 10
129.599155
 20
58.546148
 30
0.0
 10
129.318833
 20
58.506285
 30
0.0
 10
128.998799
 20
58.506285
 30
0.0
  0
SPLINE
  5
212
100
AcDbEntity
  8
0
 62
7
100
AcDbSpline
 70
8
 71
3
 72
8
 73
4
 74
0
 40
0
 40
0
 40
0
 40
0
 40
1
 40
1
 40
1
 40
1
 10
128.998799
 20
58.506285
 30
0.0
 10
128.671757
 20
58.506285
 30
0.0
 10
128.386764
 20
58.548426
 30
0.0
 10
128.143819
 20
58.632707
 30
0.0
  0
SPLINE
  5
213
100
AcDbEntity
  8
0
 62
7
100
AcDbSpline
 70
8
 71
3
 72
8
 73
4
 74
0
 40
0
 40
0
 40
0
 40
0
 40
1
 40
1
 40
1
 40
1
 10
128.143819
 20
58.632707
 30
0.0
 10
127.900874
 20
58.716988
 30
0.0
 10
127.696473
 20
58.841131
 30
0.0
 10
127.530616
 20
59.005137
 30
0.0
  0
SPLINE
  5
214
100
AcDbEntity
  8
0
 62
7
100
AcDbSpline
 70
8
 71
3
 72
8
 73
4
 74
0
 40
0
 40
0
 40
0
 40
0
 40
1
 40
1
 40
1
 40
1
 10
127.530616
 20
59.005137
 30
0.0
 10
127.341401
 20
59.191923
 30
0.0
 10
127.204744
 20
59.417432
 30
0.0
 10
127.120647
 20
59.681664
 30
0.0
  0
SPLINE
  5
215
100
AcDbEntity
  8
0
 62
7
100
AcDbSpline
 70
8
 71
3
 72
8
 73
4
 74
0
 40
0
 40
0
 40
0
 40
0
 40
1
 40
1
 40
1
 40
1
 10
127.120647
 20
59.681664
 30
0.0
 10
127.038887
 20
59.945897
 30
0.0
 10
126.998007
 20
60.270492
 30
0.0
 10
126.998007
 20
60.655450
 30
0.0
  0
LWPOLYLINE
  5
216
100
AcDbEntity
  8
0
 62
7
100
AcDbPolyline
 90
1
 70
1
 10
125.228478
 20
61.161136
 30
0.0
  0
SPLINE
  5
217
100
AcDbEntity
  8
0
 62
7
100
AcDbSpline
 70
8
 71
3
 72
8
 73
4
 74
0
 40
0
 40
0
 40
0
 40
0
 40
1
 40
1
 40
1
 40
1
 10
127.691802
 20
60.621282
 30
0.0
 10
127.691802
 20
60.345661
 30
0.0
 10
127.710490
 20
60.128125
 30
0.0
 10
127.747867
 20
59.968675
 30
0.0
  0
SPLINE
  5
218
100
AcDbEntity
  8
0
 62
7
100
AcDbSpline
 70
8
 71
3
 72
8
 73
4
 74
0
 40
0
 40
0
 40
0
 40
0
 40
1
 40
1
 40
1
 40
1
 10
127.747867
 20
59.968675
 30
0.0
 10
127.787578
 20
59.809224
 30
0.0
 10
127.852986
 20
59.664579
 30
0.0
 10
127.944090
 20
59.534741
 30
0.0
  0
SPLINE
  5
219
100
AcDbEntity
  8
0
 62
7
100
AcDbSpline
 70
8
 71
3
 72
8
 73
4
 74
0
 40
0
 40
0
 40
0
 40
0
 40
1
 40
1
 40
1
 40
1
 10
127.944090
 20
59.534741
 30
0.0
 10
128.046875
 20
59.386680
 30
0.0
 10
128.185868
 20
59.275066
 30
0.0
 10
128.361068
 20
59.199897
 30
0.0
  0
SPLINE
  5
21a
100
AcDbEntity
  8
0
 62
7
100
AcDbSpline
 70
8
 71
3
 72
8
 73
4
 74
0
 40
0
 40
0
 40
0
 40
0
 40
1
 40
1
 40
1
 40
1
 10
128.361068
 20
59.199897
 30
0.0
 10
128.538605
 20
59.124726
 30
0.0
 10
128.751182
 20
59.087141
 30
0.0
 10
128.998799
 20
59.087141
 30
0.0
  0
SPLINE
  5
21b
100
AcDbEntity
  8
0
 62
7
100
AcDbSpline
 70
8
 71
3
 72
8
 73
4
 74
0
 40
0
 40
0
 40
0
 40
0
 40
1
 40
1
 40
1
 40
1
 10
128.998799
 20
59.087141
 30
0.0
 10
129.248753
 20
59.087141
 30
0.0
 10
129.461331
 20
59.123587
 30
0.0
 10
129.636531
 20
59.196478
 30
0.0
  0
SPLINE
  5
21c
100
AcDbEntity
  8
0
 62
7
100
AcDbSpline
 70
8
 71
3
 72
8
 73
4
 74
0
 40
0
 40
0
 40
0
 40
0
 40
1
 40
1
 40
1
 40
1
 10
129.636531
 20
59.196478
 30
0.0
 10
129.811731
 20
59.271649
 30
0.0
 10
129.951892
 20
59.384403
 30
0.0
 10
130.057014
 20
59.534741
 30
0.0
  0
SPLINE
  5
21d
100
AcDbEntity
  8
0
 62
7
100
AcDbSpline
 70
8
 71
3
 72
8
 73
4
 74
0
 40
0
 40
0
 40
0
 40
0
 40
1
 40
1
 40
1
 40
1
 10
130.057014
 20
59.534741
 30
0.0
 10
130.148117
 20
59.664579
 30
0.0
 10
130.212357
 20
59.812640
 30
0.0
 10
130.249734
 20
59.978925
 30
0.0
  0
SPLINE
  5
21e
100
AcDbEntity
  8
0
 62
7
100
AcDbSpline
 70
8
 71
3
 72
8
 73
4
 74
0
 40
0
 40
0
 40
0
 40
0
 40
1
 40
1
 40
1
 40
1
 10
130.249734
 20
59.978925
 30
0.0
 10
130.289446
 20
60.147487
 30
0.0
 10
130.309302
 20
60.355911
 30
0.0
 10
130.309302
 20
60.604198
 30
0.0
  0
LWPOLYLINE
  5
21f
100
AcDbEntity
  8
0
 62
7
100
AcDbPolyline
 90
4
 70
0
 10
126.998007
 20
60.655450
 30
0.0
 10
126.998007
 20
63.699815
 30
0.0
 10
127.691802
 20
63.699815
 30
0.0
 10
127.691802
 20
60.621282
 30
0.0
  0
SPLINE
  5
220
100
AcDbEntity
  8
0
 62
7
100
AcDbSpline
 70
8
 71
3
 72
8
 73
4
 74
0
 40
0
 40
0
 40
0
 40
0
 40
1
 40
1
 40
1
 40
1
 10
136.262623
 20
60.177098
 30
0.0
 10
136.262623
 20
59.924255
 30
0.0
 10
136.213567
 20
59.701025
 30
0.0
 10
136.115455
 20
59.507407
 30
0.0
  0
SPLINE
  5
221
100
AcDbEntity
  8
0
 62
7
100
AcDbSpline
 70
8
 71
3
 72
8
 73
4
 74
0
 40
0
 40
0
 40
0
 40
0
 40
1
 40
1
 40
1
 40
1
 10
136.115455
 20
59.507407
 30
0.0
 10
136.017342
 20
59.313789
 30
0.0
 10
135.885358
 20
59.154339
 30
0.0
 10
135.719501
 20
59.029055
 30
0.0
  0
SPLINE
  5
222
100
AcDbEntity
  8
0
 62
7
100
AcDbSpline
 70
8
 71
3
 72
8
 73
4
 74
0
 40
0
 40
0
 40
0
 40
0
 40
1
 40
1
 40
1
 40
1
 10
135.719501
 20
59.029055
 30
0.0
 10
135.523276
 20
58.878717
 30
0.0
 10
135.307196
 20
58.771658
 30
0.0
 10
135.071260
 20
58.707876
 30
0.0
  0
SPLINE
  5
223
100
AcDbEntity
  8
0
 62
7
100
AcDbSpline
 70
8
 71
3
 72
8
 73
4
 74
0
 40
0
 40
0
 40
0
 40
0
 40
1
 40
1
 40
1
 40
1
 10
135.071260
 20
58.707876
 30
0.0
 10
134.837658
 20
58.644097
 30
0.0
 10
134.539816
 20
58.612207
 30
0.0
 10
134.177734
 20
58.612207
 30
0.0
  0
LWPOLYLINE
  5
224
100
AcDbEntity
  8
0
 62
7
100
AcDbPolyline
 90
4
 70
0
 10
130.309302
 20
60.604198
 30
0.0
 10
130.309302
 20
63.699815
 30
0.0
 10
131.003097
 20
63.699815
 30
0.0
 10
131.003097
 20
60.655450
 30
0.0
  0
SPLINE
  5
225
100
AcDbEntity
  8
0
 62
7
100
AcDbSpline
 70
8
 71
3
 72
8
 73
4
 74
0
 40
0
 40
0
 40
0
 40
0
 40
1
 40
1
 40
1
 40
1
 10
133.872886
 20
63.699815
 30
0.0
 10
134.253655
 20
63.699815
 30
0.0
 10
134.538649
 20
63.686147
 30
0.0
 10
134.727866
 20
63.658813
 30
0.0
  0
SPLINE
  5
226
100
AcDbEntity
  8
0
 62
7
100
AcDbSpline
 70
8
 71
3
 72
8
 73
4
 74
0
 40
0
 40
0
 40
0
 40
0
 40
1
 40
1
 40
1
 40
1
 10
134.727866
 20
63.658813
 30
0.0
 10
134.917083
 20
63.631480
 30
0.0
 10
135.098124
 20
63.574533
 30
0.0
 10
135.270989
 20
63.487974
 30
0.0
  0
SPLINE
  5
227
100
AcDbEntity
  8
0
 62
7
100
AcDbSpline
 70
8
 71
3
 72
8
 73
4
 74
0
 40
0
 40
0
 40
0
 40
0
 40
1
 40
1
 40
1
 40
1
 10
135.270989
 20
63.487974
 30
0.0
 10
135.462541
 20
63.390026
 30
0.0
 10
135.601534
 20
63.263605
 30
0.0
 10
135.687966
 20
63.108709
 30
0.0
  0
SPLINE
  5
228
100
AcDbEntity
  8
0
 62
7
100
AcDbSpline
 70
8
 71
3
 72
8
 73
4
 74
0
 40
0
 40
0
 40
0
 40
0
 40
1
 40
1
 40
1
 40
1
 10
135.687966
 20
63.108709
 30
0.0
 10
135.774399
 20
62.956093
 30
0.0
 10
135.817615
 20
62.772725
 30
0.0
 10
135.817615
 20
62.558606
 30
0.0
  0
SPLINE
  5
229
100
AcDbEntity
  8
0
 62
7
100
AcDbSpline
 70
8
 71
3
 72
8
 73
4
 74
0
 40
0
 40
0
 40
0
 40
0
 40
1
 40
1
 40
1
 40
1
 10
135.817615
 20
62.558606
 30
0.0
 10
135.817615
 20
62.317152
 30
0.0
 10
135.754542
 20
62.111006
 30
0.0
 10
135.628398
 20
61.940167
 30
0.0
  0
SPLINE
  5
22a
100
AcDbEntity
  8
0
 62
7
100
AcDbSpline
 70
8
 71
3
 72
8
 73
4
 74
0
 40
0
 40
0
 40
0
 40
0
 40
1
 40
1
 40
1
 40
1
 10
135.628398
 20
61.940167
 30
0.0
 10
135.502253
 20
61.771605
 30
0.0
 10
135.334060
 20
61.636071
 30
0.0
 10
135.123820
 20
61.533566
 30
0.0
  0
LWPOLYLINE
  5
22b
100
AcDbEntity
  8
0
 62
7
100
AcDbPolyline
 90
4
 70
0
 10
134.177734
 20
58.612207
 30
0.0
 10
132.327614
 20
58.612207
 30
0.0
 10
132.327614
 20
63.699815
 30
0.0
 10
133.872886
 20
63.699815
 30
0.0
  0
SPLINE
  5
22c
100
AcDbEntity
  8
0
 62
7
100
AcDbSpline
 70
8
 71
3
 72
8
 73
4
 74
0
 40
0
 40
0
 40
0
 40
0
 40
1
 40
1
 40
1
 40
1
 10
135.123820
 20
61.506232
 30
0.0
 10
135.476558
 20
61.435619
 30
0.0
 10
135.754542
 20
61.284141
 30
0.0
 10
135.957775
 20
61.051798
 30
0.0
  0
SPLINE
  5
22d
100
AcDbEntity
  8
0
 62
7
100
AcDbSpline
 70
8
 71
3
 72
8
 73
4
 74
0
 40
0
 40
0
 40
0
 40
0
 40
1
 40
1
 40
1
 40
1
 10
135.957775
 20
61.051798
 30
0.0
 10
136.161007
 20
60.821734
 30
0.0
 10
136.262623
 20
60.530167
 30
0.0
 10
136.262623
 20
60.177098
 30
0.0
  0
LWPOLYLINE
  5
22e
100
AcDbEntity
  8
0
 62
7
100
AcDbPolyline
 90
2
 70
0
 10
135.123820
 20
61.533566
 30
0.0
 10
135.123820
 20
61.506232
 30
0.0
  0
SPLINE
  5
22f
100
AcDbEntity
  8
0
 62
7
100
AcDbSpline
 70
8
 71
3
 72
8
 73
4
 74
0
 40
0
 40
0
 40
0
 40
0
 40
1
 40
1
 40
1
 40
1
 10
135.095786
 20
62.469768
 30
0.0
 10
135.095786
 20
62.592773
 30
0.0
 10
135.074762
 20
62.696416
 30
0.0
 10
135.032715
 20
62.780697
 30
0.0
  0
SPLINE
  5
230
100
AcDbEntity
  8
0
 62
7
100
AcDbSpline
 70
8
 71
3
 72
8
 73
4
 74
0
 40
0
 40
0
 40
0
 40
0
 40
1
 40
1
 40
1
 40
1
 10
135.032715
 20
62.780697
 30
0.0
 10
134.990667
 20
62.864978
 30
0.0
 10
134.922923
 20
62.933314
 30
0.0
 10
134.829483
 20
62.985706
 30
0.0
  0
SPLINE
  5
231
100
AcDbEntity
  8
0
 62
7
100
AcDbSpline
 70
8
 71
3
 72
8
 73
4
 74
0
 40
0
 40
0
 40
0
 40
0
 40
1
 40
1
 40
1
 40
1
 10
134.829483
 20
62.985706
 30
0.0
 10
134.719689
 20
63.047207
 30
0.0
 10
134.586536
 20
63.084791
 30
0.0
 10
134.430023
 20
63.098459
 30
0.0
  0
SPLINE
  5
232
100
AcDbEntity
  8
0
 62
7
100
AcDbSpline
 70
8
 71
3
 72
8
 73
4
 74
0
 40
0
 40
0
 40
0
 40
0
 40
1
 40
1
 40
1
 40
1
 10
134.430023
 20
63.098459
 30
0.0
 10
134.273511
 20
63.114399
 30
0.0
 10
134.079622
 20
63.122370
 30
0.0
 10
133.848357
 20
63.122370
 30
0.0
  0
LWPOLYLINE
  5
233
100
AcDbEntity
  8
0
 62
7
100
AcDbPolyline
 90
1
 70
1
 10
136.262623
 20
60.177098
 30
0.0
  0
SPLINE
  5
234
100
AcDbEntity
  8
0
 62
7
100
AcDbSpline
 70
8
 71
3
 72
8
 73
4
 74
0
 40
0
 40
0
 40
0
 40
0
 40
1
 40
1
 40
1
 40
1
 10
133.918437
 20
61.653148
 30
0.0
 10
134.135687
 20
61.653148
 30
0.0
 10
134.308552
 20
61.663398
 30
0.0
 10
134.437032
 20
61.683898
 30
0.0
  0
SPLINE
  5
235
100
AcDbEntity
  8
0
 62
7
100
AcDbSpline
 70
8
 71
3
 72
8
 73
4
 74
0
 40
0
 40
0
 40
0
 40
0
 40
1
 40
1
 40
1
 40
1
 10
134.437032
 20
61.683898
 30
0.0
 10
134.565512
 20
61.706676
 30
0.0
 10
134.684648
 20
61.752233
 30
0.0
 10
134.794440
 20
61.820569
 30
0.0
  0
SPLINE
  5
236
100
AcDbEntity
  8
0
 62
7
100
AcDbSpline
 70
8
 71
3
 72
8
 73
4
 74
0
 40
0
 40
0
 40
0
 40
0
 40
1
 40
1
 40
1
 40
1
 10
134.794440
 20
61.820569
 30
0.0
 10
134.904235
 20
61.888906
 30
0.0
 10
134.981323
 20
61.976605
 30
0.0
 10
135.025706
 20
62.083664
 30
0.0
  0
SPLINE
  5
237
100
AcDbEntity
  8
0
 62
7
100
AcDbSpline
 70
8
 71
3
 72
8
 73
4
 74
0
 40
0
 40
0
 40
0
 40
0
 40
1
 40
1
 40
1
 40
1
 10
135.025706
 20
62.083664
 30
0.0
 10
135.072426
 20
62.193001
 30
0.0
 10
135.095786
 20
62.321699
 30
0.0
 10
135.095786
 20
62.469760
 30
0.0
  0
LWPOLYLINE
  5
238
100
AcDbEntity
  8
0
 62
7
100
AcDbPolyline
 90
4
 70
0
 10
133.848357
 20
63.122370
 30
0.0
 10
133.021409
 20
63.122370
 30
0.0
 10
133.021409
 20
61.653148
 30
0.0
 10
133.918437
 20
61.653148
 30
0.0
  0
SPLINE
  5
239
100
AcDbEntity
  8
0
 62
7
100
AcDbSpline
 70
8
 71
3
 72
8
 73
4
 74
0
 40
0
 40
0
 40
0
 40
0
 40
1
 40
1
 40
1
 40
1
 10
135.540798
 20
60.149764
 30
0.0
 10
135.540798
 20
60.354773
 30
0.0
 10
135.509261
 20
60.517640
 30
0.0
 10
135.446189
 20
60.638366
 30
0.0
  0
SPLINE
  5
23a
100
AcDbEntity
  8
0
 62
7
100
AcDbSpline
 70
8
 71
3
 72
8
 73
4
 74
0
 40
0
 40
0
 40
0
 40
0
 40
1
 40
1
 40
1
 40
1
 10
135.446189
 20
60.638366
 30
0.0
 10
135.383117
 20
60.759094
 30
0.0
 10
135.268652
 20
60.861598
 30
0.0
 10
135.102795
 20
60.945879
 30
0.0
  0
SPLINE
  5
23b
100
AcDbEntity
  8
0
 62
7
100
AcDbSpline
 70
8
 71
3
 72
8
 73
4
 74
0
 40
0
 40
0
 40
0
 40
0
 40
1
 40
1
 40
1
 40
1
 10
135.102795
 20
60.945879
 30
0.0
 10
134.990667
 20
61.002825
 30
0.0
 10
134.854011
 20
61.039271
 30
0.0
 10
134.692826
 20
61.055217
 30
0.0
  0
SPLINE
  5
23c
100
AcDbEntity
  8
0
 62
7
100
AcDbSpline
 70
8
 71
3
 72
8
 73
4
 74
0
 40
0
 40
0
 40
0
 40
0
 40
1
 40
1
 40
1
 40
1
 10
134.692826
 20
61.055217
 30
0.0
 10
134.533976
 20
61.073439
 30
0.0
 10
134.340087
 20
61.082550
 30
0.0
 10
134.111157
 20
61.082550
 30
0.0
  0
LWPOLYLINE
  5
23d
100
AcDbEntity
  8
0
 62
7
100
AcDbPolyline
 90
1
 70
1
 10
135.095786
 20
62.469760
 30
0.0
  0
SPLINE
  5
23e
100
AcDbEntity
  8
0
 62
7
100
AcDbSpline
 70
8
 71
3
 72
8
 73
4
 74
0
 40
0
 40
0
 40
0
 40
0
 40
1
 40
1
 40
1
 40
1
 10
133.939463
 20
59.189644
 30
0.0
 10
134.243143
 20
59.189644
 30
0.0
 10
134.491928
 20
59.204451
 30
0.0
 10
134.685817
 20
59.234064
 30
0.0
  0
SPLINE
  5
23f
100
AcDbEntity
  8
0
 62
7
100
AcDbSpline
 70
8
 71
3
 72
8
 73
4
 74
0
 40
0
 40
0
 40
0
 40
0
 40
1
 40
1
 40
1
 40
1
 10
134.685817
 20
59.234064
 30
0.0
 10
134.879707
 20
59.265953
 30
0.0
 10
135.038556
 20
59.322900
 30
0.0
 10
135.162363
 20
59.404904
 30
0.0
  0
SPLINE
  5
240
100
AcDbEntity
  8
0
 62
7
100
AcDbSpline
 70
8
 71
3
 72
8
 73
4
 74
0
 40
0
 40
0
 40
0
 40
0
 40
1
 40
1
 40
1
 40
1
 10
135.162363
 20
59.404904
 30
0.0
 10
135.293180
 20
59.493741
 30
0.0
 10
135.388957
 20
59.595105
 30
0.0
 10
135.449692
 20
59.708998
 30
0.0
  0
SPLINE
  5
241
100
AcDbEntity
  8
0
 62
7
100
AcDbSpline
 70
8
 71
3
 72
8
 73
4
 74
0
 40
0
 40
0
 40
0
 40
0
 40
1
 40
1
 40
1
 40
1
 10
135.449692
 20
59.708998
 30
0.0
 10
135.510429
 20
59.822891
 30
0.0
 10
135.540798
 20
59.969813
 30
0.0
 10
135.540798
 20
60.149764
 30
0.0
  0
LWPOLYLINE
  5
242
100
AcDbEntity
  8
0
 62
7
100
AcDbPolyline
 90
4
 70
0
 10
134.111157
 20
61.082550
 30
0.0
 10
133.021409
 20
61.082550
 30
0.0
 10
133.021409
 20
59.189644
 30
0.0
 10
133.939463
 20
59.189644
 30
0.0
  0
LWPOLYLINE
  5
243
100
AcDbEntity
  8
0
 62
7
100
AcDbPolyline
 90
1
 70
1
 10
135.540798
 20
60.149764
 30
0.0
  0
LWPOLYLINE
  5
244
100
AcDbEntity
  8
0
 62
7
100
AcDbPolyline
 90
4
 70
1
 10
139.304110
 20
60.529028
 30
0.0
 10
137.117604
 20
60.529028
 30
0.0
 10
137.117604
 20
61.147470
 30
0.0
 10
139.304110
 20
61.147470
 30
0.0
  0
LWPOLYLINE
  5
245
100
AcDbEntity
  8
0
 62
7
100
AcDbPolyline
 90
12
 70
1
 10
142.275513
 20
58.612207
 30
0.0
 10
140.215153
 20
58.612207
 30
0.0
 10
140.215153
 20
59.131561
 30
0.0
 10
140.898436
 20
59.131561
 30
0.0
 10
140.898436
 20
63.180466
 30
0.0
 10
140.215153
 20
63.180466
 30
0.0
 10
140.215153
 20
63.699817
 30
0.0
 10
142.275513
 20
63.699817
 30
0.0
 10
142.275513
 20
63.180466
 30
0.0
 10
141.592230
 20
63.180466
 30
0.0
 10
141.592230
 20
59.131561
 30
0.0
 10
142.275513
 20
59.131561
 30
0.0
  0
LWPOLYLINE
  5
246
100
AcDbEntity
  8
0
 62
7
100
AcDbPolyline
 90
9
 70
1
 10
147.149600
 20
63.699815
 30
0.0
 10
145.313497
 20
60.843373
 30
0.0
 10
145.313497
 20
58.612207
 30
0.0
 10
144.619702
 20
58.612207
 30
0.0
 10
144.619702
 20
60.771622
 30
0.0
 10
142.776588
 20
63.699815
 30
0.0
 10
143.543968
 20
63.699815
 30
0.0
 10
144.970102
 20
61.424228
 30
0.0
 10
146.410254
 20
63.699815
 30
0.0
  0
LWPOLYLINE
  5
247
100
AcDbEntity
  8
0
 62
7
100
AcDbPolyline
 90
3
 70
1
 10
0.050410
 20
1.055588
 30
0.0
 10
1.056071
 20
0.049927
 30
0.0
 10
0.050410
 20
0.049927
 30
0.0
  0
LWPOLYLINE
  5
248
100
AcDbEntity
  8
0
 62
7
100
AcDbPolyline
 90
3
 70
1
 10
1.056072
 20
95.593524
 30
0.0
 10
0.050410
 20
94.587863
 30
0.0
 10
0.050410
 20
95.593524
 30
0.0
  0
LWPOLYLINE
  5
249
100
AcDbEntity
  8
0
 62
7
100
AcDbPolyline
 90
3
 70
1
 10
158.950609
 20
94.587863
 30
0.0
 10
157.944951
 20
95.593524
 30
0.0
 10
158.950609
 20
95.593524
 30
0.0
  0
LWPOLYLINE
  5
24a
100
AcDbEntity
  8
0
 62
7
100
AcDbPolyline
 90
3
 70
1
 10
157.944948
 20
0.049927
 30
0.0
 10
158.950609
 20
1.055588
 30
0.0
 10
158.950609
 20
0.049927
 30
0.0
  0
ENDSEC
  0
SECTION
  2
OBJECTS
  0
DICTIONARY
  5
C
330
0
100
AcDbDictionary
  3
ACAD_GROUP
350
D
  3
ACAD_MLINESTYLE
350
17
  0
DICTIONARY
  5
D
330
C
100
AcDbDictionary
  0
DICTIONARY
  5
1A
330
C
100
AcDbDictionary
  0
DICTIONARY
  5
17
330
C
100
AcDbDictionary
  3
STANDARD
350
18
  0
DICTIONARY
  5
19
330
C
100
AcDbDictionary
  0
ENDSEC
  0
EOF
