<?xml version="1.0" encoding="UTF-8" standalone="no"?>
<svg
   viewBox="0 0 96.698911 61.573151"
   width="25.584921mm"
   height="16.291229mm"
   version="1.1"
   id="svg258"
   xmlns="http://www.w3.org/2000/svg"
   xmlns:svg="http://www.w3.org/2000/svg"
   xmlns:rdf="http://www.w3.org/1999/02/22-rdf-syntax-ns#"
   xmlns:cc="http://creativecommons.org/ns#"
   xmlns:dc="http://purl.org/dc/elements/1.1/">
  <title
     id="title1">DUB-IY Fromtplatte</title>
  <desc
     id="desc1">DIYBody - Frontplatte.dxf - scale = 1.000000, origin = (0.000000, 0.000000), method = manual</desc>
  <defs
     id="defs4" />
  <g
     id="g164"
     style="display:inline"
     transform="translate(-552.16531,-315.39531)">
    <g
       id="g316"
       transform="matrix(1.4419569,0,0,1.4419569,-264.72321,-143.8957)">
      <g
         transform="translate(588.52164,325.11624)"
         id="g405"
         style="fill:none;stroke:#000000;stroke-width:0.4;stroke-linecap:round;stroke-linejoin:round;stroke-dasharray:none">
        <path
           d="m 2.4308242,-6.1059897 3.543375,6.04641511 3.628416,-6.07476211"
           style="stroke-width:0.4;stroke-dasharray:none"
           id="path403" />
        <path
           d="M 145,413 V 63 L 198,6.3 h 366 l 50,50.4 V 435 l -44,47 H 208 l -63,-69"
           style="stroke-width:42.3325;stroke-dasharray:none"
           transform="matrix(0.009449,0,0,-0.009449,8.66473,0)"
           id="path404" />
        <path
           d="m 16.213874,-6.3970189 v 5.80168601 l 0.529144,0.5357583 h 0.954349"
           style="stroke-width:0.4;stroke-dasharray:none"
           id="path405" />
      </g>
    </g>
    <g
       style="fill:none;stroke:#000000;stroke-width:0.287258;stroke-linecap:round;stroke-linejoin:round;stroke-dasharray:none"
       id="g462"
       transform="matrix(1.4836724,0,0,1.4836724,-300.2657,-188.43693)">
      <g
         transform="translate(597.782,373.909)"
         id="g457"
         style="stroke-width:0.287258;stroke-dasharray:none">
        <path
           d="M 0.66390286,-0.01787473 V -3.5332216 H 3.7535079 l 0.300457,0.300457 v 1.320877 l -0.317464,0.306126 H 0.91333886 l -0.266443,-0.272112 0.266443,0.272112 H 2.6083699 l 1.30387,1.58788687"
           style="stroke-width:0.287258;stroke-dasharray:none"
           id="path453" />
        <path
           d="M 7.9515675,-0.01785735 H 5.4118555 L 5.1284055,-0.3214323 V -2.392318 l 0.306126,-0.323133 h 2.069185 l 0.300457,0.306126 v 1.031758 h -2.692775"
           style="stroke-width:0.287258;stroke-dasharray:none"
           id="path454" />
        <path
           d="m 8.9566716,-0.4642911 v 0.1785735 l 0.249436,0.2500029 h 2.1428784 l 0.266443,-0.2857176 V -1.088448 L 11.365993,-1.337884 H 9.2798046 l -0.289119,-0.289119 v -0.799329 l 0.306126,-0.289119 h 2.0181604 l 0.28345,0.289119 V -2.2676"
           style="stroke-width:0.287258;stroke-dasharray:none"
           id="path455" />
        <path
           d="M 15.560872,-0.01785735 H 13.02116 L 12.73771,-0.3214323 V -2.392318 l 0.306126,-0.323133 h 2.069185 l 0.300457,0.306126 v 1.031758 h -2.692775"
           style="stroke-width:0.287258;stroke-dasharray:none"
           id="path456" />
        <path
           d="m 16.565994,-3.85492 v 1.179152 h 1.479609 -1.479609 v 2.3900504 l 0.198415,0.2142882 h 1.281194"
           style="stroke-width:0.287258;stroke-dasharray:none"
           id="path457" />
      </g>
      <g
         transform="translate(597.782,380.995)"
         id="g461"
         style="stroke-width:0.287258;stroke-dasharray:none">
        <path
           d="M 148,621 V 9.45 h 624"
           style="stroke-width:50.6717;stroke-dasharray:none"
           transform="scale(0.005669,-0.005669)"
           id="path458" />
        <path
           d="M 5.4720008,-0.05359475 V -1.9476077 h 2.60774 -2.60774 v -1.64401 h 3.214323"
           style="stroke-width:0.287258;stroke-dasharray:none"
           id="path459" />
        <path
           d="m 9.5930184,-3.072598 v 2.7330249 l 0.306126,0.28600105 h 2.7834706 l 0.28345,-0.28600105 V -3.123619 l -0.28345,-0.249436 -2.8061466,-0.017007 -0.28345,0.317464"
           style="stroke-width:0.287258;stroke-dasharray:none"
           id="path460" />
        <path
           d="m 14.260157,-2.857176 v -0.215422 l 0.357147,-0.357147 h 2.789148 l 0.317464,0.34014 v 1.088448 l -0.317464,0.323133 h -2.806155 l -0.34014,0.34014 v 1.28431195 h 3.605484"
           style="stroke-width:0.287258;stroke-dasharray:none"
           id="path461" />
      </g>
    </g>
    <path
       d="m 561.77546,347.0586 q 0,2.63982 -1.15736,4.78549 -1.14436,2.14567 -3.05595,3.32904 -1.32642,0.81925 -2.96493,1.18337 -1.6255,0.36411 -4.29133,0.36411 h -4.88953 v -19.36303 h 4.83751 q 2.83488,0 4.4994,0.41613 1.67752,0.40312 2.83489,1.11835 1.97661,1.23538 3.08196,3.29002 1.10534,2.05464 1.10534,4.87652 z m -2.69184,-0.039 q 0,-2.27571 -0.79325,-3.8362 -0.79324,-1.56048 -2.36673,-2.45776 -1.14436,-0.65021 -2.43176,-0.89728 -1.2874,-0.26008 -3.08196,-0.26008 h -2.41876 v 14.94165 h 2.41876 q 1.85958,0 3.23801,-0.27308 1.39143,-0.27309 2.54879,-1.01432 1.44345,-0.92329 2.15867,-2.43176 0.72823,-1.50847 0.72823,-3.77117 z m 21.43068,1.9246 q 0,2.10665 -0.46815,3.68015 -0.45514,1.56048 -1.50847,2.60081 -1.00131,0.9883 -2.34073,1.44345 -1.33941,0.45514 -3.12097,0.45514 -1.82057,0 -3.17299,-0.48115 -1.35242,-0.48115 -2.27571,-1.41744 -1.05332,-1.06634 -1.52147,-2.57481 -0.45514,-1.50847 -0.45514,-3.70615 v -11.58661 h 2.5748 v 11.71665 q 0,1.57349 0.20807,2.48377 0.22106,0.91029 0.72822,1.65152 0.57218,0.84526 1.54748,1.27439 0.98831,0.42914 2.36674,0.42914 1.39144,0 2.36674,-0.41613 0.9753,-0.42914 1.56049,-1.2874 0.50715,-0.74123 0.71522,-1.69053 0.22107,-0.9623 0.22107,-2.37974 v -11.78167 h 2.5748 z m 19.51908,1.82057 q 0,1.44345 -0.54617,2.54879 -0.54617,1.10534 -1.46946,1.82057 -1.09234,0.85826 -2.40574,1.22238 -1.30041,0.36411 -3.31604,0.36411 h -6.86614 v -19.36303 h 5.73479 q 2.11966,0 3.17299,0.15605 1.05333,0.15604 2.01563,0.6502 1.06633,0.55917 1.54748,1.44345 0.48115,0.87127 0.48115,2.09365 0,1.37843 -0.70222,2.35373 -0.70222,0.9623 -1.87258,1.54749 v 0.10403 q 1.96361,0.40312 3.09496,1.72954 1.13135,1.31341 1.13135,3.32904 z m -4.33035,-8.72572 q 0,-0.70222 -0.23407,-1.18337 -0.23407,-0.48115 -0.75423,-0.78025 -0.6112,-0.3511 -1.48247,-0.42913 -0.87127,-0.091 -2.15867,-0.091 h -3.06896 v 5.59174 h 3.32904 q 1.20938,0 1.9246,-0.11703 0.71522,-0.13004 1.32641,-0.52016 0.6112,-0.39013 0.85827,-1.00132 0.26008,-0.62419 0.26008,-1.46945 z m 1.65152,8.82975 q 0,-1.17037 -0.35111,-1.85958 -0.35111,-0.68922 -1.2744,-1.17037 -0.62419,-0.3251 -1.52147,-0.41613 -0.88428,-0.10403 -2.15868,-0.10403 h -4.04426 v 7.20425 h 3.40707 q 1.69052,0 2.76986,-0.16906 1.07934,-0.18205 1.76855,-0.6502 0.72823,-0.50716 1.06633,-1.15736 0.33811,-0.6502 0.33811,-1.67752 z m 13.96635,-1.44345 h -8.11453 v -2.35374 h 8.11453 z m 11.02743,7.29527 h -7.64638 V 354.744 h 2.53579 v -15.40981 h -2.53579 v -1.97661 h 7.64638 v 1.97661 h -2.53579 V 354.744 h 2.53579 z m 18.08864,-19.36303 -6.81412,10.87139 v 8.49164 h -2.5748 v -8.21856 l -6.84014,-11.14447 h 2.84789 l 5.29265,8.6607 5.34467,-8.6607 z"
       id="text114"
       style="font-size:26.6323px;font-family:Verdana;-inkscape-font-specification:'Verdana, Normal';fill:none;stroke:#000000;stroke-width:0.332904"
       transform="scale(1.012683,0.98747584)"
       aria-label="DUB-IY" />
  </g>
  <metadata
     id="metadata1">
    <rdf:RDF>
      <cc:Work
         rdf:about="">
        <dc:title>DUB-IY Fromtplatte</dc:title>
        <dc:date>14.12.2024</dc:date>
        <dc:creator>
          <cc:Agent>
            <dc:title>Dirk Hanisch</dc:title>
          </cc:Agent>
        </dc:creator>
      </cc:Work>
    </rdf:RDF>
  </metadata>
</svg>
