%TF.GenerationSoftware,KiCad,Pcbnew,8.0.6-8.0.6-0~ubuntu22.04.1*%
%TF.CreationDate,2024-11-14T20:27:25+01:00*%
%TF.ProjectId,VCO_RPIpico,56434f5f-5250-4497-9069-636f2e6b6963,0*%
%TF.SameCoordinates,Original*%
%TF.FileFunction,Drillmap*%
%TF.FilePolarity,Positive*%
%FSLAX45Y45*%
G04 Gerber Fmt 4.5, Leading zero omitted, Abs format (unit mm)*
G04 Created by KiCad (PCBNEW 8.0.6-8.0.6-0~ubuntu22.04.1) date 2024-11-14 20:27:25*
%MOMM*%
%LPD*%
G01*
G04 APERTURE LIST*
%ADD10C,0.100000*%
%ADD11C,0.200000*%
%ADD12C,0.150000*%
%ADD13C,0.180000*%
G04 APERTURE END LIST*
D10*
X17870000Y-5100000D02*
G75*
G02*
X17530000Y-5100000I-170000J0D01*
G01*
X17530000Y-5100000D02*
G75*
G02*
X17870000Y-5100000I170000J0D01*
G01*
X4670000Y-5100000D02*
G75*
G02*
X4330000Y-5100000I-170000J0D01*
G01*
X4330000Y-5100000D02*
G75*
G02*
X4670000Y-5100000I170000J0D01*
G01*
X14870000Y-12400000D02*
G75*
G02*
X14530000Y-12400000I-170000J0D01*
G01*
X14530000Y-12400000D02*
G75*
G02*
X14870000Y-12400000I170000J0D01*
G01*
X17870000Y-12400000D02*
G75*
G02*
X17530000Y-12400000I-170000J0D01*
G01*
X17530000Y-12400000D02*
G75*
G02*
X17870000Y-12400000I170000J0D01*
G01*
X11270000Y-12400000D02*
G75*
G02*
X10930000Y-12400000I-170000J0D01*
G01*
X10930000Y-12400000D02*
G75*
G02*
X11270000Y-12400000I170000J0D01*
G01*
X4200000Y-4800000D02*
X18000000Y-4800000D01*
X18000000Y-13100000D01*
X4200000Y-13100000D01*
X4200000Y-4800000D01*
X7670000Y-12400000D02*
G75*
G02*
X7330000Y-12400000I-170000J0D01*
G01*
X7330000Y-12400000D02*
G75*
G02*
X7670000Y-12400000I170000J0D01*
G01*
X4670000Y-10400000D02*
G75*
G02*
X4330000Y-10400000I-170000J0D01*
G01*
X4330000Y-10400000D02*
G75*
G02*
X4670000Y-10400000I170000J0D01*
G01*
X17870000Y-10400000D02*
G75*
G02*
X17530000Y-10400000I-170000J0D01*
G01*
X17530000Y-10400000D02*
G75*
G02*
X17870000Y-10400000I170000J0D01*
G01*
X4670000Y-12400000D02*
G75*
G02*
X4330000Y-12400000I-170000J0D01*
G01*
X4330000Y-12400000D02*
G75*
G02*
X4670000Y-12400000I170000J0D01*
G01*
D11*
D12*
X7186100Y-5674400D02*
X7336100Y-5824400D01*
X7336100Y-5674400D02*
X7186100Y-5824400D01*
X7671100Y-5674400D02*
X7821100Y-5824400D01*
X7821100Y-5674400D02*
X7671100Y-5824400D01*
D13*
X7321100Y-5446400D02*
G75*
G02*
X7141100Y-5446400I-90000J0D01*
G01*
X7141100Y-5446400D02*
G75*
G02*
X7321100Y-5446400I90000J0D01*
G01*
X7866100Y-5446400D02*
G75*
G02*
X7686100Y-5446400I-90000J0D01*
G01*
X7686100Y-5446400D02*
G75*
G02*
X7866100Y-5446400I90000J0D01*
G01*
D11*
X4455777Y-13416484D02*
X4455777Y-13216484D01*
X4455777Y-13216484D02*
X4503396Y-13216484D01*
X4503396Y-13216484D02*
X4531967Y-13226008D01*
X4531967Y-13226008D02*
X4551015Y-13245055D01*
X4551015Y-13245055D02*
X4560539Y-13264103D01*
X4560539Y-13264103D02*
X4570063Y-13302198D01*
X4570063Y-13302198D02*
X4570063Y-13330769D01*
X4570063Y-13330769D02*
X4560539Y-13368865D01*
X4560539Y-13368865D02*
X4551015Y-13387912D01*
X4551015Y-13387912D02*
X4531967Y-13406960D01*
X4531967Y-13406960D02*
X4503396Y-13416484D01*
X4503396Y-13416484D02*
X4455777Y-13416484D01*
X4655777Y-13416484D02*
X4655777Y-13283150D01*
X4655777Y-13321246D02*
X4665301Y-13302198D01*
X4665301Y-13302198D02*
X4674824Y-13292674D01*
X4674824Y-13292674D02*
X4693872Y-13283150D01*
X4693872Y-13283150D02*
X4712920Y-13283150D01*
X4779586Y-13416484D02*
X4779586Y-13283150D01*
X4779586Y-13216484D02*
X4770063Y-13226008D01*
X4770063Y-13226008D02*
X4779586Y-13235531D01*
X4779586Y-13235531D02*
X4789110Y-13226008D01*
X4789110Y-13226008D02*
X4779586Y-13216484D01*
X4779586Y-13216484D02*
X4779586Y-13235531D01*
X4903396Y-13416484D02*
X4884348Y-13406960D01*
X4884348Y-13406960D02*
X4874824Y-13387912D01*
X4874824Y-13387912D02*
X4874824Y-13216484D01*
X5008158Y-13416484D02*
X4989110Y-13406960D01*
X4989110Y-13406960D02*
X4979586Y-13387912D01*
X4979586Y-13387912D02*
X4979586Y-13216484D01*
X5236729Y-13416484D02*
X5236729Y-13216484D01*
X5236729Y-13216484D02*
X5303396Y-13359341D01*
X5303396Y-13359341D02*
X5370063Y-13216484D01*
X5370063Y-13216484D02*
X5370063Y-13416484D01*
X5551015Y-13416484D02*
X5551015Y-13311722D01*
X5551015Y-13311722D02*
X5541491Y-13292674D01*
X5541491Y-13292674D02*
X5522444Y-13283150D01*
X5522444Y-13283150D02*
X5484348Y-13283150D01*
X5484348Y-13283150D02*
X5465301Y-13292674D01*
X5551015Y-13406960D02*
X5531967Y-13416484D01*
X5531967Y-13416484D02*
X5484348Y-13416484D01*
X5484348Y-13416484D02*
X5465301Y-13406960D01*
X5465301Y-13406960D02*
X5455777Y-13387912D01*
X5455777Y-13387912D02*
X5455777Y-13368865D01*
X5455777Y-13368865D02*
X5465301Y-13349817D01*
X5465301Y-13349817D02*
X5484348Y-13340293D01*
X5484348Y-13340293D02*
X5531967Y-13340293D01*
X5531967Y-13340293D02*
X5551015Y-13330769D01*
X5646253Y-13283150D02*
X5646253Y-13483150D01*
X5646253Y-13292674D02*
X5665301Y-13283150D01*
X5665301Y-13283150D02*
X5703396Y-13283150D01*
X5703396Y-13283150D02*
X5722443Y-13292674D01*
X5722443Y-13292674D02*
X5731967Y-13302198D01*
X5731967Y-13302198D02*
X5741491Y-13321246D01*
X5741491Y-13321246D02*
X5741491Y-13378388D01*
X5741491Y-13378388D02*
X5731967Y-13397436D01*
X5731967Y-13397436D02*
X5722443Y-13406960D01*
X5722443Y-13406960D02*
X5703396Y-13416484D01*
X5703396Y-13416484D02*
X5665301Y-13416484D01*
X5665301Y-13416484D02*
X5646253Y-13406960D01*
X5827205Y-13397436D02*
X5836729Y-13406960D01*
X5836729Y-13406960D02*
X5827205Y-13416484D01*
X5827205Y-13416484D02*
X5817682Y-13406960D01*
X5817682Y-13406960D02*
X5827205Y-13397436D01*
X5827205Y-13397436D02*
X5827205Y-13416484D01*
X5827205Y-13292674D02*
X5836729Y-13302198D01*
X5836729Y-13302198D02*
X5827205Y-13311722D01*
X5827205Y-13311722D02*
X5817682Y-13302198D01*
X5817682Y-13302198D02*
X5827205Y-13292674D01*
X5827205Y-13292674D02*
X5827205Y-13311722D01*
D12*
X4045000Y-13670000D02*
X4195000Y-13820000D01*
X4195000Y-13670000D02*
X4045000Y-13820000D01*
D11*
X4560539Y-13836484D02*
X4446253Y-13836484D01*
X4503396Y-13836484D02*
X4503396Y-13636484D01*
X4503396Y-13636484D02*
X4484348Y-13665055D01*
X4484348Y-13665055D02*
X4465301Y-13684103D01*
X4465301Y-13684103D02*
X4446253Y-13693627D01*
X4646253Y-13817436D02*
X4655777Y-13826960D01*
X4655777Y-13826960D02*
X4646253Y-13836484D01*
X4646253Y-13836484D02*
X4636729Y-13826960D01*
X4636729Y-13826960D02*
X4646253Y-13817436D01*
X4646253Y-13817436D02*
X4646253Y-13836484D01*
X4836729Y-13636484D02*
X4741491Y-13636484D01*
X4741491Y-13636484D02*
X4731967Y-13731722D01*
X4731967Y-13731722D02*
X4741491Y-13722198D01*
X4741491Y-13722198D02*
X4760539Y-13712674D01*
X4760539Y-13712674D02*
X4808158Y-13712674D01*
X4808158Y-13712674D02*
X4827205Y-13722198D01*
X4827205Y-13722198D02*
X4836729Y-13731722D01*
X4836729Y-13731722D02*
X4846253Y-13750769D01*
X4846253Y-13750769D02*
X4846253Y-13798388D01*
X4846253Y-13798388D02*
X4836729Y-13817436D01*
X4836729Y-13817436D02*
X4827205Y-13826960D01*
X4827205Y-13826960D02*
X4808158Y-13836484D01*
X4808158Y-13836484D02*
X4760539Y-13836484D01*
X4760539Y-13836484D02*
X4741491Y-13826960D01*
X4741491Y-13826960D02*
X4731967Y-13817436D01*
X4970063Y-13636484D02*
X4989110Y-13636484D01*
X4989110Y-13636484D02*
X5008158Y-13646008D01*
X5008158Y-13646008D02*
X5017682Y-13655531D01*
X5017682Y-13655531D02*
X5027205Y-13674579D01*
X5027205Y-13674579D02*
X5036729Y-13712674D01*
X5036729Y-13712674D02*
X5036729Y-13760293D01*
X5036729Y-13760293D02*
X5027205Y-13798388D01*
X5027205Y-13798388D02*
X5017682Y-13817436D01*
X5017682Y-13817436D02*
X5008158Y-13826960D01*
X5008158Y-13826960D02*
X4989110Y-13836484D01*
X4989110Y-13836484D02*
X4970063Y-13836484D01*
X4970063Y-13836484D02*
X4951015Y-13826960D01*
X4951015Y-13826960D02*
X4941491Y-13817436D01*
X4941491Y-13817436D02*
X4931967Y-13798388D01*
X4931967Y-13798388D02*
X4922444Y-13760293D01*
X4922444Y-13760293D02*
X4922444Y-13712674D01*
X4922444Y-13712674D02*
X4931967Y-13674579D01*
X4931967Y-13674579D02*
X4941491Y-13655531D01*
X4941491Y-13655531D02*
X4951015Y-13646008D01*
X4951015Y-13646008D02*
X4970063Y-13636484D01*
X5160539Y-13636484D02*
X5179586Y-13636484D01*
X5179586Y-13636484D02*
X5198634Y-13646008D01*
X5198634Y-13646008D02*
X5208158Y-13655531D01*
X5208158Y-13655531D02*
X5217682Y-13674579D01*
X5217682Y-13674579D02*
X5227205Y-13712674D01*
X5227205Y-13712674D02*
X5227205Y-13760293D01*
X5227205Y-13760293D02*
X5217682Y-13798388D01*
X5217682Y-13798388D02*
X5208158Y-13817436D01*
X5208158Y-13817436D02*
X5198634Y-13826960D01*
X5198634Y-13826960D02*
X5179586Y-13836484D01*
X5179586Y-13836484D02*
X5160539Y-13836484D01*
X5160539Y-13836484D02*
X5141491Y-13826960D01*
X5141491Y-13826960D02*
X5131967Y-13817436D01*
X5131967Y-13817436D02*
X5122444Y-13798388D01*
X5122444Y-13798388D02*
X5112920Y-13760293D01*
X5112920Y-13760293D02*
X5112920Y-13712674D01*
X5112920Y-13712674D02*
X5122444Y-13674579D01*
X5122444Y-13674579D02*
X5131967Y-13655531D01*
X5131967Y-13655531D02*
X5141491Y-13646008D01*
X5141491Y-13646008D02*
X5160539Y-13636484D01*
X5312920Y-13836484D02*
X5312920Y-13703150D01*
X5312920Y-13722198D02*
X5322444Y-13712674D01*
X5322444Y-13712674D02*
X5341491Y-13703150D01*
X5341491Y-13703150D02*
X5370063Y-13703150D01*
X5370063Y-13703150D02*
X5389110Y-13712674D01*
X5389110Y-13712674D02*
X5398634Y-13731722D01*
X5398634Y-13731722D02*
X5398634Y-13836484D01*
X5398634Y-13731722D02*
X5408158Y-13712674D01*
X5408158Y-13712674D02*
X5427205Y-13703150D01*
X5427205Y-13703150D02*
X5455777Y-13703150D01*
X5455777Y-13703150D02*
X5474825Y-13712674D01*
X5474825Y-13712674D02*
X5484348Y-13731722D01*
X5484348Y-13731722D02*
X5484348Y-13836484D01*
X5579586Y-13836484D02*
X5579586Y-13703150D01*
X5579586Y-13722198D02*
X5589110Y-13712674D01*
X5589110Y-13712674D02*
X5608158Y-13703150D01*
X5608158Y-13703150D02*
X5636729Y-13703150D01*
X5636729Y-13703150D02*
X5655777Y-13712674D01*
X5655777Y-13712674D02*
X5665301Y-13731722D01*
X5665301Y-13731722D02*
X5665301Y-13836484D01*
X5665301Y-13731722D02*
X5674824Y-13712674D01*
X5674824Y-13712674D02*
X5693872Y-13703150D01*
X5693872Y-13703150D02*
X5722443Y-13703150D01*
X5722443Y-13703150D02*
X5741491Y-13712674D01*
X5741491Y-13712674D02*
X5751015Y-13731722D01*
X5751015Y-13731722D02*
X5751015Y-13836484D01*
X6141491Y-13626960D02*
X5970063Y-13884103D01*
X6398634Y-13636484D02*
X6417682Y-13636484D01*
X6417682Y-13636484D02*
X6436729Y-13646008D01*
X6436729Y-13646008D02*
X6446253Y-13655531D01*
X6446253Y-13655531D02*
X6455777Y-13674579D01*
X6455777Y-13674579D02*
X6465301Y-13712674D01*
X6465301Y-13712674D02*
X6465301Y-13760293D01*
X6465301Y-13760293D02*
X6455777Y-13798388D01*
X6455777Y-13798388D02*
X6446253Y-13817436D01*
X6446253Y-13817436D02*
X6436729Y-13826960D01*
X6436729Y-13826960D02*
X6417682Y-13836484D01*
X6417682Y-13836484D02*
X6398634Y-13836484D01*
X6398634Y-13836484D02*
X6379586Y-13826960D01*
X6379586Y-13826960D02*
X6370063Y-13817436D01*
X6370063Y-13817436D02*
X6360539Y-13798388D01*
X6360539Y-13798388D02*
X6351015Y-13760293D01*
X6351015Y-13760293D02*
X6351015Y-13712674D01*
X6351015Y-13712674D02*
X6360539Y-13674579D01*
X6360539Y-13674579D02*
X6370063Y-13655531D01*
X6370063Y-13655531D02*
X6379586Y-13646008D01*
X6379586Y-13646008D02*
X6398634Y-13636484D01*
X6551015Y-13817436D02*
X6560539Y-13826960D01*
X6560539Y-13826960D02*
X6551015Y-13836484D01*
X6551015Y-13836484D02*
X6541491Y-13826960D01*
X6541491Y-13826960D02*
X6551015Y-13817436D01*
X6551015Y-13817436D02*
X6551015Y-13836484D01*
X6684348Y-13636484D02*
X6703396Y-13636484D01*
X6703396Y-13636484D02*
X6722444Y-13646008D01*
X6722444Y-13646008D02*
X6731967Y-13655531D01*
X6731967Y-13655531D02*
X6741491Y-13674579D01*
X6741491Y-13674579D02*
X6751015Y-13712674D01*
X6751015Y-13712674D02*
X6751015Y-13760293D01*
X6751015Y-13760293D02*
X6741491Y-13798388D01*
X6741491Y-13798388D02*
X6731967Y-13817436D01*
X6731967Y-13817436D02*
X6722444Y-13826960D01*
X6722444Y-13826960D02*
X6703396Y-13836484D01*
X6703396Y-13836484D02*
X6684348Y-13836484D01*
X6684348Y-13836484D02*
X6665301Y-13826960D01*
X6665301Y-13826960D02*
X6655777Y-13817436D01*
X6655777Y-13817436D02*
X6646253Y-13798388D01*
X6646253Y-13798388D02*
X6636729Y-13760293D01*
X6636729Y-13760293D02*
X6636729Y-13712674D01*
X6636729Y-13712674D02*
X6646253Y-13674579D01*
X6646253Y-13674579D02*
X6655777Y-13655531D01*
X6655777Y-13655531D02*
X6665301Y-13646008D01*
X6665301Y-13646008D02*
X6684348Y-13636484D01*
X6931967Y-13636484D02*
X6836729Y-13636484D01*
X6836729Y-13636484D02*
X6827206Y-13731722D01*
X6827206Y-13731722D02*
X6836729Y-13722198D01*
X6836729Y-13722198D02*
X6855777Y-13712674D01*
X6855777Y-13712674D02*
X6903396Y-13712674D01*
X6903396Y-13712674D02*
X6922444Y-13722198D01*
X6922444Y-13722198D02*
X6931967Y-13731722D01*
X6931967Y-13731722D02*
X6941491Y-13750769D01*
X6941491Y-13750769D02*
X6941491Y-13798388D01*
X6941491Y-13798388D02*
X6931967Y-13817436D01*
X6931967Y-13817436D02*
X6922444Y-13826960D01*
X6922444Y-13826960D02*
X6903396Y-13836484D01*
X6903396Y-13836484D02*
X6855777Y-13836484D01*
X6855777Y-13836484D02*
X6836729Y-13826960D01*
X6836729Y-13826960D02*
X6827206Y-13817436D01*
X7036729Y-13836484D02*
X7074825Y-13836484D01*
X7074825Y-13836484D02*
X7093872Y-13826960D01*
X7093872Y-13826960D02*
X7103396Y-13817436D01*
X7103396Y-13817436D02*
X7122444Y-13788865D01*
X7122444Y-13788865D02*
X7131967Y-13750769D01*
X7131967Y-13750769D02*
X7131967Y-13674579D01*
X7131967Y-13674579D02*
X7122444Y-13655531D01*
X7122444Y-13655531D02*
X7112920Y-13646008D01*
X7112920Y-13646008D02*
X7093872Y-13636484D01*
X7093872Y-13636484D02*
X7055777Y-13636484D01*
X7055777Y-13636484D02*
X7036729Y-13646008D01*
X7036729Y-13646008D02*
X7027206Y-13655531D01*
X7027206Y-13655531D02*
X7017682Y-13674579D01*
X7017682Y-13674579D02*
X7017682Y-13722198D01*
X7017682Y-13722198D02*
X7027206Y-13741246D01*
X7027206Y-13741246D02*
X7036729Y-13750769D01*
X7036729Y-13750769D02*
X7055777Y-13760293D01*
X7055777Y-13760293D02*
X7093872Y-13760293D01*
X7093872Y-13760293D02*
X7112920Y-13750769D01*
X7112920Y-13750769D02*
X7122444Y-13741246D01*
X7122444Y-13741246D02*
X7131967Y-13722198D01*
X7322444Y-13836484D02*
X7208158Y-13836484D01*
X7265301Y-13836484D02*
X7265301Y-13636484D01*
X7265301Y-13636484D02*
X7246253Y-13665055D01*
X7246253Y-13665055D02*
X7227206Y-13684103D01*
X7227206Y-13684103D02*
X7208158Y-13693627D01*
X7398634Y-13636484D02*
X7398634Y-13674579D01*
X7474825Y-13636484D02*
X7474825Y-13674579D01*
X7770063Y-13912674D02*
X7760539Y-13903150D01*
X7760539Y-13903150D02*
X7741491Y-13874579D01*
X7741491Y-13874579D02*
X7731968Y-13855531D01*
X7731968Y-13855531D02*
X7722444Y-13826960D01*
X7722444Y-13826960D02*
X7712920Y-13779341D01*
X7712920Y-13779341D02*
X7712920Y-13741246D01*
X7712920Y-13741246D02*
X7722444Y-13693627D01*
X7722444Y-13693627D02*
X7731968Y-13665055D01*
X7731968Y-13665055D02*
X7741491Y-13646008D01*
X7741491Y-13646008D02*
X7760539Y-13617436D01*
X7760539Y-13617436D02*
X7770063Y-13607912D01*
X7836729Y-13655531D02*
X7846253Y-13646008D01*
X7846253Y-13646008D02*
X7865301Y-13636484D01*
X7865301Y-13636484D02*
X7912920Y-13636484D01*
X7912920Y-13636484D02*
X7931968Y-13646008D01*
X7931968Y-13646008D02*
X7941491Y-13655531D01*
X7941491Y-13655531D02*
X7951015Y-13674579D01*
X7951015Y-13674579D02*
X7951015Y-13693627D01*
X7951015Y-13693627D02*
X7941491Y-13722198D01*
X7941491Y-13722198D02*
X7827206Y-13836484D01*
X7827206Y-13836484D02*
X7951015Y-13836484D01*
X8189110Y-13836484D02*
X8189110Y-13636484D01*
X8274825Y-13836484D02*
X8274825Y-13731722D01*
X8274825Y-13731722D02*
X8265301Y-13712674D01*
X8265301Y-13712674D02*
X8246253Y-13703150D01*
X8246253Y-13703150D02*
X8217682Y-13703150D01*
X8217682Y-13703150D02*
X8198634Y-13712674D01*
X8198634Y-13712674D02*
X8189110Y-13722198D01*
X8398634Y-13836484D02*
X8379587Y-13826960D01*
X8379587Y-13826960D02*
X8370063Y-13817436D01*
X8370063Y-13817436D02*
X8360539Y-13798388D01*
X8360539Y-13798388D02*
X8360539Y-13741246D01*
X8360539Y-13741246D02*
X8370063Y-13722198D01*
X8370063Y-13722198D02*
X8379587Y-13712674D01*
X8379587Y-13712674D02*
X8398634Y-13703150D01*
X8398634Y-13703150D02*
X8427206Y-13703150D01*
X8427206Y-13703150D02*
X8446253Y-13712674D01*
X8446253Y-13712674D02*
X8455777Y-13722198D01*
X8455777Y-13722198D02*
X8465301Y-13741246D01*
X8465301Y-13741246D02*
X8465301Y-13798388D01*
X8465301Y-13798388D02*
X8455777Y-13817436D01*
X8455777Y-13817436D02*
X8446253Y-13826960D01*
X8446253Y-13826960D02*
X8427206Y-13836484D01*
X8427206Y-13836484D02*
X8398634Y-13836484D01*
X8579587Y-13836484D02*
X8560539Y-13826960D01*
X8560539Y-13826960D02*
X8551015Y-13807912D01*
X8551015Y-13807912D02*
X8551015Y-13636484D01*
X8731968Y-13826960D02*
X8712920Y-13836484D01*
X8712920Y-13836484D02*
X8674825Y-13836484D01*
X8674825Y-13836484D02*
X8655777Y-13826960D01*
X8655777Y-13826960D02*
X8646253Y-13807912D01*
X8646253Y-13807912D02*
X8646253Y-13731722D01*
X8646253Y-13731722D02*
X8655777Y-13712674D01*
X8655777Y-13712674D02*
X8674825Y-13703150D01*
X8674825Y-13703150D02*
X8712920Y-13703150D01*
X8712920Y-13703150D02*
X8731968Y-13712674D01*
X8731968Y-13712674D02*
X8741492Y-13731722D01*
X8741492Y-13731722D02*
X8741492Y-13750769D01*
X8741492Y-13750769D02*
X8646253Y-13769817D01*
X8817682Y-13826960D02*
X8836730Y-13836484D01*
X8836730Y-13836484D02*
X8874825Y-13836484D01*
X8874825Y-13836484D02*
X8893873Y-13826960D01*
X8893873Y-13826960D02*
X8903396Y-13807912D01*
X8903396Y-13807912D02*
X8903396Y-13798388D01*
X8903396Y-13798388D02*
X8893873Y-13779341D01*
X8893873Y-13779341D02*
X8874825Y-13769817D01*
X8874825Y-13769817D02*
X8846253Y-13769817D01*
X8846253Y-13769817D02*
X8827206Y-13760293D01*
X8827206Y-13760293D02*
X8817682Y-13741246D01*
X8817682Y-13741246D02*
X8817682Y-13731722D01*
X8817682Y-13731722D02*
X8827206Y-13712674D01*
X8827206Y-13712674D02*
X8846253Y-13703150D01*
X8846253Y-13703150D02*
X8874825Y-13703150D01*
X8874825Y-13703150D02*
X8893873Y-13712674D01*
X8970063Y-13912674D02*
X8979587Y-13903150D01*
X8979587Y-13903150D02*
X8998634Y-13874579D01*
X8998634Y-13874579D02*
X9008158Y-13855531D01*
X9008158Y-13855531D02*
X9017682Y-13826960D01*
X9017682Y-13826960D02*
X9027206Y-13779341D01*
X9027206Y-13779341D02*
X9027206Y-13741246D01*
X9027206Y-13741246D02*
X9017682Y-13693627D01*
X9017682Y-13693627D02*
X9008158Y-13665055D01*
X9008158Y-13665055D02*
X8998634Y-13646008D01*
X8998634Y-13646008D02*
X8979587Y-13617436D01*
X8979587Y-13617436D02*
X8970063Y-13607912D01*
X9331968Y-13912674D02*
X9322444Y-13903150D01*
X9322444Y-13903150D02*
X9303396Y-13874579D01*
X9303396Y-13874579D02*
X9293873Y-13855531D01*
X9293873Y-13855531D02*
X9284349Y-13826960D01*
X9284349Y-13826960D02*
X9274825Y-13779341D01*
X9274825Y-13779341D02*
X9274825Y-13741246D01*
X9274825Y-13741246D02*
X9284349Y-13693627D01*
X9284349Y-13693627D02*
X9293873Y-13665055D01*
X9293873Y-13665055D02*
X9303396Y-13646008D01*
X9303396Y-13646008D02*
X9322444Y-13617436D01*
X9322444Y-13617436D02*
X9331968Y-13607912D01*
X9408158Y-13703150D02*
X9408158Y-13836484D01*
X9408158Y-13722198D02*
X9417682Y-13712674D01*
X9417682Y-13712674D02*
X9436730Y-13703150D01*
X9436730Y-13703150D02*
X9465301Y-13703150D01*
X9465301Y-13703150D02*
X9484349Y-13712674D01*
X9484349Y-13712674D02*
X9493873Y-13731722D01*
X9493873Y-13731722D02*
X9493873Y-13836484D01*
X9617682Y-13836484D02*
X9598634Y-13826960D01*
X9598634Y-13826960D02*
X9589111Y-13817436D01*
X9589111Y-13817436D02*
X9579587Y-13798388D01*
X9579587Y-13798388D02*
X9579587Y-13741246D01*
X9579587Y-13741246D02*
X9589111Y-13722198D01*
X9589111Y-13722198D02*
X9598634Y-13712674D01*
X9598634Y-13712674D02*
X9617682Y-13703150D01*
X9617682Y-13703150D02*
X9646254Y-13703150D01*
X9646254Y-13703150D02*
X9665301Y-13712674D01*
X9665301Y-13712674D02*
X9674825Y-13722198D01*
X9674825Y-13722198D02*
X9684349Y-13741246D01*
X9684349Y-13741246D02*
X9684349Y-13798388D01*
X9684349Y-13798388D02*
X9674825Y-13817436D01*
X9674825Y-13817436D02*
X9665301Y-13826960D01*
X9665301Y-13826960D02*
X9646254Y-13836484D01*
X9646254Y-13836484D02*
X9617682Y-13836484D01*
X9741492Y-13703150D02*
X9817682Y-13703150D01*
X9770063Y-13636484D02*
X9770063Y-13807912D01*
X9770063Y-13807912D02*
X9779587Y-13826960D01*
X9779587Y-13826960D02*
X9798634Y-13836484D01*
X9798634Y-13836484D02*
X9817682Y-13836484D01*
X10036730Y-13703150D02*
X10036730Y-13903150D01*
X10036730Y-13712674D02*
X10055777Y-13703150D01*
X10055777Y-13703150D02*
X10093873Y-13703150D01*
X10093873Y-13703150D02*
X10112920Y-13712674D01*
X10112920Y-13712674D02*
X10122444Y-13722198D01*
X10122444Y-13722198D02*
X10131968Y-13741246D01*
X10131968Y-13741246D02*
X10131968Y-13798388D01*
X10131968Y-13798388D02*
X10122444Y-13817436D01*
X10122444Y-13817436D02*
X10112920Y-13826960D01*
X10112920Y-13826960D02*
X10093873Y-13836484D01*
X10093873Y-13836484D02*
X10055777Y-13836484D01*
X10055777Y-13836484D02*
X10036730Y-13826960D01*
X10246254Y-13836484D02*
X10227206Y-13826960D01*
X10227206Y-13826960D02*
X10217682Y-13807912D01*
X10217682Y-13807912D02*
X10217682Y-13636484D01*
X10408158Y-13836484D02*
X10408158Y-13731722D01*
X10408158Y-13731722D02*
X10398635Y-13712674D01*
X10398635Y-13712674D02*
X10379587Y-13703150D01*
X10379587Y-13703150D02*
X10341492Y-13703150D01*
X10341492Y-13703150D02*
X10322444Y-13712674D01*
X10408158Y-13826960D02*
X10389111Y-13836484D01*
X10389111Y-13836484D02*
X10341492Y-13836484D01*
X10341492Y-13836484D02*
X10322444Y-13826960D01*
X10322444Y-13826960D02*
X10312920Y-13807912D01*
X10312920Y-13807912D02*
X10312920Y-13788865D01*
X10312920Y-13788865D02*
X10322444Y-13769817D01*
X10322444Y-13769817D02*
X10341492Y-13760293D01*
X10341492Y-13760293D02*
X10389111Y-13760293D01*
X10389111Y-13760293D02*
X10408158Y-13750769D01*
X10474825Y-13703150D02*
X10551015Y-13703150D01*
X10503396Y-13636484D02*
X10503396Y-13807912D01*
X10503396Y-13807912D02*
X10512920Y-13826960D01*
X10512920Y-13826960D02*
X10531968Y-13836484D01*
X10531968Y-13836484D02*
X10551015Y-13836484D01*
X10693873Y-13826960D02*
X10674825Y-13836484D01*
X10674825Y-13836484D02*
X10636730Y-13836484D01*
X10636730Y-13836484D02*
X10617682Y-13826960D01*
X10617682Y-13826960D02*
X10608158Y-13807912D01*
X10608158Y-13807912D02*
X10608158Y-13731722D01*
X10608158Y-13731722D02*
X10617682Y-13712674D01*
X10617682Y-13712674D02*
X10636730Y-13703150D01*
X10636730Y-13703150D02*
X10674825Y-13703150D01*
X10674825Y-13703150D02*
X10693873Y-13712674D01*
X10693873Y-13712674D02*
X10703396Y-13731722D01*
X10703396Y-13731722D02*
X10703396Y-13750769D01*
X10703396Y-13750769D02*
X10608158Y-13769817D01*
X10874825Y-13836484D02*
X10874825Y-13636484D01*
X10874825Y-13826960D02*
X10855777Y-13836484D01*
X10855777Y-13836484D02*
X10817682Y-13836484D01*
X10817682Y-13836484D02*
X10798635Y-13826960D01*
X10798635Y-13826960D02*
X10789111Y-13817436D01*
X10789111Y-13817436D02*
X10779587Y-13798388D01*
X10779587Y-13798388D02*
X10779587Y-13741246D01*
X10779587Y-13741246D02*
X10789111Y-13722198D01*
X10789111Y-13722198D02*
X10798635Y-13712674D01*
X10798635Y-13712674D02*
X10817682Y-13703150D01*
X10817682Y-13703150D02*
X10855777Y-13703150D01*
X10855777Y-13703150D02*
X10874825Y-13712674D01*
X10951016Y-13912674D02*
X10960539Y-13903150D01*
X10960539Y-13903150D02*
X10979587Y-13874579D01*
X10979587Y-13874579D02*
X10989111Y-13855531D01*
X10989111Y-13855531D02*
X10998635Y-13826960D01*
X10998635Y-13826960D02*
X11008158Y-13779341D01*
X11008158Y-13779341D02*
X11008158Y-13741246D01*
X11008158Y-13741246D02*
X10998635Y-13693627D01*
X10998635Y-13693627D02*
X10989111Y-13665055D01*
X10989111Y-13665055D02*
X10979587Y-13646008D01*
X10979587Y-13646008D02*
X10960539Y-13617436D01*
X10960539Y-13617436D02*
X10951016Y-13607912D01*
D13*
X4195000Y-14015000D02*
G75*
G02*
X4015000Y-14015000I-90000J0D01*
G01*
X4015000Y-14015000D02*
G75*
G02*
X4195000Y-14015000I90000J0D01*
G01*
D11*
X4560539Y-14106484D02*
X4446253Y-14106484D01*
X4503396Y-14106484D02*
X4503396Y-13906484D01*
X4503396Y-13906484D02*
X4484348Y-13935055D01*
X4484348Y-13935055D02*
X4465301Y-13954103D01*
X4465301Y-13954103D02*
X4446253Y-13963627D01*
X4646253Y-14087436D02*
X4655777Y-14096960D01*
X4655777Y-14096960D02*
X4646253Y-14106484D01*
X4646253Y-14106484D02*
X4636729Y-14096960D01*
X4636729Y-14096960D02*
X4646253Y-14087436D01*
X4646253Y-14087436D02*
X4646253Y-14106484D01*
X4770063Y-13992198D02*
X4751015Y-13982674D01*
X4751015Y-13982674D02*
X4741491Y-13973150D01*
X4741491Y-13973150D02*
X4731967Y-13954103D01*
X4731967Y-13954103D02*
X4731967Y-13944579D01*
X4731967Y-13944579D02*
X4741491Y-13925531D01*
X4741491Y-13925531D02*
X4751015Y-13916008D01*
X4751015Y-13916008D02*
X4770063Y-13906484D01*
X4770063Y-13906484D02*
X4808158Y-13906484D01*
X4808158Y-13906484D02*
X4827205Y-13916008D01*
X4827205Y-13916008D02*
X4836729Y-13925531D01*
X4836729Y-13925531D02*
X4846253Y-13944579D01*
X4846253Y-13944579D02*
X4846253Y-13954103D01*
X4846253Y-13954103D02*
X4836729Y-13973150D01*
X4836729Y-13973150D02*
X4827205Y-13982674D01*
X4827205Y-13982674D02*
X4808158Y-13992198D01*
X4808158Y-13992198D02*
X4770063Y-13992198D01*
X4770063Y-13992198D02*
X4751015Y-14001722D01*
X4751015Y-14001722D02*
X4741491Y-14011246D01*
X4741491Y-14011246D02*
X4731967Y-14030293D01*
X4731967Y-14030293D02*
X4731967Y-14068388D01*
X4731967Y-14068388D02*
X4741491Y-14087436D01*
X4741491Y-14087436D02*
X4751015Y-14096960D01*
X4751015Y-14096960D02*
X4770063Y-14106484D01*
X4770063Y-14106484D02*
X4808158Y-14106484D01*
X4808158Y-14106484D02*
X4827205Y-14096960D01*
X4827205Y-14096960D02*
X4836729Y-14087436D01*
X4836729Y-14087436D02*
X4846253Y-14068388D01*
X4846253Y-14068388D02*
X4846253Y-14030293D01*
X4846253Y-14030293D02*
X4836729Y-14011246D01*
X4836729Y-14011246D02*
X4827205Y-14001722D01*
X4827205Y-14001722D02*
X4808158Y-13992198D01*
X4970063Y-13906484D02*
X4989110Y-13906484D01*
X4989110Y-13906484D02*
X5008158Y-13916008D01*
X5008158Y-13916008D02*
X5017682Y-13925531D01*
X5017682Y-13925531D02*
X5027205Y-13944579D01*
X5027205Y-13944579D02*
X5036729Y-13982674D01*
X5036729Y-13982674D02*
X5036729Y-14030293D01*
X5036729Y-14030293D02*
X5027205Y-14068388D01*
X5027205Y-14068388D02*
X5017682Y-14087436D01*
X5017682Y-14087436D02*
X5008158Y-14096960D01*
X5008158Y-14096960D02*
X4989110Y-14106484D01*
X4989110Y-14106484D02*
X4970063Y-14106484D01*
X4970063Y-14106484D02*
X4951015Y-14096960D01*
X4951015Y-14096960D02*
X4941491Y-14087436D01*
X4941491Y-14087436D02*
X4931967Y-14068388D01*
X4931967Y-14068388D02*
X4922444Y-14030293D01*
X4922444Y-14030293D02*
X4922444Y-13982674D01*
X4922444Y-13982674D02*
X4931967Y-13944579D01*
X4931967Y-13944579D02*
X4941491Y-13925531D01*
X4941491Y-13925531D02*
X4951015Y-13916008D01*
X4951015Y-13916008D02*
X4970063Y-13906484D01*
X5160539Y-13906484D02*
X5179586Y-13906484D01*
X5179586Y-13906484D02*
X5198634Y-13916008D01*
X5198634Y-13916008D02*
X5208158Y-13925531D01*
X5208158Y-13925531D02*
X5217682Y-13944579D01*
X5217682Y-13944579D02*
X5227205Y-13982674D01*
X5227205Y-13982674D02*
X5227205Y-14030293D01*
X5227205Y-14030293D02*
X5217682Y-14068388D01*
X5217682Y-14068388D02*
X5208158Y-14087436D01*
X5208158Y-14087436D02*
X5198634Y-14096960D01*
X5198634Y-14096960D02*
X5179586Y-14106484D01*
X5179586Y-14106484D02*
X5160539Y-14106484D01*
X5160539Y-14106484D02*
X5141491Y-14096960D01*
X5141491Y-14096960D02*
X5131967Y-14087436D01*
X5131967Y-14087436D02*
X5122444Y-14068388D01*
X5122444Y-14068388D02*
X5112920Y-14030293D01*
X5112920Y-14030293D02*
X5112920Y-13982674D01*
X5112920Y-13982674D02*
X5122444Y-13944579D01*
X5122444Y-13944579D02*
X5131967Y-13925531D01*
X5131967Y-13925531D02*
X5141491Y-13916008D01*
X5141491Y-13916008D02*
X5160539Y-13906484D01*
X5312920Y-14106484D02*
X5312920Y-13973150D01*
X5312920Y-13992198D02*
X5322444Y-13982674D01*
X5322444Y-13982674D02*
X5341491Y-13973150D01*
X5341491Y-13973150D02*
X5370063Y-13973150D01*
X5370063Y-13973150D02*
X5389110Y-13982674D01*
X5389110Y-13982674D02*
X5398634Y-14001722D01*
X5398634Y-14001722D02*
X5398634Y-14106484D01*
X5398634Y-14001722D02*
X5408158Y-13982674D01*
X5408158Y-13982674D02*
X5427205Y-13973150D01*
X5427205Y-13973150D02*
X5455777Y-13973150D01*
X5455777Y-13973150D02*
X5474825Y-13982674D01*
X5474825Y-13982674D02*
X5484348Y-14001722D01*
X5484348Y-14001722D02*
X5484348Y-14106484D01*
X5579586Y-14106484D02*
X5579586Y-13973150D01*
X5579586Y-13992198D02*
X5589110Y-13982674D01*
X5589110Y-13982674D02*
X5608158Y-13973150D01*
X5608158Y-13973150D02*
X5636729Y-13973150D01*
X5636729Y-13973150D02*
X5655777Y-13982674D01*
X5655777Y-13982674D02*
X5665301Y-14001722D01*
X5665301Y-14001722D02*
X5665301Y-14106484D01*
X5665301Y-14001722D02*
X5674824Y-13982674D01*
X5674824Y-13982674D02*
X5693872Y-13973150D01*
X5693872Y-13973150D02*
X5722443Y-13973150D01*
X5722443Y-13973150D02*
X5741491Y-13982674D01*
X5741491Y-13982674D02*
X5751015Y-14001722D01*
X5751015Y-14001722D02*
X5751015Y-14106484D01*
X6141491Y-13896960D02*
X5970063Y-14154103D01*
X6398634Y-13906484D02*
X6417682Y-13906484D01*
X6417682Y-13906484D02*
X6436729Y-13916008D01*
X6436729Y-13916008D02*
X6446253Y-13925531D01*
X6446253Y-13925531D02*
X6455777Y-13944579D01*
X6455777Y-13944579D02*
X6465301Y-13982674D01*
X6465301Y-13982674D02*
X6465301Y-14030293D01*
X6465301Y-14030293D02*
X6455777Y-14068388D01*
X6455777Y-14068388D02*
X6446253Y-14087436D01*
X6446253Y-14087436D02*
X6436729Y-14096960D01*
X6436729Y-14096960D02*
X6417682Y-14106484D01*
X6417682Y-14106484D02*
X6398634Y-14106484D01*
X6398634Y-14106484D02*
X6379586Y-14096960D01*
X6379586Y-14096960D02*
X6370063Y-14087436D01*
X6370063Y-14087436D02*
X6360539Y-14068388D01*
X6360539Y-14068388D02*
X6351015Y-14030293D01*
X6351015Y-14030293D02*
X6351015Y-13982674D01*
X6351015Y-13982674D02*
X6360539Y-13944579D01*
X6360539Y-13944579D02*
X6370063Y-13925531D01*
X6370063Y-13925531D02*
X6379586Y-13916008D01*
X6379586Y-13916008D02*
X6398634Y-13906484D01*
X6551015Y-14087436D02*
X6560539Y-14096960D01*
X6560539Y-14096960D02*
X6551015Y-14106484D01*
X6551015Y-14106484D02*
X6541491Y-14096960D01*
X6541491Y-14096960D02*
X6551015Y-14087436D01*
X6551015Y-14087436D02*
X6551015Y-14106484D01*
X6684348Y-13906484D02*
X6703396Y-13906484D01*
X6703396Y-13906484D02*
X6722444Y-13916008D01*
X6722444Y-13916008D02*
X6731967Y-13925531D01*
X6731967Y-13925531D02*
X6741491Y-13944579D01*
X6741491Y-13944579D02*
X6751015Y-13982674D01*
X6751015Y-13982674D02*
X6751015Y-14030293D01*
X6751015Y-14030293D02*
X6741491Y-14068388D01*
X6741491Y-14068388D02*
X6731967Y-14087436D01*
X6731967Y-14087436D02*
X6722444Y-14096960D01*
X6722444Y-14096960D02*
X6703396Y-14106484D01*
X6703396Y-14106484D02*
X6684348Y-14106484D01*
X6684348Y-14106484D02*
X6665301Y-14096960D01*
X6665301Y-14096960D02*
X6655777Y-14087436D01*
X6655777Y-14087436D02*
X6646253Y-14068388D01*
X6646253Y-14068388D02*
X6636729Y-14030293D01*
X6636729Y-14030293D02*
X6636729Y-13982674D01*
X6636729Y-13982674D02*
X6646253Y-13944579D01*
X6646253Y-13944579D02*
X6655777Y-13925531D01*
X6655777Y-13925531D02*
X6665301Y-13916008D01*
X6665301Y-13916008D02*
X6684348Y-13906484D01*
X6817682Y-13906484D02*
X6951015Y-13906484D01*
X6951015Y-13906484D02*
X6865301Y-14106484D01*
X7065301Y-13906484D02*
X7084348Y-13906484D01*
X7084348Y-13906484D02*
X7103396Y-13916008D01*
X7103396Y-13916008D02*
X7112920Y-13925531D01*
X7112920Y-13925531D02*
X7122444Y-13944579D01*
X7122444Y-13944579D02*
X7131967Y-13982674D01*
X7131967Y-13982674D02*
X7131967Y-14030293D01*
X7131967Y-14030293D02*
X7122444Y-14068388D01*
X7122444Y-14068388D02*
X7112920Y-14087436D01*
X7112920Y-14087436D02*
X7103396Y-14096960D01*
X7103396Y-14096960D02*
X7084348Y-14106484D01*
X7084348Y-14106484D02*
X7065301Y-14106484D01*
X7065301Y-14106484D02*
X7046253Y-14096960D01*
X7046253Y-14096960D02*
X7036729Y-14087436D01*
X7036729Y-14087436D02*
X7027206Y-14068388D01*
X7027206Y-14068388D02*
X7017682Y-14030293D01*
X7017682Y-14030293D02*
X7017682Y-13982674D01*
X7017682Y-13982674D02*
X7027206Y-13944579D01*
X7027206Y-13944579D02*
X7036729Y-13925531D01*
X7036729Y-13925531D02*
X7046253Y-13916008D01*
X7046253Y-13916008D02*
X7065301Y-13906484D01*
X7227206Y-14106484D02*
X7265301Y-14106484D01*
X7265301Y-14106484D02*
X7284348Y-14096960D01*
X7284348Y-14096960D02*
X7293872Y-14087436D01*
X7293872Y-14087436D02*
X7312920Y-14058865D01*
X7312920Y-14058865D02*
X7322444Y-14020769D01*
X7322444Y-14020769D02*
X7322444Y-13944579D01*
X7322444Y-13944579D02*
X7312920Y-13925531D01*
X7312920Y-13925531D02*
X7303396Y-13916008D01*
X7303396Y-13916008D02*
X7284348Y-13906484D01*
X7284348Y-13906484D02*
X7246253Y-13906484D01*
X7246253Y-13906484D02*
X7227206Y-13916008D01*
X7227206Y-13916008D02*
X7217682Y-13925531D01*
X7217682Y-13925531D02*
X7208158Y-13944579D01*
X7208158Y-13944579D02*
X7208158Y-13992198D01*
X7208158Y-13992198D02*
X7217682Y-14011246D01*
X7217682Y-14011246D02*
X7227206Y-14020769D01*
X7227206Y-14020769D02*
X7246253Y-14030293D01*
X7246253Y-14030293D02*
X7284348Y-14030293D01*
X7284348Y-14030293D02*
X7303396Y-14020769D01*
X7303396Y-14020769D02*
X7312920Y-14011246D01*
X7312920Y-14011246D02*
X7322444Y-13992198D01*
X7398634Y-13906484D02*
X7398634Y-13944579D01*
X7474825Y-13906484D02*
X7474825Y-13944579D01*
X7770063Y-14182674D02*
X7760539Y-14173150D01*
X7760539Y-14173150D02*
X7741491Y-14144579D01*
X7741491Y-14144579D02*
X7731968Y-14125531D01*
X7731968Y-14125531D02*
X7722444Y-14096960D01*
X7722444Y-14096960D02*
X7712920Y-14049341D01*
X7712920Y-14049341D02*
X7712920Y-14011246D01*
X7712920Y-14011246D02*
X7722444Y-13963627D01*
X7722444Y-13963627D02*
X7731968Y-13935055D01*
X7731968Y-13935055D02*
X7741491Y-13916008D01*
X7741491Y-13916008D02*
X7760539Y-13887436D01*
X7760539Y-13887436D02*
X7770063Y-13877912D01*
X7836729Y-13925531D02*
X7846253Y-13916008D01*
X7846253Y-13916008D02*
X7865301Y-13906484D01*
X7865301Y-13906484D02*
X7912920Y-13906484D01*
X7912920Y-13906484D02*
X7931968Y-13916008D01*
X7931968Y-13916008D02*
X7941491Y-13925531D01*
X7941491Y-13925531D02*
X7951015Y-13944579D01*
X7951015Y-13944579D02*
X7951015Y-13963627D01*
X7951015Y-13963627D02*
X7941491Y-13992198D01*
X7941491Y-13992198D02*
X7827206Y-14106484D01*
X7827206Y-14106484D02*
X7951015Y-14106484D01*
X8189110Y-14106484D02*
X8189110Y-13906484D01*
X8274825Y-14106484D02*
X8274825Y-14001722D01*
X8274825Y-14001722D02*
X8265301Y-13982674D01*
X8265301Y-13982674D02*
X8246253Y-13973150D01*
X8246253Y-13973150D02*
X8217682Y-13973150D01*
X8217682Y-13973150D02*
X8198634Y-13982674D01*
X8198634Y-13982674D02*
X8189110Y-13992198D01*
X8398634Y-14106484D02*
X8379587Y-14096960D01*
X8379587Y-14096960D02*
X8370063Y-14087436D01*
X8370063Y-14087436D02*
X8360539Y-14068388D01*
X8360539Y-14068388D02*
X8360539Y-14011246D01*
X8360539Y-14011246D02*
X8370063Y-13992198D01*
X8370063Y-13992198D02*
X8379587Y-13982674D01*
X8379587Y-13982674D02*
X8398634Y-13973150D01*
X8398634Y-13973150D02*
X8427206Y-13973150D01*
X8427206Y-13973150D02*
X8446253Y-13982674D01*
X8446253Y-13982674D02*
X8455777Y-13992198D01*
X8455777Y-13992198D02*
X8465301Y-14011246D01*
X8465301Y-14011246D02*
X8465301Y-14068388D01*
X8465301Y-14068388D02*
X8455777Y-14087436D01*
X8455777Y-14087436D02*
X8446253Y-14096960D01*
X8446253Y-14096960D02*
X8427206Y-14106484D01*
X8427206Y-14106484D02*
X8398634Y-14106484D01*
X8579587Y-14106484D02*
X8560539Y-14096960D01*
X8560539Y-14096960D02*
X8551015Y-14077912D01*
X8551015Y-14077912D02*
X8551015Y-13906484D01*
X8731968Y-14096960D02*
X8712920Y-14106484D01*
X8712920Y-14106484D02*
X8674825Y-14106484D01*
X8674825Y-14106484D02*
X8655777Y-14096960D01*
X8655777Y-14096960D02*
X8646253Y-14077912D01*
X8646253Y-14077912D02*
X8646253Y-14001722D01*
X8646253Y-14001722D02*
X8655777Y-13982674D01*
X8655777Y-13982674D02*
X8674825Y-13973150D01*
X8674825Y-13973150D02*
X8712920Y-13973150D01*
X8712920Y-13973150D02*
X8731968Y-13982674D01*
X8731968Y-13982674D02*
X8741492Y-14001722D01*
X8741492Y-14001722D02*
X8741492Y-14020769D01*
X8741492Y-14020769D02*
X8646253Y-14039817D01*
X8817682Y-14096960D02*
X8836730Y-14106484D01*
X8836730Y-14106484D02*
X8874825Y-14106484D01*
X8874825Y-14106484D02*
X8893873Y-14096960D01*
X8893873Y-14096960D02*
X8903396Y-14077912D01*
X8903396Y-14077912D02*
X8903396Y-14068388D01*
X8903396Y-14068388D02*
X8893873Y-14049341D01*
X8893873Y-14049341D02*
X8874825Y-14039817D01*
X8874825Y-14039817D02*
X8846253Y-14039817D01*
X8846253Y-14039817D02*
X8827206Y-14030293D01*
X8827206Y-14030293D02*
X8817682Y-14011246D01*
X8817682Y-14011246D02*
X8817682Y-14001722D01*
X8817682Y-14001722D02*
X8827206Y-13982674D01*
X8827206Y-13982674D02*
X8846253Y-13973150D01*
X8846253Y-13973150D02*
X8874825Y-13973150D01*
X8874825Y-13973150D02*
X8893873Y-13982674D01*
X8970063Y-14182674D02*
X8979587Y-14173150D01*
X8979587Y-14173150D02*
X8998634Y-14144579D01*
X8998634Y-14144579D02*
X9008158Y-14125531D01*
X9008158Y-14125531D02*
X9017682Y-14096960D01*
X9017682Y-14096960D02*
X9027206Y-14049341D01*
X9027206Y-14049341D02*
X9027206Y-14011246D01*
X9027206Y-14011246D02*
X9017682Y-13963627D01*
X9017682Y-13963627D02*
X9008158Y-13935055D01*
X9008158Y-13935055D02*
X8998634Y-13916008D01*
X8998634Y-13916008D02*
X8979587Y-13887436D01*
X8979587Y-13887436D02*
X8970063Y-13877912D01*
X9331968Y-14182674D02*
X9322444Y-14173150D01*
X9322444Y-14173150D02*
X9303396Y-14144579D01*
X9303396Y-14144579D02*
X9293873Y-14125531D01*
X9293873Y-14125531D02*
X9284349Y-14096960D01*
X9284349Y-14096960D02*
X9274825Y-14049341D01*
X9274825Y-14049341D02*
X9274825Y-14011246D01*
X9274825Y-14011246D02*
X9284349Y-13963627D01*
X9284349Y-13963627D02*
X9293873Y-13935055D01*
X9293873Y-13935055D02*
X9303396Y-13916008D01*
X9303396Y-13916008D02*
X9322444Y-13887436D01*
X9322444Y-13887436D02*
X9331968Y-13877912D01*
X9408158Y-13973150D02*
X9408158Y-14106484D01*
X9408158Y-13992198D02*
X9417682Y-13982674D01*
X9417682Y-13982674D02*
X9436730Y-13973150D01*
X9436730Y-13973150D02*
X9465301Y-13973150D01*
X9465301Y-13973150D02*
X9484349Y-13982674D01*
X9484349Y-13982674D02*
X9493873Y-14001722D01*
X9493873Y-14001722D02*
X9493873Y-14106484D01*
X9617682Y-14106484D02*
X9598634Y-14096960D01*
X9598634Y-14096960D02*
X9589111Y-14087436D01*
X9589111Y-14087436D02*
X9579587Y-14068388D01*
X9579587Y-14068388D02*
X9579587Y-14011246D01*
X9579587Y-14011246D02*
X9589111Y-13992198D01*
X9589111Y-13992198D02*
X9598634Y-13982674D01*
X9598634Y-13982674D02*
X9617682Y-13973150D01*
X9617682Y-13973150D02*
X9646254Y-13973150D01*
X9646254Y-13973150D02*
X9665301Y-13982674D01*
X9665301Y-13982674D02*
X9674825Y-13992198D01*
X9674825Y-13992198D02*
X9684349Y-14011246D01*
X9684349Y-14011246D02*
X9684349Y-14068388D01*
X9684349Y-14068388D02*
X9674825Y-14087436D01*
X9674825Y-14087436D02*
X9665301Y-14096960D01*
X9665301Y-14096960D02*
X9646254Y-14106484D01*
X9646254Y-14106484D02*
X9617682Y-14106484D01*
X9741492Y-13973150D02*
X9817682Y-13973150D01*
X9770063Y-13906484D02*
X9770063Y-14077912D01*
X9770063Y-14077912D02*
X9779587Y-14096960D01*
X9779587Y-14096960D02*
X9798634Y-14106484D01*
X9798634Y-14106484D02*
X9817682Y-14106484D01*
X10036730Y-13973150D02*
X10036730Y-14173150D01*
X10036730Y-13982674D02*
X10055777Y-13973150D01*
X10055777Y-13973150D02*
X10093873Y-13973150D01*
X10093873Y-13973150D02*
X10112920Y-13982674D01*
X10112920Y-13982674D02*
X10122444Y-13992198D01*
X10122444Y-13992198D02*
X10131968Y-14011246D01*
X10131968Y-14011246D02*
X10131968Y-14068388D01*
X10131968Y-14068388D02*
X10122444Y-14087436D01*
X10122444Y-14087436D02*
X10112920Y-14096960D01*
X10112920Y-14096960D02*
X10093873Y-14106484D01*
X10093873Y-14106484D02*
X10055777Y-14106484D01*
X10055777Y-14106484D02*
X10036730Y-14096960D01*
X10246254Y-14106484D02*
X10227206Y-14096960D01*
X10227206Y-14096960D02*
X10217682Y-14077912D01*
X10217682Y-14077912D02*
X10217682Y-13906484D01*
X10408158Y-14106484D02*
X10408158Y-14001722D01*
X10408158Y-14001722D02*
X10398635Y-13982674D01*
X10398635Y-13982674D02*
X10379587Y-13973150D01*
X10379587Y-13973150D02*
X10341492Y-13973150D01*
X10341492Y-13973150D02*
X10322444Y-13982674D01*
X10408158Y-14096960D02*
X10389111Y-14106484D01*
X10389111Y-14106484D02*
X10341492Y-14106484D01*
X10341492Y-14106484D02*
X10322444Y-14096960D01*
X10322444Y-14096960D02*
X10312920Y-14077912D01*
X10312920Y-14077912D02*
X10312920Y-14058865D01*
X10312920Y-14058865D02*
X10322444Y-14039817D01*
X10322444Y-14039817D02*
X10341492Y-14030293D01*
X10341492Y-14030293D02*
X10389111Y-14030293D01*
X10389111Y-14030293D02*
X10408158Y-14020769D01*
X10474825Y-13973150D02*
X10551015Y-13973150D01*
X10503396Y-13906484D02*
X10503396Y-14077912D01*
X10503396Y-14077912D02*
X10512920Y-14096960D01*
X10512920Y-14096960D02*
X10531968Y-14106484D01*
X10531968Y-14106484D02*
X10551015Y-14106484D01*
X10693873Y-14096960D02*
X10674825Y-14106484D01*
X10674825Y-14106484D02*
X10636730Y-14106484D01*
X10636730Y-14106484D02*
X10617682Y-14096960D01*
X10617682Y-14096960D02*
X10608158Y-14077912D01*
X10608158Y-14077912D02*
X10608158Y-14001722D01*
X10608158Y-14001722D02*
X10617682Y-13982674D01*
X10617682Y-13982674D02*
X10636730Y-13973150D01*
X10636730Y-13973150D02*
X10674825Y-13973150D01*
X10674825Y-13973150D02*
X10693873Y-13982674D01*
X10693873Y-13982674D02*
X10703396Y-14001722D01*
X10703396Y-14001722D02*
X10703396Y-14020769D01*
X10703396Y-14020769D02*
X10608158Y-14039817D01*
X10874825Y-14106484D02*
X10874825Y-13906484D01*
X10874825Y-14096960D02*
X10855777Y-14106484D01*
X10855777Y-14106484D02*
X10817682Y-14106484D01*
X10817682Y-14106484D02*
X10798635Y-14096960D01*
X10798635Y-14096960D02*
X10789111Y-14087436D01*
X10789111Y-14087436D02*
X10779587Y-14068388D01*
X10779587Y-14068388D02*
X10779587Y-14011246D01*
X10779587Y-14011246D02*
X10789111Y-13992198D01*
X10789111Y-13992198D02*
X10798635Y-13982674D01*
X10798635Y-13982674D02*
X10817682Y-13973150D01*
X10817682Y-13973150D02*
X10855777Y-13973150D01*
X10855777Y-13973150D02*
X10874825Y-13982674D01*
X10951016Y-14182674D02*
X10960539Y-14173150D01*
X10960539Y-14173150D02*
X10979587Y-14144579D01*
X10979587Y-14144579D02*
X10989111Y-14125531D01*
X10989111Y-14125531D02*
X10998635Y-14096960D01*
X10998635Y-14096960D02*
X11008158Y-14049341D01*
X11008158Y-14049341D02*
X11008158Y-14011246D01*
X11008158Y-14011246D02*
X10998635Y-13963627D01*
X10998635Y-13963627D02*
X10989111Y-13935055D01*
X10989111Y-13935055D02*
X10979587Y-13916008D01*
X10979587Y-13916008D02*
X10960539Y-13887436D01*
X10960539Y-13887436D02*
X10951016Y-13877912D01*
M02*
