%TF.GenerationSoftware,KiCad,Pcbnew,8.0.6-8.0.6-0~ubuntu22.04.1*%
%TF.CreationDate,2024-11-14T20:16:40+01:00*%
%TF.ProjectId,VCO_RPIpico,56434f5f-5250-4497-9069-636f2e6b6963,0*%
%TF.SameCoordinates,Original*%
%TF.FileFunction,Profile,NP*%
%FSLAX46Y46*%
G04 Gerber Fmt 4.6, Leading zero omitted, Abs format (unit mm)*
G04 Created by KiCad (PCBNEW 8.0.6-8.0.6-0~ubuntu22.04.1) date 2024-11-14 20:16:40*
%MOMM*%
%LPD*%
G01*
G04 APERTURE LIST*
%TA.AperFunction,Profile*%
%ADD10C,0.100000*%
%TD*%
G04 APERTURE END LIST*
D10*
X178700000Y-51000000D02*
G75*
G02*
X175300000Y-51000000I-1700000J0D01*
G01*
X175300000Y-51000000D02*
G75*
G02*
X178700000Y-51000000I1700000J0D01*
G01*
X46700000Y-51000000D02*
G75*
G02*
X43300000Y-51000000I-1700000J0D01*
G01*
X43300000Y-51000000D02*
G75*
G02*
X46700000Y-51000000I1700000J0D01*
G01*
X148700000Y-124000000D02*
G75*
G02*
X145300000Y-124000000I-1700000J0D01*
G01*
X145300000Y-124000000D02*
G75*
G02*
X148700000Y-124000000I1700000J0D01*
G01*
X178700000Y-124000000D02*
G75*
G02*
X175300000Y-124000000I-1700000J0D01*
G01*
X175300000Y-124000000D02*
G75*
G02*
X178700000Y-124000000I1700000J0D01*
G01*
X112700000Y-124000000D02*
G75*
G02*
X109300000Y-124000000I-1700000J0D01*
G01*
X109300000Y-124000000D02*
G75*
G02*
X112700000Y-124000000I1700000J0D01*
G01*
X42000000Y-48000000D02*
X180000000Y-48000000D01*
X180000000Y-131000000D01*
X42000000Y-131000000D01*
X42000000Y-48000000D01*
X76700000Y-124000000D02*
G75*
G02*
X73300000Y-124000000I-1700000J0D01*
G01*
X73300000Y-124000000D02*
G75*
G02*
X76700000Y-124000000I1700000J0D01*
G01*
X46700000Y-104000000D02*
G75*
G02*
X43300000Y-104000000I-1700000J0D01*
G01*
X43300000Y-104000000D02*
G75*
G02*
X46700000Y-104000000I1700000J0D01*
G01*
X178700000Y-104000000D02*
G75*
G02*
X175300000Y-104000000I-1700000J0D01*
G01*
X175300000Y-104000000D02*
G75*
G02*
X178700000Y-104000000I1700000J0D01*
G01*
X46700000Y-124000000D02*
G75*
G02*
X43300000Y-124000000I-1700000J0D01*
G01*
X43300000Y-124000000D02*
G75*
G02*
X46700000Y-124000000I1700000J0D01*
G01*
M02*
